<svg xmlns="http://www.w3.org/2000/svg" width="73" height="84" viewBox="0 0 73 84">
    <defs>
        <linearGradient id="a" x1="5.519%" x2="50%" y1="96.006%" y2="56.424%">
            <stop offset="0%" stop-color="#0178FF"/>
            <stop offset="100%" stop-color="#0092FF"/>
        </linearGradient>
        <linearGradient id="b" x1="50%" x2="73.279%" y1="88.019%" y2="0%">
            <stop offset="0%" stop-color="#003CA2"/>
            <stop offset="100%" stop-color="#0178FF"/>
        </linearGradient>
        <linearGradient id="c" x1="73.272%" x2="31.029%" y1="89.814%" y2="5.23%">
            <stop offset="0%" stop-color="#0092FF"/>
            <stop offset="100%" stop-color="#00E7FF"/>
        </linearGradient>
    </defs>
    <g fill="none" fill-rule="evenodd">
        <path fill="url(#a)" d="M58.39 54.366v16.592l-7.408-4.272v-8.04h-.01l-7.403-4.273 7.413-4.286 7.407 4.279M58.39 29.214v16.6l-7.408-4.273v-8.055L44.02 29.47v-8.55l14.37 8.294M36.606 16.647v8.55L29.21 29.47v-8.55h-.012l-6.96-4.026V8.47l.052-.093 14.317 8.262v.008M36.606 41.79v16.595l-6.955-4.02-7.413-4.278V33.495l14.368 8.296M36.606 66.948v16.587l-14.368-8.297V58.645l.008-.007 14.36 8.296v.014M14.824 54.366v16.592L.45 62.66v-16.59l14.374 8.295M14.824 29.214v16.6L7.861 41.79.45 37.52v-16.6l14.374 8.294"/>
        <path fill="url(#b)" d="M22.238 50.087l7.413 4.279-7.405 4.272h-.008v8.048l-7.414 4.272V54.366l7.414-4.279M44.02 20.92v8.55l-7.414-4.273v-8.55l.008-.008 14.368-8.298v8.553L44.02 20.92M29.197 20.92l-14.373 8.294v16.6l.026.009 7.388-4.263v-8.065l6.97-4.025v-8.55h-.01M50.982 41.54v8.547l-14.368 8.306h-.008V41.791l14.376-8.296v8.046M58.39 29.214l14.373-8.294v16.6l-7.412 4.27-6.962 4.024v-16.6M58.39 54.366l14.373-8.296v16.591l-14.374 8.297V54.366"/>
        <path fill="url(#c)" d="M43.569 54.373l-6.955 4.02h-.008v-.008l-6.955-4.02-7.405 4.273 14.36 8.296.008.008 14.358-8.297-7.403-4.272M22.238 50.079v.008l-7.414 4.279L.45 46.07v-.01l7.411-4.27 6.963 4.024v.024l.026-.015 7.388-4.263v8.519M44.02 29.47l6.962 4.016v.009L36.606 41.79l-14.368-8.296 14.368-8.298 7.414 4.273M50.982 16.894l7.407-4.28 14.374 8.306-14.374 8.294-14.37-8.294 6.963-4.026M36.606 16.64L22.29 8.376l-.043-.036L36.606.048 50.982 8.34 36.614 16.64h-.008M22.238 16.894l6.96 4.026-14.374 8.294L.45 20.92l14.374-8.299 7.414 4.273"/>
        <path fill="url(#b)" d="M50.982 66.686v8.552l-14.376 8.297V66.948l.008-.006 14.358-8.297h.01v8.04"/>
        <path fill="url(#c)" d="M58.39 45.814l6.961-4.023 7.412 4.28-14.374 8.295-7.407-4.279v-8.546l7.407 4.273"/>
    </g>
</svg>
