<svg xmlns="http://www.w3.org/2000/svg" width="111" height="53" viewBox="0 0 111 53">
    <defs>
        <linearGradient id="a" x1="57.975%" x2="38.988%" y1="36.722%" y2="68.324%">
            <stop offset="0%" stop-color="#0FF" stop-opacity=".1"/>
            <stop offset="100%" stop-color="#0FF" stop-opacity="0"/>
        </linearGradient>
        <linearGradient id="b" x1="50%" x2="50%" y1="0%" y2="100%">
            <stop offset="0%" stop-color="#2A39DD"/>
            <stop offset="100%" stop-color="#4B94EF"/>
        </linearGradient>
        <linearGradient id="c" x1="50%" x2="50%" y1="0%" y2="100%">
            <stop offset="0%" stop-color="#8271FF"/>
            <stop offset="100%" stop-color="#C0A0FF"/>
        </linearGradient>
    </defs>
    <g fill="none" fill-rule="evenodd">
        <path fill="url(#a)" fill-rule="nonzero" d="M5.734 15.503v3.515l-5.499-3.23v-3.513z" transform="translate(.612 34.625)"/>
        <path fill="url(#a)" fill-rule="nonzero" d="M11.296 15.692v3.56l-5.57-3.271v-3.559z" transform="matrix(-1 0 0 1 17.634 34.625)"/>
        <path fill="url(#b)" fill-rule="nonzero" d="M11.056 3.338a.52.52 0 0 0-.017-.127c-.004-.018-.014-.033-.02-.05-.01-.026-.019-.052-.032-.076-.01-.016-.023-.03-.035-.045-.016-.021-.03-.044-.049-.063-.013-.013-.03-.023-.045-.035-.02-.016-.039-.034-.062-.048l-.003-.001-.003-.002L5.788.068a.528.528 0 0 0-.519 0L2.85 1.436h-.002L.267 2.891l-.002.002-.004.001c-.022.013-.04.03-.06.047-.015.012-.033.022-.046.036-.02.02-.034.042-.05.064-.011.015-.025.028-.034.044-.015.026-.024.054-.034.082-.006.015-.014.028-.018.044a.51.51 0 0 0-.017.122L0 3.348v5.908c0 .19.102.364.267.457l5.003 2.823c.026.015.055.024.084.034.013.005.026.013.04.016a.519.519 0 0 0 .27 0c.013-.003.026-.01.04-.016.029-.01.057-.019.084-.034l5.003-2.823a.525.525 0 0 0 .267-.457V3.348l-.002-.01z" transform="translate(.814 37.929)"/>
        <path fill="#75ACFF" d="M1.116 40.807l4.867-2.786a.842.842 0 0 1 .26-.116.456.456 0 0 1 .193 0c.065.013.12.034.26.114l4.86 2.752a.514.514 0 0 1 .005.893l-4.846 2.804a.84.84 0 0 1-.26.117.456.456 0 0 1-.194 0A.84.84 0 0 1 6 44.472l-4.881-2.77a.514.514 0 0 1-.002-.894z"/>
        <g>
            <path fill="url(#a)" fill-rule="nonzero" d="M7.577 19.615v4.68l-7.266-4.3v-4.68z" transform="translate(95.204 -3.033)"/>
            <path fill="url(#a)" fill-rule="nonzero" d="M14.926 19.877v4.74l-7.36-4.355v-4.739z" transform="matrix(-1 0 0 1 117.697 -3.033)"/>
            <path fill="url(#c)" fill-rule="nonzero" d="M14.61 4.445a.698.698 0 0 0-.023-.169c-.006-.023-.019-.044-.027-.066-.013-.035-.024-.07-.042-.102-.013-.022-.03-.04-.046-.06-.02-.028-.04-.058-.064-.083-.018-.018-.04-.031-.06-.047-.027-.022-.052-.046-.082-.064-.001 0-.003 0-.004-.002l-.004-.002L7.648.09a.692.692 0 0 0-.685 0l-3.2 1.822L.352 3.85l-.003.002-.005.002c-.03.017-.053.041-.079.062-.02.017-.044.03-.062.048-.026.026-.045.057-.066.086-.014.02-.032.037-.044.058-.02.034-.032.072-.045.11-.008.02-.019.037-.024.058a.683.683 0 0 0-.022.162c0 .007-.003.013-.003.02v7.868a.7.7 0 0 0 .353.61l6.61 3.758c.036.02.074.032.111.046.018.006.035.017.054.022a.68.68 0 0 0 .356 0c.018-.005.035-.015.054-.022.037-.013.075-.025.11-.045l6.61-3.76a.7.7 0 0 0 .354-.608V4.458l-.002-.013z" transform="translate(95.471 .336)"/>
            <path fill="#8271FF" d="M95.82 4.155l6.472-3.688c.183-.104.254-.13.338-.148a.59.59 0 0 1 .249 0c.084.017.155.044.338.148l6.501 3.699a.666.666 0 0 1 .003 1.156l-6.443 3.712c-.183.106-.255.133-.339.151a.59.59 0 0 1-.25 0c-.084-.017-.156-.044-.34-.148L95.82 5.313a.666.666 0 0 1 0-1.158z"/>
        </g>
    </g>
</svg>
