<svg xmlns="http://www.w3.org/2000/svg" xmlns:xlink="http://www.w3.org/1999/xlink" width="171" height="40" viewBox="0 0 171 40">
    <defs>
        <path id="a" d="M0 .058h27.61V40H0z"/>
        <path id="c" d="M.33.058h27.611V40H.331z"/>
    </defs>
    <g fill="none" fill-rule="evenodd">
        <path fill="#242424" d="M87.138 6.898H98.53v20.764c0 2.985-2.194 4.908-5.42 5.02l.709 3.076h.142c5.76-.185 7.81-4.224 7.81-7.627V6.898h.744l.755-3.262H86.36l.778 3.262z"/>
        <path fill="#242424" d="M92.27 24.608c0 1.302-.442 1.811-1.582 1.811h-1.177V12.97h2.759v11.64zm3.145.295V9.697H86.36v20h4.902c1.397 0 2.423-.363 3.118-1.11.743-.8 1.081-2.008 1.035-3.684zM73.678 3.636v32.122h3.176V6.898h3.685l-2.303 10.087h.01l.05.041c.988.866 2.65 2.855 2.65 6.469 0 3.556-2.045 4.782-2.706 5.086v3.314c1.748-.083 5.861-2.596 5.861-8.4 0-3.497-1.19-5.904-2.384-7.451l2.832-12.408h-10.87zM112.031 18.146V6.899h9.245v3.981h-6.77l-.75 3.256h7.52v4.01h-9.245zm21.73-2.251c0 1.534-.621 2.25-1.948 2.25h-7.297v-4.01h7.525l-.76-3.255h-6.765V6.9h9.246v8.996zm-9.245 16.608v-3.936h10.9l-.767-3.259h-10.133v-3.905h7.301c3.446 0 5.188-1.806 5.188-5.361V3.636h-28.21v17.767h12.48v3.905h-10.13l-.765 3.259h10.896v3.936l-11.818-.007-.753 3.262h28.385l-.76-3.254h-11.814zM167.745 3.636H145.69l-.75 3.03h23.553zM169.057 31.98c-.375-1.64-1.614-7.073-1.874-7.917l-.063-.2h-3.31l.1.363c.227.772 1.556 6.465 1.988 8.327h-17.611c.836-3.663 2.29-9.952 3.005-12.986h19.617l-.759-3.203H143.29l-.764 3.203h5.412c-.692 3-2.547 10.825-3.737 15.845l-.083.346h21.927c1.336-.004 2.279-.377 2.795-1.119.627-.894.433-2.076.23-2.612l-.012-.048z"/>
        <path fill="#242424" d="M87.138 6.898H98.53v20.764c0 2.985-2.194 4.908-5.42 5.02l.709 3.076h.142c5.76-.185 7.81-4.224 7.81-7.627V6.898h.744l.755-3.262H86.36l.778 3.262z"/>
        <path fill="#242424" d="M92.27 24.608c0 1.302-.442 1.811-1.582 1.811h-1.177V12.97h2.759v11.64zm3.145.295V9.697H86.36v20h4.902c1.397 0 2.423-.363 3.118-1.11.743-.8 1.081-2.008 1.035-3.684zM73.678 3.636v32.122h3.176V6.898h3.685l-2.303 10.087h.01l.05.041c.988.866 2.65 2.855 2.65 6.469 0 3.556-2.045 4.782-2.706 5.086v3.314c1.748-.083 5.861-2.596 5.861-8.4 0-3.497-1.19-5.904-2.384-7.451l2.832-12.408h-10.87zM112.031 18.146V6.899h9.245v3.981h-6.77l-.75 3.256h7.52v4.01h-9.245zm21.73-2.251c0 1.534-.621 2.25-1.948 2.25h-7.297v-4.01h7.525l-.76-3.255h-6.765V6.9h9.246v8.996zm-9.245 16.608v-3.936h10.9l-.767-3.259h-10.133v-3.905h7.301c3.446 0 5.188-1.806 5.188-5.361V3.636h-28.21v17.767h12.48v3.905h-10.13l-.765 3.259h10.896v3.936l-11.818-.007-.753 3.262h28.385l-.76-3.254h-11.814zM167.745 3.636H145.69l-.75 3.03h23.553zM169.057 31.98c-.375-1.64-1.614-7.073-1.874-7.917l-.063-.2h-3.31l.1.363c.227.772 1.556 6.465 1.988 8.327h-17.611c.836-3.663 2.29-9.952 3.005-12.986h19.617l-.759-3.203H143.29l-.764 3.203h5.412c-.692 3-2.547 10.825-3.737 15.845l-.083.346h21.927c1.336-.004 2.279-.377 2.795-1.119.627-.894.433-2.076.23-2.612l-.012-.048z"/>
        <g>
            <mask id="b" fill="#fff">
                <use xlink:href="#a"/>
            </mask>
            <path fill="#353C41" d="M26.058 33.853L11.58 30.699a3.07 3.07 0 0 1-2.371-2.861c-.005-.04-.005-15.579 0-15.62a3.07 3.07 0 0 1 2.37-2.861l14.478-3.153L27.61.058H10.74C4.822.058.022 4.848 0 10.768v18.52C.023 35.207 4.823 40 10.74 40h16.87l-1.552-6.147z" mask="url(#b)"/>
        </g>
        <g transform="translate(36.235)">
            <mask id="d" fill="#fff">
                <use xlink:href="#c"/>
            </mask>
            <path fill="#353C41" d="M1.884 33.853l14.476-3.154a3.07 3.07 0 0 0 2.371-2.861c.006-.04.006-15.579 0-15.62a3.07 3.07 0 0 0-2.37-2.861L1.883 6.204.33.058h16.872c5.917 0 10.717 4.79 10.739 10.71v18.52C27.919 35.207 23.119 40 17.201 40H.332l1.553-6.147z" mask="url(#d)"/>
        </g>
        <path fill="#353C41" d="M25.969 21.212h12.078v-1.818H25.969z"/>
    </g>
</svg>
