<svg xmlns="http://www.w3.org/2000/svg" width="190" height="48" viewBox="0 0 190 48">
    <g fill="none" fill-rule="nonzero">
        <g fill="#00A971">
            <path d="M29.244 27.758l7.751 4.483-7.75 4.485zM29.857 26.701l7.746-4.482v8.959zM29.244 16.673l7.751 4.482-7.75 4.486zM1.112 10.07l7.745-4.483v8.966zM.497 11.13l7.747 4.484-7.747 4.48zM.497 22.217l7.75 4.484-7.75 4.483zM29.244 5.584l7.752 4.487-7.752 4.485zM29.857 15.614l7.746-4.479v8.959zM20.274 10.07l7.75-4.483v8.964zM20.274 32.238l7.75-4.48v8.963zM10.691 4.527L18.438.045v8.963zM19.658.043l7.754 4.484-7.754 4.485zM19.658 33.303l7.754 4.482-7.754 4.484zM20.274 43.33l7.75-4.484v8.965zM10.076 27.758l7.753 4.483-7.753 4.485zM10.076 5.581l7.753 4.487-7.753 4.483zM1.108 21.155l7.749-4.477v8.958zM1.112 32.24l7.745-4.479v8.965zM10.691 37.787l7.747-4.484v8.966z"/>
        </g>
        <g fill="#242424">
            <path d="M66.756 28.979c0 1.611-2.03 3.576-3.815 4.524 1.542.775 2.38 1.23 3.117 1.72.56.349.735.668.525 1.261-.142.458-.841 1.476-1.366 1.476-.42 0-.666-.142-1.297-.596-1.05-.665-3.291-2.07-5.848-3.125-2.243-.91-5.043-3.331-5.043-5.26V16.63c0-2.423 4.481-5.687 6.83-5.687 2.415 0 6.897 3.264 6.897 5.687v12.348zm-10.261-.458c0 1.228 2.277 2.911 3.364 2.911 1.154 0 3.432-1.683 3.432-2.911V17.083c0-1.228-2.242-2.91-3.432-2.91-1.087 0-3.364 1.682-3.364 2.91V28.52zM74.249 33.574a.757.757 0 0 1-.771.774h-1.925a.778.778 0 0 1-.77-.774v-21.54c0-.422.347-.772.77-.772h1.925c.456 0 .771.35.771.771v21.54zM82.024 18.838v14.736c0 .456-.35.774-.84.774h-1.752c-.42 0-.804-.317-.804-.774v-21.54c0-.422.384-.772.804-.772h1.47c.561 0 .807.28 1.087.771l7.075 14.875V12.033c0-.457.314-.77.772-.77h1.785c.456 0 .805.313.805.77v21.54c0 .457-.348.775-.805.775h-1.435c-.527 0-.878-.39-1.088-.774l-7.074-14.736zM103.946 21.89c0-.422.386-.772.805-.772h4.275c.455 0 1.12.667 1.12 1.087v6.773c0 2.35-4.412 5.683-6.83 5.683-2.347 0-6.865-3.333-6.865-5.683V16.63c0-2.423 4.553-5.687 6.865-5.687 1.506 0 3.748 1.158 5.393 2.178a.863.863 0 0 1 .35 1.155l-.594 1.159c-.21.387-.771.528-1.226.282-1.26-.668-2.977-1.544-3.922-1.544-1.05 0-3.398 1.682-3.398 2.91V28.52c0 1.193 2.312 2.911 3.398 2.911 1.05 0 3.363-1.753 3.363-2.911v-4.35h-1.928c-.42 0-.804-.352-.804-.772v-1.51h-.002zM116.798 28.52c0 1.266 2.416 2.946 3.363 2.946.98 0 2.416-.77 3.676-1.471.491-.246 1.086-.105 1.297.352l.56 1.157c.21.456.07.948-.314 1.157-1.612.982-3.573 2-5.218 2-2.279 0-6.83-3.12-6.83-5.682V16.63c0-2.492 4.517-5.687 6.864-5.687 1.47 0 3.502 1.022 5.148 1.966.42.211.56.771.316 1.193l-.525 1.122c-.21.422-.772.56-1.226.315-1.262-.63-2.732-1.401-3.713-1.401-.98 0-3.398 1.683-3.398 2.943v11.439zM128.634 32.907V12.032c0-.42.385-.77.807-.77h1.82c.454 0 .839.35.839.77v19.261h6.586c.454 0 .806.35.806.77v1.51a.788.788 0 0 1-.806.775H130c-.49 0-1.365-.985-1.365-1.441zM154.69 28.979c0 2.42-4.483 5.682-6.9 5.682-2.347 0-6.83-3.229-6.83-5.682V16.63c0-2.423 4.483-5.687 6.83-5.687 2.417 0 6.9 3.264 6.9 5.687v12.348zm-10.262-.458c0 1.228 2.275 2.911 3.362 2.911 1.156 0 3.432-1.683 3.432-2.911V17.083c0-1.228-2.24-2.91-3.432-2.91-1.087 0-3.362 1.682-3.362 2.91V28.52zM165.37 34.661c-2.313 0-6.83-3.12-6.83-5.65V12.032c0-.42.384-.77.806-.77h1.856c.453 0 .804.35.804.77v16.525c0 1.23 2.279 2.91 3.364 2.91 1.087 0 3.361-1.68 3.361-2.91V12.032c0-.42.317-.77.74-.77h1.922c.423 0 .807.35.807.77v16.979c0 2.455-4.519 5.65-6.83 5.65zM189.847 28.909c0 2.104-3.923 5.438-6.304 5.438h-5.464c-.981 0-1.679-.6-1.679-1.3V12.629c0-.738.77-1.367 1.68-1.367h5.394c2.45 0 6.374 3.086 6.374 5.436v12.21zm-3.468-11.72c0-1.158-2.1-2.913-3.36-2.913h-3.152v17.052h3.222c1.225 0 3.29-1.787 3.29-2.91V17.189z"/>
        </g>
    </g>
</svg>
