<?xml version="1.0" encoding="UTF-8"?>
<svg width="48px" height="42px" viewBox="0 0 48 42" version="1.1" xmlns="http://www.w3.org/2000/svg" xmlns:xlink="http://www.w3.org/1999/xlink">
    <!-- Generator: Sketch 51.2 (57519) - http://www.bohemiancoding.com/sketch -->
    <title>Group</title>
    <desc>Created with Sketch.</desc>
    <defs>
        <linearGradient x1="45.101%" y1="14.338%" x2="59.441%" y2="93.297%" id="linearGradient-1">
            <stop stop-color="#84BAF5" offset="0%"></stop>
            <stop stop-color="#DBEBFA" offset="100%"></stop>
        </linearGradient>
        <linearGradient x1="45.101%" y1="14.338%" x2="59.441%" y2="93.297%" id="linearGradient-2">
            <stop stop-color="#75ACFF" offset="0%"></stop>
            <stop stop-color="#9AA2FF" offset="100%"></stop>
        </linearGradient>
    </defs>
    <g id="Page-1" stroke="none" stroke-width="1" fill="none" fill-rule="evenodd">
        <g id="产品服务导航" transform="translate(-1400.000000, -171.000000)" fill-rule="nonzero">
            <g id="ipfs" transform="translate(1363.000000, 109.000000)">
                <g id="img-ipfs" transform="translate(12.000000, 0.000000)">
                    <g id="Group" transform="translate(24.933333, 52.208054)">
                        <path d="M12.8090587,20.2528254 L31.3220587,25.4599529 C31.9429993,25.63452 32.4253676,26.123221 32.5907254,26.745275 L37.6829921,45.8787985 C37.8507716,46.508622 37.6681904,47.179867 37.2042897,47.6387086 C36.740389,48.0975502 36.0659704,48.2739592 35.4360587,48.1012281 L16.9707254,43.0389462 C16.3449915,42.8673352 15.8577276,42.3770822 15.6910587,41.7514294 L10.5503921,22.4730603 C10.3815692,21.8409874 10.5657407,21.1671545 11.0328073,20.7080351 C11.499874,20.2489157 12.1779927,20.0751305 12.8090587,20.2528254 Z" id="Shape" fill="url(#linearGradient-1)" opacity="0.6" transform="translate(24.116538, 34.175354) rotate(-45.000000) translate(-24.116538, -34.175354) "></path>
                        <path d="M15.5314829,32.4115233 L29.5806829,36.2477381 C30.0470807,36.3751227 30.4114533,36.7386061 30.5391496,37.2038656 L34.3832829,51.2195099 C34.5126695,51.6908228 34.3796321,52.1951782 34.0344604,52.5419238 C33.6892888,52.8886695 33.1846422,53.0249058 32.7112829,52.899134 L18.6972829,49.1704562 C18.2269461,49.0453694 17.8586263,48.6804555 17.7300162,48.212134 L13.8506829,34.0904159 C13.720324,33.6172502 13.8545852,33.1106949 14.2023426,32.7636348 C14.5501001,32.4165747 15.0578361,32.2824204 15.5322162,32.4122548 L15.5314829,32.4115233 Z" id="Shape" fill="url(#linearGradient-1)" opacity="0.4" transform="translate(24.116818, 42.654364) rotate(-45.000000) translate(-24.116818, -42.654364) "></path>
                        <path d="M10.0781388,7.33669874 L33.6782721,13.7786719 C34.4548936,13.9906118 35.0619435,14.595346 35.2754721,15.3697793 L41.7838054,38.9657189 C42.0013113,39.7525276 41.7796565,40.5952772 41.2029409,41.174213 C40.6262254,41.7531489 39.782824,41.9795558 38.9927388,41.767531 L15.4014054,35.4462625 C14.6189797,35.2369833 14.0065513,34.629391 13.7924721,33.8500343 L7.2760721,10.13339 C7.05913171,9.34507912 7.28283257,8.50126397 7.8620624,7.92299398 C8.44129223,7.34472399 9.28699589,7.12090672 10.0774054,7.33669874 L10.0781388,7.33669874 Z" id="Shape" fill="url(#linearGradient-2)" transform="translate(24.530287, 24.550820) rotate(-45.000000) translate(-24.530287, -24.550820) "></path>
                    </g>
                </g>
            </g>
        </g>
    </g>
</svg>