<?xml version="1.0" encoding="UTF-8"?>
<svg width="88px" height="46px" viewBox="0 0 88 46" version="1.1" xmlns="http://www.w3.org/2000/svg" xmlns:xlink="http://www.w3.org/1999/xlink">
    <!-- Generator: Sketch 51.2 (57519) - http://www.bohemiancoding.com/sketch -->
    <title>Group 31</title>
    <desc>Created with Sketch.</desc>
    <defs>
        <linearGradient x1="57.975%" y1="36.722%" x2="38.988%" y2="68.324%" id="linearGradient-1">
            <stop stop-color="#00FFFF" stop-opacity="0.1" offset="0%"></stop>
            <stop stop-color="#00FFFF" stop-opacity="0" offset="100%"></stop>
        </linearGradient>
        <linearGradient x1="50%" y1="0%" x2="50%" y2="100%" id="linearGradient-2">
            <stop stop-color="#2A39DD" offset="0%"></stop>
            <stop stop-color="#4B94EF" offset="100%"></stop>
        </linearGradient>
        <linearGradient x1="50%" y1="0%" x2="50%" y2="100%" id="linearGradient-3">
            <stop stop-color="#8271FF" offset="0%"></stop>
            <stop stop-color="#C0A0FF" offset="100%"></stop>
        </linearGradient>
    </defs>
    <g id="Page-1" stroke="none" stroke-width="1" fill="none" fill-rule="evenodd">
        <g id="产品服务导航" transform="translate(-1375.000000, -137.000000)" fill-rule="nonzero">
            <g id="ipfs" transform="translate(1363.000000, 109.000000)">
                <g id="img-ipfs" transform="translate(12.000000, 0.000000)">
                    <g id="Group-31" transform="translate(0.000000, 28.000000)">
                        <g id="Group-29" transform="translate(78.000000, 34.000000)">
                            <polygon id="Shape" fill="url(#linearGradient-1)" points="5.0456 9.87194631 5.0456 12.6708322 0.6544 10.0987248 0.6544 7.30057047"></polygon>
                            <polygon id="Shape" fill="url(#linearGradient-1)" transform="translate(7.262833, 10.137131) scale(-1, 1) translate(-7.262833, -10.137131) " points="9.48666667 10.0219128 9.48666667 12.8566443 5.039 10.252349 5.039 7.41761745"></polygon>
                            <path d="M9.45733333,2.81328188 C9.45662687,2.77915707 9.45170074,2.74524972 9.44266667,2.71232886 C9.439,2.69769799 9.43166667,2.68599329 9.42653333,2.67209396 C9.4192,2.65161074 9.41186667,2.63112752 9.40086667,2.61210738 C9.39353333,2.5989396 9.38253333,2.58796644 9.37373333,2.5755302 C9.36126667,2.55943624 9.34953333,2.54114765 9.33486667,2.52578523 C9.32386667,2.51554362 9.30993333,2.50749664 9.2982,2.49798658 C9.28206667,2.48481879 9.2674,2.47091946 9.24906667,2.45994631 L9.24613333,2.45921477 C9.24613333,2.45848322 9.2454,2.45775168 9.24393333,2.45775168 L5.24946667,0.208986577 C5.12110578,0.136760785 4.96422755,0.136760785 4.83586667,0.208986577 L2.90133333,1.29898658 L0.840666667,2.45628859 L0.838466667,2.45848322 L0.836266667,2.45921477 C0.817933333,2.46945638 0.804,2.4833557 0.787866667,2.49579195 C0.7754,2.50603356 0.761466667,2.51408054 0.7512,2.52505369 C0.735066667,2.54041611 0.723333333,2.5587047 0.710866667,2.57626174 C0.702066667,2.58796644 0.691066667,2.59820805 0.684466667,2.61137584 C0.672,2.63185906 0.664666667,2.65453691 0.6566,2.67721477 C0.6522,2.68818792 0.6456,2.69916107 0.641933333,2.71159732 C0.633903003,2.74316854 0.62971725,2.77559036 0.629466667,2.80816107 C0.629466667,2.81328188 0.628,2.81767114 0.628,2.82132886 L0.628,7.52661745 C0.628,7.67804698 0.7094,7.81704027 0.8414,7.89092617 L4.83586667,10.1396913 C4.85786667,10.151396 4.87986667,10.1587114 4.9026,10.1667584 C4.9136,10.1704161 4.9246,10.177 4.9356,10.1799262 C5.00597614,10.1987742 5.08009053,10.1987742 5.15046667,10.1799262 C5.16146667,10.177 5.17246667,10.1704161 5.18273333,10.1667584 C5.20546667,10.1587114 5.2282,10.1521275 5.2502,10.1396913 L9.24466667,7.89165772 C9.37617937,7.81731688 9.45742462,7.67813966 9.45733333,7.52734899 L9.45733333,2.82132886 L9.45733333,2.81328188 Z" id="Shape" fill="url(#linearGradient-2)"></path>
                            <path d="M0.87,2.44751007 L4.75593333,0.228006711 C4.81937042,0.185763516 4.88954939,0.154594016 4.96346667,0.135832215 C5.01421163,0.124867549 5.06672171,0.124867549 5.11746667,0.135832215 C5.1688,0.146805369 5.2128,0.162899329 5.32573333,0.226543624 L9.2058,2.41824832 C9.3339768,2.49057076 9.41352313,2.62581964 9.41428062,2.77271812 C9.41503812,2.91961659 9.33689082,3.05567467 9.20946667,3.12930872 L5.33966667,5.36344295 C5.27606971,5.40604399 5.20562955,5.43746676 5.1314,5.45634899 C5.0807074,5.46755484 5.02819729,5.46780428 4.9774,5.45708054 C4.90301008,5.43872839 4.8323212,5.40780016 4.7684,5.36563758 L0.870733333,3.15930201 C0.742424108,3.08668372 0.663018708,2.95099195 0.662715479,2.80383107 C0.66241225,2.6566702 0.741257788,2.52065393 0.869266667,2.44751007 L0.87,2.44751007 Z" id="Shape" fill="#75ACFF"></path>
                        </g>
                        <g id="Group" transform="translate(0.000000, 0.798658)">
                            <polygon id="Shape" fill="url(#linearGradient-1)" points="8.0674 17.0398456 8.0674 21.925094 0.330733333 17.4370738 0.330733333 12.5532886"></polygon>
                            <polygon id="Shape" fill="url(#linearGradient-1)" transform="translate(11.973867, 17.516081) scale(-1, 1) translate(-11.973867, -17.516081) " points="15.8913333 17.3141745 15.8913333 22.261604 8.0564 17.7157919 8.0564 12.770557"></polygon>
                            <path d="M15.8392667,4.72284564 C15.8387496,4.66357949 15.8308673,4.60460602 15.8158,4.54727517 C15.8084667,4.52240268 15.7952667,4.50045638 15.7864667,4.47704698 C15.7718,4.44193289 15.7608,4.4053557 15.7417333,4.3717047 C15.7278,4.34902685 15.7087333,4.33000671 15.6926,4.30879195 C15.6706,4.2795302 15.6508,4.24807383 15.6244,4.22173826 C15.6053333,4.20344966 15.5811333,4.18955034 15.5606,4.17272483 C15.532,4.15077852 15.5056,4.1251745 15.4733333,4.10688591 L15.4689333,4.10469128 C15.4674667,4.10469128 15.4667333,4.10322819 15.4652667,4.10249664 L8.42746667,0.178496644 C8.20073822,0.0521305939 7.92452845,0.0521305939 7.6978,0.178496644 L4.29146667,2.07977852 L4.29073333,2.07977852 L0.660733333,4.1017651 L0.657066667,4.10469128 L0.652666667,4.10688591 C0.621133333,4.12444295 0.595466667,4.14931544 0.5676,4.17126174 C0.5456,4.18808725 0.5214,4.20198658 0.5016,4.22173826 C0.474466667,4.24880537 0.453933333,4.28026174 0.431933333,4.31098658 C0.416533333,4.3314698 0.397466667,4.34975839 0.385,4.3717047 C0.363733333,4.40755034 0.350533333,4.44705369 0.3366,4.4858255 C0.329266667,4.50630872 0.3168,4.52532886 0.310933333,4.54654362 C0.296437315,4.60197817 0.288802687,4.65897529 0.2882,4.71626174 C0.287466667,4.72357718 0.284533333,4.72942953 0.284533333,4.73674497 L0.284533333,12.9483221 C0.284533333,13.2116779 0.428266667,13.4545503 0.660733333,13.5840336 L7.6978,17.507302 C7.73593333,17.5285168 7.77626667,17.540953 7.8166,17.5541208 C7.83566667,17.5614362 7.85326667,17.5724094 7.8738,17.5775302 C7.99777931,17.610416 8.12822069,17.610416 8.2522,17.5775302 C8.272,17.5724094 8.29033333,17.5614362 8.3094,17.5548523 C8.34973333,17.540953 8.39006667,17.5285168 8.42746667,17.5080336 L15.4652667,13.5840336 C15.6967319,13.4560001 15.8406557,13.2130742 15.8414667,12.9490537 L15.8414667,4.73674497 C15.8414667,4.73162416 15.8392667,4.7272349 15.8392667,4.72211409 L15.8392667,4.72284564 Z" id="Shape" fill="url(#linearGradient-3)"></path>
                            <path d="M0.700333333,4.14419463 L7.60246667,0.179959732 C7.79166667,0.0716912752 7.86573333,0.0431610738 7.95226667,0.0248724832 C8.03723185,0.00611481182 8.12522663,0.00561606169 8.2104,0.023409396 C8.2984,0.040966443 8.37173333,0.0687651007 8.5624,0.17557047 L15.4036667,4.01763758 C15.6198613,4.13892772 15.7543792,4.36643297 15.7561974,4.6138603 C15.7580156,4.86128763 15.6268556,5.09073568 15.4124667,5.2151745 L8.53966667,9.20501342 C8.35046667,9.31474497 8.27566667,9.34400671 8.18913333,9.3622953 C8.10374923,9.38150502 8.01523153,9.38225334 7.92953333,9.36448993 C7.84153333,9.34620134 7.7682,9.31840268 7.5768,9.21086577 L0.705466667,5.34319463 C0.488933627,5.22144412 0.35455834,4.99313496 0.353496773,4.74518325 C0.352435206,4.49723155 0.484850686,4.26778573 0.700333333,4.14419463 Z" id="Shape" fill="#8271FF"></path>
                        </g>
                    </g>
                </g>
            </g>
        </g>
    </g>
</svg>