<svg xmlns="http://www.w3.org/2000/svg" width="31" height="35" viewBox="0 0 31 35">
    <path fill="#4285F4" fill-rule="evenodd" d="M0 7.396c0-1.16.203-2.191.609-3.094a7.24 7.24 0 0 1 1.63-2.32A7.025 7.025 0 0 1 4.602.508 7.832 7.832 0 0 1 7.401 0c.974 0 1.907.17 2.8.508.892.338 1.68.83 2.361 1.474a7.24 7.24 0 0 1 1.631 2.32c.406.903.61 1.934.61 3.094v20.208c0 1.16-.204 2.191-.61 3.094a7.24 7.24 0 0 1-1.63 2.32 7.025 7.025 0 0 1-2.362 1.474A7.832 7.832 0 0 1 7.4 35c-.974 0-1.907-.17-2.8-.508a7.025 7.025 0 0 1-2.361-1.474 7.24 7.24 0 0 1-1.631-2.32C.203 29.795 0 28.764 0 27.604V7.396zm4.966 20.208c0 .709.228 1.297.682 1.764.455.467 1.039.701 1.753.701s1.298-.234 1.753-.7c.454-.468.682-1.056.682-1.765V7.396c0-.709-.228-1.297-.682-1.764-.455-.467-1.039-.701-1.753-.701s-1.298.234-1.753.7c-.454.468-.682 1.056-.682 1.765v20.208zm21.068 7.106V5.51l-4.967 3.626V3.916L26.034.29H31v34.42h-4.966z"/>
</svg>
