<?xml version="1.0" encoding="UTF-8"?>
<svg width="65px" height="53px" viewBox="0 0 65 53" version="1.1" xmlns="http://www.w3.org/2000/svg" xmlns:xlink="http://www.w3.org/1999/xlink">
    <!-- Generator: Sketch 49.3 (51167) - http://www.bohemiancoding.com/sketch -->
    <title>账本</title>
    <desc>Created with Sketch.</desc>
    <defs>
        <linearGradient x1="-13.1579%" y1="49.8382%" x2="115.518784%" y2="49.8382%" id="linearGradient-1">
            <stop stop-color="#4285F4" offset="0%"></stop>
            <stop stop-color="#0069FF" stop-opacity="0.2" offset="100%"></stop>
        </linearGradient>
    </defs>
    <g id="产品" stroke="none" stroke-width="1" fill="none" fill-rule="evenodd">
        <g id="纸贵BaaS_zig" transform="translate(-362.000000, -971.000000)">
            <g id="Group-13" transform="translate(359.000000, 825.000000)">
                <g id="Group-26" transform="translate(1.000000, 146.000000)">
                    <g id="账本" transform="translate(2.000000, 0.000000)">
                        <path d="M2,0 L54,0 C55.1045695,-2.02906125e-16 56,0.8954305 56,2 L56,36 L8,36 C3.581722,36 5.41083001e-16,32.418278 0,28 L0,2 C-1.3527075e-16,0.8954305 0.8954305,2.02906125e-16 2,0 Z" id="Rectangle-7" fill="url(#linearGradient-1)"></path>
                        <path d="M11,17 L63,17 C64.1045695,17 65,17.8954305 65,19 L65,51 C65,52.1045695 64.1045695,53 63,53 L19,53 C13.4771525,53 9,48.5228475 9,43 L9,33.5681818 L9,19 C9,17.8954305 9.8954305,17 11,17 Z" id="Rectangle-7" fill="url(#linearGradient-1)"></path>
                        <g id="Group-20" transform="translate(17.000000, 29.000000)" fill="#1A1A54" fill-rule="nonzero">
                            <circle id="Oval" cx="20" cy="6" r="6"></circle>
                            <circle id="Oval" cx="2" cy="6" r="2"></circle>
                            <circle id="Oval" cx="38" cy="6" r="2"></circle>
                        </g>
                    </g>
                </g>
            </g>
        </g>
    </g>
</svg>