<svg xmlns="http://www.w3.org/2000/svg" width="64" height="64" viewBox="0 0 64 64">
    <defs>
        <linearGradient id="a" x1="-13.158%" x2="115.519%" y1="49.838%" y2="49.838%">
            <stop offset="0%" stop-color="#4285F4"/>
            <stop offset="100%" stop-color="#0069FF" stop-opacity=".2"/>
        </linearGradient>
    </defs>
    <g fill="none" fill-rule="evenodd">
        <path d="M0 0h64v64H0z"/>
        <g transform="translate(3)">
            <path fill="url(#a)" fill-rule="nonzero" d="M22.497 59.75C14.631 59.75 0 47.754 0 36.412V13.816l2.237-.036c.047 0 5.041-.106 10.194-2.19 5.284-2.14 8.693-4.597 8.725-4.62L22.492 6l1.346.97c.032.023 3.441 2.48 8.726 4.62 5.153 2.084 10.146 2.19 10.199 2.19l2.226.036L45 36.412C45 47.754 30.37 59.75 22.497 59.75z"/>
            <circle cx="55" cy="6" r="6" fill="url(#a)"/>
            <circle cx="52" cy="22" r="3" fill="#1A1A54"/>
            <path fill="#1A1A54" fill-rule="nonzero" stroke="#1A1957" stroke-width=".5" d="M21.933 33.072l-.04 5.78-2.855.02a.989.989 0 0 0-.96.96.955.955 0 0 0 .946.946l2.855-.02-.014 1.904-4.76.034c-.523.003-.926.452-.93.959-.003.578.308.95.892.946l4.785-.034-.007.949a.917.917 0 0 0 .946.946c.575-.005.955-.436.959-.96l.088-12.443c3.704-.553 6.543-4.687 5.611-8.13-.685-2.63-2.688-4.581-5.02-4.984-4.676-.72-8.129 2.417-8.158 6.57a6.55 6.55 0 0 0 5.662 6.557zM22.98 21.7c2.585-.018 4.74 2.12 4.72 4.721-.017 2.6-2.15 4.77-4.787 4.788-2.636.018-4.739-2.14-4.72-4.72.017-2.581 2.202-4.77 4.787-4.789z"/>
        </g>
    </g>
</svg>
