<svg xmlns="http://www.w3.org/2000/svg" width="64" height="64" viewBox="0 0 64 64">
    <defs>
        <linearGradient id="a" x1="-13.158%" x2="115.519%" y1="49.838%" y2="49.838%">
            <stop offset="0%" stop-color="#4285F4"/>
            <stop offset="100%" stop-color="#0069FF" stop-opacity=".2"/>
        </linearGradient>
        <linearGradient id="b" x1="100%" x2="3.632%" y1="0%" y2="0%">
            <stop offset="0%" stop-color="#0069FF" stop-opacity="0"/>
            <stop offset="100%" stop-color="#0069FF"/>
        </linearGradient>
    </defs>
    <g fill="none" fill-rule="evenodd">
        <circle cx="46" cy="18" r="18" fill="url(#a)"/>
        <path fill="#1A1A54" fill-rule="nonzero" d="M52.673 11.38A4.7 4.7 0 0 0 49.33 10c-1.264 0-2.451.49-3.342 1.38a4.644 4.644 0 0 0-.719 5.71l-6.922 6.891a1.172 1.172 0 0 0 0 1.665 1.182 1.182 0 0 0 1.671 0l2.218-2.21 1.381 1.375a1.182 1.182 0 0 0 1.672 0 1.172 1.172 0 0 0 0-1.665l-1.381-1.374 3.031-3.019a4.703 4.703 0 0 0 2.39.665c1.265 0 2.453-.49 3.345-1.38a4.66 4.66 0 0 0 1.385-3.327c0-1.26-.493-2.443-1.386-3.33zm-1.67 4.993c-.893.891-2.448.895-3.345-.002a2.32 2.32 0 0 1-.693-1.66c0-.63.246-1.22.695-1.668a2.345 2.345 0 0 1 1.67-.689 2.343 2.343 0 0 1 1.67.69 2.34 2.34 0 0 1 .694 1.667c0 .627-.246 1.218-.691 1.662z"/>
        <g fill-rule="nonzero">
            <path fill="url(#a)" d="M56.879 11.211c1.424-.368 3.347-1.295 4.834-.908 2.446.637 2.833 4.705 1.46 6.812-.773 1.186-3.56 2.76-4.926 3.633-1.861 1.19-3.562 2.08-5.381 3.088-3.922 2.174-7.401 4.323-11.767 5.268-3.06.662-6.534-.43-9.304-1.18-5.025-1.362-9.683-3.206-15.87-3.27-.963-.01-3.523 0-4.744 0-1.581 0-5.122.893-6.61-1.421C3.623 21.76.949 17.03.194 14.083c-.431-1.684 0-1.983.632-2.53.632-.545 8.105-5.85 9.078-6.517.957-.657 2.025-1.3 2.828-1.726 2.64-1.403 4.537-2.937 7.297-3.18 1.19-.104 3.426-.13 4.652.183 1.532.391 3.023 1.57 4.56 2.452 3.017 1.731 5.751 3.3 8.848 5.086 2.682 1.546 5.736 2.543 5.108 6.903 4.027-.923 9.13-2.365 13.682-3.543z" transform="translate(0 33.664)"/>
            <path fill="url(#b)" d="M28.364 16.016a.935.935 0 0 1-.53-1.215.942.942 0 0 1 1.22-.527c6.04 2.377 9.922 3.42 11.386 3.15 1.418-.263 2.215-.798 2.524-1.586a.942.942 0 0 1 1.217-.533c.484.188.723.73.535 1.212-.574 1.467-1.929 2.377-3.933 2.747-1.958.363-6.01-.726-12.42-3.248z" transform="translate(0 33)"/>
        </g>
    </g>
</svg>
