<svg xmlns="http://www.w3.org/2000/svg" xmlns:xlink="http://www.w3.org/1999/xlink" width="1200" height="502" viewBox="0 0 1200 502">
    <defs>
        <path id="a" d="M4 0h1192a4 4 0 0 1 4 4v494a4 4 0 0 1-4 4H4a4 4 0 0 1-4-4V4a4 4 0 0 1 4-4z"/>
        <mask id="b" width="1200" height="502" x="0" y="0" fill="#fff">
            <use xlink:href="#a"/>
        </mask>
        <rect id="c" width="556" height="190" rx="4"/>
        <rect id="e" width="99" height="56" x="425" y="66" rx="2"/>
        <filter id="d" width="108.1%" height="114.3%" x="-4%" y="-3.6%" filterUnits="objectBoundingBox">
            <feOffset dy="2" in="SourceAlpha" result="shadowOffsetOuter1"/>
            <feGaussianBlur in="shadowOffsetOuter1" result="shadowBlurOuter1" stdDeviation="1"/>
            <feColorMatrix in="shadowBlurOuter1" values="0 0 0 0 0 0 0 0 0 0 0 0 0 0 0 0 0 0 0.06 0"/>
        </filter>
        <rect id="g" width="99" height="56" x="32" y="66" rx="2"/>
        <filter id="f" width="108.1%" height="114.3%" x="-4%" y="-3.6%" filterUnits="objectBoundingBox">
            <feOffset dy="2" in="SourceAlpha" result="shadowOffsetOuter1"/>
            <feGaussianBlur in="shadowOffsetOuter1" result="shadowBlurOuter1" stdDeviation="1"/>
            <feColorMatrix in="shadowBlurOuter1" values="0 0 0 0 0 0 0 0 0 0 0 0 0 0 0 0 0 0 0.06 0"/>
        </filter>
        <rect id="i" width="99" height="56" x="168" y="66" rx="2"/>
        <filter id="h" width="108.1%" height="114.3%" x="-4%" y="-3.6%" filterUnits="objectBoundingBox">
            <feOffset dy="2" in="SourceAlpha" result="shadowOffsetOuter1"/>
            <feGaussianBlur in="shadowOffsetOuter1" result="shadowBlurOuter1" stdDeviation="1"/>
            <feColorMatrix in="shadowBlurOuter1" values="0 0 0 0 0 0 0 0 0 0 0 0 0 0 0 0 0 0 0.06 0"/>
        </filter>
        <rect id="k" width="99" height="56" x="302" y="66" rx="2"/>
        <filter id="j" width="108.1%" height="114.3%" x="-4%" y="-3.6%" filterUnits="objectBoundingBox">
            <feOffset dy="2" in="SourceAlpha" result="shadowOffsetOuter1"/>
            <feGaussianBlur in="shadowOffsetOuter1" result="shadowBlurOuter1" stdDeviation="1"/>
            <feColorMatrix in="shadowBlurOuter1" values="0 0 0 0 0 0 0 0 0 0 0 0 0 0 0 0 0 0 0.06 0"/>
        </filter>
        <rect id="l" width="556" height="190" rx="4"/>
        <rect id="n" width="148" height="56" x="32" y="66" rx="2"/>
        <filter id="m" width="105.4%" height="114.3%" x="-2.7%" y="-3.6%" filterUnits="objectBoundingBox">
            <feOffset dy="2" in="SourceAlpha" result="shadowOffsetOuter1"/>
            <feGaussianBlur in="shadowOffsetOuter1" result="shadowBlurOuter1" stdDeviation="1"/>
            <feColorMatrix in="shadowBlurOuter1" values="0 0 0 0 0 0 0 0 0 0 0 0 0 0 0 0 0 0 0.06 0"/>
        </filter>
        <rect id="p" width="148" height="56" x="204" y="66" rx="2"/>
        <filter id="o" width="105.4%" height="114.3%" x="-2.7%" y="-3.6%" filterUnits="objectBoundingBox">
            <feOffset dy="2" in="SourceAlpha" result="shadowOffsetOuter1"/>
            <feGaussianBlur in="shadowOffsetOuter1" result="shadowBlurOuter1" stdDeviation="1"/>
            <feColorMatrix in="shadowBlurOuter1" values="0 0 0 0 0 0 0 0 0 0 0 0 0 0 0 0 0 0 0.06 0"/>
        </filter>
        <rect id="r" width="148" height="56" x="376" y="66" rx="2"/>
        <filter id="q" width="105.4%" height="114.3%" x="-2.7%" y="-3.6%" filterUnits="objectBoundingBox">
            <feOffset dy="2" in="SourceAlpha" result="shadowOffsetOuter1"/>
            <feGaussianBlur in="shadowOffsetOuter1" result="shadowBlurOuter1" stdDeviation="1"/>
            <feColorMatrix in="shadowBlurOuter1" values="0 0 0 0 0 0 0 0 0 0 0 0 0 0 0 0 0 0 0.06 0"/>
        </filter>
        <rect id="s" width="556" height="190" rx="4"/>
        <rect id="u" width="99" height="56" x="425" y="66" rx="2"/>
        <filter id="t" width="108.1%" height="114.3%" x="-4%" y="-3.6%" filterUnits="objectBoundingBox">
            <feOffset dy="2" in="SourceAlpha" result="shadowOffsetOuter1"/>
            <feGaussianBlur in="shadowOffsetOuter1" result="shadowBlurOuter1" stdDeviation="1"/>
            <feColorMatrix in="shadowBlurOuter1" values="0 0 0 0 0 0 0 0 0 0 0 0 0 0 0 0 0 0 0.06 0"/>
        </filter>
        <rect id="w" width="99" height="56" x="32" y="66" rx="2"/>
        <filter id="v" width="108.1%" height="114.3%" x="-4%" y="-3.6%" filterUnits="objectBoundingBox">
            <feOffset dy="2" in="SourceAlpha" result="shadowOffsetOuter1"/>
            <feGaussianBlur in="shadowOffsetOuter1" result="shadowBlurOuter1" stdDeviation="1"/>
            <feColorMatrix in="shadowBlurOuter1" values="0 0 0 0 0 0 0 0 0 0 0 0 0 0 0 0 0 0 0.06 0"/>
        </filter>
        <rect id="y" width="99" height="56" x="168" y="66" rx="2"/>
        <filter id="x" width="108.1%" height="114.3%" x="-4%" y="-3.6%" filterUnits="objectBoundingBox">
            <feOffset dy="2" in="SourceAlpha" result="shadowOffsetOuter1"/>
            <feGaussianBlur in="shadowOffsetOuter1" result="shadowBlurOuter1" stdDeviation="1"/>
            <feColorMatrix in="shadowBlurOuter1" values="0 0 0 0 0 0 0 0 0 0 0 0 0 0 0 0 0 0 0.06 0"/>
        </filter>
        <rect id="A" width="99" height="56" x="302" y="66" rx="2"/>
        <filter id="z" width="108.1%" height="114.3%" x="-4%" y="-3.6%" filterUnits="objectBoundingBox">
            <feOffset dy="2" in="SourceAlpha" result="shadowOffsetOuter1"/>
            <feGaussianBlur in="shadowOffsetOuter1" result="shadowBlurOuter1" stdDeviation="1"/>
            <feColorMatrix in="shadowBlurOuter1" values="0 0 0 0 0 0 0 0 0 0 0 0 0 0 0 0 0 0 0.06 0"/>
        </filter>
        <rect id="B" width="556" height="190" rx="4"/>
        <rect id="D" width="99" height="56" x="425" y="66" rx="2"/>
        <filter id="C" width="108.1%" height="114.3%" x="-4%" y="-3.6%" filterUnits="objectBoundingBox">
            <feOffset dy="2" in="SourceAlpha" result="shadowOffsetOuter1"/>
            <feGaussianBlur in="shadowOffsetOuter1" result="shadowBlurOuter1" stdDeviation="1"/>
            <feColorMatrix in="shadowBlurOuter1" values="0 0 0 0 0 0 0 0 0 0 0 0 0 0 0 0 0 0 0.06 0"/>
        </filter>
        <rect id="F" width="99" height="56" x="32" y="66" rx="2"/>
        <filter id="E" width="108.1%" height="114.3%" x="-4%" y="-3.6%" filterUnits="objectBoundingBox">
            <feOffset dy="2" in="SourceAlpha" result="shadowOffsetOuter1"/>
            <feGaussianBlur in="shadowOffsetOuter1" result="shadowBlurOuter1" stdDeviation="1"/>
            <feColorMatrix in="shadowBlurOuter1" values="0 0 0 0 0 0 0 0 0 0 0 0 0 0 0 0 0 0 0.06 0"/>
        </filter>
        <rect id="H" width="99" height="56" x="168" y="66" rx="2"/>
        <filter id="G" width="108.1%" height="114.3%" x="-4%" y="-3.6%" filterUnits="objectBoundingBox">
            <feOffset dy="2" in="SourceAlpha" result="shadowOffsetOuter1"/>
            <feGaussianBlur in="shadowOffsetOuter1" result="shadowBlurOuter1" stdDeviation="1"/>
            <feColorMatrix in="shadowBlurOuter1" values="0 0 0 0 0 0 0 0 0 0 0 0 0 0 0 0 0 0 0.06 0"/>
        </filter>
        <rect id="J" width="99" height="56" x="302" y="66" rx="2"/>
        <filter id="I" width="108.1%" height="114.3%" x="-4%" y="-3.6%" filterUnits="objectBoundingBox">
            <feOffset dy="2" in="SourceAlpha" result="shadowOffsetOuter1"/>
            <feGaussianBlur in="shadowOffsetOuter1" result="shadowBlurOuter1" stdDeviation="1"/>
            <feColorMatrix in="shadowBlurOuter1" values="0 0 0 0 0 0 0 0 0 0 0 0 0 0 0 0 0 0 0.06 0"/>
        </filter>
    </defs>
    <g fill="none" fill-rule="evenodd">
        <use stroke="#4285F4" stroke-dasharray="4" stroke-width="2" mask="url(#b)" xlink:href="#a"/>
        <g transform="translate(32 280)">
            <use fill="#F3FAFF" xlink:href="#c"/>
            <rect width="555" height="189" x=".5" y=".5" stroke="#E6EBEE" rx="4"/>
        </g>
        <text fill="#031B4C" font-family="PingFangSC-Regular, PingFang SC" font-size="14" transform="translate(32 280)">
            <tspan x="447" y="153">涉密领域</tspan>
        </text>
        <g transform="translate(32 280)">
            <use fill="#000" filter="url(#d)" xlink:href="#e"/>
            <use fill="#FFF" xlink:href="#e"/>
        </g>
        <g stroke="#4285F4" stroke-width="1.2">
            <path stroke-linecap="round" d="M515.85 386.572s-.564 1.114-1.587 1.114h-17.381s-.776-.07-.776-1.114v-21.94s.212-.732 1.023-.906"/>
            <path d="M500.02 383.507v-22.532s0-.836.951-.801c.952.035 12.833-.001 12.833-.001l4.02 3.762v19.433s-.318.94-.987.905c-.67-.035-15.937 0-15.937 0s-.599.07-.88-.766z"/>
            <path d="M513.584 360.444v3.892s.027.366.423.34c.397-.026 3.817.001 3.817.001M512.556 372.292c0 .491-.403.89-.9.89h-5.468a.895.895 0 0 1-.9-.89v-4.35c0-.491.403-.89.9-.89h5.467c.498 0 .9.399.9.89v4.35z"/>
            <path d="M507 367.052l.564-2.002s.987-1.08 2.574 0l.529 2.002"/>
            <path d="M508.52 366.02c0-.18.149-.326.331-.326.183 0 .33.146.33.326 0 .181-.148.327-.33.327a.328.328 0 0 1-.33-.327zM507.942 369.457l.437 1.255 1.359-.014.403-1.254"/>
        </g>
        <text fill="#031B4C" font-family="PingFangSC-Regular, PingFang SC" font-size="16" transform="translate(32 280)">
            <tspan x="32" y="41">国密算法支持</tspan>
        </text>
        <text fill="#031B4C" font-family="PingFangSC-Regular, PingFang SC" font-size="14" transform="translate(32 280)">
            <tspan x="54" y="153">金融行业</tspan>
        </text>
        <text fill="#031B4C" font-family="PingFangSC-Regular, PingFang SC" font-size="14" transform="translate(32 280)">
            <tspan x="324" y="153">政府合作</tspan>
        </text>
        <g transform="translate(32 280)">
            <use fill="#000" filter="url(#f)" xlink:href="#g"/>
            <use fill="#FFF" xlink:href="#g"/>
        </g>
        <path fill="#4285F4" fill-rule="nonzero" d="M125.187 380.25h-2.799v2.875c0 1.588-1.252 2.875-2.798 2.875h-16.791c-1.547 0-2.799-1.287-2.799-2.875v-11.5c0-1.589 1.252-2.875 2.799-2.875h2.798v-2.875c0-1.589 1.252-2.875 2.799-2.875h16.79c1.547 0 2.8 1.286 2.8 2.875v11.5c0 1.588-1.253 2.875-2.8 2.875zm-22.388-10.063c-.773 0-1.4.644-1.4 1.438v11.5c0 .793.627 1.437 1.4 1.437h16.79c.773 0 1.4-.644 1.4-1.437v-11.5c0-.794-.627-1.438-1.4-1.438H102.8zm23.787-4.312c0-.794-.627-1.438-1.4-1.438h-16.79c-.773 0-1.4.644-1.4 1.438v2.875h19.59v1.437H122c.239.424.387.912.387 1.438v7.187h2.799c.772 0 1.399-.644 1.399-1.437v-11.5zm-5.597 10.062h-19.59V374.5h19.59v1.437zm-16.092 2.875h4.198c.386 0 .7.322.7.72a.71.71 0 0 1-.7.718h-4.198a.71.71 0 0 1-.7-.719.71.71 0 0 1 .7-.719z"/>
        <text fill="#031B4C" font-family="PingFangSC-Regular, PingFang SC" font-size="14" transform="translate(32 280)">
            <tspan x="190" y="153">安全行业</tspan>
        </text>
        <g transform="translate(32 280)">
            <use fill="#000" filter="url(#h)" xlink:href="#i"/>
            <use fill="#FFF" xlink:href="#i"/>
        </g>
        <g fill="#4285F4" fill-rule="nonzero">
            <path stroke="#FFF" stroke-width=".4" d="M249.46 387.997a2.95 2.95 0 0 1-.461-.037c-.494-.083-11.983-2.178-11.983-18.067v-4.086c0-.73.326-1.428.894-1.917a2.796 2.796 0 0 1 1.993-.661 14 14 0 0 0 .704.016c.712 0 2.095-.044 3.372-.333.607-.138 1.905-.621 3.78-2.319.124-.112.206-.17.225-.18a2.87 2.87 0 0 1 2.95-.002c.18.11.401.28.707.515.842.645 2.252 1.725 3.407 1.986 1.277.29 2.645.333 3.346.333.415 0 .681-.014.704-.016a2.838 2.838 0 0 1 1.992.66c.568.489.895 1.188.895 1.918v4.086c0 15.88-11.567 17.985-12.059 18.066-.155.025-.31.038-.465.038zm-9.73-22.875a.937.937 0 0 0-.607.215.62.62 0 0 0-.233.47v4.086c0 14.296 9.983 16.122 10.408 16.193.102.016.218.017.327 0 .426-.072 10.485-1.907 10.485-16.193v-4.086a.625.625 0 0 0-.233-.471.94.94 0 0 0-.605-.214l-.07.002c-.026.001-.332.019-.809.019-.779 0-2.302-.05-3.754-.379-1.553-.35-3.166-1.587-4.13-2.325-.232-.178-.452-.347-.55-.407a.996.996 0 0 0-.942-.032l-.009.008c-1.648 1.492-3.246 2.445-4.621 2.756-1.452.33-2.992.379-3.78.379-.452 0-.748-.016-.801-.019l-.076-.002z"/>
            <path stroke="#FFF" stroke-width=".4" d="M243.478 375.377v-1.299c0-.78.19-1.396.57-1.848.378-.451.903-.677 1.57-.677.67 0 1.195.225 1.577.673.382.448.574 1.065.574 1.852v1.3c0 .78-.193 1.395-.578 1.847-.386.452-.91.677-1.572.677s-1.184-.224-1.567-.672c-.382-.449-.574-1.066-.574-1.853zm1.707-1.656v2.013c0 .372.145.558.434.558.289 0 .433-.186.433-.558v-2.013c0-.372-.144-.558-.433-.558-.289 0-.434.186-.434.558zM248.248 375.377v-1.299c0-.78.19-1.396.568-1.848.38-.451.904-.677 1.572-.677.669 0 1.194.225 1.576.673.383.448.574 1.065.574 1.852v1.3c0 .78-.193 1.395-.578 1.847-.385.452-.91.677-1.572.677-.663 0-1.185-.224-1.567-.672-.382-.449-.573-1.066-.573-1.853zm1.707-1.656v2.013c0 .372.144.558.433.558.29 0 .433-.186.433-.558v-2.013c0-.372-.143-.558-.433-.558-.289 0-.433.186-.433.558zM238.517 368.419h21.965v1.65h-21.965zM242.967 371.7v6.101h-1.708V371.7z"/>
            <path d="M254.052 376.426c-.616 0-.974-.576-.974-1.224 0-.735.358-1.315 1.025-1.315.615 0 .973.575.973 1.224 0 .734-.358 1.315-1.024 1.315zm.006-1.993c-.241 0-.36.28-.36.678 0 .484.119.768.4.768.24 0 .357-.279.357-.677 0-.49-.123-.769-.397-.769zm.946 3.393h-.14c-.18 0-.309-.097-.309-.296 0-.108.023-.177.09-.313l1.54-3.278h.19c.14 0 .263.08.263.245a.54.54 0 0 1-.04.216l-1.594 3.426zm2.144.057c-.616 0-.975-.58-.975-1.23 0-.734.354-1.309 1.02-1.309.615 0 .98.575.98 1.224 0 .734-.359 1.315-1.025 1.315zm.028-2.01c-.241 0-.363.28-.363.678 0 .484.122.762.402.762.24 0 .359-.279.359-.677 0-.49-.124-.762-.398-.762z"/>
        </g>
        <g transform="translate(32 280)">
            <use fill="#000" filter="url(#j)" xlink:href="#k"/>
            <use fill="#FFF" xlink:href="#k"/>
        </g>
        <path fill="#4285F4" fill-rule="nonzero" stroke="#4285F4" stroke-width=".2" d="M371.72 371.422h1.853v10.23h-2.504v1.095h26.086v-1.095h-3.434v-10.23h2.57c.6 0 1.086-.489 1.086-1.092 0-.4-.214-.75-.532-.94l-12.29-7.24a1.079 1.079 0 0 0-1.102.003l-12.28 7.235a1.094 1.094 0 0 0 .547 2.034h.001zm2.941 0h2.722v10.23h-2.722v-10.23zm14.151 0v10.23h-2.72v-10.23h2.72zm-3.81 10.23h-2.72v-10.23h2.72v10.23zm-3.81 0h-2.72v-10.23h2.72v10.23zm11.44 0H389.9v-10.23h2.731v10.23zm-8.626-18.557l12.273 7.232h-24.547l12.274-7.232zM370 384.865h27.949v1.094H370v-1.095z"/>
        <g>
            <g transform="translate(612 280)">
                <use fill="#F3FAFF" xlink:href="#l"/>
                <rect width="555" height="189" x=".5" y=".5" stroke="#E6EBEE" rx="4"/>
            </g>
            <text fill="#031B4C" font-family="PingFangSC-Regular, PingFang SC" font-size="16" transform="translate(612 280)">
                <tspan x="32" y="41">用户隐私保障</tspan>
            </text>
            <text fill="#031B4C" font-family="PingFangSC-Regular, PingFang SC" font-size="14" transform="translate(612 280)">
                <tspan x="71" y="153">零知识证明</tspan>
            </text>
            <text fill="#031B4C" font-family="PingFangSC-Regular, PingFang SC" font-size="14" transform="translate(612 280)">
                <tspan x="401" y="153">分布式身份标识</tspan>
            </text>
            <text fill="#031B4C" font-family="PingFangSC-Regular, PingFang SC" font-size="14" transform="translate(612 280)">
                <tspan x="250" y="153">同态加密</tspan>
            </text>
            <g transform="translate(612 280)">
                <use fill="#000" filter="url(#m)" xlink:href="#n"/>
                <use fill="#FFF" xlink:href="#n"/>
            </g>
            <g fill="#4285F4" fill-rule="nonzero">
                <path d="M715.852 387.623h-7.857a1.974 1.974 0 0 1-1.971-1.972v-23.657c0-1.087.884-1.971 1.97-1.971h19.15c1.087 0 1.972.884 1.972 1.971v9.35h-1.631v-9.35a.34.34 0 0 0-.34-.34h-19.15a.34.34 0 0 0-.34.34v23.657c0 .188.152.34.34.34h7.857v1.632z"/>
                <path d="M710.587 363.877h10.107v1.632h-10.107v-1.632zm0 7.723h7.77v1.631h-7.77V371.6zm0-3.861h13.695v1.63h-13.695v-1.63zM724.034 383.694a5.369 5.369 0 0 1-5.363-5.363 5.368 5.368 0 0 1 5.363-5.362 5.369 5.369 0 0 1 5.362 5.362 5.369 5.369 0 0 1-5.362 5.363zm0-9.094a3.736 3.736 0 0 0-3.732 3.731 3.736 3.736 0 0 0 3.732 3.732 3.736 3.736 0 0 0 3.731-3.732 3.736 3.736 0 0 0-3.731-3.73z"/>
                <path d="M719.626 387.977a.815.815 0 0 1-.816-.815v-7.34a.816.816 0 1 1 1.631 0v5.509l2.717-2.445a.816.816 0 0 1 1.091 1.212l-4.078 3.67a.815.815 0 0 1-.545.21z"/>
                <path d="M728.447 387.977a.815.815 0 0 1-.545-.209l-4.078-3.67a.815.815 0 1 1 1.091-1.212l2.717 2.445v-5.509a.816.816 0 1 1 1.63 0v7.34c0 .45-.364.815-.815.815z"/>
            </g>
            <g transform="translate(612 280)">
                <use fill="#000" filter="url(#o)" xlink:href="#p"/>
                <use fill="#FFF" xlink:href="#p"/>
            </g>
            <g fill="#4285F4" fill-rule="nonzero">
                <path d="M901.554 364.234c-.23-.131-5.93-4.234-11.546-4.234-5.864 0-11.333 4.103-11.564 4.25l-.428.262.461 10.298v.016c.215 2.894 1.384 4.643 2.504 6.18.148.212 1.91 2.468 5.123 4.544l3.904 2.435 3.656-2.452c2.652-1.749 4.366-3.432 5.156-4.299.23-.261.445-.523.643-.817.906-1.373 1.91-2.746 2.059-5.59l.46-10.299-.428-.294zm-1.663 9.17c-.84-.18-1.894-.36-2.916-.556l-.906-.163-.082.915a6.014 6.014 0 0 1-1.96 3.858 6.072 6.072 0 0 1-4.085 1.57c-2.817.016-5.271-1.897-5.914-4.627l-1.647.393a7.781 7.781 0 0 0 2.718 4.217 7.848 7.848 0 0 0 10.08-.343 7.625 7.625 0 0 0 2.356-4.021c.725.147 1.615.277 2.29.44-.165 2.159-.972 3.172-1.763 4.365a6.21 6.21 0 0 1-.477.622c-.577.654-2.224 2.32-4.826 4.02l-2.751 1.848-2.965-1.847c-2.965-1.929-4.629-4.054-4.662-4.07l-.016-.017c-.873-1.177-2.01-2.664-2.191-5.296l-.05-1.144c1.747-.409 2.125-.458 3.147-.703l.56-.131.082-.556c.412-2.975 2.998-5.214 6.029-5.214 2.734 0 5.156 1.83 5.864 4.43l1.63-.458c-.922-3.335-4.002-5.656-7.494-5.656a7.87 7.87 0 0 0-5.156 1.929 7.664 7.664 0 0 0-2.47 4.185c-.56.13-1.137.228-2.257.49l-.297-6.408c1.318-.72 5.782-3.76 10.246-3.76 4.282 0 8.878 3.04 10.245 3.76l-.362 7.928z"/>
                <path d="M889.942 368.81c-2.389 0-4.332 1.93-4.332 4.3s1.943 4.3 4.332 4.3c2.388 0 4.332-1.93 4.332-4.3s-1.944-4.3-4.332-4.3zm.626 4.414v1.57a.62.62 0 0 1-.61.62h-.016a.62.62 0 0 1-.626-.604v-1.57a1.164 1.164 0 0 1-.56-.98 1.17 1.17 0 1 1 2.339-.016c.016.392-.198.768-.527.98z"/>
            </g>
            <g transform="translate(612 280)">
                <use fill="#000" filter="url(#q)" xlink:href="#r"/>
                <use fill="#FFF" xlink:href="#r"/>
            </g>
            <g fill="#4285F4" fill-rule="nonzero">
                <path d="M1053.372 374.413c0-1.42-1.166-2.572-2.605-2.572-1.438 0-2.604 1.152-2.604 2.572 0 1.42 1.166 2.571 2.604 2.571 1.439 0 2.605-1.151 2.605-2.571zm-2.605 1.607a1.62 1.62 0 0 1-1.627-1.607c0-.886.73-1.607 1.627-1.607a1.62 1.62 0 0 1 1.628 1.607 1.62 1.62 0 0 1-1.628 1.607zM1066.235 369.387c1.438 0 2.604-1.151 2.604-2.571 0-1.42-1.166-2.571-2.604-2.571-1.439 0-2.605 1.15-2.605 2.57 0 1.421 1.166 2.572 2.605 2.572zm0-4.178a1.62 1.62 0 0 1 1.628 1.607 1.62 1.62 0 0 1-1.628 1.607 1.62 1.62 0 0 1-1.628-1.607c0-.886.73-1.607 1.628-1.607zM1065.91 380.973c-1.438 0-2.604 1.152-2.604 2.572 0 1.42 1.166 2.571 2.605 2.571 1.438 0 2.604-1.151 2.604-2.571 0-1.42-1.166-2.572-2.604-2.572zm0 4.179a1.62 1.62 0 0 1-1.627-1.607c0-.887.73-1.607 1.628-1.607a1.62 1.62 0 0 1 1.627 1.607 1.62 1.62 0 0 1-1.627 1.607z"/>
                <path d="M1072.256 371.52c-1.812 0-3.305 1.33-3.544 3.054h-3.32c-.244-2.258-2.179-4.018-4.532-4.018-.41 0-.804.058-1.181.158l-1.214-3.035c1.533-.854 2.234-2.712 1.57-4.373-.727-1.817-2.807-2.708-4.646-1.991-1.84.717-2.743 2.771-2.016 4.588.666 1.665 2.47 2.549 4.184 2.131l1.21 3.027c-1.463.749-2.465 2.255-2.465 3.995 0 1.38.631 2.613 1.621 3.438l-1.861 2.729c-1.583-.765-3.534-.28-4.544 1.205a3.508 3.508 0 0 0 .98 4.907c1.644 1.086 3.868.653 4.97-.97a3.502 3.502 0 0 0-.595-4.605l1.86-2.726a4.585 4.585 0 0 0 2.128.522c2.352 0 4.287-1.76 4.53-4.018h3.32c.24 1.724 1.733 3.053 3.545 3.053 1.978 0 3.582-1.583 3.582-3.535 0-1.953-1.604-3.536-3.582-3.536z"/>
            </g>
        </g>
        <g>
            <g transform="translate(32 66)">
                <use fill="#F3FAFF" xlink:href="#s"/>
                <rect width="555" height="189" x=".5" y=".5" stroke="#E6EBEE" rx="4"/>
            </g>
            <text fill="#031B4C" font-family="PingFangSC-Regular, PingFang SC" font-size="14" transform="translate(32 66)">
                <tspan x="447" y="153">可信计算</tspan>
            </text>
            <g transform="translate(32 66)">
                <use fill="#000" filter="url(#t)" xlink:href="#u"/>
                <use fill="#FFF" xlink:href="#u"/>
            </g>
            <g fill="#4285F4" fill-rule="nonzero" stroke="#FFF" stroke-width="1.2">
                <path d="M514.416 153.184c-.337 0-.643.124-.863.349a2328.039 2328.039 0 0 0-3.974 4.015c-1.406 1.424-2.86 2.895-4.294 4.338-.938-.95-1.874-1.903-2.81-2.856l-1.428-1.454a1.242 1.242 0 0 0-.857-.352c-.088 0-.175.01-.254.03-.573.111-1.003.687-.959 1.274-.005.321.156.65.437.899 1.198 1.208 2.394 2.417 3.59 3.629l1.11 1.124c.068.058.13.124.196.193.125.132.255.269.43.354.172.085.368.13.567.13.359 0 .695-.143.92-.39l5.078-5.118c1.347-1.36 2.693-2.718 4.043-4.077.397-.413.457-1.093.136-1.547a1.302 1.302 0 0 0-1.068-.54z"/>
                <path d="M519.424 157.462c-.002-.986-.001-1.972-.001-2.958 0-1.215.001-2.471-.004-3.707l-.002-.02a2.638 2.638 0 0 0-.742-1.367c-.2-.196-.442-.32-.676-.44a8.423 8.423 0 0 1-.241-.128c-.872-.41-1.773-.834-2.705-1.13a47.5 47.5 0 0 1-.816-.286c-.595-.211-1.21-.43-1.832-.59-1.968-.542-4.153-.816-6.494-.816l-.246.001c-1.148.041-2.281.176-3.445.324-1.935.394-4.196.923-6.295 1.852-.21.098-.42.195-.631.29-.351.159-.714.323-1.055.5-.167.066-.3.177-.429.285a4.85 4.85 0 0 1-.12.1c-.395.323-.64.842-.673 1.428 0 .479-.004.957-.008 1.436-.006.716-.012 1.455-.004 2.187.014.287.012.58.01.863 0 .214-.002.435.004.653l.024 1.068c.036 1.75.074 3.561.296 5.326.058.6.288 1.152.511 1.687.03.07.06.14.089.213.581 1.354 1.51 2.518 2.413 3.596.673.758 1.49 1.514 2.499 2.313 1.65 1.294 3.567 2.462 5.701 3.474.074.033.147.07.22.105.259.127.525.259.83.259H506.605c.256-.002.482-.103.7-.2.084-.038.163-.073.247-.104.895-.368 1.756-.843 2.589-1.303l.327-.18c.277-.186.566-.363.845-.535.328-.201.667-.41.989-.63.57-.376 1.134-.807 1.589-1.155.095-.076.185-.158.273-.238.12-.109.243-.221.375-.313l.012-.01.387-.378c.28-.275.57-.558.865-.834 1.307-1.388 2.271-2.903 2.865-4.504l.063-.175c.105-.282.214-.573.166-.887a1.2 1.2 0 0 0-.887-1.029 1.129 1.129 0 0 0-.312-.043c-.532 0-1.008.342-1.16.832-.465 1.496-1.332 2.91-2.57 4.194-.18.154-.348.325-.51.49-.209.212-.425.433-.664.612l-.012.01c-.315.333-.696.6-1.065.858-1.954 1.378-3.64 2.333-5.305 3.003-.041 0-.082.002-.124.004a3.212 3.212 0 0 1-.156.005.852.852 0 0 1-.224-.025c-1.164-.553-2.035-1.013-2.826-1.493-2.015-1.2-3.594-2.445-4.823-3.8-.877-1.03-1.701-2.056-2.14-3.279l-.076-.204c-.098-.257-.19-.5-.217-.763-.125-.971-.162-1.967-.197-2.93l-.028-.722c-.046-2.133-.086-4.654-.04-7.21.136-.062.271-.122.407-.182.301-.134.613-.272.905-.428 1.698-.771 3.497-1.222 5.033-1.562l.174-.037c.403-.087.82-.177 1.238-.214l.221-.027a26.554 26.554 0 0 1 1.86-.184c.278-.014.565-.02.851-.02 1.02 0 2.085.082 3.256.251 2.058.287 4.005.99 6.156 1.811.19.096.388.182.579.265.245.106.498.216.734.347-.006 1.25-.005 2.52-.004 3.749.001.94 0 1.879-.001 2.819-.008.302.116.61.339.843.226.237.53.373.826.373a1.2 1.2 0 0 0 1.12-.608c.125-.207.181-.47.17-.778z"/>
            </g>
            <text fill="#031B4C" font-family="PingFangSC-Regular, PingFang SC" font-size="16" transform="translate(32 66)">
                <tspan x="32" y="41">硬件私钥保存</tspan>
            </text>
            <text fill="#031B4C" font-family="PingFangSC-Regular, PingFang SC" font-size="14" transform="translate(32 66)">
                <tspan x="54" y="153">身份验证</tspan>
            </text>
            <text fill="#031B4C" font-family="PingFangSC-Regular, PingFang SC" font-size="14" transform="translate(32 66)">
                <tspan x="324" y="153">权限控制</tspan>
            </text>
            <g transform="translate(32 66)">
                <use fill="#000" filter="url(#v)" xlink:href="#w"/>
                <use fill="#FFF" xlink:href="#w"/>
            </g>
            <path fill="#4285F4" fill-rule="nonzero" d="M106.367 166.697h4.247c.167 0 .302.137.302.303v.61a.302.302 0 0 1-.302.303h-4.247a.304.304 0 0 1-.302-.303V167c0-.166.136-.303.302-.303zm-.302-5.174c0-.17.136-.304.302-.304h5.462c.166 0 .302.138.302.304v.61a.302.302 0 0 1-.302.302h-5.462a.302.302 0 0 1-.302-.303v-.61zm3.754-6.997a6.919 6.919 0 0 1 1.6.7c.262.163.508.34.687.585.11.15.173.312.17.497 0 .025-.004.053 0 .081.036.394-.543.813-.543.813h-5.249l-1.19.003s-.24-.14-.344-.228a.579.579 0 0 1-.213-.466c.003-.14-.003-.288.034-.422.068-.266.274-.447.49-.62.342-.271.733-.471 1.137-.65.253-.112.515-.212.777-.303.339-.119.616-.64.49-.972-.01-.022-.025-.038-.04-.056-.364-.447-.592-.782-.71-1.37a2.859 2.859 0 0 1 .041-1.378c.185-.632.57-1.029 1.146-1.176a1.77 1.77 0 0 1 .438-.056c.345 0 .675.112.977.36.333.271.524.65.604 1.1.08.444.056.885-.052 1.32-.12.49-.315.934-.617 1.315-.12.154-.148.322-.144.51.003.203.286.344.511.413zm14.448-5.48c0-1.01-.813-1.827-1.821-1.827H103.03c-1.005 0-1.822.82-1.822 1.826v21.303c0 1.01.814 1.826 1.822 1.826h9.1l1.215 1.216h-10.92a2.43 2.43 0 0 1-2.425-2.435v-22.52a2.432 2.432 0 0 1 2.426-2.435h20.627a2.43 2.43 0 0 1 2.426 2.435v10.349l-1.215-.61v-9.129h.003zm-3.945 3.041h-3.64a.302.302 0 0 1-.301-.303v-.61c0-.169.135-.303.302-.303h3.64c.166 0 .301.137.301.303v.61a.3.3 0 0 1-.302.303zm.306 3.958a.302.302 0 0 1-.302.303h-3.643a.304.304 0 0 1-.302-.303v-.61c0-.168.135-.303.302-.303h3.64c.166 0 .301.135.301.303v.61h.004zm-.608 3.348c4.022 0 7.28 3.27 7.28 7.304 0 4.033-3.26 7.303-7.28 7.303-4.018 0-7.282-3.267-7.282-7.303 0-4.033 3.26-7.304 7.282-7.304zm0 13.39c3.35 0 6.069-2.725 6.069-6.086s-2.715-6.087-6.069-6.087c-3.35 0-6.068 2.726-6.068 6.087 0 3.364 2.715 6.087 6.068 6.087zm-3.414-6.433a.3.3 0 0 1 .428-.016l2.006 1.86 3.911-4.248a.3.3 0 0 1 .429-.016l.447.413a.31.31 0 0 1 .018.431l-4.53 4.915a.302.302 0 0 1-.429.015l-.447-.412-2.228-2.067a.309.309 0 0 1-.018-.431l.413-.444z"/>
            <text fill="#031B4C" font-family="PingFangSC-Regular, PingFang SC" font-size="14" transform="translate(32 66)">
                <tspan x="197" y="153">冷钱包</tspan>
            </text>
            <g transform="translate(32 66)">
                <use fill="#000" filter="url(#x)" xlink:href="#y"/>
                <use fill="#FFF" xlink:href="#y"/>
            </g>
            <g fill="#4285F4" fill-rule="nonzero">
                <path d="M263.44 160.96h-4.812a3.76 3.76 0 0 1-3.756-3.757 3.76 3.76 0 0 1 3.756-3.756h4.812c.31 0 .56.25.56.56v6.392c0 .31-.25.56-.56.56zm-4.812-6.393a2.64 2.64 0 0 0-2.636 2.636 2.639 2.639 0 0 0 2.636 2.636h4.252v-5.272h-4.252zM247.97 174h-8.24c-.59 0-1.069-.494-1.069-1.102v-6.807c0-.608.48-1.103 1.069-1.103h8.24c.588 0 1.068.495 1.068 1.103v6.807c0 .608-.48 1.102-1.069 1.102zm-.052-7.912l-8.188.02.051 6.79 8.188-.018-.051-6.789v-.003z"/>
                <path d="M261.418 167.936h-12.94a.56.56 0 0 1-.56-.56v-1.285l-8.188.017.051 1.268c0 .31-.25.56-.56.56h-.64a2.585 2.585 0 0 1-2.581-2.582v-16.772a2.585 2.585 0 0 1 2.582-2.582h22.836a2.585 2.585 0 0 1 2.582 2.582v16.772a2.585 2.585 0 0 1-2.582 2.582zm-12.38-1.12h12.38c.806 0 1.462-.656 1.462-1.462v-16.772c0-.806-.656-1.462-1.462-1.462h-22.836c-.806 0-1.462.656-1.462 1.462v16.772c0 .806.656 1.462 1.462 1.462h.08v-.725c0-.609.479-1.103 1.068-1.103h8.24c.588 0 1.068.494 1.068 1.103v.725z"/>
                <path d="M246.742 166.108h-5.785a.56.56 0 0 1-.56-.56v-2.653a3.456 3.456 0 0 1 3.453-3.452 3.456 3.456 0 0 1 3.452 3.452v2.653c0 .31-.251.56-.56.56zm-5.225-1.12h4.665v-2.093a2.335 2.335 0 0 0-2.332-2.332 2.335 2.335 0 0 0-2.333 2.332v2.093zM239.779 149.5a.56.56 0 0 1-.516-.772.523.523 0 0 1 .118-.185.645.645 0 0 1 .185-.118.56.56 0 0 1 .61.118c.05.05.09.112.118.185a.56.56 0 0 1 .045.213c0 .15-.056.29-.163.392a.56.56 0 0 1-.397.168zM242.243 149.5a.56.56 0 0 1-.398-.167.534.534 0 0 1-.162-.392.554.554 0 0 1 .162-.398.55.55 0 0 1 .18-.118.525.525 0 0 1 .43 0 .55.55 0 0 1 .303.303.56.56 0 0 1 .045.213.56.56 0 0 1-.169.392.538.538 0 0 1-.391.168zM244.701 149.5a.562.562 0 0 1-.398-.957.57.57 0 0 1 .711-.067c.029.017.056.045.085.067a.534.534 0 0 1 .162.398c0 .15-.056.29-.162.392a.492.492 0 0 1-.18.123.587.587 0 0 1-.218.045zM247.165 149.5a.537.537 0 0 1-.213-.044.466.466 0 0 1-.185-.123.534.534 0 0 1-.162-.392.554.554 0 0 1 .162-.398c.028-.022.056-.05.084-.067a.332.332 0 0 1 .101-.05.361.361 0 0 1 .1-.035.57.57 0 0 1 .51.152c.05.05.09.112.118.185a.56.56 0 0 1 .045.213.56.56 0 0 1-.56.56zM259.434 158.886c-.927 0-1.68-.754-1.68-1.68 0-.926.753-1.68 1.68-1.68.926 0 1.68.754 1.68 1.68 0 .926-.754 1.68-1.68 1.68zm0-2.24a.56.56 0 1 0 0 1.121.56.56 0 0 0 0-1.121z"/>
            </g>
            <g transform="translate(32 66)">
                <use fill="#000" filter="url(#z)" xlink:href="#A"/>
                <use fill="#FFF" xlink:href="#A"/>
            </g>
            <path fill="#4285F4" fill-rule="nonzero" stroke="#FFF" stroke-width=".4" d="M376.007 172.327h-4.282c.432-5.858 5.424-10.493 11.497-10.493 1.426 0 2.792.255 4.053.722l1.292-1.268a13.353 13.353 0 0 0-1.337-.499 8.084 8.084 0 0 0 1.69-1.272 7.787 7.787 0 0 0 2.359-5.594c0-2.113-.838-4.1-2.36-5.593a8.08 8.08 0 0 0-5.697-2.317 8.08 8.08 0 0 0-5.696 2.317 7.787 7.787 0 0 0-2.36 5.593c0 2.113.838 4.1 2.36 5.594a8.085 8.085 0 0 0 1.688 1.272 13.182 13.182 0 0 0-5.334 3.192 12.917 12.917 0 0 0-2.83 4.123 12.69 12.69 0 0 0-1.039 5.049c0 .456.377.826.842.826h5.154c.465 0 .841-.37.841-.826a.834.834 0 0 0-.841-.826zm.842-18.404c0-3.45 2.859-6.258 6.373-6.258 3.515 0 6.374 2.807 6.374 6.258 0 3.45-2.86 6.258-6.374 6.258s-6.373-2.807-6.373-6.258zm18.546 14.18a12.888 12.888 0 0 0-2.48-3.762l-1.194 1.173a11.179 11.179 0 0 1 2.999 6.813h-4.283a.834.834 0 0 0-.842.826c0 .456.377.826.842.826h5.155c.465 0 .841-.37.841-.826 0-1.75-.349-3.45-1.038-5.05zm-2.978-6.956a.852.852 0 0 0-1.19 0l-8.03 7.884-3.52-3.457a.852.852 0 0 0-1.19 0 .816.816 0 0 0 0 1.169l4.115 4.04a.847.847 0 0 0 1.19 0l8.625-8.468a.816.816 0 0 0 0-1.168z"/>
        </g>
        <g>
            <g transform="translate(612 66)">
                <use fill="#F3FAFF" xlink:href="#B"/>
                <rect width="555" height="189" x=".5" y=".5" stroke="#E6EBEE" rx="4"/>
            </g>
            <text fill="#031B4C" font-family="PingFangSC-Regular, PingFang SC" font-size="14" transform="translate(612 66)">
                <tspan x="440" y="153">全周期安全</tspan>
            </text>
            <g transform="translate(612 66)">
                <use fill="#000" filter="url(#C)" xlink:href="#D"/>
                <use fill="#FFF" xlink:href="#D"/>
            </g>
            <g fill="#4285F4" fill-rule="nonzero" stroke="#4285F4" stroke-width=".2">
                <path d="M1091.914 173.285h-9.614a2.294 2.294 0 0 1-1.98-1.144l-4.808-8.346a2.294 2.294 0 0 1 0-2.29l4.807-8.346a2.294 2.294 0 0 1 1.98-1.145h9.615c.817.002 1.57.438 1.98 1.145l.748 1.3a.535.535 0 0 1-.925.535l-.748-1.3a1.225 1.225 0 0 0-1.055-.61h-9.614a1.224 1.224 0 0 0-1.056.611l-4.807 8.346a1.225 1.225 0 0 0 0 1.22l4.807 8.346c.219.376.62.609 1.056.61h9.614a1.224 1.224 0 0 0 1.055-.61l4.808-8.346a1.225 1.225 0 0 0 0-1.22l-1.468-2.547a.536.536 0 0 1 .462-.805c.191 0 .368.103.463.27l1.468 2.547a2.294 2.294 0 0 1 0 2.29l-4.807 8.346a2.294 2.294 0 0 1-1.981 1.143z"/>
                <path d="M1090.418 166.54h-6.73a1.358 1.358 0 0 1-1.175-2.033l3.364-5.838a1.353 1.353 0 0 1 2.344 0l3.372 5.837a1.358 1.358 0 0 1-1.175 2.033zm-3.365-7.478a.28.28 0 0 0-.246.142l-3.364 5.837a.286.286 0 0 0 .245.428h6.73a.285.285 0 0 0 .246-.428l-3.364-5.837a.28.28 0 0 0-.247-.142zm-.267-10.75a2.136 2.136 0 0 1-1.974-1.321c-.33-.8-.147-1.72.464-2.332a2.134 2.134 0 0 1 2.328-.464 2.14 2.14 0 0 1-.818 4.117zm0-3.21a1.068 1.068 0 0 0-.755 1.826 1.067 1.067 0 0 0 1.824-.756c0-.591-.479-1.07-1.069-1.07z"/>
                <path d="M1086.786 155.695a.534.534 0 0 1-.534-.535v-7.276a.535.535 0 1 1 1.068 0v7.276c0 .295-.239.535-.534.535zm12.072 20.65a2.12 2.12 0 0 1-1.51-.626 2.143 2.143 0 0 1-.266-2.703 2.135 2.135 0 0 1 2.594-.787 2.14 2.14 0 0 1-.818 4.117zm0-3.21a1.068 1.068 0 0 0-.756 1.827 1.067 1.067 0 0 0 1.788-1.033 1.069 1.069 0 0 0-1.032-.793z"/>
                <path d="M1097.65 173.53a.534.534 0 0 1-.379-.157l-5.136-5.144a.536.536 0 0 1 .755-.757l5.137 5.145a.536.536 0 0 1-.378.914zm-22.508 3.137a2.14 2.14 0 0 1-.818-4.117 2.135 2.135 0 0 1 2.594.787c.567.85.456 1.98-.265 2.703a2.12 2.12 0 0 1-1.51.627zm0-3.21a1.07 1.07 0 0 0-.534 1.997c.419.241.948.172 1.29-.17a1.071 1.071 0 0 0-.756-1.827z"/>
                <path d="M1076.35 173.852a.536.536 0 0 1-.377-.914l5.137-5.145a.534.534 0 0 1 .755.757l-5.136 5.144c-.1.1-.237.157-.378.158zM1094.905 156.979a.535.535 0 1 0 1.07 0 .535.535 0 0 0-1.07 0z"/>
            </g>
            <text fill="#031B4C" font-family="PingFangSC-Regular, PingFang SC" font-size="16" transform="translate(612 66)">
                <tspan x="32" y="41">安全硬件服务</tspan>
            </text>
            <text fill="#031B4C" font-family="PingFangSC-Regular, PingFang SC" font-size="14" transform="translate(612 66)">
                <tspan x="54" y="153">硬件加速</tspan>
            </text>
            <text fill="#031B4C" font-family="PingFangSC-Regular, PingFang SC" font-size="14" transform="translate(612 66)">
                <tspan x="324" y="153">特定行业</tspan>
            </text>
            <g transform="translate(612 66)">
                <use fill="#000" filter="url(#E)" xlink:href="#F"/>
                <use fill="#FFF" xlink:href="#F"/>
            </g>
            <g fill="#4285F4" fill-rule="nonzero" stroke="#4285F4" stroke-width=".5">
                <path d="M694.047 174.994c-.094 0-.094 0-.19-.095l-13.652-7.21c-.095-.096-.19-.19-.19-.38v-14.517c0-.19.095-.284.19-.38l13.558-7.305c.095 0 .095-.095.19-.095.094 0 .094 0 .19.095l13.652 7.306c.095 0 .19.095.19.19v.284c-.095.19-.19.285-.38.285h-.19l-13.462-7.21-13.084 7.02v14.042l13.178 7.116 13.18-7.116v-8.634c0-.19.189-.38.378-.38.19 0 .38.19.38.38v8.919c0 .19-.095.284-.19.38l-13.558 7.305h-.19z"/>
                <path d="M694.047 169.301c-.094 0-.19 0-.19-.095l-7.3-4.174c-.094-.095-.19-.19-.19-.285v-8.824c0-.19.19-.38.38-.38.095 0 .19 0 .19.096l7.3 4.174c.095.095.19.19.19.38v8.823c0 .19-.095.38-.285.38l-.095-.095zm-.379-1.138v-7.875l-6.447-3.7v7.874l6.447 3.7z"/>
                <path d="M697.65 166.93c-.19 0-.379-.19-.379-.38v-8.634l-7.016-3.985c-.19-.095-.284-.38-.19-.57.095-.094.19-.19.38-.19.094 0 .094 0 .19.096l7.3 4.174c.094.095.19.19.19.38v8.824c0 .19-.19.284-.475.284z"/>
                <path d="M701.348 164.652c-.19 0-.38-.19-.38-.38v-8.633l-7.015-3.985a.456.456 0 0 1-.19-.57c.095-.094.19-.19.38-.19.094 0 .094 0 .189.096l7.3 4.174c.095.095.19.19.19.38v8.823c0 .095 0 .19-.095.285-.19-.095-.284 0-.38 0z"/>
            </g>
            <text fill="#031B4C" font-family="PingFangSC-Regular, PingFang SC" font-size="14" transform="translate(612 66)">
                <tspan x="183" y="153">端到端方案</tspan>
            </text>
            <g transform="translate(612 66)">
                <use fill="#000" filter="url(#G)" xlink:href="#H"/>
                <use fill="#FFF" xlink:href="#H"/>
            </g>
            <path fill="#4285F4" fill-rule="nonzero" stroke="#4285F4" stroke-width=".5" d="M830.032 174.981c-.095 0-.095 0-.19-.095l-13.652-7.21c-.095-.095-.19-.19-.19-.38V152.78c0-.19.095-.285.19-.38l13.558-7.305c.094 0 .094-.095.19-.095.094 0 .094 0 .189.095l13.653 7.305c.094 0 .19.095.19.19v.285c-.096.19-.19.284-.38.284h-.19l-13.463-7.21-13.084 7.02v14.043l13.179 7.115 13.179-7.115v-8.634c0-.19.19-.38.379-.38.19 0 .38.19.38.38v8.918c0 .19-.096.285-.19.38l-13.558 7.305h-.19z"/>
            <path fill="#4285F4" fill-rule="nonzero" d="M836 164.744a2.257 2.257 0 0 1-2.256 2.256 2.257 2.257 0 0 1-2.255-2.256c0-.56.202-1.057.529-1.462l-2.287-1.649a1.174 1.174 0 0 1-.731.234c-.28 0-.544-.094-.762-.265l-2.287 1.665c.358.404.56.933.56 1.477a2.257 2.257 0 0 1-2.255 2.256 2.257 2.257 0 0 1-2.256-2.256 2.257 2.257 0 0 1 2.256-2.255c.435 0 .855.124 1.213.358l2.395-1.727a1.362 1.362 0 0 1-.108-.498c0-.575.404-1.058.933-1.198v-1.944a2.257 2.257 0 0 1 .389-4.48 2.257 2.257 0 0 1 2.255 2.256 2.247 2.247 0 0 1-2.022 2.24v1.913c.529.14.933.622.933 1.198 0 .186-.046.373-.124.529l2.364 1.71.016.016a2.255 2.255 0 0 1 3.5 1.882z"/>
            <g transform="translate(612 66)">
                <use fill="#000" filter="url(#I)" xlink:href="#J"/>
                <use fill="#FFF" xlink:href="#J"/>
            </g>
            <g fill="#4285F4" fill-rule="nonzero" stroke="#FFF" stroke-width=".1">
                <path d="M974.034 153.836c1.277 0 2.316.976 2.316 2.175v13.143c0 1.2-1.039 2.175-2.316 2.175h-20.068c-1.277 0-2.316-.976-2.316-2.175v-13.143c0-1.2 1.039-2.175 2.316-2.175h20.068zm0-1.666h-20.068c-2.185 0-3.963 1.723-3.963 3.84v13.144c0 2.118 1.778 3.84 3.963 3.84h20.068c2.185 0 3.963-1.722 3.963-3.84v-13.143c0-2.118-1.778-3.84-3.963-3.84z"/>
                <path d="M956.579 167.58a.828.828 0 0 1-.824-.833v-8.33c0-.46.368-.832.824-.832.455 0 .823.372.823.833v8.33c0 .46-.368.832-.823.832zM971.421 167.58a.828.828 0 0 1-.823-.833v-8.33c0-.46.368-.832.823-.832.455 0 .824.372.824.833v8.33c0 .46-.369.832-.824.832zM967.293 151.337a.828.828 0 0 1-.823-.833c0-.348-.617-.833-1.225-.833h-2.424c-.653 0-1.291.516-1.291.815 0 .46-.368.833-.823.833a.828.828 0 0 1-.824-.833c0-1.42 1.551-2.48 2.938-2.48h2.424c1.355 0 2.872 1.068 2.872 2.498 0 .46-.369.833-.824.833z"/>
            </g>
        </g>
        <text fill="#031B4C" font-family="PingFangSC-Regular, PingFang SC" font-size="16">
            <tspan x="32" y="41">密码学及安全服务</tspan>
        </text>
    </g>
</svg>
