<svg xmlns="http://www.w3.org/2000/svg" width="64" height="64" viewBox="0 0 64 64">
    <defs>
        <linearGradient id="a" x1="-13.158%" x2="115.519%" y1="49.838%" y2="49.838%">
            <stop offset="0%" stop-color="#4285F4"/>
            <stop offset="100%" stop-color="#0069FF" stop-opacity=".2"/>
        </linearGradient>
        <linearGradient id="b" x1="51.816%" x2="51.816%" y1="97.006%" y2="0%">
            <stop offset="0%" stop-color="#0069FF" stop-opacity="0"/>
            <stop offset="100%" stop-color="#0069FF"/>
        </linearGradient>
    </defs>
    <g fill="none" fill-rule="evenodd">
        <g fill-rule="nonzero">
            <path fill="url(#a)" d="M.7 47.794a.702.702 0 0 1-.7-.703v-1.406c0-.388.314-.702.7-.702h4.898V19.679c0-1.552 1.183-2.669 2.73-2.669h11.681l-.02-5.901c0-1.554 1.472-3.11 3.019-3.11h11.005V2.97c0-1.552.83-2.969 2.377-2.969h11.197c1.545 0 2.416 1.474 2.416 3.026v41.977l5.282-.02c.386 0 .7.314.7.702v1.406a.702.702 0 0 1-.7.703H.7z" transform="translate(0 16)"/>
            <path fill="url(#b)" d="M18 16.994h2v27.292h-2zM32 8h2v36h-2z" transform="translate(0 16)"/>
        </g>
        <circle cx="61" cy="37" r="3" fill="#1A1A54"/>
        <circle cx="12" cy="8" r="8" fill="url(#a)"/>
    </g>
</svg>
