<?xml version="1.0" encoding="UTF-8"?>
<svg width="524px" height="566px" viewBox="0 0 524 566" version="1.1" xmlns="http://www.w3.org/2000/svg" xmlns:xlink="http://www.w3.org/1999/xlink">
    <!-- Generator: Sketch 49.3 (51167) - http://www.bohemiancoding.com/sketch -->
    <title>img</title>
    <desc>Created with Sketch.</desc>
    <defs>
        <rect id="path-1" x="0" y="0" width="693" height="640"></rect>
        <linearGradient x1="50%" y1="15.6380208%" x2="50%" y2="100%" id="linearGradient-3">
            <stop stop-color="#2265D2" offset="0%"></stop>
            <stop stop-color="#0069FF" stop-opacity="0" offset="100%"></stop>
        </linearGradient>
        <linearGradient x1="51.4003992%" y1="82.5267036%" x2="51.4003992%" y2="10.4331459%" id="linearGradient-4">
            <stop stop-color="#283DE1" stop-opacity="0" offset="0%"></stop>
            <stop stop-color="#176CFD" offset="100%"></stop>
        </linearGradient>
        <linearGradient x1="47.6904005%" y1="76.2372526%" x2="47.6904005%" y2="9.66627959%" id="linearGradient-5">
            <stop stop-color="#293CE0" stop-opacity="0" offset="0%"></stop>
            <stop stop-color="#293CE0" offset="100%"></stop>
        </linearGradient>
        <linearGradient x1="76.4899976%" y1="83.0677083%" x2="0%" y2="32.3463542%" id="linearGradient-6">
            <stop stop-color="#00FFFF" offset="0%"></stop>
            <stop stop-color="#00FFFF" stop-opacity="0" offset="100%"></stop>
        </linearGradient>
        <linearGradient x1="73.2718264%" y1="89.8141112%" x2="31.028904%" y2="5.22952992%" id="linearGradient-7">
            <stop stop-color="#0092FF" offset="0%"></stop>
            <stop stop-color="#008BFF" offset="100%"></stop>
        </linearGradient>
        <linearGradient x1="76.2513408%" y1="73.2303399%" x2="2.18377022%" y2="-4.20541681%" id="linearGradient-8">
            <stop stop-color="#003CA2" offset="0%"></stop>
            <stop stop-color="#0178FF" offset="100%"></stop>
        </linearGradient>
        <linearGradient x1="50%" y1="15.6380208%" x2="42.9208351%" y2="104.028156%" id="linearGradient-9">
            <stop stop-color="#0F59C1" offset="0%"></stop>
            <stop stop-color="#0069FF" stop-opacity="0" offset="100%"></stop>
        </linearGradient>
        <linearGradient x1="170.557925%" y1="84.038%" x2="10.8174805%" y2="21.672%" id="linearGradient-10">
            <stop stop-color="#021755" stop-opacity="0" offset="0%"></stop>
            <stop stop-color="#0097FF" offset="100%"></stop>
        </linearGradient>
        <linearGradient x1="76.1536846%" y1="71.9793714%" x2="20.2633225%" y2="21.2772149%" id="linearGradient-11">
            <stop stop-color="#003CA2" offset="0%"></stop>
            <stop stop-color="#0178FF" offset="100%"></stop>
        </linearGradient>
        <linearGradient x1="84.5327552%" y1="24.123%" x2="15.8427172%" y2="52.09%" id="linearGradient-12">
            <stop stop-color="#021755" stop-opacity="0" offset="0%"></stop>
            <stop stop-color="#67C1FF" offset="100%"></stop>
        </linearGradient>
        <linearGradient x1="73.2718264%" y1="89.8141112%" x2="32.5483444%" y2="8.27196213%" id="linearGradient-13">
            <stop stop-color="#0092FF" offset="0%"></stop>
            <stop stop-color="#008BFF" offset="100%"></stop>
        </linearGradient>
        <linearGradient x1="73.2789993%" y1="76.9122227%" x2="18.487669%" y2="24.5378037%" id="linearGradient-14">
            <stop stop-color="#003CA2" offset="0%"></stop>
            <stop stop-color="#0178FF" offset="100%"></stop>
        </linearGradient>
        <linearGradient x1="81.2807781%" y1="50%" x2="16.6105901%" y2="50%" id="linearGradient-15">
            <stop stop-color="#4285F4" offset="0%"></stop>
            <stop stop-color="#66A1F7" offset="100%"></stop>
        </linearGradient>
        <linearGradient x1="50%" y1="-82.564%" x2="50%" y2="256.864%" id="linearGradient-16">
            <stop stop-color="#021755" offset="0%"></stop>
            <stop stop-color="#0097FF" stop-opacity="0" offset="100%"></stop>
        </linearGradient>
        <linearGradient x1="33.092%" y1="22.586%" x2="33.092%" y2="289.819%" id="linearGradient-17">
            <stop stop-color="#021755" offset="0%"></stop>
            <stop stop-color="#0097FF" stop-opacity="0" offset="100%"></stop>
        </linearGradient>
        <linearGradient x1="50%" y1="0%" x2="50%" y2="100%" id="linearGradient-18">
            <stop stop-color="#FFFFFF" stop-opacity="0" offset="0%"></stop>
            <stop stop-color="#FFFFFF" stop-opacity="0.208220109" offset="100%"></stop>
        </linearGradient>
        <linearGradient x1="50%" y1="100%" x2="50%" y2="0.687269478%" id="linearGradient-19">
            <stop stop-color="#00E6CB" stop-opacity="0.15" offset="0%"></stop>
            <stop stop-color="#00E6CB" stop-opacity="0" offset="100%"></stop>
        </linearGradient>
        <linearGradient x1="-1.70530257e-10%" y1="-2.05479452%" x2="-1.70530257e-10%" y2="102.143173%" id="linearGradient-20">
            <stop stop-color="#FFFFFF" stop-opacity="0.7" offset="0%"></stop>
            <stop stop-color="#FFFFFF" stop-opacity="0" offset="100%"></stop>
        </linearGradient>
        <linearGradient x1="57.9752066%" y1="36.7219153%" x2="38.9876033%" y2="68.3241252%" id="linearGradient-21">
            <stop stop-color="#00FFFF" stop-opacity="0.1" offset="0%"></stop>
            <stop stop-color="#00FFFF" stop-opacity="0" offset="100%"></stop>
        </linearGradient>
        <linearGradient x1="50%" y1="0%" x2="50%" y2="100%" id="linearGradient-22">
            <stop stop-color="#2A39DD" offset="0%"></stop>
            <stop stop-color="#4B94EF" offset="100%"></stop>
        </linearGradient>
        <linearGradient x1="50%" y1="0%" x2="50%" y2="100%" id="linearGradient-23">
            <stop stop-color="#8271FF" offset="0%"></stop>
            <stop stop-color="#C0A0FF" offset="100%"></stop>
        </linearGradient>
        <linearGradient x1="50%" y1="88.019422%" x2="73.2789967%" y2="0%" id="linearGradient-24">
            <stop stop-color="#003CA2" offset="0%"></stop>
            <stop stop-color="#0178FF" offset="100%"></stop>
        </linearGradient>
        <linearGradient x1="73.2718264%" y1="89.8141112%" x2="31.028904%" y2="5.22952992%" id="linearGradient-25">
            <stop stop-color="#0092FF" offset="0%"></stop>
            <stop stop-color="#00E7FF" offset="100%"></stop>
        </linearGradient>
        <linearGradient x1="30.9214937%" y1="50%" x2="77.0061365%" y2="33.0637499%" id="linearGradient-26">
            <stop stop-color="#0178FF" offset="0%"></stop>
            <stop stop-color="#0092FF" offset="100%"></stop>
        </linearGradient>
        <linearGradient x1="65.9590271%" y1="9.50565082%" x2="31.1968131%" y2="77.2963076%" id="linearGradient-27">
            <stop stop-color="#0178FF" offset="0%"></stop>
            <stop stop-color="#0092FF" offset="100%"></stop>
        </linearGradient>
        <linearGradient x1="20.1314302%" y1="50%" x2="77.0131061%" y2="11.9472494%" id="linearGradient-28">
            <stop stop-color="#0178FF" offset="0%"></stop>
            <stop stop-color="#0092FF" offset="100%"></stop>
        </linearGradient>
        <linearGradient x1="-13.1579%" y1="49.8382%" x2="115.518784%" y2="49.8382%" id="linearGradient-29">
            <stop stop-color="#4285F4" offset="0%"></stop>
            <stop stop-color="#0069FF" stop-opacity="0.2" offset="100%"></stop>
        </linearGradient>
        <polygon id="path-30" points="0 0 132 0 132 210 0 209.577778"></polygon>
        <linearGradient x1="15.900896%" y1="50%" x2="96.0141795%" y2="240.536051%" id="linearGradient-32">
            <stop stop-color="#021755" offset="0%"></stop>
            <stop stop-color="#0097FF" stop-opacity="0" offset="100%"></stop>
        </linearGradient>
        <linearGradient x1="15.900896%" y1="50%" x2="130.827935%" y2="261.365124%" id="linearGradient-33">
            <stop stop-color="#021755" offset="0%"></stop>
            <stop stop-color="#0097FF" stop-opacity="0" offset="100%"></stop>
        </linearGradient>
        <polygon id="path-34" points="60.9399032 10.7985885 88.8280158 59.1022164 33.2465914 59.316917"></polygon>
        <linearGradient x1="47.8517052%" y1="82.821%" x2="96.8572725%" y2="7.41370958%" id="linearGradient-36">
            <stop stop-color="#00FFFF" offset="0%"></stop>
            <stop stop-color="#00FFFF" stop-opacity="0" offset="100%"></stop>
        </linearGradient>
        <polygon id="path-37" points="35.2851018 17.6291018 90.5539493 17.7689475 62.9653716 65.7434424 7.38394727 65.958143"></polygon>
        <linearGradient x1="51.1914968%" y1="0%" x2="54.6265641%" y2="83.8539631%" id="linearGradient-39">
            <stop stop-color="#BECAF9" offset="0%"></stop>
            <stop stop-color="#B7C6FF" offset="0%"></stop>
            <stop stop-color="#6886FE" stop-opacity="0" offset="100%"></stop>
        </linearGradient>
        <linearGradient x1="47.8517052%" y1="82.821%" x2="51.2744822%" y2="50%" id="linearGradient-40">
            <stop stop-color="#00FFFF" offset="0%"></stop>
            <stop stop-color="#00FFFF" stop-opacity="0" offset="100%"></stop>
        </linearGradient>
        <linearGradient x1="73.2789993%" y1="6.84625574%" x2="73.2789993%" y2="94.9423445%" id="linearGradient-41">
            <stop stop-color="#003CA2" offset="0%"></stop>
            <stop stop-color="#0178FF" stop-opacity="0" offset="100%"></stop>
        </linearGradient>
        <path d="M72.5702874,210.304265 L73.2800547,210.679098 L72.5702874,211.102357 L72.5702874,211.370732 L72.1202466,211.370732 L37.4358932,232.054205 L1.84120739,211.691878 L2.37948138,211.370732 L0,211.370732 L0,-2.27373675e-13 L72.5702874,-2.27373675e-13 L72.5702874,210.304265 Z" id="path-42"></path>
        <linearGradient x1="37.048313%" y1="102.214563%" x2="37.0483135%" y2="8.88853895%" id="linearGradient-44">
            <stop stop-color="#003CA2" stop-opacity="0" offset="0%"></stop>
            <stop stop-color="#0178FF" offset="100%"></stop>
        </linearGradient>
        <linearGradient x1="5.27579502%" y1="62.3856122%" x2="82.8307682%" y2="50%" id="linearGradient-45">
            <stop stop-color="#114AA4" offset="0%"></stop>
            <stop stop-color="#0061EA" offset="100%"></stop>
        </linearGradient>
        <linearGradient x1="0%" y1="-8.15020676%" x2="50%" y2="98.799084%" id="linearGradient-46">
            <stop stop-color="#0462F5" offset="0%"></stop>
            <stop stop-color="#00ECFF" stop-opacity="0" offset="100%"></stop>
        </linearGradient>
        <linearGradient x1="95.1793427%" y1="7.83296982%" x2="16.6105901%" y2="50%" id="linearGradient-47">
            <stop stop-color="#4285F4" offset="0%"></stop>
            <stop stop-color="#66A1F7" offset="100%"></stop>
        </linearGradient>
        <polygon id="path-48" points="38.338084 19.6852278 99.9550867 19.8407845 69.1976973 73.2050155 7.23221529 73.4438368"></polygon>
        <linearGradient x1="33.1525937%" y1="64.6991115%" x2="33.1525952%" y2="115.52026%" id="linearGradient-50">
            <stop stop-color="#00FFFF" offset="0%"></stop>
            <stop stop-color="#00FFFF" stop-opacity="0" offset="100%"></stop>
        </linearGradient>
        <linearGradient x1="50%" y1="86.7137%" x2="44.2963381%" y2="21.9658%" id="linearGradient-51">
            <stop stop-color="#00FFFF" offset="0%"></stop>
            <stop stop-color="#00FFFF" stop-opacity="0" offset="97.3672%"></stop>
        </linearGradient>
    </defs>
    <g id="产品" stroke="none" stroke-width="1" fill="none" fill-rule="evenodd">
        <g id="纸贵BaaS_eth" transform="translate(-1033.000000, -74.000000)">
            <g id="img" transform="translate(982.000000, 0.000000)">
                <g id="Group-19">
                    <mask id="mask-2" fill="white">
                        <use xlink:href="#path-1"></use>
                    </mask>
                    <g id="Mask"></g>
                    <polyline id="Path-3" fill="url(#linearGradient-3)" mask="url(#mask-2)" points="243 342 243 656.192616 474 656.192616 474 331"></polyline>
                    <polyline id="Path-3" fill="url(#linearGradient-3)" mask="url(#mask-2)" points="243 342 243 656.192616 359 656.192616 359 331"></polyline>
                    <g id="Group" opacity="0.719157609" mask="url(#mask-2)" fill-rule="nonzero">
                        <g transform="translate(173.000000, 542.000000)" id="Shape">
                            <polygon fill="url(#linearGradient-4)" points="25.6944381 29.7041537 0.0342952381 14.8584596 0.0342952381 217.572054 25.6944381 232.417872"></polygon>
                            <polygon fill="url(#linearGradient-5)" points="25.6696762 29.6528441 51.329819 14.8070261 51.329819 217.540946 25.6696762 232.38664"></polygon>
                            <polygon fill="#3776F6" points="25.660019 0 0 14.8464378 25.660019 29.6922559 51.3201619 14.8464378"></polygon>
                        </g>
                    </g>
                    <g id="Group" opacity="0.36" mask="url(#mask-2)" fill-rule="nonzero">
                        <g transform="translate(51.000000, 472.000000)" id="Shape">
                            <polygon fill="url(#linearGradient-4)" points="25.6944381 29.7041537 0.0342952381 14.8584596 0.0342952381 217.572054 25.6944381 232.417872"></polygon>
                            <polygon fill="url(#linearGradient-5)" points="25.6696762 29.6528441 51.329819 14.8070261 51.329819 217.540946 25.6696762 232.38664"></polygon>
                            <polygon fill="#3776F6" points="25.660019 0 0 14.8464378 25.660019 29.6922559 51.3201619 14.8464378"></polygon>
                        </g>
                    </g>
                    <polyline id="Shape" stroke="url(#linearGradient-6)" mask="url(#mask-2)" transform="translate(322.000000, 587.769832) scale(-1, -1) rotate(180.000000) translate(-322.000000, -587.769832) " points="191.722102 549.539664 191.186008 549.888347 190.74057 550.271124 190.395128 550.681101 190.146943 551.13108 190.019177 551.57995 190 552.039159 190.084555 552.49886 190.267487 552.960408 190.526381 553.392786 190.858374 553.810148 191.251385 554.20474 191.72397 554.595025 192.24014 554.952078 313.856845 624.362922 314.475875 624.688343 315.13077 624.979549 315.816796 625.2358 316.527853 625.456235 317.259581 625.639993 318.055442 625.794827 318.859521 625.906706 319.667087 625.975261 320.47017 626 321.309864 625.978215 322.12814 625.907075 322.91603 625.787073 323.665566 625.618823 324.367657 625.403681 325.050196 625.126629 454 551.570473"></polyline>
                </g>
                <g id="主要" transform="translate(95.000000, 27.000000)">
                    <g id="Group" transform="translate(147.326787, 0.000000)"></g>
                    <g id="Group" transform="translate(147.085106, 236.165192)" fill-rule="nonzero">
                        <g transform="translate(0.114839, 0.060221)">
                            <g transform="translate(0.000000, 0.400251)">
                                <g id="Group-6" transform="translate(1.000000, 198.000000)">
                                    <polygon id="Shape" fill="url(#linearGradient-7)" points="0.158756137 105.430233 0.158756137 67.2917227 115.529487 0.264896755 230.898895 67.2917227 230.898895 105.430233 115.432911 172.549773"></polygon>
                                    <polygon id="Shape" fill="url(#linearGradient-8)" opacity="0.4" points="11 60.5206329 115.000596 0 219 60.3958255 114.913538 121"></polygon>
                                    <polygon id="Shape" fill="url(#linearGradient-9)" points="115.590344 172.533879 115.590344 134.783442 230.441148 67.473177 230.681929 104.936201"></polygon>
                                    <polygon id="Shape" fill="url(#linearGradient-3)" points="0 105.386525 0.186538462 67.3685428 115.630033 134.666888 115.370731 172.413351"></polygon>
                                    <polygon id="Shape" fill="url(#linearGradient-10)" opacity="0.379" points="0 105.386525 0.186538462 67.3685428 115.630033 134.666888 115.370731 172.413351"></polygon>
                                </g>
                                <g id="Group-6" transform="translate(1.000000, 134.000000)">
                                    <polygon id="Shape" fill="url(#linearGradient-7)" points="0.158756137 105.430233 0.158756137 67.2917227 115.529487 0.264896755 230.898895 67.2917227 230.898895 105.430233 115.432911 172.549773"></polygon>
                                    <polygon id="Shape" fill="url(#linearGradient-11)" opacity="0.4" points="11 60.5206329 115.000596 -2.27373675e-13 219 60.3958255 114.913538 121"></polygon>
                                    <polygon id="Shape" fill="url(#linearGradient-9)" points="115.590344 172.533879 115.590344 134.783442 230.441148 67.473177 230.681929 104.936201"></polygon>
                                    <polygon id="Shape" fill="url(#linearGradient-12)" opacity="0.379" points="0 105.386525 0.186538462 67.3685428 115.630033 134.666888 115.370731 172.413351"></polygon>
                                    <polygon id="Shape" fill="url(#linearGradient-3)" points="0 105.386525 0.186538462 67.3685428 115.630033 134.666888 115.370731 172.413351"></polygon>
                                </g>
                                <g id="Group-6" transform="translate(1.000000, 71.000000)">
                                    <polygon id="Shape" fill="url(#linearGradient-13)" points="0.158756137 105.430233 0.158756137 67.2917227 115.529487 0.264896755 230.898895 67.2917227 230.898895 105.430233 115.432911 172.549773"></polygon>
                                    <polygon id="Shape" fill="url(#linearGradient-14)" opacity="0.4" points="11 60.5206329 115.000596 0 219 60.3958255 114.913538 121"></polygon>
                                    <polygon id="Shape" fill="url(#linearGradient-9)" points="115.590344 172.533879 115.590344 134.783442 230.441148 67.473177 230.681929 104.936201"></polygon>
                                    <polygon id="Shape" fill="url(#linearGradient-12)" opacity="0.379" points="0 105.386525 0.186538462 67.3685428 115.630033 134.666888 115.370731 172.413351"></polygon>
                                    <polygon id="Shape" fill="url(#linearGradient-3)" points="0 105.386525 0.186538462 67.3685428 115.630033 134.666888 115.370731 172.413351"></polygon>
                                </g>
                                <polygon id="Shape" fill="url(#linearGradient-15)" points="1.15875614 105.430233 1.15875614 67.2917227 116.529487 0.264896755 231.898895 67.2917227 231.898895 105.430233 116.432911 172.549773"></polygon>
                                <polygon id="Shape" fill="url(#linearGradient-15)" points="1.15875614 105.430233 1.15875614 67.2917227 116.529487 0.264896755 231.898895 67.2917227 231.898895 105.430233 116.432911 172.549773"></polygon>
                                <polygon id="Shape" fill="url(#linearGradient-9)" points="116.590344 172.533879 116.590344 134.783442 231.800055 67.3743363 231.895636 105.433113"></polygon>
                                <polygon id="Shape" fill="url(#linearGradient-3)" points="0.742437368 105.266182 1 67.2229691 116.630033 134.666888 116.370731 172.413351"></polygon>
                                <g transform="translate(63.626650, 37.488189)" id="Shape">
                                    <polygon fill="url(#linearGradient-16)" points="104.866367 31.145236 104.994694 31.0564956 52.7864157 0.725817109 52.7864157 0.75760472 52.9226814 0.837073746 52.9226814 61.4533982 52.7983224 61.5249204 52.8327196 61.5461121"></polygon>
                                    <polygon fill="url(#linearGradient-17)" opacity="0.379" points="52.9226814 61.4520737 52.9226814 0.837073746 52.7864157 0.75760472 0.649577196 31.0472242 0.649577196 31.1253687 52.7983224 61.5249204"></polygon>
                                </g>
                            </g>
                        </g>
                    </g>
                    <g id="img_ethereum" transform="translate(0.000000, 43.735178)" opacity="0.72">
                        <g id="Group-7" style="mix-blend-mode: lighten;" transform="translate(148.000000, 0.264822)">
                            <polygon id="Path-10" fill="url(#linearGradient-18)" points="0 96 0 259.695378 115.595297 327 231 259.695378 229.856436 96"></polygon>
                            <polygon id="Rectangle-15" fill="url(#linearGradient-19)" points="84.1869565 0 113.313043 0 113.313043 291 84.1869565 273.92126"></polygon>
                            <polygon id="Shape" fill="url(#linearGradient-19)" fill-rule="nonzero" points="200.869565 243 117.041762 193.231441 27.1173913 243 27.1173913 19 200.869565 19"></polygon>
                            <path d="M114.495652,249 L114.495652,274" id="Shape" stroke="#FFFFFF" stroke-width="2" stroke-linecap="round" stroke-dasharray="0"></path>
                            <path d="M148.643478,264 L148.643478,230" id="Shape" stroke="url(#linearGradient-20)" stroke-width="2" stroke-linecap="round"></path>
                            <path d="M91.3956522,265 L91.3956522,231" id="Shape" stroke="url(#linearGradient-20)" stroke-width="2" stroke-linecap="round"></path>
                        </g>
                    </g>
                    <g id="img_hyperledgerfabric" transform="translate(50.000000, 86.000000)">
                        <g id="Group-12" transform="translate(126.957447, 180.166667)">
                            <polygon id="Shape" fill="url(#linearGradient-21)" fill-rule="nonzero" points="9.78672203 26.4445452 9.78672203 32.439586 0.40163585 26.9313292 0.40163585 20.9385627"></polygon>
                            <polygon id="Shape" fill="url(#linearGradient-21)" fill-rule="nonzero" transform="translate(14.525830, 27.013418) scale(-1, 1) translate(-14.525830, -27.013418) " points="19.2785208 26.765755 19.2785208 32.8376387 9.77313902 27.2587785 9.77313902 21.1891982"></polygon>
                            <g id="Group-10">
                                <g id="package-copy-2" transform="translate(0.345012, 5.635596)" fill="url(#linearGradient-22)" fill-rule="nonzero">
                                    <path d="M18.8700218,5.69311857 C18.8686737,5.61921396 18.8596869,5.54620516 18.8408147,5.47677962 C18.8327266,5.44676987 18.8165503,5.42034337 18.8053168,5.39167734 C18.7882419,5.34778248 18.7743124,5.30299181 18.7509467,5.26223229 C18.7347705,5.23401417 18.7114048,5.21117092 18.6920832,5.18519233 C18.6651228,5.14891189 18.6413078,5.11039191 18.6089554,5.07814262 C18.5860391,5.05529938 18.556832,5.03872683 18.5316689,5.01812312 C18.4970698,4.9903529 18.4651667,4.95944734 18.4260741,4.93660409 C18.4242768,4.93570828 18.4220301,4.93526037 18.4202327,4.93436456 C18.4184353,4.93346875 18.4175367,4.93212503 18.4157393,4.93122921 L9.87828452,0.116231798 C9.60373795,-0.0387439327 9.26763183,-0.0387439327 8.99308526,0.116231798 L4.86095715,2.44893008 C4.86050781,2.44893008 4.86005847,2.44937799 4.85960913,2.44937799 L0.456079821,4.93078131 C0.454282462,4.93167712 0.452934443,4.93346875 0.451586424,4.93436456 C0.449789065,4.93526037 0.447542366,4.93570828 0.446194347,4.93660409 C0.408000471,4.95855152 0.377445369,4.98900918 0.34374489,5.01588359 C0.317233846,5.0369352 0.287128084,5.05395566 0.263762419,5.07769472 C0.230511279,5.11083982 0.205797594,5.1498077 0.178387871,5.18743187 C0.159964942,5.21251464 0.137048616,5.23490998 0.121771066,5.26178439 C0.0961587012,5.30567925 0.0804318108,5.35450108 0.0629075615,5.40197919 C0.0534714273,5.42706197 0.0390925561,5.45035312 0.0319031205,5.47633171 C0.0134801918,5.54351772 0.00584141643,5.61339117 0.00404405753,5.68460834 C0.00314537808,5.69311857 0,5.70118089 0,5.71013903 L0,15.7880406 C0,16.1109814 0.174343813,16.4088393 0.456079821,16.5678462 L8.9935346,21.3828436 C9.03936725,21.4083743 9.08834528,21.4236032 9.13687397,21.4406236 C9.16023964,21.4491338 9.18225728,21.462571 9.20652163,21.4688417 C9.28156136,21.4889975 9.3588478,21.4992994 9.43613423,21.4992994 C9.51342066,21.4992994 9.5907071,21.4889975 9.66574683,21.4692896 C9.68956183,21.4630189 9.71157948,21.4495817 9.73539449,21.4410715 C9.78392318,21.4240511 9.83290121,21.4088222 9.87873386,21.3832915 L18.4161886,16.5682941 C18.6979246,16.4092872 18.8722685,16.1114293 18.8722685,15.7884885 L18.8722685,5.71058694 C18.8722685,5.70431624 18.8700218,5.69894136 18.8700218,5.69311857 Z" id="Shape"></path>
                                </g>
                                <path d="M3.98849749,4.46164808 L13.2239567,6.971226 C13.491273,7.04386461 13.5827744,7.08493029 13.677449,7.14625279 C13.7721236,7.20757528 13.8481497,7.28322491 13.9099413,7.37759398 C13.971733,7.47196304 14.0132523,7.5632595 14.0872168,7.83021192 L16.6305988,17.0097746 C16.760056,17.4770112 16.4862318,17.9607271 16.0189952,18.0901843 C15.8683859,18.1319137 15.7093671,18.1326808 15.5583622,18.0924065 L6.3268653,15.6302866 C6.05808823,15.5586014 5.96599532,15.5176522 5.87070186,15.4563049 C5.7754084,15.3949576 5.69885537,15.319064 5.63668594,15.2243049 C5.57451651,15.1295457 5.53277213,15.0378105 5.45876436,14.7696637 L2.91205651,5.54236756 C2.78306498,5.0750022 3.05737117,4.59155943 3.52473653,4.4625679 C3.67644636,4.42069641 3.83662276,4.42037872 3.98849749,4.46164808 Z" id="Rectangle-6-Copy" fill="#75ACFF" transform="translate(9.771445, 11.276491) rotate(-45.000000) translate(-9.771445, -11.276491) "></path>
                            </g>
                        </g>
                        <g id="Group-11" transform="translate(288.397163, 115.933333)">
                            <polygon id="Shape" fill="url(#linearGradient-21)" fill-rule="nonzero" points="12.9320858 33.4569239 12.9320858 41.4406798 0.530717973 34.1051871 0.530717973 26.12446"></polygon>
                            <polygon id="Shape" fill="url(#linearGradient-21)" fill-rule="nonzero" transform="translate(19.194300, 34.234128) scale(-1, 1) translate(-19.194300, -34.234128) " points="25.4744627 33.9043078 25.4744627 41.9903974 12.9141373 34.5608803 12.9141373 26.4778582"></polygon>
                            <g id="Group-10">
                                <g id="package-copy-2" transform="translate(0.455896, 5.745090)" fill="url(#linearGradient-23)" fill-rule="nonzero">
                                    <path d="M24.9346758,7.58167798 C24.9328945,7.48325724 24.9210194,7.38602947 24.8960818,7.29357362 C24.8853942,7.25360883 24.8640191,7.21841596 24.8491753,7.18024064 C24.8266126,7.12178469 24.8082063,7.06213575 24.7773311,7.00785522 C24.755956,6.97027639 24.7250808,6.93985543 24.6995494,6.90525905 C24.6639242,6.85694341 24.6324552,6.80564533 24.589705,6.76269809 C24.5594236,6.73227714 24.5208296,6.71020703 24.4875794,6.68276852 C24.4418604,6.64578618 24.3997039,6.60462841 24.3480474,6.57420746 C24.3456723,6.57301448 24.3427036,6.57241799 24.3403286,6.57122501 C24.3379535,6.57003203 24.336766,6.56824256 24.334391,6.56704958 L13.0530756,0.154788988 C12.6902923,-0.0515963294 12.2461647,-0.0515963294 11.8833814,0.154788988 L6.42322472,3.26130556 C6.42263097,3.26130556 6.42203722,3.26190205 6.42144346,3.26190205 L0.602659743,6.56645309 C0.600284729,6.56764607 0.598503468,6.57003203 0.596722208,6.57122501 C0.594347194,6.57241799 0.591378427,6.57301448 0.589597167,6.57420746 C0.539128124,6.60343543 0.49875289,6.64399671 0.454221382,6.67978607 C0.419189929,6.70782107 0.379408449,6.73048767 0.34853327,6.7621016 C0.304595515,6.80624182 0.271939076,6.85813639 0.235720116,6.9082415 C0.211376225,6.9416449 0.181094799,6.97146937 0.160907182,7.00725873 C0.127063236,7.06571469 0.106281866,7.13073203 0.0831254817,7.1939599 C0.0706566595,7.2273633 0.0516565494,7.25838075 0.0421564943,7.29297713 C0.0178126032,7.38245054 0.00771879473,7.47550287 0.00534378097,7.57034468 C0.00415627409,7.58167798 0,7.59241479 0,7.60434458 L0,21.0253551 C0,21.455424 0.230376335,21.8520894 0.602659743,22.0638431 L11.8839751,28.4761037 C11.944538,28.5101036 12.0092571,28.5303842 12.0733825,28.5530508 C12.1042576,28.5643841 12.1333516,28.5822788 12.1654143,28.5906296 C12.2645711,28.6174717 12.3666967,28.6311909 12.4688223,28.6311909 C12.5709479,28.6311909 12.6730734,28.6174717 12.7722303,28.5912261 C12.8036992,28.5828753 12.8327931,28.5649806 12.8642621,28.5536473 C12.9283874,28.5309807 12.9931065,28.5107001 13.0536694,28.4767002 L24.3349848,22.0644396 C24.7072682,21.8526859 24.9376445,21.4560204 24.9376445,21.0259516 L24.9376445,7.60494107 C24.9376445,7.59659021 24.9346758,7.58943234 24.9346758,7.58167798 Z" id="Shape"></path>
                                </g>
                                <path d="M5.23149102,4.17111417 L17.4915722,7.52863964 C17.8378323,7.62346585 17.9563144,7.67692288 18.0788567,7.75664155 C18.2013991,7.83636021 18.2997355,7.9345996 18.379575,8.05706317 C18.4594146,8.17952675 18.5129886,8.29795605 18.6081565,8.64412235 L21.9897094,20.9442715 C22.1562757,21.5501441 21.8001476,22.1763296 21.1942749,22.3428959 C20.9989968,22.3965817 20.7929278,22.3971694 20.5973466,22.3445982 L8.34248813,19.050556 C7.99432304,18.9569711 7.87507008,18.9036655 7.75172136,18.8239143 C7.62837265,18.7441631 7.52934983,18.6456059 7.44901814,18.5226344 C7.36868646,18.399663 7.31481938,18.2806626 7.21959444,17.9329425 L3.8336515,5.56894952 C3.66768509,4.96291228 4.02443299,4.33707968 4.63047022,4.17111327 C4.82718889,4.11724085 5.03477251,4.11724116 5.23149102,4.17111417 Z" id="Rectangle-6-Copy" fill="#8271FF" transform="translate(12.911830, 13.257152) rotate(-45.000000) translate(-12.911830, -13.257152) "></path>
                            </g>
                        </g>
                        <g id="Group-15" transform="translate(215.779316, 115.752637) rotate(35.000000) translate(-215.779316, -115.752637) translate(135.843146, 31.152637)">
                            <g id="Group-9" transform="translate(0.797557, 1.230549)">
                                <polygon id="Polygon" fill="url(#linearGradient-24)" transform="translate(79.090869, 83.642708) rotate(25.000000) translate(-79.090869, -83.642708) " points="79.0908689 17.7623463 135.543405 50.702527 135.543405 116.582888 79.0908689 149.523069 22.6383327 116.582888 22.6383327 50.702527"></polygon>
                                <polygon id="Triangle-2" fill="url(#linearGradient-25)" transform="translate(77.195688, 71.699240) rotate(17.000000) translate(-77.195688, -71.699240) " points="87.9130885 45.7248288 105.227359 97.673651 49.1640176 95.2989359"></polygon>
                                <polygon id="Triangle-2" fill="url(#linearGradient-26)" transform="translate(113.713914, 82.816199) rotate(17.000000) translate(-113.713914, -82.816199) " points="141.12101 69.0823679 86.306817 56.812231 103.609033 108.820166"></polygon>
                                <polygon id="Triangle-2" fill="url(#linearGradient-27)" transform="translate(61.583400, 63.558006) rotate(17.000000) translate(-61.583400, -63.558006) " points="90.2841577 40.831141 32.8826413 36.4575583 51.3371716 90.6584535"></polygon>
                                <polygon id="Triangle-2" fill="url(#linearGradient-28)" transform="translate(57.959342, 107.530195) rotate(135.000000) translate(-57.959342, -107.530195) " points="87.2076187 85.9424797 28.7110657 82.4812482 52.7321692 132.579142"></polygon>
                            </g>
                        </g>
                    </g>
                </g>
                <g id="Group" opacity="0.542357337" transform="translate(515.000000, 333.000000)" fill-rule="nonzero">
                    <polygon id="Shape" fill="url(#linearGradient-4)" points="25.6944381 29.7041537 0.0342952381 14.8584596 0.0342952381 217.572054 25.6944381 232.417872"></polygon>
                    <polygon id="Shape" fill="url(#linearGradient-5)" points="25.6696762 29.6528441 51.329819 14.8070261 51.329819 217.540946 25.6696762 232.38664"></polygon>
                    <polygon id="Shape" fill="#3776F6" points="25.660019 0 0 14.8464378 25.660019 29.6922559 51.3201619 14.8464378"></polygon>
                </g>
                <g id="图形2" transform="translate(443.000000, 372.000000)">
                    <g id="Rectangle-22" transform="translate(0.000000, 58.000000)">
                        <mask id="mask-31" fill="white">
                            <use xlink:href="#path-30"></use>
                        </mask>
                        <use id="Mask" fill="url(#linearGradient-3)" xlink:href="#path-30"></use>
                        <polygon fill="url(#linearGradient-9)" mask="url(#mask-31)" points="66.5 -8.86666667 138.34375 -8.86666667 138.34375 209.857422 66.5 209.857422"></polygon>
                    </g>
                    <polygon id="Rectangle-13" fill="url(#linearGradient-15)" transform="translate(66.081029, 57.902444) rotate(30.000000) translate(-66.081029, -57.902444) " points="47.5718538 24.7774444 123.260101 25.1015596 85.8456419 90.4842411 8.90195694 91.0274444"></polygon>
                    <g id="Rectangle-31" transform="translate(18.000000, 15.000000)">
                        <polygon id="Mask" fill="url(#linearGradient-32)" opacity="0.8" transform="translate(37.109800, 35.096113) rotate(30.000000) translate(-37.109800, -35.096113) " points="36.8589588 10.8812432 64.9005122 59.0962821 9.31908785 59.3109826"></polygon>
                        <mask id="mask-35" fill="white">
                            <use xlink:href="#path-34"></use>
                        </mask>
                        <use id="Mask" fill="url(#linearGradient-33)" transform="translate(61.037304, 35.057753) scale(-1, 1) rotate(30.000000) translate(-61.037304, -35.057753) " xlink:href="#path-34"></use>
                    </g>
                    <g id="Group-15" transform="translate(18.000000, 0.000000)">
                        <mask id="mask-38" fill="white">
                            <use xlink:href="#path-37"></use>
                        </mask>
                        <use id="Mask" stroke="url(#linearGradient-36)" transform="translate(48.968948, 41.793622) rotate(30.000000) translate(-48.968948, -41.793622) " xlink:href="#path-37"></use>
                    </g>
                    <g id="Group-9" transform="translate(18.000000, 11.000000)">
                        <g id="小方块" transform="translate(45.053892, 0.000000)">
                            <polygon id="Polygon-3" fill="#75ACFF" points="4.1497006 0 8.25683904 2.36893204 8.25683904 7.10679612 4.1497006 9.47572816 0.0425621569 7.10679612 0.0425621569 2.36893204"></polygon>
                            <path d="M4.1497006,4.7394492 L4.1497006,4.72984672 L8.26044129,2.36893204 L8.26044129,7.10679612 L4.15460333,9.46489502 L4.15460333,9.48012906 L0.0438626351,7.11921438 L0.0438626351,2.3813503 L4.1497006,4.7394492 Z" id="Combined-Shape" fill="url(#linearGradient-22)"></path>
                        </g>
                        <g id="小方块" transform="translate(45.053892, 52.000000)">
                            <polygon id="Polygon-3" fill="#75ACFF" points="4.1497006 0 8.25683904 2.36893204 8.25683904 7.10679612 4.1497006 9.47572816 0.0425621569 7.10679612 0.0425621569 2.36893204"></polygon>
                            <path d="M4.1497006,4.7394492 L4.1497006,4.72984672 L8.26044129,2.36893204 L8.26044129,7.10679612 L4.15460333,9.46489502 L4.15460333,9.48012906 L0.0438626351,7.11921438 L0.0438626351,2.3813503 L4.1497006,4.7394492 Z" id="Combined-Shape" fill="url(#linearGradient-22)"></path>
                        </g>
                        <g id="小方块" transform="translate(89.053892, 27.000000)">
                            <polygon id="Polygon-3" fill="#75ACFF" points="4.1497006 0 8.25683904 2.36893204 8.25683904 7.10679612 4.1497006 9.47572816 0.0425621569 7.10679612 0.0425621569 2.36893204"></polygon>
                            <path d="M4.1497006,4.7394492 L4.1497006,4.72984672 L8.26044129,2.36893204 L8.26044129,7.10679612 L4.15460333,9.46489502 L4.15460333,9.48012906 L0.0438626351,7.11921438 L0.0438626351,2.3813503 L4.1497006,4.7394492 Z" id="Combined-Shape" fill="url(#linearGradient-22)"></path>
                        </g>
                        <g id="小方块" transform="translate(0.053892, 27.000000)">
                            <polygon id="Polygon-3" fill="#75ACFF" points="4.1497006 0 8.25683904 2.36893204 8.25683904 7.10679612 4.1497006 9.47572816 0.0425621569 7.10679612 0.0425621569 2.36893204"></polygon>
                            <path d="M4.1497006,4.7394492 L4.1497006,4.72984672 L8.26044129,2.36893204 L8.26044129,7.10679612 L4.15460333,9.46489502 L4.15460333,9.48012906 L0.0438626351,7.11921438 L0.0438626351,2.3813503 L4.1497006,4.7394492 Z" id="Combined-Shape" fill="url(#linearGradient-22)"></path>
                        </g>
                    </g>
                    <path d="M51,34.9739978 C52.0840376,41.8165126 55.0469839,45.23777 59.8888391,45.23777 C67.1516218,45.23777 64.6704964,29.1310491 76.1662146,31.1801594 C79.3887382,31.7545738 81,35.4432155 81,42.2460845 L81,55.066367 L66,61 L52.1328971,52.1187324 L51,34.9739978 Z" id="Line-10" fill="url(#linearGradient-39)"></path>
                    <path d="M51,35.1867488 C52.0840376,42.3955829 55.0469839,46 59.8888391,46 C67.1516218,46 64.6704964,29.0309933 76.1662146,31.1898044 C79.3887382,31.7949705 81,35.6810865 81,42.8481523" id="Line-10" stroke="#6886FE" stroke-linecap="square"></path>
                </g>
                <g id="Group-18" transform="translate(115.000000, 277.000000)">
                    <polyline id="Shape" stroke="url(#linearGradient-40)" transform="translate(311.000000, 122.000000) scale(-1, -1) rotate(180.000000) translate(-311.000000, -122.000000) " points="291.636291 47 162.722102 120.539664 162.186008 120.888347 161.74057 121.271124 161.395128 121.681101 161.146943 122.13108 161.019177 122.57995 161 123.039159 161.084555 123.49886 161.267487 123.960408 161.526381 124.392786 161.858374 124.810148 162.251385 125.20474 162.72397 125.595025 163.24014 125.952078 284.856845 195.362922 285.475875 195.688343 286.13077 195.979549 286.816796 196.2358 287.527853 196.456235 288.259581 196.639993 289.055442 196.794827 289.859521 196.906706 290.667087 196.975261 291.47017 197 292.309864 196.978215 293.12814 196.907075 293.91603 196.787073 294.665566 196.618823 295.367657 196.403681 296.050196 196.126629 461 108"></polyline>
                    <circle id="bn" fill="#FFFFFF" fill-rule="nonzero" cx="394.5" cy="142.5" r="1.5"></circle>
                    <circle id="bn" fill="#FFFFFF" fill-rule="nonzero" cx="192.5" cy="103.5" r="1.5"></circle>
                    <circle id="bn" fill="#FFFFFF" fill-rule="nonzero" cx="242.5" cy="62.5" r="1.5"></circle>
                    <g id="Group-72" transform="translate(0.000000, 60.000000)">
                        <g id="Rectangle-35" transform="translate(18.616162, 67.248780)">
                            <mask id="mask-43" fill="white">
                                <use xlink:href="#path-42"></use>
                            </mask>
                            <use id="Mask" fill="url(#linearGradient-41)" opacity="0.4" xlink:href="#path-42"></use>
                            <polygon fill="url(#linearGradient-44)" opacity="0.4" mask="url(#mask-43)" points="36.1313131 8.8195122 74.775389 -1.12383321 74.775389 237.553954 36.1313131 236.415184"></polygon>
                        </g>
                        <polygon id="Rectangle-13" fill="url(#linearGradient-45)" transform="translate(55.054077, 67.225331) rotate(30.000000) translate(-55.054077, -67.225331) " points="44.6386136 48.8739713 86.7065106 48.9801748 65.7074579 85.4136407 23.401643 85.5766916"></polygon>
                        <g id="Group-54">
                            <g id="Group-8" transform="translate(0.000000, 46.000000)" stroke="url(#linearGradient-46)" stroke-linecap="square">
                                <path d="M54.5,28.7219512 L54.5,253.44878" id="Line-12"></path>
                                <path d="M107.146465,0.853658537 L107.146465,253.44878" id="Line-12"></path>
                                <path d="M1.65151515,0.853658537 L1.65151515,253.44878" id="Line-12"></path>
                            </g>
                            <g id="Rectangle-13" transform="translate(1.000000, 0.000000)">
                                <mask id="mask-49" fill="white">
                                    <use xlink:href="#path-48"></use>
                                </mask>
                                <use id="Mask" fill="url(#linearGradient-47)" transform="translate(53.593651, 46.564532) rotate(30.000000) translate(-53.593651, -46.564532) " xlink:href="#path-48"></use>
                            </g>
                        </g>
                        <g id="Group-50" transform="translate(9.808081, 5.512195)">
                            <path d="M2.76536981,0.0799205429 L45.0762798,23.89947" id="Line-9" stroke="#6886FE" stroke-width="1.1" stroke-linecap="square" stroke-dasharray="2.2,3.3" transform="translate(23.920825, 11.989695) scale(1, -1) translate(-23.920825, -11.989695) "></path>
                            <path d="M45.1414141,0 L87.4523241,23.8195495" id="Line-9" stroke="#6886FE" stroke-width="1.1" stroke-linecap="square" stroke-dasharray="2.2,3.3" transform="translate(66.296869, 11.909775) scale(-1, -1) translate(-66.296869, -11.909775) "></path>
                            <ellipse id="Oval-13" fill="#6886FE" cx="87.530303" cy="23.702439" rx="2.75252525" ry="2.75609756"></ellipse>
                            <ellipse id="Oval-13" fill="#6886FE" cx="2.75252525" cy="23.702439" rx="2.75252525" ry="2.75609756"></ellipse>
                        </g>
                    </g>
                    <g id="Group-9" transform="translate(37.000000, 43.000000)">
                        <g id="小方块" transform="translate(8.433628, 48.938053)">
                            <polygon id="Polygon-3" fill="#9EB0F9" points="8.05309735 0 16.0235966 4.60176991 16.0235966 13.8053097 8.05309735 18.4070796 0.0825980537 13.8053097 0.0825980537 4.60176991"></polygon>
                            <polygon id="Rectangle-11" fill="#6886FE" points="0.0851218206 4.62589301 8.06261181 9.2120888 8.06261181 18.4156286 0.0851218206 13.8294328"></polygon>
                            <polygon id="Rectangle-11" fill="#204CFC" transform="translate(12.041842, 11.496638) scale(-1, 1) translate(-12.041842, -11.496638) " points="8.05309735 4.60176991 16.0305873 9.1879657 16.0305873 18.3915055 8.05309735 13.8053097"></polygon>
                        </g>
                        <path d="M17.4867257,20.0996094 L16.9115044,53.2654867" id="Line-7" stroke="url(#linearGradient-50)"></path>
                        <polygon id="Polygon-3" fill="#456AFF" opacity="0.403249547" points="17.0633501 0 34 9.77837938 34 29.3351382 17.0633501 39.1135175 0.126700182 29.3351382 0.126700182 9.77837938"></polygon>
                        <g id="小方块" transform="translate(5.000000, 5.000000)">
                            <polygon id="Polygon-3" fill="#9EB0F9" points="12.3529412 0 24.5791822 7.05882353 24.5791822 21.1764706 12.3529412 28.2352941 0.126700182 21.1764706 0.126700182 7.05882353"></polygon>
                            <polygon id="Rectangle-11" fill="#6886FE" points="0.13057148 7.09582684 12.3675358 14.1307606 12.3675358 28.2484077 0.13057148 21.2134739"></polygon>
                            <polygon id="Rectangle-11" fill="#204CFC" transform="translate(18.471423, 17.635114) scale(-1, 1) translate(-18.471423, -17.635114) " points="12.3529412 7.05882353 24.5899055 14.0937573 24.5899055 28.2114044 12.3529412 21.1764706"></polygon>
                        </g>
                    </g>
                    <polyline id="Shape" stroke="url(#linearGradient-51)" transform="translate(125.000000, 53.294922) rotate(180.000000) translate(-125.000000, -53.294922) " points="2.26836685 32.2441812 1.56223475 32.7061565 0.975431379 33.2135984 0.520412757 33.7569676 0.193566641 34.3534843 0.0252857323 34.9483906 0 35.5570483 0.11135687 36.1664494 0.352256409 36.7780804 0.693302395 37.3511825 1.13063346 37.9045866 1.64830589 38.4273905 2.27085806 38.9447434 2.95058339 39.4181163 123.139808 104.420084 123.95518 104.851459 124.817759 105.237243 125.721444 105.576942 126.658013 105.869068 127.621735 106.11263 128.670159 106.318035 129.729046 106.466328 130.79279 106.557138 131.850556 106.589844 132.956651 106.561102 134.034471 106.466824 135.072307 106.307753 136.059447 106.084632 136.984307 105.799444 137.883383 105.432366 247.731384 45.935878 248.437392 45.4743982 249.024569 44.9665847 249.479836 44.4233394 249.807056 43.8268226 249.975213 43.2319163 250 42.6233825 249.88939 42.0139814 249.648117 41.4016071 249.306947 40.8282572 248.869242 40.2753487 248.351445 39.7525448 247.729017 39.2354397 247.050039 38.7621906 180.296875 4.82600626e-11"></polyline>
                    <circle id="bn" fill="#FFFFFF" fill-rule="nonzero" cx="45.5" cy="92.5" r="1.5"></circle>
                    <g id="Group" transform="translate(83.000000, 279.000000)" fill-rule="nonzero">
                        <g id="bn-link" fill="#000000">
                            <circle id="bn" cx="1.5" cy="1.5" r="1.5"></circle>
                        </g>
                        <g id="bn-link" fill="#FFFFFF">
                            <circle id="bn" cx="1.5" cy="1.5" r="1.5"></circle>
                        </g>
                    </g>
                </g>
            </g>
        </g>
    </g>
</svg>