<svg xmlns="http://www.w3.org/2000/svg" xmlns:xlink="http://www.w3.org/1999/xlink" width="118" height="168" viewBox="0 0 118 168">
    <defs>
        <linearGradient id="a" x1="50%" x2="50%" y1="95.821%" y2="10.378%">
            <stop offset="0%" stop-color="#F6F9FC"/>
            <stop offset="100%" stop-color="#FFF"/>
        </linearGradient>
        <linearGradient id="b" x1="171.445%" x2="-45.933%" y1="100%" y2="-10.122%">
            <stop offset="0%" stop-color="#F6F9FC"/>
            <stop offset="100%" stop-color="#FFF"/>
        </linearGradient>
        <linearGradient id="c" x1="46419.419%" x2="51901.43%" y1="68803%" y2="75970%">
            <stop offset="0%" stop-color="#2A39DD"/>
            <stop offset="28%" stop-color="#2449E7"/>
            <stop offset="100%" stop-color="#1670FF"/>
        </linearGradient>
        <radialGradient id="e" cx="54.049%" cy="54.43%" r="140.163%" fx="54.049%" fy="54.43%" gradientTransform="scale(-.57845 -1) rotate(-21.73 -3.033 3.842)">
            <stop offset="0%" stop-color="#FFF" stop-opacity=".5"/>
            <stop offset="100%" stop-color="#FFF" stop-opacity="0"/>
        </radialGradient>
        <path id="d" d="M114.738 95.095l-57.376 33.179L0 95.094l57.362-33.19z"/>
        <linearGradient id="f" x1="50%" x2="50%" y1="100%" y2="0%">
            <stop offset="0%" stop-color="#9B8DFF"/>
            <stop offset="100%" stop-color="#A12DEF"/>
        </linearGradient>
        <linearGradient id="g" x1="62.898%" x2="50%" y1="71.308%" y2="24.293%">
            <stop offset="0%" stop-color="#0178FF"/>
            <stop offset="100%" stop-color="#0092FF"/>
        </linearGradient>
        <linearGradient id="h" x1="2407%" x2="6853%" y1="4225%" y2="4225%">
            <stop offset="0%" stop-color="#8271FF"/>
            <stop offset="100%" stop-color="#E4BCFF"/>
        </linearGradient>
    </defs>
    <g fill="none" fill-rule="evenodd">
        <path fill="#DFE8F0" fill-opacity=".5" d="M115.872 133.877l-57.15-32.646L1.53 133.877a1.02 1.02 0 0 0 0 1.79l55.814 31.868a2.881 2.881 0 0 0 2.753 0l55.814-31.868c.629-.39.629-1.362-.04-1.79z"/>
        <g stroke="#4E87FF" stroke-width=".72" opacity=".5">
            <path d="M68.099 92.544L9.547 126.147m68.317-27.99l-58.552 33.604m68.317-28.029l-58.552 33.603m68.317-27.99L38.842 142.95m68.278-27.99l-58.552 33.603M48.537 92.622l58.27 33.533m-67.95-27.93l58.272 33.532m-67.99-27.97L87.41 137.32m-67.989-27.931l58.27 33.533M9.704 114.99l58.27 33.533M115.872 119.518l-57.15-32.646L1.53 119.518a1.02 1.02 0 0 0 0 1.79l55.814 31.868a2.881 2.881 0 0 0 2.753 0l55.814-31.868c.629-.39.629-1.362-.04-1.79z"/>
        </g>
        <g fill-rule="nonzero">
            <path fill="#FFF" d="M116.459 99.556L59.084 132.74 1.72 99.556 59.084 66.37z"/>
            <path fill="url(#a)" d="M115.379 99.556l-57.69-33.181V0l57.69 33.18v66.376z" transform="translate(1.721)"/>
            <path fill="url(#b)" d="M57.69 66.375L0 99.555V33.182L57.69 0z" transform="translate(1.721)"/>
            <path fill="url(#c)" d="M114.738 95.38v4.176L57.362 132.74 0 99.556V95.38l57.362-29.01 57.376 29.01z" transform="translate(1.721)"/>
            <g transform="translate(1.721)">
                <use fill="#0169FE" xlink:href="#d"/>
                <use fill="url(#e)" xlink:href="#d"/>
            </g>
        </g>
        <g fill-rule="nonzero">
            <path fill="#999" d="M67.726 78.285v-3.283l-20.2 11.694v3.283z"/>
            <g opacity=".6">
                <path fill="url(#f)" d="M.108 19.296l2.736 1.54v53.466L.108 72.72z" transform="translate(32 25)"/>
                <path fill="url(#g)" d="M35.684 45.728V1.825L2.844 20.836V64.74z" transform="translate(32 25)"/>
                <path fill="url(#h)" d="M35.684 1.825L32.948.242.108 19.296l2.736 1.54z" transform="translate(32 25)"/>
                <path fill="#97CAFF" d="M67.684 80.292v-9.564l-32.84 19.01v9.564z"/>
                <path fill="#97CAFF" d="M34.844 99.302V89.74l-2.736-1.584v9.564z"/>
                <path fill="#CCC" d="M38.061 93.23l.857-1.64-1.713.991z"/>
            </g>
            <path fill="#999" d="M75.83 82.965v-3.283l-20.2 11.694v3.283z"/>
            <g opacity=".8">
                <path fill="url(#f)" d="M.123 19.342l2.736 1.54v53.466L.123 72.764z" transform="translate(42.089 29.634)"/>
                <path fill="url(#g)" d="M35.699 45.774V1.87l-32.84 19.01v43.903z" transform="translate(42.089 29.634)"/>
                <path fill="url(#h)" d="M35.699 1.871L32.963.287.123 19.342l2.736 1.54z" transform="translate(42.089 29.634)"/>
                <path fill="#97CAFF" d="M77.787 84.972v-9.564l-32.84 19.01v9.565z"/>
                <path fill="#97CAFF" d="M44.948 103.982v-9.564l-2.736-1.583v9.564z"/>
                <path fill="#CCC" d="M48.165 97.91l.857-1.64-1.713.991z"/>
            </g>
            <path fill="url(#f)" d="M21.316 29.657l2.736 1.539v53.466l-2.736-1.583z" transform="translate(32 25)"/>
            <path fill="url(#g)" d="M56.892 56.088V12.185l-32.84 19.011v43.902z" transform="translate(32 25)"/>
            <path fill="url(#h)" d="M56.892 12.185l-2.736-1.583-32.84 19.055 2.736 1.539z" transform="translate(32 25)"/>
            <path fill="#97CAFF" d="M88.892 81.088L56.052 100.1v9.563l32.84-19.01zM56.052 109.662v-9.564l-2.736-1.583v9.564z"/>
            <path fill="#FFF" d="M86.934 88.645v-3.283L66.733 97.056v3.283zM59.27 103.59l.856-1.64-1.713.991zM82.056 65.112a.912.912 0 0 1-.3.624l-2.02 1.53c-.113.468-.252.93-.418 1.381.364.378.757.728 1.174 1.046a.342.342 0 0 1 .09.247.68.68 0 0 1-.09.338c-.261.556-1.722 3.232-2.1 3.45a.386.386 0 0 1-.274.054l-1.5-.482c-.312.37-.647.72-1.003 1.047-.05.838-.15 1.672-.3 2.499-.05.239-.19.45-.391.586l-2.426 1.404c-.182.106-.365.046-.39-.149l-.3-2.121c-.322.07-.65.103-.979.1l-1.538 2.227a.739.739 0 0 1-.261.256.31.31 0 0 1-.274.038c-.339-.164-1.878-.878-1.878-1.313a.885.885 0 0 1 .092-.338c.378-.79.769-1.57 1.147-2.375a4.68 4.68 0 0 1-.456-.966l-1.982.788c-.183.075-.313-.044-.313-.254v-2.776a.912.912 0 0 1 .3-.623l2.02-1.53c.113-.469.252-.93.418-1.382a10.354 10.354 0 0 0-1.173-1.046.37.37 0 0 1-.092-.247.778.778 0 0 1 .092-.353c.26-.556 1.72-3.217 2.099-3.436a.386.386 0 0 1 .274-.053l1.5.482c.316-.37.65-.725 1.003-1.062a21.27 21.27 0 0 1 .3-2.483c.05-.24.19-.45.391-.587l2.426-1.404c.182-.106.365-.046.391.149l.3 2.121c.321-.069.65-.103.978-.1l1.539-2.227a.783.783 0 0 1 .26-.256.31.31 0 0 1 .274-.038c.34.164 1.878.893 1.878 1.313a.885.885 0 0 1-.092.338c-.378.804-.769 1.57-1.134 2.367.178.31.326.636.443.974l1.982-.802c.183-.061.313.058.313.268v2.776zm-8.345-.42a7.397 7.397 0 0 0-3.338 5.773c0 2.115 1.5 2.972 3.338 1.908A7.397 7.397 0 0 0 77.05 66.6c0-2.115-1.5-2.972-3.338-1.908z"/>
        </g>
    </g>
</svg>
