<svg xmlns="http://www.w3.org/2000/svg" xmlns:xlink="http://www.w3.org/1999/xlink" width="118" height="168" viewBox="0 0 118 168">
    <defs>
        <linearGradient id="a" x1="50%" x2="50%" y1="95.821%" y2="10.378%">
            <stop offset="0%" stop-color="#F6F9FC"/>
            <stop offset="100%" stop-color="#FFF"/>
        </linearGradient>
        <linearGradient id="b" x1="171.445%" x2="-45.933%" y1="100%" y2="-10.122%">
            <stop offset="0%" stop-color="#F6F9FC"/>
            <stop offset="100%" stop-color="#FFF"/>
        </linearGradient>
        <linearGradient id="c" x1="46419.419%" x2="51901.43%" y1="68803%" y2="75970%">
            <stop offset="0%" stop-color="#2A39DD"/>
            <stop offset="28%" stop-color="#2449E7"/>
            <stop offset="100%" stop-color="#1670FF"/>
        </linearGradient>
        <radialGradient id="e" cx="54.049%" cy="54.43%" r="140.163%" fx="54.049%" fy="54.43%" gradientTransform="scale(-.57845 -1) rotate(-21.73 -3.033 3.842)">
            <stop offset="0%" stop-color="#FFF" stop-opacity=".5"/>
            <stop offset="100%" stop-color="#FFF" stop-opacity="0"/>
        </radialGradient>
        <path id="d" d="M114.738 95.095l-57.376 33.179L0 95.094l57.362-33.19z"/>
        <linearGradient id="f" x1="1389%" x2="5810%" y1="2295.213%" y2="1243.297%">
            <stop offset="0%" stop-color="#5340DB"/>
            <stop offset="100%" stop-color="#E4BCFF"/>
        </linearGradient>
        <linearGradient id="g" x1="2160%" x2="3994%" y1="5692%" y2="5692%">
            <stop offset="0%" stop-color="#8271FF"/>
            <stop offset="100%" stop-color="#E4BCFF"/>
        </linearGradient>
        <linearGradient id="h" x1="0%" y1="50%" y2="50%">
            <stop offset="0%" stop-color="#C317E6"/>
            <stop offset="100%" stop-color="#17B9E6"/>
        </linearGradient>
        <linearGradient id="i" x1="0%" y1="50%" y2="50%">
            <stop offset="0%" stop-color="#C317E6"/>
            <stop offset="100%" stop-color="#17B9E6"/>
        </linearGradient>
        <linearGradient id="j" x1="2160%" x2="3994%" y1="5692%" y2="5692%">
            <stop offset="0%" stop-color="#8271FF"/>
            <stop offset="100%" stop-color="#DCACFD"/>
        </linearGradient>
        <linearGradient id="l" x1="50%" x2="50%" y1="17.82%" y2="87.955%">
            <stop offset="0%" stop-color="#FFF" stop-opacity=".4"/>
            <stop offset="100%" stop-color="#FFF" stop-opacity="0"/>
        </linearGradient>
        <path id="k" d="M58.766 17.445L32.234 32.778A7.134 7.134 0 0 0 29 38.362V69.71c0 2.051 1.448 2.878 3.234 1.845l9.452-5.462 3.814 2.176 3.814-6.584 9.452-5.463A7.134 7.134 0 0 0 62 50.638V19.29c0-2.051-1.448-2.878-3.234-1.845z"/>
    </defs>
    <g fill="none" fill-rule="evenodd">
        <path fill="#DFE8F0" fill-opacity=".5" d="M115.872 133.646L58.722 101 1.53 133.646a1.02 1.02 0 0 0 0 1.79l55.814 31.868a2.881 2.881 0 0 0 2.753 0l55.814-31.868c.629-.39.629-1.362-.04-1.79z"/>
        <g stroke="#4E87FF" stroke-width=".72" opacity=".5">
            <path d="M68.099 92.673L9.547 126.276m68.317-27.99L19.312 131.89m68.317-28.028l-58.552 33.602m68.317-27.989l-58.552 33.603m68.278-27.99L48.568 148.69M48.537 92.75l58.27 33.533m-67.95-27.93l58.272 33.532m-67.99-27.97l58.271 33.533m-67.989-27.931l58.27 33.533M9.704 115.119l58.27 33.533M115.872 119.646L58.722 87 1.53 119.646a1.02 1.02 0 0 0 0 1.79l55.814 31.868a2.881 2.881 0 0 0 2.753 0l55.814-31.868c.629-.39.629-1.362-.04-1.79z"/>
        </g>
        <g fill-rule="nonzero">
            <path fill="#FFF" d="M116.738 99.556L59.362 132.74 2 99.556 59.362 66.37z"/>
            <path fill="url(#a)" d="M115.379 99.556l-57.69-33.181V0l57.69 33.18v66.376z" transform="translate(2)"/>
            <path fill="url(#b)" d="M57.69 66.375L0 99.555V33.182L57.69 0z" transform="translate(2)"/>
            <path fill="url(#c)" d="M114.738 95.38v4.176L57.362 132.74 0 99.556V95.38l57.362-29.01 57.376 29.01z" transform="translate(2)"/>
            <g transform="translate(2)">
                <use fill="#0169FE" xlink:href="#d"/>
                <use fill="url(#e)" xlink:href="#d"/>
            </g>
            <g opacity=".35">
                <path fill="url(#f)" d="M35.592 2.369L31.917.299c-.583-.344-1.394-.3-2.291.217L3.288 15.686a7.054 7.054 0 0 0-3.21 5.525v31.016c0 1.029.37 1.744.966 2.069.017.01 3.66 2.06 3.675 2.07.582.344 1.393.3 2.29-.218l29.548-51.71c0-1.03-.37-1.745-.965-2.069z" transform="translate(29 30)"/>
                <path fill="url(#g)" d="M33.347 2.612L7.01 17.782a7.054 7.054 0 0 0-3.21 5.525v31.015c0 2.03 1.437 2.848 3.21 1.826l9.383-5.404 3.785 2.153 3.786-6.515 9.383-5.404a7.054 7.054 0 0 0 3.21-5.525V4.438c0-2.03-1.437-2.848-3.21-1.826z" transform="translate(29 30)"/>
                <path fill="url(#h)" d="M15.575 32.031a5.057 5.057 0 0 1-2.301 3.961c-1.271.732-2.302.146-2.302-1.31a5.057 5.057 0 0 1 2.302-3.96c1.27-.732 2.301-.146 2.301 1.31zm4.603-5.286a5.057 5.057 0 0 0-2.301 3.96c0 1.456 1.03 2.042 2.301 1.31a5.057 5.057 0 0 0 2.302-3.96c0-1.456-1.03-2.042-2.302-1.31zm6.905-3.977a5.057 5.057 0 0 0-2.302 3.96c0 1.456 1.03 2.042 2.302 1.31a5.057 5.057 0 0 0 2.301-3.96c0-1.456-1.03-2.042-2.301-1.31z" transform="translate(29 30)"/>
            </g>
            <g opacity=".7">
                <path fill="url(#f)" d="M35.948 2.46L32.273.39c-.583-.344-1.393-.3-2.29.217L3.644 15.778a7.054 7.054 0 0 0-3.21 5.525v31.015c0 1.029.37 1.745.965 2.069l3.675 2.07c.583.344 1.393.3 2.29-.217L36.915 4.53c0-1.03-.37-1.745-.966-2.07z" transform="translate(41 37)"/>
                <path fill="url(#g)" d="M33.703 2.703L7.366 17.873a7.054 7.054 0 0 0-3.21 5.525v31.016c0 2.03 1.437 2.847 3.21 1.826l9.383-5.405 3.786 2.153 3.785-6.514 9.383-5.405a7.054 7.054 0 0 0 3.21-5.525V4.53c0-2.03-1.437-2.847-3.21-1.826z" transform="translate(41 37)"/>
                <path fill="url(#i)" d="M15.932 32.123a5.057 5.057 0 0 1-2.302 3.96c-1.271.733-2.301.146-2.301-1.309a5.057 5.057 0 0 1 2.301-3.96c1.271-.733 2.302-.146 2.302 1.309zm4.603-5.287a5.057 5.057 0 0 0-2.302 3.961c0 1.455 1.03 2.041 2.302 1.31a5.057 5.057 0 0 0 2.301-3.961c0-1.456-1.03-2.042-2.301-1.31zm6.904-3.977a5.057 5.057 0 0 0-2.301 3.96c0 1.456 1.03 2.042 2.301 1.31a5.057 5.057 0 0 0 2.302-3.96c0-1.456-1.03-2.042-2.302-1.31z" transform="translate(41 37)"/>
            </g>
            <path fill="url(#f)" d="M60.047 17.312l-3.627-2.088c-.575-.347-1.375-.303-2.26.219L28.168 30.745A7.147 7.147 0 0 0 25 36.317v31.285c0 1.037.365 1.76.953 2.086.017.01 3.611 2.08 3.627 2.088.575.347 1.375.303 2.26-.219L61 19.398c0-1.037-.365-1.76-.953-2.086z" transform="translate(29 30)"/>
            <g transform="translate(29 30)">
                <use fill="url(#j)" xlink:href="#k"/>
                <use fill="url(#l)" xlink:href="#k"/>
            </g>
            <path fill="#FFF" fill-opacity=".4" d="M69.5 76.68c-.088 1.627-.924 3.114-2.25 4.001-1.243.74-2.25.148-2.25-1.323.088-1.627.924-3.114 2.25-4.002 1.243-.74 2.25-.147 2.25 1.323zm4.5-5.343c-1.326.888-2.162 2.375-2.25 4.003 0 1.47 1.007 2.062 2.25 1.323 1.326-.888 2.162-2.375 2.25-4.003 0-1.47-1.007-2.062-2.25-1.323zm6.75-4.018c-1.326.887-2.162 2.374-2.25 4.002 0 1.47 1.007 2.063 2.25 1.323 1.326-.888 2.162-2.375 2.25-4.002 0-1.47-1.007-2.063-2.25-1.323z"/>
            <path fill="#FFF" d="M72.5 77.68c-.088 1.627-.924 3.114-2.25 4.001-1.243.74-2.25.148-2.25-1.323.088-1.627.924-3.114 2.25-4.002 1.243-.74 2.25-.147 2.25 1.323zm4.5-5.343c-1.326.888-2.162 2.375-2.25 4.003 0 1.47 1.007 2.062 2.25 1.323 1.326-.888 2.162-2.375 2.25-4.003 0-1.47-1.007-2.062-2.25-1.323zm6.75-4.018c-1.326.887-2.162 2.374-2.25 4.002 0 1.47 1.007 2.063 2.25 1.323 1.326-.888 2.162-2.375 2.25-4.002 0-1.47-1.007-2.063-2.25-1.323z"/>
        </g>
    </g>
</svg>
