<?xml version="1.0" encoding="UTF-8"?>
<svg width="117px" height="168px" viewBox="0 0 117 168" version="1.1" xmlns="http://www.w3.org/2000/svg" xmlns:xlink="http://www.w3.org/1999/xlink">
    <!-- Generator: Sketch 51.2 (57519) - http://www.bohemiancoding.com/sketch -->
    <title>Group 23</title>
    <desc>Created with Sketch.</desc>
    <defs>
        <linearGradient x1="92.6907264%" y1="104.86679%" x2="-10.9639105%" y2="-28.3566341%" id="linearGradient-1">
            <stop stop-color="#F6F9FC" offset="0%"></stop>
            <stop stop-color="#FFFFFF" offset="100%"></stop>
        </linearGradient>
        <linearGradient x1="3288%" y1="2111.89074%" x2="619%" y2="132.315664%" id="linearGradient-2">
            <stop stop-color="#F6F9FC" offset="0%"></stop>
            <stop stop-color="#FFFFFF" offset="100%"></stop>
        </linearGradient>
        <linearGradient x1="46419.4191%" y1="68803%" x2="51901.4298%" y2="75970%" id="linearGradient-3">
            <stop stop-color="#2A39DD" offset="0%"></stop>
            <stop stop-color="#2449E7" offset="28%"></stop>
            <stop stop-color="#1670FF" offset="100%"></stop>
        </linearGradient>
        <radialGradient cx="54.0490723%" cy="54.4302446%" fx="54.0490723%" fy="54.4302446%" r="140.058862%" gradientTransform="translate(0.540491,0.544302),scale(0.578951,1.000000),rotate(158.253074),translate(-0.540491,-0.544302)" id="radialGradient-4">
            <stop stop-color="#FFFFFF" stop-opacity="0.5" offset="0%"></stop>
            <stop stop-color="#FFFFFF" stop-opacity="0" offset="100%"></stop>
        </radialGradient>
        <polygon id="path-5" points="114.639061 95.0948839 57.3129836 128.273504 0 95.0948839 57.3129836 61.9031339"></polygon>
        <linearGradient x1="1389%" y1="2295.21264%" x2="5810%" y2="1243.29734%" id="linearGradient-6">
            <stop stop-color="#5340DB" offset="0%"></stop>
            <stop stop-color="#E4BCFF" offset="100%"></stop>
        </linearGradient>
        <linearGradient x1="1389%" y1="2295.21264%" x2="5810%" y2="1243.29734%" id="linearGradient-7">
            <stop stop-color="#4230F6" offset="0%"></stop>
            <stop stop-color="#E4BCFF" offset="100%"></stop>
        </linearGradient>
        <linearGradient x1="15267%" y1="189.117014%" x2="15252%" y2="203.3432%" id="linearGradient-8">
            <stop stop-color="#E4BCFF" offset="0%"></stop>
            <stop stop-color="#8271FF" offset="100%"></stop>
        </linearGradient>
        <linearGradient x1="15114%" y1="40073%" x2="21185%" y2="40073%" id="linearGradient-9">
            <stop stop-color="#E4BCFF" offset="0%"></stop>
            <stop stop-color="#8271FF" offset="100%"></stop>
        </linearGradient>
        <linearGradient x1="17053%" y1="22867.446%" x2="21655%" y2="17971.2791%" id="linearGradient-10">
            <stop stop-color="#00E4FF" offset="0%"></stop>
            <stop stop-color="#00FFFF" stop-opacity="0" offset="100%"></stop>
        </linearGradient>
        <linearGradient x1="15957%" y1="43005%" x2="21917%" y2="43005%" id="linearGradient-11">
            <stop stop-color="#00E4FF" offset="0%"></stop>
            <stop stop-color="#00FFFF" stop-opacity="0" offset="100%"></stop>
        </linearGradient>
        <linearGradient x1="70%" y1="49.6331549%" x2="-445.517241%" y2="59.0918104%" id="linearGradient-12">
            <stop stop-color="#168B9C" stop-opacity="0.5" offset="0%"></stop>
            <stop stop-color="#07A687" offset="100%"></stop>
        </linearGradient>
        <linearGradient x1="20011%" y1="43741%" x2="20390%" y2="43741%" id="linearGradient-13">
            <stop stop-color="#00E4FF" offset="0%"></stop>
            <stop stop-color="#006CC0" offset="100%"></stop>
        </linearGradient>
        <linearGradient x1="3766.93133%" y1="40308%" x2="3725.82148%" y2="40496%" id="linearGradient-14">
            <stop stop-color="#00E4FF" offset="0%"></stop>
            <stop stop-color="#006CC0" offset="100%"></stop>
        </linearGradient>
        <linearGradient x1="19786%" y1="41778%" x2="21529%" y2="41778%" id="linearGradient-15">
            <stop stop-color="#00E4FF" offset="0%"></stop>
            <stop stop-color="#006CC0" offset="100%"></stop>
        </linearGradient>
        <linearGradient x1="18965%" y1="43522%" x2="19417%" y2="43522%" id="linearGradient-16">
            <stop stop-color="#00E4FF" offset="0%"></stop>
            <stop stop-color="#006CC0" offset="100%"></stop>
        </linearGradient>
        <linearGradient x1="21106%" y1="39701%" x2="21688%" y2="39701%" id="linearGradient-17">
            <stop stop-color="#00E4FF" offset="0%"></stop>
            <stop stop-color="#006CC0" offset="100%"></stop>
        </linearGradient>
        <linearGradient x1="18991%" y1="43151%" x2="19417%" y2="43151%" id="linearGradient-18">
            <stop stop-color="#00E4FF" offset="0%"></stop>
            <stop stop-color="#006CC0" offset="100%"></stop>
        </linearGradient>
        <linearGradient x1="20770%" y1="39899%" x2="21392%" y2="39899%" id="linearGradient-19">
            <stop stop-color="#00E4FF" offset="0%"></stop>
            <stop stop-color="#006CC0" offset="100%"></stop>
        </linearGradient>
        <linearGradient x1="18989%" y1="41883%" x2="19412%" y2="41883%" id="linearGradient-20">
            <stop stop-color="#00E4FF" offset="0%"></stop>
            <stop stop-color="#006CC0" offset="100%"></stop>
        </linearGradient>
        <linearGradient x1="19667%" y1="40537%" x2="20289%" y2="40537%" id="linearGradient-21">
            <stop stop-color="#00E4FF" offset="0%"></stop>
            <stop stop-color="#006CC0" offset="100%"></stop>
        </linearGradient>
        <linearGradient x1="18661%" y1="42263%" x2="19275%" y2="42263%" id="linearGradient-22">
            <stop stop-color="#00E4FF" offset="0%"></stop>
            <stop stop-color="#006CC0" offset="100%"></stop>
        </linearGradient>
        <linearGradient x1="18636%" y1="42745%" x2="18949%" y2="42745%" id="linearGradient-23">
            <stop stop-color="#00E4FF" offset="0%"></stop>
            <stop stop-color="#006CC0" offset="100%"></stop>
        </linearGradient>
        <linearGradient x1="20003%" y1="40145%" x2="20379%" y2="40145%" id="linearGradient-24">
            <stop stop-color="#00E4FF" offset="0%"></stop>
            <stop stop-color="#006CC0" offset="100%"></stop>
        </linearGradient>
        <linearGradient x1="20093%" y1="39762%" x2="20964%" y2="39762%" id="linearGradient-25">
            <stop stop-color="#00E4FF" offset="0%"></stop>
            <stop stop-color="#006CC0" offset="100%"></stop>
        </linearGradient>
        <linearGradient x1="18958%" y1="41528%" x2="19412%" y2="41528%" id="linearGradient-26">
            <stop stop-color="#00E4FF" offset="0%"></stop>
            <stop stop-color="#006CC0" offset="100%"></stop>
        </linearGradient>
        <linearGradient x1="19371%" y1="40703%" x2="19953%" y2="40703%" id="linearGradient-27">
            <stop stop-color="#00E4FF" offset="0%"></stop>
            <stop stop-color="#006CC0" offset="100%"></stop>
        </linearGradient>
        <linearGradient x1="22866%" y1="24559.6041%" x2="19342%" y2="26866.3247%" id="linearGradient-28">
            <stop stop-color="#00E4FF" offset="0%"></stop>
            <stop stop-color="#006CC0" offset="100%"></stop>
        </linearGradient>
        <linearGradient x1="18958%" y1="41049%" x2="19657%" y2="41049%" id="linearGradient-29">
            <stop stop-color="#00E4FF" offset="0%"></stop>
            <stop stop-color="#006CC0" offset="100%"></stop>
        </linearGradient>
        <linearGradient x1="17245%" y1="45911%" x2="17557%" y2="45911%" id="linearGradient-30">
            <stop stop-color="#8271FF" offset="0%"></stop>
            <stop stop-color="#E4BCFF" offset="100%"></stop>
        </linearGradient>
        <linearGradient x1="18713%" y1="43199%" x2="19220%" y2="43199%" id="linearGradient-31">
            <stop stop-color="#E4BCFF" offset="0%"></stop>
            <stop stop-color="#8271FF" offset="100%"></stop>
        </linearGradient>
        <linearGradient x1="17058%" y1="45125%" x2="17795%" y2="45125%" id="linearGradient-32">
            <stop stop-color="#8271FF" offset="0%"></stop>
            <stop stop-color="#E4BCFF" offset="100%"></stop>
        </linearGradient>
        <linearGradient x1="17559%" y1="44242%" x2="18498%" y2="44242%" id="linearGradient-33">
            <stop stop-color="#E4BCFF" offset="0%"></stop>
            <stop stop-color="#8271FF" offset="100%"></stop>
        </linearGradient>
        <linearGradient x1="16380%" y1="45970%" x2="16769%" y2="45970%" id="linearGradient-34">
            <stop stop-color="#8271FF" offset="0%"></stop>
            <stop stop-color="#E4BCFF" offset="100%"></stop>
        </linearGradient>
        <linearGradient x1="0%" y1="49.7652582%" x2="100%" y2="49.7652582%" id="linearGradient-35">
            <stop stop-color="#8271FF" offset="0%"></stop>
            <stop stop-color="#E4BCFF" offset="100%"></stop>
        </linearGradient>
        <linearGradient x1="18393%" y1="42430%" x2="18661%" y2="42430%" id="linearGradient-36">
            <stop stop-color="#8271FF" offset="0%"></stop>
            <stop stop-color="#E4BCFF" offset="100%"></stop>
        </linearGradient>
        <linearGradient x1="18425%" y1="42447%" x2="18739%" y2="42447%" id="linearGradient-37">
            <stop stop-color="#8271FF" offset="0%"></stop>
            <stop stop-color="#E4BCFF" offset="100%"></stop>
        </linearGradient>
        <linearGradient x1="18503%" y1="42479%" x2="18811%" y2="42479%" id="linearGradient-38">
            <stop stop-color="#8271FF" offset="0%"></stop>
            <stop stop-color="#E4BCFF" offset="100%"></stop>
        </linearGradient>
        <linearGradient x1="18575%" y1="42499%" x2="18819%" y2="42499%" id="linearGradient-39">
            <stop stop-color="#8271FF" offset="0%"></stop>
            <stop stop-color="#E4BCFF" offset="100%"></stop>
        </linearGradient>
        <linearGradient x1="16380%" y1="45730%" x2="16753%" y2="45730%" id="linearGradient-40">
            <stop stop-color="#E4BCFF" offset="0%"></stop>
            <stop stop-color="#8271FF" offset="100%"></stop>
        </linearGradient>
        <linearGradient x1="18149%" y1="42575%" x2="18629%" y2="42575%" id="linearGradient-41">
            <stop stop-color="#8271FF" offset="0%"></stop>
            <stop stop-color="#E4BCFF" offset="100%"></stop>
        </linearGradient>
        <linearGradient x1="16402%" y1="45423%" x2="16753%" y2="45423%" id="linearGradient-42">
            <stop stop-color="#8271FF" offset="0%"></stop>
            <stop stop-color="#E4BCFF" offset="100%"></stop>
        </linearGradient>
        <linearGradient x1="17871%" y1="42739%" x2="18385%" y2="42739%" id="linearGradient-43">
            <stop stop-color="#E4BCFF" offset="0%"></stop>
            <stop stop-color="#8271FF" offset="100%"></stop>
        </linearGradient>
        <linearGradient x1="16400%" y1="44377%" x2="16750%" y2="44377%" id="linearGradient-44">
            <stop stop-color="#8271FF" offset="0%"></stop>
            <stop stop-color="#E4BCFF" offset="100%"></stop>
        </linearGradient>
        <linearGradient x1="16960%" y1="43265%" x2="17474%" y2="43265%" id="linearGradient-45">
            <stop stop-color="#8271FF" offset="0%"></stop>
            <stop stop-color="#E4BCFF" offset="100%"></stop>
        </linearGradient>
        <linearGradient x1="16129%" y1="44691%" x2="16636%" y2="44691%" id="linearGradient-46">
            <stop stop-color="#8271FF" offset="0%"></stop>
            <stop stop-color="#E4BCFF" offset="100%"></stop>
        </linearGradient>
        <linearGradient x1="1.10161664e-12%" y1="49.8550725%" x2="100%" y2="49.8550725%" id="linearGradient-47">
            <stop stop-color="#E4BCFF" offset="0%"></stop>
            <stop stop-color="#8271FF" offset="100%"></stop>
        </linearGradient>
        <linearGradient x1="1.10161664e-12%" y1="49.7109827%" x2="100%" y2="49.7109827%" id="linearGradient-48">
            <stop stop-color="#E4BCFF" offset="0%"></stop>
            <stop stop-color="#8271FF" offset="100%"></stop>
        </linearGradient>
        <linearGradient x1="17237%" y1="42942%" x2="17548%" y2="42942%" id="linearGradient-49">
            <stop stop-color="#8271FF" offset="0%"></stop>
            <stop stop-color="#E4BCFF" offset="100%"></stop>
        </linearGradient>
        <linearGradient x1="17312%" y1="42625%" x2="18031%" y2="42625%" id="linearGradient-50">
            <stop stop-color="#8271FF" offset="0%"></stop>
            <stop stop-color="#E4BCFF" offset="100%"></stop>
        </linearGradient>
        <linearGradient x1="16375%" y1="44084%" x2="16750%" y2="44084%" id="linearGradient-51">
            <stop stop-color="#E4BCFF" offset="0%"></stop>
            <stop stop-color="#8271FF" offset="100%"></stop>
        </linearGradient>
        <linearGradient x1="16715%" y1="43402%" x2="17196%" y2="43402%" id="linearGradient-52">
            <stop stop-color="#E4BCFF" offset="0%"></stop>
            <stop stop-color="#8271FF" offset="100%"></stop>
        </linearGradient>
        <linearGradient x1="16345%" y1="44334%" x2="19243%" y2="44334%" id="linearGradient-53">
            <stop stop-color="#E4BCFF" offset="0%"></stop>
            <stop stop-color="#8271FF" offset="100%"></stop>
        </linearGradient>
        <linearGradient x1="16375%" y1="43688%" x2="16951%" y2="43688%" id="linearGradient-54">
            <stop stop-color="#8271FF" offset="0%"></stop>
            <stop stop-color="#E4BCFF" offset="100%"></stop>
        </linearGradient>
    </defs>
    <g id="Page-1" stroke="none" stroke-width="1" fill="none" fill-rule="evenodd">
        <g id="形式化验证" transform="translate(-1387.000000, -1937.000000)">
            <g id="Group-4" transform="translate(360.000000, 1811.000000)">
                <g id="Group-23" transform="translate(1027.000000, 126.000000)">
                    <path d="M115.493911,133.876834 L58.3921232,101.230769 L1.25103656,133.876834 C0.54365034,134.265941 0.54365034,135.277619 1.25103656,135.666726 L57.01665,167.534577 C57.8812332,168.001506 58.9030133,168.001506 59.7675964,167.534577 L115.53321,135.666726 C116.161998,135.277619 116.161998,134.304852 115.493911,133.876834 Z" id="Shape" fill="#DFE8F0" opacity="0.5"></path>
                    <g id="Group" opacity="0.5" transform="translate(0.720497, 86.871795)" stroke="#4E87FF" stroke-width="0.72">
                        <path d="M67.040733,5.67268123 L8.53922245,39.275521 M76.7975154,11.2861487 L18.2960049,44.8889885 M86.5542978,16.8606337 L28.0527873,50.4634735 M96.3110802,22.4741011 L37.8095697,56.0769409 M106.028679,28.0875686 L47.5271682,61.6904084" id="Shape"></path>
                        <g transform="translate(8.539222, 5.672681)" id="Shape">
                            <path d="M38.9567867,0.0778023988 L97.1774901,33.6106363 M29.2858327,5.67957511 L87.506536,39.212409 M19.5758828,11.2424466 L77.7965862,44.7752805 M9.86593298,16.8442193 L68.0866363,50.3770532 M0.15598313,22.4459921 L58.3766865,55.9788259"></path>
                        </g>
                        <path d="M114.773414,32.6460652 L57.6716263,0 L0.530539663,32.6460652 C-0.176846554,33.0351721 -0.176846554,34.0468499 0.530539663,34.4359568 L56.2961531,66.3038083 C57.1607363,66.7707365 58.1825164,66.7707365 59.0470996,66.3038083 L114.812713,34.4359568 C115.441501,34.0468499 115.441501,33.0740828 114.773414,32.6460652 Z" id="Shape"></path>
                    </g>
                    <g id="icon-ondemand" fill-rule="nonzero">
                        <polygon id="Shape" fill="#FFFFFF" points="114.639061 99.5555556 57.3129836 132.740741 0 99.5555556 57.3129836 66.3703704"></polygon>
                        <polygon id="Shape" fill="url(#linearGradient-1)" points="115.279503 99.5555556 57.6397516 66.3747472 57.6397516 0 115.279503 33.1808083 115.279503 99.5555556"></polygon>
                        <polygon id="Shape" fill="url(#linearGradient-2)" points="57.6397516 66.3747472 0 99.5555556 0 33.1808083 57.6397516 0"></polygon>
                        <polygon id="Shape" fill="url(#linearGradient-3)" points="114.639061 95.3795014 114.639061 99.5555556 57.3129836 132.740741 0 99.5555556 0 95.3795014 57.3129836 66.3703704 114.639061 95.3795014"></polygon>
                        <g id="Shape">
                            <use fill="#0169FE" xlink:href="#path-5"></use>
                            <use fill="url(#radialGradient-4)" xlink:href="#path-5"></use>
                        </g>
                        <g id="Group-2" transform="translate(25.617667, 20.102564)">
                            <g id="Group" opacity="0.71">
                                <path d="M56.7143133,2.95314405 C56.7143133,1.40670269 55.6294877,0.782536595 54.2964394,1.55575728 L4.44043011,30.7425091 C3.02037338,31.679194 2.12841768,33.2479248 2.04094303,34.9626172 L2.16045771,79.2877257 C2.16045771,80.8341671 3.24528329,81.4583332 4.57833166,80.6851125 L54.4343409,51.5169925 C55.8543976,50.5803076 56.7463533,49.0115767 56.833828,47.2968844 L56.7143133,2.95314405 Z" id="Shape" fill="url(#linearGradient-6)"></path>
                                <path d="M56.7143133,2.95314405 C56.7143133,1.40670269 55.6294877,0.782536595 54.2964394,1.55575728 L4.44043011,30.7425091 C3.02037338,31.679194 2.12841768,33.2479248 2.04094303,34.9626172 L2.16045771,79.2877257 C2.16045771,80.8341671 3.24528329,81.4583332 4.57833166,80.6851125 L54.4343409,51.5169925 C55.8543976,50.5803076 56.7463533,49.0115767 56.833828,47.2968844 L56.7143133,2.95314405 Z" id="Shape" fill="url(#linearGradient-7)"></path>
                                <path d="M2.09610365,79.1852507 L1.97658897,34.8601421 L0.137901556,33.7701804 L0.266609675,78.095289 C0.206131371,78.7061243 0.472639131,79.303095 0.965310893,79.6603622 L2.80399831,80.7503239 C2.3078531,80.3952546 2.03766147,79.7978921 2.09610365,79.1852507 Z" id="Shape" fill="url(#linearGradient-8)"></path>
                                <path d="M54.0941838,0.204950061 C53.5336689,-0.0600894593 52.8753439,0.00412290663 52.375011,0.372636474 L53.7356397,1.17380489 L52.375011,0.372636474 L2.5281952,29.5407565 C1.10813847,30.4774414 0.216182772,32.0461722 0.128708119,33.7608645 L1.96739553,34.8508262 C2.05487019,33.1361339 2.94682589,31.567403 4.36688261,30.6307181 L54.2412787,1.46259816 C54.7416117,1.09408459 55.3999366,1.02987223 55.9604515,1.29491175 L54.0941838,0.204950061 Z" id="Shape" fill="url(#linearGradient-9)"></path>
                            </g>
                            <g id="Group" transform="translate(5.123533, 3.190883)">
                                <g opacity="0.33" style="mix-blend-mode: hard-light;" transform="translate(1.850165, 1.196447)" id="Shape">
                                    <path d="M55.5049459,1.95557744 C55.5049459,0.402343683 54.4133487,-0.224563916 53.0719791,0.55205296 L2.94176213,29.8482872 C1.51284114,30.7890862 0.615317673,32.3647074 0.527296986,34.0869311 L0.647557703,78.5973706 C0.647557703,80.1506044 1.73915497,80.777512 3.0805245,80.0008951 L53.2477448,50.7046609 C54.6766658,49.7638618 55.5741893,48.1882407 55.66221,46.466017 L55.5049459,1.95557744 Z" fill="url(#linearGradient-10)"></path>
                                    <path d="M55.5049459,1.95557744 C55.5049459,0.402343683 54.4133487,-0.224563916 53.0719791,0.55205296 L2.94176213,29.8482872 C1.51284114,30.7890862 0.615317673,32.3647074 0.527296986,34.0869311 L0.647557703,78.5973706 C0.647557703,80.1506044 1.73915497,80.777512 3.0805245,80.0008951 L53.2477448,50.7046609 C54.6766658,49.7638618 55.5741893,48.1882407 55.66221,46.466017 L55.5049459,1.95557744 Z" fill="url(#linearGradient-11)"></path>
                                </g>
                                <path d="M2.4329668,79.7096063 L2.31270608,35.1898099 L0.462541216,34.0950608 L0.592052757,78.6148572 C0.531196935,79.2283755 0.799368289,79.8279682 1.29511541,80.1868046 L3.14528027,81.2815537 C2.64603802,80.9249248 2.37415981,80.3249386 2.4329668,79.7096063 Z" id="Shape" fill="url(#linearGradient-12)"></path>
                                <path d="M54.7556292,0.401116558 C54.1916154,0.134912913 53.5291811,0.199407317 53.025725,0.569539495 L54.394847,1.37422686 L53.025725,0.569539495 L2.86775554,29.8657737 C1.43883454,30.8065728 0.541311079,32.3821939 0.453290392,34.1044176 L2.30345526,35.1991667 C2.39147594,33.476943 3.28899941,31.9013219 4.7179204,30.9605228 L54.8758899,1.66428859 C55.379346,1.29415641 56.0417803,1.229662 56.605794,1.49586565 L54.7556292,0.401116558 Z" id="Shape" fill="url(#linearGradient-12)"></path>
                            </g>
                            <g id="Group" transform="translate(32.662526, 11.487179)">
                                <polygon id="Shape" fill="url(#linearGradient-13)" points="15.6162735 39.9399454 12.9844207 38.3846954 13.8402329 41.4108747 16.4720857 42.9661247"></polygon>
                                <polygon id="Shape" fill="url(#linearGradient-14)" points="31.9871341 11.0741298 29.3552813 9.5188798 32.37363 8.72251682 35.0054828 10.2871358 31.9871341 11.0741298"></polygon>
                                <path d="M24.6621172,13.0416148 L22.0302644,11.4863648 C23.4382136,12.3202037 24.3216328,14.1003091 24.3216328,16.6299327 C24.3179863,17.0966975 24.2872585,17.5628353 24.2296099,18.0259102 L24.2296099,18.3631933 C24.2296099,18.3631933 24.165194,18.7847972 24.1191825,19.0002837 C24.0731711,19.2157701 24.0639688,19.2907219 24.036362,19.4406256 C24.0087551,19.5905292 23.971946,19.7123259 23.9351369,19.8528605 C23.8983278,19.9933952 23.8431141,20.2276196 23.7879004,20.4243681 L23.6866753,20.7522822 C23.6191919,20.9646457 23.548641,21.1770092 23.4750228,21.3893726 L23.3829999,21.6517039 C23.2725725,21.9421422 23.1621452,22.2419494 23.0333132,22.5323877 L22.9873018,22.6354464 C22.8768744,22.8915318 22.7572447,23.1476171 22.6284128,23.4037025 L22.5087831,23.6472959 C22.386086,23.8846433 22.2603215,24.1219907 22.1314895,24.3593381 L22.048669,24.5092417 C21.8922302,24.790311 21.7265891,25.0620113 21.5517457,25.3243426 L21.3953069,25.558567 L21.008811,26.1300746 L20.7879563,26.4392508 L20.4382695,26.8983306 L20.1253919,27.2824586 L19.8217166,27.6291107 L19.2971865,28.2006183 L18.9659043,28.5379014 L18.7082404,28.7814948 L18.2573286,29.1843608 L17.9904624,29.4092162 L17.4935391,29.7839753 L17.2542798,29.9619858 C17.0058181,30.1306274 16.7573565,30.299269 16.5088949,30.4491726 C16.190378,30.633919 15.861612,30.7997156 15.5242506,30.9457283 L15.2205753,31.067525 L14.6684384,31.2642735 L14.3187516,31.3673322 L13.9966717,31.4329151 L13.582569,31.4984979 L12.7267568,31.4984979 C12.5320804,31.4867369 12.3383979,31.4616968 12.147013,31.4235461 L12.0089787,31.4235461 L11.5764714,31.2923804 L11.4476395,31.2455356 C11.2698087,31.1746478 11.0975352,31.0900828 10.9323117,30.9925732 L13.5641645,32.5478232 C13.6921693,32.6212317 13.8242959,32.6869275 13.9598626,32.7445717 L14.0334809,32.7445717 L14.1715151,32.7914166 L14.3739653,32.8663684 L14.5948201,32.9225823 L14.8064726,32.9225823 L15.2849913,32.9787961 L16.5825131,32.9787961 L16.904593,32.9132133 L17.0794364,32.9132133 L17.2542798,32.8476305 L17.8064167,32.650882 L17.9996647,32.5852991 L18.110092,32.5290853 C18.4474621,32.3830917 18.7762291,32.2172946 19.0947363,32.0325296 C19.3431979,31.8826259 19.5916595,31.7233533 19.8401212,31.5453428 L20.0701782,31.3767012 L20.5671015,30.9925732 L20.8339677,30.7677178 L21.2848795,30.3648518 L21.5425434,30.1212584 L21.6989822,29.9713548 L21.8738256,29.7839753 L22.3983557,29.2124677 L22.5639968,29.0344572 L22.702031,28.8658156 L23.0149086,28.4816876 L23.2081566,28.2474632 L23.3645954,28.0226077 L23.5854502,27.7228005 L23.7326867,27.516683 L23.971946,27.151293 L24.1283848,26.9170686 L24.1928008,26.8233788 C24.3339025,26.5985234 24.4688693,26.3736679 24.5977012,26.1488125 L24.5977012,26.1019676 L24.6713195,25.961433 L24.9381857,25.4742462 L25.0486131,25.2400218 L25.1682427,24.9964284 L25.2694679,24.790311 C25.3614907,24.6029314 25.4443112,24.4155519 25.5271318,24.2281724 L25.5271318,24.1251137 C25.6314243,23.8877663 25.7265146,23.6472959 25.8124025,23.4037025 L25.8584139,23.2725368 L25.9504368,23.0102055 L26.0792687,22.6541844 L26.1620893,22.3731151 L26.2633144,22.0452009 L26.3277304,21.8390835 C26.3277304,21.7172868 26.382944,21.5954901 26.4197532,21.4736934 C26.4565623,21.3518967 26.4841692,21.2019931 26.5209783,21.0614584 L26.5209783,20.9209238 C26.5209783,20.8178651 26.5209783,20.7241753 26.5669897,20.6304855 C26.6130011,20.5367958 26.640608,20.2088816 26.6774171,19.9933952 L26.6774171,19.656112 C26.7350657,19.1930372 26.7657935,18.7268994 26.7694399,18.2601346 C26.9442833,15.6555592 26.0700664,13.8754537 24.6621172,13.0416148 Z" id="Shape" fill="url(#linearGradient-15)"></path>
                                <path d="M6.8004868,42.1603928 C6.51464652,41.9323346 6.24410907,41.6850663 5.99068593,41.4202437 L3.35883313,39.8649936 C3.86287385,40.3946697 4.4356471,40.8517322 5.0612554,41.2234952 L7.6931082,42.7787452 C7.38190285,42.5938559 7.08364873,42.3872441 6.8004868,42.1603928 Z" id="Shape" fill="#21587F"></path>
                                <path d="M29.5669338,2.27666121 C29.8995311,2.41287377 30.2223941,2.57253361 30.5331735,2.754479 L27.9013207,1.19922895 L27.8092978,1.14301509 C27.5473097,0.992767134 27.2769144,0.858248777 26.999497,0.740149118 L26.9258787,0.740149118 L26.6866194,0.655828332 C26.511776,0.590245499 26.3277304,0.51529369 26.1436847,0.459079833 L25.7755934,0.356021095 L28.4074462,1.91127114 C28.7196435,1.98916632 29.0269438,2.08615505 29.3276745,2.2017094 L29.5669338,2.27666121 Z" id="Shape" fill="#276998"></path>
                                <polygon id="Shape" fill="url(#linearGradient-16)" points="4.88641203 35.798858 3.35883313 39.8837316 5.98148365 41.4483506 7.51826484 37.354108 4.88641203 35.798858"></polygon>
                                <polygon id="Shape" fill="url(#linearGradient-17)" points="25.6927729 5.30284052 23.06092 3.74759047 25.7847957 0.346652119 28.4166485 1.90190216"></polygon>
                                <path d="M6.22994528,34.4872013 L3.59809247,32.9319513 C3.8670468,33.9542106 4.30252953,34.9232934 4.88641203,35.798858 L7.51826484,37.354108 C6.93438234,36.4785435 6.4988996,35.5094606 6.22994528,34.4872013 Z" id="Shape" fill="url(#linearGradient-18)"></path>
                                <path d="M23.9259346,5.36842335 L24.5608921,5.30284052 L25.7755934,5.30284052 L23.06092,3.74759047 L21.9106347,3.74759047 L21.2756772,3.8131733 L20.9812042,3.8131733 C20.6591243,3.86938716 20.3278421,3.93496999 19.9873577,4.02865976 L22.6192105,5.5839098 C22.9596949,5.49022004 23.2909771,5.42463721 23.613057,5.36842335 L23.9259346,5.36842335 Z" id="Shape" fill="url(#linearGradient-19)"></path>
                                <path d="M6.82809365,23.7971995 C7.02134158,23.1507401 7.23299408,22.5042808 7.47225342,21.8578214 L4.84040062,20.3025714 C4.68702924,20.7085603 4.54286015,21.1176723 4.40789334,21.5299073 C4.33427508,21.7641317 4.2698591,22.007725 4.19624084,22.2419494 L4.08581345,22.6260775 L4.00299291,22.8977778 C3.86189124,23.4161945 3.73612671,23.9377341 3.62569932,24.4623968 L3.62569932,24.6778833 L6.25755213,26.2331333 C6.39558637,25.558567 6.56122745,24.8746318 6.75447539,24.1906965 L6.82809365,23.7971995 Z" id="Shape" fill="url(#linearGradient-20)"></path>
                                <path d="M14.2359311,11.0553919 C14.6592361,10.61505 15.0917434,10.1747081 15.5426552,9.77184215 L12.8831956,8.21659211 C12.5519134,8.51639935 12.2236986,8.82869855 11.8985513,9.15348973 L11.5764714,9.50951082 C11.3556167,9.74373522 11.1347619,9.97795963 10.9231094,10.221553 C10.7114569,10.4651464 10.6194341,10.5307292 10.4813998,10.6993708 C10.3433656,10.8680124 10.0212857,11.2521404 9.80043091,11.5332097 L12.4322837,13.0884597 C12.7911727,12.6293799 13.1776686,12.207776 13.5549622,11.7768031 C13.8034238,11.5332097 14.0150763,11.2896163 14.2359311,11.0553919 Z" id="Shape" fill="url(#linearGradient-21)"></path>
                                <polygon id="Shape" fill="url(#linearGradient-22)" points="3.57968791 24.6591453 0.561339235 27.4229933 3.19319204 28.9782433 6.21154072 26.2237643"></polygon>
                                <path d="M2.96313498,32.266754 C2.96313498,31.7327223 2.96313498,31.1986907 3.02755096,30.6552901 C3.02755096,30.4585416 3.02755096,30.2524241 3.09196693,30.0556756 C3.09196693,29.6902855 3.15638291,29.3342644 3.20239432,28.9688743 L0.570541518,27.4136243 L0.570541518,27.5073141 C0.570541518,27.8445972 0.496923257,28.1818803 0.46931641,28.5191635 C0.46931641,28.706543 0.46931641,28.9032915 0.414102714,29.090671 C0.414102714,29.6340716 0.349686737,30.1681033 0.349686737,30.7021349 C0.353440827,31.7066574 0.436529146,32.709246 0.598148365,33.7002073 L3.23000117,35.2554574 C3.0627049,34.2680893 2.97346336,33.2686503 2.96313498,32.266754 Z" id="Shape" fill="url(#linearGradient-23)"></path>
                                <polygon id="Shape" fill="url(#linearGradient-24)" points="13.7390078 4.18793235 12.9108024 8.21659211 15.5426552 9.77184215 16.3708606 5.75255137"></polygon>
                                <path d="M20.7235403,3.03554828 C21.0640247,2.87627569 21.4137115,2.72637207 21.7541959,2.58583742 L19.1223431,1.03058738 L18.6438244,1.22733588 L18.0916875,1.48029824 L17.6959893,1.66767776 C17.2818866,1.87379524 16.8585816,2.08928169 16.4352766,2.33287507 C15.5020525,2.89976216 14.6046079,3.52558497 13.7482101,4.2066703 L16.3800629,5.76192035 C17.2364607,5.08083502 18.1339053,4.45501221 19.0671294,3.88812511 C19.4904344,3.64453173 19.9137394,3.4196763 20.3278421,3.22292781 L20.7235403,3.03554828 Z" id="Shape" fill="url(#linearGradient-25)"></path>
                                <polygon id="Shape" fill="url(#linearGradient-26)" points="5.92626996 19.5717912 3.29441715 18.0165412 4.84040062 20.3025714 7.47225342 21.8578214"></polygon>
                                <polygon id="Shape" fill="url(#linearGradient-27)" points="9.82803775 11.5238407 7.09495984 11.3270922 9.71761036 12.8917112 12.4506883 13.0790907"></polygon>
                                <path d="M35.0238874,16.5830878 L32.0055387,19.3375668 C31.7036506,20.825628 31.28199,22.2858706 30.744826,23.7035097 L32.2908094,25.9895399 C31.2407519,28.3350704 29.9711022,30.5721055 28.499469,32.6696199 L25.7387843,32.4728714 C24.8006168,33.6641214 23.7663665,34.7735164 22.6468173,35.789489 L21.8186119,39.8087798 C20.9648076,40.493465 20.0671292,41.1194507 19.1315454,41.682575 C18.2712413,42.1859815 17.3726727,42.6183401 16.4444789,42.9754937 L15.5886666,39.9493144 C14.5823995,40.2288201 13.5375653,40.3364626 12.4966997,40.2678596 L9.73601493,43.668798 C8.2843359,43.3130875 6.96260627,42.5427391 5.92626996,41.4483506 L7.45384886,37.354108 C6.86996636,36.4785435 6.43448363,35.5094606 6.1655293,34.4872013 L3.14718063,35.2741953 C2.98556141,34.283234 2.90247309,33.2806454 2.898719,32.2761229 C2.90288152,31.1728288 2.97973978,30.0710618 3.12877606,28.9782433 L6.14712474,26.2237643 C6.44901278,24.7357032 6.87067346,23.2754605 7.40783745,21.8578214 L5.86185398,19.5717912 C6.90939125,17.2249394 8.17917826,14.9876624 9.65319439,12.8917112 L12.4138791,13.0884597 C13.3531457,11.9010786 14.3873318,10.7948862 15.5058461,9.78121113 L16.3340515,5.76192035 C17.1904493,5.08083502 18.0878939,4.45501221 19.021118,3.88812511 C19.8828797,3.38756379 20.7812245,2.9553129 21.7081845,2.5952064 L22.5547945,5.63075468 C23.5604886,5.34812025 24.6058416,5.24042435 25.6467614,5.31220949 L28.4074462,1.91127114 C29.8621409,2.26073446 31.1876604,3.02817832 32.2263935,4.12234952 L30.6988146,8.21659211 C31.2833559,9.09056539 31.7160253,10.0603144 31.9779318,11.0834988 L34.9686737,10.3058738 C35.1304294,11.299967 35.213517,12.3056797 35.2171353,13.3133151 C35.2237565,14.4063895 35.159199,15.4987086 35.0238874,16.5830878 Z M19.1223431,31.9856847 C23.4566182,29.4373231 26.9626878,23.2537989 26.9534856,18.1851828 C26.9442833,13.1165666 23.4106068,11.0553919 19.0763317,13.5943844 C14.7420566,16.133377 11.235987,22.3169013 11.2451893,27.4042553 C11.2543915,32.4916094 14.788068,34.5340462 19.1223431,31.9856847 Z" id="Shape" fill="url(#linearGradient-28)"></path>
                                <path d="M6.86490278,17.6417821 C7.06735299,17.2389162 7.28820777,16.8360502 7.50906255,16.4425532 L7.71151277,16.0771631 C8.00598581,15.5587464 8.31272856,15.0496987 8.63174102,14.55002 L8.9078095,14.1377851 C9.17467569,13.7255501 9.45074417,13.3039462 9.73601493,12.9010802 L7.10416212,11.3458302 L6.89250962,11.6550064 C6.68085712,11.9641826 6.47840691,12.2733588 6.27595669,12.591904 L6.0090905,13.0041389 L6.0090905,13.0697218 C5.72075231,13.5256786 5.44468384,13.9878814 5.18088507,14.4563302 L5.18088507,14.540651 L4.98763714,14.8966721 C4.81279377,15.2058483 4.6379504,15.5150245 4.4815116,15.8335697 L4.34347736,16.10527 L4.07661117,16.6393017 C3.98458834,16.8360502 3.88336323,17.0234297 3.79134041,17.2201782 L3.41404682,18.0446481 L6.04589963,19.5998982 C6.25755213,19.1314494 6.47840691,18.6630005 6.70846397,18.2039207 L6.86490278,17.6417821 Z" id="Shape" fill="url(#linearGradient-29)"></path>
                            </g>
                            <g id="Group" transform="translate(9.606625, 38.290598)">
                                <polygon id="Shape" fill="url(#linearGradient-30)" points="13.3046595 35.4433487 11.148135 34.1781744 10.453661 31.7124699 12.6101855 32.9776441"></polygon>
                                <polygon id="Shape" fill="url(#linearGradient-31)" points="26.9204733 9.32719702 24.7086534 8.08357075 27.2484975 7.46175762 29.4603175 8.6963721"></polygon>
                                <path d="M15.2698858,26.8200911 L15.4235402,26.7496971 L15.5771945,26.6793032 C15.7670028,26.5913107 15.9658496,26.4945191 16.155658,26.3889282 L14.022574,25.183432 C13.8237272,25.2978221 13.6339188,25.3858145 13.4441105,25.473807 L13.2904562,25.5442009 L12.974109,25.6673903 L12.5221844,25.8169774 L12.2419911,25.8961706 L11.9798749,25.948966 L11.6544892,25.9929623 L10.9675638,25.9929623 C10.8096595,25.9826726 10.6526406,25.9620949 10.4975623,25.9313676 L10.3800619,25.9313676 L10.0275607,25.8345759 L9.91909882,25.8345759 C9.77569956,25.7803317 9.63671397,25.7156199 9.50332821,25.6409926 L11.6364122,26.8464888 L11.9527594,26.9960759 L12.1244908,26.9960759 L12.2871836,27.0488714 L14.0948819,27.0488714 L14.3569982,26.9960759 L14.501614,26.9960759 L14.6462299,26.9520797 L15.0981545,26.8024926 L15.2698858,26.8200911 Z" id="Shape" fill="url(#linearGradient-32)"></path>
                                <path d="M22.8079877,16.1023406 L22.8079877,14.8180414 C22.8079877,12.7426883 22.0806609,11.2908719 20.9114139,10.6021897 L18.7386401,9.32719702 C19.907887,10.0158792 20.6260072,11.4676957 20.6352139,13.5430487 L20.6352139,14.5016198 C20.6352139,14.5016198 20.6352139,14.8180414 20.5799738,14.9762522 C20.5247338,15.1344629 20.5247338,15.3205932 20.4879072,15.497417 C20.4510805,15.6742408 20.4879072,15.7393865 20.4142538,15.8603712 C20.3406005,15.9813559 20.3590138,16.0837275 20.3313938,16.1954057 C20.3037738,16.3070839 20.2485338,16.5025208 20.2117071,16.6607315 L20.1288471,16.9306205 C20.0736071,17.1043421 20.0152982,17.2780637 19.9539204,17.4517854 L19.880267,17.6658352 C19.7882003,17.9078047 19.6961336,18.1497741 19.5948603,18.382437 L19.5948603,18.4661956 C19.5027936,18.6771433 19.4045891,18.888091 19.3002469,19.0990387 L19.1989735,19.2944755 C19.100769,19.4930145 18.9964268,19.6884514 18.8859468,19.880786 L18.8215001,19.9924642 C18.6926067,20.2158206 18.5545067,20.4484835 18.4164067,20.6625334 L18.2875133,20.8486637 L17.9652799,21.3139895 L17.7811465,21.5652654 L17.4865331,21.937526 L17.2287464,22.2539476 L16.9801663,22.5424496 L16.5474529,23.0077754 L16.2804595,23.2776643 L16.0594994,23.4824077 L15.6912327,23.8081357 L15.4702726,23.994266 L15.0651792,24.3013811 L14.8718391,24.4409788 C14.6692924,24.5805765 14.4667457,24.7108678 14.2549923,24.841159 L16.4277662,26.1161517 C16.6395196,25.9951669 16.8420663,25.8648757 17.044613,25.7159715 L17.237953,25.5763737 L17.6430465,25.2692587 L17.8640065,25.0831284 L18.2322733,24.7574003 L18.4532333,24.552657 L18.5821267,24.4316723 L18.7202267,24.282768 L19.1529402,23.8174422 L19.2910402,23.668538 L19.4015202,23.5289402 L19.659307,23.2125187 L19.8158203,23.0170819 L19.9447137,22.8402581 L20.1288471,22.5889821 L20.2485338,22.4214649 L20.4510805,22.1236563 L20.5799738,21.937526 L20.6352139,21.8630739 L20.9758606,21.3046829 L21.0403073,21.1930048 L21.2612673,20.7928246 L21.353334,20.6066943 L21.4546074,20.4112574 L21.5374674,20.2437401 L21.7492208,19.7784143 L21.7492208,19.6946557 C21.8351497,19.502321 21.9149408,19.3068842 21.9885942,19.1083452 L21.9885942,18.996667 L22.0622475,18.7826171 L22.1635209,18.4848086 L22.2371742,18.2521457 L22.3200343,17.9822568 L22.3752743,17.8147395 C22.3752743,17.7123678 22.4213076,17.6193027 22.4489276,17.516931 C22.4765476,17.4145593 22.5041676,17.2935746 22.5317876,17.1818964 L22.5317876,16.8189423 C22.5317876,16.8189423 22.5962343,16.4652947 22.6238543,16.2977774 C22.6514743,16.1302601 22.798781,16.1488732 22.8079877,16.1023406 Z" id="Shape" fill="url(#linearGradient-33)"></path>
                                <path d="M5.16314842,34.1368152 L2.85099846,32.6451896 C3.29052341,33.1552742 3.79171235,33.5949923 4.34017979,33.951723 L6.65232975,35.4433487 C6.1038623,35.086618 5.60267337,34.6468998 5.16314842,34.1368152 Z" id="Shape" fill="url(#linearGradient-34)"></path>
                                <g transform="translate(21.592446, 0.000000)" id="Shape">
                                    <path d="M2.00431822,1.2405172 L4.24710368,2.5183432 C3.68320213,2.19783633 3.07502706,1.95907498 2.44147132,1.80947622 L0.198685862,0.53165023 C0.832241598,0.681248992 1.44041667,0.920010343 2.00431822,1.2405172 Z" fill="url(#linearGradient-35)"></path>
                                    <g transform="translate(0.000000, 0.000000)">
                                        <polyline fill="url(#linearGradient-36)" points="2.44147132 1.80947622 0.198685862 0.53165023 0.502792365 0.615595003 2.74557782 1.89342099 2.44147132 1.80947622"></polyline>
                                        <path d="M2.74557782,1.8654394 L0.502792365,0.587613412 C0.751359208,0.657933515 0.995669098,0.742012897 1.23454864,0.839447732 L3.4773341,2.11727372 C3.23845456,2.01983889 2.99414467,1.93575951 2.74557782,1.8654394" fill="url(#linearGradient-37)"></path>
                                        <path d="M3.48683742,2.14525531 L1.21554198,0.867429323 C1.4532837,0.965938505 1.68492964,1.07805765 1.90928494,1.20320842 L4.1520704,2.48103441 C3.9277151,2.35588364 3.69606915,2.2437645 3.45832744,2.14525531" fill="url(#linearGradient-38)"></path>
                                        <polyline fill="url(#linearGradient-39)" points="4.17107705 2.47170721 1.9282916 1.19388122 2.00431822 1.19388122 4.24710368 2.47170721 4.17107705 2.47170721"></polyline>
                                    </g>
                                </g>
                                <polygon id="Shape" fill="url(#linearGradient-40)" points="5.25613032 34.510629 2.85099846 33.2276711 4.24719789 29.8470305 6.65232975 31.1299883"></polygon>
                                <polygon id="Shape" fill="url(#linearGradient-41)" points="21.3428913 4.66359851 19.0066564 3.49396373 21.4220857 0.932719702 23.7583205 2.10235448"></polygon>
                                <g transform="translate(2.850998, 27.048871)" fill="url(#linearGradient-42)" id="Shape">
                                    <path d="M3.35467486,3.89876835 L1.1118894,2.62094236 C0.613285348,1.90119758 0.243670968,1.10311659 0.0190066564,0.261161517 L2.26179211,1.53898751 C2.48645643,2.38094259 2.85607081,3.17902357 3.35467486,3.89876835 Z"></path>
                                    <path d="M3.35467486,3.89876835 L1.1118894,2.62094236 C0.613285348,1.90119758 0.243670968,1.10311659 0.0190066564,0.261161517 L2.26179211,1.53898751 C2.48645643,2.38094259 2.85607081,3.17902357 3.35467486,3.89876835"></path>
                                </g>
                                <path d="M20.3692932,5.37617319 L20.8777397,5.31824029 L21.8576549,5.31824029 L19.675957,3.73087881 L18.6960418,3.73087881 L18.1875953,3.78881171 L17.9379942,3.78881171 C17.6606597,3.78881171 17.3833253,3.91626409 17.1059908,4.00895673 L19.2876887,5.59631821 C19.5742677,5.50362557 19.8516021,5.43410609 20.1196921,5.37617319 L20.3692932,5.37617319 Z" id="Shape" fill="url(#linearGradient-43)"></path>
                                <path d="M5.006422,20.2304926 L5.0837081,19.9249775 C5.15240686,19.6733768 5.22969297,19.4217761 5.30697907,19.1611897 L5.38426517,18.9185748 C5.48731331,18.6130596 5.59036145,18.2985588 5.70199693,18.0200009 L3.67538356,16.7889546 C3.56374808,17.0944698 3.46069994,17.3999849 3.35765181,17.6875285 L3.35765181,17.741443 L3.30612774,17.9301435 C3.22884163,18.1817442 3.15155553,18.4333449 3.08285677,18.6939313 L3.08285677,18.9994464 C2.99698333,19.322933 2.91969722,19.6464196 2.85099846,19.9699062 L2.85099846,20.2215069 L4.87761183,21.4525531 L4.9291359,21.2009525 C4.89478652,20.8894468 4.92054855,20.5659602 5.006422,20.2304926 Z" id="Shape" fill="url(#linearGradient-44)"></path>
                                <path d="M12.2302091,9.62723273 C12.5821843,9.28806193 12.9341594,8.95758781 13.3046595,8.65320376 L11.1187088,7.46175762 C10.8470087,7.68787148 10.5814836,7.92268204 10.3221335,8.16618928 L10.0535209,8.43578658 L9.49777071,8.99237456 C9.37735817,9.11412818 9.24768313,9.22718512 9.12727059,9.35763542 L8.55299539,10.0011903 L10.7667336,11.1926364 C11.0723962,10.8447689 11.3873213,10.5142948 11.692984,10.1838207 L12.2302091,9.62723273 Z" id="Shape" fill="url(#linearGradient-45)"></path>
                                <polygon id="Shape" fill="url(#linearGradient-46)" points="2.2211921 24.2507123 0 22.8993703 2.53984413 20.5198334 4.75166411 21.8711754 2.2211921 24.2507123"></polygon>
                                <g transform="translate(0.000000, 22.385273)" id="Shape">
                                    <path d="M2.53738863,6.85548981 L0.294603175,5.59631821 C0.157639813,4.77923351 0.0877242129,3.95267672 0.0855299539,3.124611 C0.0922443353,2.21968941 0.158908286,1.31615401 0.285099846,0.419723866 L2.5278853,1.69754986 C2.40169374,2.59398 2.33502979,3.4975154 2.32831541,4.40243699 C2.33152277,5.22427304 2.40143501,6.04455221 2.53738863,6.85548981 Z" fill="url(#linearGradient-47)"></path>
                                    <path d="M2.53738863,6.85548981 L0.294603175,5.59631821 C0.157639813,4.77923351 0.0877242129,3.95267672 0.0855299539,3.124611 C0.0922443353,2.21968941 0.158908286,1.31615401 0.285099846,0.419723866 L2.5278853,1.69754986 C2.40169374,2.59398 2.33502979,3.4975154 2.32831541,4.40243699 C2.33050967,5.23050271 2.40042527,6.05705951 2.53738863,6.8741442" fill="url(#linearGradient-48)"></path>
                                </g>
                                <polygon id="Shape" fill="url(#linearGradient-49)" points="11.134222 3.73087881 10.453661 7.08639481 12.6240986 8.39447732 13.3046595 5.02948246"></polygon>
                                <path d="M15.8848854,0.932719702 L15.461639,1.09299612 C14.8280792,1.34906855 14.2132585,1.64656385 13.6214371,1.98342065 C12.8506686,2.4236237 12.1099886,2.91139816 11.4039939,3.44371689 L13.5754321,4.66359851 C14.2814268,4.13127978 15.0221068,3.64350532 15.7928753,3.20330227 C16.3847103,2.86646964 16.9995292,2.56897518 17.6330772,2.31287773 L18.0563236,2.15260132 L15.8848854,0.932719702 Z" id="Shape" fill="url(#linearGradient-50)"></path>
                                <polygon id="Shape" fill="url(#linearGradient-51)" points="5.24330295 16.0543347 2.85099846 14.9235152 4.26002526 16.5908549 6.65232975 17.7216743"></polygon>
                                <polygon id="Shape" fill="url(#linearGradient-52)" points="8.03337474 10.9760048 5.70199693 9.32719702 8.12228322 9.5317936 10.453661 11.1926364"></polygon>
                                <path d="M29.2415146,14.0059864 L26.6634457,16.282339 C26.4022679,17.5115987 26.0395616,18.7177979 25.5789443,19.8889058 L26.9012749,21.762447 C26.0057048,23.6997291 24.9225342,25.5474709 23.6667973,27.2800258 L21.3360708,27.1114071 C20.5359155,28.0932982 19.6545178,29.008218 18.7009228,29.8467773 L17.9969483,33.1723129 C17.2718341,33.7400455 16.5090893,34.2595438 15.7137876,34.7273521 C14.9795919,35.1427439 14.2129395,35.4998476 13.4211138,35.7952706 L12.6981129,33.2940931 C11.8385279,33.5313911 10.9442662,33.623251 10.0534518,33.5657566 L7.7322385,36.3760684 C6.48714481,36.0731017 5.35738702,35.4225269 4.47873456,34.5025272 L5.78203877,31.1207853 C5.28291838,30.3979146 4.91292125,29.5963675 4.68802428,28.7507557 L2.10995537,29.3971274 C1.97285018,28.576494 1.90286217,27.7463474 1.90066564,26.9146853 C1.90738698,26.0058335 1.97411996,25.098374 2.1004422,24.1980506 L4.67851111,21.921698 C4.94058561,20.6926612 5.30327061,19.4865329 5.76301243,18.3151312 L4.44068188,16.44159 C5.33755763,14.5049699 6.4206578,12.6573484 7.67515948,10.9240111 L10.005886,11.0926298 C10.8072394,10.1117692 11.6885471,9.19694281 12.6410339,8.35725967 L13.3450085,5.04109174 C14.0749708,4.48108709 14.8407783,3.9679252 15.6376823,3.50478796 C16.3718968,3.08943142 17.1385462,2.73232909 17.9303561,2.43686947 L18.6628702,4.93804698 C19.5226238,4.70190971 20.4172251,4.61318374 21.3075313,4.67575121 L23.6287446,1.8654394 C24.8738383,2.16840604 26.0035961,2.81898088 26.8822485,3.73898061 L25.5789443,7.11135477 C26.0783921,7.83404434 26.4484157,8.63564886 26.6729588,9.4813844 L29.2510277,8.82564498 C29.3858169,9.64655856 29.4557897,10.4765247 29.4603175,11.3080871 C29.4462591,12.2110789 29.3731736,13.1122427 29.2415146,14.0059864 Z M15.6662218,26.7179635 C19.6089926,24.1844585 22.0839608,19.9473442 22.3254404,15.3174652 C22.3254404,11.120733 19.3002525,9.42517816 15.5996296,11.5703828 C11.6557016,14.1028105 9.18036299,18.3405589 8.94041102,22.9708811 C8.94041102,27.1676134 11.9655989,28.8538004 15.6567086,26.7179635 L15.6662218,26.7179635 Z" id="Shape" fill="url(#linearGradient-53)"></path>
                                <path d="M5.98659747,14.3327928 C6.16634519,14.015409 6.35607889,13.7070933 6.55579857,13.4259819 L6.75551825,13.1085981 C7.02181116,12.6914652 7.29809005,12.2803776 7.58435493,11.8753354 L7.80404658,11.5760879 C8.05369619,11.2405679 8.2933598,10.8959797 8.55299539,10.5695278 L6.19630314,9.32719702 L6.04651338,9.5266954 C5.83680771,9.78967054 5.64707402,10.0617138 5.44735433,10.333757 L5.22766268,10.6330046 C4.9680271,11.0017743 4.71504883,11.3765895 4.46872789,11.75745 L4.46872789,11.8299949 L4.26900821,12.1473787 C4.11921845,12.3922176 3.96942868,12.6279884 3.81963892,12.8728273 L3.69980711,13.0813938 L3.45015751,13.516663 L3.18053594,13.9882046 L2.85099846,14.6139041 L5.20769071,15.8562349 C5.39742441,15.4844425 5.59714409,15.1217182 5.79686378,14.7499257 L5.98659747,14.3327928 Z" id="Shape" fill="url(#linearGradient-54)"></path>
                            </g>
                        </g>
                    </g>
                </g>
            </g>
        </g>
    </g>
</svg>