<?xml version="1.0" encoding="UTF-8"?>
<svg width="118px" height="168px" viewBox="0 0 118 168" version="1.1" xmlns="http://www.w3.org/2000/svg" xmlns:xlink="http://www.w3.org/1999/xlink">
    <!-- Generator: Sketch 51.2 (57519) - http://www.bohemiancoding.com/sketch -->
    <title>Group 17</title>
    <desc>Created with Sketch.</desc>
    <defs>
        <linearGradient x1="50%" y1="95.8205003%" x2="50%" y2="10.3778546%" id="linearGradient-1">
            <stop stop-color="#F6F9FC" offset="0%"></stop>
            <stop stop-color="#FFFFFF" offset="100%"></stop>
        </linearGradient>
        <linearGradient x1="171.445312%" y1="100%" x2="-45.9326172%" y2="-10.1215069%" id="linearGradient-2">
            <stop stop-color="#F6F9FC" offset="0%"></stop>
            <stop stop-color="#FFFFFF" offset="100%"></stop>
        </linearGradient>
        <linearGradient x1="46419.4191%" y1="68803%" x2="51901.4298%" y2="75970%" id="linearGradient-3">
            <stop stop-color="#2A39DD" offset="0%"></stop>
            <stop stop-color="#2449E7" offset="28%"></stop>
            <stop stop-color="#1670FF" offset="100%"></stop>
        </linearGradient>
        <radialGradient cx="54.0490723%" cy="54.4302446%" fx="54.0490723%" fy="54.4302446%" r="140.163033%" gradientTransform="translate(0.540491,0.544302),scale(0.578452,1.000000),rotate(158.270060),translate(-0.540491,-0.544302)" id="radialGradient-4">
            <stop stop-color="#FFFFFF" stop-opacity="0.5" offset="0%"></stop>
            <stop stop-color="#FFFFFF" stop-opacity="0" offset="100%"></stop>
        </radialGradient>
        <polygon id="path-5" points="114.737888 95.0948839 57.3623914 128.273504 0 95.0948839 57.3623914 61.9031339"></polygon>
        <linearGradient x1="110.294118%" y1="-13.607181%" x2="34.1911765%" y2="75.0618383%" id="linearGradient-6">
            <stop stop-color="#1EBACF" offset="0%"></stop>
            <stop stop-color="#08B593" offset="100%"></stop>
        </linearGradient>
        <linearGradient x1="64.7058824%" y1="13.1782519%" x2="49.2647059%" y2="63.0545753%" id="linearGradient-7">
            <stop stop-color="#8271FF" offset="0%"></stop>
            <stop stop-color="#E4BCFF" offset="100%"></stop>
        </linearGradient>
        <linearGradient x1="1977%" y1="65.5798249%" x2="1940%" y2="75.9463365%" id="linearGradient-8">
            <stop stop-color="#8271FF" offset="0%"></stop>
            <stop stop-color="#E4BCFF" offset="100%"></stop>
        </linearGradient>
        <linearGradient x1="1855%" y1="3425%" x2="5974%" y2="3425%" id="linearGradient-9">
            <stop stop-color="#8271FF" offset="0%"></stop>
            <stop stop-color="#E4BCFF" offset="100%"></stop>
        </linearGradient>
        <linearGradient x1="62.8975176%" y1="71.3079506%" x2="50%" y2="24.2932616%" id="linearGradient-10">
            <stop stop-color="#0178FF" offset="0%"></stop>
            <stop stop-color="#0092FF" offset="100%"></stop>
        </linearGradient>
        <linearGradient x1="50%" y1="100%" x2="50%" y2="-2.77555756e-15%" id="linearGradient-11">
            <stop stop-color="#9B8DFF" offset="0%"></stop>
            <stop stop-color="#A12DEF" offset="100%"></stop>
        </linearGradient>
        <linearGradient x1="2407%" y1="4225%" x2="6853%" y2="4225%" id="linearGradient-12">
            <stop stop-color="#8271FF" offset="0%"></stop>
            <stop stop-color="#E4BCFF" offset="100%"></stop>
        </linearGradient>
    </defs>
    <g id="Page-1" stroke="none" stroke-width="1" fill="none" fill-rule="evenodd">
        <g id="形式化验证" transform="translate(-666.000000, -1937.000000)">
            <g id="Group-4" transform="translate(360.000000, 1811.000000)">
                <g id="Group-17" transform="translate(307.000000, 126.000000)">
                    <g id="Group-15">
                        <path d="M114.872356,133.876834 L57.7213433,101.230769 L0.530997025,133.876834 C-0.176999008,134.265941 -0.176999008,135.277619 0.530997025,135.666726 L56.3446843,167.534577 C57.2100128,168.001506 58.2326737,168.001506 59.0980022,167.534577 L114.91169,135.666726 C115.541019,135.277619 115.541019,134.304852 114.872356,133.876834 Z" id="Shape" fill-opacity="0.5" fill="#DFE8F0"></path>
                        <g id="Group" opacity="0.5" transform="translate(0.000000, 86.871795)" stroke="#4E87FF" stroke-width="0.72">
                            <path d="M67.0985268,5.67268123 L8.54658385,39.275521 M76.8637202,11.2861487 L18.3117773,44.8889885 M86.6289136,16.8606337 L28.0769707,50.4634735 M96.394107,22.4741011 L37.8421641,56.0769409 M106.120083,28.0875686 L47.5681399,61.6904084" id="Shape"></path>
                            <g transform="translate(8.546584, 5.672681)" id="Shape">
                                <path d="M38.9903702,0.0778023988 L97.2612638,33.6106363 M29.3110791,5.67957511 L87.5819727,39.212409 M19.5927586,11.2424466 L77.8636522,44.7752805 M9.8744381,16.8442193 L68.1453317,50.3770532 M0.156117598,22.4459921 L58.4270112,55.9788259"></path>
                            </g>
                            <path d="M114.872356,32.6460652 L57.7213433,0 L0.530997025,32.6460652 C-0.176999008,33.0351721 -0.176999008,34.0468499 0.530997025,34.4359568 L56.3446843,66.3038083 C57.2100128,66.7707365 58.2326737,66.7707365 59.0980022,66.3038083 L114.91169,34.4359568 C115.541019,34.0468499 115.541019,33.0740828 114.872356,32.6460652 Z" id="Shape"></path>
                        </g>
                        <g id="icon-ondemand" transform="translate(0.721118, 0.000000)" fill-rule="nonzero">
                            <polygon id="Shape" fill="#FFFFFF" points="114.737888 99.5555556 57.3623914 132.740741 0 99.5555556 57.3623914 66.3703704"></polygon>
                            <polygon id="Shape" fill="url(#linearGradient-1)" points="115.378882 99.5555556 57.689441 66.3747472 57.689441 0 115.378882 33.1808083 115.378882 99.5555556"></polygon>
                            <polygon id="Shape" fill="url(#linearGradient-2)" points="57.689441 66.3747472 0 99.5555556 0 33.1808083 57.689441 0"></polygon>
                            <polygon id="Shape" fill="url(#linearGradient-3)" points="114.737888 95.3795014 114.737888 99.5555556 57.3623914 132.740741 0 99.5555556 0 95.3795014 57.3623914 66.3703704 114.737888 95.3795014"></polygon>
                            <g id="Shape">
                                <use fill="#0169FE" xlink:href="#path-5"></use>
                                <use fill="url(#radialGradient-4)" xlink:href="#path-5"></use>
                            </g>
                            <g id="Group" transform="translate(24.357764, 27.441595)">
                                <path d="M57.1991644,2.92933539 C57.1991644,1.41235813 56.0993549,0.797720798 54.7610324,1.62159638 L4.4083046,30.2741581 C3.00770478,31.1868709 2.12789101,32.7003415 2.03642611,34.3543039 L2.15568257,77.902013 C2.15568257,79.4189902 3.25549215,80.0336276 4.59381465,79.209752 L54.8935395,50.6094998 C56.3326242,49.6951025 57.2357383,48.1511552 57.3184209,46.4639671 L57.1991644,2.92933539 Z" id="Shape" fill="#FFFFFF"></path>
                                <path d="M54.5490209,0.235393022 L56.3643692,1.30773901 C55.7977937,1.04684275 55.1320948,1.11204034 54.6285252,1.47774508 L52.760174,0.405399094 C53.275728,0.0189923624 53.9682278,-0.0468205147 54.5490209,0.235393022 Z" id="Shape" fill="url(#linearGradient-6)"></path>
                                <path d="M54.5490209,0.235393022 L56.3643692,1.30773901 C55.7977937,1.04684275 55.1320948,1.11204034 54.6285252,1.47774508 L52.760174,0.405399094 C53.275728,0.0189923624 53.9682278,-0.0468205147 54.5490209,0.235393022 Z" id="Shape" fill="url(#linearGradient-7)"></path>
                                <path d="M2.1026797,77.8104713 L2.03642611,34.2627621 L0.168074895,33.1904161 L0.287331355,76.7381253 C0.224386975,77.3425465 0.498254441,77.9331695 1.00287012,78.2812573 L2.87122133,79.3536033 C2.34647105,79.0183086 2.05113993,78.425322 2.1026797,77.8104713 Z" id="Shape" fill="url(#linearGradient-8)"></path>
                                <path d="M52.8264276,0.392321704 L2.53995339,29.0448835 C1.10086869,29.9592808 0.197754602,31.503228 0.115072023,33.1904161 L2.03642611,34.2627621 C2.09454907,32.5712936 2.97828358,31.0120985 4.4083046,30.0779973 L54.6947788,1.46466769 L52.8264276,0.392321704 Z" id="Shape" fill="url(#linearGradient-9)"></path>
                            </g>
                            <path d="M53.8135293,55.1220812 L30.4451581,68.4523217 C29.9457216,68.737322 29.5382865,68.4523217 29.5382865,67.7786847 C29.5496076,67.0995004 29.88583,66.4655176 30.4451581,66.068683 L53.8135293,52.7384425 C54.3129658,52.4534422 54.7204009,52.7384425 54.7204009,53.4120795 C54.7090798,54.0912638 54.3728574,54.7252465 53.8135293,55.1220812 Z M45.2836795,66.0945921 L36.1755348,71.2764154 C35.6760983,71.5614157 35.2686633,71.2764154 35.2686633,70.6027784 C35.2799843,69.9235941 35.6162067,69.2896113 36.1755348,68.8927767 L45.2836795,63.7109534 C45.783116,63.4259531 46.1905511,63.7109534 46.1905511,64.3845904 C46.17923,65.0637747 45.8430076,65.6977574 45.2836795,66.0945921 Z M65.9314361,48.2173016 L56.8232914,53.3991249 C56.3238549,53.6841252 55.9164199,53.3991249 55.9164199,52.7254879 C55.9379554,52.0462523 56.2839533,51.4170181 56.8495775,51.0284408 L65.9314361,45.8466174 C66.4308726,45.5616171 66.8383076,45.8466174 66.8383076,46.5202545 C66.8228792,47.1948454 66.4871062,47.8231842 65.9314361,48.2173016 Z M39.5007305,58.0627659 L30.3925858,63.2445893 C29.8931493,63.5295895 29.4857143,63.2445893 29.4857143,62.5709522 C29.5091508,61.8823723 29.865896,61.2465509 30.4451581,60.8609505 L39.5533028,55.6791272 C40.0527393,55.3941269 40.4601743,55.6791272 40.4601743,56.3527642 C40.4367378,57.0413442 40.0799926,57.6771656 39.5007305,58.0627659 Z M52.946087,50.6527586 L43.8379423,55.8345819 C43.3385058,56.1195822 42.9310707,55.8345819 42.9310707,55.1609449 C42.9423918,54.4817606 43.2786142,53.8477778 43.8379423,53.4509432 L52.946087,48.2691198 C53.4455235,47.9841195 53.8529585,48.2691198 53.8529585,48.9427569 C53.8416375,49.6219412 53.5054151,50.2559239 52.946087,50.6527586 Z M67.0485967,42.6986598 L57.940452,47.8804831 C57.4410155,48.1654834 57.0335805,47.8804831 57.0335805,47.2068461 C57.0449015,46.5276617 57.3811239,45.893679 57.940452,45.4968444 L67.0485967,40.315021 C67.5480332,40.0300207 67.9554682,40.315021 67.9554682,40.9886581 C67.9441472,41.6678424 67.6079248,42.3018251 67.0485967,42.6986598 Z M55.5352709,72.4423257 L32.1143275,85.7725662 C31.614891,86.0575665 31.2074559,85.7725662 31.2074559,85.0989291 C31.226955,84.4289388 31.5622832,83.8062224 32.1143275,83.4148366 L55.5352709,70.0586869 C56.0347074,69.7736866 56.4421425,70.0586869 56.4421425,70.732324 C56.4308215,71.4115083 56.0945991,72.045491 55.5352709,72.4423257 Z M47.0054212,83.4148366 L37.8972765,88.5966599 C37.39784,88.8816602 36.9904049,88.5966599 36.9904049,87.9230229 C37.001726,87.2438385 37.3379484,86.6098558 37.8972765,86.2130212 L47.0054212,81.0311978 C47.5048577,80.7461975 47.9122927,81.0311978 47.9122927,81.7048349 C47.9009717,82.3840192 47.5647493,83.0180019 47.0054212,83.4148366 Z M67.6794639,65.5245915 L58.5713192,70.7064148 C58.0718827,70.9914151 57.6644476,70.7064148 57.6644476,70.0327778 C57.6757686,69.3535935 58.0119911,68.7196108 58.5713192,68.3227761 L67.6794639,63.1409528 C68.1789004,62.8559525 68.5863354,63.1409528 68.5863354,63.8145898 C68.5750144,64.4937741 68.238792,65.1277569 67.6794639,65.5245915 Z M41.2224722,75.3830104 L32.1143275,80.5648337 C31.614891,80.849834 31.2074559,80.5648337 31.2074559,79.8911967 C31.2349865,79.2304285 31.5694392,78.6188932 32.1143275,78.2330132 L41.2224722,73.0511899 C41.7219087,72.7661896 42.1293437,73.0511899 42.1293437,73.7248269 C42.1018132,74.3855951 41.7673605,74.9971304 41.2224722,75.3830104 Z" id="Shape" fill="#E6E6E6"></path>
                            <g id="Group" transform="translate(32.049689, 37.652422)">
                                <polygon id="Shape" fill="url(#linearGradient-10)" points="58.4603429 41.5031427 58.3555048 2.19394154 2.97478095 33.8697839 3.09272381 73.178985 45.9977143 48.6431891 58.4865524 50.4736374 56.0621714 42.8792243"></polygon>
                                <polygon id="Shape" fill="url(#linearGradient-11)" points="3.09272381 73.178985 0.196571429 71.5043196 0.0917333333 32.1951185 2.97478095 33.8697839"></polygon>
                                <polygon id="Shape" fill="url(#linearGradient-12)" points="2.97478095 33.8697839 0.0917333333 32.1951185 55.4593524 0.532258007 58.3555048 2.19394154 2.97478095 33.8697839"></polygon>
                            </g>
                        </g>
                    </g>
                    <g id="Group-9" transform="translate(64.179503, 74.666667) scale(-1, 1) translate(-64.179503, -74.666667) translate(54.804969, 55.282051)" fill="#FFFFFF" fill-rule="nonzero" opacity="0.590409873">
                        <polygon id="Shape" points="12.2590062 38.7692308 18.7490683 33.8834008 12.2590062 30.1538462"></polygon>
                        <path d="M0,0 L0,31.8431761 L10.6779453,38.0512821 L10.6779453,27.4008925 L18.7490683,32.0124616 L18.7490683,10.7058451 L0,0 Z M16.059677,21.5984879 L2.60977123,13.9135124 L2.60977123,12.138934 L16.059677,19.8239095 L16.059677,21.5984879 Z M16.059677,18.049331 L2.60977123,10.3643555 L2.60977123,8.58977703 L16.059677,16.2747525 L16.059677,18.049331 Z M16.059677,14.5001741 L2.60682233,6.82103599 L2.60682233,5.04062009 L16.0567281,12.7255956 L16.059677,14.5001741 Z" id="Shape"></path>
                    </g>
                    <g id="Group-9" transform="translate(78.601863, 75.384615) scale(-1, 1) translate(-78.601863, -75.384615) translate(69.227329, 56.000000)" fill="#FFFFFF" fill-rule="nonzero">
                        <polygon id="Shape" points="12.2590062 38.7692308 18.7490683 33.8834008 12.2590062 30.1538462"></polygon>
                        <path d="M0,0 L0,31.8431761 L10.6779453,38.0512821 L10.6779453,27.4008925 L18.7490683,32.0124616 L18.7490683,10.7058451 L0,0 Z M16.059677,21.5984879 L2.60977123,13.9135124 L2.60977123,12.138934 L16.059677,19.8239095 L16.059677,21.5984879 Z M16.059677,18.049331 L2.60977123,10.3643555 L2.60977123,8.58977703 L16.059677,16.2747525 L16.059677,18.049331 Z M16.059677,14.5001741 L2.60682233,6.82103599 L2.60682233,5.04062009 L16.0567281,12.7255956 L16.059677,14.5001741 Z" id="Shape"></path>
                    </g>
                </g>
            </g>
        </g>
    </g>
</svg>