<svg xmlns="http://www.w3.org/2000/svg" xmlns:xlink="http://www.w3.org/1999/xlink" width="524" height="566" viewBox="0 0 524 566">
    <defs>
        <path id="a" d="M0 0h693v640H0z"/>
        <linearGradient id="b" x1="50%" x2="50%" y1="15.638%" y2="100%">
            <stop offset="0%" stop-color="#2265D2"/>
            <stop offset="100%" stop-color="#0069FF" stop-opacity="0"/>
        </linearGradient>
        <linearGradient id="d" x1="51.4%" x2="51.4%" y1="82.527%" y2="10.433%">
            <stop offset="0%" stop-color="#283DE1" stop-opacity="0"/>
            <stop offset="100%" stop-color="#176CFD"/>
        </linearGradient>
        <linearGradient id="e" x1="47.69%" x2="47.69%" y1="76.237%" y2="9.666%">
            <stop offset="0%" stop-color="#293CE0" stop-opacity="0"/>
            <stop offset="100%" stop-color="#293CE0"/>
        </linearGradient>
        <linearGradient id="f" x1="76.49%" x2="0%" y1="83.068%" y2="32.346%">
            <stop offset="0%" stop-color="#0FF"/>
            <stop offset="100%" stop-color="#0FF" stop-opacity="0"/>
        </linearGradient>
        <linearGradient id="g" x1="73.272%" x2="31.029%" y1="89.814%" y2="5.23%">
            <stop offset="0%" stop-color="#0092FF"/>
            <stop offset="100%" stop-color="#008BFF"/>
        </linearGradient>
        <linearGradient id="h" x1="76.251%" x2="2.184%" y1="73.23%" y2="-4.205%">
            <stop offset="0%" stop-color="#003CA2"/>
            <stop offset="100%" stop-color="#0178FF"/>
        </linearGradient>
        <linearGradient id="i" x1="50%" x2="42.921%" y1="15.638%" y2="104.028%">
            <stop offset="0%" stop-color="#0F59C1"/>
            <stop offset="100%" stop-color="#0069FF" stop-opacity="0"/>
        </linearGradient>
        <linearGradient id="j" x1="170.558%" x2="10.817%" y1="84.038%" y2="21.672%">
            <stop offset="0%" stop-color="#021755" stop-opacity="0"/>
            <stop offset="100%" stop-color="#0097FF"/>
        </linearGradient>
        <linearGradient id="k" x1="76.154%" x2="20.263%" y1="71.979%" y2="21.277%">
            <stop offset="0%" stop-color="#003CA2"/>
            <stop offset="100%" stop-color="#0178FF"/>
        </linearGradient>
        <linearGradient id="l" x1="84.533%" x2="15.843%" y1="24.123%" y2="52.09%">
            <stop offset="0%" stop-color="#021755" stop-opacity="0"/>
            <stop offset="100%" stop-color="#67C1FF"/>
        </linearGradient>
        <linearGradient id="m" x1="73.272%" x2="32.548%" y1="89.814%" y2="8.272%">
            <stop offset="0%" stop-color="#0092FF"/>
            <stop offset="100%" stop-color="#008BFF"/>
        </linearGradient>
        <linearGradient id="n" x1="73.279%" x2="18.488%" y1="76.912%" y2="24.538%">
            <stop offset="0%" stop-color="#003CA2"/>
            <stop offset="100%" stop-color="#0178FF"/>
        </linearGradient>
        <linearGradient id="o" x1="81.281%" x2="16.611%" y1="50%" y2="50%">
            <stop offset="0%" stop-color="#4285F4"/>
            <stop offset="100%" stop-color="#66A1F7"/>
        </linearGradient>
        <linearGradient id="p" x1="50%" x2="50%" y1="-82.564%" y2="256.864%">
            <stop offset="0%" stop-color="#021755"/>
            <stop offset="100%" stop-color="#0097FF" stop-opacity="0"/>
        </linearGradient>
        <linearGradient id="q" x1="33.092%" x2="33.092%" y1="22.586%" y2="289.819%">
            <stop offset="0%" stop-color="#021755"/>
            <stop offset="100%" stop-color="#0097FF" stop-opacity="0"/>
        </linearGradient>
        <linearGradient id="r" x1="50%" x2="50%" y1="0%" y2="100%">
            <stop offset="0%" stop-color="#FFF" stop-opacity="0"/>
            <stop offset="100%" stop-color="#FFF" stop-opacity=".208"/>
        </linearGradient>
        <linearGradient id="s" x1="50%" x2="50%" y1="100%" y2=".687%">
            <stop offset="0%" stop-color="#00E6CB" stop-opacity=".15"/>
            <stop offset="100%" stop-color="#00E6CB" stop-opacity="0"/>
        </linearGradient>
        <linearGradient id="t" x1="0%" x2="0%" y1="-2.055%" y2="102.143%">
            <stop offset="0%" stop-color="#FFF" stop-opacity=".7"/>
            <stop offset="100%" stop-color="#FFF" stop-opacity="0"/>
        </linearGradient>
        <linearGradient id="u" x1="57.975%" x2="38.988%" y1="36.722%" y2="68.324%">
            <stop offset="0%" stop-color="#0FF" stop-opacity=".1"/>
            <stop offset="100%" stop-color="#0FF" stop-opacity="0"/>
        </linearGradient>
        <linearGradient id="v" x1="50%" x2="50%" y1="0%" y2="100%">
            <stop offset="0%" stop-color="#2A39DD"/>
            <stop offset="100%" stop-color="#4B94EF"/>
        </linearGradient>
        <linearGradient id="w" x1="50%" x2="50%" y1="0%" y2="100%">
            <stop offset="0%" stop-color="#8271FF"/>
            <stop offset="100%" stop-color="#C0A0FF"/>
        </linearGradient>
        <path id="x" d="M0 0h132v210l-132-.422z"/>
        <linearGradient id="z" x1="15.901%" x2="96.014%" y1="50%" y2="240.536%">
            <stop offset="0%" stop-color="#021755"/>
            <stop offset="100%" stop-color="#0097FF" stop-opacity="0"/>
        </linearGradient>
        <linearGradient id="B" x1="15.901%" x2="130.828%" y1="50%" y2="261.365%">
            <stop offset="0%" stop-color="#021755"/>
            <stop offset="100%" stop-color="#0097FF" stop-opacity="0"/>
        </linearGradient>
        <path id="A" d="M60.94 10.799l27.888 48.303-55.581.215z"/>
        <linearGradient id="D" x1="47.852%" x2="96.857%" y1="82.821%" y2="7.414%">
            <stop offset="0%" stop-color="#0FF"/>
            <stop offset="100%" stop-color="#0FF" stop-opacity="0"/>
        </linearGradient>
        <path id="C" d="M35.285 17.63l55.269.139-27.589 47.974-55.581.215z"/>
        <linearGradient id="E" x1="51.191%" x2="54.627%" y1="0%" y2="83.854%">
            <stop offset="0%" stop-color="#BECAF9"/>
            <stop offset="0%" stop-color="#B7C6FF"/>
            <stop offset="100%" stop-color="#6886FE" stop-opacity="0"/>
        </linearGradient>
        <linearGradient id="F" x1="47.852%" x2="51.274%" y1="82.821%" y2="50%">
            <stop offset="0%" stop-color="#0FF"/>
            <stop offset="100%" stop-color="#0FF" stop-opacity="0"/>
        </linearGradient>
        <linearGradient id="H" x1="73.279%" x2="73.279%" y1="6.846%" y2="94.942%">
            <stop offset="0%" stop-color="#003CA2"/>
            <stop offset="100%" stop-color="#0178FF" stop-opacity="0"/>
        </linearGradient>
        <path id="G" d="M72.57 210.304l.71.375-.71.423v.269h-.45l-34.684 20.683L1.84 211.692l.538-.321H0V0h72.57v210.304z"/>
        <linearGradient id="I" x1="37.048%" x2="37.048%" y1="102.215%" y2="8.889%">
            <stop offset="0%" stop-color="#003CA2" stop-opacity="0"/>
            <stop offset="100%" stop-color="#0178FF"/>
        </linearGradient>
        <linearGradient id="K" x1="5.276%" x2="82.831%" y1="62.386%" y2="50%">
            <stop offset="0%" stop-color="#114AA4"/>
            <stop offset="100%" stop-color="#0061EA"/>
        </linearGradient>
        <linearGradient id="L" x1="0%" x2="50%" y1="-8.15%" y2="98.799%">
            <stop offset="0%" stop-color="#0462F5"/>
            <stop offset="100%" stop-color="#00ECFF" stop-opacity="0"/>
        </linearGradient>
        <linearGradient id="N" x1="95.179%" x2="16.611%" y1="7.833%" y2="50%">
            <stop offset="0%" stop-color="#4285F4"/>
            <stop offset="100%" stop-color="#66A1F7"/>
        </linearGradient>
        <path id="M" d="M38.338 19.685l61.617.156-30.757 53.364-61.966.239z"/>
        <linearGradient id="O" x1="33.153%" x2="33.153%" y1="64.699%" y2="115.52%">
            <stop offset="0%" stop-color="#0FF"/>
            <stop offset="100%" stop-color="#0FF" stop-opacity="0"/>
        </linearGradient>
        <linearGradient id="P" x1="50%" x2="44.296%" y1="86.714%" y2="21.966%">
            <stop offset="0%" stop-color="#0FF"/>
            <stop offset="97.367%" stop-color="#0FF" stop-opacity="0"/>
        </linearGradient>
        <linearGradient id="Q" x1="50%" x2="50%" y1="397.79%" y2="13.432%">
            <stop offset="0%" stop-color="#0178FF"/>
            <stop offset="100%" stop-color="#0092FF"/>
        </linearGradient>
        <linearGradient id="R" x1="73.272%" x2="31.029%" y1="89.814%" y2="5.23%">
            <stop offset="0%" stop-color="#0092FF"/>
            <stop offset="100%" stop-color="#00E7FF"/>
        </linearGradient>
        <linearGradient id="S" x1="293.462%" x2="0%" y1="123.112%" y2="33.898%">
            <stop offset="0%" stop-color="#003CA2"/>
            <stop offset="100%" stop-color="#0178FF"/>
        </linearGradient>
        <linearGradient id="T" x1="50%" x2="50%" y1="100%" y2="0%">
            <stop offset="0%" stop-color="#0092FF"/>
            <stop offset="100%" stop-color="#00E7FF"/>
        </linearGradient>
    </defs>
    <g fill="none" fill-rule="evenodd">
        <g transform="translate(-51 -74)">
            <mask id="c" fill="#fff">
                <use xlink:href="#a"/>
            </mask>
            <path fill="url(#b)" d="M243 342v314.193h231V331" mask="url(#c)"/>
            <path fill="url(#b)" d="M243 342v314.193h116V331" mask="url(#c)"/>
            <g fill-rule="nonzero" mask="url(#c)" opacity=".719">
                <path fill="url(#d)" d="M25.694 29.704L.034 14.858v202.714l25.66 14.846z" transform="translate(173 542)"/>
                <path fill="url(#e)" d="M25.67 29.653l25.66-14.846v202.734l-25.66 14.846z" transform="translate(173 542)"/>
                <path fill="#3776F6" d="M198.66 542L173 556.846l25.66 14.846 25.66-14.846z"/>
            </g>
            <g fill-rule="nonzero" mask="url(#c)" opacity=".36">
                <path fill="url(#d)" d="M25.694 29.704L.034 14.858v202.714l25.66 14.846z" transform="translate(51 472)"/>
                <path fill="url(#e)" d="M25.67 29.653l25.66-14.846v202.734l-25.66 14.846z" transform="translate(51 472)"/>
                <path fill="#3776F6" d="M76.66 472L51 486.846l25.66 14.846 25.66-14.846z"/>
            </g>
            <path stroke="url(#f)" d="M191.722 549.54l-.536.348-.445.383-.346.41-.248.45-.128.449-.019.46.085.459.182.461.26.433.331.417.393.395.473.39.516.357 121.617 69.41.619.326.655.292.686.256.71.22.733.184.795.155.805.112.807.068.803.025.84-.022.818-.07.788-.12.75-.17.702-.214.682-.277L454 551.57" mask="url(#c)"/>
        </g>
        <g fill-rule="nonzero">
            <path fill="url(#g)" d="M.159 105.43V67.292L115.529.265 230.9 67.292v38.138l-115.466 67.12z" transform="translate(192.2 387.626)"/>
            <path fill="url(#h)" d="M11 60.52L115 0l104 60.396L114.914 121z" opacity=".4" transform="translate(192.2 387.626)"/>
            <path fill="url(#i)" d="M115.59 172.534v-37.75l114.851-67.31.24 37.462z" transform="translate(192.2 387.626)"/>
            <path fill="url(#b)" d="M0 105.387l.187-38.018 115.443 67.298-.26 37.746z" transform="translate(192.2 387.626)"/>
            <path fill="url(#j)" d="M0 105.387l.187-38.018 115.443 67.298-.26 37.746z" opacity=".379" transform="translate(192.2 387.626)"/>
            <path fill="url(#g)" d="M.159 105.43V67.292L115.529.265 230.9 67.292v38.138l-115.466 67.12z" transform="translate(192.2 323.626)"/>
            <path fill="url(#k)" d="M11 60.52L115 0l104 60.396L114.914 121z" opacity=".4" transform="translate(192.2 323.626)"/>
            <path fill="url(#i)" d="M115.59 172.534v-37.75l114.851-67.31.24 37.462z" transform="translate(192.2 323.626)"/>
            <path fill="url(#l)" d="M0 105.387l.187-38.018 115.443 67.298-.26 37.746z" opacity=".379" transform="translate(192.2 323.626)"/>
            <path fill="url(#b)" d="M0 105.387l.187-38.018 115.443 67.298-.26 37.746z" transform="translate(192.2 323.626)"/>
            <g>
                <path fill="url(#m)" d="M.159 105.43V67.292L115.529.265 230.9 67.292v38.138l-115.466 67.12z" transform="translate(192.2 260.626)"/>
                <path fill="url(#n)" d="M11 60.52L115 0l104 60.396L114.914 121z" opacity=".4" transform="translate(192.2 260.626)"/>
                <path fill="url(#i)" d="M115.59 172.534v-37.75l114.851-67.31.24 37.462z" transform="translate(192.2 260.626)"/>
                <path fill="url(#l)" d="M0 105.387l.187-38.018 115.443 67.298-.26 37.746z" opacity=".379" transform="translate(192.2 260.626)"/>
                <path fill="url(#b)" d="M0 105.387l.187-38.018 115.443 67.298-.26 37.746z" transform="translate(192.2 260.626)"/>
            </g>
            <path fill="url(#o)" d="M1.159 105.43V67.292L116.529.265 231.9 67.292v38.138l-115.466 67.12z" transform="translate(191.2 189.626)"/>
            <path fill="url(#o)" d="M1.159 105.43V67.292L116.529.265 231.9 67.292v38.138l-115.466 67.12z" transform="translate(191.2 189.626)"/>
            <path fill="url(#i)" d="M116.59 172.534v-37.75l115.21-67.41.096 38.06z" transform="translate(191.2 189.626)"/>
            <path fill="url(#b)" d="M.742 105.266L1 67.223l115.63 67.444-.26 37.746z" transform="translate(191.2 189.626)"/>
            <g>
                <path fill="url(#p)" d="M104.866 31.145l.129-.089L52.786.726v.032l.137.08v60.615l-.125.072.035.021z" transform="translate(254.827 227.114)"/>
                <path fill="url(#q)" d="M52.923 61.452V.837l-.137-.08L.65 31.048v.078l52.148 30.4z" opacity=".379" transform="translate(254.827 227.114)"/>
            </g>
        </g>
        <g opacity=".72" style="mix-blend-mode:lighten">
            <path fill="url(#r)" d="M0 96v163.695L115.595 327 231 259.695 229.856 96z" transform="translate(192 -3)"/>
            <path fill="url(#s)" d="M84.187 0h29.126v291l-29.126-17.079z" transform="translate(192 -3)"/>
            <path fill="url(#s)" fill-rule="nonzero" d="M200.87 243l-83.828-49.769L27.117 243V19H200.87z" transform="translate(192 -3)"/>
            <path stroke="#FFF" stroke-dasharray="0" stroke-linecap="round" stroke-width="2" d="M306.496 246v25"/>
            <path stroke="url(#t)" stroke-linecap="round" stroke-width="2" d="M148.643 264v-34M91.396 265v-34" transform="translate(192 -3)"/>
        </g>
        <path fill="url(#u)" fill-rule="nonzero" d="M11.071 28.956v6.791L.454 29.507V22.72z" transform="translate(401.29 183.74)"/>
        <path fill="url(#u)" fill-rule="nonzero" d="M21.808 29.32v6.878l-10.752-6.32v-6.875z" transform="matrix(-1 0 0 1 434.155 183.74)"/>
        <path fill="url(#v)" fill-rule="nonzero" d="M21.346 6.45a1.007 1.007 0 0 0-.033-.246c-.009-.034-.027-.064-.04-.096-.02-.05-.035-.1-.062-.147-.018-.032-.044-.058-.066-.087-.03-.041-.058-.085-.094-.122-.026-.025-.06-.044-.088-.068-.039-.031-.075-.066-.119-.092l-.007-.002-.005-.004L11.175.132a1.018 1.018 0 0 0-1.002 0L5.5 2.774h-.002L.516 5.587c-.002 0-.004.003-.005.004l-.006.002c-.043.025-.078.06-.116.09-.03.024-.064.043-.09.07-.038.038-.066.082-.097.124-.021.029-.047.054-.064.084-.03.05-.047.106-.067.16-.01.028-.027.054-.035.084a.985.985 0 0 0-.031.235C.004 6.45 0 6.46 0 6.47v11.416c0 .365.197.703.516.883l9.658 5.454c.052.03.107.046.162.066.026.01.051.025.079.032a1 1 0 0 0 .52 0c.026-.007.05-.022.078-.032.055-.02.11-.036.162-.065l9.658-5.455c.318-.18.516-.517.516-.883V6.469c0-.007-.003-.013-.003-.02z" transform="translate(401.681 189.123)"/>
        <path fill="#75ACFF" d="M402.26 194.68l9.398-5.377c.272-.156.378-.196.503-.223a.88.88 0 0 1 .37 0c.125.025.231.065.504.22l9.391 5.32a.993.993 0 0 1 .008 1.723l-9.358 5.413c-.272.157-.378.198-.504.225a.88.88 0 0 1-.372.002c-.126-.026-.233-.066-.506-.222l-9.432-5.356a.993.993 0 0 1-.003-1.725z"/>
        <g>
            <path fill="url(#u)" fill-rule="nonzero" d="M19.505 50.212v11.851L.8 51.175V39.328z" transform="translate(190.844 152.57)"/>
            <path fill="url(#u)" fill-rule="nonzero" d="M38.423 50.876V62.88L19.478 51.851V39.853z" transform="matrix(-1 0 0 1 248.745 152.57)"/>
            <path fill="url(#w)" fill-rule="nonzero" d="M37.609 11.254a1.74 1.74 0 0 0-.058-.428c-.016-.06-.049-.111-.071-.168-.034-.087-.062-.175-.108-.256-.033-.056-.08-.1-.118-.152-.054-.072-.101-.148-.165-.212-.046-.045-.104-.078-.154-.118-.07-.055-.133-.116-.21-.162l-.013-.004-.009-.006L19.688.23a1.808 1.808 0 0 0-1.764 0L9.688 4.84l-.003.002L.91 9.747.9 9.754l-.01.004c-.077.044-.138.104-.205.157-.053.042-.113.075-.16.122-.066.066-.115.143-.17.217-.036.05-.082.094-.112.147-.051.087-.083.183-.118.277-.018.05-.047.096-.061.147-.037.133-.052.271-.056.412-.002.017-.008.033-.008.05V31.21c0 .638.347 1.227.909 1.541l17.016 9.518c.09.05.189.08.285.115.047.016.09.043.139.055a1.78 1.78 0 0 0 .915.001c.048-.012.092-.039.14-.056.096-.033.193-.063.285-.114l17.015-9.518c.562-.314.91-.903.91-1.541V11.288c0-.012-.005-.023-.005-.034z" transform="translate(191.532 161.648)"/>
            <path fill="#8271FF" d="M192.528 171.49l16.692-9.606c.457-.263.635-.331.845-.376.21-.046.415-.047.625-.003.21.043.39.11.85.369l16.556 9.326a1.672 1.672 0 0 1 .02 2.903l-16.619 9.666c-.458.266-.637.336-.848.382-.21.046-.416.047-.628.004-.211-.044-.391-.11-.853-.371l-16.628-9.389a1.672 1.672 0 0 1-.012-2.906z"/>
        </g>
        <g>
            <path fill="url(#u)" fill-rule="nonzero" d="M5.961 14.865v3.396l-5.716-3.12v-3.394z" transform="translate(363.149 219.233)"/>
            <path fill="url(#u)" fill-rule="nonzero" d="M11.743 15.047v3.44l-5.79-3.16v-3.438z" transform="matrix(-1 0 0 1 380.845 219.233)"/>
            <path fill="url(#v)" fill-rule="nonzero" d="M11.494 3.225a.47.47 0 0 0-.018-.123c-.005-.017-.014-.032-.021-.048-.01-.025-.02-.05-.033-.073-.01-.016-.025-.03-.036-.044-.017-.02-.031-.043-.05-.06-.015-.014-.033-.023-.048-.035-.021-.015-.04-.033-.064-.046l-.004-.001-.003-.002-5.2-2.727a.585.585 0 0 0-.54 0L2.962 1.387.277 2.793l-.003.002-.003.001c-.023.012-.042.03-.063.045-.016.012-.034.022-.048.035-.02.019-.036.04-.052.062-.012.014-.026.027-.035.042-.015.025-.025.053-.036.08-.005.014-.014.027-.019.042a.46.46 0 0 0-.017.118L0 3.234v5.708c0 .183.106.352.278.442l5.2 2.727c.028.015.058.023.087.033.015.005.028.012.043.016a.578.578 0 0 0 .28 0c.014-.003.028-.011.042-.016.03-.01.06-.018.087-.033l5.2-2.727a.502.502 0 0 0 .278-.441V3.234v-.01z" transform="translate(363.36 222.313)"/>
            <path fill="#75ACFF" d="M363.828 225.3l5.06-3.019a.814.814 0 0 1 .25-.115.44.44 0 0 1 .185-.004c.062.011.116.03.253.105l4.78 2.585a.496.496 0 0 1 .02.861l-5.04 3.037a.812.812 0 0 1-.25.117.44.44 0 0 1-.186.004.812.812 0 0 1-.254-.105l-4.8-2.603a.496.496 0 0 1-.018-.863z"/>
        </g>
        <g fill-rule="nonzero" opacity=".542">
            <path fill="url(#d)" d="M25.694 29.704L.034 14.858v202.714l25.66 14.846z" transform="translate(464 259)"/>
            <path fill="url(#e)" d="M25.67 29.653l25.66-14.846v202.734l-25.66 14.846z" transform="translate(464 259)"/>
            <path fill="#3776F6" d="M489.66 259L464 273.846l25.66 14.846 25.66-14.846z"/>
        </g>
        <g>
            <g transform="translate(392 356)">
                <mask id="y" fill="#fff">
                    <use xlink:href="#x"/>
                </mask>
                <use fill="url(#b)" xlink:href="#x"/>
                <path fill="url(#i)" d="M66.5-8.867h71.844v218.724H66.5z" mask="url(#y)"/>
            </g>
            <path fill="url(#o)" d="M47.572 24.777l75.688.325-37.414 65.382-76.944.543z" transform="rotate(30 -293.995 938.384)"/>
            <g transform="translate(410 313)">
                <path fill="url(#z)" d="M36.859 10.881l28.042 48.215-55.582.215z" opacity=".8" transform="rotate(30 37.11 35.096)"/>
                <use fill="url(#B)" transform="scale(-1 1) rotate(30 0 -192.737)" xlink:href="#A"/>
            </g>
            <use stroke="url(#D)" transform="rotate(30 -302.107 955.864)" xlink:href="#C"/>
            <path fill="#75ACFF" d="M459.204 309l4.107 2.369v4.738l-4.107 2.369-4.108-2.37v-4.737z"/>
            <path fill="url(#v)" d="M4.15 4.74v-.01l4.11-2.361v4.738L4.155 9.465v.015L.044 7.12V2.38L4.15 4.74z" transform="translate(455.054 309)"/>
            <path fill="#75ACFF" d="M459.204 361l4.107 2.369v4.738l-4.107 2.369-4.108-2.37v-4.737z"/>
            <path fill="url(#v)" d="M4.15 4.74v-.01l4.11-2.361v4.738L4.155 9.465v.015L.044 7.12V2.38L4.15 4.74z" transform="translate(455.054 361)"/>
            <g>
                <path fill="#75ACFF" d="M503.204 336l4.107 2.369v4.738l-4.107 2.369-4.108-2.37v-4.737z"/>
                <path fill="url(#v)" d="M4.15 4.74v-.01l4.11-2.361v4.738L4.155 9.465v.015L.044 7.12V2.38L4.15 4.74z" transform="translate(499.054 336)"/>
            </g>
            <g>
                <path fill="#75ACFF" d="M414.204 336l4.107 2.369v4.738l-4.107 2.369-4.108-2.37v-4.737z"/>
                <path fill="url(#v)" d="M4.15 4.74v-.01l4.11-2.361v4.738L4.155 9.465v.015L.044 7.12V2.38L4.15 4.74z" transform="translate(410.054 336)"/>
            </g>
            <path fill="url(#E)" d="M51 34.974c1.084 6.843 4.047 10.264 8.889 10.264 7.263 0 4.781-16.107 16.277-14.058C79.39 31.755 81 35.443 81 42.246v12.82L66 61l-13.867-8.881L51 34.974z" transform="translate(392 298)"/>
            <path stroke="#6886FE" stroke-linecap="square" d="M443 333.187c1.084 7.209 4.047 10.813 8.889 10.813 7.263 0 4.781-16.969 16.277-14.81 3.223.605 4.834 4.491 4.834 11.658"/>
        </g>
        <g transform="translate(64 203)">
            <path stroke="url(#F)" d="M291.636 47l-128.914 73.54-.536.348-.445.383-.346.41-.248.45-.128.449-.019.46.085.459.182.461.26.433.331.417.393.395.473.39.516.357 121.617 69.41.619.326.655.292.686.256.71.22.733.184.795.155.805.112.807.068.803.025.84-.022.818-.07.788-.12.75-.17.702-.214.682-.277L461 108"/>
            <circle cx="394.5" cy="142.5" r="1.5" fill="#FFF" fill-rule="nonzero"/>
            <circle cx="192.5" cy="103.5" r="1.5" fill="#FFF" fill-rule="nonzero"/>
            <circle cx="242.5" cy="62.5" r="1.5" fill="#FFF" fill-rule="nonzero"/>
            <g transform="translate(18.616 127.249)">
                <mask id="J" fill="#fff">
                    <use xlink:href="#G"/>
                </mask>
                <use fill="url(#H)" opacity=".4" xlink:href="#G"/>
                <path fill="url(#I)" d="M36.131 8.82l38.644-9.944v238.678l-38.644-1.139z" mask="url(#J)" opacity=".4"/>
            </g>
            <path fill="url(#K)" d="M44.639 48.874l42.068.106-21 36.434-42.305.163z" transform="rotate(30 -56.907 97.225)"/>
            <g stroke="url(#L)" stroke-linecap="square" transform="translate(0 106)">
                <path d="M54.5 28.722v224.727M107.146.854v252.595M1.652.854v252.595"/>
            </g>
            <use fill="url(#N)" transform="rotate(30 -57.868 78.43)" xlink:href="#M"/>
            <g transform="translate(9.808 65.512)">
                <path stroke="#6886FE" stroke-dasharray="2.2,3.3" stroke-linecap="square" stroke-width="1.1" d="M2.765 23.9L45.076.08M87.452 23.82L45.142 0"/>
                <ellipse cx="87.53" cy="23.702" fill="#6886FE" rx="2.753" ry="2.756"/>
                <ellipse cx="2.753" cy="23.702" fill="#6886FE" rx="2.753" ry="2.756"/>
            </g>
            <g>
                <path fill="#9EB0F9" d="M53.487 91.938l7.97 4.602v9.203l-7.97 4.602-7.97-4.602V96.54z"/>
                <path fill="#6886FE" d="M45.519 96.564l7.977 4.586v9.204l-7.977-4.587z"/>
                <path fill="#204CFC" d="M61.464 96.54l-7.977 4.586v9.204l7.977-4.587z"/>
                <path stroke="url(#O)" d="M17.487 20.1l-.575 33.165" transform="translate(37 43)"/>
                <path fill="#456AFF" d="M54.063 43L71 52.778v19.557l-16.937 9.779-16.936-9.779V52.778z" opacity=".403"/>
                <g>
                    <path fill="#9EB0F9" d="M54.353 48l12.226 7.059v14.117l-12.226 7.06-12.226-7.06V55.06z"/>
                    <path fill="#6886FE" d="M42.13 55.096l12.238 7.035v14.117L42.13 69.213z"/>
                    <path fill="#204CFC" d="M66.59 55.059l-12.237 7.035V76.21l12.237-7.035z"/>
                </g>
            </g>
            <path stroke="url(#P)" d="M2.268 32.244l-.706.462-.587.508-.455.543-.326.596-.169.595-.025.609.111.61.241.611.341.573.438.554.517.522.623.518.68.473L123.14 104.42l.815.431.863.386.903.34.937.292.964.244 1.048.205 1.059.148 1.064.091 1.058.033 1.106-.029 1.077-.094 1.038-.16.987-.222.925-.286.9-.367L247.73 45.936l.706-.462.588-.507.455-.544.327-.596.168-.595.025-.609-.11-.609-.242-.612-.341-.574-.438-.553-.518-.522-.622-.518-.679-.473L180.297 0" transform="rotate(180 125 53.295)"/>
            <circle cx="45.5" cy="92.5" r="1.5" fill="#FFF" fill-rule="nonzero"/>
            <g fill-rule="nonzero">
                <circle cx="1.5" cy="1.5" r="1.5" fill="#000" transform="translate(83 279)"/>
                <circle cx="1.5" cy="1.5" r="1.5" fill="#FFF" transform="translate(83 279)"/>
            </g>
        </g>
        <g>
            <path fill="url(#Q)" d="M67.827.56L0 38.766 68 77.53l68-38.765L69.808.57a2 2 0 0 0-1.98-.01z" transform="translate(240 83)"/>
            <path fill="url(#R)" fill-rule="nonzero" d="M68.13 153.48V76.887L0 38.63v75.422a2 2 0 0 0 1.02 1.744l67.11 37.684z" transform="translate(240 83)"/>
            <path fill="url(#S)" fill-rule="nonzero" d="M136 113.975V38.63L67.87 76.887v76.593l67.11-37.762a2 2 0 0 0 1.02-1.743z" transform="translate(240 83)"/>
            <path fill="url(#T)" fill-rule="nonzero" d="M69.19 94.564h-1.397a18.226 18.226 0 0 1-12.938-5.343 18.247 18.247 0 0 1-5.34-12.945v-1.398a18.247 18.247 0 0 1 5.34-12.946 18.226 18.226 0 0 1 12.938-5.343h1.398a18.226 18.226 0 0 1 12.938 5.343 18.247 18.247 0 0 1 5.34 12.946v1.398a18.247 18.247 0 0 1-5.34 12.945 18.226 18.226 0 0 1-12.938 5.343z" transform="translate(240 83)"/>
        </g>
    </g>
</svg>
