<svg xmlns="http://www.w3.org/2000/svg" width="64" height="64" viewBox="0 0 64 64">
    <defs>
        <linearGradient id="a" x1="-13.158%" x2="115.519%" y1="49.838%" y2="49.838%">
            <stop offset="0%" stop-color="#4285F4"/>
            <stop offset="100%" stop-color="#0069FF" stop-opacity=".2"/>
        </linearGradient>
    </defs>
    <g fill="none" fill-rule="evenodd">
        <path d="M-1-2h65v65H-1z"/>
        <g transform="translate(5 4)">
            <rect width="36.61" height="36.61" x=".915" y="17.39" fill="url(#a)" opacity=".5" rx="4"/>
            <path fill="url(#a)" d="M4.601.601h44.916a4 4 0 0 1 2.829 6.829L7.43 52.346A4 4 0 0 1 .6 49.517V4.601a4 4 0 0 1 4-4z" transform="rotate(-180 27.3 27.3)"/>
            <path fill="url(#a)" fill-rule="nonzero" d="M17.472 9.167V6.735C17.472 3.022 14.356 0 10.524 0c-3.83 0-6.946 3.022-6.946 6.735v2.432H0v18.29h21.05V9.168h-3.578zM5.616 6.735c0-2.624 2.202-4.759 4.908-4.759 2.709 0 4.91 2.135 4.91 4.759v2.393H5.617V6.735z" transform="translate(.915)"/>
            <path fill="#1A1A54" d="M10.073 18.002c.016.37 0 .739.006 1.11.013.438-.065.912.16 1.315.247.471.81.76 1.352.695.502-.047.95-.397 1.123-.856.08-.202.084-.424.086-.635 0-.553-.002-1.104.002-1.657.459-.412.728-1.025.663-1.635-.053-.736-.578-1.406-1.284-1.666-.761-.298-1.693-.094-2.239.503a1.924 1.924 0 0 0-.352 2.145c.105.263.322.455.483.68z"/>
        </g>
    </g>
</svg>
