<?xml version="1.0" encoding="UTF-8"?>
<svg width="18px" height="19px" viewBox="0 0 18 19" version="1.1" xmlns="http://www.w3.org/2000/svg" xmlns:xlink="http://www.w3.org/1999/xlink">
    <!-- Generator: Sketch 49.3 (51167) - http://www.bohemiancoding.com/sketch -->
    <title>Group 37</title>
    <desc>Created with Sketch.</desc>
    <defs></defs>
    <g id="Page-1" stroke="none" stroke-width="1" fill="none" fill-rule="evenodd">
        <g id="纸贵BaaS_登录后" transform="translate(-358.000000, -5215.000000)" fill="#FFFFFF">
            <g id="Group-37" transform="translate(357.000000, 5214.000000)">
                <g id="Group-38" transform="translate(1.000000, 1.000000)">
                    <path d="M8.98584807,0 L0,2.78122016 L0,2.78245454 L0.569064924,7.67740201 L8.98506185,13.5714286 L17.4974492,7.67663052 L18,2.78014007 L9.06997344,0.025767754 L8.98584807,0 Z M1.09756098,7.37173782 L0.609004822,3.16927944 L8.98616256,0.575994166 L17.3968132,3.17020523 L16.9658082,7.3726636 L8.98679153,12.8974552 L1.09756098,7.37173782 Z" id="Fill-5"></path>
                    <polygon id="Fill-6" points="0.545454545 7.55484855 3.59116707 15.158178 8.98573033 19 14.5383576 15.096145 17.4545455 7.62813177 16.9342513 7.42593883 14.0789056 14.7381667 8.98792566 18.3171691 4.04905105 14.8001996 1.28685025 7.90438919 8.98933695 5.46854246 14.7251179 7.1756196 14.8850636 6.64216776 8.98431904 4.88571429"></polygon>
                    <polygon id="Fill-7" points="8.72727273 5.42857143 9.27272727 5.42857143 9.27272727 0.542857143 8.72727273 0.542857143"></polygon>
                    <polygon id="Fill-8" points="8.72727273 18.4571429 9.27272727 18.4571429 9.27272727 13.0285714 8.72727273 13.0285714"></polygon>
                </g>
            </g>
        </g>
    </g>
</svg>