<?xml version="1.0" encoding="UTF-8"?>
<svg width="64px" height="63px" viewBox="0 0 64 63" version="1.1" xmlns="http://www.w3.org/2000/svg" xmlns:xlink="http://www.w3.org/1999/xlink">
    <!-- Generator: Sketch 49.3 (51167) - http://www.bohemiancoding.com/sketch -->
    <title>拓展</title>
    <desc>Created with Sketch.</desc>
    <defs>
        <linearGradient x1="-13.1579%" y1="49.8382%" x2="115.518784%" y2="49.8382%" id="linearGradient-1">
            <stop stop-color="#4285F4" offset="0%"></stop>
            <stop stop-color="#0069FF" stop-opacity="0.2" offset="100%"></stop>
        </linearGradient>
    </defs>
    <g id="产品" stroke="none" stroke-width="1" fill="none" fill-rule="evenodd">
        <g id="纸贵BaaS_zig" transform="translate(-360.000000, -1236.000000)">
            <g id="Group-13" transform="translate(359.000000, 825.000000)">
                <g id="Group-29" transform="translate(0.000000, 411.000000)">
                    <g id="Group-24" transform="translate(1.000000, 0.000000)">
                        <g>
                            <rect id="Rectangle-14" fill="url(#linearGradient-1)" x="16" y="0" width="48" height="48" rx="4"></rect>
                            <rect id="Rectangle-14" fill="url(#linearGradient-1)" x="0" y="31" width="32" height="32" rx="4"></rect>
                            <path d="M2,51 L10,51 C11.1045695,51 12,51.8954305 12,53 L12,61 C12,62.1045695 11.1045695,63 10,63 L4,63 C1.790861,63 2.705415e-16,61.209139 0,59 L0,53 C-1.3527075e-16,51.8954305 0.8954305,51 2,51 Z" id="Rectangle-14" fill="#1A1A54"></path>
                            <polygon id="Rectangle-14" fill="#1A1A54" points="38 17 48 17 48 27 43 22"></polygon>
                            <path d="M9,54 L43,22" id="Path-4" stroke="#1A1A54" stroke-width="2"></path>
                        </g>
                    </g>
                </g>
            </g>
        </g>
    </g>
</svg>