<?xml version="1.0" encoding="UTF-8"?>
<svg width="524px" height="566px" viewBox="0 0 524 566" version="1.1" xmlns="http://www.w3.org/2000/svg" xmlns:xlink="http://www.w3.org/1999/xlink">
    <!-- Generator: Sketch 49.3 (51167) - http://www.bohemiancoding.com/sketch -->
    <title>img</title>
    <desc>Created with Sketch.</desc>
    <defs>
        <rect id="path-1" x="0" y="0" width="693" height="640"></rect>
        <linearGradient x1="50%" y1="15.6380208%" x2="50%" y2="100%" id="linearGradient-3">
            <stop stop-color="#2265D2" offset="0%"></stop>
            <stop stop-color="#0069FF" stop-opacity="0" offset="100%"></stop>
        </linearGradient>
        <linearGradient x1="51.4003992%" y1="82.5267036%" x2="51.4003992%" y2="10.4331459%" id="linearGradient-4">
            <stop stop-color="#283DE1" stop-opacity="0" offset="0%"></stop>
            <stop stop-color="#176CFD" offset="100%"></stop>
        </linearGradient>
        <linearGradient x1="47.6904005%" y1="76.2372526%" x2="47.6904005%" y2="9.66627959%" id="linearGradient-5">
            <stop stop-color="#293CE0" stop-opacity="0" offset="0%"></stop>
            <stop stop-color="#293CE0" offset="100%"></stop>
        </linearGradient>
        <linearGradient x1="76.4899976%" y1="83.0677083%" x2="0%" y2="32.3463542%" id="linearGradient-6">
            <stop stop-color="#00FFFF" offset="0%"></stop>
            <stop stop-color="#00FFFF" stop-opacity="0" offset="100%"></stop>
        </linearGradient>
        <linearGradient x1="73.2718264%" y1="89.8141112%" x2="31.028904%" y2="5.22952992%" id="linearGradient-7">
            <stop stop-color="#0092FF" offset="0%"></stop>
            <stop stop-color="#008BFF" offset="100%"></stop>
        </linearGradient>
        <linearGradient x1="76.2513408%" y1="73.2303399%" x2="2.18377022%" y2="-4.20541681%" id="linearGradient-8">
            <stop stop-color="#003CA2" offset="0%"></stop>
            <stop stop-color="#0178FF" offset="100%"></stop>
        </linearGradient>
        <linearGradient x1="50%" y1="15.6380208%" x2="42.9208351%" y2="104.028156%" id="linearGradient-9">
            <stop stop-color="#0F59C1" offset="0%"></stop>
            <stop stop-color="#0069FF" stop-opacity="0" offset="100%"></stop>
        </linearGradient>
        <linearGradient x1="170.557925%" y1="84.038%" x2="10.8174805%" y2="21.672%" id="linearGradient-10">
            <stop stop-color="#021755" stop-opacity="0" offset="0%"></stop>
            <stop stop-color="#0097FF" offset="100%"></stop>
        </linearGradient>
        <linearGradient x1="76.1536846%" y1="71.9793714%" x2="20.2633225%" y2="21.2772149%" id="linearGradient-11">
            <stop stop-color="#003CA2" offset="0%"></stop>
            <stop stop-color="#0178FF" offset="100%"></stop>
        </linearGradient>
        <linearGradient x1="84.5327552%" y1="24.123%" x2="15.8427172%" y2="52.09%" id="linearGradient-12">
            <stop stop-color="#021755" stop-opacity="0" offset="0%"></stop>
            <stop stop-color="#67C1FF" offset="100%"></stop>
        </linearGradient>
        <linearGradient x1="73.2718264%" y1="89.8141112%" x2="32.5483444%" y2="8.27196213%" id="linearGradient-13">
            <stop stop-color="#0092FF" offset="0%"></stop>
            <stop stop-color="#008BFF" offset="100%"></stop>
        </linearGradient>
        <linearGradient x1="73.2789993%" y1="76.9122227%" x2="18.487669%" y2="24.5378037%" id="linearGradient-14">
            <stop stop-color="#003CA2" offset="0%"></stop>
            <stop stop-color="#0178FF" offset="100%"></stop>
        </linearGradient>
        <linearGradient x1="81.2807781%" y1="50%" x2="16.6105901%" y2="50%" id="linearGradient-15">
            <stop stop-color="#4285F4" offset="0%"></stop>
            <stop stop-color="#66A1F7" offset="100%"></stop>
        </linearGradient>
        <linearGradient x1="50%" y1="-82.564%" x2="50%" y2="256.864%" id="linearGradient-16">
            <stop stop-color="#021755" offset="0%"></stop>
            <stop stop-color="#0097FF" stop-opacity="0" offset="100%"></stop>
        </linearGradient>
        <linearGradient x1="33.092%" y1="22.586%" x2="33.092%" y2="289.819%" id="linearGradient-17">
            <stop stop-color="#021755" offset="0%"></stop>
            <stop stop-color="#0097FF" stop-opacity="0" offset="100%"></stop>
        </linearGradient>
        <linearGradient x1="50%" y1="0%" x2="50%" y2="100%" id="linearGradient-18">
            <stop stop-color="#FFFFFF" stop-opacity="0" offset="0%"></stop>
            <stop stop-color="#FFFFFF" stop-opacity="0.208220109" offset="100%"></stop>
        </linearGradient>
        <linearGradient x1="50%" y1="100%" x2="50%" y2="0.687269478%" id="linearGradient-19">
            <stop stop-color="#00E6CB" stop-opacity="0.15" offset="0%"></stop>
            <stop stop-color="#00E6CB" stop-opacity="0" offset="100%"></stop>
        </linearGradient>
        <linearGradient x1="-1.70530257e-10%" y1="-2.05479452%" x2="-1.70530257e-10%" y2="102.143173%" id="linearGradient-20">
            <stop stop-color="#FFFFFF" stop-opacity="0.7" offset="0%"></stop>
            <stop stop-color="#FFFFFF" stop-opacity="0" offset="100%"></stop>
        </linearGradient>
        <linearGradient x1="57.9752066%" y1="36.7219153%" x2="38.9876033%" y2="68.3241252%" id="linearGradient-21">
            <stop stop-color="#00FFFF" stop-opacity="0.1" offset="0%"></stop>
            <stop stop-color="#00FFFF" stop-opacity="0" offset="100%"></stop>
        </linearGradient>
        <linearGradient x1="50%" y1="0%" x2="50%" y2="100%" id="linearGradient-22">
            <stop stop-color="#2A39DD" offset="0%"></stop>
            <stop stop-color="#4B94EF" offset="100%"></stop>
        </linearGradient>
        <linearGradient x1="50%" y1="0%" x2="50%" y2="100%" id="linearGradient-23">
            <stop stop-color="#8271FF" offset="0%"></stop>
            <stop stop-color="#C0A0FF" offset="100%"></stop>
        </linearGradient>
        <linearGradient x1="50%" y1="100%" x2="50%" y2="-2.48949813e-15%" id="linearGradient-24">
            <stop stop-color="#0178FF" offset="0%"></stop>
            <stop stop-color="#0092FF" offset="100%"></stop>
        </linearGradient>
        <linearGradient x1="100%" y1="85.1056026%" x2="35.748444%" y2="50%" id="linearGradient-25">
            <stop stop-color="#0178FF" offset="0%"></stop>
            <stop stop-color="#0092FF" offset="100%"></stop>
        </linearGradient>
        <linearGradient x1="73.2718264%" y1="89.8141112%" x2="31.028904%" y2="5.22952992%" id="linearGradient-26">
            <stop stop-color="#0092FF" offset="0%"></stop>
            <stop stop-color="#00E7FF" offset="100%"></stop>
        </linearGradient>
        <linearGradient x1="50%" y1="88.019422%" x2="73.2789967%" y2="0%" id="linearGradient-27">
            <stop stop-color="#003CA2" offset="0%"></stop>
            <stop stop-color="#0178FF" offset="100%"></stop>
        </linearGradient>
        <linearGradient x1="-13.1579%" y1="49.8382%" x2="115.518784%" y2="49.8382%" id="linearGradient-28">
            <stop stop-color="#4285F4" offset="0%"></stop>
            <stop stop-color="#0069FF" stop-opacity="0.2" offset="100%"></stop>
        </linearGradient>
        <polygon id="path-29" points="0 0 132 0 132 210 0 209.577778"></polygon>
        <linearGradient x1="15.900896%" y1="50%" x2="96.0141795%" y2="240.536051%" id="linearGradient-31">
            <stop stop-color="#021755" offset="0%"></stop>
            <stop stop-color="#0097FF" stop-opacity="0" offset="100%"></stop>
        </linearGradient>
        <linearGradient x1="15.900896%" y1="50%" x2="130.827935%" y2="261.365124%" id="linearGradient-32">
            <stop stop-color="#021755" offset="0%"></stop>
            <stop stop-color="#0097FF" stop-opacity="0" offset="100%"></stop>
        </linearGradient>
        <polygon id="path-33" points="60.9399032 10.7985885 88.8280158 59.1022164 33.2465914 59.316917"></polygon>
        <linearGradient x1="47.8517052%" y1="82.821%" x2="96.8572725%" y2="7.41370958%" id="linearGradient-35">
            <stop stop-color="#00FFFF" offset="0%"></stop>
            <stop stop-color="#00FFFF" stop-opacity="0" offset="100%"></stop>
        </linearGradient>
        <polygon id="path-36" points="35.2851018 17.6291018 90.5539493 17.7689475 62.9653716 65.7434424 7.38394727 65.958143"></polygon>
        <linearGradient x1="51.1914968%" y1="0%" x2="54.6265641%" y2="83.8539631%" id="linearGradient-38">
            <stop stop-color="#BECAF9" offset="0%"></stop>
            <stop stop-color="#B7C6FF" offset="0%"></stop>
            <stop stop-color="#6886FE" stop-opacity="0" offset="100%"></stop>
        </linearGradient>
        <linearGradient x1="47.8517052%" y1="82.821%" x2="51.2744822%" y2="50%" id="linearGradient-39">
            <stop stop-color="#00FFFF" offset="0%"></stop>
            <stop stop-color="#00FFFF" stop-opacity="0" offset="100%"></stop>
        </linearGradient>
        <linearGradient x1="73.2789993%" y1="6.84625574%" x2="73.2789993%" y2="94.9423445%" id="linearGradient-40">
            <stop stop-color="#003CA2" offset="0%"></stop>
            <stop stop-color="#0178FF" stop-opacity="0" offset="100%"></stop>
        </linearGradient>
        <path d="M72.5702874,210.304265 L73.2800547,210.679098 L72.5702874,211.102357 L72.5702874,211.370732 L72.1202466,211.370732 L37.4358932,232.054205 L1.84120739,211.691878 L2.37948138,211.370732 L0,211.370732 L0,-2.27373675e-13 L72.5702874,-2.27373675e-13 L72.5702874,210.304265 Z" id="path-41"></path>
        <linearGradient x1="37.048313%" y1="102.214563%" x2="37.0483135%" y2="8.88853895%" id="linearGradient-43">
            <stop stop-color="#003CA2" stop-opacity="0" offset="0%"></stop>
            <stop stop-color="#0178FF" offset="100%"></stop>
        </linearGradient>
        <linearGradient x1="5.27579502%" y1="62.3856122%" x2="82.8307682%" y2="50%" id="linearGradient-44">
            <stop stop-color="#114AA4" offset="0%"></stop>
            <stop stop-color="#0061EA" offset="100%"></stop>
        </linearGradient>
        <linearGradient x1="0%" y1="-8.15020676%" x2="50%" y2="98.799084%" id="linearGradient-45">
            <stop stop-color="#0462F5" offset="0%"></stop>
            <stop stop-color="#00ECFF" stop-opacity="0" offset="100%"></stop>
        </linearGradient>
        <linearGradient x1="95.1793427%" y1="7.83296982%" x2="16.6105901%" y2="50%" id="linearGradient-46">
            <stop stop-color="#4285F4" offset="0%"></stop>
            <stop stop-color="#66A1F7" offset="100%"></stop>
        </linearGradient>
        <polygon id="path-47" points="38.338084 19.6852278 99.9550867 19.8407845 69.1976973 73.2050155 7.23221529 73.4438368"></polygon>
        <linearGradient x1="33.1525937%" y1="64.6991115%" x2="33.1525952%" y2="115.52026%" id="linearGradient-49">
            <stop stop-color="#00FFFF" offset="0%"></stop>
            <stop stop-color="#00FFFF" stop-opacity="0" offset="100%"></stop>
        </linearGradient>
        <linearGradient x1="50%" y1="86.7137%" x2="44.2963381%" y2="21.9658%" id="linearGradient-50">
            <stop stop-color="#00FFFF" offset="0%"></stop>
            <stop stop-color="#00FFFF" stop-opacity="0" offset="97.3672%"></stop>
        </linearGradient>
    </defs>
    <g id="产品" stroke="none" stroke-width="1" fill="none" fill-rule="evenodd">
        <g id="纸贵BaaS_zig" transform="translate(-1033.000000, -74.000000)">
            <g id="img" transform="translate(982.000000, 0.000000)">
                <g id="Group-19">
                    <mask id="mask-2" fill="white">
                        <use xlink:href="#path-1"></use>
                    </mask>
                    <g id="Mask"></g>
                    <polyline id="Path-3" fill="url(#linearGradient-3)" mask="url(#mask-2)" points="243 342 243 656.192616 474 656.192616 474 331"></polyline>
                    <polyline id="Path-3" fill="url(#linearGradient-3)" mask="url(#mask-2)" points="243 342 243 656.192616 359 656.192616 359 331"></polyline>
                    <g id="Group" opacity="0.719157609" mask="url(#mask-2)" fill-rule="nonzero">
                        <g transform="translate(173.000000, 542.000000)" id="Shape">
                            <polygon fill="url(#linearGradient-4)" points="25.6944381 29.7041537 0.0342952381 14.8584596 0.0342952381 217.572054 25.6944381 232.417872"></polygon>
                            <polygon fill="url(#linearGradient-5)" points="25.6696762 29.6528441 51.329819 14.8070261 51.329819 217.540946 25.6696762 232.38664"></polygon>
                            <polygon fill="#3776F6" points="25.660019 0 0 14.8464378 25.660019 29.6922559 51.3201619 14.8464378"></polygon>
                        </g>
                    </g>
                    <g id="Group" opacity="0.36" mask="url(#mask-2)" fill-rule="nonzero">
                        <g transform="translate(51.000000, 472.000000)" id="Shape">
                            <polygon fill="url(#linearGradient-4)" points="25.6944381 29.7041537 0.0342952381 14.8584596 0.0342952381 217.572054 25.6944381 232.417872"></polygon>
                            <polygon fill="url(#linearGradient-5)" points="25.6696762 29.6528441 51.329819 14.8070261 51.329819 217.540946 25.6696762 232.38664"></polygon>
                            <polygon fill="#3776F6" points="25.660019 0 0 14.8464378 25.660019 29.6922559 51.3201619 14.8464378"></polygon>
                        </g>
                    </g>
                    <polyline id="Shape" stroke="url(#linearGradient-6)" mask="url(#mask-2)" transform="translate(322.000000, 587.769832) scale(-1, -1) rotate(180.000000) translate(-322.000000, -587.769832) " points="191.722102 549.539664 191.186008 549.888347 190.74057 550.271124 190.395128 550.681101 190.146943 551.13108 190.019177 551.57995 190 552.039159 190.084555 552.49886 190.267487 552.960408 190.526381 553.392786 190.858374 553.810148 191.251385 554.20474 191.72397 554.595025 192.24014 554.952078 313.856845 624.362922 314.475875 624.688343 315.13077 624.979549 315.816796 625.2358 316.527853 625.456235 317.259581 625.639993 318.055442 625.794827 318.859521 625.906706 319.667087 625.975261 320.47017 626 321.309864 625.978215 322.12814 625.907075 322.91603 625.787073 323.665566 625.618823 324.367657 625.403681 325.050196 625.126629 454 551.570473"></polyline>
                </g>
                <g id="主要" transform="translate(95.000000, 27.000000)">
                    <g id="Group" transform="translate(147.326787, 0.000000)"></g>
                    <g id="Group" transform="translate(147.085106, 236.165192)" fill-rule="nonzero">
                        <g transform="translate(0.114839, 0.060221)">
                            <g transform="translate(0.000000, 0.400251)">
                                <g id="Group-6" transform="translate(1.000000, 198.000000)">
                                    <polygon id="Shape" fill="url(#linearGradient-7)" points="0.158756137 105.430233 0.158756137 67.2917227 115.529487 0.264896755 230.898895 67.2917227 230.898895 105.430233 115.432911 172.549773"></polygon>
                                    <polygon id="Shape" fill="url(#linearGradient-8)" opacity="0.4" points="11 60.5206329 115.000596 0 219 60.3958255 114.913538 121"></polygon>
                                    <polygon id="Shape" fill="url(#linearGradient-9)" points="115.590344 172.533879 115.590344 134.783442 230.441148 67.473177 230.681929 104.936201"></polygon>
                                    <polygon id="Shape" fill="url(#linearGradient-3)" points="0 105.386525 0.186538462 67.3685428 115.630033 134.666888 115.370731 172.413351"></polygon>
                                    <polygon id="Shape" fill="url(#linearGradient-10)" opacity="0.379" points="0 105.386525 0.186538462 67.3685428 115.630033 134.666888 115.370731 172.413351"></polygon>
                                </g>
                                <g id="Group-6" transform="translate(1.000000, 134.000000)">
                                    <polygon id="Shape" fill="url(#linearGradient-7)" points="0.158756137 105.430233 0.158756137 67.2917227 115.529487 0.264896755 230.898895 67.2917227 230.898895 105.430233 115.432911 172.549773"></polygon>
                                    <polygon id="Shape" fill="url(#linearGradient-11)" opacity="0.4" points="11 60.5206329 115.000596 -2.27373675e-13 219 60.3958255 114.913538 121"></polygon>
                                    <polygon id="Shape" fill="url(#linearGradient-9)" points="115.590344 172.533879 115.590344 134.783442 230.441148 67.473177 230.681929 104.936201"></polygon>
                                    <polygon id="Shape" fill="url(#linearGradient-12)" opacity="0.379" points="0 105.386525 0.186538462 67.3685428 115.630033 134.666888 115.370731 172.413351"></polygon>
                                    <polygon id="Shape" fill="url(#linearGradient-3)" points="0 105.386525 0.186538462 67.3685428 115.630033 134.666888 115.370731 172.413351"></polygon>
                                </g>
                                <g id="Group-6" transform="translate(1.000000, 71.000000)">
                                    <polygon id="Shape" fill="url(#linearGradient-13)" points="0.158756137 105.430233 0.158756137 67.2917227 115.529487 0.264896755 230.898895 67.2917227 230.898895 105.430233 115.432911 172.549773"></polygon>
                                    <polygon id="Shape" fill="url(#linearGradient-14)" opacity="0.4" points="11 60.5206329 115.000596 0 219 60.3958255 114.913538 121"></polygon>
                                    <polygon id="Shape" fill="url(#linearGradient-9)" points="115.590344 172.533879 115.590344 134.783442 230.441148 67.473177 230.681929 104.936201"></polygon>
                                    <polygon id="Shape" fill="url(#linearGradient-12)" opacity="0.379" points="0 105.386525 0.186538462 67.3685428 115.630033 134.666888 115.370731 172.413351"></polygon>
                                    <polygon id="Shape" fill="url(#linearGradient-3)" points="0 105.386525 0.186538462 67.3685428 115.630033 134.666888 115.370731 172.413351"></polygon>
                                </g>
                                <polygon id="Shape" fill="url(#linearGradient-15)" points="1.15875614 105.430233 1.15875614 67.2917227 116.529487 0.264896755 231.898895 67.2917227 231.898895 105.430233 116.432911 172.549773"></polygon>
                                <polygon id="Shape" fill="url(#linearGradient-15)" points="1.15875614 105.430233 1.15875614 67.2917227 116.529487 0.264896755 231.898895 67.2917227 231.898895 105.430233 116.432911 172.549773"></polygon>
                                <polygon id="Shape" fill="url(#linearGradient-9)" points="116.590344 172.533879 116.590344 134.783442 231.800055 67.3743363 231.895636 105.433113"></polygon>
                                <polygon id="Shape" fill="url(#linearGradient-3)" points="0.742437368 105.266182 1 67.2229691 116.630033 134.666888 116.370731 172.413351"></polygon>
                                <g transform="translate(63.626650, 37.488189)" id="Shape">
                                    <polygon fill="url(#linearGradient-16)" points="104.866367 31.145236 104.994694 31.0564956 52.7864157 0.725817109 52.7864157 0.75760472 52.9226814 0.837073746 52.9226814 61.4533982 52.7983224 61.5249204 52.8327196 61.5461121"></polygon>
                                    <polygon fill="url(#linearGradient-17)" opacity="0.379" points="52.9226814 61.4520737 52.9226814 0.837073746 52.7864157 0.75760472 0.649577196 31.0472242 0.649577196 31.1253687 52.7983224 61.5249204"></polygon>
                                </g>
                            </g>
                        </g>
                    </g>
                    <g id="img_ethereum" transform="translate(0.000000, 43.735178)">
                        <g id="Group-7" opacity="0.72" style="mix-blend-mode: lighten;" transform="translate(148.000000, 0.264822)">
                            <polygon id="Path-10" fill="url(#linearGradient-18)" points="0 96 0 259.695378 115.595297 327 231 259.695378 229.856436 96"></polygon>
                            <polygon id="Rectangle-15" fill="url(#linearGradient-19)" points="84.1869565 0 113.313043 0 113.313043 291 84.1869565 273.92126"></polygon>
                            <polygon id="Shape" fill="url(#linearGradient-19)" fill-rule="nonzero" points="200.869565 243 117.041762 193.231441 27.1173913 243 27.1173913 19 200.869565 19"></polygon>
                            <path d="M114.495652,249 L114.495652,274" id="Shape" stroke="#FFFFFF" stroke-width="2" stroke-linecap="round" stroke-dasharray="0"></path>
                            <path d="M148.643478,264 L148.643478,230" id="Shape" stroke="url(#linearGradient-20)" stroke-width="2" stroke-linecap="round"></path>
                            <path d="M91.3956522,265 L91.3956522,231" id="Shape" stroke="url(#linearGradient-20)" stroke-width="2" stroke-linecap="round"></path>
                        </g>
                        <g id="Group-12" transform="translate(357.290780, 187.003953)">
                            <polygon id="Shape" fill="url(#linearGradient-21)" fill-rule="nonzero" points="11.0709525 28.9561033 11.0709525 35.7472226 0.454339197 29.5075271 0.454339197 22.7189841"></polygon>
                            <polygon id="Shape" fill="url(#linearGradient-21)" fill-rule="nonzero" transform="translate(16.431934, 29.600517) scale(-1, 1) translate(-16.431934, -29.600517) " points="21.8082815 29.3199664 21.8082815 36.1981325 11.0555871 29.8784582 11.0555871 23.0029014"></polygon>
                            <g id="Group-10">
                                <g id="package-copy-2" transform="translate(0.390285, 5.383944)" fill="url(#linearGradient-22)" fill-rule="nonzero">
                                    <path d="M21.3461785,6.44910497 C21.3446536,6.3653866 21.3344875,6.282683 21.3131388,6.20403847 C21.3039893,6.17004374 21.2856904,6.14010808 21.2729829,6.1076355 C21.2536673,6.05791187 21.23791,6.00717346 21.2114782,5.96100151 C21.1931793,5.92903632 21.1667476,5.90315973 21.1448905,5.87373146 C21.1143924,5.83263335 21.0874523,5.78899832 21.0508545,5.75246667 C21.0249311,5.72659008 20.9918914,5.70781687 20.9634264,5.6844772 C20.9242871,5.65301939 20.8881976,5.61800989 20.8439752,5.59213331 C20.841942,5.59111854 20.8394005,5.59061116 20.8373673,5.58959639 C20.8353341,5.58858162 20.8343175,5.58705947 20.8322843,5.5860447 L11.17453,0.131666161 C10.863957,-0.0438887203 10.4837464,-0.0438887203 10.1731734,0.131666161 L5.4988203,2.77412229 C5.498312,2.77412229 5.4978037,2.77462968 5.49729539,2.77462968 L0.515927399,5.58553731 C0.513894188,5.58655208 0.512369279,5.58858162 0.510844371,5.58959639 C0.508811159,5.59061116 0.506269645,5.59111854 0.504744737,5.59213331 C0.461538994,5.61699513 0.4269744,5.65149724 0.388851685,5.68194028 C0.358861817,5.70578733 0.324805525,5.72506793 0.298373777,5.75195928 C0.260759365,5.7895057 0.232802708,5.83364812 0.201796234,5.87626838 C0.180955817,5.90468188 0.155032371,5.93005108 0.137750074,5.96049413 C0.108776811,6.01021776 0.0909862113,6.06552263 0.0711623999,6.11930534 C0.0604880399,6.14771884 0.0442223485,6.17410281 0.0360895028,6.20353109 C0.0152490857,6.2796387 0.00660793714,6.35879061 0.00457472571,6.43946467 C0.00355812,6.44910497 0,6.45823788 0,6.46838556 L0,17.8845267 C0,18.2503506 0.197221508,18.587761 0.515927399,18.7678823 L10.1736817,24.2222609 C10.2255286,24.2511817 10.2809336,24.2684328 10.3358303,24.2877134 C10.362262,24.2973537 10.3871689,24.3125752 10.4146172,24.3196786 C10.4995038,24.3425109 10.5869319,24.3541807 10.67436,24.3541807 C10.7617881,24.3541807 10.8492162,24.3425109 10.9341027,24.320186 C10.9610428,24.3130826 10.9859496,24.2978611 11.0128897,24.2882208 C11.0677864,24.2689402 11.1231914,24.2516891 11.1750383,24.2227682 L20.8327926,18.7683897 C21.1514985,18.5882684 21.34872,18.250858 21.34872,17.8850341 L21.34872,6.46889295 C21.34872,6.46178957 21.3461785,6.45570096 21.3461785,6.44910497 Z" id="Shape"></path>
                                </g>
                                <path d="M4.51103688,4.05387962 L14.9596002,6.89703273 C15.2618462,6.97927673 15.3652975,7.02574925 15.4723289,7.09512903 C15.5793603,7.16450881 15.6652985,7.25008205 15.7351333,7.35681713 C15.804968,7.46355221 15.8518804,7.56680479 15.9354102,7.86869797 L18.8136797,18.2713326 C18.9598781,18.7997225 18.6500507,19.3465844 18.1216608,19.4927827 C17.9513429,19.5399074 17.7715326,19.5407118 17.6007999,19.4951128 L7.15671702,16.7057252 C6.85281735,16.6245602 6.74869652,16.5782195 6.64096468,16.5088116 C6.53323284,16.4394037 6.44669814,16.3535544 6.37643583,16.2463778 C6.30617352,16.1392013 6.25900637,16.0354522 6.17542752,15.7322075 L3.29339856,5.27549533 C3.14772623,4.74696018 3.45809787,4.20040703 3.98663302,4.0547347 C4.15819756,4.00744891 4.33931905,4.00715357 4.51103688,4.05387962 Z" id="Rectangle-6-Copy" fill="#75ACFF" transform="translate(11.053671, 11.773890) rotate(-45.000000) translate(-11.053671, -11.773890) "></path>
                            </g>
                        </g>
                        <g id="Group-11" transform="translate(146.843972, 155.833992)">
                            <polygon id="Shape" fill="url(#linearGradient-21)" fill-rule="nonzero" points="19.5054085 50.2123834 19.5054085 62.0630304 0.800479597 51.1746296 0.800479597 39.3284782"></polygon>
                            <polygon id="Shape" fill="url(#linearGradient-21)" fill-rule="nonzero" transform="translate(28.950679, 51.366022) scale(-1, 1) translate(-28.950679, -51.366022) " points="38.4230207 50.8764553 38.4230207 62.8790009 19.4783369 51.8510353 19.4783369 39.8530431"></polygon>
                            <g id="Group-10">
                                <g id="package-copy-2" transform="translate(0.687626, 9.078465)" fill="url(#linearGradient-23)" fill-rule="nonzero">
                                    <path d="M37.6088624,11.2538248 C37.6061757,11.1077345 37.5882646,10.9634149 37.5506512,10.8261786 C37.5345312,10.766857 37.5022912,10.7146187 37.4799023,10.6579534 C37.4458712,10.5711846 37.418109,10.482645 37.3715401,10.4020739 C37.3393001,10.346294 37.2927312,10.3011388 37.2542223,10.2497858 C37.200489,10.1780688 37.1530245,10.1019247 37.0885445,10.0381762 C37.0428712,9.99302102 36.98466,9.96026137 36.9345089,9.91953316 C36.8655511,9.86463861 36.8019667,9.80354629 36.7240533,9.7583911 C36.7204711,9.75662031 36.7159933,9.75573491 36.7124111,9.75396412 C36.7088289,9.75219333 36.7070378,9.74953714 36.7034555,9.74776635 L19.6878969,0.22976024 C19.1407124,-0.0765867468 18.4708367,-0.0765867468 17.9236521,0.22976024 L9.68812176,4.84090218 C9.6872262,4.84090218 9.68633064,4.84178757 9.68543509,4.84178757 L0.908989054,9.74688095 C0.905406831,9.74865174 0.902720164,9.75219333 0.900033496,9.75396412 C0.896451274,9.75573491 0.891973495,9.75662031 0.889286828,9.7583911 C0.813164592,9.8017755 0.752266803,9.86198242 0.685100124,9.91510618 C0.632262337,9.95671978 0.572260104,9.99036483 0.525691206,10.0372908 C0.459420083,10.1028101 0.410164519,10.1798396 0.35553562,10.2542128 C0.318817836,10.303795 0.273144494,10.3480648 0.2426956,10.4011885 C0.191648924,10.4879573 0.160304473,10.5844655 0.1253778,10.6783175 C0.10657113,10.7278996 0.0779133475,10.7739402 0.063584456,10.8252932 C0.0268666715,10.9581026 0.0116422243,11.0962243 0.00806000146,11.2370023 C0.00626889002,11.2538248 0,11.2697619 0,11.2874698 L0,31.208878 C0,31.8472484 0.347475619,32.4360367 0.908989054,32.7503523 L17.9245477,42.2683584 C18.0158944,42.3188259 18.1135099,42.3489294 18.21023,42.3825745 C18.2567989,42.399397 18.3006811,42.4259589 18.3490411,42.4383544 C18.4985989,42.4781972 18.6526345,42.4985613 18.8066701,42.4985613 C18.9607057,42.4985613 19.1147412,42.4781972 19.264299,42.4392398 C19.3117635,42.4268442 19.3556457,42.4002824 19.4031102,42.3834598 C19.4998302,42.3498148 19.5974458,42.3197113 19.6887925,42.2692438 L36.7043511,32.7512377 C37.2658645,32.4369221 37.6133401,31.8481338 37.6133401,31.2097634 L37.6133401,11.2883552 C37.6133401,11.2759597 37.6088624,11.2653349 37.6088624,11.2538248 Z" id="Shape"></path>
                                </g>
                                <path d="M7.82010383,6.72324288 L26.4145519,11.734626 C26.9240892,11.8719512 27.0985657,11.9498199 27.2791686,12.0662651 C27.4597715,12.1827103 27.6049059,12.3265218 27.7229999,12.506051 C27.8410938,12.6855801 27.9205568,12.8593363 28.0625417,13.3675949 L33.1753178,31.6696268 C33.4238377,32.5592451 32.9041248,33.4818884 32.0145065,33.7304083 C31.727701,33.810529 31.4247046,33.8126209 31.1368202,33.7364678 L12.5502868,28.8198371 C12.0379846,28.6843196 11.8623877,28.606672 11.6806125,28.4901801 C11.4988373,28.3736881 11.3527044,28.2294144 11.2338945,28.0491456 C11.1150847,27.8688769 11.0351953,27.6942886 10.8931294,27.1837635 L5.77363923,8.78646002 C5.52601236,7.89659276 6.04665107,6.97447156 6.93651833,6.72684469 C7.22539844,6.64645688 7.53057795,6.64521286 7.82010383,6.72324288 Z" id="Rectangle-6-Copy" fill="#8271FF" transform="translate(19.474704, 20.228852) rotate(-45.000000) translate(-19.474704, -20.228852) "></path>
                            </g>
                        </g>
                        <g id="Group-12" transform="translate(319.148936, 222.498024)">
                            <polygon id="Shape" fill="url(#linearGradient-21)" fill-rule="nonzero" points="5.96128213 14.8654034 5.96128213 18.2609631 0.244644183 15.1411153 0.244644183 11.7468438"></polygon>
                            <polygon id="Shape" fill="url(#linearGradient-21)" fill-rule="nonzero" transform="translate(8.847965, 15.187610) scale(-1, 1) translate(-8.847965, -15.187610) " points="11.7429208 15.047335 11.7429208 18.486418 5.95300846 15.3265809 5.95300846 11.8888025"></polygon>
                            <g id="Group-10" transform="translate(0.000000, -0.000000)">
                                <g id="package-copy-2" transform="translate(0.210154, 3.079324)" fill="url(#linearGradient-22)" fill-rule="nonzero">
                                    <path d="M11.4940961,3.22455248 C11.493275,3.1826933 11.487801,3.1413415 11.4763055,3.10201924 C11.4713789,3.08502187 11.4615256,3.07005404 11.4546831,3.05381775 C11.4442824,3.02895593 11.4357977,3.00358673 11.4215652,2.98050076 C11.4117119,2.96451816 11.3974795,2.95157987 11.3857103,2.93686573 C11.3692882,2.91631667 11.354782,2.89449916 11.3350755,2.87623333 C11.3211167,2.86329504 11.3033261,2.85390844 11.2879988,2.8422386 C11.2669238,2.8265097 11.247491,2.80900495 11.223679,2.79606665 C11.2225842,2.79555927 11.2212157,2.79530558 11.2201209,2.79479819 C11.219026,2.79429081 11.2184786,2.79352973 11.2173838,2.79302235 L6.01705461,0.0658330805 C5.84982298,-0.0219443602 5.64509422,-0.0219443602 5.47786258,0.0658330805 L2.96090324,1.38706115 C2.96062954,1.38706115 2.96035584,1.38731484 2.96008214,1.38731484 L0.277807061,2.79276866 C0.276712255,2.79327604 0.27589115,2.79429081 0.275070046,2.79479819 C0.27397524,2.79530558 0.272606732,2.79555927 0.271785627,2.79606665 C0.248520997,2.80849756 0.229909292,2.82574862 0.209381677,2.84097014 C0.193233286,2.85289367 0.174895283,2.86253396 0.160662803,2.87597964 C0.140408889,2.89475285 0.125355304,2.91682406 0.108659511,2.93813419 C0.0974377476,2.95234094 0.0834789691,2.96502554 0.0741731168,2.98024706 C0.0585721292,3.00510888 0.0489925753,3.03276131 0.0383182153,3.05965267 C0.032570483,3.07385942 0.0238120338,3.08705141 0.0194328092,3.10176554 C0.00821104614,3.13981935 0.00355812,3.1793953 0.00246331384,3.21973234 C0.00191591077,3.22455248 0,3.22911894 0,3.23419278 L0,8.94226334 C0,9.12517529 0.106196197,9.29388049 0.277807061,9.38394116 L5.47813629,12.1111304 C5.50605384,12.1255909 5.53588731,12.1342164 5.56544708,12.1438567 C5.57967956,12.1486768 5.59309093,12.1562876 5.60787082,12.1598393 C5.65357897,12.1712554 5.70065564,12.1770904 5.7477323,12.1770904 C5.79480897,12.1770904 5.84188563,12.1712554 5.88759379,12.160093 C5.90209997,12.1565413 5.91551134,12.1489305 5.93001753,12.1441104 C5.95957729,12.1344701 5.98941076,12.1258446 6.01732832,12.1113841 L11.2176575,9.38419485 C11.3892684,9.29413418 11.4954646,9.12542899 11.4954646,8.94251704 L11.4954646,3.23444647 C11.4954646,3.23089478 11.4940961,3.22785048 11.4940961,3.22455248 Z" id="Shape"></path>
                                </g>
                                <path d="M2.36970138,2.39940067 L8.08318964,3.84304538 C8.23486987,3.88137089 8.28695007,3.90361776 8.34103777,3.93726073 C8.39512547,3.97090371 8.4388386,4.01281417 8.47472822,4.06543797 C8.51061783,4.11806177 8.53503695,4.1691595 8.57971244,4.31909227 L10.1312425,9.52609015 C10.2095213,9.788797 10.0600128,10.0652205 9.79730599,10.1434993 C9.71234104,10.1688163 9.62214577,10.1709136 9.53609591,10.1495731 L3.82507527,8.73323286 C3.67261535,8.69542261 3.62021756,8.6732392 3.56579718,8.63958311 C3.51137681,8.60592701 3.46737955,8.56388477 3.43128635,8.51104926 C3.39519314,8.45821375 3.37065266,8.40687764 3.32595651,8.25629246 L1.77228806,3.02184942 C1.69428778,2.75905974 1.84408918,2.4827949 2.10687886,2.40479462 C2.19240931,2.37940778 2.28320135,2.37754444 2.36970138,2.39940067 Z" id="Rectangle-6-Copy" fill="#75ACFF" transform="translate(5.951840, 6.274222) rotate(-45.000000) translate(-5.951840, -6.274222) "></path>
                            </g>
                        </g>
                        <g id="Group-16" transform="translate(187.943262, 75.972332)">
                            <polygon id="Path-5" fill="url(#linearGradient-24)" points="76.8990544 0.0480664336 0.214369139 22.878858 46.3055554 52.0594962 106.408902 52.0594962 152.437676 22.878858"></polygon>
                            <polygon id="Triangle-3" fill="url(#linearGradient-25)" transform="translate(77.127660, 67.486886) scale(1, -1) translate(-77.127660, -67.486886) " points="76.1289622 51.4664032 109.042553 83.5073689 45.212766 83.5073689"></polygon>
                            <polygon id="Path-6" fill="url(#linearGradient-26)" points="0.552565672 22.9236763 46.4694627 52.1525408 76.4177345 82.1991385 76.4177345 156.093214 31.3234175 125.821289 5.00347361 65.0552214"></polygon>
                            <polygon id="Path-6" fill="url(#linearGradient-27)" transform="translate(114.415097, 89.508445) scale(-1, 1) translate(-114.415097, -89.508445) " points="76.4825121 22.9236763 122.588054 52.0762921 152.347681 82.1991385 152.347681 156.093214 107.253364 125.821289 80.9334201 65.0552214"></polygon>
                        </g>
                    </g>
                </g>
                <g id="Group" opacity="0.542357337" transform="translate(515.000000, 333.000000)" fill-rule="nonzero">
                    <polygon id="Shape" fill="url(#linearGradient-4)" points="25.6944381 29.7041537 0.0342952381 14.8584596 0.0342952381 217.572054 25.6944381 232.417872"></polygon>
                    <polygon id="Shape" fill="url(#linearGradient-5)" points="25.6696762 29.6528441 51.329819 14.8070261 51.329819 217.540946 25.6696762 232.38664"></polygon>
                    <polygon id="Shape" fill="#3776F6" points="25.660019 0 0 14.8464378 25.660019 29.6922559 51.3201619 14.8464378"></polygon>
                </g>
                <g id="图形2" transform="translate(443.000000, 372.000000)">
                    <g id="Rectangle-22" transform="translate(0.000000, 58.000000)">
                        <mask id="mask-30" fill="white">
                            <use xlink:href="#path-29"></use>
                        </mask>
                        <use id="Mask" fill="url(#linearGradient-3)" xlink:href="#path-29"></use>
                        <polygon fill="url(#linearGradient-9)" mask="url(#mask-30)" points="66.5 -8.86666667 138.34375 -8.86666667 138.34375 209.857422 66.5 209.857422"></polygon>
                    </g>
                    <polygon id="Rectangle-13" fill="url(#linearGradient-15)" transform="translate(66.081029, 57.902444) rotate(30.000000) translate(-66.081029, -57.902444) " points="47.5718538 24.7774444 123.260101 25.1015596 85.8456419 90.4842411 8.90195694 91.0274444"></polygon>
                    <g id="Rectangle-31" transform="translate(18.000000, 15.000000)">
                        <polygon id="Mask" fill="url(#linearGradient-31)" opacity="0.8" transform="translate(37.109800, 35.096113) rotate(30.000000) translate(-37.109800, -35.096113) " points="36.8589588 10.8812432 64.9005122 59.0962821 9.31908785 59.3109826"></polygon>
                        <mask id="mask-34" fill="white">
                            <use xlink:href="#path-33"></use>
                        </mask>
                        <use id="Mask" fill="url(#linearGradient-32)" transform="translate(61.037304, 35.057753) scale(-1, 1) rotate(30.000000) translate(-61.037304, -35.057753) " xlink:href="#path-33"></use>
                    </g>
                    <g id="Group-15" transform="translate(18.000000, 0.000000)">
                        <mask id="mask-37" fill="white">
                            <use xlink:href="#path-36"></use>
                        </mask>
                        <use id="Mask" stroke="url(#linearGradient-35)" transform="translate(48.968948, 41.793622) rotate(30.000000) translate(-48.968948, -41.793622) " xlink:href="#path-36"></use>
                    </g>
                    <g id="Group-9" transform="translate(18.000000, 11.000000)">
                        <g id="小方块" transform="translate(45.053892, 0.000000)">
                            <polygon id="Polygon-3" fill="#75ACFF" points="4.1497006 0 8.25683904 2.36893204 8.25683904 7.10679612 4.1497006 9.47572816 0.0425621569 7.10679612 0.0425621569 2.36893204"></polygon>
                            <path d="M4.1497006,4.7394492 L4.1497006,4.72984672 L8.26044129,2.36893204 L8.26044129,7.10679612 L4.15460333,9.46489502 L4.15460333,9.48012906 L0.0438626351,7.11921438 L0.0438626351,2.3813503 L4.1497006,4.7394492 Z" id="Combined-Shape" fill="url(#linearGradient-22)"></path>
                        </g>
                        <g id="小方块" transform="translate(45.053892, 52.000000)">
                            <polygon id="Polygon-3" fill="#75ACFF" points="4.1497006 0 8.25683904 2.36893204 8.25683904 7.10679612 4.1497006 9.47572816 0.0425621569 7.10679612 0.0425621569 2.36893204"></polygon>
                            <path d="M4.1497006,4.7394492 L4.1497006,4.72984672 L8.26044129,2.36893204 L8.26044129,7.10679612 L4.15460333,9.46489502 L4.15460333,9.48012906 L0.0438626351,7.11921438 L0.0438626351,2.3813503 L4.1497006,4.7394492 Z" id="Combined-Shape" fill="url(#linearGradient-22)"></path>
                        </g>
                        <g id="小方块" transform="translate(89.053892, 27.000000)">
                            <polygon id="Polygon-3" fill="#75ACFF" points="4.1497006 0 8.25683904 2.36893204 8.25683904 7.10679612 4.1497006 9.47572816 0.0425621569 7.10679612 0.0425621569 2.36893204"></polygon>
                            <path d="M4.1497006,4.7394492 L4.1497006,4.72984672 L8.26044129,2.36893204 L8.26044129,7.10679612 L4.15460333,9.46489502 L4.15460333,9.48012906 L0.0438626351,7.11921438 L0.0438626351,2.3813503 L4.1497006,4.7394492 Z" id="Combined-Shape" fill="url(#linearGradient-22)"></path>
                        </g>
                        <g id="小方块" transform="translate(0.053892, 27.000000)">
                            <polygon id="Polygon-3" fill="#75ACFF" points="4.1497006 0 8.25683904 2.36893204 8.25683904 7.10679612 4.1497006 9.47572816 0.0425621569 7.10679612 0.0425621569 2.36893204"></polygon>
                            <path d="M4.1497006,4.7394492 L4.1497006,4.72984672 L8.26044129,2.36893204 L8.26044129,7.10679612 L4.15460333,9.46489502 L4.15460333,9.48012906 L0.0438626351,7.11921438 L0.0438626351,2.3813503 L4.1497006,4.7394492 Z" id="Combined-Shape" fill="url(#linearGradient-22)"></path>
                        </g>
                    </g>
                    <path d="M51,34.9739978 C52.0840376,41.8165126 55.0469839,45.23777 59.8888391,45.23777 C67.1516218,45.23777 64.6704964,29.1310491 76.1662146,31.1801594 C79.3887382,31.7545738 81,35.4432155 81,42.2460845 L81,55.066367 L66,61 L52.1328971,52.1187324 L51,34.9739978 Z" id="Line-10" fill="url(#linearGradient-38)"></path>
                    <path d="M51,35.1867488 C52.0840376,42.3955829 55.0469839,46 59.8888391,46 C67.1516218,46 64.6704964,29.0309933 76.1662146,31.1898044 C79.3887382,31.7949705 81,35.6810865 81,42.8481523" id="Line-10" stroke="#6886FE" stroke-linecap="square"></path>
                </g>
                <g id="Group-18" transform="translate(115.000000, 277.000000)">
                    <polyline id="Shape" stroke="url(#linearGradient-39)" transform="translate(311.000000, 122.000000) scale(-1, -1) rotate(180.000000) translate(-311.000000, -122.000000) " points="291.636291 47 162.722102 120.539664 162.186008 120.888347 161.74057 121.271124 161.395128 121.681101 161.146943 122.13108 161.019177 122.57995 161 123.039159 161.084555 123.49886 161.267487 123.960408 161.526381 124.392786 161.858374 124.810148 162.251385 125.20474 162.72397 125.595025 163.24014 125.952078 284.856845 195.362922 285.475875 195.688343 286.13077 195.979549 286.816796 196.2358 287.527853 196.456235 288.259581 196.639993 289.055442 196.794827 289.859521 196.906706 290.667087 196.975261 291.47017 197 292.309864 196.978215 293.12814 196.907075 293.91603 196.787073 294.665566 196.618823 295.367657 196.403681 296.050196 196.126629 461 108"></polyline>
                    <circle id="bn" fill="#FFFFFF" fill-rule="nonzero" cx="394.5" cy="142.5" r="1.5"></circle>
                    <circle id="bn" fill="#FFFFFF" fill-rule="nonzero" cx="192.5" cy="103.5" r="1.5"></circle>
                    <circle id="bn" fill="#FFFFFF" fill-rule="nonzero" cx="242.5" cy="62.5" r="1.5"></circle>
                    <g id="Group-72" transform="translate(0.000000, 60.000000)">
                        <g id="Rectangle-35" transform="translate(18.616162, 67.248780)">
                            <mask id="mask-42" fill="white">
                                <use xlink:href="#path-41"></use>
                            </mask>
                            <use id="Mask" fill="url(#linearGradient-40)" opacity="0.4" xlink:href="#path-41"></use>
                            <polygon fill="url(#linearGradient-43)" opacity="0.4" mask="url(#mask-42)" points="36.1313131 8.8195122 74.775389 -1.12383321 74.775389 237.553954 36.1313131 236.415184"></polygon>
                        </g>
                        <polygon id="Rectangle-13" fill="url(#linearGradient-44)" transform="translate(55.054077, 67.225331) rotate(30.000000) translate(-55.054077, -67.225331) " points="44.6386136 48.8739713 86.7065106 48.9801748 65.7074579 85.4136407 23.401643 85.5766916"></polygon>
                        <g id="Group-54">
                            <g id="Group-8" transform="translate(0.000000, 46.000000)" stroke="url(#linearGradient-45)" stroke-linecap="square">
                                <path d="M54.5,28.7219512 L54.5,253.44878" id="Line-12"></path>
                                <path d="M107.146465,0.853658537 L107.146465,253.44878" id="Line-12"></path>
                                <path d="M1.65151515,0.853658537 L1.65151515,253.44878" id="Line-12"></path>
                            </g>
                            <g id="Rectangle-13" transform="translate(1.000000, 0.000000)">
                                <mask id="mask-48" fill="white">
                                    <use xlink:href="#path-47"></use>
                                </mask>
                                <use id="Mask" fill="url(#linearGradient-46)" transform="translate(53.593651, 46.564532) rotate(30.000000) translate(-53.593651, -46.564532) " xlink:href="#path-47"></use>
                            </g>
                        </g>
                        <g id="Group-50" transform="translate(9.808081, 5.512195)">
                            <path d="M2.76536981,0.0799205429 L45.0762798,23.89947" id="Line-9" stroke="#6886FE" stroke-width="1.1" stroke-linecap="square" stroke-dasharray="2.2,3.3" transform="translate(23.920825, 11.989695) scale(1, -1) translate(-23.920825, -11.989695) "></path>
                            <path d="M45.1414141,0 L87.4523241,23.8195495" id="Line-9" stroke="#6886FE" stroke-width="1.1" stroke-linecap="square" stroke-dasharray="2.2,3.3" transform="translate(66.296869, 11.909775) scale(-1, -1) translate(-66.296869, -11.909775) "></path>
                            <ellipse id="Oval-13" fill="#6886FE" cx="87.530303" cy="23.702439" rx="2.75252525" ry="2.75609756"></ellipse>
                            <ellipse id="Oval-13" fill="#6886FE" cx="2.75252525" cy="23.702439" rx="2.75252525" ry="2.75609756"></ellipse>
                        </g>
                    </g>
                    <g id="Group-9" transform="translate(37.000000, 43.000000)">
                        <g id="小方块" transform="translate(8.433628, 48.938053)">
                            <polygon id="Polygon-3" fill="#9EB0F9" points="8.05309735 0 16.0235966 4.60176991 16.0235966 13.8053097 8.05309735 18.4070796 0.0825980537 13.8053097 0.0825980537 4.60176991"></polygon>
                            <polygon id="Rectangle-11" fill="#6886FE" points="0.0851218206 4.62589301 8.06261181 9.2120888 8.06261181 18.4156286 0.0851218206 13.8294328"></polygon>
                            <polygon id="Rectangle-11" fill="#204CFC" transform="translate(12.041842, 11.496638) scale(-1, 1) translate(-12.041842, -11.496638) " points="8.05309735 4.60176991 16.0305873 9.1879657 16.0305873 18.3915055 8.05309735 13.8053097"></polygon>
                        </g>
                        <path d="M17.4867257,20.0996094 L16.9115044,53.2654867" id="Line-7" stroke="url(#linearGradient-49)"></path>
                        <polygon id="Polygon-3" fill="#456AFF" opacity="0.403249547" points="17.0633501 0 34 9.77837938 34 29.3351382 17.0633501 39.1135175 0.126700182 29.3351382 0.126700182 9.77837938"></polygon>
                        <g id="小方块" transform="translate(5.000000, 5.000000)">
                            <polygon id="Polygon-3" fill="#9EB0F9" points="12.3529412 0 24.5791822 7.05882353 24.5791822 21.1764706 12.3529412 28.2352941 0.126700182 21.1764706 0.126700182 7.05882353"></polygon>
                            <polygon id="Rectangle-11" fill="#6886FE" points="0.13057148 7.09582684 12.3675358 14.1307606 12.3675358 28.2484077 0.13057148 21.2134739"></polygon>
                            <polygon id="Rectangle-11" fill="#204CFC" transform="translate(18.471423, 17.635114) scale(-1, 1) translate(-18.471423, -17.635114) " points="12.3529412 7.05882353 24.5899055 14.0937573 24.5899055 28.2114044 12.3529412 21.1764706"></polygon>
                        </g>
                    </g>
                    <polyline id="Shape" stroke="url(#linearGradient-50)" transform="translate(125.000000, 53.294922) rotate(180.000000) translate(-125.000000, -53.294922) " points="2.26836685 32.2441812 1.56223475 32.7061565 0.975431379 33.2135984 0.520412757 33.7569676 0.193566641 34.3534843 0.0252857323 34.9483906 0 35.5570483 0.11135687 36.1664494 0.352256409 36.7780804 0.693302395 37.3511825 1.13063346 37.9045866 1.64830589 38.4273905 2.27085806 38.9447434 2.95058339 39.4181163 123.139808 104.420084 123.95518 104.851459 124.817759 105.237243 125.721444 105.576942 126.658013 105.869068 127.621735 106.11263 128.670159 106.318035 129.729046 106.466328 130.79279 106.557138 131.850556 106.589844 132.956651 106.561102 134.034471 106.466824 135.072307 106.307753 136.059447 106.084632 136.984307 105.799444 137.883383 105.432366 247.731384 45.935878 248.437392 45.4743982 249.024569 44.9665847 249.479836 44.4233394 249.807056 43.8268226 249.975213 43.2319163 250 42.6233825 249.88939 42.0139814 249.648117 41.4016071 249.306947 40.8282572 248.869242 40.2753487 248.351445 39.7525448 247.729017 39.2354397 247.050039 38.7621906 180.296875 4.82600626e-11"></polyline>
                    <circle id="bn" fill="#FFFFFF" fill-rule="nonzero" cx="45.5" cy="92.5" r="1.5"></circle>
                    <g id="Group" transform="translate(83.000000, 279.000000)" fill-rule="nonzero">
                        <g id="bn-link" fill="#000000">
                            <circle id="bn" cx="1.5" cy="1.5" r="1.5"></circle>
                        </g>
                        <g id="bn-link" fill="#FFFFFF">
                            <circle id="bn" cx="1.5" cy="1.5" r="1.5"></circle>
                        </g>
                    </g>
                </g>
            </g>
        </g>
    </g>
</svg>