<?xml version="1.0" encoding="UTF-8"?>
<svg width="93px" height="31px" viewBox="0 0 93 31" version="1.1" xmlns="http://www.w3.org/2000/svg" xmlns:xlink="http://www.w3.org/1999/xlink">
    <!-- Generator: Sketch 51.2 (57519) - http://www.bohemiancoding.com/sketch -->
    <title>Group 26</title>
    <desc>Created with Sketch.</desc>
    <defs>
        <linearGradient x1="57.9752066%" y1="36.7219153%" x2="38.9876033%" y2="68.3241252%" id="linearGradient-1">
            <stop stop-color="#00FFFF" stop-opacity="0.1" offset="0%"></stop>
            <stop stop-color="#00FFFF" stop-opacity="0" offset="100%"></stop>
        </linearGradient>
        <linearGradient x1="50%" y1="0%" x2="50%" y2="100%" id="linearGradient-2">
            <stop stop-color="#2A39DD" offset="0%"></stop>
            <stop stop-color="#4B94EF" offset="100%"></stop>
        </linearGradient>
        <linearGradient x1="50%" y1="0%" x2="50%" y2="100%" id="linearGradient-3">
            <stop stop-color="#8271FF" offset="0%"></stop>
            <stop stop-color="#C0A0FF" offset="100%"></stop>
        </linearGradient>
    </defs>
    <g id="Page-1" stroke="none" stroke-width="1" fill="none" fill-rule="evenodd">
        <g id="产品服务导航" transform="translate(-454.000000, -145.000000)">
            <g id="zig" transform="translate(445.000000, 109.000000)">
                <g id="img_ethereum" transform="translate(9.000000, 0.000000)">
                    <g id="Group-26" transform="translate(0.000000, 32.000000)">
                        <g id="Group-12" transform="translate(83.954198, 12.754967)">
                            <polygon id="Shape" fill="url(#linearGradient-1)" fill-rule="nonzero" points="4.48043984 12.1845375 4.48043984 14.946801 0.183872114 12.4088272 0.183872114 9.64761169"></polygon>
                            <polygon id="Shape" fill="url(#linearGradient-1)" fill-rule="nonzero" transform="translate(6.650041, 12.446650) scale(-1, 1) translate(-6.650041, -12.446650) " points="8.82586145 12.3325375 8.82586145 15.1302069 4.47422143 12.5597021 4.47422143 9.76309402"></polygon>
                            <g id="Group-10">
                                <g id="package-copy-2" transform="translate(0.157949, 2.596646)" fill="url(#linearGradient-2)" fill-rule="nonzero">
                                    <path d="M8.63884731,2.62315031 C8.63823017,2.58909816 8.63411595,2.55545877 8.62547607,2.52347039 C8.62177327,2.50964315 8.61436766,2.49746693 8.60922488,2.48425883 C8.60140785,2.46403392 8.59503079,2.44339625 8.58433381,2.42461598 C8.5769282,2.41161425 8.56623121,2.40108904 8.55738562,2.3891192 C8.54504294,2.37240269 8.53414024,2.3546543 8.51932903,2.33979518 C8.50883775,2.32926997 8.49546651,2.32163403 8.48394668,2.31214071 C8.4681069,2.29934536 8.4535014,2.28510537 8.43560451,2.27458016 C8.43478167,2.27416741 8.43375311,2.27396103 8.43293027,2.27354828 C8.43210742,2.27313552 8.431696,2.27251639 8.43087315,2.27210364 L4.52235788,0.0535547386 C4.39666826,-0.0178515795 4.24279618,-0.0178515795 4.11710656,0.0535547386 L2.22538517,1.12836429 C2.22517946,1.12836429 2.22497375,1.12857067 2.22476804,1.12857067 L0.208797,2.27189726 C0.207974155,2.27231002 0.207357021,2.27313552 0.206739887,2.27354828 C0.205917041,2.27396103 0.204888485,2.27416741 0.204271351,2.27458016 C0.186785888,2.28469261 0.172797517,2.29872623 0.157369168,2.31110882 C0.145232199,2.32080853 0.13144954,2.32865084 0.120752551,2.3395888 C0.105529912,2.35486067 0.0942157892,2.37281544 0.0816673981,2.39015108 C0.0732332335,2.40170817 0.0627419557,2.412027 0.0557477705,2.4244096 C0.0440222246,2.44463451 0.0368223281,2.46712957 0.0287995862,2.48900549 C0.0244796483,2.50056258 0.0178968857,2.51129417 0.0146055044,2.52326401 C0.0061713399,2.55422051 0.00267424729,2.58641527 0.00185140197,2.61922915 C0.00143997931,2.62315031 0,2.62686509 0,2.63099262 L0,7.27446706 C0,7.42326462 0.0798159961,7.56050509 0.208797,7.6337688 L4.11731227,9.8523177 C4.13829483,9.86408117 4.16071736,9.87109797 4.18293419,9.87894029 C4.19363118,9.88286144 4.20371103,9.88905274 4.21481944,9.89194201 C4.24917323,9.90122896 4.28455558,9.90597563 4.31993793,9.90597563 C4.35532028,9.90597563 4.39070263,9.90122896 4.42505642,9.89214839 C4.43595912,9.88925912 4.44603898,9.88306782 4.45694168,9.87914666 C4.4791585,9.87130435 4.50158104,9.86428754 4.52256359,9.85252408 L8.43107886,7.63397517 C8.56005987,7.56071147 8.63987586,7.423471 8.63987586,7.27467344 L8.63987586,2.631199 C8.63987586,2.62830972 8.63884731,2.6258332 8.63884731,2.62315031 Z" id="Shape"></path>
                                </g>
                                <path d="M1.82769724,2.05621377 L6.05323581,3.21183047 C6.1759302,3.24538541 6.21791596,3.26431102 6.26134353,3.29254082 C6.30477109,3.32077063 6.3396246,3.35556545 6.36792756,3.39894538 C6.39623051,3.44232531 6.41522686,3.48427911 6.44898853,3.60691678 L7.61418658,7.83944352 C7.67327754,8.05408861 7.54717599,8.27599552 7.3325309,8.33508647 C7.26334793,8.35413227 7.190335,8.35436577 7.12103163,8.33576286 L2.89730347,7.20199907 C2.77393484,7.16888357 2.73167624,7.15001159 2.68796323,7.12177028 C2.64425022,7.09352898 2.60915372,7.05862166 2.58067656,7.01506193 C2.55219941,6.9715022 2.5330993,6.92934622 2.49931749,6.80615837 L1.33260358,2.55165122 C1.2737254,2.33694767 1.40004683,2.11516586 1.61475039,2.05628768 C1.68444285,2.03717591 1.75799152,2.03715038 1.82769724,2.05621377 Z" id="Rectangle-6-Copy" fill="#75ACFF" transform="translate(4.473446, 5.195734) rotate(-45.000000) translate(-4.473446, -5.195734) "></path>
                            </g>
                        </g>
                        <g id="Group-11" transform="translate(0.000000, 0.483444)">
                            <polygon id="Shape" fill="url(#linearGradient-1)" fill-rule="nonzero" points="7.89388347 20.4237068 7.89388347 25.243915 0.323955926 20.815097 0.323955926 15.9967174"></polygon>
                            <polygon id="Shape" fill="url(#linearGradient-1)" fill-rule="nonzero" transform="translate(11.716406, 20.892945) scale(-1, 1) translate(-11.716406, -20.892945) " points="15.5498845 20.6938157 15.5498845 25.575808 7.88292754 21.0902226 7.88292754 16.2100823"></polygon>
                            <g id="Group-10">
                                <g id="package-copy-2" transform="translate(0.278284, 3.692633)" fill="url(#linearGradient-3)" fill-rule="nonzero">
                                    <path d="M15.2203927,4.57745286 C15.2193054,4.51803115 15.2120568,4.45932969 15.1968346,4.40350929 C15.1903108,4.37938047 15.1772631,4.35813271 15.1682023,4.33508429 C15.1544298,4.29979139 15.1431944,4.26377823 15.1243479,4.23100625 C15.1113003,4.20831796 15.0924537,4.18995125 15.0768691,4.16906361 C15.0551231,4.13989295 15.0359141,4.10892163 15.0098189,4.08299216 C14.9913348,4.06462545 14.9677766,4.05130058 14.9474803,4.03473452 C14.919573,4.01240636 14.8938402,3.98755728 14.8623085,3.96919057 C14.8608587,3.9684703 14.8590466,3.96811017 14.8575968,3.96738991 C14.8561471,3.96666965 14.8554222,3.96558925 14.8539725,3.96486899 L7.96773696,0.0934541535 C7.74629012,-0.0311513845 7.4751899,-0.0311513845 7.25374307,0.0934541535 L3.92080506,1.96901959 C3.92044263,1.96901959 3.92008019,1.96937972 3.91971776,1.96937972 L0.367869952,3.96450886 C0.366420218,3.96522912 0.365332917,3.96666965 0.364245617,3.96738991 C0.362795883,3.96811017 0.360983716,3.9684703 0.359896416,3.96919057 C0.329089573,3.98683702 0.304444098,4.01132597 0.277261589,4.03293386 C0.255878016,4.04986005 0.231594974,4.06354505 0.212748435,4.08263203 C0.18592836,4.10928177 0.16599452,4.14061322 0.14388608,4.17086427 C0.129026308,4.19103164 0.110542202,4.20903822 0.0982194649,4.23064612 C0.0775607583,4.26593902 0.0648755875,4.30519336 0.050740683,4.34336731 C0.0431295805,4.36353468 0.0315317101,4.38226153 0.0257327749,4.40314916 C0.0108730035,4.4571689 0.00471163485,4.51334943 0.00326190105,4.57061036 C0.00253703415,4.57745286 0,4.58393523 0,4.59113786 L0,12.6940991 C0,12.953754 0.140624179,13.1932416 0.367869952,13.3210883 L7.2541055,17.1925031 C7.29107371,17.2130306 7.33057896,17.2252751 7.36972177,17.2389601 C7.38856831,17.2458026 7.40632755,17.2566065 7.42589895,17.2616484 C7.48642534,17.2778543 7.54876389,17.2861373 7.61110245,17.2861373 C7.673441,17.2861373 7.73577955,17.2778543 7.79630594,17.2620085 C7.81551491,17.2569667 7.83327415,17.2461627 7.85248313,17.2393202 C7.89162594,17.2256352 7.93113118,17.2133908 7.9680994,17.1928633 L14.8543349,13.3214484 C15.0815807,13.1936017 15.2222049,12.9541142 15.2222049,12.6944593 L15.2222049,4.59149799 C15.2222049,4.58645615 15.2203927,4.58213457 15.2203927,4.57745286 Z" id="Shape"></path>
                                </g>
                                <path d="M3.16828321,2.73559494 L10.6884166,4.7725804 C10.8952638,4.82860929 10.9660769,4.86032152 11.0393577,4.90770278 C11.1126384,4.95508404 11.1715012,5.01356053 11.219364,5.08652766 C11.2672268,5.15949478 11.2994046,5.23009753 11.3567943,5.43657132 L13.4265533,12.88304 C13.5270015,13.2444274 13.3154686,13.6188191 12.9540812,13.7192673 C12.837585,13.7516476 12.7145565,13.7523401 12.5977032,13.7212732 L5.08076802,11.7228012 C4.87279353,11.6675085 4.80152385,11.6358863 4.72776542,11.5884859 C4.65400699,11.5410856 4.59473731,11.4824207 4.54658288,11.4091524 C4.49842845,11.335884 4.46607686,11.2649425 4.40865388,11.0575461 L2.33618721,3.5723517 C2.23610018,3.21086414 2.44800717,2.836684 2.80949473,2.73659697 C2.92683884,2.70410726 3.05075945,2.70376118 3.16828321,2.73559494 Z" id="Rectangle-6-Copy" fill="#8271FF" transform="translate(7.881457, 8.228013) rotate(-45.000000) translate(-7.881457, -8.228013) "></path>
                            </g>
                        </g>
                        <g id="Group-12" transform="translate(71.755725, 27.192053)">
                            <polygon id="Shape" fill="url(#linearGradient-1)" fill-rule="nonzero" points="2.41254453 6.45319593 2.41254453 7.83432763 0.0990080611 6.56534075 0.0990080611 5.184733"></polygon>
                            <polygon id="Shape" fill="url(#linearGradient-1)" fill-rule="nonzero" transform="translate(3.580792, 6.584252) scale(-1, 1) translate(-3.580792, -6.584252) " points="4.75238694 6.52719592 4.75238694 7.92603062 2.40919615 6.64077819 2.40919615 5.24247416"></polygon>
                            <g id="Group-10">
                                <g id="package-copy-2" transform="translate(0.085050, 1.659250)" fill="url(#linearGradient-2)" fill-rule="nonzero">
                                    <path d="M4.65168701,1.31157515 C4.65135471,1.29454908 4.64913936,1.27772938 4.64448712,1.26173519 C4.6424933,1.25482158 4.63850566,1.24873347 4.63573647,1.24212941 C4.6315273,1.23201696 4.6280935,1.22169813 4.62233359,1.21230799 C4.61834595,1.20580712 4.61258604,1.20054452 4.60782303,1.1945596 C4.60117697,1.18620134 4.59530628,1.17732715 4.58733101,1.16989759 C4.58168186,1.16463498 4.57448197,1.16081702 4.56827898,1.15607035 C4.55974987,1.14967268 4.55188537,1.14255268 4.54224858,1.13729008 C4.54180551,1.1370837 4.54125168,1.13698051 4.54080861,1.13677414 C4.54036553,1.13656776 4.540144,1.1362582 4.53970093,1.13605182 L2.43511578,0.0267773693 C2.36743675,-0.00892578976 2.28458256,-0.00892578976 2.21690353,0.0267773693 L1.19828432,0.564182145 C1.19817355,0.564182145 1.19806279,0.564285333 1.19795202,0.564285333 L0.112429154,1.13594863 C0.111986083,1.13615501 0.11165378,1.13656776 0.111321477,1.13677414 C0.110878407,1.13698051 0.110324569,1.1370837 0.109992266,1.13729008 C0.100577016,1.14234631 0.093044817,1.14936311 0.0847372441,1.15555441 C0.0782019533,1.16040426 0.0707805215,1.16432542 0.0650206043,1.1697944 C0.056823799,1.17743034 0.0507315788,1.18640772 0.0439747528,1.19507554 C0.0394332796,1.20085409 0.03378413,1.2060135 0.0300180302,1.2122048 C0.0237042748,1.22231726 0.0198274074,1.23356478 0.0155074695,1.24450275 C0.0131813491,1.25028129 0.00963678462,1.25564708 0.00786450239,1.26163201 C0.00332302918,1.27711025 0.00143997931,1.29320763 0.000996908754,1.30961458 C0.000775373475,1.31157515 0,1.31343254 0,1.31549631 L0,3.63723353 C0,3.71163231 0.042977844,3.78025254 0.112429154,3.8168844 L2.2170143,4.92615885 C2.2283126,4.93204058 2.24038627,4.93554899 2.25234918,4.93947014 C2.25810909,4.94143072 2.26353671,4.94452637 2.26951816,4.94597101 C2.28801636,4.95061448 2.30706839,4.95298781 2.32612043,4.95298781 C2.34517246,4.95298781 2.36422449,4.95061448 2.38272269,4.9460742 C2.38859337,4.94462956 2.39402099,4.94153391 2.39989167,4.93957333 C2.41185458,4.93565217 2.42392825,4.93214377 2.43522655,4.92626204 L4.5398117,3.81698759 C4.60926301,3.78035573 4.65224085,3.7117355 4.65224085,3.63733672 L4.65224085,1.3155995 C4.65224085,1.31415486 4.65168701,1.3129166 4.65168701,1.31157515 Z" id="Shape"></path>
                                </g>
                                <path d="M0.960015589,1.38294603 L3.27077821,1.96976263 C3.33236185,1.98540175 3.35350261,1.99446331 3.37545257,2.00815469 C3.39740252,2.02184607 3.41513443,2.03889061 3.42968247,2.06028241 C3.44423052,2.0816742 3.45412037,2.10244039 3.47218077,2.16335795 L4.10028345,4.2819431 C4.1319241,4.38866673 4.07105731,4.50083314 3.96433368,4.53247378 C3.92982986,4.54270322 3.89321642,4.54350777 3.85829656,4.53480386 L1.54853103,3.95908583 C1.48662952,3.94365664 1.46535933,3.93462093 1.44327381,3.92092421 C1.42118829,3.90722748 1.40334062,3.89012927 1.38870963,3.86865127 C1.37407863,3.84717327 1.36413933,3.82631002 1.34607044,3.76512691 L0.717105194,1.63538562 C0.685577222,1.52862865 0.746562375,1.41652655 0.853319346,1.38499858 C0.888054365,1.37474047 0.924911739,1.37403143 0.960015589,1.38294603 Z" id="Rectangle-6-Copy" fill="#75ACFF" transform="translate(2.408723, 2.958764) rotate(-45.000000) translate(-2.408723, -2.958764) "></path>
                            </g>
                        </g>
                    </g>
                </g>
            </g>
        </g>
    </g>
</svg>