<svg xmlns="http://www.w3.org/2000/svg" width="16" height="16" viewBox="0 0 16 16">
    <g fill="#03234D" fill-rule="nonzero">
        <path d="M11.534 5.771H8.48V4.387c0-.091-.032-.387-.442-.387-.41 0-.442.296-.442.387V5.77H4.702c-.453 0-.702.222-.702.625v2.725c0 .42.256.66.702.66h2.894v2.508c0 .09.032.387.442.387.41 0 .442-.296.442-.387V9.78h3.054c.446 0 .702-.24.702-.659V6.396c0-.403-.25-.625-.702-.625zM7.596 8.94H5.02a.24.24 0 0 1-.115-.02l-.011-.006-.004-.01a.158.158 0 0 1-.007-.054v-2.18c0-.03.004-.046.007-.054l.014-.016a.238.238 0 0 1 .116-.02h2.575v2.36zm3.756-.09a.144.144 0 0 1-.008.054l-.014.016c-.013.008-.045.02-.115.02H8.48V6.58h2.735c.07 0 .102.013.115.02l.014.016a.156.156 0 0 1 .008.054v2.18z"/>
        <path d="M15.371 4.886a7.968 7.968 0 0 0-1.714-2.543A7.975 7.975 0 0 0 8 0a7.967 7.967 0 0 0-5.657 2.343A7.976 7.976 0 0 0 0 8a7.974 7.974 0 0 0 2.343 5.657A7.975 7.975 0 0 0 8 16a7.967 7.967 0 0 0 5.657-2.343A7.976 7.976 0 0 0 16 8c0-1.08-.212-2.127-.629-3.114zm-7.37 10.253A7.146 7.146 0 0 1 .862 8 7.146 7.146 0 0 1 8.001.861c3.935 0 7.138 3.203 7.138 7.139 0 3.936-3.203 7.139-7.138 7.139z"/>
    </g>
</svg>
