<svg xmlns="http://www.w3.org/2000/svg" width="16" height="16" viewBox="0 0 16 16">
    <g fill="#03234D" fill-rule="nonzero">
        <path d="M15.369 4.883a7.962 7.962 0 0 0-1.713-2.54A7.97 7.97 0 0 0 8.003 0 7.951 7.951 0 0 0 2.35 2.342 7.97 7.97 0 0 0 .008 7.995a7.967 7.967 0 0 0 2.342 5.652 7.971 7.971 0 0 0 5.653 2.341 7.951 7.951 0 0 0 5.653-2.34 7.97 7.97 0 0 0 2.341-5.653 7.95 7.95 0 0 0-.628-3.112zM8.003 15.128c-3.933 0-7.133-3.2-7.133-7.133C.87 4.06 4.07.862 8.003.862s7.133 3.2 7.133 7.133-3.2 7.133-7.133 7.133z"/>
        <path d="M10.772 6.898c-.451 0-.88.145-1.24.418l-.057.043V7.16a.38.38 0 0 0-.758 0v4.05a.38.38 0 0 0 .758 0V8.953a1.3 1.3 0 0 1 1.298-1.298c.715 0 1.297.582 1.297 1.298v2.258a.38.38 0 0 0 .758 0V8.953a2.058 2.058 0 0 0-2.056-2.055zM7.562 8.198a.38.38 0 0 0 0-.758H3.936V5.435c0-.153.124-.277.277-.277h3.349a.38.38 0 0 0 .379-.372.372.372 0 0 0-.109-.268.394.394 0 0 0-.28-.119H3.813a.636.636 0 0 0-.636.636v5.816c0 .35.286.636.636.636h3.74a.394.394 0 0 0 .28-.118.374.374 0 0 0 .108-.269.381.381 0 0 0-.379-.371h-3.35a.277.277 0 0 1-.276-.277V8.197h3.626z"/>
    </g>
</svg>
