<svg xmlns="http://www.w3.org/2000/svg" xmlns:xlink="http://www.w3.org/1999/xlink" width="106" height="21" viewBox="0 0 106 21">
    <defs>
        <path id="a" d="M0 0h19.368v20.613H0z"/>
    </defs>
    <g fill="none" fill-rule="evenodd">
        <path fill="#FFF" d="M33.507 6.572H32.44a.223.223 0 0 0-.186.095l-.946 1.367-1.486.009a.125.125 0 0 1-.103-.052.09.09 0 0 1 .002-.104l1.656-3.74a.17.17 0 0 0 .003-.195.228.228 0 0 0-.193-.095l-.946-.021a.222.222 0 0 0-.178.09l-2.027 4.911a.172.172 0 0 0-.002.197c.039.06.11.094.185.094h.012l2.418-.046-2.279 3.223a.172.172 0 0 0 .007.203.223.223 0 0 0 .209.082l4.668-1.169c.107-.013.188-.096.186-.192l-.013-.797a.183.183 0 0 0-.075-.142.232.232 0 0 0-.17-.045l-2.025.575a.12.12 0 0 1-.111-.044.09.09 0 0 1-.004-.109l2.65-3.807a.172.172 0 0 0 0-.192.22.22 0 0 0-.186-.096M33.405 13.088a.238.238 0 0 0-.205-.014l-4.729 2.185a.192.192 0 0 0-.127.174v.827c0 .066.037.126.099.161a.238.238 0 0 0 .207.013l4.728-2.236a.192.192 0 0 0 .125-.173v-.777a.186.186 0 0 0-.098-.16M36.319 8.901V5.507c0-.054.047-.099.108-.102l3.002-.152.374 3.653-3.484-.005zm7.718.012l-3.156-.005-.38-3.715 3.21-.161c.113-.007.202-.09.202-.191v-.683a.182.182 0 0 0-.068-.14.234.234 0 0 0-.16-.051l-8.449.555c-.114.006-.202.09-.202.19V14.88l-.97.384a.193.193 0 0 0-.126.174v.845c0 .065.037.125.1.16a.234.234 0 0 0 .205.013l4.815-2.11a.19.19 0 0 0 .126-.173v-.848a.186.186 0 0 0-.099-.16.238.238 0 0 0-.205-.014l-2.561 1.199V9.874l3.734.006 2.989 6.32c.03.077.112.13.204.13h.792c.108 0 .2-.072.214-.167v-3.39a.178.178 0 0 0-.052-.152.229.229 0 0 0-.162-.064l-.598.002c-.109 0-.2.073-.213.169l-.014 1.715-2.036-4.561 2.86.004c.118 0 .215-.086.215-.191v-.591c0-.105-.097-.191-.215-.191zM56.077 6.292h-4.724c-.046 0-.083-.03-.083-.067V5.203c0-.037.037-.067.083-.067h4.724v1.156zm1.452-1.156h4.822c.045 0 .083.03.083.067v1.022c0 .037-.038.067-.083.067h-4.822V5.136zm7.366 3.335H57.53V7.127h5.8c.103 0 .187-.069.187-.153V4.49c0-.085-.084-.154-.188-.154h-5.8V3.96c0-.233-.096-.237-.253-.237h-.934c-.157 0-.264.01-.264.242v.371H50.38c-.104 0-.189.07-.189.154v2.484c0 .084.085.153.189.153h5.696v1.344h-7.31c-.104 0-.189.069-.189.153v.603c0 .085.085.153.189.153h16.128c.104 0 .188-.068.188-.153v-.603c0-.084-.084-.153-.188-.153zM62.622 13.965h.795c.104 0 .188-.068.188-.153v-3.57c0-.084-.084-.153-.188-.153H50.279c-.105 0-.189.069-.189.153v3.57c0 .085.084.153.189.153h.794c.104 0 .189-.068.189-.153V11c0-.037.036-.067.082-.067h11.007c.045 0 .083.03.083.067v2.812c0 .085.084.153.188.153"/>
        <path fill="#FFF" d="M64.258 15.281l-6.58-2.004a.224.224 0 0 0-.149.01v-1.662c0-.084-.085-.153-.189-.153h-1.075a.211.211 0 0 0-.134.046.14.14 0 0 0-.054.11l-.001 1.401c0 .028-.02.053-.052.063l-6.627 2.165c-.073.023-.119.079-.119.142v.91c0 .051.031.099.084.127a.22.22 0 0 0 .176.015l7.753-2.637.012-.005v.409c0 .066.05.124.127.145l6.7 2.09a.214.214 0 0 0 .17-.02.145.145 0 0 0 .079-.123l.005-.884c0-.065-.05-.123-.126-.145M73.617 9a.226.226 0 0 0-.198-.107l-.2-.002v-.609h1.57c.122 0 .221-.085.221-.19v-.54c0-.106-.1-.19-.221-.19l-1.57-.001V5.026l1.492-.08c.116-.007.208-.09.208-.19v-.552a.178.178 0 0 0-.069-.139.24.24 0 0 0-.164-.052l-4.789.229c-.117.006-.21.089-.21.19v.583a.18.18 0 0 0 .071.139c.04.033.095.051.152.051h.013l1.908-.104v2.26h-2.212c-.123 0-.222.085-.222.19v.541c0 .105.1.19.222.19h1.768l-1.825 4.404a.166.166 0 0 0 .03.172c.042.051.107.08.18.08h.725c.096 0 .18-.052.21-.13l1.124-2.861v6.344c0 .105.1.19.221.19h.945c.122 0 .222-.085.222-.19v-5.808l.663 1.184a.228.228 0 0 0 .2.108h.748a.23.23 0 0 0 .187-.09.166.166 0 0 0 .012-.183L73.617 9zM84.921 11.005h-1.623V4.276c0-.105-.1-.19-.222-.19h-.944c-.123 0-.222.085-.222.19v6.73h-5.473c-.122 0-.222.085-.222.19v.552c0 .105.1.19.222.19h5.473v4.353c0 .105.1.19.222.19h.944c.122 0 .222-.085.222-.19V11.94h1.623c.122 0 .222-.086.222-.19v-.553c0-.105-.1-.19-.222-.19"/>
        <path fill="#FFF" d="M79.774 7.388c.042.031.093.047.144.047a.26.26 0 0 0 .093-.018c.08-.031.13-.097.13-.173v-.656a.18.18 0 0 0-.078-.145l-2.438-1.788a.25.25 0 0 0-.237-.028c-.08.032-.129.098-.129.173v.645a.18.18 0 0 0 .077.145l2.438 1.798zM79.774 9.996a.244.244 0 0 0 .237.028c.08-.031.13-.097.13-.173v-.656a.18.18 0 0 0-.078-.144l-2.438-1.788a.25.25 0 0 0-.237-.028c-.08.031-.129.097-.129.172v.645a.18.18 0 0 0 .077.145l2.438 1.799zM94.834 6.736H93.43V4.2c0-.09-.089-.164-.197-.164h-1.032c-.109 0-.197.074-.197.164v2.516l-2.417.021c-.108 0-.196.074-.196.165v.592c0 .09.088.165.196.165l2.417-.021v2.67l-2.536 1.182a.158.158 0 0 0-.089.136l-.005.668c0 .061.039.117.103.146a.227.227 0 0 0 .202-.007l2.325-1.071v3.842l-1.289-1.078a.217.217 0 0 0-.142-.052l-.898-.006h-.001a.198.198 0 0 0-.18.099c-.032.06-.018.13.036.178l2.428 2.063c.087.087.213.075.25.075h1.025c.108 0 .197-.074.197-.165v-5.494l1.458-.68a.159.159 0 0 0 .088-.137v-.657c0-.061-.039-.115-.103-.144a.227.227 0 0 0-.202.007l-1.241.557V7.658h1.404c.109 0 .197-.074.197-.165v-.592c0-.091-.088-.165-.197-.165M105.657 15.593l-3.95-2.285 3.486-1.896c.257-.16.257-.16.257-.533V9.137c0-.316-.238-.572-.531-.572h-3.562c-.049 0-.089-.042-.089-.094l.003-1.87c0-.052.04-.095.088-.095h4.065c.109 0 .197-.073.196-.156v-.614c0-.09-.088-.164-.2-.164l-2.126.001h-1.937c-.049 0-.089-.042-.089-.094v-1.28c0-.09-.087-.164-.196-.164h-1.033c-.108 0-.196.074-.196.164v1.28c0 .052-.04.094-.088.094h-3.72c-.108 0-.197.074-.197.165v.604c0 .09.089.164.197.164h3.72c.049 0 .088.043.088.095v1.87c0 .052-.04.094-.088.094H96.32c-.137 0-.248.12-.248.266v.39c0 .147.111.266.248.266h7.43c.213 0 .385.185.385.413v.46c0 .195-.11.364-.232.443l-3.372 1.825-4.202-2.43a.177.177 0 0 0-.257.159l.002.89c0 .069.038.13.1.16l3.217 1.837-3.3 1.785a.243.243 0 0 0-.147.212v.83c-.005.164.165.27.321.199l4.314-2.348 4.905 2.8a.178.178 0 0 0 .256-.157l.015-.81a.177.177 0 0 0-.098-.162"/>
        <g>
            <mask id="b" fill="#fff">
                <use xlink:href="#a"/>
            </mask>
            <path fill="#FFF" d="M17.827 7.843l-8.07 4.544a.164.164 0 0 1-.172 0L2.837 8.782a.162.162 0 0 1 .035-.292l6.684-2.126a.4.4 0 0 1 .238-.002l5.234 1.75a.29.29 0 0 0 .361-.196l.124-.416a.29.29 0 0 0-.195-.36l-4.84-1.632a.405.405 0 0 1-.288-.389V1.43c0-.112.108-.192.214-.158l7.7 2.427a.248.248 0 0 1 .172.26l-.37 3.76a.166.166 0 0 1-.079.125zM10.19 19.021v-5.636c0-.035.018-.068.048-.087l6.746-3.774c.135-.086.3.05.243.2l-2.327 6.02a.259.259 0 0 1-.092.117l-4.53 3.206a.055.055 0 0 1-.088-.046zm-1.012-17.6v3.716a.405.405 0 0 1-.276.384L1.764 7.92a.165.165 0 0 1-.216-.138l-.445-3.826a.242.242 0 0 1 .167-.259l7.693-2.433a.165.165 0 0 1 .215.158zM4.6 15.804L2.146 9.64a.137.137 0 0 1 .201-.167l6.771 3.836a.13.13 0 0 1 .06.11v5.614c0 .046-.051.072-.088.046L4.699 15.93a.285.285 0 0 1-.1-.127zM9.82.023a.506.506 0 0 0-.303 0L.169 2.98A.242.242 0 0 0 0 3.238L.563 8.3l.01.042 3.205 8.135a.21.21 0 0 0 .073.094l5.497 3.939c.192.137.45.138.642.002l5.668-4.01a.186.186 0 0 0 .067-.085l3.132-8.074a.157.157 0 0 0 .01-.044l.5-5.06a.248.248 0 0 0-.173-.261L9.82.023z" mask="url(#b)"/>
        </g>
    </g>
</svg>
