<svg xmlns="http://www.w3.org/2000/svg" width="14" height="11" viewBox="0 0 14 11">
    <g fill="#FFF" fill-rule="nonzero">
        <path d="M4.705 5.67c-1.58 0-2.885-1.27-2.885-2.816 0-1.545 1.27-2.85 2.885-2.85 1.58 0 2.884 1.27 2.884 2.816 0 1.545-1.305 2.85-2.884 2.85zm0-4.98c-1.202 0-2.198.962-2.198 2.13 0 1.167.996 2.129 2.198 2.129s2.198-.962 2.198-2.13c0-1.167-.996-2.128-2.198-2.128zM9.032 10.993c-.206 0-.344-.137-.344-.343 0-2.164-1.785-3.915-4.018-3.915-2.232 0-3.983 1.751-3.983 3.915 0 .206-.138.343-.344.343-.206 0-.343-.137-.343-.343 0-2.542 2.095-4.602 4.705-4.602S9.41 8.108 9.41 10.65c-.035.206-.172.343-.378.343zM13.221 2.82h-4.36c-.207 0-.344-.138-.344-.344 0-.206.137-.343.343-.343h4.361c.207 0 .344.137.344.343a.344.344 0 0 1-.344.344zM13.221 5.224H9.41c-.206 0-.344-.138-.344-.344 0-.206.138-.343.344-.343h3.811c.207 0 .344.137.344.343a.344.344 0 0 1-.344.344zM13.221 7.971h-2.713c-.206 0-.343-.137-.343-.343 0-.206.137-.344.343-.344h2.713c.207 0 .344.138.344.344a.344.344 0 0 1-.344.343z"/>
    </g>
</svg>
