<svg xmlns="http://www.w3.org/2000/svg" xmlns:xlink="http://www.w3.org/1999/xlink" width="420" height="352" viewBox="0 0 420 352">
    <defs>
        <path id="a" d="M0 .828h117.025v67.67H0z"/>
        <linearGradient id="b" x1="81.556%" x2="27.438%" y1="34.967%" y2="62.179%">
            <stop offset="0%" stop-color="#BFE8FF"/>
            <stop offset="100%" stop-color="#8BCCFF"/>
        </linearGradient>
        <path id="d" d="M0 .341h187v112H0z"/>
        <linearGradient id="h" x1="29.881%" x2="92.153%" y1="65.215%" y2="37.813%">
            <stop offset="0%" stop-color="#24A4FF"/>
            <stop offset="100%" stop-color="#42CCFF"/>
        </linearGradient>
        <path id="g" d="M35.1 56.071c-16.236 9.37-16.321 24.556-.192 33.927 16.129 9.369 42.357 9.369 58.592 0l75.272-42.705c16.225-9.365 16.32-24.556.19-33.927-16.128-9.369-42.366-9.364-58.59 0L35.098 56.071z"/>
        <filter id="f" width="109.2%" height="116%" x="-4.6%" y="-5.8%" filterUnits="objectBoundingBox">
            <feMorphology in="SourceAlpha" operator="dilate" radius=".25" result="shadowSpreadOuter1"/>
            <feOffset dy="2" in="shadowSpreadOuter1" result="shadowOffsetOuter1"/>
            <feMorphology in="SourceAlpha" radius="1" result="shadowInner"/>
            <feOffset dy="2" in="shadowInner" result="shadowInner"/>
            <feComposite in="shadowOffsetOuter1" in2="shadowInner" operator="out" result="shadowOffsetOuter1"/>
            <feGaussianBlur in="shadowOffsetOuter1" result="shadowBlurOuter1" stdDeviation="2"/>
            <feColorMatrix in="shadowBlurOuter1" values="0 0 0 0 0.715415396 0 0 0 0 0.937125211 0 0 0 0 1 0 0 0 1 0"/>
        </filter>
        <path id="i" d="M0 .98h117.256V134H0z"/>
        <linearGradient id="j" x1="81.923%" x2="30.278%" y1="26.747%" y2="83.637%">
            <stop offset="0%" stop-color="#42CCFF"/>
            <stop offset="100%" stop-color="#1F9DFF"/>
        </linearGradient>
        <path id="l" d="M0 .828h117.025v67.67H0z"/>
        <linearGradient id="n" x1="50%" x2="50%" y1="0%" y2="100%">
            <stop offset="0%" stop-color="#228BF6"/>
            <stop offset="100%" stop-color="#3F8CF4"/>
        </linearGradient>
        <path id="o" d="M.868.6h61.839V100H.867z"/>
        <linearGradient id="p" x1="74.326%" x2="35.76%" y1="50%" y2="35.79%">
            <stop offset="0%" stop-color="#4CD2FF"/>
            <stop offset="100%" stop-color="#25A6FF"/>
        </linearGradient>
        <path id="r" d="M0 .874h62.577V106H0z"/>
        <linearGradient id="s" x1="62.046%" x2="32.284%" y1="-12.88%" y2="87.961%">
            <stop offset="0%" stop-color="#56D6FF"/>
            <stop offset="100%" stop-color="#2BADFF"/>
        </linearGradient>
        <path id="u" d="M0 .44h32.646v67.575H0z"/>
        <path id="w" d="M.021.534h36.515V61.95H.021z"/>
        <path id="y" d="M1.684 5.013c-.312 7.05-.253 11.854.177 14.413.646 3.839 3.94 25.95 3.94 27.343 0 1.392-3.279 1.895-4.117 1.895-.84 0-2.441 1.834 1.897 1.834s5.038.203 4.688-4.426c-.35-4.629-.708-13.92-.708-17.422 0-3.502-.832-7.038-.832-9.224 0-1.457.78-6.886 2.34-16.287-.533 9.49-.533 14.92 0 16.287.8 2.052 5.118 24.494 5.118 25.917 0 1.424-2.079 1.138-3.188 1.426-1.11.287-1.999 1.586 1.658 1.895 1.775.15 3.452.049 4.178-.6.77-.69.534-1.99.534-4.05 0-4.006-1.058-12.011-1.058-14.603 0-2.592-1.4-8.362-1.4-9.985V3.14L8.268 0 1.684 5.013z"/>
    </defs>
    <g fill="none" fill-rule="evenodd">
        <path fill="#F7FBFF" d="M196.107 81L.054 194.934 197.39 308.865l196.053-113.934z"/>
        <path fill="#F7FBFF" d="M196.107 124L.054 237.933 197.39 351.865l196.053-113.934z"/>
        <path fill="#D3EDFF" d="M197.39 308.865l-.054 19.136 196.053-113.934.054-19.136z"/>
        <path fill="#EAF6FF" d="M0 214.07L197.336 328l.054-19.136L.054 194.933z"/>
        <g opacity=".671">
            <path fill="#F7FBFF" d="M44.4 296L14 313.5 44.6 331 75 313.5z"/>
            <path fill="#D3EDFF" d="M45.008 331.124L45 338l29.992-17.124L75 314z"/>
            <path fill="#EAF6FF" d="M14 320.876L44.992 338l.008-6.876L14.008 314z"/>
        </g>
        <g opacity=".486">
            <path fill="#F7FBFF" d="M373.348 253L327 279.5l46.652 26.5L420 279.5z"/>
            <path fill="#D3EDFF" d="M374.013 306.4L374 317l45.987-26.4L420 280z"/>
            <path fill="#EAF6FF" d="M327 290.6l46.987 26.4.013-10.6-46.987-26.4z"/>
        </g>
        <g transform="translate(135 156.159)">
            <mask id="c" fill="#fff">
                <use xlink:href="#a"/>
            </mask>
            <path fill="url(#b)" d="M8.274 40.785c-10.982 6.34-11.04 16.617-.129 22.958 10.91 6.34 28.652 6.34 39.634 0l60.974-35.203c10.975-6.337 11.04-16.617.13-22.958-10.91-6.34-28.66-6.337-39.635 0L8.274 40.785z" mask="url(#c)" opacity=".146"/>
        </g>
        <g transform="translate(92 139.159)">
            <mask id="e" fill="#fff">
                <use xlink:href="#d"/>
            </mask>
            <g mask="url(#e)">
                <use fill="#000" filter="url(#f)" xlink:href="#g"/>
                <use stroke="url(#h)" stroke-width=".5" xlink:href="#g"/>
            </g>
        </g>
        <g transform="translate(135 65.159)">
            <mask id="k" fill="#fff">
                <use xlink:href="#i"/>
            </mask>
            <path fill="url(#j)" d="M117.025.98c.012 4.183-2.748 8.37-8.272 11.56L47.78 47.743a28.89 28.89 0 0 1-2.056 1.072c-.237.113-.488.21-.73.318-.488.217-.976.435-1.483.63-.16.063-.325.118-.487.179-.56.206-1.127.4-1.705.582-.196.06-.391.124-.59.184-.367.108-.744.2-1.116.298-.574.153-1.152.298-1.74.427-.384.084-.772.16-1.162.235a42.603 42.603 0 0 1-2.737.436 50.432 50.432 0 0 1-2.694.265 55.993 55.993 0 0 1-2.704.11c-.512.008-1.025.003-1.538-.006a48.968 48.968 0 0 1-1.213-.034 45.948 45.948 0 0 1-1.894-.126c-.376-.031-.753-.055-1.127-.095-.19-.02-.38-.045-.57-.067a45.717 45.717 0 0 1-1.94-.275c-.157-.026-.315-.047-.473-.076-.38-.066-.752-.152-1.13-.228-.52-.106-1.04-.208-1.55-.332-.371-.09-.732-.197-1.098-.296a41.008 41.008 0 0 1-1.447-.412 36.282 36.282 0 0 1-2.011-.691c-.082-.031-.16-.066-.242-.098a32.363 32.363 0 0 1-1.792-.765c-.172-.08-.344-.16-.514-.242a29.646 29.646 0 0 1-1.892-.993c-.223-.13-.433-.264-.647-.397a25.07 25.07 0 0 1-.513-.324c-.15-.1-.297-.2-.443-.3a22.193 22.193 0 0 1-.476-.335c-.143-.103-.28-.208-.417-.312a18.135 18.135 0 0 1-.827-.667 17.046 17.046 0 0 1-.709-.636 16.475 16.475 0 0 1-.635-.632c-.068-.071-.14-.141-.205-.213a15.22 15.22 0 0 1-.727-.848c-.062-.078-.118-.16-.178-.24-.136-.177-.27-.356-.394-.538-.068-.1-.131-.201-.197-.301-.106-.166-.21-.33-.306-.496a14.373 14.373 0 0 1-.406-.76 10.309 10.309 0 0 1-.165-.355 9.771 9.771 0 0 1-.316-.786 10.156 10.156 0 0 1-.532-2.344 8.46 8.46 0 0 1-.03-.422c-.01-.165-.021-.33-.022-.494l.232 81.517c0 .082 0 .164.003.246.002.083.014.166.018.25.008.14.016.279.03.419.013.124.03.247.047.37.019.14.04.279.066.418.008.05.013.1.023.15.015.075.037.148.054.222.03.137.063.273.099.408a12.04 12.04 0 0 0 .243.777c.02.056.036.114.057.172.024.063.055.126.08.189a11.03 11.03 0 0 0 .56 1.199c.037.069.068.137.106.204.026.046.058.09.084.136.097.166.2.33.307.496.065.1.128.2.196.3.125.184.259.363.396.544.05.065.093.133.145.199l.03.036c.228.286.472.57.729.849.065.07.136.14.203.21.204.215.416.427.638.636.048.045.089.092.138.138.053.049.112.096.166.145a23.82 23.82 0 0 0 .792.675c.143.116.29.229.438.343.137.105.275.209.416.312.156.113.316.224.477.336.146.099.293.2.444.3.167.109.339.216.512.324.103.063.2.13.305.193a27.734 27.734 0 0 0 2.234 1.195 32.436 32.436 0 0 0 2.308 1.009c.08.032.158.067.24.098.558.213 1.126.414 1.703.6.1.035.208.058.309.089.473.15.958.28 1.443.412.367.1.729.208 1.102.297.51.123 1.029.226 1.548.33.303.063.598.139.904.195.075.013.152.022.228.036.157.027.315.05.473.075.642.106 1.289.197 1.94.275.19.023.379.047.569.068.122.014.242.03.365.043.252.025.509.03.762.05.63.053 1.26.1 1.894.128.15.005.3.024.45.029.255.01.51-.001.765.004.512.01 1.023.013 1.535.008.19-.003.38.006.57.002.239-.006.476-.03.714-.04.475-.017.947-.042 1.42-.075.208-.014.419-.016.627-.033.224-.018.444-.053.667-.074.47-.046.935-.098 1.4-.157.219-.028.44-.042.657-.074.2-.028.396-.072.596-.103.499-.077.993-.164 1.485-.258.23-.044.468-.074.698-.122.157-.032.308-.08.465-.113a42.421 42.421 0 0 0 1.739-.427c.237-.063.484-.11.719-.176.135-.04.264-.084.398-.124.198-.058.393-.121.589-.182a36.32 36.32 0 0 0 1.705-.583c.162-.06.327-.116.487-.178.074-.03.15-.053.225-.082.43-.17.84-.364 1.259-.55.242-.106.492-.204.729-.316a28.906 28.906 0 0 0 2.056-1.074l60.973-35.203c5.524-3.188 8.284-7.377 8.272-11.558L117.025.98z" mask="url(#k)"/>
        </g>
        <g transform="translate(135 49.159)">
            <mask id="m" fill="#fff">
                <use xlink:href="#l"/>
            </mask>
            <path fill="url(#b)" d="M8.274 40.785c-10.982 6.34-11.04 16.617-.129 22.958 10.91 6.34 28.652 6.34 39.634 0l60.974-35.203c10.975-6.337 11.04-16.617.13-22.958-10.91-6.34-28.66-6.337-39.635 0L8.274 40.785z" mask="url(#m)"/>
        </g>
        <path fill="#FFF" fill-opacity=".425" d="M212.435 112.825c11.32-6.568 20.528-1.294 20.565 11.779.036 13.076-9.112 29.001-20.432 35.57-11.323 6.57-20.53 1.296-20.568-11.78-.036-13.073 9.112-28.999 20.435-35.569"/>
        <path fill="url(#n)" d="M120.4 126.018c4.093-2.363 7.427-.472 7.439 4.24.012 3.837-2.178 8.347-5.216 11.177l.026 9.163c.004 1.236-.865 2.75-1.942 3.372l-.463.268c-1.069.617-1.951.113-1.955-1.123l-.026-9.163c-3.036.677-5.253-1.29-5.263-5.126-.013-4.712 3.298-10.44 7.4-12.808" transform="translate(92 -1)"/>
        <g>
            <path fill="#2E8BF5" d="M219.653 33.322c-.012-4.116-.928-7.474-2.53-9.945-.963-1.483-2.172-2.648-3.582-3.467l-9.867-5.734c3.76 2.184 6.093 6.825 6.112 13.412l.12 41.906 9.866 5.734-.119-41.906z"/>
            <g transform="translate(167 5.127)">
                <mask id="q" fill="#fff">
                    <use xlink:href="#o"/>
                </mask>
                <path fill="url(#p)" d="M31.624 4.821c17.015-9.823 30.909-1.913 30.964 17.64l.119 41.904-9.935 5.736-.12-41.906C52.617 14.938 43.2 9.565 31.657 16.23 20.119 22.89 10.758 39.105 10.795 52.362l.12 41.905L.985 100 .869 58.093c-.056-19.55 13.74-43.448 30.756-53.272" mask="url(#q)"/>
            </g>
            <g transform="translate(158 -.873)">
                <mask id="t" fill="#fff">
                    <use xlink:href="#r"/>
                </mask>
                <path fill="url(#s)" d="M9.987 60.865a48.22 48.22 0 0 1 .26-2.64c.03-.246.068-.492.103-.738.058-.414.118-.829.187-1.245.047-.277.098-.557.15-.835a52.394 52.394 0 0 1 .44-2.18c.06-.267.12-.535.183-.802.085-.356.175-.71.267-1.067.068-.264.135-.527.206-.79.058-.21.12-.42.18-.629.25-.882.516-1.764.807-2.646.025-.075.047-.15.072-.226a68.106 68.106 0 0 1 1.17-3.212 73.09 73.09 0 0 1 .88-2.152c.05-.116.096-.234.146-.349.346-.796.711-1.587 1.087-2.374.098-.206.2-.41.3-.615.306-.624.621-1.245.944-1.862.1-.19.198-.38.3-.57.413-.774.84-1.543 1.281-2.3.082-.143.168-.282.251-.423.391-.663.793-1.32 1.204-1.97.12-.189.237-.378.358-.565a74.66 74.66 0 0 1 1.563-2.334c.083-.12.17-.236.253-.354a73.495 73.495 0 0 1 1.726-2.34c.074-.096.146-.195.22-.29a69.465 69.465 0 0 1 2.281-2.778c.1-.114.196-.232.296-.345a63.212 63.212 0 0 1 1.525-1.688l.004-.004a61.783 61.783 0 0 1 2.57-2.579c.102-.097.203-.197.305-.292.45-.42.903-.83 1.361-1.233.118-.103.237-.2.356-.303a56.06 56.06 0 0 1 1.033-.872c.168-.138.338-.272.507-.407.303-.242.608-.482.914-.717a57.08 57.08 0 0 1 1.461-1.072c.181-.128.361-.257.543-.382.328-.225.66-.443.991-.658.158-.103.316-.21.475-.31.49-.309.982-.61 1.477-.896a39.7 39.7 0 0 1 1.948-1.047c.186-.094.372-.182.558-.272.49-.238.976-.459 1.46-.666.173-.075.348-.155.522-.226.45-.183.896-.35 1.34-.51.12-.042.241-.09.36-.132a27.39 27.39 0 0 1 1.663-.514c.333-.09.66-.168.99-.244.14-.033.282-.074.422-.104.471-.1.936-.187 1.396-.258.037-.005.074-.007.111-.013.401-.06.798-.108 1.191-.144.14-.013.278-.019.418-.03a21.078 21.078 0 0 1 2.536-.025c.098.005.193.02.291.026.477.036.946.092 1.407.165a16.095 16.095 0 0 1 1.973.427c.02.005.036.012.054.017.482.142.95.312 1.408.497.132.053.263.111.394.168.39.17.77.356 1.14.557.123.067.25.125.371.195L52.71 2.954l-.17-.097c-.064-.036-.134-.06-.199-.096a14.042 14.042 0 0 0-1.143-.559c-.072-.032-.139-.073-.212-.104-.059-.025-.122-.04-.18-.064-.46-.186-.929-.356-1.41-.498-.016-.004-.03-.01-.044-.015-.003 0-.006 0-.009-.002a16.399 16.399 0 0 0-1.546-.356c-.062-.012-.12-.03-.182-.042-.08-.014-.165-.016-.245-.028-.46-.074-.93-.129-1.407-.166-.073-.004-.143-.02-.216-.025h-.075a19.386 19.386 0 0 0-1.79-.015c-.062.002-.12-.003-.18 0-.187.007-.377.026-.566.04-.14.01-.278.017-.42.031-.392.036-.788.083-1.188.142-.038.006-.074.008-.112.014l-.016.003c-.455.07-.916.155-1.38.256-.138.03-.278.068-.416.1-.305.072-.609.14-.917.223-.026.007-.053.018-.079.024-.548.151-1.102.321-1.663.513-.12.041-.244.092-.365.135-.443.158-.887.325-1.335.508-.063.026-.123.045-.186.071-.11.046-.226.106-.338.154-.483.207-.969.43-1.459.667-.185.09-.37.178-.557.272-.645.326-1.294.67-1.948 1.047-.496.287-.988.587-1.478.896-.158.1-.314.205-.472.308a43.843 43.843 0 0 0-2.45 1.704c-.183.136-.366.271-.547.411-.307.234-.612.474-.915.717-.169.135-.338.267-.506.405-.347.285-.692.578-1.035.874-.118.102-.237.2-.354.302-.458.402-.912.813-1.362 1.233-.1.094-.198.191-.297.285-.29.275-.58.55-.867.831-.046.045-.09.094-.136.14a64.962 64.962 0 0 0-1.574 1.613l-.013.016a62.39 62.39 0 0 0-1.515 1.677c-.044.05-.089.095-.132.145-.057.066-.11.137-.166.202a70.096 70.096 0 0 0-2.28 2.776c-.02.025-.04.05-.062.075-.054.071-.105.147-.16.218a70.75 70.75 0 0 0-1.723 2.338c-.058.08-.119.156-.175.236-.028.04-.052.08-.079.117a74.01 74.01 0 0 0-1.562 2.333c-.049.075-.1.148-.15.223-.073.114-.139.231-.21.346-.41.65-.81 1.303-1.2 1.965-.062.104-.128.204-.188.306l-.066.12a73.908 73.908 0 0 0-1.282 2.3l-.105.187c-.067.126-.127.255-.194.382a77.37 77.37 0 0 0-.943 1.862c-.063.13-.133.256-.196.386-.037.077-.069.155-.105.231a71.096 71.096 0 0 0-1.086 2.373l-.038.08c-.039.09-.072.181-.11.27a71.845 71.845 0 0 0-.879 2.15c-.046.118-.099.235-.144.353-.037.096-.068.194-.104.29a68.696 68.696 0 0 0-.922 2.57l-.02.056c-.02.06-.034.117-.054.174-.29.88-.557 1.76-.806 2.641-.03.111-.07.221-.1.332-.029.1-.052.198-.079.298-.072.262-.138.526-.206.79-.092.355-.182.711-.267 1.066-.063.268-.124.535-.184.803-.043.193-.09.388-.132.58-.028.131-.049.262-.076.393-.083.402-.158.802-.23 1.204-.053.28-.105.56-.15.841-.07.414-.13.827-.188 1.24-.028.196-.064.394-.09.592-.006.05-.008.098-.014.148a48.053 48.053 0 0 0-.293 3.2A43.691 43.691 0 0 0 0 58.36l.12 41.904L9.985 106l-.119-41.906c-.003-.88.033-1.774.086-2.67.011-.187.021-.372.034-.559" mask="url(#t)"/>
            </g>
        </g>
        <g>
            <path fill="#EFF8FF" d="M250.352 198l-45.34 27L252 250.686l45.352-26z"/>
            <path fill="#D3EDFF" d="M252.012 250.686L252 261l43.988-25.686L296 225z"/>
            <path fill="#EAF6FF" d="M205 235.314L251.987 261l.013-10.314L205.013 225z"/>
        </g>
        <g opacity=".434">
            <path fill="#A4DAFF" d="M64.967 157L55 163l10.033 6L75 163z"/>
            <path fill="#25A5FF" d="M65.03 168.931L65 180l9.97-5.931L75 163z"/>
            <path fill="#42CCFF" d="M55 174.069L64.97 180l.03-11.069L55.03 163z"/>
        </g>
        <g opacity=".51">
            <path fill="#A4DAFF" d="M334.818 164l-16.767 9.743 16.877 9.744 16.767-9.744z"/>
            <path fill="#25A5FF" d="M334.928 183.487l-.05 18.181 16.765-9.743.052-18.18z"/>
            <path fill="#42CCFF" d="M318 191.925l16.877 9.743.051-18.181-16.877-9.743z"/>
        </g>
        <g opacity=".434">
            <path fill="#A4DAFF" d="M64.967 171L55 177l10.033 6L75 177z"/>
            <path fill="#25A5FF" d="M65.03 182.931L65 194l9.97-5.931L75 177z"/>
            <path fill="#42CCFF" d="M55 188.069L64.97 194l.03-11.069L55.03 177z"/>
        </g>
        <g opacity=".698">
            <g transform="translate(72.055 57.298)">
                <mask id="v" fill="#fff">
                    <use xlink:href="#u"/>
                </mask>
                <path fill="#FB9565" d="M23.656 9.675l-.004-1.336c0-.403-.29-.567-.646-.364L9.511 15.682c-.355.203-.642.695-.641 1.098l.004 1.336c.001.403.29.566.644.363l13.497-7.706c.355-.203.642-.695.64-1.098zm4.675-8.668C30.642-.312 32.515.75 32.522 3.37l.124 43.145c.008 2.626-1.853 5.814-4.164 7.133l-24.167 13.8c-2.306 1.317-4.184.264-4.19-2.362L0 21.94c-.007-2.621 1.858-5.817 4.164-7.134l24.167-13.8z" mask="url(#v)"/>
            </g>
            <g transform="translate(73.445 36)">
                <mask id="x" fill="#fff">
                    <use xlink:href="#w"/>
                </mask>
                <path fill="#540909" d="M8.175 1.593c6.456-3.687 7.537 3.43 7.55 3.505l.071 23.602-.989.564-.067-23.478c-.086-.558-1.108-6.19-6.563-3.076a12.55 12.55 0 0 0-.8.501c-2.369 1.6-4.435 4.405-5.532 7.51C.444 14.683.815 18.505 2.87 21.209c4.402 5.796 33.377 39.317 33.667 39.657l-.823 1.086c-.29-.34-29.275-33.876-33.69-39.685-2.229-2.937-2.619-7.148-1.063-11.55 1.256-3.54 3.614-6.739 6.323-8.568.308-.207.604-.392.89-.555" mask="url(#x)"/>
            </g>
            <path fill="#AB4D4D" d="M90.976 60L91 67.084 87.024 69 87 61.916z"/>
        </g>
        <g>
            <g transform="translate(247.716 183.321)">
                <mask id="z" fill="#fff">
                    <use xlink:href="#y"/>
                </mask>
                <use fill="#F6D5D0" xlink:href="#y"/>
                <path fill="#413B53" d="M2.784 46.611l7.952-1.587 8.951-1.863-2.298 7.338-9.08 2.466H-2l1.07-4.902z" mask="url(#z)"/>
            </g>
            <path fill="#DA7F72" d="M248.405 185.808l-6.455 31.75c2.907-.983 5.058-.983 6.455 0 2.095 1.472 7.014-1.535 8.595-1.535 1.58 0 8.455 1.534 10.443 1.534 1.988 0 7.511.015 7.511-1.534 0-1.033-3.787-11.104-11.363-30.215h-15.186z"/>
            <path fill="#F4DFDF" d="M245.716 134.353c-.748 4.237-.357 6.865 1.172 7.882 2.294 1.526 2.786.792 2.786.792l.28 3.72 3.263-1.22-1.913-8.736-4.416-3.115-1.172.677z"/>
            <path fill="#7EC2B1" d="M250.272 144.78c-.93 1.91-1.722 3.03-2.378 3.359-.983.494-1.176 1.588-1.608 1.588-.433 0-5.983 1.712-10.344 1.077-4.36-.635-10.458-2.449-11.328-5.33-.87-2.88-2.614-3.18-2.614-1.59s-.023 2.478 1.074 3.786c1.098 1.308 9.428 14.694 23.212 14.694.693 1.571.72 3.14.079 4.707-.961 2.35-4.707 12.026-2.125 16.64 2.582 4.615 7.953 8.78 16.839 6.355 8.885-2.425 7.687-8.759 6.599-11.357-.726-1.732-2.926-6.426-6.6-14.08l4.637-9.554c1.485-1.13 2.403-3.128 2.756-5.995.352-2.867.673-7.467.96-13.8-.111-2.74-.431-4.402-.96-4.985-.793-.875-2.547.253-.793 2.619-1.513 6.408-4.384 10.812-8.614 13.213-4.23 2.4-6.515 1.474-6.858-2.78l-1.934 1.432z"/>
            <path fill="#392B2B" d="M245.404 134.26c1.164.48 1.746 1 1.746 1.557 0 .836 5.259 4.557 4.351 10.33-.908 5.775-1.202 9.197 2.508 13.01 3.711 3.814 2.85 7.06 4.439 8.938 1.588 1.878 6.775 8.521 15.898 7.042 9.123-1.48 0-5.47 0-7.042s-.063-7.454-3.666-10.372c-3.602-2.918-10.536-7.148-11.384-11.575-.848-4.428.06-12.574-5.287-15.086-3.563-1.674-6.432-.608-8.605 3.199z"/>
        </g>
    </g>
</svg>
