<svg xmlns="http://www.w3.org/2000/svg" width="18" height="20" viewBox="0 0 18 20">
    <g fill="#FFF" fill-rule="evenodd">
        <path fill-rule="nonzero" d="M5.153 13.056l.67-.39L8.4 14.223V10.39l-.515-.278L5.308 8.5v3.167L4.741 12l-2.164-1.333L0 12.222v3.222L2.577 17l2.576-1.556v-2.388zM13.207 12l-.515-.333V8.5L9.6 10.389v3.833l2.577-1.555.67.389v2.388L15.423 17 18 15.444v-3.222l-2.577-1.555L13.207 12zM6 7.859l3 1.855.5-.327L12 7.859 9.5 6.33v-.382l2-1.256v-3.11L9 0 6.5 1.583v3.11l2 1.256v.382L6 7.859z" opacity=".5"/>
        <path d="M13 2v2.453L15.85 6v2.773l.268.16L18 10V4.72zM10.747 17L8 18.11 5.253 17l-.44.205-1.813.74L8 20l5-2.055-1.813-.74zM2.15 8.773V6L5 4.453V2L0 4.72V10l1.882-1.067z" opacity=".3"/>
    </g>
</svg>
