<svg xmlns="http://www.w3.org/2000/svg" width="15" height="10" viewBox="0 0 15 10">
    <path fill="#FFF" fill-rule="nonzero" d="M13.525.28c-.81 0-1.469.611-1.469 1.368v.04l-2.653.528-.453-1.183a.582.582 0 0 0 .168-.41c0-.34-.295-.615-.662-.615-.357 0-.645.262-.659.59l-6.58 3.064a.855.855 0 0 0-.397-.099c-.446 0-.807.337-.807.754s.36.75.807.75c.1 0 .195-.015.281-.046L5.19 8.944a.733.733 0 0 0-.038.232c0 .376.295.685.662.685a.673.673 0 0 0 .663-.685v-.028l3.737-.633c.165.463.632.796 1.184.796.69 0 1.25-.522 1.25-1.164 0-.417-.237-.785-.59-.988L13.315 3c.068.01.14.015.21.015.81 0 1.468-.611 1.468-1.368 0-.757-.659-1.368-1.469-1.368zm-3 7.033L1.919 4.264l7.249-1.442 1.647 4.293c-.107.056-.203.12-.288.198zM2.252 3.637L7.931.99c.12.148.312.244.525.244.034 0 .065-.003.1-.006l.411 1.075-6.716 1.334zM5.813 8.49a.65.65 0 0 0-.363.111L1.462 4.774c.017-.022.034-.043.051-.068l8.697 3.083a1.094 1.094 0 0 0-.058.318l-3.813.645a.66.66 0 0 0-.526-.262zm5.68-1.501c-.034-.003-.065-.003-.1-.003-.054 0-.109.003-.16.009L9.599 2.738l2.588-.515c.123.247.322.454.57.593l-1.264 4.173z"/>
</svg>
