<svg xmlns="http://www.w3.org/2000/svg" width="10" height="12" viewBox="0 0 10 12">
    <path fill="#FFF" fill-rule="nonzero" d="M2.232 3.706h2.5A.266.266 0 0 0 5 3.44a.266.266 0 0 0-.268-.265h-2.5a.266.266 0 0 0-.268.265c0 .146.12.265.268.265zm-.268 2.382c0 .146.12.265.268.265H7.59a.266.266 0 0 0 .268-.265.266.266 0 0 0-.268-.264H2.232a.266.266 0 0 0-.268.264zM7.34.176h-.733V0v.176H.714A.71.71 0 0 0 0 .882v10.412c0 .39.32.706.714.706h8.571a.71.71 0 0 0 .715-.706v-8.17L7.34.175zm-.197.706l2.142 2.294H7.5a.355.355 0 0 1-.357-.352V.882zm2 9.897a.343.343 0 0 1-.345.342H1.202a.343.343 0 0 1-.345-.342V1.397c0-.189.155-.341.345-.341h5.351v2.047c0 .377.31.682.691.682h1.899v6.994zM7.589 8.647H2.232a.266.266 0 0 0-.268.265c0 .146.12.264.268.264H7.59a.266.266 0 0 0 .268-.264.266.266 0 0 0-.268-.265z"/>
</svg>
