<svg xmlns="http://www.w3.org/2000/svg" width="30" height="32" viewBox="0 0 30 32">
    <defs>
        <linearGradient id="a" x1="-13.158%" x2="115.519%" y1="49.838%" y2="49.838%">
            <stop offset="0%" stop-color="#4285F4"/>
            <stop offset="100%" stop-color="#0069FF" stop-opacity=".2"/>
        </linearGradient>
    </defs>
    <g fill="none" fill-rule="evenodd">
        <path fill="url(#a)" d="M10.382 14.863c-4.022 0-7.768-1.119-10.3-2.82a8.863 8.863 0 0 1-.08-.054v3.47c.507.485 1.15.952 1.908 1.377 2.296 1.286 5.384 2.025 8.472 2.025 1.202 0 2.38-.09 3.508-.266v-3.978a24.83 24.83 0 0 1-3.508.246zM13.89 21.687v-1.198a24.838 24.838 0 0 1-3.508.246c-4.03 0-7.782-1.123-10.314-2.83a2.347 2.347 0 0 1-.066-.045v3.814c.45.384.986.753 1.596 1.096 2.296 1.287 5.383 2.025 8.471 2.025 1.658 0 3.274-.173 4.768-.502a4.029 4.029 0 0 1-.947-2.606zM20.741 28.022l-.063-.034-3.871-2.276c-2.047.624-4.358.957-6.738.957-3.9 0-7.541-1.052-10.067-2.668v3.608c0 2.883 5.234 4.39 10.405 4.39 4.908 0 9.874-1.358 10.364-3.962l-.03-.015zM10.407 0C5.399 0 .332 1.414.017 4.121c.441.37.96.727 1.55 1.057 2.296 1.287 5.384 2.025 8.472 2.025 3.178 0 6.2-.635 8.512-1.787.92-.459 1.668-.978 2.207-1.516C20.201 1.337 15.276 0 10.407 0z"/>
        <path fill="url(#a)" d="M19.387 7.093c-2.566 1.28-5.886 1.984-9.348 1.984-3.885 0-7.513-1.107-10.037-2.711v3.346c.507.485 1.088.827 1.845 1.252 2.297 1.287 5.447 2.025 8.535 2.025 1.202 0 2.38-.09 3.508-.266v-1.075c0-.792.53-1.486 1.291-1.696l5.63-1.645V6.266c-.43.292-.905.568-1.424.827zM28.68 11.375l-5.815-1.7-.023-.007a1.055 1.055 0 0 0-.54 0l-5.838 1.707a1.455 1.455 0 0 0-1.068 1.401v8.297c0 1.26.693 2.398 1.811 2.975l3.8 2.233.052.03c.474.238.993.358 1.513.358.52 0 1.04-.12 1.513-.359l.027-.013 3.825-2.249a3.332 3.332 0 0 0 1.811-2.975v-8.297c0-.654-.438-1.228-1.067-1.401z"/>
        <path fill="#000" fill-rule="nonzero" d="M25.957 17.077l-3.826 3.54-.024.02-.033.029-.04.029-.035.024-.042.025-.036.02c-.015.008-.03.014-.046.021l-.035.016-.05.017-.034.011c-.018.006-.037.01-.055.014l-.031.007-.063.01-.024.003a.948.948 0 0 1-.18 0l-.026-.005a.923.923 0 0 1-.066-.01l-.032-.008-.058-.014-.035-.013-.052-.019-.037-.017-.048-.023-.037-.022-.044-.028-.036-.027a.938.938 0 0 1-.04-.031l-.035-.031-.025-.023-1.672-1.672a.937.937 0 1 1 1.325-1.325l1.035 1.035 3.164-2.929a.937.937 0 0 1 1.273 1.376z"/>
    </g>
</svg>
