<?xml version="1.0" encoding="UTF-8"?>
<svg width="14px" height="13px" viewBox="0 0 14 13" version="1.1" xmlns="http://www.w3.org/2000/svg" xmlns:xlink="http://www.w3.org/1999/xlink">
    <!-- Generator: sketchtool 53.2 (72643) - https://sketchapp.com -->
    <title>E20F3E2E-703F-490A-A9AD-EEAD18D2181D</title>
    <desc>Created with sketchtool.</desc>
    <g id="数据治理平台" stroke="none" stroke-width="1" fill="none" fill-rule="evenodd">
        <g id="侵权数据_数据详情" transform="translate(-1271.000000, -96.000000)">
            <g id="分组-19" transform="translate(280.000000, 84.000000)">
                <g id="分组-2-copy-3" transform="translate(24.000000, 0.000000)">
                    <g id="分组-14-copy-7" transform="translate(952.000000, 0.000000)">
                        <g id="下载" transform="translate(16.000000, 12.000000)">
                            <path d="M0,8 L0,10 C1.3527075e-16,11.1045695 0.8954305,12 2,12 L10,12 C11.1045695,12 12,11.1045695 12,10 L12,8.05088729" id="路径-6" stroke="#FFFFFF" stroke-width="1.4" stroke-linecap="round" stroke-linejoin="round"></path>
                            <path d="M5.55619285,9.82497217 C5.67384107,9.93701582 5.83369694,10 6.00041908,10 C6.16714123,10 6.32699709,9.93701582 6.44464531,9.82497217 L8.81580755,7.5768112 C8.97466402,7.42614198 9.03670454,7.20653678 8.97855904,7.00071878 C8.92041354,6.79490078 8.7509157,6.63413862 8.53391373,6.57898986 C8.31691176,6.52384109 8.08537341,6.58268413 7.92651695,6.73335337 L6.62820294,7.96395915 L6.62820294,0.596223736 C6.62820294,0.266938459 6.34675928,0 5.99958093,0 C5.65240257,0 5.37095891,0.266938459 5.37095891,0.596223736 L5.37095891,7.96475412 L4.07348306,6.73414833 C3.9146266,6.58347909 3.68308825,6.52463606 3.46608627,6.57978482 C3.2490843,6.63493359 3.07958646,6.79569575 3.02144096,7.00151375 C2.96329546,7.20733175 3.02533597,7.42693695 3.18419245,7.57760618 L5.55619285,9.82497217 L5.55619285,9.82497217 Z" id="路径" fill="#FFFFFF" fill-rule="nonzero"></path>
                        </g>
                    </g>
                </g>
            </g>
        </g>
    </g>
</svg>