<?xml version="1.0" encoding="UTF-8"?>
<svg width="14px" height="16px" viewBox="0 0 14 16" version="1.1" xmlns="http://www.w3.org/2000/svg" xmlns:xlink="http://www.w3.org/1999/xlink">
    <!-- Generator: Sketch 49.3 (51167) - http://www.bohemiancoding.com/sketch -->
    <title>编辑 (2) copy</title>
    <desc>Created with Sketch.</desc>
    <defs></defs>
    <g id="Page-1" stroke="none" stroke-width="1" fill="none" fill-rule="evenodd">
        <g id="合约管理-我的合约" transform="translate(-811.000000, -318.000000)" fill="#7F8FA4" fill-rule="nonzero">
            <g id="编辑-(2)-copy" transform="translate(811.000000, 318.000000)">
                <path d="M4.83480649,13.3584939 L0.789572452,9.31325989 L8.31992402,1.65942173 L12.365624,5.70465577 L11.7500551,6.33047645 C11.7491231,6.33047645 11.7491231,6.33140843 11.7491231,6.33140843 L11.7481911,6.33234039 L4.83480649,13.3584939 Z M4.50768354,13.6902767 L4.4732005,13.7256918 C4.46854063,13.7303516 4.46294878,13.7312836 4.45828891,13.7354775 C4.42691964,13.7655811 4.3906824,13.7901594 4.35111187,13.8081715 C4.34831595,13.8091035 4.346452,13.8114334 4.34365608,13.8128314 C4.30867121,13.8270613 4.27176574,13.8360129 4.23414911,13.8393926 L0.423306592,14.1916789 C0.411190926,14.1930768 0.40000724,14.1930768 0.387891573,14.1930768 C0.278669124,14.1928372 0.174678421,14.1462616 0.101775493,14.0649304 C0.0280219867,13.9826704 -0.00826275018,13.8734787 0.0015882685,13.7634367 L0.348282666,9.89061791 C0.351715353,9.85240698 0.360661897,9.81489427 0.374843926,9.779247 L0.379503797,9.7717912 C0.396941905,9.73153926 0.421045449,9.69451749 0.450799833,9.66228423 C0.454527724,9.65762436 0.455925686,9.65203251 0.460119574,9.64737264 L0.462449502,9.6450427 L4.50768354,13.6902767 Z M12.692281,5.37240697 L8.64751296,1.32717293 L9.61257225,0.345804092 C9.8290845,0.124644429 10.1255413,0 10.4350395,0 C10.7445377,0 11.0409945,0.124644429 11.2575067,0.345804092 L13.6251872,2.75216149 C14.0786021,3.21726176 14.0786021,3.95902294 13.6251872,4.42412321 L12.691815,5.37240697 L12.692281,5.37240697 Z M6.98999683,15.37715 C6.56128869,15.37715 6.21319633,15.0239318 6.21319633,14.5877679 C6.21319633,14.15207 6.56082271,13.7983858 6.98999683,13.7983857 C7.41870497,13.7983857 7.76679733,14.15207 7.76679733,14.5877679 C7.76679733,15.0239318 7.41870497,15.37715 6.98999683,15.37715 Z M10.0967329,15.37715 C9.66802471,15.37715 9.31993235,15.0239318 9.31993234,14.5877679 C9.31993234,14.15207 9.66755872,13.7983858 10.0967329,13.7983857 C10.525441,13.7983857 10.8730674,14.15207 10.8730674,14.5877679 C10.8730674,15.0239318 10.525441,15.37715 10.0967329,15.37715 Z M13.2030029,15.37715 C12.7742947,15.37715 12.4266684,15.0239318 12.4266684,14.5877679 C12.4266684,14.15207 12.7742947,13.7983858 13.2030029,13.7983857 C13.631711,13.7983857 13.9798034,14.15207 13.9798034,14.5877679 C13.9798034,15.0239318 13.632177,15.37715 13.2030029,15.37715 Z M4.19640416,8.84867075 C4.2998533,8.84867075 4.39957454,8.80673192 4.47226852,8.73217398 L7.96251192,5.18508015 C8.06163044,5.08410099 8.10023022,4.93837799 8.06409711,4.80157277 C8.02862605,4.66546483 7.92332499,4.55856561 7.78776675,4.52104853 C7.65266885,4.48429661 7.50825987,4.52351881 7.41031721,4.62356569 L3.92007381,8.1711255 C3.80820098,8.28551479 3.77488493,8.45539005 3.83526416,8.60356153 C3.89584247,8.75221142 4.03843453,8.84867074 4.19640416,8.84867075 Z M5.59436547,10.2466321 C5.6978146,10.2466321 5.79753584,10.2046932 5.87022983,10.1301353 L9.36047323,6.58304145 C9.45959175,6.4820623 9.49819152,6.3363393 9.46205841,6.19953407 C9.42658736,6.06342614 9.32128629,5.95652691 9.18572806,5.91900983 C9.05063016,5.88225792 8.90622118,5.92148011 8.80827851,6.021527 L5.31803511,9.56908681 C5.20616228,9.6834761 5.17284623,9.85335135 5.23322546,10.0015228 C5.29380378,10.1501727 5.43639584,10.246632 5.59436547,10.2466321 Z" id="Shape"></path>
            </g>
        </g>
    </g>
</svg>