<?xml version="1.0" encoding="UTF-8"?>
<svg width="45px" height="45px" viewBox="0 0 45 45" version="1.1" xmlns="http://www.w3.org/2000/svg" xmlns:xlink="http://www.w3.org/1999/xlink">
    <!-- Generator: Sketch 49.3 (51167) - http://www.bohemiancoding.com/sketch -->
    <title>Group 2</title>
    <desc>Created with Sketch.</desc>
    <defs>
        <radialGradient cx="87.4452764%" cy="18.4602442%" fx="87.4452764%" fy="18.4602442%" r="98.8025216%" id="radialGradient-1">
            <stop stop-color="#FFFFFF" stop-opacity="0.5" offset="0%"></stop>
            <stop stop-color="#FFFFFF" stop-opacity="0" offset="100%"></stop>
        </radialGradient>
        <circle id="path-2" cx="22.5" cy="22.5" r="22.5"></circle>
    </defs>
    <g id="Page-1" stroke="none" stroke-width="1" fill="none" fill-rule="evenodd">
        <g id="图片精灵" transform="translate(-187.000000, -86.000000)">
            <g id="Group-2" transform="translate(187.000000, 86.000000)">
                <g id="Oval-4">
                    <use fill="#0169FE" xlink:href="#path-2"></use>
                    <use fill="url(#radialGradient-1)" xlink:href="#path-2"></use>
                </g>
                <g id="Group-5" transform="translate(11.000000, 4.000000)" fill="#FFFFFF" fill-rule="nonzero">
                    <polygon id="Path-9" points="11.2578947 0.485430969 11.9842105 0.485430969 11.9842105 25.0066524 11.2578947 25.0066524"></polygon>
                    <path d="M11.3177522,0.297474509 C11.4596199,0.0615348205 11.8013611,0.0629293535 11.9413082,0.300019035 L22.6440029,18.431861 C22.7457798,18.6042851 22.6894668,18.826747 22.5179942,18.929653 L11.8152995,25.3526647 C11.7013573,25.4210449 11.5592712,25.4216228 11.4447793,25.3541717 L0.542322846,18.9311599 C0.368034265,18.8284805 0.310931272,18.6028848 0.415295791,18.4293165 L11.3177522,0.297474509 Z M1.22692886,18.4899177 L11.6270593,24.616992 L21.8349201,18.490945 L11.6258895,1.19543814 L1.22692886,18.4899177 Z" id="Path-8"></path>
                    <polygon id="Path-12" points="11.1804833 27.4700786 11.9067991 27.4700786 11.9067991 36.1797704 11.1804833 36.1797704"></polygon>
                    <path d="M11.5535952,35.7938327 L21.1167033,21.9996829 L11.7464086,27.7559924 C11.6309945,27.826893 11.4858259,27.8275598 11.3697686,27.7577224 L1.7832794,21.9890567 L11.5535952,35.7938327 Z M11.7435634,27.1334071 L11.3669234,27.1351371 L11.5547201,27.0197708 L11.7435634,27.1334071 Z M22.2129044,20.4722918 C22.5481264,20.26636 22.9252313,20.6668513 22.7008535,20.9905014 L11.8548726,36.6351103 C11.7112565,36.842267 11.4061056,36.8437536 11.2604879,36.6380061 L0.188032456,20.9933972 C-0.039537113,20.6718573 0.333921945,20.2676604 0.671107906,20.4705619 L11.5547201,27.0197708 L22.2129044,20.4722918 Z" id="Path-11"></path>
                    <path d="M0.94903868,18.9696538 L0.636530863,18.3123539 L11.4684849,13.1363974 C11.5677793,13.0889505 11.6831737,13.089178 11.7822811,13.1370162 L22.5054206,18.3129727 L22.1903359,18.9690351 L11.6239467,13.8687404 L0.94903868,18.9696538 Z" id="Path-10"></path>
                </g>
            </g>
        </g>
    </g>
</svg>