<?xml version="1.0" encoding="UTF-8"?>
<svg width="45px" height="45px" viewBox="0 0 45 45" version="1.1" xmlns="http://www.w3.org/2000/svg" xmlns:xlink="http://www.w3.org/1999/xlink">
    <!-- Generator: Sketch 49.3 (51167) - http://www.bohemiancoding.com/sketch -->
    <title>Group 4</title>
    <desc>Created with Sketch.</desc>
    <defs>
        <radialGradient cx="87.4452764%" cy="18.4602442%" fx="87.4452764%" fy="18.4602442%" r="98.8025216%" id="radialGradient-1">
            <stop stop-color="#FFFFFF" stop-opacity="0.5" offset="0%"></stop>
            <stop stop-color="#FFFFFF" stop-opacity="0" offset="100%"></stop>
        </radialGradient>
        <circle id="path-2" cx="22.5" cy="22.5" r="22.5"></circle>
    </defs>
    <g id="Page-1" stroke="none" stroke-width="1" fill="none" fill-rule="evenodd">
        <g id="图片精灵" transform="translate(-187.000000, 0.000000)">
            <g id="Group-4" transform="translate(187.000000, 0.000000)">
                <g id="Group-5">
                    <g id="Oval-4">
                        <use fill="#0169FE" xlink:href="#path-2"></use>
                        <use fill="url(#radialGradient-1)" xlink:href="#path-2"></use>
                    </g>
                </g>
                <g id="Fabric" transform="translate(6.000000, 7.000000)" fill="#FFFFFF" fill-rule="nonzero">
                    <path d="M7.33310363,2.43817116 L0.895876847,16.7261404 L9.96900884,29.6195385 L25.0652805,28.1004168 L25.3521715,13.373342 L22.681944,0.880491809 L7.33310363,2.43817116 Z M7.13617565,1.94785639 L22.8570048,0.352425711 L23.1308738,0.551915932 L25.8547798,13.2959049 L25.5684917,28.3353909 L25.3401096,28.5830174 L9.87221462,30.1395351 L9.6392017,30.0330513 L0.397377652,16.8999329 L0.373533238,16.6495737 L6.93036419,2.09613293 L7.13617565,1.94785639 Z" id="Shape"></path>
                    <polygon id="Shape" points="7.03488303 2.68646457 7.28872821 2.6871697 7.24759105 16.671817 9.6212806 29.1823283 9.37188384 29.2296477 6.99597009 16.6951242"></polygon>
                    <polygon id="Shape" points="1.1046717 16.6859285 13.4338865 23.8497165 25.1077695 27.9939449 24.9379237 28.4723839 13.2214984 24.3084593 0.555335383 16.953913 0.50882336 16.5495389 10.1008639 7.52173606 22.4652954 0.481599883 22.7162799 0.922914166 10.4267164 7.91223936"></polygon>
                    <polygon id="Shape" points="7.12709003 2.32248849 7.19652121 2.07832219 19.5474187 5.59647573 31.8439088 13.6709115 31.7045758 13.8831005 19.4430366 5.82465339"></polygon>
                    <polygon id="Shape" points="25.588966 13.6022006 25.5188689 13.5871894 10.1871692 7.94481257 10.362513 7.46836108 25.6602347 13.0982333 31.7918171 13.523769 32.006261 13.8799875 25.5467124 28.4334284 25.082675 28.2274652 31.3952488 14.0051603"></polygon>
                    <polygon id="Shape" points="13.5162512 24.279862 13.1816761 23.89801 25.4392532 13.1580376 25.7738283 13.5398896"></polygon>
                    <polygon id="Shape" points="7.13485986 2.61623216 7.57788082 2.36827267 10.4963516 7.58260708 10.5243327 7.65977011 13.5984552 24.0421193 13.5648838 24.2224139 10.2572836 29.5729436 9.82544327 29.3059878 13.0813358 24.0391028 10.0330193 7.79427709"></polygon>
                    <path d="M7.36618719,16.6488932 L22.3674654,22.1039035 L19.3937272,5.94722381 L7.36618719,16.6488932 Z M7.03852324,16.6006545 L19.3933828,5.60774796 L19.6025785,5.67959517 L22.6572446,22.2759655 L22.4890432,22.4182221 L7.0795176,16.8147582 L7.03852324,16.6006545 Z" id="Shape"></path>
                    <circle id="Oval" cx="7.18126209" cy="2.14203593" r="1"></circle>
                    <circle id="Oval" cx="19.5166651" cy="5.7998526" r="1"></circle>
                    <circle id="Oval" cx="31.8715246" cy="13.8353754" r="1"></circle>
                    <circle id="Oval" cx="22.5907877" cy="22.1432888" r="1"></circle>
                    <circle id="Oval" cx="7.12289268" cy="16.7538462" r="1"></circle>
                    <circle id="Oval" cx="9.7884293" cy="29.7896822" r="1.01173653"></circle>
                    <polygon id="Shape" points="31.7862933 13.7413271 31.956756 13.9294237 22.5973194 22.4080153 10.1062646 29.8403875 9.97646224 29.622238 22.4471869 22.2048922"></polygon>
                    <polygon id="Shape" points="22.6722383 0.747000036 23.0930312 0.462949296 31.9846387 13.6349806 31.5638458 13.9190314"></polygon>
                </g>
            </g>
        </g>
    </g>
</svg>