<svg xmlns="http://www.w3.org/2000/svg" width="21" height="24" viewBox="0 0 21 24">
    <g fill="#7F8FA4" fill-rule="nonzero">
        <path d="M14.857 6.068a2.817 2.817 0 0 1-.88-.78 3.26 3.26 0 0 1-.506-1.024 3.796 3.796 0 0 1-.16-1.062V.005H1.004c-.256 0-.512.093-.707.28a.937.937 0 0 0-.293.679V23.04c0 .246.098.492.293.679.195.187.451.281.707.281h18c.256 0 .512-.094.707-.281a.937.937 0 0 0 .293-.678V6.374h-3.893c-.48 0-.898-.102-1.254-.306zm.134 13.097h-10c-.462 0-.854-.158-1.174-.473a1.541 1.541 0 0 1-.48-1.138c0-.444.16-.82.48-1.126.32-.307.712-.46 1.174-.46h10c.462 0 .853.153 1.173.46.32.307.48.682.48 1.126 0 .443-.16.822-.48 1.138-.32.315-.711.473-1.173.473zm1.653-7.981a1.5 1.5 0 0 1-.48 1.125c-.32.307-.711.46-1.173.46h-10c-.462 0-.854-.153-1.174-.46a1.5 1.5 0 0 1-.48-1.125c0-.444.16-.823.48-1.139.32-.315.712-.473 1.174-.473h10c.462 0 .853.158 1.173.473.32.316.48.695.48 1.139z"/>
        <path d="M15.056.005h-.08v3.303-.346c0 .511.195 1.022.585 1.413.39.39.902.585 1.413.585h-.006 3.017V1.004a.996.996 0 0 0-1-1h-3.929z"/>
    </g>
</svg>
