<svg xmlns="http://www.w3.org/2000/svg" width="15" height="15" viewBox="0 0 15 15">
    <path fill="#FFF" fill-rule="nonzero" d="M1.724 6.439l4.814-4.813v8.18a.467.467 0 0 0 .933 0V1.597l4.815 4.813a.467.467 0 0 0 .66-.66L7.335.141a.467.467 0 0 0-.66 0L1.064 5.78a.466.466 0 1 0 .66.66zm11.814 2.9a.466.466 0 0 0-.467.467v2.333a.933.933 0 0 1-.933.933H1.871a.933.933 0 0 1-.933-.933V9.806a.467.467 0 0 0-.933 0v2.333c0 1.03.836 1.866 1.866 1.866h10.267c1.031 0 1.867-.836 1.867-1.866V9.806a.467.467 0 0 0-.467-.466z"/>
</svg>
