<svg xmlns="http://www.w3.org/2000/svg" width="14" height="15" viewBox="0 0 14 15">
    <g fill="#FFF" fill-rule="nonzero">
        <path d="M1.757 1.757H8.76v.5H1.757z"/>
        <path d="M10.51 2.195h-.876v-.438A.875.875 0 0 0 8.76.882H1.757a.875.875 0 0 0-.875.875v8.752h1.75v.876H.007V1.24C.007.559.559.007 1.24.007h8.393a.875.875 0 0 1 .875.875v1.313z"/>
        <path d="M3.481 3.508h10.503v.875H3.481v-.875zm0 .875h.876v9.627H3.48V4.383zm1.75.875h7.003v.438H5.232v-.438z"/>
        <path d="M13.109 3.508h.875v2.188h-.875V3.508zM3.48 13.135h2.626v.875H3.481v-.875zm6.608.053a3.063 3.063 0 1 1 0-6.127 3.063 3.063 0 0 1 0 6.127zm0-5.252a2.188 2.188 0 1 0 0 4.376 2.188 2.188 0 0 0 0-4.376zm1.882 3.956l1.654 1.847-1.654-1.847z"/>
        <path d="M13.301 14.028l-1.654-1.838.648-.587 1.654 1.838z"/>
    </g>
</svg>
