<svg xmlns="http://www.w3.org/2000/svg" width="28" height="32" viewBox="0 0 28 32">
    <defs>
        <linearGradient id="a" x1="-13.158%" x2="115.519%" y1="49.838%" y2="49.838%">
            <stop offset="0%" stop-color="#4285F4"/>
            <stop offset="100%" stop-color="#0069FF" stop-opacity=".2"/>
        </linearGradient>
    </defs>
    <g fill="none" fill-rule="evenodd">
        <path fill="#000" d="M7.76 11.28a1.2 1.2 0 1 1-2.4 0 1.2 1.2 0 0 1 2.4 0zM12 15.36a1.2 1.2 0 1 1-2.4 0 1.2 1.2 0 0 1 2.4 0zM16.24 11.28a1.2 1.2 0 1 1-2.4 0 1.2 1.2 0 0 1 2.4 0z"/>
        <path fill="url(#a)" d="M6.4 0h8v3.2h-8z"/>
        <path fill="url(#a)" d="M18.9 28.417c-3.148.002-5.701-2.512-5.703-5.614-.001-3.103 2.55-5.619 5.697-5.62.945 0 1.874.23 2.706.671V2.4h-5.4v1.774a.596.596 0 0 1-.6.591H6a.596.596 0 0 1-.6-.591V2.4H0v27.2h21.6v-1.63l-.151-.15a5.777 5.777 0 0 1-2.549.597zM7.8 25.461H3a.596.596 0 0 1-.6-.592c0-.326.269-.59.6-.59h4.8c.331 0 .6.264.6.59a.596.596 0 0 1-.6.592zm0-2.365H3a.596.596 0 0 1-.6-.592c0-.326.269-.591.6-.591h4.8c.331 0 .6.265.6.591a.596.596 0 0 1-.6.592zm0-2.366H3a.596.596 0 0 1-.6-.59c0-.327.269-.592.6-.592h4.8c.331 0 .6.265.6.591a.596.596 0 0 1-.6.591zm3-3.548c-.994 0-1.8-.794-1.8-1.773.002-.273.068-.542.194-.785l-1.998-1.688a1.704 1.704 0 0 1-1.192 0L2.79 15.65a.606.606 0 0 1-.848-.026.585.585 0 0 1 .068-.872l3.051-2.577a1.737 1.737 0 0 1-.261-.907c0-.98.806-1.773 1.8-1.773s1.8.794 1.8 1.773c-.002.32-.092.634-.261.907l1.92 1.62a1.781 1.781 0 0 1 1.485 0l1.92-1.62a1.736 1.736 0 0 1-.264-.907c0-.98.806-1.773 1.8-1.773s1.8.794 1.8 1.773a1.74 1.74 0 0 1-.26.907l3.05 2.577a.585.585 0 0 1 .044.835.607.607 0 0 1-.824.063l-3.215-2.715a1.705 1.705 0 0 1-1.19 0l-1.999 1.687c.126.244.192.513.194.786 0 .98-.806 1.773-1.8 1.773zM27.835 31.002L23.232 26.4a5.49 5.49 0 0 1-.832.832l4.603 4.603a.589.589 0 0 0 .832-.833z"/>
        <path fill="url(#a)" d="M21.906 19.688a4.395 4.395 0 0 0-6.218.001 4.402 4.402 0 0 0 0 6.223 4.395 4.395 0 0 0 6.218 0 4.389 4.389 0 0 0 .02-6.205l-.02-.019zm-4.765 4.36a.587.587 0 0 1-.815.843l-.014-.014a3.231 3.231 0 0 1 0-4.563.586.586 0 0 1 .829.83c-.798.802-.797 2.1.002 2.9l-.002.003zm3.733.826a.586.586 0 0 1-.829-.83c.8-.802.8-2.1 0-2.903a.587.587 0 0 1 .83-.83 3.232 3.232 0 0 1 0 4.563z"/>
    </g>
</svg>
