<svg xmlns="http://www.w3.org/2000/svg" xmlns:xlink="http://www.w3.org/1999/xlink" width="45" height="45" viewBox="0 0 45 45">
    <defs>
        <radialGradient id="b" cx="87.445%" cy="18.46%" r="98.803%" fx="87.445%" fy="18.46%">
            <stop offset="0%" stop-color="#FFF" stop-opacity=".5"/>
            <stop offset="100%" stop-color="#FFF" stop-opacity="0"/>
        </radialGradient>
        <circle id="a" cx="22.5" cy="22.5" r="22.5"/>
    </defs>
    <g fill="none" fill-rule="evenodd" transform="translate(-24 -24)">
        <rect width="447" height="209" x=".5" y=".5" fill="#FFF" stroke="#E6EAEE" rx="3"/>
        <g transform="translate(24 24)">
            <use fill="#0169FE" xlink:href="#a"/>
            <use fill="url(#b)" xlink:href="#a"/>
        </g>
        <g fill-rule="nonzero">
            <path stroke="#FFF" d="M46.967 30.115L33.05 38.074v15.918l13.917 7.959 13.917-7.96V38.075z"/>
            <path fill="#FFF" d="M47.066 48.708h-.199a2.607 2.607 0 0 1-1.84-.753 2.557 2.557 0 0 1-.76-1.824v-.197a2.557 2.557 0 0 1 .76-1.823 2.607 2.607 0 0 1 1.84-.753h.2c.69-.002 1.352.27 1.84.753.489.483.762 1.14.76 1.823v.197a2.557 2.557 0 0 1-.76 1.824 2.607 2.607 0 0 1-1.84.753zm0 10.584h-.199c-.94-.002-1.81.5-2.27 1.313l2.37 1.346 2.37-1.346a2.597 2.597 0 0 0-2.27-1.313zm13.835-7.959h-.1a2.607 2.607 0 0 0-1.841.753 2.557 2.557 0 0 0-.76 1.824v.197c-.002.437.112.867.331 1.247l2.37-1.362v-2.659zm-2.37-14.605c-.217.38-.331.81-.331 1.247v.197c-.002.684.272 1.34.76 1.824s1.15.754 1.841.753h.1v-2.675l-2.37-1.346zm-11.564-6.613l-2.37 1.346a2.61 2.61 0 0 0 2.27 1.329h.2c.94.003 1.81-.5 2.27-1.313l-2.37-1.362zm-11.548 6.597l-2.37 1.362v2.675h.1c.69.001 1.353-.27 1.841-.753.489-.484.762-1.14.76-1.824v-.197a2.709 2.709 0 0 0-.331-1.263zm-2.27 14.621h-.1v2.659l2.37 1.362c.217-.38.332-.81.331-1.247v-.197a2.557 2.557 0 0 0-.76-1.824 2.607 2.607 0 0 0-1.84-.753z"/>
            <path stroke="#FFF" d="M33.906 38.838l13.337 7.165 13.336-7.165M47.066 60.594V45.936"/>
        </g>
    </g>
</svg>
