<svg xmlns="http://www.w3.org/2000/svg" width="12" height="15" viewBox="0 0 12 15">
    <g fill="#FFF" fill-rule="nonzero">
        <path d="M10.65 4.342a.452.452 0 0 0-.454.453v8.76c0 .115-.1.203-.216.203H1.132a.205.205 0 0 1-.208-.204V1.861c0-.115.095-.218.208-.218h6.344a.452.452 0 0 0 .454-.454.452.452 0 0 0-.454-.453H1.132C.516.736.017 1.245.017 1.861v11.693c0 .617.499 1.111 1.115 1.111H9.98c.616 0 1.123-.494 1.123-1.11v-8.76a.452.452 0 0 0-.453-.453z"/>
        <path d="M11.878.233L11.76.116a.373.373 0 0 0-.525 0L7.21 4.14a.373.373 0 0 0 0 .525l.117.118c.144.144.38.144.526 0L11.878.757a.37.37 0 0 0 0-.524zM5.87 4.362H2.86a.452.452 0 0 0-.452.454c0 .251.202.453.453.453h3.008a.452.452 0 0 0 .454-.453.452.452 0 0 0-.454-.454zM8.28 7.309H2.82a.452.452 0 0 0-.454.453c0 .252.202.454.454.454h5.46a.452.452 0 0 0 .453-.454.452.452 0 0 0-.453-.453zM8.239 10.235h-5.46a.452.452 0 0 0-.454.453c0 .252.202.454.453.454h5.46a.452.452 0 0 0 .454-.454.452.452 0 0 0-.453-.453z"/>
    </g>
</svg>
