<svg xmlns="http://www.w3.org/2000/svg" xmlns:xlink="http://www.w3.org/1999/xlink" width="80" height="60" viewBox="0 0 80 60">
    <defs>
        <path id="a" d="M.366.665h29.19V31.65H.367z"/>
        <path id="c" d="M0 .104h5.877v8.977H0z"/>
        <path id="e" d="M.561.308h10.194v13.025H.561z"/>
    </defs>
    <g fill="none" fill-rule="evenodd">
        <g transform="translate(25 .168)">
            <mask id="b" fill="#fff">
                <use xlink:href="#a"/>
            </mask>
            <path fill="#FFF" d="M27.235 12.454l-12.165 6.83a.246.246 0 0 1-.258 0l-10.17-5.416a.243.243 0 0 1 .053-.44l10.074-3.196a.608.608 0 0 1 .357-.002l7.891 2.63c.231.069.474-.063.544-.294l.186-.625a.437.437 0 0 0-.294-.543l-7.294-2.453a.609.609 0 0 1-.435-.583v-5.55c0-.167.163-.287.323-.236l11.605 3.647c.17.053.278.217.26.393l-.557 5.65a.252.252 0 0 1-.12.188zM15.724 29.258v-8.472c0-.053.027-.102.072-.131l10.169-5.673a.249.249 0 0 1 .366.3l-3.509 9.05a.381.381 0 0 1-.137.175l-6.83 4.82a.084.084 0 0 1-.131-.069zM14.198 2.8v5.587a.609.609 0 0 1-.415.577L3.025 12.57a.249.249 0 0 1-.326-.208l-.671-5.75a.365.365 0 0 1 .252-.39l11.595-3.658c.16-.05.323.069.323.237zm-6.9 21.621l-3.7-9.266c-.073-.188.136-.36.305-.251l10.206 5.765c.056.035.089.098.089.165v8.44a.083.083 0 0 1-.132.068l-6.619-4.73a.43.43 0 0 1-.149-.19zM15.168.7a.768.768 0 0 0-.46 0L.62 5.145a.363.363 0 0 0-.252.387l.847 7.61.015.063 4.83 12.227c.022.057.06.106.11.142l8.285 5.92c.289.207.677.208.967.003l8.544-6.028a.278.278 0 0 0 .1-.128l4.722-12.136a.245.245 0 0 0 .016-.066l.75-7.605a.373.373 0 0 0-.258-.393L15.167.7z" mask="url(#b)"/>
        </g>
        <g transform="translate(0 46.002)">
            <mask id="d" fill="#fff">
                <use xlink:href="#c"/>
            </mask>
            <path fill="#FFF" d="M5.655 2.909H4.56a.227.227 0 0 0-.191.097l-.973 1.401-1.527.01a.13.13 0 0 1-.106-.053.093.093 0 0 1 .002-.107L3.468.422a.173.173 0 0 0 .002-.2.234.234 0 0 0-.197-.098L2.3.104a.229.229 0 0 0-.184.093L.033 5.23a.177.177 0 0 0-.003.202.23.23 0 0 0 .191.097l.012-.001 2.486-.048L.376 8.787a.175.175 0 0 0 .008.207.227.227 0 0 0 .214.085l4.8-1.198c.11-.013.192-.098.19-.197l-.013-.817c-.001-.057-.03-.11-.077-.146a.24.24 0 0 0-.175-.045l-2.08.589a.124.124 0 0 1-.116-.046.093.093 0 0 1-.004-.11l2.724-3.904a.175.175 0 0 0 0-.197.224.224 0 0 0-.192-.098" mask="url(#d)"/>
        </g>
        <path fill="#FFF" d="M5.551 55.59a.246.246 0 0 0-.21-.014L.48 57.816c-.08.03-.132.1-.132.178v.848c0 .067.038.13.103.165a.24.24 0 0 0 .119.031.257.257 0 0 0 .093-.017l4.86-2.293a.196.196 0 0 0 .13-.177v-.797a.19.19 0 0 0-.102-.164M8.546 51.298v-3.48c0-.055.05-.1.111-.104l3.086-.156.384 3.745-3.58-.005zm7.934.012l-3.245-.005-.39-3.809 3.3-.165c.116-.006.208-.092.208-.196v-.7a.186.186 0 0 0-.07-.142.241.241 0 0 0-.165-.053l-8.684.569c-.118.006-.209.092-.209.196v10.421l-.995.394a.197.197 0 0 0-.131.179v.866a.19.19 0 0 0 .102.165c.036.02.078.03.12.03a.238.238 0 0 0 .092-.018l4.949-2.162a.196.196 0 0 0 .13-.178v-.87a.191.191 0 0 0-.102-.164.245.245 0 0 0-.211-.014l-2.633 1.229v-4.588l3.838.006 3.073 6.48c.03.079.115.132.21.132h.814c.112 0 .206-.073.22-.17v-3.477a.183.183 0 0 0-.053-.154.236.236 0 0 0-.167-.066l-.614.002c-.113 0-.207.075-.22.173l-.014 1.759-2.093-4.676 2.94.003c.122 0 .221-.087.221-.195v-.606c0-.108-.099-.196-.221-.196zM28.856 48.624H24c-.046 0-.084-.031-.084-.07v-1.047c0-.037.038-.068.085-.068h4.856v1.185zm1.493-1.185h4.956c.047 0 .085.03.085.068v1.048c0 .038-.038.069-.085.069H30.35v-1.185zm7.571 3.418H30.35V49.48h5.96c.107 0 .195-.071.195-.158v-2.547c0-.086-.088-.156-.194-.156h-5.961v-.386c0-.24-.1-.243-.26-.243h-.962c-.16 0-.27.01-.27.248v.38H23c-.107 0-.194.07-.194.157v2.547c0 .087.087.158.194.158h5.855v1.377h-7.514c-.107 0-.194.07-.194.158v.617c0 .087.087.158.194.158H37.92c.107 0 .194-.071.194-.158v-.617c0-.087-.087-.158-.194-.158zM35.584 56.49h.817c.107 0 .194-.07.194-.157v-3.66c0-.086-.087-.157-.194-.157H22.896c-.107 0-.194.07-.194.156v3.661c0 .087.087.157.194.157h.816c.108 0 .194-.07.194-.157V53.45c0-.038.038-.07.085-.07h11.315c.046 0 .085.032.085.07v2.883c0 .087.086.157.193.157"/>
        <path fill="#FFF" d="M37.266 57.838l-6.765-2.054a.238.238 0 0 0-.152.01V54.09c0-.087-.087-.158-.194-.158H29.05c-.052 0-.1.017-.138.048a.14.14 0 0 0-.056.112v1.437c0 .028-.022.054-.054.064l-6.813 2.22c-.074.024-.122.081-.122.146v.933c0 .052.032.1.086.13a.228.228 0 0 0 .181.015l7.97-2.703.012-.006v.42c0 .067.053.127.13.148l6.887 2.143a.236.236 0 0 0 .175-.02c.051-.03.081-.076.081-.127l.005-.905c.001-.068-.05-.128-.128-.15M46.886 51.4a.23.23 0 0 0-.203-.11l-.206-.002v-.624h1.614c.125 0 .227-.087.227-.195v-.555c0-.107-.102-.195-.227-.195h-1.614v-2.393l1.534-.084c.12-.006.213-.091.213-.194l.002-.566a.181.181 0 0 0-.072-.141.244.244 0 0 0-.17-.053l-4.922.234c-.12.006-.215.09-.215.194v.598c0 .053.027.106.072.143a.255.255 0 0 0 .156.052h.014l1.96-.106v2.316h-2.273c-.125 0-.228.088-.228.195v.555c0 .108.103.195.228.195h1.818l-1.876 4.514a.17.17 0 0 0 .03.177.24.24 0 0 0 .185.082h.747c.097 0 .185-.054.216-.133l1.154-2.934v6.504c0 .108.102.195.228.195h.97c.127 0 .23-.087.23-.195V52.92l.68 1.214c.038.068.118.111.206.111h.768c.08 0 .151-.034.194-.091a.17.17 0 0 0 .011-.189l-1.45-2.564zM58.506 53.455h-1.669v-6.898c0-.108-.102-.195-.227-.195h-.972c-.125 0-.227.087-.227.195v6.898h-5.626c-.126 0-.228.088-.228.195v.567c0 .107.102.195.228.195h5.626v4.462c0 .108.102.195.227.195h.972c.125 0 .227-.087.227-.195v-4.462h1.669c.126 0 .227-.088.227-.195v-.567c0-.107-.101-.195-.227-.195"/>
        <path fill="#FFF" d="M53.216 49.748a.254.254 0 0 0 .243.03c.082-.033.133-.101.133-.179v-.672c0-.057-.029-.111-.08-.149l-2.506-1.833a.257.257 0 0 0-.244-.028c-.081.032-.132.1-.132.176v.662c0 .057.03.11.08.148l2.506 1.845zM53.216 52.42a.254.254 0 0 0 .243.03c.082-.032.133-.1.133-.177v-.674c0-.056-.029-.11-.08-.148l-2.506-1.833a.255.255 0 0 0-.244-.029c-.081.033-.132.1-.132.178v.66c0 .058.03.111.08.149l2.506 1.844zM68.696 49.079h-1.443v-2.601c0-.093-.091-.169-.203-.169h-1.062c-.11 0-.201.076-.201.169v2.58l-2.484.02c-.111 0-.203.076-.203.169v.608c0 .093.092.169.203.169l2.484-.022v2.737l-2.608 1.211a.164.164 0 0 0-.09.14l-.006.685c0 .063.04.12.106.15.03.014.064.02.096.02.04 0 .078-.009.112-.027l2.39-1.099v3.94l-1.325-1.106a.222.222 0 0 0-.146-.053l-.923-.006h-.001c-.082 0-.153.039-.185.101-.034.063-.02.133.037.183l2.495 2.115c.09.089.22.076.257.076h1.054c.112 0 .202-.075.202-.168v-5.633l1.499-.697a.163.163 0 0 0 .09-.14v-.674c0-.063-.04-.118-.106-.148a.234.234 0 0 0-.207.007l-1.275.572v-2.164h1.443c.11 0 .202-.076.202-.169v-.608c0-.093-.091-.168-.202-.168"/>
        <g transform="translate(69.167 46.002)">
            <mask id="f" fill="#fff">
                <use xlink:href="#e"/>
            </mask>
            <path fill="#FFF" d="M10.654 12.156l-4.06-2.341 3.583-1.945c.265-.164.265-.164.265-.546V5.537c0-.322-.245-.585-.546-.585H6.234c-.05 0-.09-.043-.09-.097l.002-1.917c0-.053.04-.097.09-.097h4.179c.111 0 .202-.075.201-.16v-.629c0-.093-.09-.168-.205-.168H6.234c-.05 0-.09-.043-.09-.096V.476c0-.092-.09-.168-.203-.168H4.88c-.111 0-.202.076-.202.168v1.312c0 .054-.04.097-.09.097H.763c-.112 0-.203.075-.203.168v.62c0 .093.091.168.203.168h3.823c.05 0 .091.044.091.098v1.916c0 .054-.04.097-.09.097H1.055c-.14 0-.254.122-.254.273v.4c0 .15.114.272.254.272h7.638c.218 0 .396.19.396.423v.472a.56.56 0 0 1-.239.455l-3.465 1.87-4.32-2.492a.182.182 0 0 0-.264.164l.001.913c0 .07.04.133.103.164L4.213 9.75l-3.392 1.83a.25.25 0 0 0-.151.216v.852c-.005.168.169.275.33.203l4.435-2.406 5.042 2.87c.12.059.26-.027.263-.16l.016-.831a.183.183 0 0 0-.102-.167" mask="url(#f)"/>
        </g>
    </g>
</svg>
