<?xml version="1.0" encoding="UTF-8"?>
<svg width="15px" height="14px" viewBox="0 0 15 14" version="1.1" xmlns="http://www.w3.org/2000/svg" xmlns:xlink="http://www.w3.org/1999/xlink">
    <!-- Generator: Sketch 53.2 (72643) - https://sketchapp.com -->
    <title>我的</title>
    <desc>Created with Sketch.</desc>
    <g id="数据存证平台" stroke="none" stroke-width="1" fill="none" fill-rule="evenodd">
        <g id="数据存证_首页" transform="translate(-1240.000000, -25.000000)" fill="#1890FF" fill-rule="nonzero">
            <g id="Group-2" transform="translate(1240.000000, 22.000000)">
                <g id="我的" transform="translate(0.000000, 3.000000)">
                    <path d="M7.5,9 C5.01634614,9 3,6.98365384 3,4.50000002 C3,2.01634619 5.01634617,3.04236777e-08 7.5,0 C9.98365383,-3.04236777e-08 12,2.01634616 12,4.50000002 C11.9913462,6.97500001 9.975,9 7.5,9 Z M7.5,1.29807693 C5.73461537,1.29807693 4.29807693,2.73461539 4.29807693,4.50000002 C4.29807693,6.26538464 5.7346154,7.70192307 7.5,7.70192307 C9.2653846,7.70192307 10.7019231,6.26538461 10.7019231,4.50000002 C10.6932692,2.73461539 9.25673076,1.29807696 7.5,1.29807693 L7.5,1.29807693 Z" id="形状"></path>
                    <path d="M7.50388674,13 C6.87423654,13 6.28345364,12.7028439 5.832593,12.1735345 L4.16907274,10.186303 C3.94364242,9.91700522 3.94364242,9.47127104 4.16907274,9.2019733 C4.39450306,8.93267557 4.76762909,8.93267557 4.99305941,9.2019733 L6.6565797,11.1892049 C7.12298726,11.7463726 7.8770128,11.7463726 8.34342033,11.1892049 L10.0069406,9.2019733 C10.2323709,8.93267557 10.6054969,8.93267557 10.8309273,9.2019733 C11.0563576,9.47127104 11.0563576,9.91700522 10.8309273,10.186303 L9.167407,12.1735345 C8.72431983,12.7028439 8.13353693,13 7.50388674,13 Z" id="路径"></path>
                    <path d="M14.3343195,14 C13.9704142,14 13.668639,13.7126761 13.668639,13.3661972 C13.668639,11.1098591 10.8994083,9.26760562 7.5,9.26760562 C4.10059173,9.26760562 1.33136095,11.1098591 1.33136095,13.3661972 C1.33136095,13.7126761 1.02958581,14 0.665680493,14 C0.301775175,14 3.12037721e-08,13.7126761 0,13.3661972 C0,11.8957747 0.807692292,10.5267606 2.27218935,9.50422535 C3.67455621,8.53239437 5.52958579,8 7.5,8 C9.47041421,8 11.316568,8.53239437 12.7278106,9.50422535 C14.1923077,10.5183099 15,11.8873239 15,13.3661972 C15,13.7126761 14.6982249,14 14.3343195,14 L14.3343195,14 Z" id="路径"></path>
                </g>
            </g>
        </g>
    </g>
</svg>