<svg xmlns="http://www.w3.org/2000/svg" width="14" height="13" viewBox="0 0 14 13">
    <path fill="#FFF" fill-rule="nonzero" d="M13.39 8.742h-.7v-1.05c0-1.398-.7-2.448-2.1-2.448H7.437V4.02h1.137c.35 0 .611-.261.611-.61V.61A.596.596 0 0 0 8.575 0H4.987a.596.596 0 0 0-.612.611v2.71c0 .35.261.61.612.61h1.136v1.311H3.15c-1.4 0-1.837 1.136-1.837 2.449V8.74h-.7A.596.596 0 0 0 0 9.35v2.274c0 .35.262.611.612.611h2.276c.35 0 .611-.26.611-.61V9.352a.596.596 0 0 0-.611-.611h-.7v-1.4S2.1 6.12 3.674 6.12h2.45v2.623h-.7a.596.596 0 0 0-.611.611v2.274c0 .35.261.61.611.61h2.713c.35 0 .612-.26.612-.61V9.353a.596.596 0 0 0-.612-.611h-.7V6.119h2.887c1.137 0 1.455.546 1.488 1.224v1.399h-.7a.596.596 0 0 0-.612.611v2.274c0 .35.261.61.611.61h2.276c.35 0 .612-.26.612-.61V9.353c.004-.261-.26-.611-.61-.611zM5.25 3.059V.961h3.063v2.098H5.25z"/>
</svg>
