<svg xmlns="http://www.w3.org/2000/svg" xmlns:xlink="http://www.w3.org/1999/xlink" width="45" height="45" viewBox="0 0 45 45">
    <defs>
        <radialGradient id="b" cx="87.445%" cy="18.46%" r="98.803%" fx="87.445%" fy="18.46%">
            <stop offset="0%" stop-color="#FFF" stop-opacity=".5"/>
            <stop offset="100%" stop-color="#FFF" stop-opacity="0"/>
        </radialGradient>
        <circle id="a" cx="22.5" cy="22.5" r="22.5"/>
        <path id="c" d="M13.838 31.656l.014.023-.04.024L.258 23.847l-.01-.024V21.37l.02.012 11.42 6.647-.004-2.446-7.21-4.181-.01-.023V18.95l9.346 5.42.027 7.286"/>
        <path id="d" d="M21.05 11.777v10.84l-2.101-1.218-2.114-1.227 2.093-1.216h.014v-5.958l-3.022-1.753v-2.43h.023l5.108 2.962"/>
        <path id="e" d="M15.92 3.912l7.224 4.19-2.111 1.218-3.007-1.742-2.095 1.215h-.011V3.912"/>
        <path id="f" d="M6.64 11.69l-.07 6.059-2.099-1.234-.058-3.496-1.966-1.059v8.084L.36 18.834.186 8.101"/>
        <path id="g" d="M13.688 21.906L8.61 18.919l.006-1.173v-4.773"/>
    </defs>
    <g fill="none" fill-rule="evenodd">
        <g>
            <use fill="#0169FE" xlink:href="#a"/>
            <use fill="url(#b)" xlink:href="#a"/>
        </g>
        <g transform="translate(9 7)">
            <path stroke="#FFF" stroke-width=".8" d="M15.94 1.481L4.478 8.101 6.59 9.32l7.207-4.178 2.124 1.215-9.349 5.42L.414 8.102 13.796.254zM13.811 31.703L.26 23.847l-.01-2.478 11.44 6.659-.004-2.446-7.21-4.181-.01-2.451 9.346 5.42.027 7.286z"/>
            <path d="M21.05 11.777v10.84l-2.101-1.218-2.114-1.227 2.093-1.216h.014v-5.958l-3.022-1.753v-2.43h.023l5.108 2.962"/>
            <path stroke="#FFF" stroke-width=".8" d="M18.026 7.578l3.007 1.742 2.11-1.218-7.223-4.19 2.092-1.215 9.086 5.405-6.047 3.675-5.131-2.963zM27.318 8.11l.056 15.713-2.131 1.25.024-13.282-2.109 1.228v8.359l-2.107 1.239v-10.84"/>
            <use stroke="#FFF" stroke-width=".8" xlink:href="#f"/>
            <path stroke="#FFF" stroke-width=".8" d="M23.158 26.268l.006.012-9.312 5.4-.014-.024-.027-7.286 5.107-2.963.024.003v2.43l-3.005 1.742-.003 2.446 7.224-4.19v2.43"/>
            <use stroke="#FFF" stroke-width=".8" xlink:href="#g"/>
            <path stroke="#FFF" stroke-width=".8" d="M18.909 12.973v5.958l-5.131 2.805V15.95"/>
            <path stroke="#FFF" stroke-width=".8" d="M13.811 15.976l-4.988-2.978 5.003-2.969 4.91 2.974z"/>
        </g>
    </g>
</svg>
