<svg xmlns="http://www.w3.org/2000/svg" width="14" height="11" viewBox="0 0 14 11">
    <path fill="#FFF" fill-rule="nonzero" d="M9.625 3.554A3.072 3.072 0 0 0 6.563 6.63a3.072 3.072 0 0 0 3.062 3.075 3.072 3.072 0 0 0 3.063-3.075 3.072 3.072 0 0 0-3.063-3.075zm0 5.711A2.633 2.633 0 0 1 7 6.63a2.633 2.633 0 0 1 2.625-2.636A2.633 2.633 0 0 1 12.25 6.63a2.633 2.633 0 0 1-2.625 2.636zm0-7.034c-.223 0-.442.028-.656.06v-.22a.712.712 0 0 0-.51-.68.707.707 0 0 0 .072-.308v-.33C8.531.36 8.213 0 7.821 0H.71C.319 0 0 .36 0 .753v.33c0 .323.216.593.51.681a.71.71 0 0 0-.073.307v.33c0 .11.028.214.072.307A.712.712 0 0 0 0 3.39v.33c0 .323.216.593.51.681a.71.71 0 0 0-.073.307v.33c0 .11.028.214.072.307a.712.712 0 0 0-.509.68v.331c0 .394.319.674.71.674h.22c-.035.22-.055.217-.055.314v.33c0 .11.027.214.072.307a.712.712 0 0 0-.51.68v.331c0 .11.028.214.072.307a.712.712 0 0 0-.509.68v.33c0 .394.319.674.71.674h8.967L9.672 11A4.38 4.38 0 0 0 14 6.62 4.385 4.385 0 0 0 9.625 2.23zm-1.094-.16v.31c-.279.072-.546.255-.8.255H1.148c-.15 0-.273-.083-.273-.235v-.33c0-.151.122-.314.273-.314h7.11c.15 0 .273.163.273.314zM.437 1.083v-.33C.437.603.56.44.711.44h7.11c.15 0 .273.163.273.314v.33c0 .152-.123.235-.273.235H.71c-.151 0-.274-.083-.274-.235zm0 2.636v-.33c0-.151.123-.314.274-.314h6.3c-.332.22-.628.66-.878.879H.711c-.151 0-.274-.084-.274-.235zm5.405.674c-.16.22-.293.659-.39.879H1.148c-.15 0-.273-.084-.273-.235v-.33c0-.151.122-.314.273-.314h4.694zM.711 6.589c-.151 0-.274-.083-.274-.234v-.33c0-.151.123-.314.274-.314h4.627c-.057.22-.088.659-.088.878H.71zm4.74 1.318H1.587c-.151 0-.274-.083-.274-.234v-.33c0-.151.123-.314.274-.314h3.686c.03.439.091.659.18.878zm-4.576.754c0-.151.122-.314.273-.314h4.47c.137.439.312.659.515.878H1.148c-.15 0-.273-.083-.273-.234v-.33zm-.164 1.882c-.151 0-.274-.083-.274-.234v-.33c0-.151.123-.314.274-.314h5.795c.352.439.767.659 1.225.878H.71zm8.914.04c-.419 0-.822-.067-1.201-.19l-.014-.006v.001A3.983 3.983 0 0 1 5.688 6.61a3.99 3.99 0 0 1 2.141-3.534h.046v.004c.656-.256 1.118-.403 1.736-.403a3.962 3.962 0 0 1 3.952 3.953c0 2.18-1.767 3.954-3.938 3.954z"/>
</svg>
