<svg xmlns="http://www.w3.org/2000/svg" width="12" height="12" viewBox="0 0 12 12">
    <path fill="#FFF" fill-rule="nonzero" d="M10.5 9c-.365 0-.687.147-.946.362L7.267 7.73a2.23 2.23 0 0 0 .233-.98c0-.485-.158-.933-.419-1.3l2.675-2.676c.223.13.467.226.744.226a1.5 1.5 0 1 0 0-3C9.671 0 9 .67 9 1.5c0 .277.095.521.226.744L6.55 4.92a2.224 2.224 0 0 0-3.277.777l-1.806-.604A.737.737 0 0 0 .75 4.5a.75.75 0 1 0 0 1.5.74.74 0 0 0 .49-.192l1.795.6A2.209 2.209 0 0 0 3 6.75a2.25 2.25 0 0 0 3.837 1.595l2.271 1.622A1.474 1.474 0 0 0 9 10.5 1.5 1.5 0 1 0 10.5 9z"/>
</svg>
