<?xml version="1.0" encoding="UTF-8"?>
<svg width="56px" height="56px" viewBox="0 0 56 56" version="1.1" xmlns="http://www.w3.org/2000/svg" xmlns:xlink="http://www.w3.org/1999/xlink">
    <!-- Generator: Sketch 49.3 (51167) - http://www.bohemiancoding.com/sketch -->
    <title>Group 13</title>
    <desc>Created with Sketch.</desc>
    <defs></defs>
    <g id="Page-1" stroke="none" stroke-width="1" fill="none" fill-rule="evenodd">
        <g id="我的合约库" transform="translate(-161.000000, -211.000000)" fill="#D8D8D8">
            <g id="Group-13" transform="translate(161.000000, 211.000000)">
                <path d="M27,27 L27,1.12 C27,0.50144108 27.4477153,0 28,0 C28.5522847,0 29,0.50144108 29,1.12 L29,27 L55,27 C55.5522847,27 56,27.4477153 56,28 C56,28.5522847 55.5522847,29 55,29 L29,29 L29,54.88 C29,55.4985589 28.5522847,56 28,56 C27.4477153,56 27,55.4985589 27,54.88 L27,29 L1,29 C0.44771525,29 6.76353751e-17,28.5522847 0,28 C-6.76353751e-17,27.4477153 0.44771525,27 1,27 L27,27 Z" id="Combined-Shape"></path>
            </g>
        </g>
    </g>
</svg>