<svg xmlns="http://www.w3.org/2000/svg" width="18" height="18" viewBox="0 0 18 18">
    <g fill="#7F8FA4" fill-rule="nonzero">
        <path d="M9.007 1.556a7.422 7.422 0 0 1 5.264 2.18A7.422 7.422 0 0 1 16.451 9a7.422 7.422 0 0 1-2.18 5.264 7.421 7.421 0 0 1-5.264 2.18 7.421 7.421 0 0 1-5.264-2.18A7.422 7.422 0 0 1 1.563 9a7.422 7.422 0 0 1 2.18-5.264 7.422 7.422 0 0 1 5.264-2.18zm0-1.547a8.991 8.991 0 1 0 0 17.982 8.991 8.991 0 0 0 0-17.982z"/>
        <path d="M4.2 9a1.155 1.155 0 1 0 2.311 0 1.155 1.155 0 0 0-2.31 0zM7.852 9a1.155 1.155 0 1 0 2.31 0 1.155 1.155 0 0 0-2.31 0zM11.503 9a1.155 1.155 0 1 0 2.31 0 1.155 1.155 0 0 0-2.31 0z"/>
    </g>
</svg>
