<svg xmlns="http://www.w3.org/2000/svg" width="29" height="32" viewBox="0 0 29 32">
    <defs>
        <linearGradient id="a" x1="-13.158%" x2="115.519%" y1="49.838%" y2="49.838%">
            <stop offset="0%" stop-color="#4285F4"/>
            <stop offset="100%" stop-color="#0069FF" stop-opacity=".2"/>
        </linearGradient>
    </defs>
    <g fill="none" fill-rule="evenodd">
        <path fill="url(#a)" d="M24.329 3.493h2.405c1.202 0 2.151 1.012 2.151 2.215v24.047c0 1.203-.949 2.215-2.151 2.215H6.104c-1.203 0-2.152-1.012-2.152-2.215v-1.898H1.23c-.697 0-1.203-.57-1.203-1.266V1.278C.028.582.598.012 1.231.012h21.832c.696 0 1.203.57 1.203 1.266v2.215h.063zM5.85 27.857v1.898c0 .19.127.317.317.317h20.63c.19 0 .316-.127.316-.317V5.708c0-.19-.126-.317-.316-.317h-2.405v21.2c0 .696-.57 1.266-1.202 1.266H5.85zm6.291-13.46l-.362-.87a.503.503 0 0 0-.504-.302l-.936.116 1.692-2.93a4.908 4.908 0 0 0 1.7 1.223l-1.59 2.764zM15.94 3.213a3.906 3.906 0 1 1-.01 7.813 3.906 3.906 0 0 1 .01-7.813zM20 13.225a.503.503 0 0 0-.529.302l-.362.87-1.596-2.763a4.908 4.908 0 0 0 1.757-1.223l1.691 2.93-.961-.116zM4.52 20.263h4.43c.38 0 .633-.253.633-.633s-.253-.633-.633-.633h-4.43c-.38 0-.633.253-.633.633s.254.633.633.633zm0 3.164h9.493c.38 0 .633-.253.633-.633s-.254-.633-.633-.633H4.52c-.38 0-.633.254-.633.633 0 .38.254.633.633.633z"/>
        <circle cx="15.92" cy="7.12" r="2" fill="#000" fill-rule="nonzero"/>
    </g>
</svg>
