<?xml version="1.0" encoding="UTF-8"?>
<svg width="45px" height="45px" viewBox="0 0 45 45" version="1.1" xmlns="http://www.w3.org/2000/svg" xmlns:xlink="http://www.w3.org/1999/xlink">
    <!-- Generator: Sketch 49.3 (51167) - http://www.bohemiancoding.com/sketch -->
    <title>Group</title>
    <desc>Created with Sketch.</desc>
    <defs>
        <radialGradient cx="87.4452764%" cy="18.4602442%" fx="87.4452764%" fy="18.4602442%" r="98.8025216%" id="radialGradient-1">
            <stop stop-color="#FFFFFF" stop-opacity="0.5" offset="0%"></stop>
            <stop stop-color="#FFFFFF" stop-opacity="0" offset="100%"></stop>
        </radialGradient>
        <circle id="path-2" cx="22.5" cy="22.5" r="22.5"></circle>
        <polygon id="path-3" points="0 5.18410808e-05 29.6176744 5.18410808e-05 29.6176744 31.4381391 0 31.4381391"></polygon>
    </defs>
    <g id="Page-1" stroke="none" stroke-width="1" fill="none" fill-rule="evenodd">
        <g id="图片精灵" transform="translate(-187.000000, -172.000000)">
            <g id="Group" transform="translate(187.000000, 172.000000)">
                <g id="Oval-4-Copy">
                    <use fill="#0169FE" xlink:href="#path-2"></use>
                    <use fill="url(#radialGradient-1)" xlink:href="#path-2"></use>
                </g>
                <g id="Page-1" transform="translate(8.000000, 8.000000)">
                    <mask id="mask-4" fill="white">
                        <use xlink:href="#path-3"></use>
                    </mask>
                    <g id="Clip-2"></g>
                    <path d="M27.2630233,11.9617674 L14.9204651,18.8924651 C14.8395349,18.9406047 14.7383721,18.9406047 14.6581395,18.8917674 L4.33813953,13.3954884 C4.15813953,13.2852558 4.19093023,13.0145581 4.39255814,12.9503721 L14.6134884,9.7075814 C14.732093,9.66990698 14.8583721,9.66851163 14.9769767,9.70409302 L22.9827907,12.3726977 C23.2172093,12.4424651 23.464186,12.309907 23.5339535,12.0747907 L23.7237209,11.4413023 C23.7934884,11.2068837 23.6602326,10.9592093 23.425814,10.8894419 L16.024186,8.40083721 C15.7625581,8.32269767 15.5832558,8.082 15.5832558,7.8092093 L15.5832558,2.17967442 C15.5832558,2.00874419 15.7486047,1.88734884 15.9111628,1.93897674 L27.6865116,5.63944186 C27.8574419,5.69386047 27.9669767,5.85990698 27.9488372,6.03781395 L27.3830233,11.7713023 C27.3753488,11.8501395 27.3306977,11.9206047 27.2630233,11.9617674 Z M15.5832558,29.0101395 L15.5832558,20.414093 C15.5832558,20.3603721 15.6104651,20.3101395 15.655814,20.2815349 L25.9730233,14.5257209 C26.1788372,14.3945581 26.4327907,14.6024651 26.344186,14.829907 L22.7853488,24.0113023 C22.7574419,24.0831628 22.7086047,24.1459535 22.645814,24.189907 L15.7165116,29.0792093 C15.6606977,29.1189767 15.5832558,29.0785116 15.5832558,29.0101395 Z M14.0351163,2.1664186 L14.0351163,7.83502326 C14.0351163,8.10083721 13.8655814,8.33665116 13.6137209,8.42106977 L2.69860465,12.0775814 C2.54651163,12.1285116 2.38604651,12.0266512 2.3672093,11.8675814 L1.68697674,6.03153488 C1.66674419,5.85572093 1.77348837,5.69037209 1.94302326,5.63734884 L13.7065116,1.92572093 C13.8697674,1.87409302 14.0351163,1.99618605 14.0351163,2.1664186 Z M7.03395349,24.1033953 L3.28046512,14.7008372 C3.20511628,14.5110698 3.41790698,14.3359535 3.58953488,14.4468837 L13.9444186,20.296186 C14.0009302,20.3331628 14.0351163,20.3959535 14.0351163,20.4636279 L14.0351163,29.0268837 C14.0351163,29.0966512 13.9576744,29.1357209 13.9011628,29.0966512 L7.18534884,24.2966512 C7.11767442,24.247814 7.06534884,24.1815349 7.03395349,24.1033953 Z M15.0174419,0.0350232558 C14.8660465,-0.0117209302 14.7048837,-0.0117209302 14.5534884,0.0357209302 L0.258139535,4.54548837 C0.09,4.59781395 -0.0174418605,4.76316279 0.00209302326,4.93827907 L0.861627907,12.6580465 C0.867209302,12.6796744 0.872093023,12.7013023 0.877674419,12.7229302 L5.77744186,25.1296744 C5.79976744,25.1868837 5.83883721,25.2364186 5.88906977,25.2726977 L14.2946512,31.2796744 C14.5883721,31.4896744 14.9825581,31.4910698 15.2769767,31.2831628 L23.9462791,25.1666512 C23.9916279,25.1345581 24.0265116,25.0892093 24.0467442,25.0375814 L28.8383721,12.7243256 C28.8467442,12.7026977 28.8516279,12.6796744 28.8537209,12.6573488 L29.6162791,4.93967442 C29.6337209,4.76176744 29.524186,4.59502326 29.3532558,4.54130233 L15.0174419,0.0350232558 Z" id="Fill-1" fill="#FFFFFF" mask="url(#mask-4)"></path>
                </g>
            </g>
        </g>
    </g>
</svg>