<svg xmlns="http://www.w3.org/2000/svg" xmlns:xlink="http://www.w3.org/1999/xlink" width="79" height="20" viewBox="0 0 79 20">
    <defs>
        <path id="a" d="M0 .027h12.755v18.452H0z"/>
        <path id="c" d="M.153.027h12.755v18.452H.153z"/>
        <path id="e" d="M0 18.479h78.954V0H0z"/>
    </defs>
    <g fill="none" fill-rule="evenodd" transform="translate(0 .87)">
        <path fill="#BABABA" d="M40.255 3.187h5.263v9.592c0 1.38-1.014 2.267-2.504 2.319l.327 1.42h.066c2.66-.085 3.608-1.95 3.608-3.523V3.187h.344l.348-1.507h-7.811l.359 1.507z"/>
        <path fill="#BABABA" d="M42.626 11.368c0 .602-.205.837-.73.837h-.545V5.99h1.275v5.377zm1.453.136V4.48h-4.183v9.239h2.264c.645 0 1.12-.168 1.44-.513.344-.37.5-.927.479-1.702zM34.037 1.68v14.839h1.467V3.186h1.702l-1.064 4.66h.005l.024.02c.456.4 1.223 1.318 1.223 2.988 0 1.643-.945 2.209-1.25 2.35v1.53c.808-.038 2.708-1.199 2.708-3.88 0-1.616-.55-2.728-1.102-3.442L39.06 1.68h-5.022zM51.755 8.383V3.187h4.27v1.84h-3.127l-.346 1.503h3.473v1.853h-4.27zm10.039-1.04c0 .708-.288 1.04-.9 1.04h-3.372V6.53h3.476l-.35-1.504h-3.126V3.187h4.272v4.156zm-4.272 7.673v-1.82h5.035l-.354-1.504h-4.68V9.888h3.372c1.592 0 2.397-.835 2.397-2.477V1.68H50.26v8.208h5.765v1.804h-4.68l-.353 1.505h5.033v1.819l-5.459-.004-.348 1.507h13.113l-.351-1.503h-5.458zM77.493 1.68h-10.19l-.345 1.4h10.88zM78.099 14.773c-.174-.757-.746-3.267-.866-3.657l-.03-.092h-1.528l.046.168c.105.356.719 2.986.918 3.847h-8.135c.386-1.693 1.058-4.598 1.388-6h9.062l-.35-1.48h-12.41l-.352 1.48h2.5c-.32 1.386-1.177 5.001-1.726 7.32l-.039.16h10.13c.617-.002 1.053-.174 1.291-.517.29-.413.2-.959.106-1.207l-.005-.022z"/>
        <path fill="#BABABA" d="M40.255 3.187h5.263v9.592c0 1.38-1.014 2.267-2.504 2.319l.327 1.42h.066c2.66-.085 3.608-1.95 3.608-3.523V3.187h.344l.348-1.507h-7.811l.359 1.507z"/>
        <path fill="#BABABA" d="M42.626 11.368c0 .602-.205.837-.73.837h-.545V5.99h1.275v5.377zm1.453.136V4.48h-4.183v9.239h2.264c.645 0 1.12-.168 1.44-.513.344-.37.5-.927.479-1.702zM34.037 1.68v14.839h1.467V3.186h1.702l-1.064 4.66h.005l.024.02c.456.4 1.223 1.318 1.223 2.988 0 1.643-.945 2.209-1.25 2.35v1.53c.808-.038 2.708-1.199 2.708-3.88 0-1.616-.55-2.728-1.102-3.442L39.06 1.68h-5.022zM51.755 8.383V3.187h4.27v1.84h-3.127l-.346 1.503h3.473v1.853h-4.27zm10.039-1.04c0 .708-.288 1.04-.9 1.04h-3.372V6.53h3.476l-.35-1.504h-3.126V3.187h4.272v4.156zm-4.272 7.673v-1.82h5.035l-.354-1.504h-4.68V9.888h3.372c1.592 0 2.397-.835 2.397-2.477V1.68H50.26v8.208h5.765v1.804h-4.68l-.353 1.505h5.033v1.819l-5.459-.004-.348 1.507h13.113l-.351-1.503h-5.458zM77.493 1.68h-10.19l-.345 1.4h10.88zM78.099 14.773c-.174-.757-.746-3.267-.866-3.657l-.03-.092h-1.528l.046.168c.105.356.719 2.986.918 3.847h-8.135c.386-1.693 1.058-4.598 1.388-6h9.062l-.35-1.48h-12.41l-.352 1.48h2.5c-.32 1.386-1.177 5.001-1.726 7.32l-.039.16h10.13c.617-.002 1.053-.174 1.291-.517.29-.413.2-.959.106-1.207l-.005-.022z"/>
        <mask id="b" fill="#fff">
            <use xlink:href="#a"/>
        </mask>
        <path fill="#BABABA" d="M12.038 15.639L5.35 14.182a1.419 1.419 0 0 1-1.095-1.322c-.003-.019-.003-7.197 0-7.215A1.419 1.419 0 0 1 5.35 4.323l6.688-1.457.717-2.84H4.962A4.964 4.964 0 0 0 0 4.975v8.556a4.965 4.965 0 0 0 4.962 4.949h7.793l-.717-2.84z" mask="url(#b)"/>
        <g transform="translate(16.74)">
            <mask id="d" fill="#fff">
                <use xlink:href="#c"/>
            </mask>
            <path fill="#BABABA" d="M.87 15.639l6.688-1.457a1.418 1.418 0 0 0 1.095-1.322c.003-.019.003-7.197 0-7.215a1.418 1.418 0 0 0-1.095-1.322L.87 2.866.153.026h7.794a4.964 4.964 0 0 1 4.96 4.948v8.556a4.965 4.965 0 0 1-4.96 4.949H.153l.717-2.84z" mask="url(#d)"/>
        </g>
        <mask id="f" fill="#fff">
            <use xlink:href="#e"/>
        </mask>
        <path fill="#BABABA" d="M11.997 9.8h5.58v-.84h-5.58z" mask="url(#f)"/>
    </g>
</svg>
