<svg xmlns="http://www.w3.org/2000/svg" width="100" height="100" viewBox="0 0 100 100">
    <g fill="none" fill-rule="evenodd">
        <path fill="#FEFEFE" d="M0 99.745h99.745V0H0z"/>
        <path fill="#231916" d="M11.502 70.839c-.015-1.627-.015-3.24-.015-4.943-1.627-.04-3.254-.006-4.92-.021v2.233c-.138.14-.24.241-.345.346H4.268l-.296-.34v-4.472c.346-.42.844-.344 1.32-.344 1.18-.002 2.358 0 3.575 0v-2.34c-.72-.074-1.496.013-2.293-.042v-9.853h2.314v-2.345h2.254l.322-.393V46.42c-.191-.361-.48-.327-.769-.327-2.043.002-4.085.001-6.127.001H4v-4.67l.277-.25h2.245v2.296h2.362v-7.23h-2.31c-.012-.412-.028-.793-.032-1.174-.006-.387-.002-.777-.002-1.202h2.346V31.6c.15-.152.227-.228.341-.342h2.224V26.34h4.959v-2.348h4.943v2.23c-.174.292-.436.313-.739.31-1.36-.014-2.721-.006-4.157-.006v4.713h-4.63c-.113.113-.19.189-.34.342 0 .7 0 1.478-.016 2.272-.759.015-1.533.015-2.304.015v2.312h2.29c0-.795 0-1.569.014-2.327.838-.016 1.66-.016 2.559-.016.094.758-.008 1.533.056 2.332h2.316v2.328c.891.08 1.71.152 2.597.233v4.76h4.916v-2.116h-2.206c-.111-.113-.187-.19-.298-.299v-4.516l-.374-.375h-2.214V33.85h2.22l.336-.337V28.89h2.58v4.925h2.02l.345-.288c0-1.564 0-3.1.015-4.65.757-.016 1.53-.016 2.272-.016.105-.103.18-.18.243-.244V26.55h-2.501c0 .795 0 1.568-.014 2.326-.803.014-1.592.014-2.38.014v-2.565H26.3v-2.38h2.604v2.371h2.34v2.227l.313.314h2.005l.3-.302V26.29h7.267v-2.345c-1.659-.001-3.288.002-4.914-.001v-2.598c.779-.019 1.557-.019 2.295-.019l.304-.304v-2.048h2.313v-2.34H39.12l-.303-.303v-4.301l-.309-.307h-4.662v2.3h-2.225c-.14.138-.24.24-.32.319v2.073c1.661.008 3.288-.004 4.914.008v4.922c-.776.018-1.55.018-2.36.018v-2.005l-.319-.36H31.27v-2.348c-1.626-.036-3.252-.006-4.917-.021v4.685h-2.367v-4.882h2.315v-2.34h-2.222c-.168-.92-.213-6.926-.082-9.896h19.715c.082.722-.01 1.498.049 2.3h2.21l.347.347v4.54l-.375.31h-2.169v7.305c.605 0 1.237-.015 1.87.01.223.007.442.115.657.176v2.179c-.858 0-1.708 0-2.548-.014-.136-.759.226-1.59-.22-2.302h-2.131v2.287c.795 0 1.568 0 2.35.015-.01.838-.01 1.662-.01 2.566.76.073 1.536-.006 2.27.04l.296.297v2.016h2.376V14.091h2.3l.301.303v11.9h6.955l.34.34v2.256h-7.53v-2.322h-2.376v2.343h-2.318v2.33c.797.05 1.572-.029 2.333.043v2.552H46.43l-.341-.34v-2.214h-2.03c-.114.104-.22.2-.277.254v4.676h2.228l.29.29v.873c-.115.13-.206.239-.25.29h-4.863v-6.111l.286-.287c.733-.045 1.51.033 2.27-.04 0-.831 0-1.584.015-2.352.758-.016 1.531-.016 2.303-.016v-2.311h-2.288c0 .796 0 1.57-.015 2.327-2.513.015-5.01.015-7.522.015v4.644l.323.324h2.233v5.044c-.747.621-.916 1.593-1.284 2.435l-1.292.06v4.697c-.789 0-1.577 0-2.381-.012-.017-1.552-.017-3.114-.017-4.667h-2.579v2.338h-7.253v2.315c3.307 0 6.586 0 9.849.014.015.781.015 1.55.015 2.27.123.122.195.26.273.262.698.034 1.395.045 2.093.061v2.365H23.953v-2.177c-.233-.066-.453-.171-.677-.18-.63-.024-1.265-.008-1.93-.008v-2.29c-.113-.115-.19-.19-.264-.266h-4.353l-.296.298c0 .344.003.733-.002 1.121-.006.381-.02.763-.032 1.175h-4.92v7.249H9.467l-.31.31v4.64h2.3v-2.209l.38-.379h2.011v-2.109c.846-.463 1.72-.13 2.554-.222v2.602h-2.3v7.263h4.653v-2.362h-2.273v-2.531h4.879c.057.798-.036 1.574.046 2.292h2.562v-4.923h2.355c0-1.435.006-2.795-.004-4.155-.002-.298 0-.571.319-.753h1.964l.251.252v7.285h-2.238l-.266.266v2.049h4.577c.14.138.24.24.343.34v2.259h-4.946v-2.365c-.459 0-.847-.004-1.236.002-.38.005-.758.02-1.13.03 0 .832 0 1.584-.014 2.35-.83.014-1.675.014-2.52.014v2.313h2.503c0-.796 0-1.57.017-2.328.803-.016 1.592-.016 2.38-.016v2.377c1.698-.045 3.323.04 4.946-.05v-2.327h2.259l.284-.284c.17-.756-.196-1.566.264-2.275h1.821c.324.183.324.455.323.752-.01 1.385-.005 2.77-.005 4.147h2.58c0-1.846.006-3.664-.004-5.483-.004-.37.077-.745-.185-1.111-.088-.123.13-.468.196-.676l1.44.868h.835c.114.115.19.189.302.303v1.137h2.162v-1.2c.962-.387 1.878-.41 2.825.047v1.168h2.09v-1.15c.73-.53 1.525-.256 2.2-.33l.631.327v1.13h2.414l-.282-.918.555-.555c.73.1 1.527-.189 2.255.347v1.16h2.002l.348.336v2.26h-4.947c0 .46-.003.85.002 1.238.006.378.02.757.03 1.13h2.228l.343.343v2.26h4.952v2.287h2.375v-2.314h2.334v-4.953h2.531v-2.374h-2.233l-.29-.29c-.054-.738.038-1.514-.046-2.273h-2.333v-2.257l.303-.302h6.92l.258.255v2.325h-2.233l-.302.302c0 .313-.004.666.002 1.018.005.343.021.688.032.99h4.941v-7.244h2.26c.109.107.185.183.276.276.056 1.533-.041 3.09.053 4.637.826 0 1.578 0 2.343.016.015.757.015 1.53.015 2.308h2.53v-2.019l-.273-.274c-.743 0-1.515 0-2.272-.015-.016-.794-.016-1.573-.016-2.273.153-.152.23-.228.341-.343h2.214v-2.026c-.104-.117-.2-.223-.325-.36h-2.204v-2.243l.298-.297h4.622V51.04h4.923c.07-.833-.036-1.609.062-2.365h4.908V51c-1.546.1-3.102-.003-4.641.055-.311.431-.311.431-.3 2.32h4.941v2.613h-4.629l-.333.348v2.211h-7.25v2.373h2.278v2.589h-2.323v2.385c-.844.014-1.689.014-2.539.014v2.319h2.18c.16-.13.269-.218.359-.288v-2.045c.751-.016 1.504-.016 2.333-.016v2.335h2.592v-2.32h2.344v-4.793c.065-.075.083-.105.11-.127.026-.018.06-.04.09-.04h4.753v2.293c.861.232 1.785-.179 2.592.362v4.572l-.266.266h-2.001c-.08-.078-.18-.18-.32-.318v-4.575H90.87v4.569c-.14.138-.24.24-.38.38h-4.59v2.303h-2.238l-.328.354v2.034h12.107l.302.301v2.244H83.337v-2.265h-2.379v2.275h-2.575v-2.235l.282-.282h2.283c-.1-.815.218-1.62-.242-2.39H78.39v-2.312h-2.376v4.558l-.302.302h-4.334l-.562-.29v-4.596h-2.304v4.568l-.393.369h-4.566v7.253h2.332v-4.575l.297-.296h9.768v9.845h-2.194l-.304.303v1.937l-.38.38h-4.577v2.043l.272.27h2.264v2.378h2.343v2.575H56.302a67.114 67.114 0 0 1-.278-.277v-2.02h-2.377v2.278h-2.316c-.05-.055-.146-.162-.253-.278-.053-1.757-.053-1.757.28-2.256h2.275v-2.39c2.428-.02 4.855-.02 7.32-.02v-4.864h2.544v4.928h-2.3v2.34c1.533 0 3.034 0 4.534-.002.03 0 .065-.018.09-.038.028-.02.047-.052.075-.083v-4.504L66.24 88h2.231c0-.425.003-.814-.001-1.202-.006-.38-.02-.762-.031-1.137-.795 0-1.511 0-2.227-.002-.103-.1-.203-.202-.343-.342v-1.97H56.25v2.317h2.295v2.289l-.304.305c-.724-.096-1.52.187-2.253-.338v-2.276H53.61V83.35h-2.378v2.025l-.258.259h-2.31V83.33h-2.34v2.008l-.343.342h-2.207v2.347c1.674 0 3.316-.007 4.959.002 1.633.01 3.27-.041 4.9.032v2.528c-1.61.019-3.223.019-4.845.019-.018.021-.048.044-.066.074a.195.195 0 0 0-.032.093l-.001 4.545c-.741.445-1.533.126-2.25.242a79.6 79.6 0 0 1-.295-.296V93.24h-2.377v1.966l-.345.345h-7.18c-.058-1.228-.017-2.468-.024-3.703-.008-1.248-.002-2.497-.002-3.784h2.55v2.19c.15.15.227.227.327.33h4.35l.264-.265v-2.05h-2.196c-.152-.151-.226-.228-.34-.34V85.7h-2.337c-.09-.799.003-1.574-.056-2.371H36.24v2.313h-2.347v4.622l-.427.347h-2.17v2.575c-.88 0-1.73.038-2.575-.01-.788-.045-1.618.219-2.394-.21v-2.323H23.99v-4.628l-.329-.33h-2.274v4.917h-4.918v4.917c-.41.012-.792.027-1.173.032-.389.005-.778.002-1.122.002l-.297-.297V90.65h2.208l.323-.374v-2.01H14.52l-.666-.344V85.78c-.025-.03-.047-.06-.074-.08a.174.174 0 0 0-.092-.037l-7.114-.001v-2.292c-.861-.233-1.785.177-2.59-.362v-2.253h4.889c.013-.41.026-.79.032-1.168.005-.39 0-.779 0-1.204h-2.34v-4.957H4.628l-.665-.341c-.002-.717-.002-1.433-.002-2.234.408-.01.825-.022 1.24-.025.425-.004.85-.001 1.311-.001v2.316h2.377v-1.975l.34-.341c.701 0 1.48 0 2.274.015.015.759.015 1.531.015 2.304h2.312v-2.29c-.796 0-1.569 0-2.327-.014zm4.962.015v2.29h2.31v-2.29c-.794 0-1.569 0-2.373-.06v-2.29h-2.312v2.29c.796 0 1.57 0 2.375.06zm4.883-.06v-2.29h-2.311v2.29c.795 0 1.569 0 2.377-.004v2.353H26.3v-4.645h-2.35v2.292c-.879 0-1.727 0-2.604.003zm9.952-61.657v2.293h2.532V9.411c-.094-.094-.168-.17-.274-.274-.742 0-1.514 0-2.32.004V6.79h-4.89v4.644h2.564V9.141c.808 0 1.583 0 2.388-.004zm12.444 71.542h2.369V78.44c.492-.33.492-.33 2.266-.285l.349.334v2.204h4.606l.325-.325v-2.262H56c0-.426.003-.814-.001-1.203-.005-.38-.02-.76-.033-1.172H53.63V68.5h-2.375v2.014c-.112.115-.188.19-.339.341h-2.19v2.338h2.225l.293.291v1.98l-.257.267h-2.305v-2.283h-2.375v2.016l-.293.292c-.736.054-1.512-.038-2.27.046v4.946h-2.324v4.892h1.84c.56-.17.482-.482.482-.76.003-1.39.002-2.777.002-4.201zm0-14.763h-2.37v4.716c-.23.065-.45.173-.672.183-.633.024-1.266.009-1.849.009-.202.906.194 1.786-.283 2.558h-4.417a117.48 117.48 0 0 1-.287-.285V68.81c-.14-.149-.24-.252-.295-.313h-2.282v16.939c.715.443 1.512.114 2.23.236.128-.13.23-.23.369-.37V83.08h2.287v-2.376h-2.277v-4.904h4.925v4.882h2.335c.017-1.659-.011-3.288.016-4.911.815 0 1.531 0 2.248-.002l.34-.34v-4.627h2.314v-2.327c-.798-.054-1.574.03-2.332-.045 0-.904 0-1.727.03-2.582h2.288v-2.311h-2.288c0 .795 0 1.567-.03 2.38zM16.469 75.79v7.274h7.292c.062-.205.185-.422.189-.643.018-1.215.009-2.431.009-3.647v-2.683c-.15-.15-.226-.226-.302-.3H16.47zm12.454-37.258h7.274v-2.14c-.21-.062-.43-.172-.653-.183-.559-.026-1.121-.007-1.686-.007v-4.311c-.214-.256-.392-.468-.534-.635-1.384 0-1.384 0-2.106.39v2.223h-2.295v4.663zm-.056 51.777V81l-.318-.317c-.686.215-1.5-.264-2.206.278v9.383c.149.09.294.253.438.25.689-.012 1.403.163 2.086-.284zM16.395 46.073v-7.27h-2.303v2.23c-.212.108-.391.201-.7.361h-1.905c0 .39-.005.744.001 1.097.006.343.023.686.036 1.026h2.224l.344.344v2.212h2.303zM28.87 77.847v-4.155l-.267-.267H26.36v4.69h2.243l.268-.268zm9.906-71.07H33.85c0 .421-.003.81.001 1.197.007.38.02.759.03 1.102h4.625l.27-.271V6.776zM56.25 75.714h4.66v-2.293h-4.66v2.293zM9.228 73.404c-.151.898-.148 3.89-.001 4.693h2.261c-.011-1.591.014-3.142-.014-4.693H9.228zm66.519-5.178v-4.714c-.422 0-.81-.004-1.199.002-.38.005-.758.02-1.095.03v4.682h2.294zm9.798-12.257l.306-.26v-2.036h-2.51v2.022l.275.274h1.93zM46.36 65.896v2.347c.423 0 .812.004 1.2 0 .379-.007.757-.02 1.093-.031v-2.316H46.36zM13.835 80.75h-2.348c0 .424-.005.812.001 1.2.004.38.02.757.029 1.094h2.318V80.75zm47.073-.055V78.35c-.425 0-.814-.005-1.202.002-.378.003-.754.02-1.088.028v2.316h2.29zm10.18-2.328v2.347c.424 0 .813.004 1.2 0 .38-.006.757-.02 1.094-.031v-2.316H71.09zM23.996 38.801v2.346c.422 0 .811.005 1.2 0 .378-.006.757-.02 1.094-.03v-2.316h-2.294zM16.47 85.68v2.347c.427 0 .814.004 1.203 0 .378-.007.756-.02 1.087-.03V85.68h-2.29zM13.818 38.55v-2.328h-2.012c-.118.11-.224.206-.283.26v2.068h2.295zM41.409 9.053h2.065l.227-.227V6.763H41.41v2.29z"/>
        <path fill="#231916" d="M73.418 9.107v7.28c.759.079 1.534-.007 2.27.044l.294.293v7.21h9.901v7.283h2.345c.077-.72-.011-1.496.044-2.293h2.542v2.304H93.2c0-1.376.002-2.763 0-4.148-.002-.289-.048-.59.437-.748h1.96c.061.218.173.44.176.66.016 1.394.007 2.787.007 4.264-.655 0-1.29-.017-1.924.01-.221.01-.44.128-.682.205.133.829-.182 1.619.25 2.358h2.318v2.347c-.72.071-1.497-.01-2.325.044-.448.79-.08 1.667-.256 2.52h-2.305v-2.503h2.293v-2.37h-7.242v2.321h-2.263c-.114.114-.19.19-.302.305v2.263h-2.37v2.346h4.908v-2.201c.113-.115.19-.19.299-.3h1.786l.318.318v2.225h4.917v4.95h-2.36v-2.122c-.834-.506-1.714-.107-2.551-.267-.09.863.038 1.635-.082 2.39H85.89V43.75h-2.253c-.127.112-.232.207-.327.292v2.052h-4.624l-.305.305v1.97l.305.305h4.624v2.365h-7.53v-2.335h-4.59l-.38-.379v-4.544h-4.667v2.316h2.337v4.956h4.89v2.59h-4.927v2.307H62.02c0-2.393 0-4.752.002-7.111 0-.03.016-.066.035-.092.02-.029.05-.048.034-.033h1.444v4.646h2.327v-7.29h-3.884c.182-.888-.21-1.763.291-2.566h1.211v-2.162h-1.2c-.5-.677-.435-1.568-1.043-2.195-.616-.635-1.376-.993-2.238-1.462h-5.355v-1.116l-.285-.324h-2.106V37.4l-.308.307c-.345 0-.734.005-1.123 0-.38-.006-.76-.02-1.135-.032v-3.838h2.37v-2.264c.115-.113.192-.19.267-.267h2.34v2.531c.46 0 .885-.003 1.31 0 .415.005.83.016 1.278.026v2.316h2.343v-2.313h2.592v2.368h4.627l.304.303v4.59h4.59c.14.138.24.24.379.38v2.01h2.011l.341.342v2.202h2.34v-2.187c.205-.368.481-.367.777-.365 1.458.01 2.915.004 4.358.004v-2.138h-7.142l-.396-.364v-2.17c-.849-.204-1.727.175-2.57-.3v-2.374h-2.339v-2.301h-2.226c-.138-.14-.24-.24-.38-.38v-2.23c-2.395 0-4.754 0-7.112-.002a.174.174 0 0 1-.093-.032c-.031-.018-.054-.047-.077-.07V28.89h2.333v-2.226c.153-.15.23-.227.33-.329h2.241v2.531c.45.008.864.02 1.279.023.424.005.85.001 1.312.001v2.316h2.377v-2.302h4.958V26.64c.114-.115.19-.189.305-.303h2.02v-2.379H73.46v-4.927c-.413-.011-.79-.025-1.167-.031-.39-.005-.78 0-1.206 0v4.917h-2.593v2.264l-.342.343h-1.94l-.338-.346V23.96H53.677v-4.956h2.287V9.465l.33-.329h4.856v2.296h2.346c.084-.717-.013-1.493.05-2.292h2.51v4.895h-4.852v2.377h2.321c0 .887 0 1.737-.015 2.603-.757.015-1.531.015-2.304.015v2.312h2.289c0-.796 0-1.57.015-2.327C64.278 19 65.03 19 65.86 19c.01-.375.026-.756.03-1.135.006-.39.002-.778.002-1.123l.306-.307h2.263V14.06h2.34V9.136c-.722-.081-1.497.012-2.3-.047V6.768h-4.945v-2.56h7.22l.273.273v4.626h2.369zM68.44 19.03h-2.289v2.312h2.289c0-.796 0-1.57.06-2.375h2.291v-2.31h-2.29c0 .795 0 1.568-.061 2.373zm12.533 9.891v2.289h2.312V28.92c-.794 0-1.568 0-2.342-.03v-2.044l-.301-.301h-2.279v2.383h-2.37v2.3h-2.228c-.138.14-.24.242-.315.316v7.037c.199.07.451.247.561.182.55-.327 1.161-.113 1.8-.249v-4.712h4.842l.3-.297c-.118-.714.2-1.507-.231-2.234-.823-.05-1.599.028-2.359-.044V28.89c.86 0 1.72 0 2.61.031zm2.373 2.62v2.01c.114.115.19.192.317.316.687-.207 1.501.264 2.208-.277v-2.03l-.276-.275h-1.992l-.257.255zm-4.949 4.95v2.027h2.518v-2.02c-.101-.104-.178-.179-.273-.275h-1.977c-.078.078-.154.152-.268.269zM56.25 19.019v2.347c.423 0 .81.004 1.199-.002.379-.004.758-.02 1.095-.029v-2.316H56.25zm24.729 17.13h2.296v-2.293h-2.296v2.294zm7.24 7.348v-2.133c-.426 0-.812-.005-1.201.002-.378.004-.756.02-1.091.029v2.102h2.291zM78.396 78.425l.271-.271h16.81l.276.275V95.5h-17.12c-.053-.055-.13-.13-.237-.24V78.426zm2.583 2.31v12.199c2.915.132 11.323.083 12.187-.063V80.734H80.98z"/>
        <path fill="#231916" d="M78.402 4.18h17.342v17.075c-.881.167-13.47.226-17.342.075V4.18zm14.764 14.8V6.78c-3.136-.136-11.323-.086-12.186.066V18.98h12.186zM3.994 4.45l.265-.265h17.088v17.129H3.994V4.45zM18.78 6.78H6.574c-.14 3.606-.087 11.323.074 12.18H18.78V6.78zM58.542 6.744h-4.875v4.892h-2.343l-.258-.26V9.15H48.72c-.011-.412-.026-.79-.03-1.168-.005-.388-.002-.778-.002-1.211.724-.473 1.531-.116 2.366-.297 0-.516-.018-1.079.008-1.64.01-.222.12-.44.181-.653h7.3v2.564zM11.467 90.569v4.95h-7.22a35.703 35.703 0 0 0-.26-.262v-1.99l.292-.292h2.225V88.06c.41-.012.79-.026 1.168-.032.39-.004.778 0 1.125 0 .116.115.193.19.306.304v1.935l.302.303h2.062zM4.34 26.304h2.176v-2.312h2.58v2.236l-.266.266H6.566v2.368H4.004v-2.28l.335-.278M28.905 23.945h2.364V19h-2.364zM93.201 46.094h2.556c.01.409.02.823.024 1.238.005.423 0 .848 0 1.341h-2.58v-2.58zM73.418 9.07V6.847c.1-.098.203-.197.333-.327.718.078 1.5-.141 2.227.16v2.39h-2.56zM21.36 93.007v2.506h-2.28l-.263-.262v-1.975c.083-.082.157-.16.269-.269h2.273zM93.238 55.986h2.512c.01.373.026.754.03 1.134.006.388.001.777.001 1.124l-.295.296h-1.988l-.26-.26v-2.294zM18.798 51.362l.297-.297h2.264v2.324h2.262c.15.15.225.227.32.32v2.243h-2.207l-.376.378v2.21h-2.263l-.297-.296v-6.882zM36.18 51.04h1.504c.086 1.623.005 3.249.049 4.91h-1.159l-.378.377v2.213H33.85v-1.674c0-.609-.03-1.218.009-1.823.033-.54-.206-1.136.277-1.637h2.043V51.04zM58.609 65.907h2.526v2.253a16.32 16.32 0 0 1-.272.273h-2.254v-2.526zM63.497 60.96v2.527h-2.253a16.351 16.351 0 0 1-.273-.273v-2.253h2.526zM13.886 51.328l.268-.268H16.4v2.53c-.337.01-.713.024-1.09.03-.387.004-.775 0-1.135 0l-.288-.288v-2.004zM36.216 48.674v-2.58h1.48c.009.407.02.822.024 1.236.005.424.002.85.002 1.344h-1.506zM21.343 80.696h-2.505v-2.279l.262-.263h1.975c.082.083.158.157.268.269v2.273zM83.31 46.094h2.58v2.259l-.322.32H83.31v-2.58zM83.345 83.1h7.187l.269.269v6.956l-.291.264h-7.165V83.1z"/>
        <path fill="#231916" d="M83.33 16.332V9.139h7.428c-.008-.007.022.013.042.042.019.027.035.06.035.091l.001 7.054c-.397.19-.757.327-1.194.32-1.716-.03-3.432-.03-5.147 0-.44.007-.797-.131-1.164-.314M16.413 9.107v7.223c-.08.08-.157.155-.304.303h-3.113c-.93 0-1.858-.01-2.787.005-.455.007-.893-.005-1.288-.308V9.45c.204-.411.544-.344.858-.344h6.634"/>
        <path fill="#FEFEFE" d="M49.857 54.115l-8.453-6.033-.57-5.012 9.025-2.846.084.026 8.969 2.819-.505 5.011-8.55 6.035zm-7.922-6.345l7.924 5.655 8.014-5.655.432-4.302-8.446-2.655-8.414 2.655.49 4.302z"/>
        <path fill="#FEFEFE" d="M49.873 59.522l-5.434-3.883-3.068-7.685 8.5-2.698 5.943 1.775-.161.54-5.777-1.726-7.758 2.461 2.783 6.97 4.973 3.555 5.128-3.617 2.877-7.39.522.204-2.936 7.549z"/>
        <path fill="#FEFEFE" d="M49.592 45.737h.562v-5.199h-.562zM49.592 58.958h.562v-5.189h-.562z"/>
        <path fill="#EA4335" d="M49.872 66.408c-8.571 0-15.52-6.949-15.52-15.522 0-8.571 6.949-15.522 15.52-15.522 8.572 0 15.522 6.95 15.522 15.522 0 8.573-6.95 15.522-15.522 15.522z"/>
        <path fill="#F6F7F7" d="M57.19 49.784l-7.284 4.09a.147.147 0 0 1-.155-.001l-6.09-3.243a.146.146 0 0 1 .032-.263l6.032-1.914a.367.367 0 0 1 .215-.002l4.725 1.575a.261.261 0 0 0 .325-.175l.112-.375a.262.262 0 0 0-.176-.325l-4.368-1.469a.365.365 0 0 1-.26-.35V44.01c0-.1.097-.172.193-.142l6.95 2.184c.1.032.165.13.155.235l-.334 3.384a.15.15 0 0 1-.071.113zm-6.892 10.06v-5.072c0-.032.016-.062.043-.079l6.088-3.396a.15.15 0 0 1 .22.18l-2.1 5.418a.227.227 0 0 1-.083.105l-4.09 2.886a.05.05 0 0 1-.078-.041zm-.914-15.841v3.345c0 .157-.1.296-.248.346l-6.443 2.158a.149.149 0 0 1-.195-.124l-.401-3.444a.217.217 0 0 1 .15-.233l6.943-2.19a.149.149 0 0 1 .194.142zM45.253 56.95l-2.216-5.55a.124.124 0 0 1 .183-.15l6.11 3.452a.117.117 0 0 1 .054.099v5.054a.05.05 0 0 1-.079.041l-3.963-2.832a.254.254 0 0 1-.09-.114zm4.711-14.206a.459.459 0 0 0-.274.001l-8.437 2.661a.22.22 0 0 0-.151.232l.508 4.556a.792.792 0 0 0 .009.039l2.892 7.322a.19.19 0 0 0 .065.085l4.961 3.545a.5.5 0 0 0 .58.001l5.116-3.61a.17.17 0 0 0 .06-.076l2.827-7.267a.155.155 0 0 0 .01-.04l.45-4.554a.223.223 0 0 0-.155-.234l-8.46-2.66z"/>
    </g>
</svg>
