<svg xmlns="http://www.w3.org/2000/svg" xmlns:xlink="http://www.w3.org/1999/xlink" width="320" height="89" viewBox="0 0 320 89">
    <defs>
        <linearGradient id="a" x1="50%" x2="50%" y1="0%" y2="100%">
            <stop offset="0%" stop-color="#81EDF2"/>
            <stop offset="100%" stop-color="#4AD7E0"/>
        </linearGradient>
        <linearGradient id="b" x1="50%" x2="50%" y1="0%" y2="100%">
            <stop offset="0%" stop-color="#00E3EA"/>
            <stop offset="100%" stop-color="#00C3D0"/>
        </linearGradient>
        <linearGradient id="c" x1="50%" x2="50%" y1="0%" y2="100%">
            <stop offset="0%" stop-color="#FFEFD6"/>
            <stop offset="100%" stop-color="#FDDBAD"/>
        </linearGradient>
        <linearGradient id="d" x1="50%" x2="50%" y1="0%" y2="100%">
            <stop offset="0%" stop-color="#E1DDF4"/>
            <stop offset="100%" stop-color="#BFB9E5"/>
        </linearGradient>
        <linearGradient id="e" x1="50%" x2="50%" y1="0%" y2="100%">
            <stop offset="0%" stop-color="#6DC9FF"/>
            <stop offset="100%" stop-color="#3B98FF"/>
        </linearGradient>
        <linearGradient id="f" x1="50%" x2="50%" y1="0%" y2="100%">
            <stop offset="0%" stop-color="#5B99F7"/>
            <stop offset="100%" stop-color="#2E60EC"/>
        </linearGradient>
        <linearGradient id="g" x1="50%" x2="50%" y1="0%" y2="100%">
            <stop offset="0%" stop-color="#C0E3FB"/>
            <stop offset="100%" stop-color="#8CC3F6"/>
        </linearGradient>
        <linearGradient id="h" x1="71.473%" x2="50%" y1="0%" y2="100%">
            <stop offset="0%" stop-color="#FFF"/>
            <stop offset="100%" stop-color="#CDE8FC"/>
        </linearGradient>
        <linearGradient id="i" x1="50%" x2="50%" y1="100%" y2="0%">
            <stop offset="0%" stop-color="#FEF6F6"/>
            <stop offset="100%" stop-color="#FFF"/>
        </linearGradient>
        <linearGradient id="j" x1="54.469%" x2="59.105%" y1="100%" y2="0%">
            <stop offset="0%" stop-color="#F9F7F7"/>
            <stop offset="100%" stop-color="#FFF"/>
        </linearGradient>
        <linearGradient id="k" x1="50%" x2="50%" y1="0%" y2="100%">
            <stop offset="0%" stop-color="#FF7400"/>
            <stop offset="100%" stop-color="#FF4000"/>
        </linearGradient>
        <linearGradient id="l" x1="61.978%" x2="58.48%" y1="139.178%" y2="0%">
            <stop offset="0%" stop-color="#7383B1"/>
            <stop offset="100%" stop-color="#7B9BB8"/>
        </linearGradient>
        <linearGradient id="m" x1="50%" x2="50%" y1="0%" y2="100%">
            <stop offset="0%" stop-color="#8271FF"/>
            <stop offset="100%" stop-color="#C0A0FF"/>
        </linearGradient>
        <linearGradient id="n" x1="50%" x2="50%" y1="0%" y2="100%">
            <stop offset="0%" stop-color="#00B7A9"/>
            <stop offset="100%" stop-color="#008070"/>
        </linearGradient>
        <linearGradient id="o" x1="50%" x2="50%" y1="0%" y2="100%">
            <stop offset="0%" stop-color="#00E9A9"/>
            <stop offset="100%" stop-color="#00CF70"/>
        </linearGradient>
        <linearGradient id="p" x1="50%" x2="50%" y1="0%" y2="100%">
            <stop offset="0%" stop-color="#64F4A9"/>
            <stop offset="100%" stop-color="#34E670"/>
        </linearGradient>
        <linearGradient id="q" x1="50%" x2="50%" y1="0%" y2="100%">
            <stop offset="0%" stop-color="#00C8BD"/>
            <stop offset="100%" stop-color="#009788"/>
        </linearGradient>
        <path id="r" d="M0 0h19.368v20.613H0z"/>
    </defs>
    <g fill="none" fill-rule="evenodd">
        <g fill-rule="nonzero">
            <path fill="#4AD7E0" d="M95.385 70.314s21.381-8.843 35.476-.657c14.095 8.187 21.15 8.131 21.15 8.131H96.495l-1.11-7.474z"/>
            <path fill="url(#a)" d="M239.373 75.789s23.39-18.474 44.758-16.274c21.368 2.2 20.536 28.117 35.744 28.946l-85.801-.627 5.3-12.045z"/>
            <path fill="url(#b)" d="M0 88s27.695-29.241 51.485-28.058c27.045 1.345 67.335 18.315 91.745 18.301-8.654 6.448-15.064 9.7-19.23 9.757-27.66.378-68.994.378-124 0z"/>
            <path fill="#B64E36" d="M284.485 63.997V79.25h-1.34V63.997z"/>
            <path fill="#1670FF" d="M272.012 79.317h-12.066l-9.484.167 20.683-14.868.813-.615z"/>
            <path fill="#2A39DD" d="M273.775 63.997h8.76V79.25h-8.76z"/>
            <path fill="#1C3398" d="M272.012 79.317h-.867v-14.7l.813-.616zM283.145 63.997V79.25h-.61V63.997z"/>
            <rect width="3.51" height="19.85" x="271.959" y="62.246" fill="#1670FF" rx="1.755"/>
            <path fill="#1670FF" d="M286.655 80.342a1.761 1.761 0 0 1-2.06 1.726 1.758 1.758 0 0 1-1.45-1.726V63.997a1.76 1.76 0 0 1 1.754-1.75 1.76 1.76 0 0 1 1.756 1.754"/>
            <rect width="10.575" height="1" x="274.113" y="63.794" fill="#1670FF" rx=".5"/>
            <path fill="#412667" d="M37.284 64.165a.432.432 0 0 1-.384-.627c.013-.026 1.381-2.633 4.925-1.577a.431.431 0 1 1-.247.827c-2.86-.853-3.898 1.12-3.908 1.14a.432.432 0 0 1-.386.237z"/>
            <path fill="#FFF" d="M117.654 41.43c0 .076-.004.15-.011.223h-13.866a2.805 2.805 0 0 1 2.96-3.838 2.719 2.719 0 0 1 2.593-1.906 2.716 2.716 0 0 1 2.69 2.373c.224-.067.455-.1.688-.101.948-.001 1.801.573 2.157 1.451a1.975 1.975 0 0 1 2.79 1.798z"/>
            <path fill="#FDDBAD" d="M211.402 84.436h85.731v3.218h-85.731z"/>
            <path fill="url(#c)" d="M79.127 84.239H211.85v3.415H79.127z"/>
            <path fill="#D56B41" d="M46.932 56.926s1.305 1.614-.282 2.011c-1.586.397.282-2.011.282-2.011z"/>
            <path fill="#E9AA65" d="M46.932 56.926c0 1.91-1.046 3.46-2.956 3.46a3.45 3.45 0 0 1-2.807-1.44s.849-2.96 2.807-2.02 1.58-2.472 1.58-2.472c.662.627 1.376 1.486 1.376 2.472z"/>
            <path fill="#E9AA65" d="M41.169 58.946h1.615v2.951h-1.615z"/>
            <path fill="#FFF" d="M40.516 61.141h2.922v1.512h-2.922z"/>
            <path fill="#74006C" d="M40.516 62.653s-3.78 2.888-4.41 3.895c-.63 1.008 2.016 4.071 2.016 4.071s2.394-7.21 2.394-7.966z"/>
            <path fill="#000" d="M45.74 53.763s.526 3.834-1.853 3.38c-2.379-.454-2.448 2.98-2.448 2.98a3.857 3.857 0 0 1 4.298-6.365l.004.005z"/>
            <path fill="#0C2B81" d="M46.36 73.522c0-1.247-1.021-2.52-2.268-2.52h-3.555a2.274 2.274 0 0 0-2.268 2.268v8.135h8.09v-7.883z"/>
            <rect width="8.237" height="12.841" x="38.122" y="61.897" fill="#8271FF" rx="4.119"/>
            <path fill="#000" d="M56.792 69.948h1v9.204h-1z"/>
            <path fill="url(#d)" d="M7.215 79.307h78.616v8.347H7.215z"/>
            <path fill="#FFF" d="M59.194 75.017h2.061v10.911h-2.061zM59.194 75.017l1.03-2.286 1.031 2.286zM63.301 75.017h2.061v10.911h-2.061zM63.301 75.017l1.03-2.286 1.032 2.286zM67.409 75.017h2.061v10.911h-2.061zM67.409 75.017l1.03-2.286 1.031 2.286zM71.517 75.017h2.061v10.911h-2.061zM71.516 75.017l1.031-2.286 1.031 2.286zM75.624 75.017h2.061v10.911h-2.061zM75.624 75.017l1.031-2.286 1.03 2.286z"/>
            <path fill="#FFF" d="M59.85 78.481h16.805v1.442H59.85z"/>
            <circle cx="60.185" cy="79.099" r="1" fill="#4F6191" opacity=".54"/>
            <circle cx="64.332" cy="79.099" r="1" fill="#4F6191" opacity=".54"/>
            <circle cx="68.479" cy="79.099" r="1" fill="#4F6191" opacity=".54"/>
            <circle cx="72.626" cy="79.099" r="1" fill="#4F6191" opacity=".54"/>
            <circle cx="76.605" cy="79.099" r="1" fill="#4F6191" opacity=".54"/>
            <path fill="#FFF" d="M57.229 85.603h21.898v2.051H57.229zM5.575 75.017h2.061v10.911H5.575zM5.575 75.017l1.03-2.286 1.031 2.286zM9.682 75.017h2.061v10.911H9.682zM9.682 75.017l1.03-2.286 1.032 2.286zM13.79 75.017h2.061v10.911H13.79zM13.79 75.017l1.03-2.286 1.031 2.286zM17.897 75.017h2.061v10.911h-2.061zM17.897 75.017l1.031-2.286 1.03 2.286zM22.005 75.017h2.061v10.911h-2.061zM22.005 75.017l1.03-2.286 1.031 2.286z"/>
            <path fill="#FFF" d="M6.23 78.481h16.805v1.442H6.23z"/>
            <circle cx="6.566" cy="79.099" r="1" fill="#4F6191" opacity=".54"/>
            <circle cx="10.713" cy="79.099" r="1" fill="#4F6191" opacity=".54"/>
            <circle cx="14.86" cy="79.099" r="1" fill="#4F6191" opacity=".54"/>
            <circle cx="19.006" cy="79.099" r="1" fill="#4F6191" opacity=".54"/>
            <circle cx="22.985" cy="79.099" r="1" fill="#4F6191" opacity=".54"/>
            <path fill="#FFF" d="M3.61 85.603h21.898v2.051H3.61z"/>
            <path fill="#289150" d="M289.215 83.692h1.269v1h-1.269z"/>
            <path fill="url(#e)" d="M240.081 31.966l6.125 51.998-26.416.52z"/>
            <path fill="url(#f)" d="M243.3 39.821L225.8 84.425l-3.123.06 18.855-48.759z"/>
            <path fill="url(#g)" d="M222.974 84.485H118.6L151.04.525h106.214z"/>
            <path fill="url(#h)" d="M217.995 84.485H112.817L147.279.525h104.95z"/>
            <path fill="url(#e)" d="M231.93 18.859H208.53l3.875-8.725h22.967z"/>
            <path fill="url(#i)" d="M216.636 18.859h-62.543l3.781-8.725h62.637z"/>
            <path fill="url(#e)" d="M186.469 38.337h-40.273l5.687-13.664 40.153.166z"/>
            <path fill="#FF2900" d="M195.644 25.235h33.679v1h-33.679z"/>
            <path fill="#2E60EC" d="M194.704 28.349h20.063v1h-20.063z"/>
            <path fill="#FFEA31" d="M217.425 28.349h4.423v1h-4.423z"/>
            <path fill="#2E60EC" d="M224.492 28.349h2.212v1h-2.212z"/>
            <path fill="url(#j)" d="M193.692 31.588l-2.818 6.749 32.876.29 2.954-6.914z"/>
            <path fill="url(#e)" d="M143.707 44.39l-9.181 22.392 77.526.253 9.29-22.507z"/>
            <ellipse cx="244.005" cy="4.355" fill="url(#k)" rx="1" ry="1" transform="rotate(-34.354 244.005 4.355)"/>
            <ellipse cx="240.884" cy="4.335" fill="url(#k)" rx="1" ry="1" transform="rotate(-34.354 240.884 4.335)"/>
            <g fill="#8CC3F6" opacity=".41">
                <path d="M188.762 84.427l11.074-31.41h1.345l-10.724 31.41zM195.26 84.427l11.074-31.41h1.345l-10.724 31.41z"/>
                <path d="M197.169 81.785h-6.367l-.099-1.36h6.367zM198.432 78.383h-6.367l-.099-1.36h6.367zM199.695 74.982h-6.367l-.099-1.36h6.367zM200.958 71.58h-6.367l-.099-1.36h6.367zM202.221 68.18h-6.367l-.098-1.362h6.366zM203.484 64.778h-6.367l-.098-1.36h6.366zM204.747 61.376h-6.367l-.098-1.36h6.367zM205.485 57.975h-6.367l-.098-1.36h6.366z"/>
            </g>
            <path fill="#FFF7E5" d="M186.612 84.427l13.35-31.41h1.346l-13 31.41zM193.11 84.427l13.351-31.41h1.345l-13 31.41z"/>
            <path fill="#FFF7E5" d="M188.843 80.424h6.367v1.361h-6.367zM190.353 77.023h6.367v1.361h-6.367zM191.863 73.621h6.367v1.361h-6.367zM193.372 70.22h6.367v1.361h-6.367zM194.882 66.819h6.367v1.361h-6.367zM196.392 63.417h6.367v1.361h-6.367zM197.901 60.016h6.367v1.361h-6.367zM198.886 56.614h6.367v1.361h-6.367z"/>
            <path fill="#FFC8AA" d="M290.639 69.163l4.111-5.002 1.046.86-4.11 5.002z"/>
            <circle cx="290.903" cy="69.955" r="1" fill="#FFC8AA"/>
            <path fill="#C3D0FF" d="M292.591 65.909l3.417-4.157a1.22 1.22 0 0 1 1.717-.168l.022.018a1.22 1.22 0 0 1 .168 1.717l-3.416 4.158-1.908-1.568z"/>
            <path fill="#574D8D" d="M301.005 81.773h-3.031s-2.568.043-2.568 1.137h5.6v-1.137z"/>
            <path fill="#8574DF" d="M295.406 82.91h5.6v1h-5.6z"/>
            <path fill="#FFC8AA" d="M296.374 57.27h1.6v1.6h-1.6z"/>
            <path fill="#1D3A91" d="M297.805 70.659h3.2v11.115h-3.2z"/>
            <path fill="#303462" d="M297.974 81.773h-3.031s-2.569.043-2.569 1.137h5.6v-1.137z"/>
            <path fill="#8581DF" d="M292.374 82.91h5.6v1h-5.6z"/>
            <path fill="#325CAD" d="M294.774 70.659h3.2v11.115h-3.2z"/>
            <path fill="#1C3398" d="M297.828 58.365h.482a2.695 2.695 0 0 1 2.695 2.695v9.599h-6.947v-8.524a3.77 3.77 0 0 1 3.77-3.77z"/>
            <path fill="#FF9C70" d="M293.574 54.881s-1.024 1.598.678 1.867l-.678-1.867z"/>
            <circle cx="296.49" cy="54.881" r="2.916" fill="#FFC8AA"/>
            <path fill="#88361C" d="M298.493 70.966l-.17.986-12.757-2.198.17-.985z"/>
            <path fill="#CBDCE7" d="M286.797 72.465l-2.845-.541a3.101 3.101 0 0 1-2.523-3.573 3.101 3.101 0 0 1 3.573-2.522l2.845.54s-.845 6.386-1.05 6.096z"/>
            <path fill="#FFC8AA" d="M295.322 69.694l2.115-6.12 1.28.442-2.115 6.12z"/>
            <circle cx="295.846" cy="70.344" r="1" fill="#FFC8AA"/>
            <path fill="#C3D0FF" d="M296.021 65.964l1.758-5.086a1.22 1.22 0 0 1 1.552-.755l.027.01a1.22 1.22 0 0 1 .755 1.551l-1.758 5.086-2.334-.806z"/>
            <circle cx="279.123" cy="58.164" r="1.834" fill="#FFEA31"/>
            <circle cx="284.017" cy="54.752" r="1.147" fill="#FFEA31"/>
            <path fill="url(#l)" d="M211.85 79.241h95.311v8.469H211.85z"/>
            <path fill="#4F6191" d="M215.467 80.473h5.109v1.757h-5.109z" opacity=".34"/>
            <path fill="#4F6191" d="M225.107 82.597h6.265v1.757h-6.265z" opacity=".63"/>
            <path fill="#4F6191" d="M249.407 80.473h6.614v1.757h-6.614z" opacity=".64"/>
            <path fill="#4F6191" d="M270.453 83.463h8.017v1.757h-8.017z" opacity=".26"/>
            <path fill="#4F6191" d="M281.158 84.341h6.934v1.757h-6.934z" opacity=".63"/>
            <path fill="#4F6191" d="M283.956 83.008h4.136v1h-4.136z" opacity=".35"/>
            <path fill="#4F6191" d="M270.453 82.142h2.676v1h-2.676zM247.826 85.643h2.676v1h-2.676zM236.165 83.008h2.676v1h-2.676z" opacity=".63"/>
            <path fill="#4F6191" d="M224.225 84.765h2.676v1h-2.676z" opacity=".34"/>
            <path fill="#4F6191" d="M288.092 80.473h6.934v1.757h-6.934z" opacity=".26"/>
            <path fill="#4F6191" d="M260.574 81.718h7.421v1.757h-7.421z" opacity=".64"/>
            <path fill="#4F6191" d="M246.488 83.463h7.421v1.757h-7.421z" opacity=".34"/>
            <path fill="#4F6191" d="M257.923 84.341h6.362v1.757h-6.362zM275.289 80.273h7.816v1.757h-7.816z" opacity=".63"/>
            <path fill="#4F6191" d="M236.165 80.273h7.421v1.757h-7.421zM234.827 84.341h6.43v1.757h-6.43zM295.026 84.341h8.151v1.757h-8.151z" opacity=".64"/>
            <path fill="#4F6191" d="M301.023 80.84h6.138v1.757h-6.138z" opacity=".63"/>
            <path fill="#4F6191" d="M211.85 84.341h7.421v1.757h-7.421z" opacity=".54"/>
            <path fill="url(#f)" d="M143.707 44.39l23.137 22.428-32.318-.036z"/>
            <path fill="#1C3398" d="M298.946 54.039h-6.257c0-.31.046-.619.136-.915a1.66 1.66 0 0 0 2.145-2.097 3.13 3.13 0 0 1 3.976 3.012z"/>
            <rect width="7.336" height="1" x="291.609" y="53.717" fill="#1C3398" rx=".5"/>
            <path fill="#C3D0FF" d="M295.063 51.57a1.66 1.66 0 0 1-2.238 1.554 3.134 3.134 0 0 1 2.145-2.097c.062.174.093.358.093.543z"/>
            <rect width="1" height="1.51" x="292.432" y="52.365" fill="#272A4F" rx=".5"/>
            <rect width="1" height="1.51" x="292.122" y="52.365" fill="#27464F" rx=".5"/>
            <rect width="6.203" height="1" x="292.823" y="53.04" fill="#272A4F" rx=".5"/>
            <path fill="#FFC300" d="M299.778 74.352l.566-.837a.724.724 0 0 1 .881-.262l.135.057.67-.718a.61.61 0 0 1 .76-.107l.296.177.178-.19a.61.61 0 0 1 .795-.082.313.313 0 0 1 .055.463l-.112.127a.576.576 0 0 0 .127.869l-1.043 1.366-3.308-.863z"/>
            <path fill="#F2E8D8" d="M304.345 79.17h-4.53l-1.008-5.321h6.617z"/>
            <path fill="#E9AA65" d="M47.792 67.837l.46-1.21 8.09 3.074-.46 1.21z"/>
            <path fill="#8271FF" d="M45.308 64.273l5.72 2.79-1.183 2.425-5.72-2.791a1.348 1.348 0 1 1 1.183-2.424z"/>
            <circle cx="56.544" cy="70.522" r="1.025" fill="#E9AA65"/>
            <rect width="1" height="3.184" x="171.411" y="59.23" fill="#231E5A" rx=".5" transform="rotate(30 171.58 60.822)"/>
            <path fill="#FFB38C" d="M164.555 50.745l1.638.273-.371 2.223-1.638-.273z"/>
            <circle cx="165.842" cy="49.116" r="2.752" fill="#FFB38C"/>
            <path fill="#FF9552" d="M168.556 49.57s.945 1.646-.757 1.478l.757-1.479z"/>
            <path fill="#572B52" d="M165.953 48.45s-.576 2.13-2.445 2.119c0 0-1.558-2.379 1.15-3.935 2.709-1.557 3.765 1.434 4.836.807 0 0-.78 2.072-3.54 1.01z"/>
            <path fill="#FFB38C" d="M171.03 67.44a.711.711 0 0 1-.65-.423l-3.341-7.512a.711.711 0 1 1 1.3-.579l3.341 7.513a.712.712 0 0 1-.65 1z"/>
            <path fill="#00BCFF" d="M165.62 53.389c.702-.248 1.472.12 1.72.822l1.802 5.108-2.54.896-1.803-5.108c-.248-.702.12-1.471.822-1.718z"/>
            <path fill="#3D2E55" d="M159.729 65.011a1.973 1.973 0 0 1 2.222-1.688l8.316 1.136-.534 3.91-8.316-1.136a1.973 1.973 0 0 1-1.688-2.222z"/>
            <path fill="#FFB38C" d="M169.258 68.605h1.597v6.568h-1.597z"/>
            <path fill="#4040FF" d="M174.809 76.872h-5.435l-.039-.584-.097-1.451 3.565-.032c1.418.268 1.855.972 1.977 1.483.013.05.023.1.029.152.023.143.023.289 0 .432z"/>
            <path fill="#002A59" d="M174.809 76.872h-5.435l-.039-.584h5.445c.013.05.023.1.029.152.023.143.023.289 0 .432z"/>
            <path fill="#3D2E55" d="M171.822 70.003l-3.946.034-.074-3.59a1.98 1.98 0 0 1 1.956-1.99 1.98 1.98 0 0 1 1.99 1.955l.074 3.59z"/>
            <path fill="#4D4773" d="M159.693 67.906s-2.663-1.461-1.187-5.248l1.187-2.208 6.15 1.545-.19 1.848-5.96 4.063z"/>
            <path fill="#FFB38C" d="M166.524 71.28l1.541.418-1.718 6.34-1.541-.418z"/>
            <path fill="#4040FF" d="M169.933 80.154a1.538 1.538 0 0 1-.132.56l-5.486-1.389.167-.622h.002l.408-1.52 3.509.952c1.338.661 1.56 1.485 1.532 2.02z"/>
            <path fill="#4D4773" d="M158.644 65.25a2.02 2.02 0 0 1 2.656-1.049l7.878 3.417-1.606 3.704-7.879-3.416a2.02 2.02 0 0 1-1.049-2.656z"/>
            <path fill="#4D4773" d="M168.677 67.475a2.02 2.02 0 0 1 1.42 2.477l-1.057 3.904-3.898-1.057 1.058-3.903a2.02 2.02 0 0 1 2.477-1.42z"/>
            <path fill="#2E244E" d="M165.163 52.063a3.344 3.344 0 0 1 2.353 4.102l-1.953 7.208-6.455-1.749 1.953-7.208a3.344 3.344 0 0 1 4.102-2.353z"/>
            <path fill="#FFB38C" d="M170.7 62.818c-.05 0-.1-.006-.149-.016l-7.944-1.702a.711.711 0 0 1-.562-.695V56.34a.711.711 0 0 1 1.423 0v3.49l7.381 1.58a.711.711 0 0 1-.148 1.408z"/>
            <path fill="#008AFF" d="M162.968 52.664a1.347 1.347 0 0 1 1.347 1.347v5.417h-2.694V54.01c0-.744.604-1.347 1.347-1.347z"/>
            <path fill="#002A59" d="M169.996 80.332a1.571 1.571 0 0 1-.133.569l-5.606-1.416.17-.635h.002l5.567 1.482z"/>
            <path fill="url(#f)" d="M152.01 24.674l16.273 13.774-22.087-.111zM220.51 10.134l11.42 8.725h-15.294z"/>
            <path fill="#FFF" d="M93.882 10.507c-.373 0-.742.076-1.083.226a3.129 3.129 0 0 0-5.914 1.068h-.015c-.484-.001-.963.101-1.404.3a3.235 3.235 0 0 0-5.167 1.642h16.226a2.698 2.698 0 0 0-2.643-3.236zM30.904 34.083c.458 0 .899.176 1.23.493a2.06 2.06 0 0 1 1.834-1.04 3.432 3.432 0 1 1 6.816-.687c.024-.002.047-.002.072-.002a2.814 2.814 0 0 1 2.812 2.746H29.14c.136-.87.884-1.51 1.764-1.51z"/>
            <path fill="#412667" d="M41.168 64.844v7.04a2.625 2.625 0 1 1-5.249 0v-7.04a2.633 2.633 0 0 1 2.626-2.625c.527-.001 1.042.16 1.475.46a2.616 2.616 0 0 1 1.148 2.166z"/>
            <path fill="#412667" d="M46.36 72.09h-6.332a.432.432 0 0 1 0-.862h6.332a.432.432 0 0 1 0 .863z"/>
            <path fill="#412667" d="M43.194 72.63h-6.331a.97.97 0 1 1 0-1.941h6.33a.97.97 0 1 1 0 1.941zM41.032 64.443a.432.432 0 0 1-.385-.626c.014-.027 1.382-2.634 4.925-1.578a.431.431 0 0 1-.247.827c-2.86-.85-3.898 1.12-3.908 1.14a.432.432 0 0 1-.385.237z"/>
            <path fill="url(#m)" d="M40.276 64.118v1.804c0 1.21-.98 2.19-2.19 2.19h-.281a2.425 2.425 0 0 1-1.886-.901v-2.337a2.667 2.667 0 0 1 2.682-2.655 1.706 1.706 0 0 1 1.596 1.284c.053.2.08.407.08.615z"/>
            <path fill="#008070" d="M134.673 84.703h-1.424V68.685h1.424z"/>
            <path fill="url(#n)" d="M137.503 66.122s.639-8.089-3.619-12.772v27.887h5.748s1.277-7.025-.852-10.431c0 0 .213-2.98-1.277-4.684z"/>
            <path fill="url(#o)" d="M130.342 66.24s-.639-8.09 3.619-12.773v27.886h-5.748s-1.277-7.025.852-10.43c0 0-.213-2.98 1.277-4.684z"/>
            <path fill="#008070" d="M147.132 84.703h-1.1V72.327h1.1z"/>
            <path fill="url(#n)" d="M149.319 72.505s.493-5.164-2.796-8.154v17.802h4.44s.988-4.484-.657-6.659c0 0 .164-1.902-.987-2.99z"/>
            <path fill="url(#o)" d="M143.786 72.58s-.494-5.165 2.796-8.155v17.803h-4.441s-.987-4.485.658-6.66c0 0-.165-1.902.987-2.989z"/>
            <path fill="url(#n)" d="M104.064 70.156h1.256v14.128h-1.256z" transform="rotate(-180 104.692 77.22)"/>
            <circle cx="104.692" cy="68.362" r="7.221" fill="url(#p)"/>
            <path fill="url(#q)" d="M104.584 61.144v14.434c.057.003.11.003.168.003a7.22 7.22 0 1 0-.168-14.437z"/>
            <path fill="url(#n)" d="M90.599 73.755h1v10.529h-1z" transform="rotate(-180 91.067 79.02)"/>
            <circle cx="91.067" cy="72.418" r="5.381" fill="url(#p)"/>
            <path fill="url(#q)" d="M90.987 67.039v10.757c.043.002.083.002.125.002a5.38 5.38 0 1 0 0-10.762c-.042 0-.082 0-.125.003z"/>
            <path fill="#2E244E" d="M162.968 52.224l-1.016-3.85s1.627-4.957 6.356-2.483l-2.344 6.507-2.996-.174z"/>
        </g>
        <path fill="#000" d="M0 88h320v406H0z"/>
        <text fill="#FFF" font-family="PingFangSC-Regular, PingFang SC" font-size="12" letter-spacing=".257" opacity=".6" transform="translate(0 88)">
            <tspan x="19" y="391">Copyright © 2018 | 西安纸贵互联网科技有限公司 </tspan>
        </text>
        <path fill="#FFF" d="M49.507 118.572H48.44a.223.223 0 0 0-.186.095l-.946 1.367-1.486.009a.125.125 0 0 1-.103-.052.09.09 0 0 1 .002-.104l1.656-3.74a.17.17 0 0 0 .003-.195.228.228 0 0 0-.193-.095l-.946-.021a.222.222 0 0 0-.178.09l-2.027 4.911a.172.172 0 0 0-.002.197c.039.06.11.094.185.094h.012l2.418-.046-2.279 3.223a.172.172 0 0 0 .007.203.223.223 0 0 0 .209.082l4.668-1.169c.107-.013.188-.096.186-.192l-.013-.797a.183.183 0 0 0-.075-.142.232.232 0 0 0-.17-.045l-2.025.575a.12.12 0 0 1-.111-.044.09.09 0 0 1-.004-.109l2.65-3.807a.172.172 0 0 0 0-.192.22.22 0 0 0-.186-.096M49.405 125.088a.238.238 0 0 0-.205-.014l-4.729 2.185a.192.192 0 0 0-.127.174v.827c0 .066.037.126.099.161a.238.238 0 0 0 .207.013l4.728-2.236a.192.192 0 0 0 .125-.173v-.777a.186.186 0 0 0-.098-.16M52.319 120.901v-3.394c0-.054.047-.099.108-.102l3.002-.152.374 3.653-3.484-.005zm7.718.012l-3.156-.005-.38-3.715 3.21-.161c.113-.007.202-.09.202-.191v-.683a.182.182 0 0 0-.068-.14.234.234 0 0 0-.16-.051l-8.449.555c-.114.006-.202.09-.202.19v10.167l-.97.384a.193.193 0 0 0-.126.174v.845c0 .065.037.125.1.16a.234.234 0 0 0 .205.013l4.815-2.11a.19.19 0 0 0 .126-.173v-.848a.186.186 0 0 0-.099-.16.238.238 0 0 0-.205-.014l-2.561 1.199v-4.475l3.734.006 2.989 6.32c.03.077.112.13.204.13h.792c.108 0 .2-.072.214-.167v-3.39a.178.178 0 0 0-.052-.152.229.229 0 0 0-.162-.064l-.598.002c-.109 0-.2.073-.213.169l-.014 1.715-2.036-4.561 2.86.004c.118 0 .215-.086.215-.191v-.591c0-.105-.097-.191-.215-.191zM72.077 118.292h-4.724c-.046 0-.083-.03-.083-.067v-1.022c0-.037.037-.067.083-.067h4.724v1.156zm1.452-1.156h4.822c.045 0 .083.03.083.067v1.022c0 .037-.038.067-.083.067h-4.822v-1.156zm7.366 3.335H73.53v-1.344h5.8c.103 0 .187-.069.187-.153v-2.484c0-.085-.084-.154-.188-.154h-5.8v-.376c0-.233-.096-.237-.253-.237h-.934c-.157 0-.264.01-.264.242v.371H66.38c-.104 0-.189.07-.189.154v2.484c0 .084.085.153.189.153h5.696v1.344h-7.31c-.104 0-.189.069-.189.153v.603c0 .085.085.153.189.153h16.128c.104 0 .188-.068.188-.153v-.603c0-.084-.084-.153-.188-.153zM78.622 125.965h.795c.104 0 .188-.068.188-.153v-3.57c0-.084-.084-.153-.188-.153H66.279c-.105 0-.189.069-.189.153v3.57c0 .085.084.153.189.153h.794c.104 0 .189-.068.189-.153V123c0-.037.036-.067.082-.067h11.007c.045 0 .083.03.083.067v2.812c0 .085.084.153.188.153"/>
        <path fill="#FFF" d="M80.258 127.281l-6.58-2.004a.224.224 0 0 0-.149.01v-1.662c0-.084-.085-.153-.189-.153h-1.075a.211.211 0 0 0-.134.046.14.14 0 0 0-.054.11l-.001 1.401c0 .028-.02.053-.052.063l-6.627 2.165c-.073.023-.119.079-.119.142v.91c0 .051.031.099.084.127a.22.22 0 0 0 .176.015l7.753-2.637.012-.005v.409c0 .066.05.124.127.145l6.7 2.09a.214.214 0 0 0 .17-.02.145.145 0 0 0 .079-.123l.005-.884c0-.065-.05-.123-.126-.145M89.617 121a.226.226 0 0 0-.198-.107l-.2-.002v-.609h1.57c.122 0 .221-.085.221-.19v-.54c0-.106-.1-.19-.221-.19l-1.57-.001v-2.335l1.492-.08c.116-.007.208-.09.208-.19v-.552a.178.178 0 0 0-.069-.139.24.24 0 0 0-.164-.052l-4.789.229c-.117.006-.21.089-.21.19v.583a.18.18 0 0 0 .071.139c.04.033.095.051.152.051h.013l1.908-.104v2.26h-2.212c-.123 0-.222.085-.222.19v.541c0 .105.1.19.222.19h1.768l-1.825 4.404a.166.166 0 0 0 .03.172c.042.051.107.08.18.08h.725c.096 0 .18-.052.21-.13l1.124-2.861v6.344c0 .105.1.19.221.19h.945c.122 0 .222-.085.222-.19v-5.808l.663 1.184a.228.228 0 0 0 .2.108h.748a.23.23 0 0 0 .187-.09.166.166 0 0 0 .012-.183L89.617 121zM100.921 123.005h-1.623v-6.729c0-.105-.1-.19-.222-.19h-.944c-.123 0-.222.085-.222.19v6.73h-5.473c-.122 0-.222.085-.222.19v.552c0 .105.1.19.222.19h5.473v4.353c0 .105.1.19.222.19h.944c.122 0 .222-.085.222-.19v-4.352h1.623c.122 0 .222-.086.222-.19v-.553c0-.105-.1-.19-.222-.19"/>
        <path fill="#FFF" d="M95.774 119.388c.042.031.093.047.144.047a.26.26 0 0 0 .093-.018c.08-.031.13-.097.13-.173v-.656a.18.18 0 0 0-.078-.145l-2.438-1.788a.25.25 0 0 0-.237-.028c-.08.032-.129.098-.129.173v.645a.18.18 0 0 0 .077.145l2.438 1.798zM95.774 121.996a.244.244 0 0 0 .237.028c.08-.031.13-.097.13-.173v-.656a.18.18 0 0 0-.078-.144l-2.438-1.788a.25.25 0 0 0-.237-.028c-.08.031-.129.097-.129.172v.645a.18.18 0 0 0 .077.145l2.438 1.799zM110.834 118.736h-1.404V116.2c0-.09-.089-.164-.197-.164h-1.032c-.109 0-.197.074-.197.164v2.516l-2.417.021c-.108 0-.196.074-.196.165v.592c0 .09.088.165.196.165l2.417-.021v2.67l-2.536 1.182a.158.158 0 0 0-.089.136l-.005.668c0 .061.039.117.103.146a.227.227 0 0 0 .202-.007l2.325-1.071v3.842l-1.289-1.078a.217.217 0 0 0-.142-.052l-.898-.006h-.001a.198.198 0 0 0-.18.099c-.032.06-.018.13.036.178l2.428 2.063c.087.087.213.075.25.075h1.025c.108 0 .197-.074.197-.165v-5.494l1.458-.68a.159.159 0 0 0 .088-.137v-.657c0-.061-.039-.115-.103-.144a.227.227 0 0 0-.202.007l-1.241.557v-2.111h1.404c.109 0 .197-.074.197-.165v-.592c0-.091-.088-.165-.197-.165M121.657 127.593l-3.95-2.285 3.486-1.896c.257-.16.257-.16.257-.533v-1.742c0-.316-.238-.572-.531-.572h-3.562c-.049 0-.089-.042-.089-.094l.003-1.87c0-.052.04-.095.088-.095h4.065c.109 0 .197-.073.196-.156v-.614c0-.09-.088-.164-.2-.164l-2.126.001h-1.937c-.049 0-.089-.042-.089-.094v-1.28c0-.09-.087-.164-.196-.164h-1.033c-.108 0-.196.074-.196.164v1.28c0 .052-.04.094-.088.094h-3.72c-.108 0-.197.074-.197.165v.604c0 .09.089.164.197.164h3.72c.049 0 .088.043.088.095v1.87c0 .052-.04.094-.088.094h-3.435c-.137 0-.248.12-.248.266v.39c0 .147.111.266.248.266h7.43c.213 0 .385.185.385.413v.46c0 .195-.11.364-.232.443l-3.372 1.825-4.202-2.43a.177.177 0 0 0-.257.159l.002.89c0 .069.038.13.1.16l3.217 1.837-3.3 1.785a.243.243 0 0 0-.147.212v.83c-.005.164.165.27.321.199l4.314-2.348 4.905 2.8a.178.178 0 0 0 .256-.157l.015-.81a.177.177 0 0 0-.098-.162"/>
        <g transform="translate(16 112)">
            <mask id="s" fill="#fff">
                <use xlink:href="#r"/>
            </mask>
            <path fill="#FFF" d="M17.827 7.843l-8.07 4.544a.164.164 0 0 1-.172 0L2.837 8.782a.162.162 0 0 1 .035-.292l6.684-2.126a.4.4 0 0 1 .238-.002l5.234 1.75a.29.29 0 0 0 .361-.196l.124-.416a.29.29 0 0 0-.195-.36l-4.84-1.632a.405.405 0 0 1-.288-.389V1.43c0-.112.108-.192.214-.158l7.7 2.427a.248.248 0 0 1 .172.26l-.37 3.76a.166.166 0 0 1-.079.125zM10.19 19.021v-5.636c0-.035.018-.068.048-.087l6.746-3.774c.135-.086.3.05.243.2l-2.327 6.02a.259.259 0 0 1-.092.117l-4.53 3.206a.055.055 0 0 1-.088-.046zm-1.012-17.6v3.716a.405.405 0 0 1-.276.384L1.764 7.92a.165.165 0 0 1-.216-.138l-.445-3.826a.242.242 0 0 1 .167-.259l7.693-2.433a.165.165 0 0 1 .215.158zM4.6 15.804L2.146 9.64a.137.137 0 0 1 .201-.167l6.771 3.836a.13.13 0 0 1 .06.11v5.614c0 .046-.051.072-.088.046L4.699 15.93a.285.285 0 0 1-.1-.127zM9.82.023a.506.506 0 0 0-.303 0L.169 2.98A.242.242 0 0 0 0 3.238L.563 8.3l.01.042 3.205 8.135a.21.21 0 0 0 .073.094l5.497 3.939c.192.137.45.138.642.002l5.668-4.01a.186.186 0 0 0 .067-.085l3.132-8.074a.157.157 0 0 0 .01-.044l.5-5.06a.248.248 0 0 0-.173-.261L9.82.023z" mask="url(#s)"/>
        </g>
        <text fill="#FFF" font-family=".PingFangSC-Regular, .PingFang SC" font-size="14" transform="translate(0 88)">
            <tspan x="16" y="92">联系我们</tspan>
        </text>
        <text fill="#FFF" font-family="PingFangSC-Regular, PingFang SC" font-size="12" opacity=".6" transform="translate(0 88)">
            <tspan x="16" y="167">info@ziggurat.cn</tspan>
        </text>
        <text fill="#FFF" font-family="PingFangSC-Regular, PingFang SC" font-size="12" opacity=".6" transform="translate(0 88)">
            <tspan x="16" y="134">029-87565620</tspan>
        </text>
        <text fill="#FFF" font-family="PingFangSC-Regular, PingFang SC" font-size="12" opacity=".6" transform="translate(0 88)">
            <tspan x="40" y="324">Zig-BaaS技术客服</tspan>
        </text>
        <text fill="#FFF" font-family="PingFangSC-Regular, PingFang SC" font-size="12" opacity=".6" transform="translate(0 88)">
            <tspan x="200" y="324">纸贵订阅号</tspan>
        </text>
        <path stroke="#FFF" d="M16 449h288" opacity=".1"/>
        <g>
            <path fill="#FEFEFE" d="M180 390.745h99.745V291H180z"/>
            <path fill="#231916" d="M248.397 359.423c0-.236.006-.472 0-.708-.059-2.01.422-1.696-1.795-1.743-.495-.01-.685.155-.667.659.03.855.007 1.712.007 2.568 0 1.818-.001 1.804 1.836 1.703.446-.024.645-.153.625-.619-.025-.619-.006-1.24-.006-1.86zm14.79 11.213c0-1.064-.013-2.128.006-3.19.008-.44-.125-.642-.6-.639-2.068.017-4.136.016-6.204.001-.465-.003-.62.18-.617.63.014 2.068.016 4.136 0 6.204-.005.488.223.59.65.587 2.038-.013 4.077-.018 6.115.003.506.005.673-.178.659-.671-.027-.975-.008-1.95-.01-2.925zm2.513 11.054c-.619-.02-1.239-.065-1.856-.05-.496.013-.654-.169-.67-.669-.05-1.696-.07-1.715-1.813-1.785-.502-.02-.702-.188-.653-.68.02-.206.003-.414.002-.62-.001-1.174-.001-1.18-1.2-1.173-1.443.008-1.25-.144-1.262 1.287-.01 1.173-.003 1.178-1.123 1.174-1.552-.006-1.388.142-1.336-1.387.027-.83-.17-1.131-1.058-1.099-1.58.06-1.453.252-1.4-1.383.027-.845-.198-1.139-1.072-1.088-1.265.072-2.539.01-3.81.006l.02.025c-.023-.203-.061-.405-.066-.607-.036-1.818-.035-1.843 1.782-1.88.568-.011.674-.237.686-.734.014-.573-.16-1.169.128-1.725.586-.012 1.175-.027 1.764-.031.293-.002.48-.053.547-.413.327-1.74.06-2.081-1.667-2.044-.148.004-.295.006-.442.013-.212.009-.337.132-.327.334.036.723-.188 1.466.153 2.168-.384-.015-.768-.036-1.152-.044-1.697-.037-1.41.26-1.495-1.526-.04-.818.26-.994 1.013-.97 1.477.048 1.439.007 1.483-1.512.02-.732-.186-.958-.933-.945-2.157.033-4.316-.019-6.473-.037l-.009-3.19c-.002-1.753 0-1.73-1.785-1.681-.561.015-.682.225-.69.74-.031 1.871-.048 1.856-1.882 1.737-.458-.029-.59-.187-.608-.636-.078-1.853-.094-1.853-1.963-1.825-.176.002-.353.027-.53.041l.022.026c.004-.148.002-.296.01-.443.039-.645-.252-1.423.12-1.902.373-.48 1.163-.162 1.768-.181.484-.015.6-.226.588-.656-.025-.887-.026-1.774-.026-2.662 0-.25-.088-.568.306-.626.77-.112 1.412-.532 2.073-.93.243.388.13.748.135 1.085.02 1.485-.18 1.288 1.34 1.303.976.01 1.953-.017 2.928.01.494.013.723-.158.666-.663-.01-.087-.001-.177 0-.266.012-1.532.012-1.571-1.548-1.526-.74.02-.98-.202-.939-.943.06-1.092.042-2.19.004-3.282-.02-.582.178-.76.758-.768 1.445-.019 2.895.14 4.334-.088-.182.265-.134.567-.139.858-.025 1.693-.023 1.728 1.624 1.7.674-.013.866.205.84.852-.045 1.086.018 2.177-.023 3.263-.024.635.147.918.835.87.487-.034.996-.112 1.482.077.27.788.197 1.583.041 2.38-.503.003-1.01.047-1.507 0-.673-.067-.869.196-.852.853.04 1.595.013 3.193.011 4.79-.001 1.92-.003 1.907 1.894 1.742.418-.036.558-.19.57-.592.02-.585-.255-1.314.137-1.716.396-.406 1.129-.13 1.711-.142.46-.01.596-.163.614-.622.07-1.794.087-1.814-1.704-1.831-.567-.006-.79-.161-.78-.754.01-.58.146-1.18-.115-1.743.652.005 1.302-.006 1.95.02.44.017.618-.124.648-.597.118-1.887.135-1.89-1.76-1.864-.292.004-.583.06-.874.092.354-1.186.113-2.401.156-3.602.062-1.715-.166-1.402 1.47-1.473.73-.031 1.062.105 1.026.949-.065 1.551-.011 1.554 1.529 1.541.088 0 .178-.009.266.001.516.064.66-.186.65-.67a62.425 62.425 0 0 1 .005-3.548c.022-.618-.238-.735-.784-.73-2.396.02-4.79.018-7.186 0-.583-.003-1.177.12-1.752-.088-.262-.626-.093-1.28-.115-1.92-.019-.567.44-.451.771-.453 1.925-.008 3.85-.024 5.773.006.592.01.882-.13.824-.782-.053-.588-.026-1.183-.033-1.775l-.019.024a150.8 150.8 0 0 0 9.973.001l-.022-.022c0 1.419-.022 2.837.009 4.255.011.56-.142.803-.743.773-.825-.043-1.654-.011-2.481-.011-1.88 0-1.862 0-1.75 1.881.028.485.225.589.651.586a362.32 362.32 0 0 1 6.116.003c.509.005.645-.187.663-.673.06-1.716.077-1.736 1.809-1.795.514-.017.658-.202.655-.683-.003-.616-.093-1.24.073-1.85l-.028.028h2.33l-.035-.036c.21.605.087 1.23.096 1.844.007.457.103.679.637.699 1.83.067 1.83.09 1.83 1.956 0 1.565-.016 3.129.01 4.693.009.544-.117.784-.731.79-1.7.014-1.695.044-1.742 1.777-.007.231-.065.461-.098.692-.561-.004-1.125.013-1.685-.02-.5-.03-.681.167-.671.665.022 1.153-.025 2.31.018 3.461.023.626-.192.816-.808.806-1.893-.033-3.787-.017-5.68-.008-.347.001-.72-.09-1.012.193.161-.868.036-1.74.08-2.61 1.357-.015 2.716-.074 4.071-.028.733.025.913-.245.883-.92-.047-1.032.03-2.07-.027-3.1-.04-.724.171-.975.926-.954 1.58.044 1.582.003 1.554-1.606 0-.029-.003-.059 0-.088.064-.56-.141-.789-.744-.764a36.993 36.993 0 0 1-3.366-.002c-.7-.036-.834.24-.826.872.022 1.643-.006 1.643-1.637 1.618-.03 0-.06-.003-.089 0-.58.082-.754-.169-.76-.747-.018-1.81-.041-1.784-1.788-1.743-.58.013-.68.252-.672.749.023 1.418.011 2.836.013 4.254-.59-.014-1.18 0-1.765-.05-.612-.053-.759.232-.725.78.036.586.007 1.178.007 1.767 0 2.378 0 2.354 2.385 2.39.83.013 1.686-.217 2.492.17.16.49.084.997.067 1.491-.017.545.115.795.728.79 2.803-.027 5.606-.027 8.409 0 .606.005.741-.233.734-.78-.025-1.711.003-3.423-.015-5.134-.005-.492.125-1.003-.125-1.477.84.075 1.964-.376 2.444.219.41.51.137 1.583.143 2.407.01 1.33-.019 2.661.013 3.99.013.558-.137.847-.738.767-.146-.019-.296-.004-.444-.002-1.441.02-1.275-.181-1.285 1.265-.008 1.19 0 1.185 1.19 1.192 1.403.01 1.256-.152 1.265 1.299.007.946-.04 1.894.015 2.837.041.688-.224.858-.866.83-1.062-.046-2.13.033-3.19-.028-.732-.042-.94.242-.874.914.052.527.042 1.06.06 1.59l.023-.023-2.446-.04c-.216-1.32-.014-2.65-.11-3.971-.051-.72.156-.985.922-.96 1.581.048 1.582.007 1.555-1.604-.001-.06-.006-.119 0-.178.053-.498-.168-.677-.667-.666a75.686 75.686 0 0 1-3.545-.001c-.534-.013-.73.157-.72.706.03 1.477.01 2.955.01 4.433 0 2.505 0 2.505 2.573 2.22-.219.852-.078 1.714-.083 2.572l.022-.023c-.62 0-1.241.024-1.86-.008-.504-.026-.668.17-.66.666.025 1.447.01 2.894.01 4.341l.023-.022zM190.428 322.41c1.208 0 1.215 0 1.205-1.27-.01-1.273.19-1.176-1.289-1.184-1.165-.007-1.165-.002-1.164 1.223 0 1.232 0 1.232 1.248 1.231zm-3.606 12.376c-.621-.003-1.245-.037-1.864 0-.56.032-.701-.204-.7-.727.016-4.471.017-8.943-.002-13.414-.003-.565.22-.686.732-.698 1.679-.036 1.707-.053 1.725-1.716.007-.602.227-.754.784-.738 1.124.032 2.25-.012 3.375.017.559.014.773-.147.779-.75.017-1.817.045-1.797 1.809-1.735.5.017.649.177.664.67.056 1.713.074 1.732 1.817 1.796.508.019.643.194.657.68.051 1.747.069 1.771-1.681 1.77-.606-.001-.895.165-.806.797.016.116 0 .237.001.356.015 1.472-.173 1.306 1.338 1.316 1.136.008 1.13.003 1.139 1.164.012 1.443-.18 1.285 1.261 1.296 1.007.008 2.014-.017 3.02.01.5.013.676-.166.67-.667-.008-.647-.1-1.304.088-1.943l-.022.022c.63.238 1.284.074 1.927.112.341.021.472-.175.463-.497-.005-.207-.002-.414.004-.621.037-1.476-.268-1.314 1.307-1.326 1.157-.01 1.151 0 1.16 1.135.014 1.482-.166 1.302 1.34 1.315.947.008 1.895.021 2.84-.006.514-.014.727.13.742.693.043 1.746.068 1.771-1.674 1.769-.616 0-.811.186-.811.806 0 1.679-.028 1.679-1.67 1.679-3.225 0-6.45.026-9.675-.02-.779-.01-1.022.19-.991.985.06 1.498.012 1.5 1.518 1.5 3.314 0 6.627.017 9.941-.014.677-.007.928.145.909.875-.044 1.627-.004 1.628-1.651 1.628-3.255 0-6.51.02-9.764-.016-.724-.008-.974.176-.952.93.044 1.554.003 1.555-1.519 1.558-.325 0-.65.005-.976.008l.024.022c.01-2.562.01-2.562-2.517-2.484.018-.294.05-.588.053-.882.01-1.596.007-1.63-1.565-1.596-.695.015-.917-.19-.907-.893.025-1.64-.01-1.641-1.655-1.601-.089.002-.178.008-.266.002-.391-.025-.518.188-.512.543.037 2.303-.093 4.608.067 6.91l.026-.02zM186.728 303.879c0 1.833.013 3.667-.009 5.501-.006.53.165.721.712.718 3.638-.019 7.276-.019 10.914 0 .537.002.719-.164.716-.709-.019-3.638-.019-7.276 0-10.914.002-.535-.167-.723-.71-.72-3.637.017-7.276.02-10.913-.003-.628-.004-.724.274-.718.803.02 1.774.008 3.549.008 5.324m6.114-8.578c2.633 0 5.266.016 7.899-.011.612-.007.815.173.812.801-.021 5.237-.022 10.474.001 15.71.003.648-.236.789-.828.787-5.207-.018-10.414-.022-15.621.003-.662.004-.857-.184-.854-.85.025-5.207.026-10.414 0-15.62-.004-.689.232-.84.869-.833 2.573.03 5.148.013 7.722.013M273.05 303.88c0-1.775-.023-3.55.012-5.324.012-.622-.191-.81-.808-.806-3.58.024-7.16.024-10.74.001-.617-.003-.808.192-.803.812.025 3.58.025 7.16 0 10.739-.006.625.187.803.804.799a752.55 752.55 0 0 1 10.738 0c.622.005.822-.188.81-.807-.032-1.804-.011-3.61-.013-5.414m-6.116-8.58c2.574 0 5.149.02 7.722-.012.64-.008.872.146.869.833-.028 5.207-.026 10.414-.001 15.621.002.665-.193.853-.855.85-5.207-.025-10.414-.022-15.622-.004-.594.003-.828-.14-.826-.786.024-5.237.024-10.474.001-15.71-.002-.628.202-.809.813-.802 2.633.026 5.267.01 7.9.01M192.903 371.76c-1.804 0-3.61.018-5.413-.011-.571-.009-.777.163-.774.753.021 3.61.02 7.218-.001 10.827-.003.568.165.774.753.77 3.609-.02 7.217-.019 10.826 0 .57.003.77-.168.768-.758-.023-3.609-.027-7.218.003-10.827.006-.668-.264-.773-.837-.765-1.775.028-3.55.01-5.325.01m-.061-2.488c2.633 0 5.266.017 7.9-.011.614-.007.814.178.811.802-.02 5.236-.021 10.473.001 15.71.003.643-.233.788-.826.786-5.207-.018-10.414-.021-15.621.003-.656.003-.86-.177-.856-.845.026-5.208.027-10.415 0-15.623-.002-.682.225-.843.869-.834 2.573.032 5.148.012 7.722.012"/>
            <path fill="#231916" d="M231.014 359.512c1.67-.126 3.34-.122 5.011-.005l-.021-.026c.013.146.034.291.037.437.034 1.87.034 1.893-1.792 1.96-.562.021-.698.25-.68.75.02.555-.021 1.112-.036 1.668-.264.018-.528.048-.793.051-1.593.018-1.63.016-1.61 1.65.008.69-.238.83-.873.832-1.778.003-1.573-.402-1.594 1.67 0 .03.003.059 0 .088-.072.562.209.711.726.692.827-.03 1.655-.008 2.483-.008 1.798 0 1.78 0 1.715 1.833-.018.492-.162.682-.667.664a51.626 51.626 0 0 0-2.66-.006c-1.818.03-1.537-.309-1.613 1.587-.029.714.217.9.907.89 2.157-.034 4.316.001 6.473.01l-.024-.024v2.511l.025-.024c-1.39 0-2.782.029-4.17-.013-.602-.018-.768.204-.756.766.012.585.098 1.182-.079 1.762l.029-.028h-4.819l.028.028c-.021-.649-.061-1.298-.057-1.946.003-.417-.155-.58-.575-.573-.886.018-1.774.022-2.66 0-1.976-.05-1.674.442-1.718-1.82-.01-.495.155-.682.66-.671 1.182.025 2.366-.022 3.547.019.597.02.773-.203.75-.77-.035-.826-.008-1.655-.008-2.483 0-1.67 0-1.693-1.662-1.686-.596.002-.825-.142-.822-.785.01-1.664-.022-1.686-1.646-1.686-.587 0-.882-.132-.823-.784.054-.586.027-1.18.035-1.771l-.024.024c1.439.017 2.878.02 4.316.057.532.014.643-.24.631-.7-.016-.557.016-1.116.027-1.673.904-.177 1.815-.07 2.722-.078 2.366-.019 2.366-.007 2.098-2.423l-.038.034zM248.526 307.677c-2.188-.018-4.377-.07-6.564-.034-.768.012-1.036-.174-.996-.98.086-1.764-.212-1.501 1.499-1.523.916-.012 1.835-.026 2.75.006.527.019.718-.143.73-.696.039-1.777.062-1.776 1.844-1.777.799 0 1.598-.022 2.396.006.49.017.69-.146.68-.655a105.25 105.25 0 0 1-.003-3.639c.006-.454-.16-.666-.622-.622-.088.008-.177 0-.266 0-1.559-.022-1.597-.021-1.556 1.515.02.734-.195.973-.942.953-1.863-.049-3.728-.04-5.591-.003-.665.013-.948-.137-.917-.875.08-1.862-.246-1.565 1.61-1.586 1.658-.018 3.315-.029 4.971.01.64.014.88-.143.867-.834-.031-1.642.006-1.643 1.61-1.642.858 0 1.717.025 2.574-.008.53-.02.738.152.722.704-.032 1.152.016 2.308-.018 3.46-.017.577.176.764.759.77 1.713.02 1.713.045 1.713 1.73 0 3.224-.018 6.45.015 9.674.007.708-.149.99-.922.966-1.546-.05-1.583-.006-1.542-1.559.019-.725-.18-1.06-.934-.94-.145.023-.3.026-.443 0-.934-.176-1.227.251-1.101 1.122.038.26-.008.532.006.798.024.42-.167.542-.578.569-1.877.121-1.895.134-1.872-1.76.013-1.059-.126-2.124.093-3.179.497-.013 1-.075 1.492-.025.712.073.905-.21.882-.892-.065-1.897.202-1.54-1.593-1.58-.147-.004-.294.006-.44.005-.294-.004-.44.149-.427.43.032.698-.132 1.406.114 2.091M199.03 347.019c.011.614.057 1.23.025 1.842-.03.556.203.697.72.691 1.434-.016 2.868.013 4.302.024l-.024-.026c-.015.147-.039.291-.043.438-.043 1.921-.044 1.942 1.827 2.02.526.021.637.237.636.696 0 1.438.027 2.875.044 4.313l.02-.024c-.836.009-1.673.017-2.51.024-.032-.782.223-1.79-.17-2.286-.462-.582-1.52-.164-2.317-.201-.003-.588-.042-1.178-.001-1.762.041-.591-.194-.744-.76-.748-1.716-.012-1.717-.035-1.713 1.719 0 .264.007.529.01.793-1.095-.008-2.19-.02-3.283-.022-1.719-.005-1.69-.002-1.695 1.677-.003.637.217.798.82.796 1.63-.007 1.662.018 1.653 1.673-.003.641.225.8.824.79 1.388-.022 2.778.019 4.168.034l-.023 2.512.021-.023c-.494-.026-.994-.023-1.484-.085-.802-.101-1.071.194-1.03 1.018.083 1.64-.208 1.425 1.464 1.443.35.004.7-.032 1.05-.05l-.02-.027c0 .56-.035 1.124.01 1.682.05.63-.124.911-.822.878-1.149-.053-2.303-.036-3.453-.006-.54.015-.725-.174-.71-.714.03-1.15-.016-2.302.017-3.453.018-.566-.151-.844-.745-.762-.029.004-.059 0-.088 0-1.611-.034-1.633-.034-1.636-1.69-.001-.562-.145-.824-.743-.77-.585.053-1.175.053-1.763.076l.022.022c.002-3.017.025-6.035-.009-9.051-.009-.725.182-.977.936-.954 1.544.046 1.598.007 1.533 1.551-.035.83.272.99 1.014.958 1.703-.075 1.446.216 1.468-1.454.016-1.184.015-2.367.022-3.55l-.025.025 2.486-.013-.025-.024zM218.795 383.989c-1.35.22-2.709.079-4.063.081-.686.002-.922.182-.905.896.036 1.581-.002 1.582-1.578 1.582-1.655 0-3.311-.021-4.966.01-.588.01-.856-.127-.83-.778.046-1.122.033-2.247.003-3.37-.015-.544.116-.784.729-.79 1.737-.02 1.736-.049 1.736-1.78 0-.827.02-1.656-.006-2.482-.016-.488.141-.72.653-.661.204.023.413.003.62.003 1.185-.002 1.19-.002 1.185-1.2-.006-1.457.105-1.302-1.295-1.243-.892.038-1.263-.165-1.178-1.136.092-1.056.035-2.127.013-3.19-.01-.491.162-.657.666-.672 1.765-.053 1.796-.072 1.781 1.665-.005.676.214.858.867.837 1.358-.043 2.718-.005 4.078 0l-.022-.024c.01.837.018 1.674.026 2.512-.617-.004-1.235.01-1.851-.017-.456-.02-.626.156-.62.614.02 1.235.02 2.47.002 3.705-.007.453.161.633.62.622.615-.014 1.232.02 1.849.033.001.587.028 1.176-.003 1.761-.026.494.156.655.652.677 1.852.082 1.852.099 1.833 1.932-.002.147-.013.293-.02.44l.024-.027z"/>
            <path fill="#231916" d="M213.818 354.528c.005-.177.013-.355.015-.532.01-1.844.01-1.86-1.838-1.953-.455-.024-.66-.17-.619-.625.002-.03 0-.06 0-.089-.077-1.75-.077-1.776 1.668-1.771.62.001.808-.184.805-.806-.012-1.681.016-1.681 1.672-1.682.208 0 .415-.003.622.001 1.847.04 1.577-.32 1.642 1.66.022.676-.199.922-.854.828-.454-.065-.602.147-.626.607-.098 1.854-.113 1.867 1.78 1.84.496-.007.908.096 1.318.384.639.45 1.36.67 2.161.656 1.302-.023 2.606.015 3.908-.012.56-.011.857.15.763.752-.085.55.153.758.693.705a4.57 4.57 0 0 1 .887.001c.584.058.918-.108.81-.77-.079-.495.137-.69.644-.686 2.043.017 4.085.021 6.128-.001.561-.006.703.218.683.742-.018.495-.117.755-.695.755-.573 0-1.297-.285-1.69.165-.345.397-.116 1.084-.107 1.64.008.523-.222.65-.696.65-.648 0-1.304-.1-1.94.096.325-.704.113-1.445.149-2.167.011-.237-.12-.345-.366-.4-1.628-.372-2.104-.008-2.073 1.614 0 .06.005.118 0 .177-.049.487.157.674.657.674.548 0 1.11-.124 1.648.088.272.809.173 1.626.047 2.443l.038-.034c-1.605-.049-3.21-.099-4.815.029-.013-.559-.065-1.12-.027-1.674.045-.632-.134-.883-.823-.87-2.205.046-4.41.025-6.616.029l.023.024c-.004-.618-.036-1.237-.008-1.854.022-.5-.167-.668-.663-.661-1.443.022-2.885.005-4.328.003l.023.024zM235.999 312.601c.62-.012 1.243-.053 1.863-.028.516.021.702-.193.645-.68-.007-.058 0-.117 0-.176.02-1.652.02-1.62 1.65-1.645.661-.01.862.183.855.85-.02 1.792.011 1.78 1.876 1.653.408-.028.61-.149.572-.571-.007-.089-.001-.178 0-.267.026-1.693.026-1.66 1.71-1.665.656-.001.799.25.781.838-.035 1.124.02 2.25-.021 3.374-.022.59.183.827.76.752.058-.007.118 0 .177 0 1.518.013 1.551.014 1.521 1.568-.013.685.172.96.89.912.58-.038 1.185-.119 1.753.128l-.016-.012c-.319.487-.144 1.032-.146 1.546-.002.546-.131.807-.744.787-1.18-.04-2.365-.03-3.546 0-.511.012-.645-.18-.658-.671-.044-1.73-.063-1.748-1.739-1.782-.512-.01-.8-.13-.721-.696.004-.029 0-.06 0-.088-.041-1.807-.04-1.791-1.855-1.695-.455.024-.624.167-.616.626.02 1.182-.02 2.365.016 3.546.019.585-.181.777-.76.759-1.182-.035-2.365.006-3.547-.016-.499-.01-.71.17-.658.672.023.234-.032.478.009.707.17.938-.258 1.15-1.124 1.103-1.52-.08-1.356.164-1.349-1.405.003-.631.055-1.13-.88-1.093-1.567.06-1.567-.003-1.584-1.583-.003-.264-.04-.528-.061-.792l-.029.021c2.216-.172 4.435-.045 6.652-.067.563-.005.853-.085.849-.765-.012-1.668.024-1.669-1.676-1.703-.03 0-.06-.003-.088 0-.521.06-.767-.132-.733-.694.036-.589.004-1.182 0-1.774l-.028.026z"/>
            <path fill="#231916" d="M216.305 371.76c-.001-.62-.023-1.243.002-1.864.018-.461-.16-.615-.62-.623-.58-.01-1.307.267-1.707-.145-.396-.407-.128-1.131-.136-1.714-.007-.472-.195-.613-.641-.606-1.154.019-2.31-.02-3.464.016-.591.02-.85-.13-.83-.78.065-2.042-.245-1.657 1.683-1.694a54.111 54.111 0 0 1 2.575.003c.489.014.688-.15.676-.66a91.354 91.354 0 0 1 0-3.642c.007-.466-.18-.596-.627-.62-1.842-.1-1.842-.114-1.841-1.968 0-.8.012-1.599-.001-2.398-.007-.414.16-.59.58-.57.62.027 1.243.023 1.864.033l-.023-.024c.017.589.068 1.18.04 1.766-.026.546.181.714.716.709 1.414-.015 2.829.02 4.243.037l-.023-.024c.007.235.019.47.02.706.006 1.695.005 1.723 1.699 1.723.626 0 .808.209.79.814-.04 1.353-.018 2.707-.022 4.06l.024-.025c-.521.158-1.06.019-1.583.086-.748.096-.948-.21-.94-.94.021-1.67.363-1.509-1.556-1.523-.088 0-.178.007-.266 0-.444-.032-.637.149-.63.616.021 1.24.017 2.482.003 3.724-.005.415.152.566.57.581.608.024 1.4-.286 1.779.168.386.464.09 1.25.13 1.895.01.147.002.295.002.443 0 2.52 0 2.52-2.508 2.417l.022.024zM231.052 317.558c-1.323-.02-2.647-.074-3.969-.041-.687.017-.915-.185-.9-.892.034-1.581-.003-1.582-1.573-1.582-.913 0-1.826-.015-2.737.005-.454.011-.642-.16-.62-.618.03-.617.022-1.235.03-1.853l-.024.022c.62-.011 1.243-.045 1.863-.026.464.014.63-.166.616-.624-.017-.62.02-1.24.032-1.861l-.023.023c.854-.024 1.707-.048 2.56-.07-.2.544-.037 1.11-.107 1.66-.092.715.212.908.895.877 1.786-.079 1.542.298 1.566-1.61.002-.119-.006-.236-.001-.353.016-.372-.156-.521-.53-.517-.615.007-1.232-.018-1.849-.03-.171-.605-.067-1.223-.072-1.833-.005-.45-.16-.632-.618-.617-.614.02-1.23-.01-1.844-.019l.025.024c-.185-2.485-.185-2.485 2.241-2.485.68 0 1.36.02 2.037-.005.469-.018.648.181.609.627-.005.058-.001.117 0 .177.04 1.813.04 1.802 1.86 1.682.396-.026.622-.126.594-.556-.005-.088 0-.177.003-.266.038-1.795.155-1.882 1.964-1.665.388.047.503.211.496.561-.025 1.473-.043 2.946-.064 4.42l.027-.026c-.355.004-.709.008-1.063.015-1.506.028-1.333-.243-1.366 1.372-.042 2.035.118 4.072-.087 6.104l.029-.02zM248.45 374.223c-.016 3.728-.024 7.455-.059 11.183-.003.375.25.977-.271 1.083-.65.131-1.35.036-2.026-.016-.177-.014-.155-.292-.158-.467-.005-.385-.034-.773.004-1.153.057-.576-.156-.77-.743-.778-1.737-.027-1.751-.05-1.73-1.792.011-1.002-.093-2.008.064-3.01.237-.171.51-.095.77-.102 1.864-.052 1.59.361 1.642-1.72.014-.581-.178-.768-.758-.75-2.08.066-1.664-.285-1.708 1.723-.006.29.048.582.074.874-.849-.248-1.713-.085-2.572-.097l.023.024c-.005-1.414-.035-2.828-.007-4.242.012-.573-.166-.771-.75-.758-1.413.032-2.828.004-4.242 0l.024.023c.002-.53.053-1.068-.005-1.593-.084-.77.247-.944.958-.923 1.563.048 3.13.015 4.694.015 1.752 0 1.777 0 1.786 1.733.004.58.176.768.757.755 1.417-.028 2.834.005 4.252.013l-.02-.025zM245.933 327.364c0-1.391.018-2.782-.009-4.173-.01-.544.11-.808.73-.79 2.123.06 1.715-.245 1.743 1.722.023 1.628.027 3.257-.006 4.885-.012.601.155.824.792.822 1.67-.003 1.67.026 1.672 1.674 0 .858-.023 1.717.006 2.575.02.538-.175.725-.718.708-1.154-.034-2.31.019-3.463-.021-.593-.02-.763.195-.748.766.056 2.062-.243 1.662 1.67 1.702.887.018 1.776.015 2.664-.002.405-.008.56.137.597.557.17 1.908.184 1.907-1.73 1.907-1.657 0-3.315-.016-4.972.008-.537.007-.727-.172-.71-.718.034-1.153-.005-2.309.016-3.463.008-.485-.064-.836-.664-.74-.726.114-.822-.288-.807-.889.049-1.921-.2-1.58 1.596-1.595 2.34-.02 2.34-.005 2.34-2.36v-2.575M270.653 334.786c-.018 1.448-.029 2.897-.057 4.345-.008.422.177.597.585.566.059-.004.118 0 .178.001 1.669.052 1.704.052 1.677-1.59-.012-.71.223-.91.91-.884 1.838.068 1.542-.229 1.56 1.54.017 1.717-.014 3.433.014 5.149.008.546-.18.747-.717.705-.617-.048-1.237-.052-1.856-.076l.034.036c.024-.41.064-.818.067-1.227.011-1.2.005-1.2-1.177-1.201-1.274-.002-1.278-.002-1.27 1.285.002.38.032.762.05 1.142l.029-.028c-.234.021-.467.058-.701.062-1.775.029-1.796.027-1.834-1.756-.012-.537-.18-.725-.715-.716-.583.01-1.176.1-1.753-.075l.022.023c-.012-.177-.031-.353-.033-.53-.024-1.79-.023-1.816-1.762-1.847-.607-.01-.727-.246-.728-.792-.005-1.663-.026-1.691 1.59-1.668.664.01.99-.137.91-.877-.055-.523.012-1.06.023-1.589l-.023.023 5.003.002-.026-.023zM270.66 327.345c.756-.07 1.738.323 2.216-.17.51-.527.15-1.518.167-2.304.03-1.385-.013-2.773.02-4.158.014-.577-.179-.83-.757-.759-.058.008-.119 0-.177 0-1.826.02-1.535-.163-1.512 1.474.012.757-.171 1.126-.975.988-.115-.019-.236-.002-.354-.002-1.154-.002-1.16-.002-1.154-1.132.007-1.238.028-2.475.044-3.713l-.02.02c.58-.182 1.175-.074 1.76-.077.482-.003.668-.15.69-.659.084-1.818.102-1.817 1.97-1.817.77 0 1.538.018 2.306-.006.45-.014.632.136.63.607-.01 5.35-.009 10.7 0 16.051 0 .449-.147.644-.615.623-.649-.03-1.3-.012-1.95-.015l.03.023c.331-2.49.331-2.49-2.063-2.49l-.263.001c-.074-.838-.122-1.675.025-2.51l-.018.025zM218.796 324.852c-.005-.118-.02-.237-.014-.355.032-.646-.254-1.434.116-1.902.369-.467 1.17-.158 1.778-.174.488-.013.592-.233.586-.66-.017-1.183.017-2.366-.014-3.548-.015-.535.157-.731.703-.72 2.21.047 1.738-.219 1.786 1.672.02.768.048 1.54-.009 2.305-.053.721.165.98.924.96 1.86-.053 3.725.013 5.587-.033.717-.019.9.233.888.914-.029 1.57.003 1.57-1.533 1.57-.887 0-1.774.022-2.66-.008-.515-.017-.727.126-.741.689-.047 1.807-.071 1.807-1.914 1.788-.176-.002-.353-.02-.53-.031l.021.024c-.013-.59-.059-1.18-.03-1.767.03-.554-.197-.71-.723-.705-1.415.012-2.83-.023-4.246-.04l.025.02z"/>
            <path fill="#231916" d="M236.069 383.94c-.59.289-1.217.124-1.825.134-.48.008-.734.137-.668.655.011.087.002.176.002.265-.011 1.565-.012 1.527-1.534 1.57-.735.022-.967-.198-.945-.94.044-1.522.005-1.55 1.562-1.522.65.011.954-.111.924-.861-.075-1.909.219-1.57-1.588-1.602-.323-.006-.647.035-.97.054l.02.016a9.856 9.856 0 0 0 .005-2.51l-.029.027c1.437-.019 2.873-.058 4.31-.048.53.003.744-.163.709-.706-.037-.585-.012-1.174-.014-1.76l-.025.025c.146-.012.293-.039.439-.033.643.027 1.422-.251 1.891.114.469.364.16 1.158.173 1.76.012.483.223.598.65.595.615-.005 1.23.032 1.847.051l-.024-.023c.073 2.433.073 2.433-2.315 2.433h-.354c-2.283 0-2.283 0-2.261 2.33l.02-.025zM211.22 305.03c.311.71.109 1.456.142 2.184.02.451-.334.383-.625.413-.575.06-1.293-.267-1.692.165-.36.389-.13 1.08-.116 1.634.015.57-.231.679-.741.686-1.667.023-1.688.04-1.71 1.716-.007.562-.16.78-.76.762-2.079-.063-1.694.24-1.712-1.653-.025-2.454.014-4.908-.02-7.36-.009-.671.15-1.023.878-.905.057.01.117 0 .177.001 1.614.02 1.458-.19 1.404 1.408-.029.86.228 1.147 1.084 1.07 1.23-.108 2.476.102 3.707-.105l-.016-.016z"/>
            <path fill="#231916" d="M231.027 381.693c.028.173.076.346.082.52.058 1.788.057 1.808-1.746 1.864-.537.016-.774.185-.703.724.004.03 0 .06 0 .09-.037 1.705-.037 1.68-1.708 1.67-.572-.005-.759-.172-.765-.757-.02-1.896-.044-1.881-1.905-1.726-.431.036-.578.202-.54.599.002.03 0 .059-.001.088-.075 1.783-.075 1.783-1.85 1.782-.8 0-1.6-.023-2.397.008-.526.02-.76-.146-.723-.703.041-.619.019-1.242.025-1.863l-.025.026c.788.159 1.584.066 2.376.065.82-.001 1.889.35 2.396-.141.553-.536.171-1.622.18-2.465.025-2.517.008-2.517 2.538-2.247l-.028-.028c-.009.557.015 1.116-.036 1.667-.06.648.236.778.819.78 1.344.005 2.69-.105 4.032.063l-.021-.016zM189.028 359.57a3.664 3.664 0 0 0-2.14.001l.01.011c-.319-.615-.142-1.277-.16-1.917-.015-.458-.108-.68-.641-.7-1.832-.071-1.831-.094-1.831-1.96 0-1.565.018-3.13-.01-4.695-.009-.554.129-.801.738-.78 1.18.042 2.363.025 3.544.007.437-.007.648.117.646.595-.014 2.953-.006 5.907-.017 8.861 0 .197-.098.395-.15.592l.011-.015zM206.52 339.782c1.888-.188 3.78-.045 5.67-.08 1.153-.022 2.308.014 3.462-.01.494-.01.657.16.673.664.057 1.756.076 1.79-1.667 1.778-.691-.005-.839.244-.83.88.023 1.66-.312 1.897-2.01 1.603-.281-.049-.43-.153-.436-.44-.002-.118-.007-.237-.01-.355-.041-1.763-.04-1.736-1.783-1.687-.58.016-.67.26-.679.756-.032 1.724-.048 1.724-1.812 1.722-.828 0-1.657-.017-2.485.007-.461.012-.644-.158-.617-.62.038-.649.042-1.3.06-1.95l-.031.039c.614.02 1.228.03 1.842.063.467.025.606-.202.603-.638-.005-.583.041-1.168.065-1.751l-.015.02zM211.236 305.047c.296-.526.115-1.095.125-1.64.008-.507.128-.748.695-.75.571-.004 1.33.297 1.67-.185.268-.384.118-1.082.103-1.64-.012-.462.17-.629.622-.623.618.008 1.236-.032 1.855-.051l-.023-.025c.01.264.028.527.03.79.01 1.87.009 1.856 1.85 1.758.439-.023.638-.144.622-.61-.023-.645.004-1.291.01-1.937l-.024.024c.618.02 1.236.055 1.854.052.419-.001.66.094.65.59a142.514 142.514 0 0 0-.005 3.806c.002.36-.112.546-.504.544-3.097-.015-6.194-.02-9.291-.033-.084 0-.167-.054-.253-.085l.014.015M255.745 342.061c-.028.011-.054.03-.082.033-2.352.3-2.352.3-2.352-2.003 0-.707.02-1.415-.007-2.12-.018-.501.11-.733.681-.749 1.799-.049 1.799-.073 1.783-1.906-.001-.176-.013-.353-.02-.53l-.026.022h5.002l-.024-.024c.007 1.382-.015 2.765.036 4.145.023.65-.238.797-.824.778-1.116-.035-2.236.021-3.352-.021-.632-.024-.831.212-.793.816.032.525-.024 1.055-.041 1.583l.019-.024zM270.653 374.248c.118-.008.235-.02.353-.022 1.927-.03 1.947-.03 2.035 1.84.023.512.212.633.69.645 1.78.046 1.779.062 1.779 1.827 0 .825-.017 1.652.006 2.477.012.459-.166.659-.62.618-.058-.005-.118 0-.177.001-1.647.041-1.684.04-1.648-1.596.017-.73-.252-.89-.923-.876-1.534.03-1.573 0-1.533 1.552.02.742-.213 1.003-.948.932-.494-.048-1 .024-1.5.043l.023.027a44.252 44.252 0 0 1-.002-5.003l-.024.023c.528-.012 1.059-.068 1.582-.025.642.053.91-.143.865-.825-.036-.549-.094-1.113.065-1.66l-.023.022zM209.014 295.303c1.389 0 2.777.013 4.165-.008.487-.008.682.144.671.655-.045 2.228.265 1.76-1.727 1.809-.827.02-1.655.026-2.481-.004-.521-.019-.721.143-.736.697-.049 1.764-.071 1.764-1.837 1.763-.798 0-1.595-.017-2.392.006-.473.014-.699-.117-.686-.644a75.75 75.75 0 0 0 0-3.632c-.011-.519.202-.656.682-.65 1.447.02 2.894.008 4.341.008M255.747 332.32c.007-.148.01-.295.022-.442.05-.64-.26-1.422.14-1.887.388-.452 1.169-.152 1.773-.164.516-.01.56-.283.555-.68-.01-1.15.036-2.302-.016-3.449-.031-.684.228-.917.866-.827.03.004.06 0 .089 0 1.536-.014 1.574-.013 1.53 1.54-.02.726.177.968.928.946 1.565-.048 1.567-.006 1.566 1.59 0 .295-.008.59-.013.884l.025-.023c-.782.083-1.786-.308-2.294.16-.561.516-.092 1.552-.218 2.352l.023-.025-5 .001.024.024zM243.472 326.115c0 1.005-.024 2.01.009 3.015.018.55-.194.699-.722.71-1.744.036-1.78.056-1.758-1.68.01-.7-.248-.832-.878-.823-1.616.022-1.617-.006-1.617-1.638 0-.887.016-1.774-.005-2.66-.011-.45.148-.64.612-.634 1.241.018 2.483.023 3.724-.001.524-.01.654.22.642.695-.023 1.005-.007 2.01-.007 3.016M194.07 342.051c.015.617.063 1.235.035 1.85-.024.535.167.706.705.719 1.785.043 1.785.064 1.776 1.82 0 .206-.011.412-.017.617l.024-.025c-1.442.015-2.885.017-4.327.056-.531.015-.624-.235-.64-.696-.054-1.73-.068-1.724-1.83-1.785-.26-.009-.518-.084-.776-.13l.017.016c.285-1.57.125-3.149.087-4.725l-.03.02c.607-.17 1.229-.04 1.84-.092.523-.046.709.144.721.69.04 1.796.062 1.797 1.835 1.762.204-.004.407-.04.61-.06l-.03-.037zM257.042 386.547c-1.005 0-2.01-.023-3.014.01-.535.016-.782-.163-.718-.708.004-.029.002-.059 0-.088-.044-1.622-.044-1.646-1.693-1.66-.567-.005-.78-.166-.766-.755.044-2.099-.201-1.666 1.66-1.709.856-.02 1.714.011 2.57-.008.457-.01.685.09.708.628.077 1.833.1 1.833 1.971 1.834.799 0 1.597.011 2.395-.003.409-.007.55.147.577.568.126 1.893.14 1.892-1.74 1.891h-1.95zM206.517 357.017c2.403-.205 2.402-.205 2.399 2.136-.001.68-.027 1.361.01 2.039.03.556-.205.756-.727.7-.058-.006-.118 0-.177 0-1.542.024-1.585.025-1.54 1.544.021.763-.246.97-.963.924-1.324-.085-2.655.087-3.978-.092l.02.027v-2.326l-.021.023c.054-.023.105-.057.161-.067.738-.135 1.753.322 2.161-.234.371-.506.137-1.457.169-2.211.61-.015 1.22-.053 1.828-.04.458.01.614-.182.611-.623-.004-.608.043-1.216.068-1.823l-.021.023zM213.819 327.342c.005-.59.038-1.182.007-1.77-.028-.546.19-.716.722-.708 1.416.02 2.832-.005 4.248-.012l-.025-.02c.007.617.04 1.236.012 1.853-.021.498.163.67.66.662 1.443-.022 2.885-.005 4.327-.004l-.02-.024c-.055 1.62.283 1.511-1.529 1.478-1.12-.021-2.12.198-3.093.802-.863.536-1.893.146-2.846.208l.025.025c-.055-.783.316-1.776-.153-2.297-.485-.538-1.499-.093-2.273-.204l-.087-.012.025.023zM216.307 310.111c-.024-2.5-.024-2.501 2.433-2.5 1.678.002 3.355.008 5.032.012l-.025-.024v2.512l.023-.023c-.786.03-1.809-.232-2.299.165-.578.468-.111 1.542-.212 2.346l.025-.022-2.513-.002.024.024c-.07-.785.31-1.79-.156-2.3-.517-.567-1.554-.103-2.356-.211l.024.023z"/>
            <path fill="#231916" d="M218.771 312.575c.007.147.017.294.019.441.018 1.903.019 1.917-1.857 2.019-.442.024-.667.146-.621.614.017.175.004.354.002.531-.02 1.447.205 1.312-1.322 1.322-1.157.007-1.158 0-1.159-1.137 0-1.858.017-3.715-.006-5.573-.007-.537.172-.746.712-.71.588.039 1.179.022 1.768.03l-.024-.024c.11.775-.303 1.771.17 2.282.52.56 1.548.083 2.342.229l-.024-.024zM206.601 337.357c-.259.8-.12 1.615-.08 2.425l.014-.019c-2.585-.305-2.585-.305-2.517 2.238 0 .03.004.058.007.088l.031-.038c-1.52.213-3.05.054-4.574.09-.359.007-.436-.218-.43-.521.012-.617.016-1.235.024-1.852l-.024.016c.054-.02.107-.052.164-.06.745-.12 1.765.327 2.176-.228.375-.505.137-1.465.17-2.224l-.022.025c1.694-.057 3.39-.186 5.08.075l-.019-.015zM189.107 361.982c.024.585.071 1.17.066 1.754-.003.455.176.658.628.61.575-.062 1.17.146 1.727-.137l-.016-.019c.25.721.09 1.465.122 2.198.016.371-.233.425-.528.425-2.098-.003-4.196-.005-6.294.002-.36 0-.51-.12-.553-.505-.205-1.827-.138-1.945 1.676-1.947.624 0 .803-.205.806-.814.003-1.684.03-1.687 1.69-1.648.231.005.461.063.691.097l-.015-.016M263.187 329.831h2.514l-.026-.023.001 4.999.023-.023H260.7l.023.023v-2.512l-.023.024c.78-.1 1.78.308 2.29-.163.564-.519.091-1.55.221-2.348l-.024.023z"/>
            <path fill="#231916" d="M265.7 329.832c-.033-1.684-.116-3.367.045-5.048 0 .002-.03.029-.03.029 1.344.02 2.688.074 4.03.045.639-.013.914.149.864.827-.04.55.03 1.106.05 1.66l.019-.026c-.791.033-1.819-.226-2.312.174-.58.469-.2 1.533-.172 2.342l-2.519-.027.026.024zM268.178 317.57c-2.154-.155-4.312-.07-6.466-.046-.837.01-1.051-.253-1.02-1.05.06-1.436.015-1.438 1.49-1.437 1.715 0 3.43.02 5.144-.012.599-.01.867.153.824.791-.04.588.003 1.182.008 1.773l.02-.02M228.82 297.932c-.298-.71-.11-1.453-.15-2.18-.019-.351.19-.449.5-.448 2.12.003 4.238.004 6.357-.003.377-.001.538.156.516.528-.041.703.1 1.413-.108 2.106l.018-.02c-.245-.24-.556-.147-.838-.148-1.823-.01-3.646-.01-5.468 0-.28.002-.594-.102-.834.154a.172.172 0 0 0 .007.011M199.076 339.768c-.174-.024-.347-.064-.52-.069-1.864-.05-1.878-.05-1.96 1.82-.019.438-.128.667-.6.629-.64-.051-1.292.109-1.925-.097l.03.037-.001-4.817-.03.03a40.394 40.394 0 0 1 5.006-.003l-.026-.026.002 2.512.024-.016z"/>
            <path fill="#231916" d="M235.935 297.935c.705-.345 1.451-.115 2.178-.156.376-.021.405.256.405.543-.003 1.271-.012 2.543.004 3.814.006.444-.204.55-.599.546a153.607 153.607 0 0 0-3.724.003c-.449.006-.672-.15-.629-.614.006-.058.001-.118 0-.177-.04-1.657-.039-1.695 1.6-1.662.725.015.955-.24.868-.917-.059-.465.079-.943-.083-1.402l-.02.022M253.145 322.251c.305.618.154 1.28.156 1.919.001.532.173.77.716.706.175-.021.354-.004.531-.004 1.228 0 1.233 0 1.227 1.242-.006 1.403.122 1.224-1.225 1.235-1.003.008-2.007-.016-3.009.009-.48.012-.697-.132-.687-.646.024-1.21.03-2.42-.002-3.63-.015-.576.255-.675.752-.683.515-.008 1.056.165 1.55-.134l-.009-.014M236.049 383.964c1.31.273 2.637.127 3.952.1.839-.018 1.048.26 1.01 1.051-.08 1.647.218 1.412-1.488 1.43-.943.01-1.887-.016-2.83.009-.497.014-.693-.167-.665-.667.037-.647.027-1.296.04-1.946 0-.002-.019.023-.019.023M216.282 329.807c.01 1.44.006 2.881.04 4.32.011.507-.182.667-.67.657-2.22-.05-1.767.267-1.814-1.713-.027-1.087-.014-2.176-.02-3.263l-.023.023h2.512l-.025-.024zM208.924 312.451c0-.59.02-1.182-.007-1.77-.022-.472.174-.607.625-.598 2.263.045 1.78-.27 1.831 1.698.022.856-.011 1.712.009 2.568.01.462-.106.682-.635.707-1.827.084-1.826.106-1.826-1.72v-.885h.003zM263.28 322.264c-1.546.331-3.11.074-4.664.135-.25.01-.368-.148-.375-.393 0-.059 0-.118-.006-.177-.152-1.869-.152-1.87 1.731-1.87.857 0 1.714.018 2.57-.007.486-.014.697.142.674.657-.023.557.031 1.117.051 1.676l.018-.021zM204.077 349.576c-.35-2.505-.35-2.505 2.102-2.505.68 0 1.362.027 2.04-.009.557-.03.696.207.709.729.043 1.764.06 1.764-1.683 1.763-1.064 0-2.129-.003-3.193-.004l.025.026M273.04 386.547h-.708c-1.9.001-1.888.002-1.743-1.884.032-.412.17-.577.58-.573 1.267.01 2.536.007 3.805 0 .359-.001.564.127.533.515-.003.03 0 .06.001.089.131 1.853.131 1.853-1.672 1.853h-.796zM189.124 339.768c-.616-.024-1.23-.06-1.846-.07-.353-.006-.56-.119-.547-.509.05-1.467-.12-2.939.091-4.403l-.026.02 2.317-.024c.097 1.67.128 3.337-.018 5.006l.03-.02zM243.994 344.614c-.236.001-.472.002-.708.001-1.451-.005-1.266.128-1.278-1.273-.01-1.192-.002-1.192 1.191-1.191.708 0 1.417.016 2.124-.004.447-.012.606.151.63.614.096 1.85.113 1.85-1.959 1.853M199.076 337.298c-.008-.616 0-1.233-.03-1.848-.022-.467.109-.672.63-.695 1.868-.082 1.867-.103 1.865 1.749l-.001.793.022-.025h-2.512l.026.026zM206.59 376.78c-.255.536-.104 1.104-.112 1.655-.007.497-.11.739-.687.755-1.809.053-2.061-.217-1.796-2.029.049-.333.18-.475.502-.458.705.037 1.418-.1 2.115.099l-.022-.021zM233.513 310.112c.057-.006.116-.018.173-.016 2.827.095 2.354-.683 2.313 2.506l.029-.027c-.56 0-1.125-.035-1.68.013-.647.055-.824-.227-.788-.823.034-.557-.01-1.118-.021-1.678l-.026.025z"/>
            <path fill="#231916" d="M263.261 322.285c.472.25.985.141 1.467.11.71-.044 1.04.153.96.922-.053.493.013.999.026 1.497.002 0 .03-.028.032-.03-.026.01-.053.028-.081.032-2.441.352-2.793-.023-2.388-2.55l-.016.02M233.478 327.288c.194-.606.065-1.23.087-1.845.016-.409.168-.607.585-.57.059.006.119.002.178 0 1.732-.05 2.069.37 1.716 2.084-.062.3-.205.4-.474.388-.706-.029-1.417.095-2.117-.082l.025.025zM226.22 300.112c-.005.617-.036 1.236-.007 1.852.024.523-.15.742-.7.721-2.112-.078-1.737.412-1.785-1.912-.009-.435.189-.551.583-.562.643-.02 1.293.093 1.93-.078l-.021-.02M226.241 297.857c-.635-.193-1.286-.07-1.929-.09-.396-.012-.623-.124-.58-.559.01-.088.001-.177 0-.265-.025-1.68.357-1.975 2.053-1.643.352.069.416.258.418.548.004.677.011 1.354.017 2.031l.021-.022zM199.055 347.043l-.003-.798c-.002-1.657.433-1.994 2.083-1.632.23.05.393.126.395.383.004.562.007 1.123.002 1.685-.002.378-.274.404-.555.397-.649-.017-1.297-.038-1.946-.059l.024.024M194.074 334.784l-.004 2.517.03-.03c-.616-.01-1.232-.039-1.847-.024-.452.01-.63-.167-.623-.621.01-.614-.029-1.229-.047-1.843l2.515.024-.024-.023zM189.017 359.585c.866-.258 1.738-.186 2.613-.055l-.022-.021c.047.735.295 1.62-.078 2.16-.383.555-1.31.136-1.992.23-.145.019-.287.054-.431.082l.015.017c.042-.813.193-1.63-.092-2.429l-.013.016M199.052 316.23c.001-1.196.001-1.202 1.257-1.193 1.421.01 1.218-.145 1.23 1.398.009 1.068 0 1.07-1.3 1.067-1.39-.004-1.17.054-1.187-1.273M255.748 334.787c-.498-.004-.999-.049-1.49 0-.703.07-.988-.139-.962-.902.065-1.92-.174-1.551 1.575-1.59.292-.006.584.016.876.025l-.024-.024c.086.837.088 1.675 0 2.513l.025-.022zM201.628 322.27c-.715.285-1.458.094-2.188.13-.249.011-.377-.134-.38-.384-.003-.207-.006-.415-.007-.622-.006-1.438-.003-1.38 1.386-1.457.904-.05 1.24.222 1.115 1.127-.056.401.027.821.05 1.23l.024-.024M255.653 319.773c.038.142.093.283.109.428.227 2.194-.412 2.695-2.615 2.052l.007.012c.278-.234.145-.552.15-.829.024-1.462.017-1.457 1.532-1.484.281-.005.596.102.833-.16l-.016-.02zM208.8 334.777c.25-.628.088-1.284.115-1.926.017-.413.154-.606.575-.558.058.007.118 0 .177 0 2.021.05 1.653-.343 1.718 1.73.019.574-.163.807-.754.763-.617-.047-1.24-.027-1.858-.034.002 0 .027.025.027.025M205.201 366.805c1.266.001 1.268.001 1.265 1.302-.004 1.394.048 1.17-1.296 1.172-1.342.002-1.157.15-1.168-1.38-.008-1.094 0-1.094 1.2-1.094M186.888 359.571c-.331.543-.127 1.14-.15 1.71-.017.447-.146.669-.615.611-.058-.007-.118-.001-.176 0-1.75.033-1.983-.257-1.682-2.026.049-.289.154-.437.44-.421.73.038 1.475-.148 2.191.137a.1.1 0 0 0-.008-.011M213.818 329.808c-.586.006-1.173-.005-1.758.025-.47.025-.67-.118-.696-.632-.096-1.864-.115-1.863 1.751-1.862.235 0 .47.002.703.003l-.024-.023c.08.837.08 1.675.001 2.512l.023-.023zM214.893 322.416c-.489.03-1.178.162-1.084-1.013.128-1.592-.175-1.435 1.223-1.442 1.503-.009 1.274-.076 1.277 1.178.004 1.39.174 1.26-1.416 1.277M206.612 376.802c-.296-.707-.095-1.447-.136-2.17-.013-.24.106-.396.363-.398.557-.005 1.115-.003 1.673-.002.242 0 .39.108.391.365.005.587.012 1.174.006 1.761-.004.403-.313.344-.572.353-.583.021-1.167.043-1.75.067l.025.024M216.306 300.158c-.002-.235-.004-.47-.004-.704-.003-1.83.122-1.926 1.995-1.696.377.047.507.196.496.554-.019.616-.016 1.23-.022 1.846l.024-.023a8.049 8.049 0 0 1-2.512-.002l.023.025zM268.168 381.689c-.011.62-.033 1.243-.03 1.864.001.374-.16.548-.532.53-.03 0-.06.004-.089.003-2.174-.086-1.868.543-1.817-2.396l-.023.022a8.273 8.273 0 0 1 2.513.004l-.022-.027z"/>
            <path fill="#231916" d="M226.22 297.879c.87-.168 1.737-.23 2.6.052l-.007-.01c-.251.718-.229 1.434-.002 2.152l.014-.011c-.864.258-1.733.2-2.605.05l.021.02v-2.275l-.02.022M189.02 344.478c.312.71.106 1.457.148 2.186.014.236-.09.405-.355.407-.561.005-1.123.003-1.685.002-.248 0-.385-.128-.387-.377a76.434 76.434 0 0 1 0-1.684c.005-.37.272-.383.555-.406.581-.048 1.177.132 1.743-.111a1.242 1.242 0 0 0-.02-.017"/>
            <path fill="#231916" d="M228.81 300.073c.525.305 1.095.115 1.64.129.497.012.718.18.663.676-.003.03 0 .06 0 .09.057 1.767-.216 1.994-2.003 1.714-.283-.045-.454-.134-.437-.429.042-.73-.162-1.477.15-2.19l-.012.01M206.619 337.372c-.304-.732-.113-1.496-.134-2.244-.012-.378.306-.358.569-.358.583 0 1.166.005 1.747.007a1.365 1.365 0 0 0-.028-.025c.286.68.106 1.392.127 2.09.01.368-.279.377-.559.402-.58.049-1.176-.13-1.742.11l.02.018M191.528 364.209c.23-.565.084-1.155.1-1.733.013-.4.13-.614.557-.58.117.01.235-.002.352 0 1.88.034 1.503-.259 1.59 1.573.032.691-.182.978-.884.885-.573-.077-1.173.132-1.73-.162 0-.002.015.017.015.017M272.949 332.296c.203.657.06 1.33.095 1.995.02.386-.207.493-.555.487-.612-.008-1.224.004-1.837.008l.027.023c-.148-.836-.098-1.674-.026-2.512l2.326.022-.03-.023zM251.031 317.644c-.336-.706-.117-1.453-.159-2.181-.017-.293.144-.43.435-.423.117.003.236-.002.354-.005 1.682-.033 1.999.377 1.651 2.06-.074.36-.28.383-.561.41-.58.053-1.176-.14-1.737.124a.72.72 0 0 0 .017.015M210.17 319.954c-1.348-.015-1.242.18-1.248-1.107-.006-1.345-.002-1.345 1.113-1.346 1.34-.001 1.349-.001 1.34 1.115-.013 1.478.178 1.32-1.205 1.338M255.67 319.792c.215-.571.064-1.165.093-1.747.019-.36.137-.557.519-.542.147.006.294-.005.442-.002 1.788.034 1.463-.25 1.534 1.56.026.673-.147 1.002-.871.897-.574-.084-1.181.15-1.732-.184l.014.018M233.453 327.263c.175.268.099.572.125.862.043.475-.122.728-.643.686a6.014 6.014 0 0 0-.974.001c-.563.047-.862-.083-.866-.756-.005-.706.35-.747.886-.725.499.021 1-.023 1.5-.04a8.38 8.38 0 0 1-.028-.028M236.001 366.758c.117.015.234.044.35.042.647-.008 1.414.189 1.908-.093.597-.34.195-1.18.23-1.796.032-.594.382-.552.773-.564 1.41-.044 2.823.096 4.23-.078l.03 2.46.022-.027c-.602.223-1.227.105-1.84.098-.53-.007-.71.16-.72.707-.037 1.776-.06 1.776-1.824 1.776-.796.001-1.593-.031-2.388.011-.595.031-.777-.203-.747-.77.031-.586-.012-1.177-.024-1.766"/>
            <path fill="#231916" d="M233.513 364.268c.603.161 1.219.078 1.826.07.517-.007.75.15.713.699-.041.58-.019 1.165-.024 1.748-.8-.03-1.855.398-2.322-.212-.395-.516-.153-1.518-.193-2.305M243.521 366.728c.61.167 1.232.056 1.848.072.41.01.605.165.572.581-.005.059 0 .118 0 .177.053 1.75-.334 2.063-2.075 1.727-.297-.058-.41-.188-.4-.463.028-.706-.09-1.416.076-2.119a2.175 2.175 0 0 0-.02.025M260.725 370.346c-.022 1.6.161 1.403-1.4 1.41-1.295.006-1.074.095-1.089-1.457-.01-1.03.005-.945 1.44-1.055 1.118-.085 1.14.487 1.05 1.102M263.212 359.506c-.617-.023-1.237-.076-1.853-.06-.511.014-.678-.191-.656-.682.028-.59 0-1.181-.004-1.773.811.03 1.886-.38 2.354.198.398.494.132 1.524.16 2.317M191.61 334.807l-2.515.002c.173-.61.077-1.235.075-1.852-.001-.488.153-.702.666-.671.59.034 1.183.009 1.775.01v2.511M192.93 307.623c-1.004 0-2.008-.02-3.011.009-.507.014-.757-.1-.75-.677.026-2.037.016-4.075.004-6.112-.003-.444.143-.637.612-.634 2.067.016 4.134.015 6.2.003.462-.003.612.181.608.633a275.67 275.67 0 0 0 .004 6.111c.008.582-.246.688-.744.674-.974-.025-1.949-.007-2.923-.007M266.999 300.216c.974 0 1.95.017 2.923-.007.485-.013.688.143.683.654-.02 2.038-.018 4.075 0 6.112.004.505-.188.662-.68.657-2.007-.02-4.015-.022-6.023 0-.524.007-.732-.139-.725-.696.027-2.007.028-4.016.001-6.023-.007-.554.196-.72.72-.706 1.033.027 2.067.009 3.1.009M196.587 377.925c0 1.003-.026 2.008.01 3.01.019.552-.192.712-.72.706a299.852 299.852 0 0 0-6.023.001c-.485.005-.687-.143-.682-.655.02-2.037.017-4.074 0-6.11-.003-.498.18-.666.677-.661 2.008.02 4.016.028 6.023-.004.618-.01.742.247.724.79-.032.973-.01 1.948-.01 2.923M216.282 379.227v-5.003c.809.085 1.85-.368 2.368.206.465.516.13 1.524.132 2.314.002.761.314 1.717-.129 2.233-.465.54-1.448.114-2.198.213-.058.007-.115.024-.173.037M226.258 359.482a12.25 12.25 0 0 0 .003 2.515c-.63-.211-1.28-.084-1.919-.098-.44-.01-.6-.151-.623-.613-.092-1.865-.109-1.866 1.75-1.85.263.003.526.03.789.046M204.053 359.507a9.76 9.76 0 0 0-2.514-.003l-.001-2.513 2.512.001a14.77 14.77 0 0 0 .003 2.515"/>
            <path fill="#231916" d="M199.05 354.503h2.513v2.515c-.144-.013-.29-.035-.435-.037-2.072-.04-2.072-.039-2.077-2.128l-.001-.35M270.678 329.807a8.256 8.256 0 0 0 0 2.513c-.531-.005-1.07-.066-1.595-.002-.822.1-1.044-.255-.959-1.005.056-.497.03-1.004.04-1.506h2.514z"/>
            <path fill="#F6F7F7" d="M214.409 356.428h30.645v-30.645h-30.645z"/>
            <path fill="#EA4335" d="M237.488 338.757l-7.285 4.09a.147.147 0 0 1-.154 0l-6.09-3.244a.145.145 0 0 1 .032-.263l6.031-1.914a.366.366 0 0 1 .215-.002l4.725 1.575a.262.262 0 0 0 .325-.175l.112-.375a.262.262 0 0 0-.176-.325l-4.368-1.469a.364.364 0 0 1-.26-.349v-3.322c0-.101.097-.173.193-.143l6.95 2.185c.1.031.165.13.155.235l-.334 3.384a.147.147 0 0 1-.071.112zm-6.893 10.061v-5.072c0-.033.016-.062.043-.08l6.089-3.396a.15.15 0 0 1 .219.18l-2.1 5.418a.231.231 0 0 1-.083.106l-4.09 2.885a.05.05 0 0 1-.078-.04zm-.914-15.842v3.345c0 .157-.1.297-.249.346l-6.441 2.158a.15.15 0 0 1-.196-.124l-.402-3.444a.219.219 0 0 1 .151-.233l6.943-2.19a.149.149 0 0 1 .194.142zm-4.132 12.947l-2.215-5.55c-.045-.112.081-.215.182-.15l6.112 3.453a.117.117 0 0 1 .053.099v5.053a.05.05 0 0 1-.079.041l-3.964-2.833a.257.257 0 0 1-.089-.113zm4.712-14.205a.455.455 0 0 0-.274 0l-8.437 2.662a.218.218 0 0 0-.15.232l.507 4.556a.957.957 0 0 0 .009.038l2.892 7.322a.182.182 0 0 0 .065.084l4.962 3.546a.5.5 0 0 0 .58.002l5.115-3.61a.172.172 0 0 0 .06-.076l2.827-7.268a.155.155 0 0 0 .01-.039l.45-4.554a.223.223 0 0 0-.155-.235l-8.461-2.66z"/>
        </g>
        <g>
            <path fill="#FEFEFE" d="M40 390.745h99.745V291H40z"/>
            <path fill="#231916" d="M51.502 361.839c-.015-1.627-.015-3.24-.015-4.943-1.627-.04-3.254-.006-4.92-.021v2.233c-.138.14-.24.241-.345.346h-1.954l-.296-.34v-4.472c.346-.42.844-.344 1.32-.344 1.18-.002 2.358 0 3.575 0v-2.34c-.72-.074-1.496.013-2.293-.042v-9.853h2.314v-2.345h2.254l.322-.393v-1.905c-.191-.361-.48-.327-.769-.327-2.043.002-4.085.001-6.127.001H44v-4.67l.277-.25h2.245v2.296h2.362v-7.23h-2.31c-.012-.412-.028-.793-.032-1.174-.006-.387-.002-.777-.002-1.202h2.346V322.6c.15-.152.227-.228.341-.342h2.224v-4.919h4.959v-2.348h4.943v2.23c-.174.292-.436.313-.739.31-1.36-.014-2.721-.006-4.157-.006v4.713h-4.63c-.113.113-.19.189-.34.342 0 .7 0 1.478-.016 2.272-.759.015-1.533.015-2.304.015v2.312h2.29c0-.795 0-1.569.014-2.327.838-.016 1.66-.016 2.559-.016.094.758-.008 1.533.056 2.332h2.316v2.328c.891.08 1.71.152 2.597.233v4.76h4.916v-2.116h-2.206c-.111-.113-.187-.19-.298-.299v-4.516l-.374-.375h-2.214v-2.333h2.22l.336-.337v-4.623h2.58v4.925h2.02l.345-.288c0-1.564 0-3.1.015-4.65.757-.016 1.53-.016 2.272-.016.105-.103.18-.18.243-.244v-2.067h-2.501c0 .795 0 1.568-.014 2.326-.803.014-1.592.014-2.38.014v-2.565H66.3v-2.38h2.604v2.371h2.34v2.227l.313.314h2.005l.3-.302v-2.265h7.267v-2.345c-1.659-.001-3.288.002-4.914-.001v-2.598c.779-.019 1.557-.019 2.295-.019l.304-.304v-2.048h2.313v-2.34H79.12l-.303-.303v-4.301l-.309-.307h-4.662v2.3h-2.225c-.14.138-.24.24-.32.319v2.073c1.661.008 3.288-.004 4.914.008v4.922c-.776.018-1.55.018-2.36.018v-2.005l-.319-.36H71.27v-2.348c-1.626-.036-3.252-.006-4.917-.021v4.685h-2.367v-4.882h2.315v-2.34h-2.222c-.168-.92-.213-6.926-.082-9.896h19.715c.082.722-.01 1.498.049 2.3h2.21l.347.347v4.54l-.375.31h-2.169v7.305c.605 0 1.237-.015 1.87.01.223.007.442.115.657.176v2.179c-.858 0-1.708 0-2.548-.014-.136-.759.226-1.59-.22-2.302h-2.131v2.287c.795 0 1.568 0 2.35.015-.01.838-.01 1.662-.01 2.566.76.073 1.536-.006 2.27.04l.296.297v2.016h2.376v-12.178h2.3l.301.303v11.9h6.955l.34.34v2.256h-7.53v-2.322h-2.376v2.343h-2.318v2.33c.797.05 1.572-.029 2.333.043v2.552H86.43l-.341-.34v-2.214h-2.03c-.114.104-.22.2-.277.254v4.676h2.228l.29.29v.873c-.115.13-.206.239-.25.29h-4.863v-6.111l.286-.287c.733-.045 1.51.033 2.27-.04 0-.831 0-1.584.015-2.352.758-.016 1.531-.016 2.303-.016v-2.311h-2.288c0 .796 0 1.57-.015 2.327-2.513.015-5.01.015-7.522.015v4.644l.323.324h2.233v5.044c-.747.621-.916 1.593-1.284 2.435l-1.292.06v4.697c-.789 0-1.577 0-2.381-.012-.017-1.552-.017-3.114-.017-4.667h-2.579v2.338h-7.253v2.315c3.307 0 6.586 0 9.849.014.015.781.015 1.55.015 2.27.123.122.195.26.273.262.698.034 1.395.045 2.093.061v2.365H63.953v-2.177c-.233-.066-.453-.171-.677-.18-.63-.024-1.265-.008-1.93-.008v-2.29c-.113-.115-.19-.19-.264-.266h-4.353l-.296.298c0 .344.003.733-.002 1.121-.006.381-.02.763-.032 1.175h-4.92v7.249h-2.012l-.31.31v4.64h2.3v-2.209l.38-.379h2.011v-2.109c.846-.463 1.72-.13 2.554-.222v2.602h-2.3v7.263h4.653v-2.362h-2.273v-2.531h4.879c.057.798-.036 1.574.046 2.292h2.562v-4.923h2.355c0-1.435.006-2.795-.004-4.155-.002-.298 0-.571.319-.753h1.964l.251.252v7.285h-2.238l-.266.266v2.049h4.577c.14.138.24.24.343.34v2.259h-4.946v-2.365c-.459 0-.847-.004-1.236.002-.38.005-.758.02-1.13.03 0 .832 0 1.584-.014 2.35-.83.014-1.675.014-2.52.014v2.313h2.503c0-.796 0-1.57.017-2.328.803-.016 1.592-.016 2.38-.016v2.377c1.698-.045 3.323.04 4.946-.05v-2.327h2.259l.284-.284c.17-.756-.196-1.566.264-2.275h1.821c.324.183.324.455.323.752-.01 1.385-.005 2.77-.005 4.147h2.58c0-1.846.006-3.664-.004-5.483-.004-.37.077-.745-.185-1.111-.088-.123.13-.468.196-.676l1.44.868h.835c.114.115.19.189.302.303v1.137h2.162v-1.2c.962-.387 1.878-.41 2.825.047v1.168h2.09v-1.15c.73-.53 1.525-.256 2.2-.33l.631.327v1.13h2.414l-.282-.918.555-.555c.73.1 1.527-.189 2.255.347v1.16h2.002l.348.336v2.26h-4.947c0 .46-.003.85.002 1.238.006.378.02.757.03 1.13h2.228l.343.343v2.26h4.952v2.287h2.375v-2.314h2.334v-4.953h2.531v-2.374h-2.233l-.29-.29c-.054-.738.038-1.514-.046-2.273h-2.333v-2.257l.303-.302h6.92l.258.255v2.325h-2.233l-.302.302c0 .313-.004.666.002 1.018.005.343.021.688.032.99h4.941v-7.244h2.26c.109.107.185.183.276.276.056 1.533-.041 3.09.053 4.637.826 0 1.578 0 2.343.016.015.757.015 1.53.015 2.308h2.53v-2.019l-.273-.274c-.743 0-1.515 0-2.272-.015-.016-.794-.016-1.573-.016-2.273.153-.152.23-.228.341-.343h2.214v-2.026c-.104-.117-.2-.223-.325-.36h-2.204v-2.243l.298-.297h4.622v-2.365h4.923c.07-.833-.036-1.609.062-2.365h4.908V342c-1.546.1-3.102-.003-4.641.055-.311.431-.311.431-.3 2.32h4.941v2.613h-4.629l-.333.348v2.211h-7.25v2.373h2.278v2.589h-2.323v2.385c-.844.014-1.689.014-2.539.014v2.319h2.18c.16-.13.269-.218.359-.288v-2.045c.751-.016 1.504-.016 2.333-.016v2.335h2.592v-2.32h2.344v-4.793c.065-.075.083-.105.11-.127.026-.018.06-.04.09-.04h4.753v2.293c.861.232 1.785-.179 2.592.362v4.572l-.266.266h-2.001c-.08-.078-.18-.18-.32-.318v-4.575h-2.301v4.569c-.14.138-.24.24-.38.38h-4.59v2.303h-2.238l-.328.354v2.034h12.107l.302.301v2.244h-12.407v-2.265h-2.379v2.275h-2.575v-2.235l.282-.282h2.283c-.1-.815.218-1.62-.242-2.39h-2.316v-2.312h-2.376v4.558l-.302.302h-4.334l-.562-.29v-4.596h-2.304v4.568l-.393.369h-4.566v7.253h2.332v-4.575l.297-.296h9.768v9.845h-2.194l-.304.303v1.937l-.38.38h-4.577v2.043l.272.27h2.264v2.378h2.343v2.575H96.302a67.114 67.114 0 0 1-.278-.277v-2.02h-2.377v2.278h-2.316c-.05-.055-.146-.162-.253-.278-.053-1.757-.053-1.757.28-2.256h2.275v-2.39c2.428-.02 4.855-.02 7.32-.02v-4.864h2.544v4.928h-2.3v2.34c1.533 0 3.034 0 4.534-.002.03 0 .065-.018.09-.038.028-.02.047-.052.075-.083v-4.504l.345-.346h2.231c0-.425.003-.814-.001-1.202-.006-.38-.02-.762-.031-1.137-.795 0-1.511 0-2.227-.002-.103-.1-.203-.202-.343-.342v-1.97H96.25v2.317h2.295v2.289l-.304.305c-.724-.096-1.52.187-2.253-.338v-2.276H93.61v-2.294h-2.378v2.025l-.258.259h-2.31v-2.304h-2.34v2.008l-.343.342h-2.207v2.347c1.674 0 3.316-.007 4.959.002 1.633.01 3.27-.041 4.9.032v2.528c-1.61.019-3.223.019-4.845.019-.018.021-.048.044-.066.074a.195.195 0 0 0-.032.093l-.001 4.545c-.741.445-1.533.126-2.25.242a79.6 79.6 0 0 1-.295-.296v-2.026h-2.377v1.966l-.345.345h-7.18c-.058-1.228-.017-2.468-.024-3.703-.008-1.248-.002-2.497-.002-3.784h2.55v2.19c.15.15.227.227.327.33h4.35l.264-.265v-2.05h-2.196c-.152-.151-.226-.228-.34-.34V376.7h-2.337c-.09-.799.003-1.574-.056-2.371H76.24v2.313h-2.347v4.622l-.427.347h-2.17v2.575c-.88 0-1.73.038-2.575-.01-.788-.045-1.618.219-2.394-.21v-2.323H63.99v-4.628l-.329-.33h-2.274v4.917h-4.918v4.917c-.41.012-.792.027-1.173.032-.389.005-.778.002-1.122.002l-.297-.297v-4.607h2.208l.323-.374v-2.01H54.52l-.666-.344v-2.143c-.025-.03-.047-.06-.074-.08a.174.174 0 0 0-.092-.037l-7.114-.001v-2.292c-.861-.233-1.785.177-2.59-.362v-2.253h4.889c.013-.41.026-.79.032-1.168.005-.39 0-.779 0-1.204h-2.34v-4.957h-1.938l-.665-.341c-.002-.717-.002-1.433-.002-2.234.408-.01.825-.022 1.24-.025.425-.004.85-.001 1.311-.001v2.316h2.377v-1.975l.34-.341c.701 0 1.48 0 2.274.015.015.759.015 1.531.015 2.304h2.312v-2.29c-.796 0-1.569 0-2.327-.014zm4.962.015v2.29h2.31v-2.29c-.794 0-1.569 0-2.373-.06v-2.29h-2.312v2.29c.796 0 1.57 0 2.375.06zm4.883-.06v-2.29h-2.311v2.29c.795 0 1.569 0 2.377-.004v2.353H66.3v-4.645h-2.35v2.292c-.879 0-1.727 0-2.604.003zm9.952-61.657v2.293h2.532v-2.019c-.094-.094-.168-.17-.274-.274-.742 0-1.514 0-2.32.004v-2.352h-4.89v4.644h2.564v-2.292c.808 0 1.583 0 2.388-.004zm12.444 71.542h2.369v-2.238c.492-.33.492-.33 2.266-.285l.349.334v2.204h4.606l.325-.325v-2.262H96c0-.426.003-.814-.001-1.203-.005-.38-.02-.76-.033-1.172H93.63V359.5h-2.375v2.014c-.112.115-.188.19-.339.341h-2.19v2.338h2.225l.293.291v1.98l-.257.267h-2.305v-2.283h-2.375v2.016l-.293.292c-.736.054-1.512-.038-2.27.046v4.946h-2.324v4.892h1.84c.56-.17.482-.482.482-.76.003-1.39.002-2.777.002-4.201zm0-14.763h-2.37v4.716c-.23.065-.45.173-.672.183-.633.024-1.266.009-1.849.009-.202.906.194 1.786-.283 2.558h-4.417a117.48 117.48 0 0 1-.287-.285v-4.287c-.14-.149-.24-.252-.295-.313h-2.282v16.939c.715.443 1.512.114 2.23.236.128-.13.23-.23.369-.37v-2.223h2.287v-2.376h-2.277v-4.904h4.925v4.882h2.335c.017-1.659-.011-3.288.016-4.911.815 0 1.531 0 2.248-.002l.34-.34v-4.627h2.314v-2.327c-.798-.054-1.574.03-2.332-.045 0-.904 0-1.727.03-2.582h2.288v-2.311h-2.288c0 .795 0 1.567-.03 2.38zm-27.274 9.875v7.274h7.292c.062-.205.185-.422.189-.643.018-1.215.009-2.431.009-3.647v-2.683c-.15-.15-.226-.226-.302-.3H56.47zm12.454-37.258h7.274v-2.14c-.21-.062-.43-.172-.653-.183-.559-.026-1.121-.007-1.686-.007v-4.311c-.214-.256-.392-.468-.534-.635-1.384 0-1.384 0-2.106.39v2.223h-2.295v4.663zm-.056 51.777V372l-.318-.317c-.686.215-1.5-.264-2.206.278v9.383c.149.09.294.253.438.25.689-.012 1.403.163 2.086-.284zm-12.472-44.237v-7.27h-2.303v2.23c-.212.108-.391.201-.7.361h-1.905c0 .39-.005.744.001 1.097.006.343.023.686.036 1.026h2.224l.344.344v2.212h2.303zm12.475 31.774v-4.155l-.267-.267H66.36v4.69h2.243l.268-.268zm9.906-71.07H73.85c0 .421-.003.81.001 1.197.007.38.02.759.03 1.102h4.625l.27-.271v-2.029zm17.474 68.938h4.66v-2.293h-4.66v2.293zm-47.022-2.311c-.151.898-.148 3.89-.001 4.693h2.261c-.011-1.591.014-3.142-.014-4.693h-2.246zm66.519-5.178v-4.714c-.422 0-.81-.004-1.199.002-.38.005-.758.02-1.095.03v4.682h2.294zm9.798-12.257l.306-.26v-2.036h-2.51v2.022l.275.274h1.93zm-39.186 9.927v2.347c.423 0 .812.004 1.2 0 .379-.007.757-.02 1.093-.031v-2.316H86.36zM53.835 371.75h-2.348c0 .424-.005.812.001 1.2.004.38.02.757.029 1.094h2.318v-2.294zm47.073-.055v-2.346c-.425 0-.814-.005-1.202.002-.378.003-.754.02-1.088.028v2.316h2.29zm10.18-2.328v2.347c.424 0 .813.004 1.2 0 .38-.006.757-.02 1.094-.031v-2.316h-2.293zm-47.093-39.567v2.346c.422 0 .811.005 1.2 0 .378-.006.757-.02 1.094-.03v-2.316h-2.294zM56.47 376.68v2.347c.427 0 .814.004 1.203 0 .378-.007.756-.02 1.087-.03v-2.317h-2.29zm-2.651-47.129v-2.328h-2.012c-.118.11-.224.206-.283.26v2.068h2.295zm27.591-29.498h2.065l.227-.227v-2.063H81.41v2.29z"/>
            <path fill="#231916" d="M113.418 300.107v7.28c.759.079 1.534-.007 2.27.044l.294.293v7.21h9.901v7.283h2.345c.077-.72-.011-1.496.044-2.293h2.542v2.304h2.387c0-1.376.002-2.763 0-4.148-.002-.289-.048-.59.437-.748h1.96c.061.218.173.44.176.66.016 1.394.007 2.787.007 4.264-.655 0-1.29-.017-1.924.01-.221.01-.44.128-.682.205.133.829-.182 1.619.25 2.358h2.318v2.347c-.72.071-1.497-.01-2.325.044-.448.79-.08 1.667-.256 2.52h-2.305v-2.503h2.293v-2.37h-7.242v2.321h-2.263c-.114.114-.19.19-.302.305v2.263h-2.37v2.346h4.908v-2.201c.113-.115.19-.19.299-.3h1.786l.318.318v2.225h4.917v4.95h-2.36v-2.122c-.834-.506-1.714-.107-2.551-.267-.09.863.038 1.635-.082 2.39h-2.318v-2.345h-2.253c-.127.112-.232.207-.327.292v2.052h-4.624l-.305.305v1.97l.305.305h4.624v2.365h-7.53v-2.335h-4.59l-.38-.379v-4.544h-4.667v2.316h2.337v4.956h4.89v2.59h-4.927v2.307h-6.422c0-2.393 0-4.752.002-7.111 0-.03.016-.066.035-.092.02-.029.05-.048.034-.033h1.444v4.646h2.327v-7.29h-3.884c.182-.888-.21-1.763.291-2.566h1.211v-2.162h-1.2c-.5-.677-.435-1.568-1.043-2.195-.616-.635-1.376-.993-2.238-1.462h-5.355v-1.116l-.285-.324h-2.106v1.155l-.308.307c-.345 0-.734.005-1.123 0-.38-.006-.76-.02-1.135-.032v-3.838h2.37v-2.264c.115-.113.192-.19.267-.267h2.34v2.531c.46 0 .885-.003 1.31 0 .415.005.83.016 1.278.026v2.316h2.343v-2.313h2.592v2.368h4.627l.304.303v4.59h4.59c.14.138.24.24.379.38v2.01h2.011l.341.342v2.202h2.34v-2.187c.205-.368.481-.367.777-.365 1.458.01 2.915.004 4.358.004v-2.138h-7.142l-.396-.364v-2.17c-.849-.204-1.727.175-2.57-.3v-2.374h-2.339v-2.301h-2.226c-.138-.14-.24-.24-.38-.38v-2.23c-2.395 0-4.754 0-7.112-.002a.174.174 0 0 1-.093-.032c-.031-.018-.054-.047-.077-.07v-2.262h2.333v-2.226c.153-.15.23-.227.33-.329h2.241v2.531c.45.008.864.02 1.279.023.424.005.85.001 1.312.001v2.316h2.377v-2.302h4.958v-2.264c.114-.115.19-.189.305-.303h2.02v-2.379h-2.276v-4.927c-.413-.011-.79-.025-1.167-.031-.39-.005-.78 0-1.206 0v4.917h-2.593v2.264l-.342.343h-1.94l-.338-.346v-2.219H93.677v-4.956h2.287v-9.538l.33-.329h4.856v2.296h2.346c.084-.717-.013-1.493.05-2.292h2.51v4.895h-4.852v2.377h2.321c0 .887 0 1.737-.015 2.603-.757.015-1.531.015-2.304.015v2.312h2.289c0-.796 0-1.57.015-2.327.768-.015 1.52-.015 2.35-.015.01-.375.026-.756.03-1.135.006-.39.002-.778.002-1.123l.306-.307h2.263v-2.376h2.34v-4.923c-.722-.081-1.497.012-2.3-.047v-2.321h-4.945v-2.56h7.22l.273.273v4.626h2.369zm-4.977 9.923h-2.289v2.312h2.289c0-.796 0-1.57.06-2.375h2.291v-2.31h-2.29c0 .795 0 1.568-.061 2.373zm12.533 9.891v2.289h2.312v-2.289c-.794 0-1.568 0-2.342-.03v-2.044l-.301-.301h-2.279v2.383h-2.37v2.3h-2.228c-.138.14-.24.242-.315.316v7.037c.199.07.451.247.561.182.55-.327 1.161-.113 1.8-.249v-4.712h4.842l.3-.297c-.118-.714.2-1.507-.231-2.234-.823-.05-1.599.028-2.359-.044v-2.338c.86 0 1.72 0 2.61.031zm2.373 2.62v2.01c.114.115.19.192.317.316.687-.207 1.501.264 2.208-.277v-2.03l-.276-.275h-1.992l-.257.255zm-4.949 4.95v2.027h2.518v-2.02c-.101-.104-.178-.179-.273-.275h-1.977c-.078.078-.154.152-.268.269zM96.25 310.019v2.347c.423 0 .81.004 1.199-.002.379-.004.758-.02 1.095-.029v-2.316H96.25zm24.729 17.13h2.296v-2.293h-2.296v2.294zm7.24 7.348v-2.133c-.426 0-.812-.005-1.201.002-.378.004-.756.02-1.091.029v2.102h2.291zM118.396 369.425l.271-.271h16.81l.276.275V386.5h-17.12c-.053-.055-.13-.13-.237-.24v-16.836zm2.583 2.31v12.199c2.915.132 11.323.083 12.187-.063v-12.137H120.98z"/>
            <path fill="#231916" d="M118.402 295.18h17.342v17.075c-.881.167-13.47.226-17.342.075v-17.15zm14.764 14.8v-12.2c-3.136-.136-11.323-.086-12.186.066v12.134h12.186zM43.994 295.45l.265-.265h17.088v17.129H43.994V295.45zm14.786 2.33H46.574c-.14 3.606-.087 11.323.074 12.18H58.78v-12.18zM98.542 297.744h-4.875v4.892h-2.343l-.258-.26v-2.227H88.72c-.011-.412-.026-.79-.03-1.168-.005-.388-.002-.778-.002-1.211.724-.473 1.531-.116 2.366-.297 0-.516-.018-1.079.008-1.64.01-.222.12-.44.181-.653h7.3v2.564zM51.467 381.569v4.95h-7.22a35.703 35.703 0 0 0-.26-.262v-1.99l.292-.292h2.225v-4.916c.41-.012.79-.026 1.168-.032.39-.004.778 0 1.125 0 .116.115.193.19.306.304v1.935l.302.303h2.062zM44.34 317.304h2.176v-2.312h2.58v2.236l-.266.266h-2.264v2.368h-2.562v-2.28l.335-.278M68.905 314.945h2.364V310h-2.364zM133.201 337.094h2.556c.01.409.02.823.024 1.238.005.423 0 .848 0 1.341h-2.58v-2.58zM113.418 300.07v-2.223c.1-.098.203-.197.333-.327.718.078 1.5-.141 2.227.16v2.39h-2.56zM61.36 384.007v2.506h-2.28l-.263-.262v-1.975c.083-.082.157-.16.269-.269h2.273zM133.238 346.986h2.512c.01.373.026.754.03 1.134.006.388.001.777.001 1.124l-.295.296h-1.988l-.26-.26v-2.294zM58.798 342.362l.297-.297h2.264v2.324h2.262c.15.15.225.227.32.32v2.243h-2.207l-.376.378v2.21h-2.263l-.297-.296v-6.882zM76.18 342.04h1.504c.086 1.623.005 3.249.049 4.91h-1.159l-.378.377v2.213H73.85v-1.674c0-.609-.03-1.218.009-1.823.033-.54-.206-1.136.277-1.637h2.043v-2.366zM98.609 356.907h2.526v2.253a16.32 16.32 0 0 1-.272.273h-2.254v-2.526zM103.497 351.96v2.527h-2.253a16.351 16.351 0 0 1-.273-.273v-2.253h2.526zM53.886 342.328l.268-.268H56.4v2.53c-.337.01-.713.024-1.09.03-.387.004-.775 0-1.135 0l-.288-.288v-2.004zM76.216 339.674v-2.58h1.48c.009.407.02.822.024 1.236.005.424.002.85.002 1.344h-1.506zM61.343 371.696h-2.505v-2.279l.262-.263h1.975c.082.083.158.157.268.269v2.273zM123.31 337.094h2.58v2.259l-.322.32h-2.258v-2.58zM123.345 374.1h7.187l.269.269v6.956l-.291.264h-7.165V374.1z"/>
            <path fill="#231916" d="M123.33 307.332v-7.193h7.428c-.008-.007.022.013.042.042.019.027.035.06.035.091l.001 7.054c-.397.19-.757.327-1.194.32-1.716-.03-3.432-.03-5.147 0-.44.007-.797-.131-1.164-.314M56.413 300.107v7.223c-.08.08-.157.155-.304.303h-3.113c-.93 0-1.858-.01-2.787.005-.455.007-.893-.005-1.288-.308v-6.879c.204-.411.544-.344.858-.344h6.634"/>
            <path fill="#FEFEFE" d="M89.857 345.115l-8.453-6.033-.57-5.012 9.025-2.846.084.026 8.969 2.819-.505 5.011-8.55 6.035zm-7.922-6.345l7.924 5.655 8.014-5.655.432-4.302-8.446-2.655-8.414 2.655.49 4.302z"/>
            <path fill="#FEFEFE" d="M89.873 350.522l-5.434-3.883-3.068-7.685 8.5-2.698 5.943 1.775-.161.54-5.777-1.726-7.758 2.461 2.783 6.97 4.973 3.555 5.128-3.617 2.877-7.39.522.204-2.936 7.549z"/>
            <path fill="#FEFEFE" d="M89.592 336.737h.562v-5.199h-.562zM89.592 349.958h.562v-5.189h-.562z"/>
            <path fill="#EA4335" d="M89.872 357.408c-8.571 0-15.52-6.949-15.52-15.522 0-8.571 6.949-15.522 15.52-15.522 8.572 0 15.522 6.95 15.522 15.522 0 8.573-6.95 15.522-15.522 15.522z"/>
            <path fill="#F6F7F7" d="M97.19 340.784l-7.284 4.09a.147.147 0 0 1-.155-.001l-6.09-3.243a.146.146 0 0 1 .032-.263l6.032-1.914a.367.367 0 0 1 .215-.002l4.725 1.575a.261.261 0 0 0 .325-.175l.112-.375a.262.262 0 0 0-.176-.325l-4.368-1.469a.365.365 0 0 1-.26-.35v-3.322c0-.1.097-.172.193-.142l6.95 2.184c.1.032.165.13.155.235l-.334 3.384a.15.15 0 0 1-.071.113zm-6.892 10.06v-5.072c0-.032.016-.062.043-.079l6.088-3.396a.15.15 0 0 1 .22.18l-2.1 5.418a.227.227 0 0 1-.083.105l-4.09 2.886a.05.05 0 0 1-.078-.041zm-.914-15.841v3.345c0 .157-.1.296-.248.346l-6.443 2.158a.149.149 0 0 1-.195-.124l-.401-3.444a.217.217 0 0 1 .15-.233l6.943-2.19a.149.149 0 0 1 .194.142zm-4.131 12.947l-2.216-5.55a.124.124 0 0 1 .183-.15l6.11 3.452a.117.117 0 0 1 .054.099v5.054a.05.05 0 0 1-.079.041l-3.963-2.832a.254.254 0 0 1-.09-.114zm4.711-14.206a.459.459 0 0 0-.274.001l-8.437 2.661a.22.22 0 0 0-.151.232l.508 4.556a.792.792 0 0 0 .009.039l2.892 7.322a.19.19 0 0 0 .065.085l4.961 3.545a.5.5 0 0 0 .58.001l5.116-3.61a.17.17 0 0 0 .06-.076l2.827-7.267a.155.155 0 0 0 .01-.04l.45-4.554a.223.223 0 0 0-.155-.234l-8.46-2.66z"/>
        </g>
    </g>
</svg>
