<svg xmlns="http://www.w3.org/2000/svg" width="100" height="100" viewBox="0 0 100 100">
    <g fill="none" fill-rule="evenodd">
        <path fill="#FEFEFE" d="M0 99.745h99.745V0H0z"/>
        <path fill="#231916" d="M68.397 68.423c0-.236.006-.472 0-.708-.059-2.01.422-1.696-1.795-1.743-.495-.01-.685.155-.667.659.03.855.007 1.712.007 2.568 0 1.818-.001 1.804 1.836 1.703.446-.024.645-.153.625-.619-.025-.619-.006-1.24-.006-1.86zm14.79 11.213c0-1.064-.013-2.128.006-3.19.008-.44-.125-.642-.6-.639-2.068.017-4.136.016-6.204.001-.465-.003-.62.18-.617.63.014 2.068.016 4.136 0 6.204-.005.488.223.59.65.587 2.038-.013 4.077-.018 6.115.003.506.005.673-.178.659-.671-.027-.975-.008-1.95-.01-2.925zM85.7 90.69c-.619-.02-1.239-.065-1.856-.05-.496.013-.654-.169-.67-.669-.05-1.696-.07-1.715-1.813-1.785-.502-.02-.702-.188-.653-.68.02-.206.003-.414.002-.62-.001-1.174-.001-1.18-1.2-1.173-1.443.008-1.25-.144-1.262 1.287-.01 1.173-.003 1.178-1.123 1.174-1.552-.006-1.388.142-1.336-1.387.027-.83-.17-1.131-1.058-1.099-1.58.06-1.453.252-1.4-1.383.027-.845-.198-1.139-1.072-1.088-1.265.072-2.539.01-3.81.006l.02.025c-.023-.203-.061-.405-.066-.607-.036-1.818-.035-1.843 1.782-1.88.568-.011.674-.237.686-.734.014-.573-.16-1.169.128-1.725.586-.012 1.175-.027 1.764-.031.293-.002.48-.053.547-.413.327-1.74.06-2.081-1.667-2.044-.148.004-.295.006-.442.013-.212.009-.337.132-.327.334.036.723-.188 1.466.153 2.168-.384-.015-.768-.036-1.152-.044-1.697-.037-1.41.26-1.495-1.526-.04-.818.26-.994 1.013-.97 1.477.048 1.439.007 1.483-1.512.02-.732-.186-.958-.933-.945-2.157.033-4.316-.019-6.473-.037l-.009-3.19c-.002-1.753 0-1.73-1.785-1.681-.561.015-.682.225-.69.74-.031 1.871-.048 1.856-1.882 1.737-.458-.029-.59-.187-.608-.636-.078-1.853-.094-1.853-1.963-1.825-.176.002-.353.027-.53.041l.022.026c.004-.148.002-.296.01-.443.039-.645-.252-1.423.12-1.902.373-.48 1.163-.162 1.768-.181.484-.015.6-.226.588-.656-.025-.887-.026-1.774-.026-2.662 0-.25-.088-.568.306-.626.77-.112 1.412-.532 2.073-.93.243.388.13.748.135 1.085.02 1.485-.18 1.288 1.34 1.303.976.01 1.953-.017 2.928.01.494.013.723-.158.666-.663-.01-.087-.001-.177 0-.266.012-1.532.012-1.571-1.548-1.526-.74.02-.98-.202-.939-.943.06-1.092.042-2.19.004-3.282-.02-.582.178-.76.758-.768 1.445-.019 2.895.14 4.334-.088-.182.265-.134.567-.139.858-.025 1.693-.023 1.728 1.624 1.7.674-.013.866.205.84.852-.045 1.086.018 2.177-.023 3.263-.024.635.147.918.835.87.487-.034.996-.112 1.482.077.27.788.197 1.583.041 2.38-.503.003-1.01.047-1.507 0-.673-.067-.869.196-.852.853.04 1.595.013 3.193.011 4.79-.001 1.92-.003 1.907 1.894 1.742.418-.036.558-.19.57-.592.02-.585-.255-1.314.137-1.716.396-.406 1.129-.13 1.711-.142.46-.01.596-.163.614-.622.07-1.794.087-1.814-1.704-1.831-.567-.006-.79-.161-.78-.754.01-.58.146-1.18-.115-1.743.652.005 1.302-.006 1.95.02.44.017.618-.124.648-.597.118-1.887.135-1.89-1.76-1.864-.292.004-.583.06-.874.092.354-1.186.113-2.401.156-3.602.062-1.715-.166-1.402 1.47-1.473.73-.031 1.062.105 1.026.949-.065 1.551-.011 1.554 1.529 1.541.088 0 .178-.009.266.001.516.064.66-.186.65-.67a62.425 62.425 0 0 1 .005-3.548c.022-.618-.238-.735-.784-.73-2.396.02-4.79.018-7.186 0-.583-.003-1.177.12-1.752-.088-.262-.626-.093-1.28-.115-1.92-.019-.567.44-.451.771-.453 1.925-.008 3.85-.024 5.773.006.592.01.882-.13.824-.782-.053-.588-.026-1.183-.033-1.775l-.019.024a150.8 150.8 0 0 0 9.973.001l-.022-.022c0 1.419-.022 2.837.009 4.255.011.56-.142.803-.743.773-.825-.043-1.654-.011-2.481-.011-1.88 0-1.862 0-1.75 1.881.028.485.225.589.651.586a362.32 362.32 0 0 1 6.116.003c.509.005.645-.187.663-.673.06-1.716.077-1.736 1.809-1.795.514-.017.658-.202.655-.683-.003-.616-.093-1.24.073-1.85l-.028.028h2.33l-.035-.036c.21.605.087 1.23.096 1.844.007.457.103.679.637.699 1.83.067 1.83.09 1.83 1.956 0 1.565-.016 3.129.01 4.693.009.544-.117.784-.731.79-1.7.014-1.695.044-1.742 1.777-.007.231-.065.461-.098.692-.561-.004-1.125.013-1.685-.02-.5-.03-.681.167-.671.665.022 1.153-.025 2.31.018 3.461.023.626-.192.816-.808.806-1.893-.033-3.787-.017-5.68-.008-.347.001-.72-.09-1.012.193.161-.868.036-1.74.08-2.61 1.357-.015 2.716-.074 4.071-.028.733.025.913-.245.883-.92-.047-1.032.03-2.07-.027-3.1-.04-.724.171-.975.926-.954 1.58.044 1.582.003 1.554-1.606 0-.029-.003-.059 0-.088.064-.56-.141-.789-.744-.764a36.993 36.993 0 0 1-3.366-.002c-.7-.036-.834.24-.826.872.022 1.643-.006 1.643-1.637 1.618-.03 0-.06-.003-.089 0-.58.082-.754-.169-.76-.747-.018-1.81-.041-1.784-1.788-1.743-.58.013-.68.252-.672.749.023 1.418.011 2.836.013 4.254-.59-.014-1.18 0-1.765-.05-.612-.053-.759.232-.725.78.036.586.007 1.178.007 1.767 0 2.378 0 2.354 2.385 2.39.83.013 1.686-.217 2.492.17.16.49.084.997.067 1.491-.017.545.115.795.728.79 2.803-.027 5.606-.027 8.409 0 .606.005.741-.233.734-.78-.025-1.711.003-3.423-.015-5.134-.005-.492.125-1.003-.125-1.477.84.075 1.964-.376 2.444.219.41.51.137 1.583.143 2.407.01 1.33-.019 2.661.013 3.99.013.558-.137.847-.738.767-.146-.019-.296-.004-.444-.002-1.441.02-1.275-.181-1.285 1.265-.008 1.19 0 1.185 1.19 1.192 1.403.01 1.256-.152 1.265 1.299.007.946-.04 1.894.015 2.837.041.688-.224.858-.866.83-1.062-.046-2.13.033-3.19-.028-.732-.042-.94.242-.874.914.052.527.042 1.06.06 1.59l.023-.023-2.446-.04c-.216-1.32-.014-2.65-.11-3.971-.051-.72.156-.985.922-.96 1.581.048 1.582.007 1.555-1.604-.001-.06-.006-.119 0-.178.053-.498-.168-.677-.667-.666a75.686 75.686 0 0 1-3.545-.001c-.534-.013-.73.157-.72.706.03 1.477.01 2.955.01 4.433 0 2.505 0 2.505 2.573 2.22-.219.852-.078 1.714-.083 2.572l.022-.023c-.62 0-1.241.024-1.86-.008-.504-.026-.668.17-.66.666.025 1.447.01 2.894.01 4.341l.023-.022zM10.428 31.41c1.208 0 1.215 0 1.205-1.27-.01-1.273.19-1.176-1.289-1.184-1.165-.007-1.165-.002-1.164 1.223 0 1.232 0 1.232 1.248 1.231zM6.822 43.786c-.621-.003-1.245-.037-1.864 0-.56.032-.701-.204-.7-.727.016-4.471.017-8.943-.002-13.414-.003-.565.22-.686.732-.698 1.679-.036 1.707-.053 1.725-1.716.007-.602.227-.754.784-.738 1.124.032 2.25-.012 3.375.017.559.014.773-.147.779-.75.017-1.817.045-1.797 1.809-1.735.5.017.649.177.664.67.056 1.713.074 1.732 1.817 1.796.508.019.643.194.657.68.051 1.747.069 1.771-1.681 1.77-.606-.001-.895.165-.806.797.016.116 0 .237.001.356.015 1.472-.173 1.306 1.338 1.316 1.136.008 1.13.003 1.139 1.164.012 1.443-.18 1.285 1.261 1.296 1.007.008 2.014-.017 3.02.01.5.013.676-.166.67-.667-.008-.647-.1-1.304.088-1.943l-.022.022c.63.238 1.284.074 1.927.112.341.021.472-.175.463-.497-.005-.207-.002-.414.004-.621.037-1.476-.268-1.314 1.307-1.326 1.157-.01 1.151 0 1.16 1.135.014 1.482-.166 1.302 1.34 1.315.947.008 1.895.021 2.84-.006.514-.014.727.13.742.693.043 1.746.068 1.771-1.674 1.769-.616 0-.811.186-.811.806 0 1.679-.028 1.679-1.67 1.679-3.225 0-6.45.026-9.675-.02-.779-.01-1.022.19-.991.985.06 1.498.012 1.5 1.518 1.5 3.314 0 6.627.017 9.941-.014.677-.007.928.145.909.875-.044 1.627-.004 1.628-1.651 1.628-3.255 0-6.51.02-9.764-.016-.724-.008-.974.176-.952.93.044 1.554.003 1.555-1.519 1.558-.325 0-.65.005-.976.008l.024.022c.01-2.562.01-2.562-2.517-2.484.018-.294.05-.588.053-.882.01-1.596.007-1.63-1.565-1.596-.695.015-.917-.19-.907-.893.025-1.64-.01-1.641-1.655-1.601-.089.002-.178.008-.266.002-.391-.025-.518.188-.512.543.037 2.303-.093 4.608.067 6.91l.026-.02zM6.728 12.879c0 1.833.013 3.667-.009 5.501-.006.53.165.721.712.718 3.638-.019 7.276-.019 10.914 0 .537.002.719-.164.716-.709-.019-3.638-.019-7.276 0-10.914.002-.535-.167-.723-.71-.72-3.637.017-7.276.02-10.913-.003-.628-.004-.724.274-.718.803.02 1.774.008 3.549.008 5.324M12.842 4.3c2.633 0 5.266.016 7.899-.011.612-.007.815.173.812.801-.021 5.237-.022 10.474.001 15.71.003.648-.236.789-.828.787-5.207-.018-10.414-.022-15.621.003-.662.004-.857-.184-.854-.85.025-5.207.026-10.414 0-15.62-.004-.689.232-.84.869-.833 2.573.03 5.148.013 7.722.013M93.05 12.88c0-1.775-.023-3.55.012-5.324.012-.622-.191-.81-.808-.806-3.58.024-7.16.024-10.74.001-.617-.003-.808.192-.803.812.025 3.58.025 7.16 0 10.739-.006.625.187.803.804.799a752.55 752.55 0 0 1 10.738 0c.622.005.822-.188.81-.807-.032-1.804-.011-3.61-.013-5.414M86.934 4.3c2.574 0 5.149.02 7.722-.012.64-.008.872.146.869.833-.028 5.207-.026 10.414-.001 15.621.002.665-.193.853-.855.85-5.207-.025-10.414-.022-15.622-.004-.594.003-.828-.14-.826-.786.024-5.237.024-10.474.001-15.71-.002-.628.202-.809.813-.802 2.633.026 5.267.01 7.9.01M12.903 80.76c-1.804 0-3.61.018-5.413-.011-.571-.009-.777.163-.774.753.021 3.61.02 7.218-.001 10.827-.003.568.165.774.753.77 3.609-.02 7.217-.019 10.826 0 .57.003.77-.168.768-.758-.023-3.609-.027-7.218.003-10.827.006-.668-.264-.773-.837-.765-1.775.028-3.55.01-5.325.01m-.061-2.488c2.633 0 5.266.017 7.9-.011.614-.007.814.178.811.802-.02 5.236-.021 10.473.001 15.71.003.643-.233.788-.826.786-5.207-.018-10.414-.021-15.621.003-.656.003-.86-.177-.856-.845.026-5.208.027-10.415 0-15.623-.002-.682.225-.843.869-.834 2.573.032 5.148.012 7.722.012"/>
        <path fill="#231916" d="M51.014 68.512c1.67-.126 3.34-.122 5.011-.005l-.021-.026c.013.146.034.291.037.437.034 1.87.034 1.893-1.792 1.96-.562.021-.698.25-.68.75.02.555-.021 1.112-.036 1.668-.264.018-.528.048-.793.051-1.593.018-1.63.016-1.61 1.65.008.69-.238.83-.873.832-1.778.003-1.573-.402-1.594 1.67 0 .03.003.059 0 .088-.072.562.209.711.726.692.827-.03 1.655-.008 2.483-.008 1.798 0 1.78 0 1.715 1.833-.018.492-.162.682-.667.664a51.626 51.626 0 0 0-2.66-.006c-1.818.03-1.537-.309-1.613 1.587-.029.714.217.9.907.89 2.157-.034 4.316.001 6.473.01l-.024-.024v2.511l.025-.024c-1.39 0-2.782.029-4.17-.013-.602-.018-.768.204-.756.766.012.585.098 1.182-.079 1.762l.029-.028h-4.819l.028.028c-.021-.649-.061-1.298-.057-1.946.003-.417-.155-.58-.575-.573-.886.018-1.774.022-2.66 0-1.976-.05-1.674.442-1.718-1.82-.01-.495.155-.682.66-.671 1.182.025 2.366-.022 3.547.019.597.02.773-.203.75-.77-.035-.826-.008-1.655-.008-2.483 0-1.67 0-1.693-1.662-1.686-.596.002-.825-.142-.822-.785.01-1.664-.022-1.686-1.646-1.686-.587 0-.882-.132-.823-.784.054-.586.027-1.18.035-1.771l-.024.024c1.439.017 2.878.02 4.316.057.532.014.643-.24.631-.7-.016-.557.016-1.116.027-1.673.904-.177 1.815-.07 2.722-.078 2.366-.019 2.366-.007 2.098-2.423l-.038.034zM68.526 16.677c-2.188-.018-4.377-.07-6.564-.034-.768.012-1.036-.174-.996-.98.086-1.764-.212-1.501 1.499-1.523.916-.012 1.835-.026 2.75.006.527.019.718-.143.73-.696.039-1.777.062-1.776 1.844-1.777.799 0 1.598-.022 2.396.006.49.017.69-.146.68-.655a105.25 105.25 0 0 1-.003-3.639c.006-.454-.16-.666-.622-.622-.088.008-.177 0-.266 0-1.559-.022-1.597-.021-1.556 1.515.02.734-.195.973-.942.953-1.863-.049-3.728-.04-5.591-.003-.665.013-.948-.137-.917-.875.08-1.862-.246-1.565 1.61-1.586 1.658-.018 3.315-.029 4.971.01.64.014.88-.143.867-.834-.031-1.642.006-1.643 1.61-1.642.858 0 1.717.025 2.574-.008.53-.02.738.152.722.704-.032 1.152.016 2.308-.018 3.46-.017.577.176.764.759.77 1.713.02 1.713.045 1.713 1.73 0 3.224-.018 6.45.015 9.674.007.708-.149.99-.922.966-1.546-.05-1.583-.006-1.542-1.559.019-.725-.18-1.06-.934-.94-.145.023-.3.026-.443 0-.934-.176-1.227.251-1.101 1.122.038.26-.008.532.006.798.024.42-.167.542-.578.569-1.877.121-1.895.134-1.872-1.76.013-1.059-.126-2.124.093-3.179.497-.013 1-.075 1.492-.025.712.073.905-.21.882-.892-.065-1.897.202-1.54-1.593-1.58-.147-.004-.294.006-.44.005-.294-.004-.44.149-.427.43.032.698-.132 1.406.114 2.091M19.03 56.019c.011.614.057 1.23.025 1.842-.03.556.203.697.72.691 1.434-.016 2.868.013 4.302.024l-.024-.026c-.015.147-.039.291-.043.438-.043 1.921-.044 1.942 1.827 2.02.526.021.637.237.636.696 0 1.438.027 2.875.044 4.313l.02-.024c-.836.009-1.673.017-2.51.024-.032-.782.223-1.79-.17-2.286-.462-.582-1.52-.164-2.317-.201-.003-.588-.042-1.178-.001-1.762.041-.591-.194-.744-.76-.748-1.716-.012-1.717-.035-1.713 1.719 0 .264.007.529.01.793-1.095-.008-2.19-.02-3.283-.022-1.719-.005-1.69-.002-1.695 1.677-.003.637.217.798.82.796 1.63-.007 1.662.018 1.653 1.673-.003.641.225.8.824.79 1.388-.022 2.778.019 4.168.034l-.023 2.512.021-.023c-.494-.026-.994-.023-1.484-.085-.802-.101-1.071.194-1.03 1.018.083 1.64-.208 1.425 1.464 1.443.35.004.7-.032 1.05-.05l-.02-.027c0 .56-.035 1.124.01 1.682.05.63-.124.911-.822.878-1.149-.053-2.303-.036-3.453-.006-.54.015-.725-.174-.71-.714.03-1.15-.016-2.302.017-3.453.018-.566-.151-.844-.745-.762-.029.004-.059 0-.088 0-1.611-.034-1.633-.034-1.636-1.69-.001-.562-.145-.824-.743-.77-.585.053-1.175.053-1.763.076l.022.022c.002-3.017.025-6.035-.009-9.051-.009-.725.182-.977.936-.954 1.544.046 1.598.007 1.533 1.551-.035.83.272.99 1.014.958 1.703-.075 1.446.216 1.468-1.454.016-1.184.015-2.367.022-3.55l-.025.025 2.486-.013-.025-.024zM38.795 92.989c-1.35.22-2.709.079-4.063.081-.686.002-.922.182-.905.896.036 1.581-.002 1.582-1.578 1.582-1.655 0-3.311-.021-4.966.01-.588.01-.856-.127-.83-.778.046-1.122.033-2.247.003-3.37-.015-.544.116-.784.729-.79 1.737-.02 1.736-.049 1.736-1.78 0-.827.02-1.656-.006-2.482-.016-.488.141-.72.653-.661.204.023.413.003.62.003 1.185-.002 1.19-.002 1.185-1.2-.006-1.457.105-1.302-1.295-1.243-.892.038-1.263-.165-1.178-1.136.092-1.056.035-2.127.013-3.19-.01-.491.162-.657.666-.672 1.765-.053 1.796-.072 1.781 1.665-.005.676.214.858.867.837 1.358-.043 2.718-.005 4.078 0l-.022-.024c.01.837.018 1.674.026 2.512-.617-.004-1.235.01-1.851-.017-.456-.02-.626.156-.62.614.02 1.235.02 2.47.002 3.705-.007.453.161.633.62.622.615-.014 1.232.02 1.849.033.001.587.028 1.176-.003 1.761-.026.494.156.655.652.677 1.852.082 1.852.099 1.833 1.932-.002.147-.013.293-.02.44l.024-.027z"/>
        <path fill="#231916" d="M33.818 63.528c.005-.177.013-.355.015-.532.01-1.844.01-1.86-1.838-1.953-.455-.024-.66-.17-.619-.625.002-.03 0-.06 0-.089-.077-1.75-.077-1.776 1.668-1.771.62.001.808-.184.805-.806-.012-1.681.016-1.681 1.672-1.682.208 0 .415-.003.622.001 1.847.04 1.577-.32 1.642 1.66.022.676-.199.922-.854.828-.454-.065-.602.147-.626.607-.098 1.854-.113 1.867 1.78 1.84.496-.007.908.096 1.318.384.639.45 1.36.67 2.161.656 1.302-.023 2.606.015 3.908-.012.56-.011.857.15.763.752-.085.55.153.758.693.705a4.57 4.57 0 0 1 .887.001c.584.058.918-.108.81-.77-.079-.495.137-.69.644-.686 2.043.017 4.085.021 6.128-.001.561-.006.703.218.683.742-.018.495-.117.755-.695.755-.573 0-1.297-.285-1.69.165-.345.397-.116 1.084-.107 1.64.008.523-.222.65-.696.65-.648 0-1.304-.1-1.94.096.325-.704.113-1.445.149-2.167.011-.237-.12-.345-.366-.4-1.628-.372-2.104-.008-2.073 1.614 0 .06.005.118 0 .177-.049.487.157.674.657.674.548 0 1.11-.124 1.648.088.272.809.173 1.626.047 2.443l.038-.034c-1.605-.049-3.21-.099-4.815.029-.013-.559-.065-1.12-.027-1.674.045-.632-.134-.883-.823-.87-2.205.046-4.41.025-6.616.029l.023.024c-.004-.618-.036-1.237-.008-1.854.022-.5-.167-.668-.663-.661-1.443.022-2.885.005-4.328.003l.023.024zM55.999 21.601c.62-.012 1.243-.053 1.863-.028.516.021.702-.193.645-.68-.007-.058 0-.117 0-.176.02-1.652.02-1.62 1.65-1.645.661-.01.862.183.855.85-.02 1.792.011 1.78 1.876 1.653.408-.028.61-.149.572-.571-.007-.089-.001-.178 0-.267.026-1.693.026-1.66 1.71-1.665.656-.001.799.25.781.838-.035 1.124.02 2.25-.021 3.374-.022.59.183.827.76.752.058-.007.118 0 .177 0 1.518.013 1.551.014 1.521 1.568-.013.685.172.96.89.912.58-.038 1.185-.119 1.753.128l-.016-.012c-.319.487-.144 1.032-.146 1.546-.002.546-.131.807-.744.787-1.18-.04-2.365-.03-3.546 0-.511.012-.645-.18-.658-.671-.044-1.73-.063-1.748-1.739-1.782-.512-.01-.8-.13-.721-.696.004-.029 0-.06 0-.088-.041-1.807-.04-1.791-1.855-1.695-.455.024-.624.167-.616.626.02 1.182-.02 2.365.016 3.546.019.585-.181.777-.76.759-1.182-.035-2.365.006-3.547-.016-.499-.01-.71.17-.658.672.023.234-.032.478.009.707.17.938-.258 1.15-1.124 1.103-1.52-.08-1.356.164-1.349-1.405.003-.631.055-1.13-.88-1.093-1.567.06-1.567-.003-1.584-1.583-.003-.264-.04-.528-.061-.792l-.029.021c2.216-.172 4.435-.045 6.652-.067.563-.005.853-.085.849-.765-.012-1.668.024-1.669-1.676-1.703-.03 0-.06-.003-.088 0-.521.06-.767-.132-.733-.694.036-.589.004-1.182 0-1.774L56 21.6z"/>
        <path fill="#231916" d="M36.305 80.76c-.001-.62-.023-1.243.002-1.864.018-.461-.16-.615-.62-.623-.58-.01-1.307.267-1.707-.145-.396-.407-.128-1.131-.136-1.714-.007-.472-.195-.613-.641-.606-1.154.019-2.31-.02-3.464.016-.591.02-.85-.13-.83-.78.065-2.042-.245-1.657 1.683-1.694a54.111 54.111 0 0 1 2.575.003c.489.014.688-.15.676-.66a91.354 91.354 0 0 1 0-3.642c.007-.466-.18-.596-.627-.62-1.842-.1-1.842-.114-1.841-1.968 0-.8.012-1.599-.001-2.398-.007-.414.16-.59.58-.57.62.027 1.243.023 1.864.033l-.023-.024c.017.589.068 1.18.04 1.766-.026.546.181.714.716.709 1.414-.015 2.829.02 4.243.037l-.023-.024c.007.235.019.47.02.706.006 1.695.005 1.723 1.699 1.723.626 0 .808.209.79.814-.04 1.353-.018 2.707-.022 4.06l.024-.025c-.521.158-1.06.019-1.583.086-.748.096-.948-.21-.94-.94.021-1.67.363-1.509-1.556-1.523-.088 0-.178.007-.266 0-.444-.032-.637.149-.63.616.021 1.24.017 2.482.003 3.724-.005.415.152.566.57.581.608.024 1.4-.286 1.779.168.386.464.09 1.25.13 1.895.01.147.002.295.002.443 0 2.52 0 2.52-2.508 2.417l.022.024zM51.052 26.558c-1.323-.02-2.647-.074-3.969-.041-.687.017-.915-.185-.9-.892.034-1.581-.003-1.582-1.573-1.582-.913 0-1.826-.015-2.737.005-.454.011-.642-.16-.62-.618.03-.617.022-1.235.03-1.853l-.024.022c.62-.011 1.243-.045 1.863-.026.464.014.63-.166.616-.624-.017-.62.02-1.24.032-1.861l-.023.023c.854-.024 1.707-.048 2.56-.07-.2.544-.037 1.11-.107 1.66-.092.715.212.908.895.877 1.786-.079 1.542.298 1.566-1.61.002-.119-.006-.236-.001-.353.016-.372-.156-.521-.53-.517-.615.007-1.232-.018-1.849-.03-.171-.605-.067-1.223-.072-1.833-.005-.45-.16-.632-.618-.617-.614.02-1.23-.01-1.844-.019l.025.024c-.185-2.485-.185-2.485 2.241-2.485.68 0 1.36.02 2.037-.005.469-.018.648.181.609.627-.005.058-.001.117 0 .177.04 1.813.04 1.802 1.86 1.682.396-.026.622-.126.594-.556-.005-.088 0-.177.003-.266.038-1.795.155-1.882 1.964-1.665.388.047.503.211.496.561-.025 1.473-.043 2.946-.064 4.42l.027-.026c-.355.004-.709.008-1.063.015-1.506.028-1.333-.243-1.366 1.372-.042 2.035.118 4.072-.087 6.104l.029-.02zM68.45 83.223c-.016 3.728-.024 7.455-.059 11.183-.003.375.25.977-.271 1.083-.65.131-1.35.036-2.026-.016-.177-.014-.155-.292-.158-.467-.005-.385-.034-.773.004-1.153.057-.576-.156-.77-.743-.778-1.737-.027-1.751-.05-1.73-1.792.011-1.002-.093-2.008.064-3.01.237-.171.51-.095.77-.102 1.864-.052 1.59.361 1.642-1.72.014-.581-.178-.768-.758-.75-2.08.066-1.664-.285-1.708 1.723-.006.29.048.582.074.874-.849-.248-1.713-.085-2.572-.097l.023.024c-.005-1.414-.035-2.828-.007-4.242.012-.573-.166-.771-.75-.758-1.413.032-2.828.004-4.242 0l.024.023c.002-.53.053-1.068-.005-1.593-.084-.77.247-.944.958-.923 1.563.048 3.13.015 4.694.015 1.752 0 1.777 0 1.786 1.733.004.58.176.768.757.755 1.417-.028 2.834.005 4.252.013l-.02-.025zM65.933 36.364c0-1.391.018-2.782-.009-4.173-.01-.544.11-.808.73-.79 2.123.06 1.715-.245 1.743 1.722.023 1.628.027 3.257-.006 4.885-.012.601.155.824.792.822 1.67-.003 1.67.026 1.672 1.674 0 .858-.023 1.717.006 2.575.02.538-.175.725-.718.708-1.154-.034-2.31.019-3.463-.021-.593-.02-.763.195-.748.766.056 2.062-.243 1.662 1.67 1.702.887.018 1.776.015 2.664-.002.405-.008.56.137.597.557.17 1.908.184 1.907-1.73 1.907-1.657 0-3.315-.016-4.972.008-.537.007-.727-.172-.71-.718.034-1.153-.005-2.309.016-3.463.008-.485-.064-.836-.664-.74-.726.114-.822-.288-.807-.889.049-1.921-.2-1.58 1.596-1.595 2.34-.02 2.34-.005 2.34-2.36v-2.575M90.653 43.786c-.018 1.448-.029 2.897-.057 4.345-.008.422.177.597.585.566.059-.004.118 0 .178.001 1.669.052 1.704.052 1.677-1.59-.012-.71.223-.91.91-.884 1.838.068 1.542-.229 1.56 1.54.017 1.717-.014 3.433.014 5.149.008.546-.18.747-.717.705-.617-.048-1.237-.052-1.856-.076l.034.036c.024-.41.064-.818.067-1.227.011-1.2.005-1.2-1.177-1.201-1.274-.002-1.278-.002-1.27 1.285.002.38.032.762.05 1.142l.029-.028c-.234.021-.467.058-.701.062-1.775.029-1.796.027-1.834-1.756-.012-.537-.18-.725-.715-.716-.583.01-1.176.1-1.753-.075l.022.023c-.012-.177-.031-.353-.033-.53-.024-1.79-.023-1.816-1.762-1.847-.607-.01-.727-.246-.728-.792-.005-1.663-.026-1.691 1.59-1.668.664.01.99-.137.91-.877-.055-.523.012-1.06.023-1.589l-.023.023 5.003.002-.026-.023zM90.66 36.345c.756-.07 1.738.323 2.216-.17.51-.527.15-1.518.167-2.304.03-1.385-.013-2.773.02-4.158.014-.577-.179-.83-.757-.759-.058.008-.119 0-.177 0-1.826.02-1.535-.163-1.512 1.474.012.757-.171 1.126-.975.988-.115-.019-.236-.002-.354-.002-1.154-.002-1.16-.002-1.154-1.132.007-1.238.028-2.475.044-3.713l-.02.02c.58-.182 1.175-.074 1.76-.077.482-.003.668-.15.69-.659.084-1.818.102-1.817 1.97-1.817.77 0 1.538.018 2.306-.006.45-.014.632.136.63.607-.01 5.35-.009 10.7 0 16.051 0 .449-.147.644-.615.623-.649-.03-1.3-.012-1.95-.015l.03.023c.331-2.49.331-2.49-2.063-2.49l-.263.001c-.074-.838-.122-1.675.025-2.51l-.018.025zM38.796 33.852c-.005-.118-.02-.237-.014-.355.032-.646-.254-1.434.116-1.902.369-.467 1.17-.158 1.778-.174.488-.013.592-.233.586-.66-.017-1.183.017-2.366-.014-3.548-.015-.535.157-.731.703-.72 2.21.047 1.738-.219 1.786 1.672.02.768.048 1.54-.009 2.305-.053.721.165.98.924.96 1.86-.053 3.725.013 5.587-.033.717-.019.9.233.888.914-.029 1.57.003 1.57-1.533 1.57-.887 0-1.774.022-2.66-.008-.515-.017-.727.126-.741.689-.047 1.807-.071 1.807-1.914 1.788-.176-.002-.353-.02-.53-.031l.021.024c-.013-.59-.059-1.18-.03-1.767.03-.554-.197-.71-.723-.705-1.415.012-2.83-.023-4.246-.04l.025.02z"/>
        <path fill="#231916" d="M56.069 92.94c-.59.289-1.217.124-1.825.134-.48.008-.734.137-.668.655.011.087.002.176.002.265-.011 1.565-.012 1.527-1.534 1.57-.735.022-.967-.198-.945-.94.044-1.522.005-1.55 1.562-1.522.65.011.954-.111.924-.861-.075-1.909.219-1.57-1.588-1.602-.323-.006-.647.035-.97.054l.02.016a9.856 9.856 0 0 0 .005-2.51l-.029.027c1.437-.019 2.873-.058 4.31-.048.53.003.744-.163.709-.706-.037-.585-.012-1.174-.014-1.76l-.025.025c.146-.012.293-.039.439-.033.643.027 1.422-.251 1.891.114.469.364.16 1.158.173 1.76.012.483.223.598.65.595.615-.005 1.23.032 1.847.051l-.024-.023c.073 2.433.073 2.433-2.315 2.433h-.354c-2.283 0-2.283 0-2.261 2.33l.02-.025zM31.22 14.03c.311.71.109 1.456.142 2.184.02.451-.334.383-.625.413-.575.06-1.293-.267-1.692.165-.36.389-.13 1.08-.116 1.634.015.57-.231.679-.741.686-1.667.023-1.688.04-1.71 1.716-.007.562-.16.78-.76.762-2.079-.063-1.694.24-1.712-1.653-.025-2.454.014-4.908-.02-7.36-.009-.671.15-1.023.878-.905.057.01.117 0 .177.001 1.614.02 1.458-.19 1.404 1.408-.029.86.228 1.147 1.084 1.07 1.23-.108 2.476.102 3.707-.105l-.016-.016z"/>
        <path fill="#231916" d="M51.027 90.693c.028.173.076.346.082.52.058 1.788.057 1.808-1.746 1.864-.537.016-.774.185-.703.724.004.03 0 .06 0 .09-.037 1.705-.037 1.68-1.708 1.67-.572-.005-.759-.172-.765-.757-.02-1.896-.044-1.881-1.905-1.726-.431.036-.578.202-.54.599.002.03 0 .059-.001.088-.075 1.783-.075 1.783-1.85 1.782-.8 0-1.6-.023-2.397.008-.526.02-.76-.146-.723-.703.041-.619.019-1.242.025-1.863l-.025.026c.788.159 1.584.066 2.376.065.82-.001 1.889.35 2.396-.141.553-.536.171-1.622.18-2.465.025-2.517.008-2.517 2.538-2.247l-.028-.028c-.009.557.015 1.116-.036 1.667-.06.648.236.778.819.78 1.344.005 2.69-.105 4.032.063l-.021-.016zM9.028 68.57a3.664 3.664 0 0 0-2.14.001l.01.011c-.319-.615-.142-1.277-.16-1.917-.015-.458-.108-.68-.641-.7-1.832-.071-1.831-.094-1.831-1.96 0-1.565.018-3.13-.01-4.695-.009-.554.129-.801.738-.78 1.18.042 2.363.025 3.544.007.437-.007.648.117.646.595-.014 2.953-.006 5.907-.017 8.861 0 .197-.098.395-.15.592l.011-.015zM26.52 48.782c1.888-.188 3.78-.045 5.67-.08 1.153-.022 2.308.014 3.462-.01.494-.01.657.16.673.664.057 1.756.076 1.79-1.667 1.778-.691-.005-.839.244-.83.88.023 1.66-.312 1.897-2.01 1.603-.281-.049-.43-.153-.436-.44-.002-.118-.007-.237-.01-.355-.041-1.763-.04-1.736-1.783-1.687-.58.016-.67.26-.679.756-.032 1.724-.048 1.724-1.812 1.722-.828 0-1.657-.017-2.485.007-.461.012-.644-.158-.617-.62.038-.649.042-1.3.06-1.95l-.031.039c.614.02 1.228.03 1.842.063.467.025.606-.202.603-.638-.005-.583.041-1.168.065-1.751l-.015.02zM31.236 14.047c.296-.526.115-1.095.125-1.64.008-.507.128-.748.695-.75.571-.004 1.33.297 1.67-.185.268-.384.118-1.082.103-1.64-.012-.462.17-.629.622-.623.618.008 1.236-.032 1.855-.051l-.023-.025c.01.264.028.527.03.79.01 1.87.009 1.856 1.85 1.758.439-.023.638-.144.622-.61-.023-.645.004-1.291.01-1.937l-.024.024c.618.02 1.236.055 1.854.052.419-.001.66.094.65.59a142.514 142.514 0 0 0-.005 3.806c.002.36-.112.546-.504.544-3.097-.015-6.194-.02-9.291-.033-.084 0-.167-.054-.253-.085l.014.015M75.745 51.061c-.028.011-.054.03-.082.033-2.352.3-2.352.3-2.352-2.003 0-.707.02-1.415-.007-2.12-.018-.501.11-.733.681-.749 1.799-.049 1.799-.073 1.783-1.906-.001-.176-.013-.353-.02-.53l-.026.022h5.002l-.024-.024c.007 1.382-.015 2.765.036 4.145.023.65-.238.797-.824.778-1.116-.035-2.236.021-3.352-.021-.632-.024-.831.212-.793.816.032.525-.024 1.055-.041 1.583l.019-.024zM90.653 83.248c.118-.008.235-.02.353-.022 1.927-.03 1.947-.03 2.035 1.84.023.512.212.633.69.645 1.78.046 1.779.062 1.779 1.827 0 .825-.017 1.652.006 2.477.012.459-.166.659-.62.618-.058-.005-.118 0-.177.001-1.647.041-1.684.04-1.648-1.596.017-.73-.252-.89-.923-.876-1.534.03-1.573 0-1.533 1.552.02.742-.213 1.003-.948.932-.494-.048-1 .024-1.5.043l.023.027a44.252 44.252 0 0 1-.002-5.003l-.024.023c.528-.012 1.059-.068 1.582-.025.642.053.91-.143.865-.825-.036-.549-.094-1.113.065-1.66l-.023.022zM29.014 4.303c1.389 0 2.777.013 4.165-.008.487-.008.682.144.671.655-.045 2.228.265 1.76-1.727 1.809-.827.02-1.655.026-2.481-.004-.521-.019-.721.143-.736.697-.049 1.764-.071 1.764-1.837 1.763-.798 0-1.595-.017-2.392.006-.473.014-.699-.117-.686-.644a75.75 75.75 0 0 0 0-3.632c-.011-.519.202-.656.682-.65 1.447.02 2.894.008 4.341.008M75.747 41.32c.007-.148.01-.295.022-.442.05-.64-.26-1.422.14-1.887.388-.452 1.169-.152 1.773-.164.516-.01.56-.283.555-.68-.01-1.15.036-2.302-.016-3.449-.031-.684.228-.917.866-.827.03.004.06 0 .089 0 1.536-.014 1.574-.013 1.53 1.54-.02.726.177.968.928.946 1.565-.048 1.567-.006 1.566 1.59 0 .295-.008.59-.013.884l.025-.023c-.782.083-1.786-.308-2.294.16-.561.516-.092 1.552-.218 2.352l.023-.025-5 .001.024.024zM63.472 35.115c0 1.005-.024 2.01.009 3.015.018.55-.194.699-.722.71-1.744.036-1.78.056-1.758-1.68.01-.7-.248-.832-.878-.823-1.616.022-1.617-.006-1.617-1.638 0-.887.016-1.774-.005-2.66-.011-.45.148-.64.612-.634 1.241.018 2.483.023 3.724-.001.524-.01.654.22.642.695-.023 1.005-.007 2.01-.007 3.016M14.07 51.051c.015.617.063 1.235.035 1.85-.024.535.167.706.705.719 1.785.043 1.785.064 1.776 1.82 0 .206-.011.412-.017.617l.024-.025c-1.442.015-2.885.017-4.327.056-.531.015-.624-.235-.64-.696-.054-1.73-.068-1.724-1.83-1.785-.26-.009-.518-.084-.776-.13l.017.016c.285-1.57.125-3.149.087-4.725l-.03.02c.607-.17 1.229-.04 1.84-.092.523-.046.709.144.721.69.04 1.796.062 1.797 1.835 1.762.204-.004.407-.04.61-.06l-.03-.037zM77.042 95.547c-1.005 0-2.01-.023-3.014.01-.535.016-.782-.163-.718-.708.004-.029.002-.059 0-.088-.044-1.622-.044-1.646-1.693-1.66-.567-.005-.78-.166-.766-.755.044-2.099-.201-1.666 1.66-1.709.856-.02 1.714.011 2.57-.008.457-.01.685.09.708.628.077 1.833.1 1.833 1.971 1.834.799 0 1.597.011 2.395-.003.409-.007.55.147.577.568.126 1.893.14 1.892-1.74 1.891h-1.95zM26.517 66.017c2.403-.205 2.402-.205 2.399 2.136-.001.68-.027 1.361.01 2.039.03.556-.205.756-.727.7-.058-.006-.118 0-.177 0-1.542.024-1.585.025-1.54 1.544.021.763-.246.97-.963.924-1.324-.085-2.655.087-3.978-.092l.02.027v-2.326l-.021.023c.054-.023.105-.057.161-.067.738-.135 1.753.322 2.161-.234.371-.506.137-1.457.169-2.211.61-.015 1.22-.053 1.828-.04.458.01.614-.182.611-.623-.004-.608.043-1.216.068-1.823l-.021.023zM33.819 36.342c.005-.59.038-1.182.007-1.77-.028-.546.19-.716.722-.708 1.416.02 2.832-.005 4.248-.012l-.025-.02c.007.617.04 1.236.012 1.853-.021.498.163.67.66.662 1.443-.022 2.885-.005 4.327-.004l-.02-.024c-.055 1.62.283 1.511-1.529 1.478-1.12-.021-2.12.198-3.093.802-.863.536-1.893.146-2.846.208l.025.025c-.055-.783.316-1.776-.153-2.297-.485-.538-1.499-.093-2.273-.204l-.087-.012.025.023zM36.307 19.111c-.024-2.5-.024-2.501 2.433-2.5 1.678.002 3.355.008 5.032.012l-.025-.024v2.512l.023-.023c-.786.03-1.809-.232-2.299.165-.578.468-.111 1.542-.212 2.346l.025-.022-2.513-.002.024.024c-.07-.785.31-1.79-.156-2.3-.517-.567-1.554-.103-2.356-.211l.024.023z"/>
        <path fill="#231916" d="M38.771 21.575c.007.147.017.294.019.441.018 1.903.019 1.917-1.857 2.019-.442.024-.667.146-.621.614.017.175.004.354.002.531-.02 1.447.205 1.312-1.322 1.322-1.157.007-1.158 0-1.159-1.137 0-1.858.017-3.715-.006-5.573-.007-.537.172-.746.712-.71.588.039 1.179.022 1.768.03l-.024-.024c.11.775-.303 1.771.17 2.282.52.56 1.548.083 2.342.229l-.024-.024zM26.601 46.357c-.259.8-.12 1.615-.08 2.425l.014-.019c-2.585-.305-2.585-.305-2.517 2.238 0 .03.004.058.007.088l.031-.038c-1.52.213-3.05.054-4.574.09-.359.007-.436-.218-.43-.521.012-.617.016-1.235.024-1.852l-.024.016c.054-.02.107-.052.164-.06.745-.12 1.765.327 2.176-.228.375-.505.137-1.465.17-2.224l-.022.025c1.694-.057 3.39-.186 5.08.075l-.019-.015zM9.107 70.982c.024.585.071 1.17.066 1.754-.003.455.176.658.628.61.575-.062 1.17.146 1.727-.137l-.016-.019c.25.721.09 1.465.122 2.198.016.371-.233.425-.528.425-2.098-.003-4.196-.005-6.294.002-.36 0-.51-.12-.553-.505-.205-1.827-.138-1.945 1.676-1.947.624 0 .803-.205.806-.814.003-1.684.03-1.687 1.69-1.648.231.005.461.063.691.097l-.015-.016M83.187 38.831h2.514l-.026-.023.001 4.999.023-.023H80.7l.023.023v-2.512l-.023.024c.78-.1 1.78.308 2.29-.163.564-.519.091-1.55.221-2.348l-.024.023z"/>
        <path fill="#231916" d="M85.7 38.832c-.033-1.684-.116-3.367.045-5.048 0 .002-.03.029-.03.029 1.344.02 2.688.074 4.03.045.639-.013.914.149.864.827-.04.55.03 1.106.05 1.66l.019-.026c-.791.033-1.819-.226-2.312.174-.58.469-.2 1.533-.172 2.342l-2.519-.027.026.024zM88.178 26.57c-2.154-.155-4.312-.07-6.466-.046-.837.01-1.051-.253-1.02-1.05.06-1.436.015-1.438 1.49-1.437 1.715 0 3.43.02 5.144-.012.599-.01.867.153.824.791-.04.588.003 1.182.008 1.773l.02-.02M48.82 6.932c-.298-.71-.11-1.453-.15-2.18-.019-.351.19-.449.5-.448 2.12.003 4.238.004 6.357-.003.377-.001.538.156.516.528-.041.703.1 1.413-.108 2.106l.018-.02c-.245-.24-.556-.147-.838-.148-1.823-.01-3.646-.01-5.468 0-.28.002-.594-.102-.834.154a.172.172 0 0 0 .007.011M19.076 48.768c-.174-.024-.347-.064-.52-.069-1.864-.05-1.878-.05-1.96 1.82-.019.438-.128.667-.6.629-.64-.051-1.292.109-1.925-.097l.03.037-.001-4.817-.03.03a40.394 40.394 0 0 1 5.006-.003l-.026-.026.002 2.512.024-.016z"/>
        <path fill="#231916" d="M55.935 6.935c.705-.345 1.451-.115 2.178-.156.376-.021.405.256.405.543-.003 1.271-.012 2.543.004 3.814.006.444-.204.55-.599.546a153.607 153.607 0 0 0-3.724.003c-.449.006-.672-.15-.629-.614.006-.058.001-.118 0-.177-.04-1.657-.039-1.695 1.6-1.662.725.015.955-.24.868-.917-.059-.465.079-.943-.083-1.402l-.02.022M73.145 31.251c.305.618.154 1.28.156 1.919.001.532.173.77.716.706.175-.021.354-.004.531-.004 1.228 0 1.233 0 1.227 1.242-.006 1.403.122 1.224-1.225 1.235-1.003.008-2.007-.016-3.009.009-.48.012-.697-.132-.687-.646.024-1.21.03-2.42-.002-3.63-.015-.576.255-.675.752-.683.515-.008 1.056.165 1.55-.134l-.009-.014M56.049 92.964c1.31.273 2.637.127 3.952.1.839-.018 1.048.26 1.01 1.051-.08 1.647.218 1.412-1.488 1.43-.943.01-1.887-.016-2.83.009-.497.014-.693-.167-.665-.667.037-.647.027-1.296.04-1.946 0-.002-.019.023-.019.023M36.282 38.807c.01 1.44.006 2.881.04 4.32.011.507-.182.667-.67.657-2.22-.05-1.767.267-1.814-1.713-.027-1.087-.014-2.176-.02-3.263l-.023.023h2.512l-.025-.024zM28.924 21.451c0-.59.02-1.182-.007-1.77-.022-.472.174-.607.625-.598 2.263.045 1.78-.27 1.831 1.698.022.856-.011 1.712.009 2.568.01.462-.106.682-.635.707-1.827.084-1.826.106-1.826-1.72v-.885h.003zM83.28 31.264c-1.546.331-3.11.074-4.664.135-.25.01-.368-.148-.375-.393 0-.059 0-.118-.006-.177-.152-1.869-.152-1.87 1.731-1.87.857 0 1.714.018 2.57-.007.486-.014.697.142.674.657-.023.557.031 1.117.051 1.676l.018-.021zM24.077 58.576c-.35-2.505-.35-2.505 2.102-2.505.68 0 1.362.027 2.04-.009.557-.03.696.207.709.729.043 1.764.06 1.764-1.683 1.763-1.064 0-2.129-.003-3.193-.004l.025.026M93.04 95.547h-.708c-1.9.001-1.888.002-1.743-1.884.032-.412.17-.577.58-.573 1.267.01 2.536.007 3.805 0 .359-.001.564.127.533.515-.003.03 0 .06.001.089.131 1.853.131 1.853-1.672 1.853h-.796zM9.124 48.768c-.616-.024-1.23-.06-1.846-.07-.353-.006-.56-.119-.547-.509.05-1.467-.12-2.939.091-4.403l-.026.02 2.317-.024c.097 1.67.128 3.337-.018 5.006l.03-.02zM63.994 53.614c-.236.001-.472.002-.708.001-1.451-.005-1.266.128-1.278-1.273-.01-1.192-.002-1.192 1.191-1.191.708 0 1.417.016 2.124-.004.447-.012.606.151.63.614.096 1.85.113 1.85-1.959 1.853M19.076 46.298c-.008-.616 0-1.233-.03-1.848-.022-.467.109-.672.63-.695 1.868-.082 1.867-.103 1.865 1.749l-.001.793.022-.025H19.05l.026.026zM26.59 85.78c-.255.536-.104 1.104-.112 1.655-.007.497-.11.739-.687.755-1.809.053-2.061-.217-1.796-2.029.049-.333.18-.475.502-.458.705.037 1.418-.1 2.115.099l-.022-.021zM53.513 19.112c.057-.006.116-.018.173-.016 2.827.095 2.354-.683 2.313 2.506l.029-.027c-.56 0-1.125-.035-1.68.013-.647.055-.824-.227-.788-.823.034-.557-.01-1.118-.021-1.678l-.026.025z"/>
        <path fill="#231916" d="M83.261 31.285c.472.25.985.141 1.467.11.71-.044 1.04.153.96.922-.053.493.013.999.026 1.497.002 0 .03-.028.032-.03-.026.01-.053.028-.081.032-2.441.352-2.793-.023-2.388-2.55l-.016.02M53.478 36.288c.194-.606.065-1.23.087-1.845.016-.409.168-.607.585-.57.059.006.119.002.178 0 1.732-.05 2.069.37 1.716 2.084-.062.3-.205.4-.474.388-.706-.029-1.417.095-2.117-.082l.025.025zM46.22 9.112c-.005.617-.036 1.236-.007 1.852.024.523-.15.742-.7.721-2.112-.078-1.737.412-1.785-1.912-.009-.435.189-.551.583-.562.643-.02 1.293.093 1.93-.078l-.021-.02M46.241 6.857c-.635-.193-1.286-.07-1.929-.09-.396-.012-.623-.124-.58-.559.01-.088.001-.177 0-.265-.025-1.68.357-1.975 2.053-1.643.352.069.416.258.418.548.004.677.011 1.354.017 2.031l.021-.022zM19.055 56.043l-.003-.798c-.002-1.657.433-1.994 2.083-1.632.23.05.393.126.395.383.004.562.007 1.123.002 1.685-.002.378-.274.404-.555.397-.649-.017-1.297-.038-1.946-.059l.024.024M14.074 43.784l-.004 2.517.03-.03c-.616-.01-1.232-.039-1.847-.024-.452.01-.63-.167-.623-.621.01-.614-.029-1.229-.047-1.843l2.515.024-.024-.023zM9.017 68.585c.866-.258 1.738-.186 2.613-.055l-.022-.021c.047.735.295 1.62-.078 2.16-.383.555-1.31.136-1.992.23-.145.019-.287.054-.431.082l.015.017c.042-.813.193-1.63-.092-2.429l-.013.016M19.052 25.23c.001-1.196.001-1.202 1.257-1.193 1.421.01 1.218-.145 1.23 1.398.009 1.068 0 1.07-1.3 1.067-1.39-.004-1.17.054-1.187-1.273M75.748 43.787c-.498-.004-.999-.049-1.49 0-.703.07-.988-.139-.962-.902.065-1.92-.174-1.551 1.575-1.59.292-.006.584.016.876.025l-.024-.024c.086.837.088 1.675 0 2.513l.025-.022zM21.628 31.27c-.715.285-1.458.094-2.188.13-.249.011-.377-.134-.38-.384-.003-.207-.006-.415-.007-.622-.006-1.438-.003-1.38 1.386-1.457.904-.05 1.24.222 1.115 1.127-.056.401.027.821.05 1.23l.024-.024M75.653 28.773c.038.142.093.283.109.428.227 2.194-.412 2.695-2.615 2.052l.007.012c.278-.234.145-.552.15-.829.024-1.462.017-1.457 1.532-1.484.281-.005.596.102.833-.16l-.016-.02zM28.8 43.777c.25-.628.088-1.284.115-1.926.017-.413.154-.606.575-.558.058.007.118 0 .177 0 2.021.05 1.653-.343 1.718 1.73.019.574-.163.807-.754.763-.617-.047-1.24-.027-1.858-.034.002 0 .027.025.027.025M25.201 75.805c1.266.001 1.268.001 1.265 1.302-.004 1.394.048 1.17-1.296 1.172-1.342.002-1.157.15-1.168-1.38-.008-1.094 0-1.094 1.2-1.094M6.888 68.571c-.331.543-.127 1.14-.15 1.71-.017.447-.146.669-.615.611-.058-.007-.118-.001-.176 0-1.75.033-1.983-.257-1.682-2.026.049-.289.154-.437.44-.421.73.038 1.475-.148 2.191.137a.1.1 0 0 0-.008-.011M33.818 38.808c-.586.006-1.173-.005-1.758.025-.47.025-.67-.118-.696-.632-.096-1.864-.115-1.863 1.751-1.862.235 0 .47.002.703.003l-.024-.023c.08.837.08 1.675.001 2.512l.023-.023zM34.893 31.416c-.489.03-1.178.162-1.084-1.013.128-1.592-.175-1.435 1.223-1.442 1.503-.009 1.274-.076 1.277 1.178.004 1.39.174 1.26-1.416 1.277M26.612 85.802c-.296-.707-.095-1.447-.136-2.17-.013-.24.106-.396.363-.398.557-.005 1.115-.003 1.673-.002.242 0 .39.108.391.365.005.587.012 1.174.006 1.761-.004.403-.313.344-.572.353-.583.021-1.167.043-1.75.067l.025.024M36.306 9.158c-.002-.235-.004-.47-.004-.704-.003-1.83.122-1.926 1.995-1.696.377.047.507.196.496.554-.019.616-.016 1.23-.022 1.846l.024-.023a8.049 8.049 0 0 1-2.512-.002l.023.025zM88.168 90.689c-.011.62-.033 1.243-.03 1.864.001.374-.16.548-.532.53-.03 0-.06.004-.089.003-2.174-.086-1.868.543-1.817-2.396l-.023.022a8.273 8.273 0 0 1 2.513.004l-.022-.027z"/>
        <path fill="#231916" d="M46.22 6.879c.87-.168 1.737-.23 2.6.052l-.007-.01c-.251.718-.229 1.434-.002 2.152l.014-.011c-.864.258-1.733.2-2.605.05l.021.02V6.858l-.02.022M9.02 53.478c.312.71.106 1.457.148 2.186.014.236-.09.405-.355.407-.561.005-1.123.003-1.685.002-.248 0-.385-.128-.387-.377a76.434 76.434 0 0 1 0-1.684c.005-.37.272-.383.555-.406.581-.048 1.177.132 1.743-.111a1.242 1.242 0 0 0-.02-.017"/>
        <path fill="#231916" d="M48.81 9.073c.525.305 1.095.115 1.64.129.497.012.718.18.663.676-.003.03 0 .06 0 .09.057 1.767-.216 1.994-2.003 1.714-.283-.045-.454-.134-.437-.429.042-.73-.162-1.477.15-2.19l-.012.01M26.619 46.372c-.304-.732-.113-1.496-.134-2.244-.012-.378.306-.358.569-.358.583 0 1.166.005 1.747.007a1.365 1.365 0 0 0-.028-.025c.286.68.106 1.392.127 2.09.01.368-.279.377-.559.402-.58.049-1.176-.13-1.742.11l.02.018M11.528 73.209c.23-.565.084-1.155.1-1.733.013-.4.13-.614.557-.58.117.01.235-.002.352 0 1.88.034 1.503-.259 1.59 1.573.032.691-.182.978-.884.885-.573-.077-1.173.132-1.73-.162 0-.002.015.017.015.017M92.949 41.296c.203.657.06 1.33.095 1.995.02.386-.207.493-.555.487-.612-.008-1.224.004-1.837.008l.027.023c-.148-.836-.098-1.674-.026-2.512l2.326.022-.03-.023zM71.031 26.644c-.336-.706-.117-1.453-.159-2.181-.017-.293.144-.43.435-.423.117.003.236-.002.354-.005 1.682-.033 1.999.377 1.651 2.06-.074.36-.28.383-.561.41-.58.053-1.176-.14-1.737.124a.72.72 0 0 0 .017.015M30.17 28.954c-1.348-.015-1.242.18-1.248-1.107-.006-1.345-.002-1.345 1.113-1.346 1.34-.001 1.349-.001 1.34 1.115-.013 1.478.178 1.32-1.205 1.338M75.67 28.792c.215-.571.064-1.165.093-1.747.019-.36.137-.557.519-.542.147.006.294-.005.442-.002 1.788.034 1.463-.25 1.534 1.56.026.673-.147 1.002-.871.897-.574-.084-1.181.15-1.732-.184l.014.018M53.453 36.263c.175.268.099.572.125.862.043.475-.122.728-.643.686a6.014 6.014 0 0 0-.974.001c-.563.047-.862-.083-.866-.756-.005-.706.35-.747.886-.725.499.021 1-.023 1.5-.04a8.38 8.38 0 0 1-.028-.028M56.001 75.758c.117.015.234.044.35.042.647-.008 1.414.189 1.908-.093.597-.34.195-1.18.23-1.796.032-.594.382-.552.773-.564 1.41-.044 2.823.096 4.23-.078l.03 2.46.022-.027c-.602.223-1.227.105-1.84.098-.53-.007-.71.16-.72.707-.037 1.776-.06 1.776-1.824 1.776-.796.001-1.593-.031-2.388.011-.595.031-.777-.203-.747-.77.031-.586-.012-1.177-.024-1.766"/>
        <path fill="#231916" d="M53.513 73.268c.603.161 1.219.078 1.826.07.517-.007.75.15.713.699-.041.58-.019 1.165-.024 1.748-.8-.03-1.855.398-2.322-.212-.395-.516-.153-1.518-.193-2.305M63.521 75.728c.61.167 1.232.056 1.848.072.41.01.605.165.572.581-.005.059 0 .118 0 .177.053 1.75-.334 2.063-2.075 1.727-.297-.058-.41-.188-.4-.463.028-.706-.09-1.416.076-2.119a2.175 2.175 0 0 0-.02.025M80.725 79.346c-.022 1.6.161 1.403-1.4 1.41-1.295.006-1.074.095-1.089-1.457-.01-1.03.005-.945 1.44-1.055 1.118-.085 1.14.487 1.05 1.102M83.212 68.506c-.617-.023-1.237-.076-1.853-.06-.511.014-.678-.191-.656-.682.028-.59 0-1.181-.004-1.773.811.03 1.886-.38 2.354.198.398.494.132 1.524.16 2.317M11.61 43.807l-2.515.002c.173-.61.077-1.235.075-1.852-.001-.488.153-.702.666-.671.59.034 1.183.009 1.775.01v2.511M12.93 16.623c-1.004 0-2.008-.02-3.011.009-.507.014-.757-.1-.75-.677.026-2.037.016-4.075.004-6.112-.003-.444.143-.637.612-.634 2.067.016 4.134.015 6.2.003.462-.003.612.181.608.633a275.67 275.67 0 0 0 .004 6.111c.008.582-.246.688-.744.674-.974-.025-1.949-.007-2.923-.007M86.999 9.216c.974 0 1.95.017 2.923-.007.485-.013.688.143.683.654-.02 2.038-.018 4.075 0 6.112.004.505-.188.662-.68.657-2.007-.02-4.015-.022-6.023 0-.524.007-.732-.139-.725-.696.027-2.007.028-4.016.001-6.023-.007-.554.196-.72.72-.706 1.033.027 2.067.009 3.1.009M16.587 86.925c0 1.003-.026 2.008.01 3.01.019.552-.192.712-.72.706a299.852 299.852 0 0 0-6.023.001c-.485.005-.687-.143-.682-.655.02-2.037.017-4.074 0-6.11-.003-.498.18-.666.677-.661 2.008.02 4.016.028 6.023-.004.618-.01.742.247.724.79-.032.973-.01 1.948-.01 2.923M36.282 88.227v-5.003c.809.085 1.85-.368 2.368.206.465.516.13 1.524.132 2.314.002.761.314 1.717-.129 2.233-.465.54-1.448.114-2.198.213-.058.007-.115.024-.173.037M46.258 68.482a12.25 12.25 0 0 0 .003 2.515c-.63-.211-1.28-.084-1.919-.098-.44-.01-.6-.151-.623-.613-.092-1.865-.109-1.866 1.75-1.85.263.003.526.03.789.046M24.053 68.507a9.76 9.76 0 0 0-2.514-.003l-.001-2.513 2.512.001a14.77 14.77 0 0 0 .003 2.515"/>
        <path fill="#231916" d="M19.05 63.503h2.513v2.515c-.144-.013-.29-.035-.435-.037-2.072-.04-2.072-.039-2.077-2.128l-.001-.35M90.678 38.807a8.256 8.256 0 0 0 0 2.513c-.531-.005-1.07-.066-1.595-.002-.822.1-1.044-.255-.959-1.005.056-.497.03-1.004.04-1.506h2.514z"/>
        <path fill="#F6F7F7" d="M34.409 65.428h30.645V34.783H34.409z"/>
        <path fill="#EA4335" d="M57.488 47.757l-7.285 4.09a.147.147 0 0 1-.154 0l-6.09-3.244a.145.145 0 0 1 .032-.263l6.031-1.914a.366.366 0 0 1 .215-.002L54.962 48a.262.262 0 0 0 .325-.175l.112-.375a.262.262 0 0 0-.176-.325l-4.368-1.469a.364.364 0 0 1-.26-.349v-3.322c0-.101.097-.173.193-.143l6.95 2.185c.1.031.165.13.155.235l-.334 3.384a.147.147 0 0 1-.071.112zm-6.893 10.061v-5.072c0-.033.016-.062.043-.08l6.089-3.396a.15.15 0 0 1 .219.18l-2.1 5.418a.231.231 0 0 1-.083.106l-4.09 2.885a.05.05 0 0 1-.078-.04zm-.914-15.842v3.345c0 .157-.1.297-.249.346l-6.441 2.158a.15.15 0 0 1-.196-.124l-.402-3.444a.219.219 0 0 1 .151-.233l6.943-2.19a.149.149 0 0 1 .194.142zm-4.132 12.947l-2.215-5.55c-.045-.112.081-.215.182-.15l6.112 3.453a.117.117 0 0 1 .053.099v5.053a.05.05 0 0 1-.079.041l-3.964-2.833a.257.257 0 0 1-.089-.113zm4.712-14.205a.455.455 0 0 0-.274 0L41.55 43.38a.218.218 0 0 0-.15.232l.507 4.556a.957.957 0 0 0 .009.038l2.892 7.322a.182.182 0 0 0 .065.084l4.962 3.546a.5.5 0 0 0 .58.002l5.115-3.61a.172.172 0 0 0 .06-.076l2.827-7.268a.155.155 0 0 0 .01-.039l.45-4.554a.223.223 0 0 0-.155-.235l-8.461-2.66z"/>
    </g>
</svg>
