<svg xmlns="http://www.w3.org/2000/svg" width="18" height="18" viewBox="0 0 18 18">
    <g fill="none" fill-rule="evenodd">
        <circle cx="9" cy="9" r="9" fill="#555" fill-opacity=".4" style="mix-blend-mode:multiply"/>
        <path fill="#FFF" d="M5.678 5a.666.666 0 0 1 .479.205c.933.934 1.867 1.868 2.8 2.804.038.038.055.03.089-.003.937-.94 1.875-1.878 2.813-2.817a.672.672 0 1 1 .908.992l-2.759 2.761c-.058.059-.058.059.002.12l2.774 2.774a.673.673 0 1 1-.936.964l-2.81-2.812c-.033-.034-.048-.028-.079.002l-2.808 2.813a.673.673 0 0 1-.914.036.668.668 0 0 1-.096-.918c.028-.036.06-.068.091-.1.921-.922 1.842-1.845 2.766-2.765.048-.048.04-.07-.003-.113-.927-.925-1.853-1.852-2.779-2.778-.215-.216-.272-.492-.159-.758A.68.68 0 0 1 5.678 5"/>
    </g>
</svg>
