<svg xmlns="http://www.w3.org/2000/svg" xmlns:xlink="http://www.w3.org/1999/xlink" width="22" height="22" viewBox="0 0 22 22">
    <defs>
        <path id="a" d="M0 0h48.969v12.397H0z"/>
        <path id="b" d="M0 .1h5.391v5.417H0z"/>
        <path id="d" d="M0 .2h10.909v11.754H0z"/>
        <path id="f" d="M0 .184h10.909v10.959H0z"/>
        <path id="h" d="M0 0h19v24H0z"/>
    </defs>
    <g fill="none" fill-rule="evenodd">
        <g transform="translate(-132 -62)">
            <text fill="#4A4A4A" font-family="PingFangSC-Semibold, PingFang SC" font-size="18" font-weight="500">
                <tspan x="107" y="19">资产管理合约</tspan>
            </text>
            <text fill="#C1C1C1" font-family="PingFangSC-Semibold, PingFang SC" font-size="14" font-weight="500">
                <tspan x="107" y="41">Asset Management</tspan>
            </text>
            <text fill="#4A4A4A" font-family="PingFangSC-Regular, PingFang SC" font-size="14">
                <tspan x="107" y="66.135">以上这个合约可以你发布 …</tspan>
            </text>
            <rect width="105" height="28" x="107" y="80" fill="#3977FF" rx="4"/>
            <text fill="#FFF" font-family="PingFangSC-Semibold, PingFang SC" font-size="14" font-weight="500">
                <tspan x="117" y="98">加入我的合约</tspan>
            </text>
            <path fill="#A3A3A3" d="M225 5h45v16h-45z"/>
            <text fill="#FFF" font-family="PingFangSC-Semibold, PingFang SC" font-size="14" font-weight="500" transform="translate(225 5)">
                <tspan x="3" y="15">v0.4.0</tspan>
            </text>
            <rect width="88" height="109" x=".5" y=".5" fill="#FFF" stroke="#437DFC" rx="3"/>
            <g opacity=".5">
                <path fill="#A3A3A3" d="M53.344 56.343H26.601c-.884 0-1.601-.748-1.601-1.672 0-.923.717-1.671 1.601-1.671h26.743c.885 0 1.601.748 1.601 1.671 0 .924-.716 1.672-1.6 1.672M53.344 71.343H26.601c-.884 0-1.601-.748-1.601-1.672 0-.923.717-1.671 1.601-1.671h26.743c.885 0 1.601.748 1.601 1.671 0 .924-.716 1.672-1.6 1.672M59.685 56.343c-.93 0-1.685-.748-1.685-1.672 0-.923.754-1.671 1.685-1.671h9.94c.93 0 1.684.748 1.684 1.671 0 .924-.754 1.672-1.684 1.672h-9.94zM36.625 63.343h-9.94c-.93 0-1.685-.748-1.685-1.672 0-.923.754-1.671 1.685-1.671h9.94c.93 0 1.684.748 1.684 1.671 0 .924-.754 1.672-1.684 1.672M36.625 78.343h-9.94c-.93 0-1.685-.748-1.685-1.672 0-.923.754-1.671 1.685-1.671h9.94c.93 0 1.684.748 1.684 1.671 0 .924-.754 1.672-1.684 1.672"/>
                <g transform="translate(10 40)">
                    <mask id="c" fill="#fff">
                        <use xlink:href="#b"/>
                    </mask>
                    <path fill="#A3A3A3" d="M4.387 5.517H1.004A1.007 1.007 0 0 1 0 4.51V1.11C0 .553.45.1 1.004.1h3.383c.555 0 1.004.453 1.004 1.01v3.399c0 .557-.45 1.008-1.004 1.008" mask="url(#c)"/>
                </g>
                <path fill="#A3A3A3" d="M23.385 45.571h-3.48c-.57 0-1.032-.464-1.032-1.037v-3.496c0-.573.462-1.038 1.033-1.038h3.48c.57 0 1.032.465 1.032 1.038v3.496c0 .573-.463 1.037-1.033 1.037M32.258 45.571h-3.48c-.57 0-1.033-.464-1.033-1.037v-3.496c0-.573.463-1.038 1.034-1.038h3.48c.57 0 1.032.465 1.032 1.038v3.496c0 .573-.462 1.037-1.033 1.037"/>
                <g transform="translate(10 53.371)">
                    <mask id="e" fill="#fff">
                        <use xlink:href="#d"/>
                    </mask>
                    <path fill="#A3A3A3" d="M10.236.2H.673C.3.2 0 .526 0 .927v10.303c0 .4.3.725.673.725h9.563c.372 0 .673-.325.673-.725V.926c0-.4-.301-.725-.673-.725zm-7.78 9.108h5.997V2.847H2.455v6.461z" mask="url(#e)"/>
                </g>
                <g transform="translate(10 67.857)">
                    <mask id="g" fill="#fff">
                        <use xlink:href="#f"/>
                    </mask>
                    <path fill="#A3A3A3" d="M10.236.184H.673A.674.674 0 0 0 0 .86v9.607c0 .373.3.676.673.676h9.563a.674.674 0 0 0 .673-.676V.86c0-.373-.301-.676-.673-.676zm-7.78 8.492h5.997V2.651H2.455v6.025z" mask="url(#g)"/>
                </g>
            </g>
            <g transform="translate(60 76)">
                <mask id="i" fill="#fff">
                    <use xlink:href="#h"/>
                </mask>
                <path fill="#A3A3A2" d="M16.517 19.204l-2.203-3.776c-.1-.17-.21-.307-.435-.163-.911.585-1.928.92-3.027 1.232l2.621 4.617c.881-2.158.881-2.158 3.044-1.91m-8.376-2.7c-.859-.268-1.714-.425-2.394-.906-.754-.533-1.078-.287-1.443.436-.535 1.06-1.17 2.068-1.85 3.249.552-.123.906-.2 1.26-.282.694-.16 1.172.01 1.352.786.095.41.178.847.5 1.274l2.575-4.556M9.516 1.68a6.575 6.575 0 0 0-6.623 6.594 6.585 6.585 0 0 0 6.59 6.634 6.587 6.587 0 0 0 6.625-6.6c.004-3.682-2.922-6.624-6.592-6.628M9.495 0c3.394.216 5.994 1.72 7.428 4.875 1.385 3.05.979 5.97-1.088 8.61-.352.449-.388.767-.099 1.244 1.01 1.667 1.977 3.36 2.974 5.034.242.407.436.822.141 1.249-.31.45-.769.342-1.215.209-.301-.09-.614-.138-.92-.21-1.444-.344-1.442-.344-1.84 1.124-.102.381-.225.757-.333 1.137-.111.386-.334.68-.743.723-.418.044-.66-.234-.855-.58A765.764 765.764 0 0 0 9.97 18.2c-.137-.236-.178-.646-.502-.624-.238.017-.308.39-.437.613-.98 1.715-1.96 3.43-2.931 5.15-.205.362-.431.7-.89.656-.491-.047-.673-.43-.795-.864-.17-.609-.41-1.2-.542-1.816-.121-.574-.394-.644-.894-.486-.523.167-1.073.246-1.603.39-.446.122-.905.251-1.22-.198-.324-.461-.082-.888.171-1.315.97-1.629 1.903-3.28 2.89-4.898.322-.526.308-.866-.09-1.378C1.09 10.81.704 7.907 2.072 4.887 3.502 1.73 6.096.221 9.495 0" mask="url(#i)"/>
            </g>
            <path fill="#A3A3A2" d="M66.505 84.454a3.009 3.009 0 0 0 2.928 3.045c1.613.044 3.027-1.301 3.061-2.914.036-1.67-1.303-3.064-2.966-3.086-1.615-.022-3.001 1.332-3.023 2.955m7.495.054c0 2.46-2.045 4.497-4.507 4.492-2.466-.005-4.495-2.04-4.493-4.505.002-2.462 2.047-4.502 4.506-4.495 2.466.007 4.495 2.043 4.494 4.508"/>
            <text fill="#4177ED" font-family="PingFangSC-Semibold, PingFang SC" font-size="25" font-weight="500">
                <tspan x="10" y="37">AM</tspan>
            </text>
        </g>
        <path fill="#000" d="M-904-1091h1920v3677H-904z" opacity=".4"/>
        <g transform="translate(-174 -33)">
            <rect width="460" height="180" fill="#FFF" rx="3"/>
            <circle cx="11" cy="11" r="11" fill="#E57272" transform="translate(174 33)"/>
            <path fill="#FFF" d="M181.426 39.696a.717.717 0 0 1 .514.22c1.005 1.006 2.01 2.01 3.013 3.017.041.041.06.033.096-.003l3.027-3.031a.723.723 0 1 1 .978 1.067l-2.97 2.972c-.062.063-.062.063.003.128l2.984 2.986c.231.23.293.523.175.808a.724.724 0 0 1-1.182.23c-1.007-1.01-2.016-2.017-3.022-3.027-.036-.036-.053-.03-.086.002l-3.022 3.027a.724.724 0 0 1-.983.039.718.718 0 0 1-.104-.988c.03-.038.064-.073.098-.108.992-.992 1.983-1.985 2.976-2.975.053-.052.044-.075-.002-.12l-2.99-2.991c-.232-.232-.294-.53-.172-.815a.732.732 0 0 1 .669-.438"/>
        </g>
    </g>
</svg>
