<?xml version="1.0" encoding="UTF-8"?>
<svg width="16px" height="16px" viewBox="0 0 16 16" version="1.1" xmlns="http://www.w3.org/2000/svg" xmlns:xlink="http://www.w3.org/1999/xlink">
    <!-- Generator: Sketch 50.2 (55047) - http://www.bohemiancoding.com/sketch -->
    <title>Group 11</title>
    <desc>Created with Sketch.</desc>
    <defs>
        <polygon id="path-1" points="0 0.0003 48.9688 0.0003 48.9688 12.3971 0 12.3971"></polygon>
        <polygon id="path-3" points="0 0.100941176 5.39112781 0.100941176 5.39112781 5.51735294 0 5.51735294"></polygon>
        <polygon id="path-5" points="0 0.200802643 10.9085632 0.200802643 10.9085632 11.9538705 0 11.9538705"></polygon>
        <polygon id="path-7" points="0 0.184171429 10.9085632 0.184171429 10.9085632 11.1427429 0 11.1427429"></polygon>
        <polygon id="path-9" points="0 0 19 0 19 24 0 24"></polygon>
        <polygon id="path-11" points="0.00659511844 0.0168375 1.97233694 0.0168375 1.97233694 6.29814148 0.00659511844 6.29814148"></polygon>
    </defs>
    <g id="Page-1" stroke="none" stroke-width="1" fill="none" fill-rule="evenodd">
        <g id="合约中心_网络错误" transform="translate(-591.000000, -1604.000000)">
            <g id="card_01" transform="translate(372.000000, 1519.000000)">
                <text id="资产管理合约" font-family="PingFangSC-Semibold, PingFang SC" font-size="18" font-weight="500" line-spacing="26" fill="#4A4A4A">
                    <tspan x="107" y="19">资产管理合约</tspan>
                </text>
                <text id="Asset-Management-Copy-3" font-family="PingFangSC-Semibold, PingFang SC" font-size="14" font-weight="500" line-spacing="22" fill="#C1C1C1">
                    <tspan x="107" y="41">Asset Management</tspan>
                </text>
                <text id="以上这个合约可以你发布-…" font-family="PingFangSC-Regular, PingFang SC" font-size="14" font-weight="normal" line-spacing="22" fill="#4A4A4A">
                    <tspan x="107" y="66.1355">以上这个合约可以你发布 …</tspan>
                </text>
                <rect id="Rectangle-9-Copy-9" fill="#3977FF" fill-rule="evenodd" x="107" y="80" width="105" height="28" rx="4"></rect>
                <text id="加入我的合约" font-family="PingFangSC-Semibold, PingFang SC" font-size="14" font-weight="500" line-spacing="22" fill="#FFFFFF">
                    <tspan x="117" y="98">加入我的合约</tspan>
                </text>
                <g id="Group" stroke-width="1" fill-rule="evenodd" transform="translate(225.000000, 5.000000)">
                    <rect id="Rectangle-4-Copy-6" fill="#A3A3A3" x="0" y="0" width="45" height="16"></rect>
                    <text id="v0.4.0" font-family="PingFangSC-Semibold, PingFang SC" font-size="14" font-weight="500" line-spacing="16" fill="#FFFFFF">
                        <tspan x="3" y="15">v0.4.0</tspan>
                    </text>
                </g>
                <g id="Page-1" stroke-width="1" fill-rule="evenodd" transform="translate(126.000000, 48.000000)">
                    <mask id="mask-2" fill="white">
                        <use xlink:href="#path-1"></use>
                    </mask>
                    <g id="Clip-2"></g>
                </g>
                <g id="icon_card" stroke-width="1" fill-rule="evenodd">
                    <rect id="Rectangle-Copy-10" stroke="#437DFC" fill="#FFFFFF" x="0.5" y="0.5" width="88" height="109" rx="3"></rect>
                    <g id="Group-2" opacity="0.5" transform="translate(10.000000, 40.000000)">
                        <path d="M43.3442508,16.3428571 L16.6012037,16.3428571 C15.7171574,16.3428571 15,15.594577 15,14.6712937 C15,13.7482801 15.7171574,13 16.6012037,13 L43.3442508,13 C44.2288138,13 44.9454545,13.7482801 44.9454545,14.6712937 C44.9454545,15.594577 44.2288138,16.3428571 43.3442508,16.3428571" id="Fill-1" fill="#A3A3A3"></path>
                        <path d="M43.3442508,31.3428571 L16.6012037,31.3428571 C15.7171574,31.3428571 15,30.594577 15,29.6712937 C15,28.7482801 15.7171574,28 16.6012037,28 L43.3442508,28 C44.2288138,28 44.9454545,28.7482801 44.9454545,29.6712937 C44.9454545,30.594577 44.2288138,31.3428571 43.3442508,31.3428571" id="Fill-1-Copy" fill="#A3A3A3"></path>
                        <path d="M49.6848017,16.3428571 C48.7544781,16.3428571 48,15.594577 48,14.6712937 C48,13.7482801 48.7544781,13 49.6848017,13 L59.624561,13 C60.5551564,13 61.3090909,13.7482801 61.3090909,14.6712937 C61.3090909,15.594577 60.5551564,16.3428571 59.624561,16.3428571 L49.6848017,16.3428571 Z" id="Fill-7" fill="#A3A3A3"></path>
                        <path d="M26.624561,23.3428571 L16.6848017,23.3428571 C15.7542063,23.3428571 15,22.594577 15,21.6712937 C15,20.7482801 15.7542063,20 16.6848017,20 L26.624561,20 C27.5548846,20 28.3090909,20.7482801 28.3090909,21.6712937 C28.3090909,22.594577 27.5548846,23.3428571 26.624561,23.3428571" id="Fill-9" fill="#A3A3A3"></path>
                        <path d="M26.624561,38.3428571 L16.6848017,38.3428571 C15.7542063,38.3428571 15,37.594577 15,36.6712937 C15,35.7482801 15.7542063,35 16.6848017,35 L26.624561,35 C27.5548846,35 28.3090909,35.7482801 28.3090909,36.6712937 C28.3090909,37.594577 27.5548846,38.3428571 26.624561,38.3428571" id="Fill-11" fill="#A3A3A3"></path>
                        <g id="Group-15">
                            <mask id="mask-4" fill="white">
                                <use xlink:href="#path-3"></use>
                            </mask>
                            <g id="Clip-14"></g>
                            <path d="M4.38707433,5.51735294 L1.00434706,5.51735294 C0.449801604,5.51735294 -3.26203209e-05,5.0657395 -3.26203209e-05,4.50859664 L-3.26203209e-05,1.11002521 C-3.26203209e-05,0.552882353 0.449801604,0.100941176 1.00434706,0.100941176 L4.38707433,0.100941176 C4.94161979,0.100941176 5.39112781,0.552882353 5.39112781,1.11002521 L5.39112781,4.50859664 C5.39112781,5.0657395 4.94161979,5.51735294 4.38707433,5.51735294" id="Fill-13" fill="#A3A3A3" mask="url(#mask-4)"></path>
                        </g>
                        <path d="M13.385057,5.57142857 L9.90551659,5.57142857 C9.33510014,5.57142857 8.87272727,5.10689002 8.87272727,4.53380183 L8.87272727,1.03796385 C8.87272727,0.464875658 9.33510014,0 9.90551659,0 L13.385057,0 C13.9554734,0 14.4181818,0.464875658 14.4181818,1.03796385 L14.4181818,4.53380183 C14.4181818,5.10689002 13.9554734,5.57142857 13.385057,5.57142857" id="Fill-16" fill="#A3A3A3"></path>
                        <path d="M22.2581198,5.57142857 L18.7785794,5.57142857 C18.208163,5.57142857 17.7454545,5.10689002 17.7454545,4.53380183 L17.7454545,1.03796385 C17.7454545,0.464875658 18.208163,0 18.7785794,0 L22.2581198,0 C22.8285362,0 23.2909091,0.464875658 23.2909091,1.03796385 L23.2909091,4.53380183 C23.2909091,5.10689002 22.8285362,5.57142857 22.2581198,5.57142857" id="Fill-18" fill="#A3A3A3"></path>
                        <g id="Group-22" transform="translate(0.000000, 13.371429)">
                            <mask id="mask-6" fill="white">
                                <use xlink:href="#path-5"></use>
                            </mask>
                            <g id="Clip-21"></g>
                            <path d="M10.2362834,0.200802643 L0.672507226,0.200802643 C0.30081958,0.200802643 -5.68764569e-05,0.5253105 -5.68764569e-05,0.925506214 L-5.68764569e-05,11.2291669 C-5.68764569e-05,11.6293626 0.30081958,11.9538705 0.672507226,11.9538705 L10.2362834,11.9538705 C10.6076867,11.9538705 10.9085632,11.6293626 10.9085632,11.2291669 L10.9085632,0.925506214 C10.9085632,0.5253105 10.6076867,0.200802643 10.2362834,0.200802643 Z M2.45529977,9.30816621 L8.45320653,9.30816621 L8.45320653,2.84650693 L2.45529977,2.84650693 L2.45529977,9.30816621 Z" id="Fill-20" fill="#A3A3A3" mask="url(#mask-6)"></path>
                        </g>
                        <g id="Group-25" transform="translate(0.000000, 27.857143)">
                            <mask id="mask-8" fill="white">
                                <use xlink:href="#path-7"></use>
                            </mask>
                            <g id="Clip-24"></g>
                            <path d="M10.2362834,0.184171429 L0.672507226,0.184171429 C0.30081958,0.184171429 -5.68764569e-05,0.486742857 -5.68764569e-05,0.859885714 L-5.68764569e-05,10.4673143 C-5.68764569e-05,10.8404571 0.30081958,11.1427429 0.672507226,11.1427429 L10.2362834,11.1427429 C10.6076867,11.1427429 10.9085632,10.8404571 10.9085632,10.4673143 L10.9085632,0.859885714 C10.9085632,0.486742857 10.6076867,0.184171429 10.2362834,0.184171429 Z M2.45529977,8.67617143 L8.45320653,8.67617143 L8.45320653,2.65131429 L2.45529977,2.65131429 L2.45529977,8.67617143 Z" id="Fill-23" fill="#A3A3A3" mask="url(#mask-8)"></path>
                        </g>
                    </g>
                    <g id="Page-1" transform="translate(60.000000, 76.000000)">
                        <g id="Group-3">
                            <mask id="mask-10" fill="white">
                                <use xlink:href="#path-9"></use>
                            </mask>
                            <g id="Clip-2"></g>
                            <path d="M16.5170704,19.2039794 C15.7405639,17.873293 15.027375,16.6503801 14.3135561,15.4281012 C14.213697,15.2575654 14.1037576,15.1209466 13.8785235,15.26549 C12.9675065,15.85032 11.9506453,16.1856859 10.8521958,16.4966443 C11.7332865,18.0495345 12.5809858,19.5421982 13.473417,21.1144241 C14.3541927,18.9557833 14.3541927,18.9557833 16.5170704,19.2039794 M8.14056581,16.5045689 C7.282156,16.2364029 6.42689633,16.0788633 5.74678375,15.5983201 C4.99264317,15.0654749 4.66944007,15.3114522 4.30434027,16.033535 C3.76913357,17.0932027 3.13406782,18.1018363 2.45490028,19.2825907 C3.00554261,19.159919 3.35993198,19.0835266 3.71306129,19.0014285 C4.40766446,18.8400852 4.88585385,19.010621 5.06572614,19.7872245 C5.16117501,20.197715 5.24402337,20.6335639 5.56596642,21.0608544 C6.44012686,19.5143038 7.2771158,18.0324175 8.14056581,16.5045689 M9.51591157,1.67968254 C5.83561735,1.6752448 2.90284844,4.59527416 2.89276804,8.2744731 C2.88300264,11.9498683 5.81356646,14.8996938 9.48346526,14.9079354 C13.1543091,14.9161769 16.1044037,11.9768117 16.1081839,8.30743913 C16.111964,4.62602132 13.1861254,1.68443725 9.51591157,1.67968254 M9.49480572,0 C12.8893833,0.215864089 15.4891838,1.71993913 16.9228069,4.87516842 C18.3082331,7.92452603 17.9018666,10.8445554 15.8347528,13.4843735 C15.4828835,13.9335356 15.4472871,14.2521016 15.7364688,14.729475 C16.7463997,16.3958444 17.7131739,18.0882061 18.7095593,19.7625 C18.9518041,20.1695037 19.145852,20.5847488 18.8513151,21.0117223 C18.5407125,21.4624693 18.0823689,21.3537448 17.6356808,21.2209298 C17.3348436,21.1315411 17.0223509,21.08336 16.7164735,21.0107713 C15.27214,20.6674809 15.274345,20.6671639 14.8767989,22.1351031 C14.7737898,22.5161143 14.6512498,22.8920538 14.5425704,23.2717971 C14.4320009,23.658197 14.2092869,23.9523554 13.8000853,23.9954648 C13.3817483,24.0392082 13.1398185,23.7605819 12.9448256,23.4157065 C11.9594656,21.6735787 10.9687505,19.9346207 9.96984498,18.2004174 C9.83344445,17.9639496 9.79186276,17.5540931 9.46771462,17.5762818 C9.23019499,17.5927648 9.15963213,17.9652175 9.03142193,18.1893231 C8.05173221,19.9041905 7.07046742,21.618424 6.09959806,23.3383631 C5.89483975,23.7009894 5.66866058,24.0388912 5.21000199,23.9951479 C4.71858206,23.9482347 4.53650468,23.5646876 4.41490975,23.1307406 C4.24417283,22.522137 4.00444811,21.9306503 3.8734028,21.3147562 C3.75180787,20.7413375 3.47869179,20.6706507 2.97876652,20.8294582 C2.45553031,20.9955563 1.90614803,21.0751185 1.37566652,21.2196619 C0.929608439,21.3410656 0.470949843,21.4700769 0.155622058,21.0209147 C-0.167581047,20.5600243 0.0737187369,20.1327339 0.327304019,19.7063944 C1.29722834,18.0774288 2.22966615,16.4256406 3.2175462,14.8080863 C3.53917424,14.2822148 3.52499867,13.9424111 3.12682253,13.4304867 C1.08994994,10.8106384 0.704059294,7.90740906 2.07152974,4.8872137 C3.50137271,1.72976554 6.09644793,0.220935786 9.49480572,0" id="Fill-1" fill="#A3A3A2" mask="url(#mask-10)"></path>
                        </g>
                        <path d="M6.50548453,8.45374141 C6.48365294,10.0966782 7.78816512,11.4534356 9.43271177,11.4985125 C11.0464549,11.5429964 12.459826,10.1978048 12.4942182,8.5854136 C12.5304048,6.9151934 11.1906032,5.52077305 9.52841188,5.49853112 C7.91257527,5.47688232 6.52701706,6.8312672 6.50548453,8.45374141 M13.9999997,8.50830827 C13.9991025,10.9682651 11.9550079,13.0050322 9.49252434,12.9999907 C7.02675109,12.9949492 4.99760961,10.960258 5.00000211,8.49466655 C5.00239462,6.03293041 7.04738643,3.99290115 9.50598217,4.00001857 C11.9717554,4.00683942 14.0008969,6.04271686 13.9999997,8.50830827" id="Fill-4" fill="#A3A3A2"></path>
                    </g>
                </g>
                <text id="AM-Copy-3" fill="#4177ED" fill-rule="evenodd" font-family="PingFangSC-Semibold, PingFang SC" font-size="25" font-weight="500" line-spacing="26">
                    <tspan x="10" y="37">AM</tspan>
                </text>
            </g>
            <g id="Group-12-Copy-5" transform="translate(591.000000, 1602.000000)">
                <g id="Group-10">
                    <g id="Group-11" transform="translate(0.000000, 2.000000)">
                        <g id="Group-12-Copy-2" fill="#FFC676">
                            <g id="Group-12-Copy">
                                <circle id="Oval-4" cx="8" cy="8" r="8"></circle>
                            </g>
                        </g>
                        <g id="Page-1" transform="translate(7.000000, 4.000000)">
                            <g id="Group-3">
                                <mask id="mask-12" fill="white">
                                    <use xlink:href="#path-11"></use>
                                </mask>
                                <g id="Clip-2"></g>
                                <path d="M1.97158113,1.01178 C1.86478868,1.9970175 1.84286415,2.96868 1.78992075,3.9383925 C1.75939245,4.4966925 1.72931698,5.0549925 1.69648679,5.6131425 C1.6731283,6.0104925 1.37169434,6.2952675 0.976675472,6.2981175 C0.569128302,6.3010425 0.272637736,6.0361425 0.24769434,5.630805 C0.211618868,5.04468 0.185354717,4.457955 0.15505283,3.87153 C0.125732075,3.30378 0.0968641509,2.73603 0.0673924528,2.1683175 C0.0466377358,1.76913 0.0147509434,1.370205 0.00678867925,0.970755 C-0.00362641509,0.44778 0.407543396,0.03333 0.931958491,0.0173925 C1.49995849,0.0001425 1.93995849,0.38118 1.97127925,0.91803 C1.97346792,0.955305 1.97158113,0.992805 1.97158113,1.01178" id="Fill-1" fill="#FFFFFF" mask="url(#mask-12)"></path>
                            </g>
                            <path d="M1.04281103,8.99997673 C0.422977071,8.99919619 -0.00790979236,8.54078408 0.00011009851,7.95369969 C0.00728579034,7.42777074 0.464189334,6.97173929 0.985674103,6.97501757 C1.52646033,6.97841292 2.00362465,7.47245675 1.99997925,8.02519731 C1.99633384,8.58226987 1.5825612,9.00360625 1.04281103,8.99997673" id="Fill-4" fill="#FFFFFF"></path>
                        </g>
                    </g>
                </g>
            </g>
        </g>
    </g>
</svg>