<?xml version="1.0" encoding="UTF-8"?>
<svg width="40px" height="42px" viewBox="0 0 40 42" version="1.1" xmlns="http://www.w3.org/2000/svg" xmlns:xlink="http://www.w3.org/1999/xlink">
    <!-- Generator: Sketch 49.3 (51167) - http://www.bohemiancoding.com/sketch -->
    <title>icon_zigledger</title>
    <desc>Created with Sketch.</desc>
    <defs>
        <polygon id="path-1" points="0 0 39.4444444 0 39.4444444 42 0 42"></polygon>
    </defs>
    <g id="Page-1" stroke="none" stroke-width="1" fill="none" fill-rule="evenodd">
        <g id="合约中心_已部署" transform="translate(-377.000000, -760.000000)">
            <g id="Group-2-Copy-2" transform="translate(377.000000, 756.000000)">
                <g id="icon_zigledger" transform="translate(0.000000, 4.000000)">
                    <mask id="mask-2" fill="white">
                        <use xlink:href="#path-1"></use>
                    </mask>
                    <g id="Clip-2"></g>
                    <path d="M19.1867648,34.5494545 L19.1773921,34.5494545 C19.1773921,33.3762363 19.1731108,32.2031334 19.1807478,31.0299152 C19.1824834,30.7735226 19.1010221,30.5949367 18.8760776,30.4582556 C18.4958474,30.2271444 18.2373464,29.8925988 18.2012442,29.4393808 C18.1750932,29.1096837 18.0194604,28.8980819 17.7571409,28.7122233 C15.1425086,26.859178 12.5336619,24.9979364 9.92273234,23.1396963 C7.98617338,21.7614564 6.04926728,20.3835627 4.11039407,19.0084397 C4.04073534,18.9591467 3.96552243,18.8353949 3.86948132,18.9202434 C3.79727693,18.9840818 3.88406106,19.0828986 3.91322053,19.1578192 C4.11895677,19.6856116 4.33221431,20.2105179 4.54281047,20.7365787 C5.88426172,24.0890761 7.22687009,27.4412272 8.56473425,30.7953408 C8.66713953,31.0521951 8.80113423,31.2323972 9.09504315,31.3029311 C9.99447389,31.5189197 10.4152034,32.0871161 10.3700756,33.0169865 C10.3588515,33.2499447 10.4396186,33.3906663 10.621981,33.520421 C13.2486474,35.3887044 15.872421,37.2607973 18.4944589,39.1355454 C18.6153781,39.22201 18.7062121,39.2218946 18.8328013,39.1481283 C19.080541,39.004059 19.193129,38.8111585 19.1909304,38.5177097 C19.181442,37.1949964 19.1867648,35.8722832 19.1867648,34.5494545 M35.7892634,18.920936 C35.6354819,18.9132015 35.5731131,18.9773863 35.5036857,19.0262174 C30.8839929,22.2763194 26.2648785,25.5269986 21.6431028,28.7738683 C21.4386394,28.9174759 21.3244315,29.0827862 21.305339,29.3389479 C21.2727082,29.7721947 21.0829402,30.1464517 20.7140498,30.3804489 C20.4283564,30.5618054 20.3617062,30.7892225 20.3625162,31.1036814 C20.3684175,33.5556302 20.3607805,36.0074636 20.357772,38.4594124 C20.3576563,38.5555741 20.3524492,38.6525438 20.3636733,38.747551 C20.410421,39.1444343 20.7690131,39.2964689 21.0915029,39.0629335 C22.2361277,38.2341887 23.3916295,37.4201047 24.550487,36.6126009 C26.0886489,35.5407391 27.6153553,34.4522539 29.16127,33.3917052 C29.3881816,33.2360919 29.4873469,33.0473473 29.4932482,32.767174 C29.5069023,32.1272893 29.9147877,31.5274622 30.4855958,31.3828157 C30.8969526,31.2786887 31.0830178,31.0409974 31.2252281,30.6728588 C32.4288661,27.5564365 33.646621,24.4454399 34.8587061,21.3322499 C35.1673105,20.5395224 35.4714021,19.7450633 35.7892634,18.920936 M19.1763507,7.12526143 L19.1782021,7.12526143 C19.1782021,6.06725245 19.1795906,5.00912803 19.1771607,3.95111905 C19.1765821,3.74009445 19.1793592,3.52653017 19.1488112,3.31862246 C19.0762597,2.82465406 18.5857558,2.52762655 18.1137658,2.67619802 C14.5997027,3.78292275 11.0857554,4.88941659 7.57192379,5.99602588 C6.2414652,6.41507362 4.91135375,6.83481401 3.58043231,7.25247648 C3.3712247,7.31804648 3.17567112,7.38973482 3.14512311,7.64982148 C3.08587847,8.15360229 2.83154311,8.5285519 2.38686122,8.77397766 C2.21306154,8.86990843 2.15451118,9.01432406 2.17707505,9.20803263 C2.42284771,11.3268212 2.66723182,13.4456097 2.90883885,15.5647445 C2.94193253,15.8547302 3.05695043,16.062407 3.37492749,16.0925369 C3.4691172,16.1015412 3.53414744,16.1488717 3.59952482,16.2082079 C3.82099792,16.408612 4.08030891,16.4415125 4.35535675,16.3557404 C4.94849736,16.1706899 5.53886087,15.9768659 6.1311915,15.7893911 C10.0530243,14.5480631 13.9747413,13.3066197 17.8976155,12.0688704 C18.1220971,11.9979902 18.290574,11.8842816 18.3952935,11.6673696 C18.4929546,11.4651185 18.6350491,11.2839929 18.8437939,11.1927951 C19.121156,11.0714675 19.1808635,10.8620591 19.1793592,10.5881196 C19.1724165,9.433949 19.1763507,8.27966294 19.1763507,7.12526143 M20.3684175,7.03556443 L20.3695747,7.03556443 C20.3695747,8.25726755 20.3726989,9.47885522 20.3666818,10.7005583 C20.3656404,10.923935 20.4256951,11.0837042 20.6360598,11.1931415 C20.8353162,11.2968067 20.9860891,11.4668501 21.0880315,11.6671387 C21.1868497,11.8614245 21.3346142,11.9672831 21.5434747,12.0292745 C24.4204265,12.8830698 27.2963369,13.7404438 30.1700487,14.6047442 C30.3958032,14.672623 30.5464605,14.6327962 30.7015148,14.4583661 C31.175819,13.9248017 31.9036486,13.7836184 32.5439997,14.083532 C33.1629442,14.3735176 33.5130892,15.0110936 33.4254951,15.6888427 C33.329454,16.4315846 32.84462,16.9466786 32.1226917,17.0729701 C31.4469326,17.1911808 30.7700164,16.8649469 30.4700904,16.2323349 C30.3451213,15.9687851 30.1672717,15.842609 29.9005551,15.7637633 C27.1150159,14.9405596 24.3312124,14.1108913 21.5483346,13.278106 C21.3115875,13.2073412 21.1543346,13.2254653 20.9837749,13.4473413 C20.3391423,14.2861294 19.189079,14.2934021 18.5164442,13.4745852 C18.3595385,13.2835317 18.2103855,13.2265043 17.9691256,13.303272 C13.5320265,14.7140661 9.09296033,16.1183955 4.6542413,17.5238793 C4.5621344,17.5530857 4.45510064,17.5750193 4.44619081,17.6905749 C4.43843809,17.7914696 4.53714057,17.8281796 4.60656788,17.8774725 C5.18721157,18.2897093 5.76889668,18.7009071 6.3488461,19.1141828 C10.3539916,21.9684406 14.3594843,24.8217748 18.3613899,27.6805347 C18.5989469,27.8502317 18.7943848,27.8917901 19.0670027,27.732829 C19.4612341,27.5027568 19.91957,27.464777 20.31357,27.6928868 C20.6968087,27.9146473 20.9544997,27.8075188 21.2715511,27.5810252 C24.5680752,25.2259307 27.9000073,22.9207064 31.1986143,20.5681515 C32.5212044,19.6248901 33.854903,18.6945579 35.1965856,17.7773859 C35.4170173,17.6267365 35.5127113,17.452191 35.4954702,17.1753655 C35.450111,16.4447448 35.7671624,15.9271112 36.4330859,15.6430129 C36.6755029,15.5395786 36.7581214,15.3830417 36.7789496,15.1387704 C36.8375,14.4590588 36.9141015,13.7809633 36.9813302,13.1020598 C37.1072251,11.8301402 37.22826,10.5577589 37.3595933,9.28653193 C37.3848186,9.04260689 37.3022001,8.89045677 37.085934,8.77709455 C36.6682131,8.55822002 36.3950166,8.2073974 36.3336892,7.74355888 C36.2904128,7.41640149 36.1127946,7.28803204 35.8314983,7.20029753 C32.8365201,6.26696391 29.8437404,5.32670388 26.8493407,4.39163866 C25.0220141,3.821018 23.1949188,3.24947381 21.3633108,2.69305229 C20.8269849,2.53005079 20.3700375,2.89784311 20.3691118,3.45715064 C20.367029,4.64999372 20.3684175,5.84272136 20.3684175,7.03556443 M39.4432225,7.52445347 C39.4338498,7.94858059 39.2505617,8.34661822 38.8638516,8.63891269 C38.6983832,8.76393437 38.6198146,8.91562273 38.599565,9.1239922 C38.3924402,11.2374705 38.1797612,13.3502561 37.9622223,15.4626954 C37.9401213,15.675798 38.0078129,15.820329 38.1600902,15.9690159 C39.0217987,16.8106901 38.6721165,18.2383384 37.5171933,18.5792332 C37.278132,18.6497671 37.1479558,18.7694785 37.0593202,18.997242 C35.4759148,23.0682389 33.8883438,27.1377351 32.2927886,31.2041144 C32.1796221,31.492253 32.1803164,31.7152834 32.3733243,31.9749083 C32.7825982,32.525096 32.7469589,33.2450962 32.3236838,33.7973619 C31.9064256,34.342124 31.2016228,34.5814314 30.5741157,34.326655 C30.2395918,34.1908974 30.0068946,34.2496564 29.7297639,34.4459047 C27.0904849,36.3154579 24.4449575,38.176584 21.7960743,40.0326308 C21.5137366,40.2302643 21.3311428,40.4470609 21.2653026,40.8049254 C21.1235552,41.5735259 20.4820469,42.018894 19.6293639,41.9993846 C18.9243296,41.9833384 18.3115179,41.4455028 18.2004342,40.7273496 C18.159125,40.4606829 18.032883,40.2710147 17.814997,40.1159786 C15.1554683,38.2249535 12.4981382,36.3309269 9.84289094,34.4338989 C9.66110711,34.3040287 9.48163753,34.2800172 9.27231421,34.3388917 C8.56820562,34.5373333 7.94902977,34.3338123 7.53003598,33.774043 C7.11925776,33.2254714 7.10190094,32.5975924 7.49428092,31.9704061 C7.59448767,31.8101752 7.62341571,31.6688764 7.55040133,31.4868273 C5.93436509,27.4585432 4.32226307,23.4287585 2.71201244,19.3981656 C2.6460565,19.2333171 2.53670849,19.138887 2.3733229,19.0726244 C1.21134124,18.6015131 0.907018216,17.5540092 1.63288069,16.5320175 C1.72626042,16.4005312 1.7821494,16.2685831 1.76305689,16.1041963 C1.55951917,14.3484671 1.35737,12.592507 1.15614653,10.8364314 C1.0959762,10.3116405 1.0275903,9.78719586 0.986859617,9.26067334 C0.966378562,8.99562275 0.852633494,8.82465589 0.641805911,8.66938889 C0.0539880612,8.23648832 -0.142838349,7.54430918 0.10443857,6.8736019 C0.451806519,5.93149483 1.50814297,5.54788721 2.383737,6.06679069 C2.62117838,6.20751223 2.82483181,6.23833475 3.08749844,6.15533328 C7.94879835,4.61870944 12.8117182,3.08716496 17.6774152,1.56427849 C17.9985165,1.46373012 18.2005499,1.31723657 18.3120965,0.981074852 C18.5138985,0.373513339 19.1367771,-0.00951708134 19.8046678,0.00017989132 C20.4351835,0.00953054352 21.0412838,0.40525938 21.2243405,0.998506314 C21.3269772,1.33143571 21.5201008,1.46788597 21.831598,1.56485569 C26.4503652,3.00358629 31.0661238,4.45224474 35.6823453,5.89917159 C35.8291841,5.94523221 35.9750972,5.99510236 36.1192745,6.04878203 C36.5006618,6.19054253 36.874875,6.1844242 37.2369384,5.99198547 C38.2686282,5.44329844 39.4884659,6.30771428 39.4432225,7.52445347" id="Fill-1" fill="#3575FF" mask="url(#mask-2)"></path>
                </g>
            </g>
        </g>
    </g>
</svg>