<?xml version="1.0" encoding="UTF-8"?>
<svg width="41px" height="39px" viewBox="0 0 41 39" version="1.1" xmlns="http://www.w3.org/2000/svg" xmlns:xlink="http://www.w3.org/1999/xlink">
    <!-- Generator: Sketch 49.3 (51167) - http://www.bohemiancoding.com/sketch -->
    <title>icon_hyperledger</title>
    <desc>Created with Sketch.</desc>
    <defs>
        <polygon id="path-1" points="0 0 41 0 41 39 0 39"></polygon>
    </defs>
    <g id="Page-1" stroke="none" stroke-width="1" fill="none" fill-rule="evenodd">
        <g id="合约中心_已部署" transform="translate(-376.000000, -1252.000000)">
            <g id="icon_hyperledger" transform="translate(376.000000, 1252.000000)">
                <mask id="mask-2" fill="white">
                    <use xlink:href="#path-1"></use>
                </mask>
                <g id="Clip-25"></g>
                <path d="M32.1131321,24.0461569 C32.1207185,23.3660257 32.1308337,22.6858946 32.1428454,22.0057634 C32.1662368,20.6532519 32.1915247,19.2548815 32.1757197,17.8778258 C32.1712943,17.4922244 32.2300888,17.2487206 32.3539996,17.1343966 C32.4425073,17.0523675 32.5898094,17.0123218 32.8091822,17.0123218 C32.9008509,17.0123218 33.0051636,17.0194266 33.1227524,17.0336364 C33.9680012,17.1337507 34.8284227,17.2009241 35.6610276,17.2661599 C36.3779402,17.3223531 37.0942205,17.3785462 37.8086043,17.4554082 C38.0621158,17.4825359 38.3952841,17.5690863 38.5406897,17.8274457 C38.5792538,17.8946192 38.6007485,17.9669598 38.6114959,18.041884 L32.1131321,24.0461569 Z M32.1061779,24.7540617 C32.1061779,24.6681572 32.1080745,24.5828986 32.1087067,24.4969941 L38.5381609,18.5560193 C38.5229881,18.5980027 38.5071832,18.6374025 38.490746,18.6748646 C36.814789,22.523774 35.119866,26.362995 33.4072415,30.2435534 L32.1017526,33.2037065 L32.099856,31.3803349 C32.0979594,29.1416505 32.0954306,26.9481791 32.1061779,24.7540617 Z M13.9374382,36.9544393 C13.6674896,37.0028817 13.54105,37.0151538 13.42599,36.8685348 L21.1065641,32.3084911 C23.1845991,33.0784021 25.2632663,33.8476673 27.3419334,34.6162866 L29.5508334,35.4327023 L27.9880398,35.594177 C26.4688679,35.7517762 24.9490638,35.9093755 23.4286275,36.0559944 C20.8429375,36.3053113 18.2559831,36.5430019 15.6683965,36.7813385 L14.1751447,36.9189149 C14.0961199,36.9260198 14.016463,36.9408754 13.9374382,36.9544393 Z M9.19152744,26.3545983 C9.38750884,26.4695682 9.58349023,26.58583 9.78010382,26.7014458 L11.5799717,36.0482437 C11.4516355,35.9842997 11.3422652,35.8887067 11.2537575,35.7601729 C8.36840558,31.5217867 5.49632984,27.2743578 2.6236219,23.0262831 L2.03630992,22.1627167 L9.19152744,26.3545983 Z M19.8257308,4.84423908 C19.5519891,5.00119243 19.2769829,5.15814577 19.002609,5.31445322 L10.4976486,2.62170219 C10.6569625,2.56680081 10.8529439,2.52675511 11.0868572,2.50350276 C13.6573745,2.24837283 16.2291561,2.00809857 18.80157,1.76782432 L26.4486376,1.04441795 L19.8257308,4.84423908 Z M31.1427081,11.3852536 C30.6875255,9.29189646 30.2272853,7.19595568 29.7638842,5.09032643 L29.1708824,2.39240821 C29.2031245,2.4414965 29.2347344,2.49316838 29.2669765,2.54613206 C29.306805,2.61136781 29.3453691,2.67531177 29.3870941,2.73731803 C32.2547445,6.95891092 35.1217626,11.1817956 37.9792978,15.4111393 C38.0267127,15.4808963 38.0798173,15.5493616 38.1322897,15.6184727 C38.2587294,15.781885 38.3497659,15.9058976 38.385169,16.030556 L31.1427081,11.3852536 Z M29.0640409,26.8629205 C28.8370818,26.6155413 28.5070744,26.4760272 28.1062609,26.4611716 C28.0784442,26.4598798 28.0518918,26.4611716 28.0247073,26.4618175 L27.0688239,21.3928057 L31.4208753,17.4986834 L31.4215075,17.8048393 C31.4240362,18.2705321 31.4259328,18.6412779 31.4177143,19.0120236 C31.3791502,20.9406767 31.3393217,22.8693298 31.2994932,24.7979828 L29.0640409,26.8629205 Z M13.2913318,36.5662543 C13.2755268,36.421573 13.3475974,36.2962687 13.4715082,36.0986237 L13.5290383,36.0062602 C13.8742184,35.4372236 14.2225595,34.8701247 14.5702684,34.3030258 C15.2056275,33.2676504 15.8409865,32.2322751 16.4599084,31.1865653 C16.6135325,30.9269141 16.7500873,30.8125901 16.9467009,30.8125901 C17.036473,30.8125901 17.1395213,30.8364883 17.2627999,30.8817012 C18.4115038,31.309286 19.5608398,31.7349332 20.7101759,32.1612262 L13.2913318,36.5662543 Z M10.8864504,27.3538033 C12.3367127,28.2102648 13.8356543,29.0964376 15.3339637,29.9270631 C15.6620745,30.1098524 15.8308714,30.2616386 15.86501,30.4063199 C15.8997809,30.5497093 15.8213884,30.7583346 15.6203494,31.0619069 C15.0128071,31.9803746 14.4356103,32.9388881 13.8767472,33.8644607 C13.5157621,34.4645004 13.1541448,35.0638943 12.7830446,35.6561832 C12.5971783,35.9532966 12.2949877,36.1341482 11.9750955,36.141253 C11.9586583,36.141253 11.9428534,36.1386694 11.9270484,36.1380236 L10.1524685,26.9210513 C10.3964969,27.0650867 10.6417898,27.2084762 10.8864504,27.3538033 Z M1.60262206,20.5350524 C3.32978713,18.901575 5.04936582,17.2597009 6.8700962,15.5215879 L8.50938574,13.9565757 L8.50875355,19.3872907 C8.50875355,19.480946 8.47904024,19.512595 8.2982316,19.6140011 C8.21288486,19.6611517 8.11679076,19.7141154 8.03334061,19.7942068 C7.65655058,20.1546182 7.46625896,20.5369901 7.46625896,20.9309882 C7.46625896,21.3004422 7.63505584,21.6505192 7.96822421,21.9689472 C8.27736906,22.2654146 8.61749161,22.4139713 8.95129218,22.3958861 L9.53291439,25.4180454 C9.37233608,25.3418294 9.2035392,25.2772395 9.03790331,25.2132956 C8.79387487,25.1196403 8.54289224,25.0227555 8.3292093,24.8961594 C6.16709197,23.6250311 4.00371025,22.3551945 1.83906413,21.0885875 L1.71388891,21.0175386 C1.61084063,20.9606996 1.42054902,20.8541263 1.40537626,20.8005167 C1.40537626,20.7998708 1.40537626,20.722363 1.60262206,20.5350524 Z M8.51001794,5.47140657 C8.51065014,7.85929349 8.51191454,10.2478263 8.49484519,12.6363591 C8.49358079,12.7442242 8.37978514,12.9386396 8.23564399,13.0775078 C6.20059847,15.0319968 4.19084087,16.9399811 2.05211487,18.7452676 L8.50938574,4.08982958 L8.51001794,5.47140657 Z M18.0081614,5.87896855 C16.5313468,6.71605306 15.0039563,7.58220301 13.5258773,8.47935609 C13.2167324,8.66731257 13.0081071,8.73384012 12.8671269,8.69250261 C12.7255145,8.64922741 12.5883276,8.47677249 12.4226917,8.13315447 C11.9731989,7.20306057 11.4687048,6.28653053 10.9812801,5.39971183 C10.7473668,4.97406469 10.5128214,4.54841755 10.2839657,4.12083271 C10.0001087,3.58990411 9.92045179,3.1952601 10.0475236,2.94981865 C10.0658573,2.91364833 10.0905131,2.88006161 10.1195942,2.84776668 L18.6112784,5.53664232 C18.4102394,5.65096636 18.2092004,5.76464451 18.0081614,5.87896855 Z M22.8786152,6.88786208 C22.877983,6.91305212 22.8754542,6.93759626 22.8754542,6.96343221 C22.8741898,7.33869926 22.9595366,7.65777314 23.1232759,7.90515228 L19.2428442,11.4175486 L13.6807658,9.34550604 C13.6927776,9.27704079 13.7458822,9.25314254 13.8565168,9.20405426 C13.9007707,9.1840314 13.9437602,9.16465444 13.9810599,9.14269389 C15.8789184,8.05112535 17.7793057,6.96278631 19.6790609,5.87444726 L22.8786152,6.88786208 Z M28.0095346,1.18974512 C28.0354547,1.20201719 28.1271234,1.27177423 28.2099414,1.66448055 C28.8484614,4.70020371 29.5091084,7.73140557 30.1710197,10.7619615 L25.5035015,7.76886769 C25.5762043,7.59705868 25.607182,7.39553833 25.5964346,7.16753615 C25.5875839,6.65921399 25.4510291,6.27038307 25.1905635,6.01460724 C24.9515926,5.78143787 24.6215852,5.66517613 24.2062311,5.6780941 C23.541791,5.69359567 23.0809186,6.02106623 22.9298233,6.55716202 L20.0678627,5.65161226 C20.1020014,5.63223531 20.1367723,5.61221245 20.1702788,5.59283549 C22.5953905,4.20350773 25.01987,2.81482586 27.4411885,1.419685 C27.6188362,1.31763303 27.9153371,1.14582402 28.0095346,1.18974512 Z M38.3080408,16.4310131 C38.1550489,16.6906643 38.0026891,16.6706414 37.673314,16.6008844 C37.5601505,16.5769861 37.4488837,16.5543797 37.3439388,16.5498584 C36.0220127,16.494957 34.6773274,16.3851543 33.3775282,16.2792269 L32.8970577,16.2398271 C32.4090008,16.2004273 32.1693977,16.1603816 32.0657173,15.6701446 C31.7945043,14.3932032 31.518866,13.1169076 31.241331,11.8399662 L38.3314321,16.3877379 C38.3238458,16.4019476 38.3168916,16.4161574 38.3080408,16.4310131 Z M26.7931855,27.2846922 L22.2862456,25.6725294 L26.7862314,21.645352 L27.7010219,26.4954042 C27.279978,26.5871218 26.9714654,26.8558156 26.7931855,27.2846922 Z M18.8913421,30.5697322 C18.527196,30.4528246 18.1636822,30.335271 17.8020649,30.214488 C17.5795312,30.1402097 17.4524594,30.0820788 17.4309646,30.074328 C17.4309646,30.074328 17.4467696,30.0019874 17.626946,29.8411586 L22.0068141,25.9224922 L26.6932982,27.5992448 C26.6737001,27.6825657 26.6559986,27.7691161 26.6439868,27.8608337 L26.6427224,27.8756894 C26.6231243,28.1430914 26.6616883,28.3756148 26.7527249,28.5732598 L21.7185318,31.5624783 C20.8018446,31.1846276 19.8314206,30.8720127 18.8913421,30.5697322 Z M9.79464438,21.9276097 C9.87619793,21.8294331 9.94637191,21.7293188 10.0057985,21.6285587 L14.8914251,23.3763601 L16.024324,29.3929051 C15.2366052,28.9026681 14.463427,28.4686242 13.7104791,28.0468525 C12.3815988,27.3014856 11.1260535,26.5974562 9.9830394,25.688031 C9.95711928,25.6673622 9.93056696,25.6486312 9.90338244,25.6299001 L9.26739121,22.3261291 C9.45957941,22.2512048 9.63785926,22.1175039 9.79464438,21.9276097 Z M9.19658502,3.98648582 C9.61383574,4.49932926 9.88062331,5.04252993 10.1410889,5.57087494 C10.2605743,5.8143787 10.3781632,6.05336116 10.5071316,6.28459284 C10.6620201,6.56232921 10.8453575,6.84523277 11.0312238,7.13007403 C11.5110621,7.86769017 12.0067054,8.63049635 11.9599227,9.28543747 C11.9144044,9.91518855 11.2891606,10.3892781 10.626617,10.8917872 C10.2757471,11.1572515 9.91286541,11.4324042 9.62395091,11.7437273 C9.50762646,11.8690316 9.36854289,11.9833557 9.19658502,12.1228698 L9.19658502,3.98648582 Z M23.3401198,8.15059373 C23.5677111,8.34500919 23.8699018,8.44706116 24.2245649,8.44706116 C24.2485884,8.44706116 24.2726119,8.44641526 24.2966354,8.44512347 L25.2816,13.6678591 L19.5880244,11.5467283 L23.3401198,8.15059373 Z M30.3467708,11.5667511 L31.2173075,15.5609877 C31.2362734,15.6488299 31.2432276,15.7392557 31.2558716,15.8884583 C31.2558716,15.8897501 31.2565038,15.8916878 31.2565038,15.8936255 L25.6362631,13.7996224 L24.6196886,8.41024494 C24.9250403,8.35405177 25.1627468,8.23262284 25.3283827,8.04724996 L30.2696426,11.2166741 C30.2955627,11.3335818 30.3208506,11.4504894 30.3467708,11.5667511 Z M25.8158073,14.7484474 C26.9322691,15.1650519 28.0487309,15.5823024 29.1651926,15.9989069 L30.5497063,16.5156258 C30.6913187,16.5685895 30.8291379,16.6312416 31.0187973,16.7171461 L31.0453496,16.7294182 L26.890544,20.4472102 L25.8158073,14.7484474 Z M13.282481,10.1457743 C13.3166197,10.1089581 13.3475974,10.0869976 13.3950123,10.0869976 C13.4607609,10.0869976 13.5581194,10.1283351 13.7376636,10.2265117 C13.8312289,10.2781835 13.9235298,10.3266259 14.010141,10.3589209 C15.5242553,10.9189149 17.0383696,11.4808466 18.5518518,12.0434243 L14.2927335,15.8987927 C14.1131893,14.9409251 13.933645,13.9830576 13.754733,13.0258359 L13.3747819,10.994485 C13.3577126,10.9034133 13.3311603,10.8078203 13.3046079,10.7115815 C13.2262154,10.4306156 13.1863869,10.2529935 13.282481,10.1457743 Z M21.1236334,25.6066478 L16.8651474,29.4161574 L16.4080682,27.037959 C16.1899598,25.9024693 15.9769091,24.7908779 15.765755,23.6896209 L21.1236334,25.6066478 Z M15.6936844,23.313708 C15.5331061,22.4714563 15.37316,21.6337258 15.2151105,20.7966413 C14.9293569,19.2904059 14.6461322,17.7835246 14.3635397,16.2766433 L18.8976641,12.1719581 C21.0857015,12.9851443 23.273739,13.8002683 25.460512,14.6160382 L26.6079515,20.6997565 L21.403065,25.3560392 L15.6936844,23.313708 Z M10.2264356,20.6480847 C10.1992511,20.4827346 10.1353991,20.3290108 10.0405694,20.1894967 L13.6725472,16.9012272 L14.8206189,23.0010931 L10.1486753,21.3288617 C10.2346542,21.09763 10.2624709,20.8663984 10.2264356,20.6480847 Z M9.1080773,17.6394892 L9.1068129,17.17638 C9.1068129,12.9967705 9.1068129,12.8746957 12.4290137,10.2975605 L13.601741,16.5240225 L9.82372549,19.9440552 C9.7541837,19.8826949 9.67768774,19.8258558 9.592341,19.7741839 C9.139055,19.4977394 9.09480114,19.2096686 9.10554851,18.6632384 C9.11187049,18.3215581 9.10997389,17.9805237 9.1080773,17.6394892 Z M31.1256388,33.1423461 C31.1218456,33.3128633 31.1129948,33.4840264 31.104144,33.6538977 C31.0896035,33.9400308 31.0744307,34.225518 31.0826493,34.5103592 C31.0921323,34.887564 31.0181651,34.970239 30.995406,34.9857405 C30.9713824,35.0044716 30.8601156,35.0483927 30.4681528,34.8901476 C29.1240997,34.3450092 27.7421148,33.8418542 26.4056481,33.3548467 C24.9869957,32.837482 23.5234572,32.3039698 22.099115,31.7187857 L26.9354301,28.8471208 C27.1668146,29.0990212 27.5176845,29.2437025 27.9817179,29.2740597 C28.017121,29.2766433 28.052524,29.2779351 28.0872949,29.2779351 C28.4204633,29.2779351 28.7144354,29.1694242 28.9420267,28.9620907 C29.2100787,28.7192329 29.3700248,28.3465494 29.3921517,27.9125056 C29.4066923,27.6192677 29.3573808,27.3576787 29.2499072,27.1387191 L31.2900103,25.2533413 C31.2356412,27.8827943 31.18064,30.5128931 31.1256388,33.1423461 Z M40.9898249,17.016843 C40.9076392,16.25985 40.4524566,15.7825309 39.8411211,15.8096587 C39.2285212,15.8283897 39.0009299,15.4770209 38.6519565,14.9596562 C37.8288347,13.7376161 28.6606986,0 28.6606986,0 C28.6606986,0 12.1944682,1.60699558 11.3675531,1.6857952 L11.1298467,1.71033935 C10.5671904,1.776221 10.1208586,1.82660108 9.73648216,1.30600686 C9.37802586,0.82093705 8.68324021,0.762806181 8.08518085,1.16972226 C7.49091469,1.57340885 7.30694505,2.26839569 7.62683727,2.89879267 C7.82534746,3.29085308 7.88983166,3.54469121 7.71913818,3.92706315 C6.12157371,7.51761316 0,20.8715656 0,20.8715656 C0,20.8715656 8.92916525,33.7959954 10.5684548,36.2090724 C10.8137476,36.5694838 10.9231179,36.8401153 10.7985749,37.2405724 C10.5937427,37.8974512 10.8858182,38.5136384 11.5597413,38.8475679 C11.7671023,38.9502658 11.9744633,39 12.1710768,39 C12.6085579,39 12.9973597,38.7545586 13.2243188,38.3017837 C13.4538067,37.8425498 13.7522042,37.7953992 14.3022165,37.7443732 C16.6950861,37.5234759 19.0866913,37.2954737 21.4789287,37.0661798 C24.4142243,36.7852139 27.3488876,36.5048939 30.2860798,36.2394296 C31.3292065,36.1444825 31.9247371,35.7097928 32.3400912,34.7383614 C34.1020272,30.6226959 35.9455167,26.4598798 37.727683,22.43464 L38.9484574,19.6766533 C38.9844927,19.5946241 39.0186314,19.5119491 39.0527701,19.4292741 C39.266453,18.9073881 39.4358821,18.4959507 40.0781953,18.4378198 C40.3317068,18.4139216 40.5529761,18.2931386 40.7173476,18.0870969 C40.9322949,17.8184031 41.0340788,17.4185919 40.9898249,17.016843 Z" id="Fill-24" fill="#3575FF" mask="url(#mask-2)"></path>
            </g>
        </g>
    </g>
</svg>