<svg xmlns="http://www.w3.org/2000/svg" xmlns:xlink="http://www.w3.org/1999/xlink" width="22" height="22" viewBox="0 0 22 22">
    <defs>
        <path id="a" d="M0 0h10.76v8.13H0z"/>
    </defs>
    <g fill="none" fill-rule="evenodd">
        <circle cx="11" cy="11" r="11" fill="#84A7ED"/>
        <g transform="translate(6.15 7.097)">
            <mask id="b" fill="#fff">
                <use xlink:href="#a"/>
            </mask>
            <path fill="#FFF" d="M.527 3.21c.357-.147.68-.066.948.216.702.736 1.416 1.46 2.097 2.216.246.274.374.248.613-.006C5.811 3.914 7.452 2.207 9.09.495c.055-.058.109-.118.166-.174.405-.396.882-.428 1.244-.084.344.328.355.926-.003 1.307-.778.83-1.567 1.648-2.353 2.471L4.68 7.645c-.622.651-1.013.646-1.632-.009A741.44 741.44 0 0 0 .366 4.813c-.21-.22-.376-.454-.366-.9a.815.815 0 0 1 .527-.703z" mask="url(#b)"/>
        </g>
    </g>
</svg>
