<?xml version="1.0" encoding="UTF-8"?>
<svg width="122px" height="87px" viewBox="0 0 122 87" version="1.1" xmlns="http://www.w3.org/2000/svg" xmlns:xlink="http://www.w3.org/1999/xlink">
    <!-- Generator: Sketch 49.3 (51167) - http://www.bohemiancoding.com/sketch -->
    <title>Group 45</title>
    <desc>Created with Sketch.</desc>
    <defs>
        <linearGradient x1="57.9752066%" y1="36.7219153%" x2="38.9876033%" y2="68.3241252%" id="linearGradient-1">
            <stop stop-color="#00FFFF" stop-opacity="0.1" offset="0%"></stop>
            <stop stop-color="#00FFFF" stop-opacity="0" offset="100%"></stop>
        </linearGradient>
        <linearGradient x1="50%" y1="0%" x2="50%" y2="100%" id="linearGradient-2">
            <stop stop-color="#2A39DD" offset="0%"></stop>
            <stop stop-color="#4B94EF" offset="100%"></stop>
        </linearGradient>
        <linearGradient x1="50%" y1="100%" x2="50%" y2="-2.48949813e-15%" id="linearGradient-3">
            <stop stop-color="#0178FF" offset="0%"></stop>
            <stop stop-color="#0092FF" offset="100%"></stop>
        </linearGradient>
        <linearGradient x1="80.2672126%" y1="18.7836801%" x2="24.9694294%" y2="75.4599873%" id="linearGradient-4">
            <stop stop-color="#0092FF" offset="0%"></stop>
            <stop stop-color="#0092FF" stop-opacity="0.234318388" offset="100%"></stop>
        </linearGradient>
        <linearGradient x1="50%" y1="-2.48949813e-15%" x2="50%" y2="100%" id="linearGradient-5">
            <stop stop-color="#0092FF" offset="0%"></stop>
            <stop stop-color="#0092FF" stop-opacity="0.234318388" offset="100%"></stop>
        </linearGradient>
        <linearGradient x1="21.3762189%" y1="83.0777199%" x2="66.528282%" y2="38.5703246%" id="linearGradient-6">
            <stop stop-color="#0092FF" offset="0%"></stop>
            <stop stop-color="#0178FF" offset="100%"></stop>
        </linearGradient>
    </defs>
    <g id="Page-1" stroke="none" stroke-width="1" fill="none" fill-rule="evenodd">
        <g id="纸贵BaaS_登录后" transform="translate(-1355.000000, -1151.000000)">
            <g id="Group-32" transform="translate(1354.000000, 1136.000000)">
                <g id="Group-45" transform="translate(0.000000, 11.000000)">
                    <g id="Group-12" transform="translate(0.000000, 9.568807)">
                        <polygon id="Shape" fill="url(#linearGradient-1)" fill-rule="nonzero" points="12.9240018 31.4624112 12.9240018 38.8032058 1.48934736 32.0584674 1.48934736 24.7204575"></polygon>
                        <polygon id="Shape" fill="url(#linearGradient-1)" fill-rule="nonzero" transform="translate(18.698063, 32.158984) scale(-1, 1) translate(-18.698063, -32.158984) " points="24.4886734 31.8557254 24.4886734 39.2906125 12.9074525 32.4594217 12.9074525 25.0273552"></polygon>
                        <g id="Group-10">
                            <g id="package-copy-2" transform="translate(1.420358, 5.982314)" fill="url(#linearGradient-2)" fill-rule="nonzero">
                                <path d="M22.990964,6.97109756 C22.9893216,6.880603 22.9783722,6.79120535 22.9553785,6.70619531 C22.9455241,6.66944903 22.9258152,6.63709037 22.9121285,6.60198945 C22.8913247,6.54824117 22.8743531,6.49339598 22.8458847,6.44348686 C22.8261758,6.40893439 22.7977074,6.38096334 22.7741663,6.34915313 C22.7413181,6.30472853 22.7123023,6.25756167 22.6728845,6.21807314 C22.6449636,6.19010209 22.6093781,6.16980937 22.5787198,6.14458059 C22.5365647,6.11057657 22.4976944,6.07273339 22.4500646,6.04476234 C22.4478747,6.04366544 22.4451374,6.04311699 22.4429475,6.04202008 C22.4407576,6.04092318 22.4396627,6.03927783 22.4374728,6.03818092 L12.0355603,0.142323262 C11.7010567,-0.0474410872 11.2915498,-0.0474410872 10.9570462,0.142323262 L5.92252051,2.99866063 C5.92197304,2.99866063 5.92142557,2.99920908 5.9208781,2.99920908 L0.555681117,6.03763247 C0.55349124,6.03872937 0.551848833,6.04092318 0.550206426,6.04202008 C0.548016549,6.04311699 0.545279204,6.04366544 0.543636797,6.04476234 C0.497101925,6.07163649 0.459874028,6.10893121 0.418813846,6.14183833 C0.386513171,6.16761556 0.349832742,6.18845674 0.32136435,6.21752468 C0.280851638,6.25811012 0.250740839,6.30582544 0.217345225,6.35189539 C0.194898993,6.3826087 0.16697807,6.41003129 0.148364121,6.44293841 C0.117158383,6.49668669 0.0979969654,6.55646794 0.0766456713,6.61460384 C0.0651488206,6.64531715 0.04762981,6.67383664 0.0388703047,6.70564685 C0.0164240724,6.78791463 0.00711709804,6.87347313 0.00492722172,6.96067698 C0.00383228356,6.97109756 0,6.98096969 0,6.99193873 L0,19.3321059 C0,19.7275397 0.212418003,20.0922602 0.555681117,20.2869606 L10.9575936,26.1828183 C11.0134355,26.2140801 11.0731096,26.2327274 11.1322363,26.2535686 C11.1607047,26.2639892 11.1875307,26.2804427 11.217094,26.2881211 C11.3085213,26.3128014 11.402686,26.3254158 11.4968507,26.3254158 C11.5910154,26.3254158 11.6851801,26.3128014 11.7766074,26.2886695 C11.8056232,26.2809912 11.8324492,26.2645376 11.8614651,26.254117 C11.9205918,26.2332759 11.9802659,26.2146285 12.0361077,26.1833668 L22.4380203,20.2875091 C22.7812834,20.0928087 22.9937014,19.7280882 22.9937014,19.3326544 L22.9937014,6.99248718 C22.9937014,6.98480886 22.990964,6.97822744 22.990964,6.97109756 Z" id="Shape"></path>
                            </g>
                            <path d="M5.62751345,4.48178953 L17.2168261,7.64673344 C17.5008687,7.72430309 17.5980738,7.76807675 17.6986242,7.8333866 C17.7991747,7.89869645 17.8798834,7.97921028 17.9454362,8.07960254 C18.010989,8.1799948 18.0549975,8.27709372 18.1332538,8.56094794 L21.3277602,20.1481966 C21.4647274,20.6450099 21.1730145,21.1587906 20.6762012,21.2957578 C20.5160691,21.3399049 20.3470551,21.3405068 20.1866126,21.2975014 L8.6021171,18.1923674 C8.31651555,18.1158141 8.21867956,18.0721646 8.11746901,18.0068282 C8.01625845,17.9414917 7.93498776,17.8607178 7.86903212,17.7599096 C7.80307647,17.6591015 7.75882793,17.561535 7.68052525,17.2764081 L4.48188233,5.62905492 C4.34540819,5.13210591 4.63763082,4.618615 5.13457982,4.48214087 C5.29588916,4.43784145 5.46614112,4.4377201 5.62751345,4.48178953 Z" id="Rectangle-6-Copy" fill="#75ACFF" transform="translate(12.904944, 12.889072) rotate(-45.000000) translate(-12.904944, -12.889072) "></path>
                        </g>
                    </g>
                    <g id="Group-11" transform="translate(106.073394, 65.862385)">
                        <polygon id="Shape" fill="url(#linearGradient-1)" fill-rule="nonzero" points="8.75876832 20.8773764 8.75876832 25.6364509 1.31841096 21.2638027 1.31841096 16.5065336"></polygon>
                        <polygon id="Shape" fill="url(#linearGradient-1)" fill-rule="nonzero" transform="translate(12.515863, 21.340664) scale(-1, 1) translate(-12.515863, -21.340664) " points="16.2837259 21.1440596 16.2837259 25.9641346 8.74799991 21.5354389 8.74799991 16.7171924"></polygon>
                        <g id="Group-10">
                            <g id="package-copy-2" transform="translate(0.000000, 4.000000)">
                                <path d="M3.76330215,5.02135117 L11.30597,7.08493836 C11.4900067,7.13528871 11.5529826,7.16368327 11.6181199,7.20603435 C11.6832571,7.24838543 11.7355323,7.30058279 11.7779804,7.36565686 C11.8204285,7.43073093 11.8489169,7.49366444 11.8995414,7.67762598 L13.9792572,15.2349849 C14.0678621,15.5569612 13.8786772,15.889803 13.5567009,15.978408 C13.4529241,16.0069664 13.3434051,16.007306 13.2394531,15.9793918 L5.69991652,13.9548005 C5.5148681,13.9051094 5.45148282,13.8767953 5.38591729,13.834427 C5.32035176,13.7920586 5.26771199,13.7396925 5.22500253,13.6743486 C5.18229307,13.6090048 5.15364901,13.545768 5.10299424,13.360981 L3.02058929,5.76443495 C2.93230344,5.442371 3.12181802,5.10971677 3.44388197,5.02143091 C3.54842343,4.99277346 3.65874639,4.99274592 3.76330215,5.02135117 Z" id="Rectangle-6-Copy" opacity="0.135586504" transform="translate(8.500003, 10.499999) rotate(-45.000000) translate(-8.500003, -10.499999) "></path>
                                <path d="M3.76330215,3.02135117 L11.30597,5.08493836 C11.4900067,5.13528871 11.5529826,5.16368327 11.6181199,5.20603435 C11.6832571,5.24838543 11.7355323,5.30058279 11.7779804,5.36565686 C11.8204285,5.43073093 11.8489169,5.49366444 11.8995414,5.67762598 L13.9792572,13.2349849 C14.0678621,13.5569612 13.8786772,13.889803 13.5567009,13.978408 C13.4529241,14.0069664 13.3434051,14.007306 13.2394531,13.9793918 L5.69991652,11.9548005 C5.5148681,11.9051094 5.45148282,11.8767953 5.38591729,11.834427 C5.32035176,11.7920586 5.26771199,11.7396925 5.22500253,11.6743486 C5.18229307,11.6090048 5.15364901,11.545768 5.10299424,11.360981 L3.02058929,3.76443495 C2.93230344,3.442371 3.12181802,3.10971677 3.44388197,3.02143091 C3.54842343,2.99277346 3.65874639,2.99274592 3.76330215,3.02135117 Z" id="Rectangle-6-Copy" fill="url(#linearGradient-4)" transform="translate(8.500003, 8.499999) rotate(-45.000000) translate(-8.500003, -8.499999) "></path>
                                <path d="M3.76330215,6.02135117 L11.30597,8.08493836 C11.4900067,8.13528871 11.5529826,8.16368327 11.6181199,8.20603435 C11.6832571,8.24838543 11.7355323,8.30058279 11.7779804,8.36565686 C11.8204285,8.43073093 11.8489169,8.49366444 11.8995414,8.67762598 L13.9792572,16.2349849 C14.0678621,16.5569612 13.8786772,16.889803 13.5567009,16.978408 C13.4529241,17.0069664 13.3434051,17.007306 13.2394531,16.9793918 L5.69991652,14.9548005 C5.5148681,14.9051094 5.45148282,14.8767953 5.38591729,14.834427 C5.32035176,14.7920586 5.26771199,14.7396925 5.22500253,14.6743486 C5.18229307,14.6090048 5.15364901,14.545768 5.10299424,14.360981 L3.02058929,6.76443495 C2.93230344,6.442371 3.12181802,6.10971677 3.44388197,6.02143091 C3.54842343,5.99277346 3.65874639,5.99274592 3.76330215,6.02135117 Z" id="Rectangle-6-Copy" fill="url(#linearGradient-4)" transform="translate(8.500003, 11.499999) rotate(-45.000000) translate(-8.500003, -11.499999) "></path>
                                <path d="M15.9598739,4.519398 C15.9588052,4.46072991 15.9516806,4.40277296 15.9367189,4.34766052 C15.9303068,4.32383772 15.9174825,4.30285943 15.9085768,4.28010333 C15.89504,4.24525804 15.8839969,4.20970163 15.8654729,4.17734529 C15.8526487,4.15494475 15.8341247,4.13681098 15.8188068,4.11618826 C15.797433,4.08738757 15.7785528,4.05680905 15.7529043,4.03120843 C15.7347366,4.01307466 15.7115816,3.99991879 15.6916328,3.98356284 C15.6642031,3.96151786 15.6389107,3.93698393 15.6079187,3.91885016 C15.6064938,3.91813904 15.6047127,3.91778347 15.6032877,3.91707234 C15.6018628,3.91636121 15.6011504,3.91529452 15.5997254,3.91458339 L8.83135771,0.0922688942 C8.61370125,-0.0307562981 8.3472413,-0.0307562981 8.12958484,0.0922688942 L4.85369485,1.94404693 C4.85333862,1.94404693 4.85298239,1.9444025 4.85262616,1.9444025 L1.36157333,3.91422783 C1.36014841,3.91493896 1.35907972,3.91636121 1.35801103,3.91707234 C1.35658611,3.91778347 1.35480496,3.91813904 1.35373627,3.91885016 C1.32345673,3.93627281 1.2992331,3.96045117 1.27251586,3.98178502 C1.2514983,3.99849653 1.22763089,4.01200797 1.20910694,4.03085287 C1.18274593,4.05716461 1.16315329,4.08809869 1.14142326,4.11796608 C1.12681784,4.13787767 1.10865011,4.15565588 1.0965383,4.17698973 C1.07623319,4.21183501 1.06376515,4.25059151 1.04987218,4.2882813 C1.04239136,4.3081929 1.030992,4.32668223 1.02529232,4.34730495 C1.0106869,4.40063957 1.00463099,4.45610758 1.00320607,4.51264228 C1.00249361,4.519398 1,4.52579815 1,4.53290943 L1,12.5331026 C1,12.7894643 1.13821719,13.0259145 1.36157333,13.1521397 L8.12994107,16.9744542 C8.16627652,16.9947214 8.20510557,17.0068106 8.2435784,17.020322 C8.26210236,17.0270777 8.27955762,17.0377447 8.29879403,17.0427226 C8.35828442,17.0587229 8.41955596,17.0669009 8.4808275,17.0669009 C8.54209904,17.0669009 8.60337058,17.0587229 8.66286097,17.0430781 C8.68174116,17.0381002 8.69919642,17.0274333 8.7180766,17.0206776 C8.75654943,17.0071661 8.79537849,16.995077 8.83171394,16.9748098 L15.6000817,13.1524953 C15.8234378,13.02627 15.961655,12.7898199 15.961655,12.5334581 L15.961655,4.533265 C15.961655,4.5282871 15.9598739,4.52402033 15.9598739,4.519398 Z" id="Shape" fill="url(#linearGradient-5)" fill-rule="nonzero"></path>
                            </g>
                            <path d="M3.76330215,3.02135117 L11.30597,5.08493836 C11.4900067,5.13528871 11.5529826,5.16368327 11.6181199,5.20603435 C11.6832571,5.24838543 11.7355323,5.30058279 11.7779804,5.36565686 C11.8204285,5.43073093 11.8489169,5.49366444 11.8995414,5.67762598 L13.9792572,13.2349849 C14.0678621,13.5569612 13.8786772,13.889803 13.5567009,13.978408 C13.4529241,14.0069664 13.3434051,14.007306 13.2394531,13.9793918 L5.69991652,11.9548005 C5.5148681,11.9051094 5.45148282,11.8767953 5.38591729,11.834427 C5.32035176,11.7920586 5.26771199,11.7396925 5.22500253,11.6743486 C5.18229307,11.6090048 5.15364901,11.545768 5.10299424,11.360981 L3.02058929,3.76443495 C2.93230344,3.442371 3.12181802,3.10971677 3.44388197,3.02143091 C3.54842343,2.99277346 3.65874639,2.99274592 3.76330215,3.02135117 Z" id="Rectangle-6-Copy" fill="url(#linearGradient-6)" transform="translate(8.500003, 8.499999) rotate(-45.000000) translate(-8.500003, -8.499999) "></path>
                        </g>
                    </g>
                    <g id="Group-12-Copy" transform="translate(94.788991, 0.541284)">
                        <polygon id="Shape" fill="url(#linearGradient-1)" fill-rule="nonzero" points="6.96200092 16.2312056 6.96200092 19.9016029 1.24467368 16.5292337 1.24467368 12.8602288"></polygon>
                        <polygon id="Shape" fill="url(#linearGradient-1)" fill-rule="nonzero" transform="translate(9.849031, 16.579492) scale(-1, 1) translate(-9.849031, -16.579492) " points="12.7443367 16.4278627 12.7443367 20.1453062 6.95372625 16.7297109 6.95372625 13.0136776"></polygon>
                        <g id="Group-10" transform="translate(0.000000, -0.000000)">
                            <g id="package-copy-2" transform="translate(1.210179, 3.491157)" fill="url(#linearGradient-2)" fill-rule="nonzero">
                                <path d="M11.495482,3.48554878 C11.4946608,3.4403015 11.4891861,3.39560267 11.4776893,3.35309765 C11.472762,3.33472451 11.4629076,3.31854518 11.4560642,3.30099472 C11.4456623,3.27412058 11.4371766,3.24669799 11.4229424,3.22174343 C11.4130879,3.20446719 11.3988537,3.19048167 11.3870831,3.17457657 C11.3706591,3.15236427 11.3561511,3.12878084 11.3364422,3.10903657 C11.3224818,3.09505105 11.304689,3.08490469 11.2893599,3.07229029 C11.2682823,3.05528828 11.2488472,3.03636669 11.2250323,3.02238117 C11.2239374,3.02183272 11.2225687,3.02155849 11.2214737,3.02101004 C11.2203788,3.02046159 11.2198313,3.01963891 11.2187364,3.01909046 L6.01778013,0.0711616308 C5.85052833,-0.0237205436 5.64577489,-0.0237205436 5.47852309,0.0711616308 L2.96126026,1.49933031 C2.96098652,1.49933031 2.96071279,1.49960454 2.96043905,1.49960454 L0.277840558,3.01881623 C0.27674562,3.01936469 0.275924417,3.02046159 0.275103213,3.02101004 C0.274008275,3.02155849 0.272639602,3.02183272 0.271818398,3.02238117 C0.248550962,3.03581824 0.229937014,3.05446561 0.209406923,3.07091916 C0.193256585,3.08380778 0.174916371,3.09422837 0.160682175,3.10876234 C0.140425819,3.12905506 0.125370419,3.15291272 0.108672612,3.1759477 C0.0974494963,3.19130435 0.0834890348,3.20501565 0.0741820604,3.2214692 C0.0585791916,3.24834334 0.0489984827,3.27823397 0.0383228356,3.30730192 C0.0325744103,3.32265857 0.023814905,3.33691832 0.0194351524,3.35282343 C0.00821203621,3.39395732 0.00355854902,3.43673656 0.00246361086,3.48033849 C0.00191614178,3.48554878 0,3.49048485 0,3.49596937 L0,9.66605296 C0,9.86376986 0.106209002,10.0461301 0.277840558,10.1434803 L5.47879682,13.0914092 C5.50671774,13.10704 5.53655481,13.1163637 5.56611814,13.1267843 C5.58035234,13.1319946 5.59376533,13.1402214 5.60854699,13.1440605 C5.65426066,13.1564007 5.701343,13.1627079 5.74842534,13.1627079 C5.79550768,13.1627079 5.84259003,13.1564007 5.88830369,13.1443348 C5.90281162,13.1404956 5.91622462,13.1322688 5.93073255,13.1270585 C5.96029588,13.1166379 5.99013294,13.1073143 6.01805387,13.0916834 L11.2190101,10.1437545 C11.3906417,10.0464043 11.4968507,9.86404409 11.4968507,9.66632719 L11.4968507,3.49624359 C11.4968507,3.49240443 11.495482,3.48911372 11.495482,3.48554878 Z" id="Shape"></path>
                            </g>
                            <path d="M3.31375672,2.74089476 L9.10841305,4.32336672 C9.25043436,4.36215155 9.29903688,4.38403837 9.34931211,4.4166933 C9.39958734,4.44934822 9.43994171,4.48960514 9.4727181,4.53980127 C9.50549449,4.5899974 9.52749877,4.63854686 9.56662688,4.78047397 L11.1638801,10.5740983 C11.2323637,10.822505 11.0865073,11.0793953 10.8381006,11.1478789 C10.7580345,11.1699524 10.6735276,11.1702534 10.5933063,11.1487507 L4.80105855,9.59618371 C4.65825778,9.55790707 4.60933978,9.53608228 4.5587345,9.50341408 C4.50812923,9.47074587 4.46749388,9.43035888 4.43451606,9.37995482 C4.40153824,9.32955076 4.37941397,9.28076748 4.34026262,9.13820404 L2.74094116,3.31452746 C2.6727041,3.06605296 2.81881541,2.8093075 3.06728991,2.74107043 C3.14794458,2.71892073 3.23307056,2.71886005 3.31375672,2.74089476 Z" id="Rectangle-6-Copy" fill="#75ACFF" transform="translate(6.952472, 6.944536) rotate(-45.000000) translate(-6.952472, -6.944536) "></path>
                        </g>
                    </g>
                </g>
            </g>
        </g>
    </g>
</svg>