<?xml version="1.0" encoding="UTF-8"?>
<svg width="65px" height="58px" viewBox="0 0 65 58" version="1.1" xmlns="http://www.w3.org/2000/svg" xmlns:xlink="http://www.w3.org/1999/xlink">
    <!-- Generator: Sketch 49.3 (51167) - http://www.bohemiancoding.com/sketch -->
    <title>Group 10</title>
    <desc>Created with Sketch.</desc>
    <defs>
        <linearGradient x1="45.1010682%" y1="14.3384797%" x2="59.4412202%" y2="93.2973786%" id="linearGradient-1">
            <stop stop-color="#75ACFF" offset="0%"></stop>
            <stop stop-color="#9AA2FF" offset="100%"></stop>
        </linearGradient>
        <linearGradient x1="45.1010682%" y1="14.3384797%" x2="59.4412202%" y2="93.2973786%" id="linearGradient-2">
            <stop stop-color="#84BAF5" offset="0%"></stop>
            <stop stop-color="#DBEBFA" offset="100%"></stop>
        </linearGradient>
    </defs>
    <g id="Page-1" stroke="none" stroke-width="1" fill="none" fill-rule="evenodd">
        <g id="纸贵BaaS_登录后" transform="translate(-1388.000000, -1223.000000)">
            <g id="Group-32" transform="translate(1354.000000, 1136.000000)">
                <g id="Group-10" transform="translate(32.596330, 73.706422)">
                    <path d="M17.8707716,27.9781312 L43.1148627,35.0962915 C43.9612807,35.3349588 44.6188586,36.0026796 44.8445429,36.8526514 L51.7892081,63.0076331 C52.1418815,64.3358708 51.3510304,65.6985184 50.0227927,66.0511918 C49.5972598,66.1641792 49.1493672,66.1622383 48.7248296,66.045567 L23.5453697,59.1257608 C22.6920635,58.8912556 22.0275087,58.2212001 21.8000452,57.3659899 L14.7907488,31.0126542 C14.4375122,29.6845662 15.2277854,28.3215833 16.5558734,27.9683467 C16.9871211,27.8536461 17.4412786,27.8570256 17.8707716,27.9781312 Z" id="Rectangle-6-Copy" fill="url(#linearGradient-2)" opacity="0.600000024" transform="translate(33.289843, 47.009634) rotate(-45.000000) translate(-33.289843, -47.009634) "></path>
                    <path d="M21.5826728,44.6004812 L40.7406731,49.8436425 C41.3769731,50.0177851 41.874059,50.5149238 42.048134,51.1512423 L47.2891564,70.309418 C47.5611263,71.3035841 46.9756706,72.3299902 45.9815044,72.6019601 C45.6630175,72.6890873 45.3271163,72.6901562 45.0080813,72.6050579 L25.8990761,67.5079876 C25.2577782,67.33693 24.7555858,66.8381409 24.5801715,66.198021 L19.2901539,46.8937543 C19.0177514,45.8997065 19.6027605,44.8730458 20.5968082,44.6006433 C20.9194745,44.5122219 21.2599774,44.5121659 21.5826728,44.6004812 Z" id="Rectangle-6-Copy" fill="url(#linearGradient-2)" opacity="0.400000006" transform="translate(33.289548, 58.601194) rotate(-45.000000) translate(-33.289548, -58.601194) "></path>
                    <path d="M14.1459486,10.3227783 L46.3281251,19.1287773 C47.3871126,19.4185478 48.2148882,20.2451544 48.506155,21.3037312 L57.3812094,53.5591337 C57.8369323,55.215408 56.8636931,56.9275199 55.2074188,57.3832428 C54.6735825,57.5301275 54.110214,57.5318532 53.5754879,57.3882416 L21.4043873,48.7480371 C20.3379322,48.4616188 19.5032842,47.6312462 19.211393,46.5662761 L10.3252626,14.1450791 C9.87118088,12.4883542 10.8461158,10.7772072 12.5028408,10.3231255 C13.0406111,10.1757313 13.608116,10.1756113 14.1459486,10.3227783 Z" id="Rectangle-6-Copy" fill="url(#linearGradient-1)" transform="translate(33.853645, 33.853592) rotate(-45.000000) translate(-33.853645, -33.853592) "></path>
                </g>
            </g>
        </g>
    </g>
</svg>