<?xml version="1.0" encoding="UTF-8"?>
<svg width="117px" height="170px" viewBox="0 0 117 170" version="1.1" xmlns="http://www.w3.org/2000/svg" xmlns:xlink="http://www.w3.org/1999/xlink">
    <!-- Generator: Sketch 49.3 (51167) - http://www.bohemiancoding.com/sketch -->
    <title>Group 5</title>
    <desc>Created with Sketch.</desc>
    <defs>
        <linearGradient x1="92.6907264%" y1="104.86679%" x2="-10.9639105%" y2="-28.3566341%" id="linearGradient-1">
            <stop stop-color="#F6F9FC" offset="0%"></stop>
            <stop stop-color="#FFFFFF" offset="100%"></stop>
        </linearGradient>
        <linearGradient x1="3288%" y1="2111.89074%" x2="619%" y2="132.315664%" id="linearGradient-2">
            <stop stop-color="#F6F9FC" offset="0%"></stop>
            <stop stop-color="#FFFFFF" offset="100%"></stop>
        </linearGradient>
        <linearGradient x1="46419.4191%" y1="68803%" x2="51901.4298%" y2="75970%" id="linearGradient-3">
            <stop stop-color="#2A39DD" offset="0%"></stop>
            <stop stop-color="#2449E7" offset="28%"></stop>
            <stop stop-color="#1670FF" offset="100%"></stop>
        </linearGradient>
        <radialGradient cx="54.0490723%" cy="54.4302446%" fx="54.0490723%" fy="54.4302446%" r="139.782203%" gradientTransform="translate(0.540491,0.544302),scale(0.580280,1.000000),rotate(158.207832),translate(-0.540491,-0.544302)" id="radialGradient-4">
            <stop stop-color="#FFFFFF" stop-opacity="0.5" offset="0%"></stop>
            <stop stop-color="#FFFFFF" stop-opacity="0" offset="100%"></stop>
        </radialGradient>
        <polygon id="path-5" points="114.411932 95.4032732 57.1994318 128.59216 0 95.4032732 57.1994318 62.201253"></polygon>
        <linearGradient x1="3484.58471%" y1="6691%" x2="1352.72408%" y2="9341%" id="linearGradient-6">
            <stop stop-color="#5340DB" offset="0%"></stop>
            <stop stop-color="#E4BCFF" offset="100%"></stop>
        </linearGradient>
        <linearGradient x1="1513.3937%" y1="5292%" x2="1418.13727%" y2="9201%" id="linearGradient-7">
            <stop stop-color="#8271FF" offset="0%"></stop>
            <stop stop-color="#E4BCFF" offset="100%"></stop>
        </linearGradient>
        <linearGradient x1="1395%" y1="839.615419%" x2="996%" y2="795.925978%" id="linearGradient-8">
            <stop stop-color="#5340DB" offset="0%"></stop>
            <stop stop-color="#E4BCFF" offset="100%"></stop>
        </linearGradient>
        <linearGradient x1="465.887634%" y1="6582%" x2="2019.38517%" y2="9594%" id="linearGradient-9">
            <stop stop-color="#5340DB" offset="0%"></stop>
            <stop stop-color="#E4BCFF" offset="100%"></stop>
        </linearGradient>
        <linearGradient x1="94.3672275%" y1="12.5925926%" x2="-68.8002926%" y2="152.804233%" id="linearGradient-10">
            <stop stop-color="#5340DB" offset="0%"></stop>
            <stop stop-color="#E4BCFF" offset="100%"></stop>
        </linearGradient>
        <linearGradient x1="51.3664337%" y1="17.6775205%" x2="46.7395246%" y2="127.641465%" id="linearGradient-11">
            <stop stop-color="#8271FF" offset="0%"></stop>
            <stop stop-color="#E4BCFF" offset="100%"></stop>
        </linearGradient>
        <linearGradient x1="1443%" y1="930.555941%" x2="1044%" y2="886.8665%" id="linearGradient-12">
            <stop stop-color="#5340DB" offset="0%"></stop>
            <stop stop-color="#E4BCFF" offset="100%"></stop>
        </linearGradient>
        <linearGradient x1="480.126298%" y1="7348%" x2="2033.62383%" y2="10360%" id="linearGradient-13">
            <stop stop-color="#5340DB" offset="0%"></stop>
            <stop stop-color="#E4BCFF" offset="100%"></stop>
        </linearGradient>
        <linearGradient x1="2946.21109%" y1="5859%" x2="3560.74729%" y2="5029%" id="linearGradient-14">
            <stop stop-color="#168B9C" stop-opacity="0.5" offset="0%"></stop>
            <stop stop-color="#07A687" offset="100%"></stop>
        </linearGradient>
        <linearGradient x1="1064.94926%" y1="5824%" x2="196.663175%" y2="6653%" id="linearGradient-15">
            <stop stop-color="#168B9C" stop-opacity="0.5" offset="0%"></stop>
            <stop stop-color="#07A687" offset="100%"></stop>
        </linearGradient>
        <linearGradient x1="107252%" y1="20922%" x2="107252%" y2="41006%" id="linearGradient-16">
            <stop stop-color="#08DCCE" offset="0%"></stop>
            <stop stop-color="#08DCCE" stop-opacity="0" offset="100%"></stop>
        </linearGradient>
        <linearGradient x1="112049%" y1="20922%" x2="112049%" y2="41006%" id="linearGradient-17">
            <stop stop-color="#08DCCE" offset="0%"></stop>
            <stop stop-color="#08DCCE" stop-opacity="0" offset="100%"></stop>
        </linearGradient>
        <linearGradient x1="109098%" y1="20922%" x2="109098%" y2="41006%" id="linearGradient-18">
            <stop stop-color="#08DCCE" offset="0%"></stop>
            <stop stop-color="#08DCCE" stop-opacity="0" offset="100%"></stop>
        </linearGradient>
        <linearGradient x1="106401%" y1="20922%" x2="106401%" y2="41006%" id="linearGradient-19">
            <stop stop-color="#08DCCE" offset="0%"></stop>
            <stop stop-color="#08DCCE" stop-opacity="0" offset="100%"></stop>
        </linearGradient>
        <linearGradient x1="106233%" y1="20922%" x2="106233%" y2="41006%" id="linearGradient-20">
            <stop stop-color="#08DCCE" offset="0%"></stop>
            <stop stop-color="#08DCCE" stop-opacity="0" offset="100%"></stop>
        </linearGradient>
        <linearGradient x1="104162%" y1="20922%" x2="104162%" y2="41006%" id="linearGradient-21">
            <stop stop-color="#08DCCE" offset="0%"></stop>
            <stop stop-color="#08DCCE" stop-opacity="0" offset="100%"></stop>
        </linearGradient>
        <linearGradient x1="99748%" y1="20922%" x2="99748%" y2="41006%" id="linearGradient-22">
            <stop stop-color="#08DCCE" offset="0%"></stop>
            <stop stop-color="#08DCCE" stop-opacity="0" offset="100%"></stop>
        </linearGradient>
        <linearGradient x1="100317%" y1="20922%" x2="100317%" y2="41006%" id="linearGradient-23">
            <stop stop-color="#08DCCE" offset="0%"></stop>
            <stop stop-color="#08DCCE" stop-opacity="0" offset="100%"></stop>
        </linearGradient>
        <linearGradient x1="97610%" y1="20922%" x2="97610%" y2="41006%" id="linearGradient-24">
            <stop stop-color="#08DCCE" offset="0%"></stop>
            <stop stop-color="#08DCCE" stop-opacity="0" offset="100%"></stop>
        </linearGradient>
        <linearGradient x1="97442%" y1="20922%" x2="97442%" y2="41006%" id="linearGradient-25">
            <stop stop-color="#08DCCE" offset="0%"></stop>
            <stop stop-color="#08DCCE" stop-opacity="0" offset="100%"></stop>
        </linearGradient>
        <linearGradient x1="95371%" y1="20922%" x2="95371%" y2="41006%" id="linearGradient-26">
            <stop stop-color="#08DCCE" offset="0%"></stop>
            <stop stop-color="#08DCCE" stop-opacity="0" offset="100%"></stop>
        </linearGradient>
    </defs>
    <g id="Page-1" stroke="none" stroke-width="1" fill="none" fill-rule="evenodd">
        <g id="纸贵BaaS_登录后" transform="translate(-902.000000, -3562.000000)">
            <g id="Group-5" transform="translate(903.000000, 3562.000000)">
                <g id="Group-21" transform="translate(0.000000, 0.802083)">
                    <path d="M114.495138,134.86537 L57.5317975,102.018987 L0.529253333,134.86537 C-0.176417778,135.256864 -0.176417778,136.27475 0.529253333,136.666244 L56.1596592,168.729638 C57.0221462,169.199432 58.0414489,169.199432 58.9039358,168.729638 L114.534342,136.666244 C115.161605,136.27475 115.161605,135.296014 114.495138,134.86537 Z" id="Shape" fill-opacity="0.5" fill="#DFE8F0"></path>
                    <g id="Group" opacity="0.5" transform="translate(0.000000, 87.571906)" stroke="#4E87FF" stroke-width="0.72">
                        <path d="M66.8781881,5.70748902 L8.51851852,39.5165171 M76.6113146,11.3554009 L18.2516449,45.164429 M86.344441,16.9640912 L27.9847713,50.7731193 M96.0775674,22.6120031 L37.7178978,56.4210312 M105.771605,28.259915 L47.4119353,62.0689431" id="Shape"></path>
                        <g transform="translate(8.518519, 5.707489)" id="Shape">
                            <path d="M38.8623333,0.0782797973 L96.9418765,33.8168724 M29.2148272,5.7144252 L87.2943704,39.4530178 M19.5284198,11.3114307 L77.607963,45.0500233 M9.84201235,16.9475761 L67.9215556,50.6861687 M0.155604938,22.5837215 L58.2351481,56.3223141"></path>
                        </g>
                        <path d="M114.495138,32.8463827 L57.5317975,0 L0.529253333,32.8463827 C-0.176417778,33.2378772 -0.176417778,34.2557627 0.529253333,34.6472571 L56.1596592,66.710651 C57.0221462,67.1804443 58.0414489,67.1804443 58.9039358,66.710651 L114.534342,34.6472571 C115.161605,34.2557627 115.161605,33.2770266 114.495138,32.8463827 Z" id="Shape"></path>
                    </g>
                    <g id="icon-techstack">
                        <polygon id="Shape" fill="#FFFFFF" fill-rule="nonzero" points="114.411932 99.5797932 57.1994318 132.76868 0 99.5797932 57.1994318 66.3909067"></polygon>
                        <polygon id="Shape" fill="url(#linearGradient-1)" fill-rule="nonzero" points="114.411932 99.5797932 57.1994318 66.3909067 57.1994318 0 114.411932 33.1888865 114.411932 99.5797932"></polygon>
                        <polygon id="Shape" fill="url(#linearGradient-2)" fill-rule="nonzero" points="57.1994318 66.3909067 0 99.5797932 0 33.1888865 57.1994318 0"></polygon>
                        <polygon id="Shape" fill="url(#linearGradient-3)" fill-rule="nonzero" points="114.411932 95.4032732 114.411932 99.5797932 57.1994318 132.76868 0 99.5797932 0 95.4032732 57.1994318 66.3909067 114.411932 95.4032732"></polygon>
                        <g id="Shape" fill-rule="nonzero">
                            <use fill="#0169FE" fill-rule="evenodd" xlink:href="#path-5"></use>
                            <use fill="url(#radialGradient-4)" fill-rule="evenodd" xlink:href="#path-5"></use>
                        </g>
                        <g id="Group" transform="translate(16.531250, 60.677743)">
                            <path d="M0.784090909,26.7796358 L0.784090909,24.1528937 C0.880594082,25.2234007 1.54542446,26.1578257 2.52215909,26.5957638 L2.52215909,29.2225059 C1.54542446,28.7845678 0.880594082,27.8501428 0.784090909,26.7796358 Z" id="Shape"></path>
                            <path d="M80.9051136,24.8095792 C80.8371907,25.0043644 80.7449788,25.1897131 80.6306818,25.361195 L80.6306818,25.453131 C80.4920187,25.6398509 80.3343466,25.8115187 80.1602273,25.9653457 C80.0264737,26.0736988 79.8868671,26.1745442 79.7420455,26.267421 C79.6244318,26.359357 79.5198864,26.451293 79.3761364,26.5300953 L45.1767045,46.5327364 L45.1767045,49.1594785 L79.2846591,29.2225059 L79.35,29.2225059 C79.4676136,29.1568374 79.5460227,29.0780351 79.6505682,28.9992328 C79.7909869,28.9060422 79.926227,28.8051997 80.0556818,28.6971575 C80.1877901,28.5757143 80.3101408,28.443967 80.4215909,28.3031462 L80.4215909,28.1192742 L80.5261364,27.9616697 C80.5866416,27.8563895 80.6390665,27.7466234 80.6829545,27.6333269 L80.6829545,27.5151235 C80.6862557,27.4451164 80.6862557,27.3749913 80.6829545,27.3049842 C80.6925952,27.1913649 80.6925952,27.077127 80.6829545,26.9635077 L80.6829545,24.3367656 C80.7767962,24.4841876 80.8514571,24.6430857 80.9051136,24.8095792 Z" id="Shape" fill="url(#linearGradient-6)" fill-rule="nonzero"></path>
                            <path d="M79.2585227,21.7625583 L44.9284091,1.83871947 C42.3178707,0.500818682 39.2275839,0.500818682 36.6170455,1.83871947 L2.49602273,21.7625583 C0.209090909,23.0759294 0.222159091,25.269259 2.49602273,26.5957638 L36.8653409,46.5196027 C39.4758793,47.8575035 42.5661661,47.8575035 45.1767045,46.5196027 L79.2977273,26.5957638 C81.5846591,25.269259 81.5585227,23.1021968 79.2585227,21.7625583 Z" id="Shape" fill="url(#linearGradient-7)" fill-rule="nonzero"></path>
                            <path d="M0.797159091,24.1660274 L0.797159091,26.7927695 C0.893662264,27.8632765 1.55849264,28.7977015 2.53522727,29.2356396 L2.53522727,26.6088975 C1.55849264,26.1709594 0.893662264,25.2365344 0.797159091,24.1660274 Z" id="Shape" fill="url(#linearGradient-8)" fill-rule="nonzero"></path>
                            <path d="M44.0267045,47.0449511 L43.5823864,47.1762882 L42.9943182,47.2813579 L42.2755682,47.3995613 L39.8318182,47.3995613 C39.5157101,47.3632062 39.2016623,47.3106024 38.8909091,47.2419568 L38.7210227,47.2419568 C38.4467554,47.1732015 38.1763014,47.0899048 37.9107955,46.9924163 L37.7670455,46.9924163 C37.456157,46.875869 37.1546919,46.735358 36.8653409,46.5721375 L2.53522727,26.5957638 L2.53522727,29.2225059 L36.8653409,49.1463448 C37.1381651,49.3028151 37.4220756,49.4388976 37.7147727,49.5534898 L37.8585227,49.5534898 L38.38125,49.7373618 L38.66875,49.8030303 L38.9954545,49.8030303 L39.5835227,49.9081 L42.2232955,49.9081 L42.7329545,49.8424314 L42.9420455,49.8424314 L43.5301136,49.6979606 L43.84375,49.6191584 L43.9744318,49.6191584 C44.3732636,49.4859864 44.758381,49.3144536 45.1244318,49.1069436 L45.1244318,46.4802015 C44.7770563,46.7028107 44.4095107,46.8919024 44.0267045,47.0449511 Z" id="Shape" fill="url(#linearGradient-9)" fill-rule="nonzero"></path>
                        </g>
                        <g id="Group" transform="translate(17.250000, 44.785953)">
                            <path d="M0.104545455,26.3330896 L0.104545455,23.7063475 C0.201048628,24.7768546 0.865879003,25.7112795 1.84261364,26.1492177 L1.84261364,28.7759598 C0.865879003,28.3380216 0.201048628,27.4035967 0.104545455,26.3330896 Z" id="Shape"></path>
                            <path d="M80.2255682,24.363033 C80.1576453,24.5578183 80.0654333,24.7431669 79.9511364,24.9146489 L79.9511364,25.0065848 C79.8124732,25.1933047 79.6548012,25.3649726 79.4806818,25.5187995 C79.3469282,25.6271526 79.2073216,25.727998 79.0625,25.8208749 C78.9448864,25.9128109 78.8403409,26.0047468 78.6965909,26.0835491 L44.4971591,46.0861902 L44.4971591,48.7129323 L78.6051136,28.7759598 L78.6704545,28.7759598 C78.7880682,28.7102912 78.8664773,28.6314889 78.9710227,28.5526867 C79.1114415,28.459496 79.2466815,28.3586535 79.3761364,28.2506113 C79.5082446,28.1291681 79.6305953,27.9974208 79.7420455,27.8566 L79.7420455,27.6727281 L79.8465909,27.5151235 C79.9070962,27.4098433 79.959521,27.3000772 80.0034091,27.1867808 L80.0034091,27.0685774 C80.0067102,26.9985702 80.0067102,26.9284452 80.0034091,26.858438 C80.0130497,26.7448187 80.0130497,26.6305809 80.0034091,26.5169615 L80.0034091,23.8902194 C80.0972508,24.0376414 80.1719116,24.1965396 80.2255682,24.363033 Z" id="Shape" fill="url(#linearGradient-10)" fill-rule="nonzero"></path>
                            <path d="M78.5789773,21.3160122 L44.2488636,1.39217332 C41.6383252,0.0542725244 38.5480384,0.0542725244 35.9375,1.39217332 L1.81647727,21.3160122 C-0.470454545,22.6293832 -0.457386364,24.8227129 1.81647727,26.1492177 L36.1857955,46.0730565 C38.7963339,47.4109573 41.8866207,47.4109573 44.4971591,46.0730565 L78.6181818,26.1492177 C80.9051136,24.8227129 80.8789773,22.6556507 78.5789773,21.3160122 Z" id="Shape" fill="url(#linearGradient-11)" fill-rule="nonzero"></path>
                            <path d="M0.117613636,23.7194812 L0.117613636,26.3462233 C0.214116809,27.4167304 0.878947184,28.3511553 1.85568182,28.7890935 L1.85568182,26.1623514 C0.878947184,25.7244132 0.214116809,24.7899883 0.117613636,23.7194812 Z" id="Shape" fill="url(#linearGradient-12)" fill-rule="nonzero"></path>
                            <path d="M43.3471591,46.5984049 L42.9028409,46.729742 L42.3147727,46.8742129 L41.5960227,46.9924163 L39.2045455,46.9924163 C38.8884373,46.9560612 38.5743896,46.9034574 38.2636364,46.8348117 L38.09375,46.8348117 C37.8194827,46.7660564 37.5490286,46.6827597 37.2835227,46.5852712 L37.1397727,46.5852712 C36.8288842,46.4687239 36.5274191,46.328213 36.2380682,46.1649925 L1.85568182,26.1492177 L1.85568182,28.7759598 L36.1857955,48.6997986 C36.4586196,48.856269 36.7425301,48.9923514 37.0352273,49.1069436 L37.1789773,49.1069436 L37.7017045,49.2908156 L37.9892045,49.3564841 L38.3159091,49.3564841 L38.9039773,49.4615538 L41.54375,49.4615538 L42.0534091,49.3958853 L42.2625,49.3958853 L42.8505682,49.2514145 L43.1642045,49.1726122 L43.2948864,49.1726122 C43.6937181,49.0394403 44.0788355,48.8679074 44.4448864,48.6603975 L44.4448864,46.0336554 C44.0975109,46.2562645 43.7299653,46.4453563 43.3471591,46.5984049 Z" id="Shape" fill="url(#linearGradient-13)" fill-rule="nonzero"></path>
                        </g>
                        <g id="Group" transform="translate(16.400568, 24.822713)">
                            <path d="M0.0653409091,26.359357 L0.0653409091,23.7326149 C0.161844082,24.803122 0.826674457,25.7375469 1.80340909,26.1754851 L1.80340909,28.8022272 C0.826674457,28.364289 0.161844082,27.4298641 0.0653409091,26.359357 Z" id="Shape"></path>
                            <path d="M80.1732955,24.3893004 C80.1053725,24.5840857 80.0131606,24.7694343 79.8988636,24.9409163 L79.8988636,25.0328523 C79.7602005,25.2195721 79.6025285,25.39124 79.4284091,25.545067 C79.2946555,25.6534201 79.1550489,25.7542654 79.0102273,25.8471423 C78.8926136,25.9390783 78.7880682,26.0310143 78.6443182,26.1098165 L44.4579545,46.1124576 L44.4579545,48.7391998 L78.5659091,28.8022272 L78.63125,28.8022272 C78.7488636,28.7365586 78.8272727,28.6577564 78.9318182,28.5789541 C79.0722369,28.4857634 79.207477,28.3849209 79.3369318,28.2768788 C79.4690401,28.1554356 79.5913908,28.0236882 79.7028409,27.8828674 L79.7028409,27.6989955 L79.8073864,27.541391 C79.8678916,27.4361108 79.9203165,27.3263446 79.9642045,27.2130482 L79.9642045,27.0948448 C79.9675057,27.0248376 79.9675057,26.9547126 79.9642045,26.8847054 C79.9738452,26.7710861 79.9738452,26.6568483 79.9642045,26.543229 L79.9642045,23.9164869 C80.0535021,24.064578 80.1237591,24.223449 80.1732955,24.3893004 Z" id="Shape" fill="url(#linearGradient-14)" fill-rule="nonzero"></path>
                            <path d="M78.5397727,21.3422796 L44.2096591,1.41844074 C41.5991207,0.0805399454 38.5088339,0.0805399454 35.8982955,1.41844074 L1.77727273,21.3422796 C-0.509659091,22.6556507 -0.496590909,24.8489803 1.77727273,26.1754851 L36.1465909,46.0993239 C38.7571293,47.4372247 41.8474161,47.4372247 44.4579545,46.0993239 L78.5789773,26.1886188 C80.8659091,24.8489803 80.8397727,22.6819181 78.5397727,21.3422796 Z" id="Shape" fill-opacity="0.16" fill="url(#linearGradient-11)" fill-rule="nonzero"></path>
                            <path d="M43.2948864,46.6246724 L42.8505682,46.7560095 L42.2625,46.9004803 L41.54375,47.0186837 L39.1,47.0186837 C38.7838951,46.9823058 38.4698484,46.9297023 38.1590909,46.8610791 L37.9892045,46.8610791 C37.7149438,46.7923002 37.4444909,46.7090039 37.1789773,46.6115386 L37.0352273,46.6115386 C36.7243187,46.4950398 36.4228499,46.3545271 36.1335227,46.1912599 L1.81647727,26.1886188 C0.839742639,25.7506806 0.174912264,24.8162557 0.0784090909,23.7457486 L0.0784090909,26.3724907 C0.174912264,27.4429978 0.839742639,28.3774228 1.81647727,28.8153609 L36.1335227,48.726066 C36.4063905,48.8824526 36.6902948,49.018532 36.9829545,49.1332111 L37.1267045,49.1332111 L37.6494318,49.317083 L37.9369318,49.3827516 L38.2636364,49.3827516 L38.8517045,49.4878213 L41.4914773,49.4878213 L42.0011364,49.4221527 L42.2102273,49.4221527 L42.7982955,49.2776819 L43.1119318,49.1988796 L43.2426136,49.1988796 C43.6414454,49.0657077 44.0265628,48.8941748 44.3926136,48.6866649 L44.3926136,46.0599228 C44.0452381,46.2825319 43.6776925,46.4716237 43.2948864,46.6246724 Z" id="Shape" fill="url(#linearGradient-15)" fill-rule="nonzero"></path>
                        </g>
                    </g>
                </g>
                <g id="Group-11" transform="translate(24.257812, 7.000000)" fill-rule="nonzero">
                    <path d="M45.2424455,2.31893084 C45.5385112,2.16944115 45.7406906,1.88160647 45.7814118,1.55162612 C45.8221331,1.22164577 45.6960252,0.893042876 45.4452357,0.6756422 C44.8972433,0.114317918 44.0466381,-0.0189410544 43.3541266,0.348041249 C43.0580609,0.497530945 42.8558815,0.785365627 42.8151602,1.11534598 C42.774439,1.44532633 42.9005468,1.77392922 43.1513364,1.99132989 C43.7102385,2.5310032 44.5461245,2.66195623 45.2424455,2.31893084 Z" id="Shape" fill="#FFFFFF"></path>
                    <path d="M52.9247695,23.5469441 L36.5488042,13.9699002 C36.4697858,13.9142324 36.3644587,13.9142324 36.2854403,13.9699002 L35.4295078,14.4507338 C35.3495541,14.4983252 35.3005369,14.5846783 35.3005369,14.6779409 C35.3005369,14.7712035 35.3495541,14.8575567 35.4295078,14.9051481 L51.8054731,24.482192 C51.8844915,24.5378598 51.9898186,24.5378598 52.068837,24.482192 L52.9247695,24.0013583 C53.0047233,23.953767 53.0537404,23.8674138 53.0537404,23.7741512 C53.0537404,23.6808886 53.0047233,23.5945355 52.9247695,23.5469441 Z" id="Shape" fill="url(#linearGradient-16)"></path>
                    <path d="M38.3897176,19.2722801 L37.5337851,19.7531137 C37.4538314,19.8007051 37.4048142,19.8870583 37.4048142,19.9803209 C37.4048142,20.0735834 37.4538314,20.1599366 37.5337851,20.207528 L42.5376986,23.1400849 C42.6167169,23.1957527 42.7220441,23.1957527 42.8010624,23.1400849 L43.656995,22.6592512 C43.7369487,22.6116599 43.7859659,22.5253067 43.7859659,22.4320441 C43.7859659,22.3387815 43.7369487,22.2524283 43.656995,22.204837 L38.6530815,19.2722801 C38.5740631,19.2166123 38.468736,19.2166123 38.3897176,19.2722801 Z" id="Shape" fill="#2469FF" opacity="0.5"></path>
                    <path d="M45.669095,24.9392482 L66.8567182,37.356381 C66.9357365,37.4120488 67.0410637,37.4120488 67.120082,37.356381 L67.9760146,36.8755474 C68.0559683,36.827956 68.1049855,36.7416028 68.1049855,36.6483402 C68.1049855,36.5550777 68.0559683,36.4687245 67.9760146,36.4211331 L46.7883914,24.0040003 C46.709373,23.9483325 46.6040459,23.9483325 46.5250275,24.0040003 L45.669095,24.4848339 C45.5891413,24.5324253 45.5401241,24.6187785 45.5401241,24.7120411 C45.5401241,24.8053036 45.5891413,24.8916568 45.669095,24.9392482 Z" id="Shape" fill="url(#linearGradient-17)"></path>
                    <path d="M34.8632755,21.2722311 L34.0073429,21.7530647 C33.9273892,21.8006561 33.878372,21.8870092 33.878372,21.9802718 C33.878372,22.0735344 33.9273892,22.1598876 34.0073429,22.2074789 L41.2129783,26.434588 C41.2919967,26.4902558 41.3973238,26.4902558 41.4763422,26.434588 L42.3322748,25.9537543 C42.4122285,25.906163 42.4612456,25.8198098 42.4612456,25.7265472 C42.4612456,25.6332846 42.4122285,25.5469315 42.3322748,25.4993401 L35.1266393,21.2722311 C35.0476209,21.2165632 34.9422938,21.2165632 34.8632755,21.2722311 Z" id="Shape" fill="#2469FF" opacity="0.5"></path>
                    <path d="M45.16607,27.3143551 L44.3101374,27.7951887 C44.2301837,27.8427801 44.1811665,27.9291332 44.1811665,28.0223958 C44.1811665,28.1156584 44.2301837,28.2020116 44.3101374,28.2496029 L52.6745739,33.1530494 C52.7535922,33.2087173 52.8589194,33.2087173 52.9379377,33.1530494 L53.7938703,32.6722158 C53.873824,32.6246244 53.9228412,32.5382713 53.9228412,32.4450087 C53.9228412,32.3517461 53.873824,32.2653929 53.7938703,32.2178016 L45.4557702,27.3143551 C45.3678772,27.2562903 45.2539631,27.2562903 45.16607,27.3143551 Z" id="Shape" fill="url(#linearGradient-18)"></path>
                    <path d="M44.4102157,32.1913821 L45.2661482,31.7105485 C45.346102,31.6629571 45.3951191,31.576604 45.3951191,31.4833414 C45.3951191,31.3900788 45.346102,31.3037256 45.2661482,31.2561343 L39.735507,28.0223958 C39.6564886,27.966728 39.5511615,27.966728 39.4721431,28.0223958 L38.6162106,28.5032295 C38.5362569,28.5508208 38.4872397,28.637174 38.4872397,28.7304366 C38.4872397,28.8236992 38.5362569,28.9100524 38.6162106,28.9576437 L44.1468518,32.1913821 C44.2258702,32.24705 44.3311973,32.24705 44.4102157,32.1913821 Z" id="Shape" fill="url(#linearGradient-19)"></path>
                    <path d="M31.360536,23.2959595 L30.5046034,23.7767932 C30.4246497,23.8243845 30.3756326,23.9107377 30.3756326,24.0040003 C30.3756326,24.0972629 30.4246497,24.1836161 30.5046034,24.2312074 L35.5085169,27.1637643 C35.5875353,27.2194321 35.6928624,27.2194321 35.7718808,27.1637643 L36.6278134,26.6829307 C36.7077671,26.6353393 36.7567842,26.5489861 36.7567842,26.4557235 C36.7567842,26.3624609 36.7077671,26.2761078 36.6278134,26.2285164 L31.6238999,23.2959595 C31.5448815,23.2402917 31.4395544,23.2402917 31.360536,23.2959595 Z M27.8340938,25.2906266 L26.9781612,25.7714603 C26.8982075,25.8190516 26.8491904,25.9054048 26.8491904,25.9986674 C26.8491904,26.09193 26.8982075,26.1782831 26.9781612,26.2258745 L34.3023104,30.524316 C34.3813288,30.5799838 34.4866559,30.5799838 34.5656743,30.524316 L35.4216069,30.0434823 C35.5015606,29.995891 35.5505777,29.9095378 35.5505777,29.8162752 C35.5505777,29.7230126 35.5015606,29.6366595 35.4216069,29.5890681 L28.0895568,25.2932686 C28.0128388,25.2404273 27.9118814,25.2393832 27.8340938,25.2906266 Z" id="Shape" fill="#2469FF" opacity="0.5"></path>
                    <path d="M38.2527684,31.406725 L37.3968359,31.8875587 C37.3168821,31.93515 37.267865,32.0215032 37.267865,32.1147658 C37.267865,32.2080284 37.3168821,32.2943816 37.3968359,32.3419729 L44.4760566,36.4871817 C44.555075,36.5428495 44.6604021,36.5428495 44.7394205,36.4871817 L45.5953531,36.0063481 C45.6753068,35.9587567 45.7243239,35.8724035 45.7243239,35.7791409 C45.7243239,35.6858784 45.6753068,35.5995252 45.5953531,35.5519338 L38.5161323,31.406725 C38.4371139,31.3510572 38.3317868,31.3510572 38.2527684,31.406725 Z" id="Shape" fill="url(#linearGradient-20)"></path>
                    <path d="M24.2944834,27.3143551 L23.4385508,27.7951887 C23.3585971,27.8427801 23.30958,27.9291332 23.30958,28.0223958 C23.30958,28.1156584 23.3585971,28.2020116 23.4385508,28.2496029 L28.4424643,31.1821599 C28.5214827,31.2378277 28.6268098,31.2378277 28.7058282,31.1821599 L29.5617608,30.7013262 C29.6417145,30.6537349 29.6907316,30.5673817 29.6907316,30.4741191 C29.6907316,30.3808565 29.6417145,30.2945033 29.5617608,30.246912 L24.5578473,27.3143551 C24.4788289,27.2586872 24.3735018,27.2586872 24.2944834,27.3143551 Z" id="Shape" fill="#2469FF" opacity="0.5"></path>
                    <path d="M32.4192588,32.0645689 L31.5633262,32.5454025 C31.4833725,32.5929939 31.4343553,32.679347 31.4343553,32.7726096 C31.4343553,32.8658722 31.4833725,32.9522254 31.5633262,32.9998167 L39.4247377,37.5994398 C39.503756,37.6551076 39.6090831,37.6551076 39.6881015,37.5994398 L40.5440341,37.1186061 C40.6239878,37.0710148 40.6730049,36.9846616 40.6730049,36.891399 C40.6730049,36.7981364 40.6239878,36.7117832 40.5440341,36.6641919 L32.6826226,32.0645689 C32.6036043,32.008901 32.4982771,32.008901 32.4192588,32.0645689 Z" id="Shape" fill="url(#linearGradient-21)"></path>
                    <path d="M11.9374507,27.8691631 L11.0815181,28.3499968 C11.0015644,28.3975881 10.9525473,28.4839413 10.9525473,28.5772039 C10.9525473,28.6704665 11.0015644,28.7568197 11.0815181,28.804411 L36.6515161,43.7657351 C36.7305345,43.8214029 36.8358616,43.8214029 36.91488,43.7657351 L37.7708126,43.2849015 C37.8507663,43.2373101 37.8997834,43.1509569 37.8997834,43.0576943 C37.8997834,42.9644318 37.8507663,42.8780786 37.7708126,42.8304872 L12.1797455,27.8691631 C12.100656,27.8458244 12.0165402,27.8458244 11.9374507,27.8691631 Z" id="Shape" fill="url(#linearGradient-22)"></path>
                    <path d="M11.7346605,34.9707063 L10.878728,35.45154 C10.7987743,35.4991313 10.7497571,35.5854845 10.7497571,35.6787471 C10.7497571,35.7720097 10.7987743,35.8583629 10.878728,35.9059542 L18.0843634,40.1330633 C18.1633818,40.1887311 18.2687089,40.1887311 18.3477273,40.1330633 L19.2036598,39.6522296 C19.2836136,39.6046383 19.3326307,39.5182851 19.3326307,39.4250225 C19.3326307,39.3317599 19.2836136,39.2454067 19.2036598,39.1978154 L11.9980244,34.9707063 C11.919006,34.9150385 11.8136789,34.9150385 11.7346605,34.9707063 Z" id="Shape" fill="#2469FF" opacity="0.5"></path>
                    <path d="M22.0400887,40.9864109 L21.1815225,41.4646026 C21.1015688,41.512194 21.0525516,41.5985471 21.0525516,41.6918097 C21.0525516,41.7850723 21.1015688,41.8714255 21.1815225,41.9190168 L29.545959,46.8224633 C29.6249773,46.8781312 29.7303044,46.8781312 29.8093228,46.8224633 L30.6652554,46.3416297 C30.7452091,46.2940384 30.7942262,46.2076852 30.7942262,46.1144226 C30.7942262,46.02116 30.7452091,45.9348068 30.6652554,45.8872155 L22.3008189,40.983769 C22.2157379,40.9575104 22.1246237,40.9584336 22.0400887,40.9864109 Z" id="Shape" fill="url(#linearGradient-23)"></path>
                    <path d="M21.257898,45.8898574 L22.1138306,45.4090238 C22.1937843,45.3614324 22.2428014,45.2750792 22.2428014,45.1818166 C22.2428014,45.0885541 22.1937843,45.0022009 22.1138306,44.9546095 L16.5831894,41.7208711 C16.504171,41.6652033 16.3988439,41.6652033 16.3198255,41.7208711 L15.4638929,42.2017048 C15.3839392,42.2492961 15.3349221,42.3356493 15.3349221,42.4289119 C15.3349221,42.5221745 15.3839392,42.6085276 15.4638929,42.656119 L20.9945341,45.8898574 C21.0735525,45.9455252 21.1788796,45.9455252 21.257898,45.8898574 Z" id="Shape" fill="url(#linearGradient-24)"></path>
                    <path d="M8.20821834,36.9732993 L7.35228577,37.4541329 C7.27233206,37.5017243 7.22331491,37.5880774 7.22331491,37.68134 C7.22331491,37.7746026 7.27233206,37.8609558 7.35228577,37.9085471 L12.3561993,40.841104 C12.4352176,40.8967719 12.5405448,40.8967719 12.6195631,40.841104 L13.4754957,40.3602704 C13.5554494,40.312679 13.6044666,40.2263259 13.6044666,40.1330633 C13.6044666,40.0398007 13.5554494,39.9534475 13.4754957,39.9058562 L8.47158221,36.9732993 C8.38866733,36.9318023 8.29113322,36.9318023 8.20821834,36.9732993 Z M4.68177615,38.9891019 L3.82584358,39.4699355 C3.74588986,39.5175269 3.69687272,39.6038801 3.69687272,39.6971427 C3.69687272,39.7904052 3.74588986,39.8767584 3.82584358,39.9243498 L11.1578937,44.2201493 C11.236912,44.2758172 11.3422392,44.2758172 11.4212575,44.2201493 L12.2771901,43.7393157 C12.3571438,43.6917243 12.406161,43.6053712 12.406161,43.5121086 C12.406161,43.418846 12.3571438,43.3324928 12.2771901,43.2849015 L4.94514002,38.9891019 C4.86612164,38.9334341 4.76079452,38.9334341 4.68177615,38.9891019 Z" id="Shape" fill="#2469FF" opacity="0.5"></path>
                    <path d="M15.1109853,45.0787809 L14.2550528,45.5596145 C14.175099,45.6072059 14.1260819,45.693559 14.1260819,45.7868216 C14.1260819,45.8800842 14.175099,45.9664374 14.2550528,46.0140287 L21.3342735,50.1592376 C21.4132919,50.2149054 21.518619,50.2149054 21.5976374,50.1592376 L22.45357,49.6784039 C22.5335237,49.6308126 22.5825408,49.5444594 22.5825408,49.4511968 C22.5825408,49.3579342 22.5335237,49.271581 22.45357,49.2239897 L15.3743492,45.0787809 C15.2887296,45.0510999 15.1966049,45.0510999 15.1109853,45.0787809 Z" id="Shape" fill="url(#linearGradient-25)"></path>
                    <path d="M1.15533395,40.9864109 L0.296767741,41.4646026 C0.216814026,41.512194 0.167796883,41.5985471 0.167796883,41.6918097 C0.167796883,41.7850723 0.216814026,41.8714255 0.296767741,41.9190168 L5.30068124,44.8515738 C5.37969961,44.9072416 5.48502673,44.9072416 5.56404511,44.8515738 L6.41997768,44.3707401 C6.49993139,44.3231488 6.54894854,44.2367956 6.54894854,44.143533 C6.54894854,44.0502704 6.49993139,43.9639172 6.41997768,43.9163259 L1.41606418,40.983769 C1.33100869,40.9573343 1.23983979,40.9582581 1.15533395,40.9864109 Z" id="Shape" fill="#2469FF" opacity="0.5"></path>
                    <path d="M9.26694109,45.7366247 L8.41100852,46.2201003 C8.33105481,46.2676917 8.28203766,46.3540448 8.28203766,46.4473074 C8.28203766,46.54057 8.33105481,46.6269232 8.41100852,46.6745145 L16.27242,51.2741376 C16.3514384,51.3298054 16.4567655,51.3298054 16.5357839,51.2741376 L17.3917164,50.7933039 C17.4716701,50.7457126 17.5206873,50.6593594 17.5206873,50.5660968 C17.5206873,50.4728342 17.4716701,50.386481 17.3917164,50.3388897 L9.53030496,45.7392667 C9.44499158,45.710546 9.35280996,45.7096213 9.26694109,45.7366247 Z" id="Shape" fill="url(#linearGradient-26)"></path>
                </g>
            </g>
        </g>
    </g>
</svg>