<?xml version="1.0" encoding="UTF-8"?>
<svg width="117px" height="169px" viewBox="0 0 117 169" version="1.1" xmlns="http://www.w3.org/2000/svg" xmlns:xlink="http://www.w3.org/1999/xlink">
    <!-- Generator: Sketch 49.3 (51167) - http://www.bohemiancoding.com/sketch -->
    <title>Group 22</title>
    <desc>Created with Sketch.</desc>
    <defs>
        <linearGradient x1="92.6907264%" y1="104.86679%" x2="-10.9639105%" y2="-28.3566341%" id="linearGradient-1">
            <stop stop-color="#F6F9FC" offset="0%"></stop>
            <stop stop-color="#FFFFFF" offset="100%"></stop>
        </linearGradient>
        <linearGradient x1="3288%" y1="2111.89074%" x2="619%" y2="132.315664%" id="linearGradient-2">
            <stop stop-color="#F6F9FC" offset="0%"></stop>
            <stop stop-color="#FFFFFF" offset="100%"></stop>
        </linearGradient>
        <linearGradient x1="46419.4191%" y1="68803%" x2="51901.4298%" y2="75970%" id="linearGradient-3">
            <stop stop-color="#2A39DD" offset="0%"></stop>
            <stop stop-color="#2449E7" offset="28%"></stop>
            <stop stop-color="#1670FF" offset="100%"></stop>
        </linearGradient>
        <radialGradient cx="54.0490723%" cy="54.4302446%" fx="54.0490723%" fy="54.4302446%" r="139.020943%" gradientTransform="translate(0.540491,0.544302),scale(0.583970,1.000000),rotate(158.082338),translate(-0.540491,-0.544302)" id="radialGradient-4">
            <stop stop-color="#FFFFFF" stop-opacity="0.5" offset="0%"></stop>
            <stop stop-color="#FFFFFF" stop-opacity="0" offset="100%"></stop>
        </radialGradient>
        <polygon id="path-5" points="115 96.4365422 57.4934323 130.008168 0 96.4365422 57.4934323 62.851631"></polygon>
        <linearGradient x1="17.5710594%" y1="40.9978308%" x2="117.571059%" y2="68.7015804%" id="linearGradient-6">
            <stop stop-color="#5340DB" offset="0%"></stop>
            <stop stop-color="#E4BCFF" offset="100%"></stop>
        </linearGradient>
        <linearGradient x1="14.3005181%" y1="99.0373397%" x2="120.207254%" y2="-55.4107647%" id="linearGradient-7">
            <stop stop-color="#8271FF" offset="0%"></stop>
            <stop stop-color="#E4BCFF" offset="100%"></stop>
        </linearGradient>
        <linearGradient x1="5164%" y1="379.840803%" x2="6344%" y2="313.630864%" id="linearGradient-8">
            <stop stop-color="#5340DB" offset="0%"></stop>
            <stop stop-color="#E4BCFF" offset="100%"></stop>
        </linearGradient>
        <linearGradient x1="984.99649%" y1="2622%" x2="1327.85508%" y2="1627%" id="linearGradient-9">
            <stop stop-color="#8271FF" offset="0%"></stop>
            <stop stop-color="#E4BCFF" offset="100%"></stop>
        </linearGradient>
        <linearGradient x1="4634%" y1="1265.89316%" x2="5130%" y2="1131.34391%" id="linearGradient-10">
            <stop stop-color="#8271FF" offset="0%"></stop>
            <stop stop-color="#E4BCFF" offset="100%"></stop>
        </linearGradient>
        <linearGradient x1="4989%" y1="4718%" x2="6819%" y2="4718%" id="linearGradient-11">
            <stop stop-color="#8271FF" offset="0%"></stop>
            <stop stop-color="#E4BCFF" offset="100%"></stop>
        </linearGradient>
        <linearGradient x1="744.255007%" y1="7746%" x2="1019.28503%" y2="7027%" id="linearGradient-12">
            <stop stop-color="#8271FF" offset="0%"></stop>
            <stop stop-color="#E4BCFF" offset="100%"></stop>
        </linearGradient>
        <linearGradient x1="2639%" y1="714.57821%" x2="2759%" y2="909.298893%" id="linearGradient-13">
            <stop stop-color="#5340DB" offset="0%"></stop>
            <stop stop-color="#E4BCFF" offset="100%"></stop>
        </linearGradient>
        <linearGradient x1="419.117973%" y1="6183%" x2="514.625048%" y2="5791%" id="linearGradient-14">
            <stop stop-color="#8271FF" offset="0%"></stop>
            <stop stop-color="#E4BCFF" offset="100%"></stop>
        </linearGradient>
        <linearGradient x1="2005%" y1="2492.64479%" x2="1902%" y2="2729.92126%" id="linearGradient-15">
            <stop stop-color="#5340DB" offset="0%"></stop>
            <stop stop-color="#E4BCFF" offset="100%"></stop>
        </linearGradient>
        <linearGradient x1="1389%" y1="2295.21264%" x2="5810%" y2="1243.29734%" id="linearGradient-16">
            <stop stop-color="#5340DB" offset="0%"></stop>
            <stop stop-color="#E4BCFF" offset="100%"></stop>
        </linearGradient>
        <linearGradient x1="2160%" y1="5692%" x2="3994%" y2="5692%" id="linearGradient-17">
            <stop stop-color="#8271FF" offset="0%"></stop>
            <stop stop-color="#E4BCFF" offset="100%"></stop>
        </linearGradient>
    </defs>
    <g id="Page-1" stroke="none" stroke-width="1" fill="none" fill-rule="evenodd">
        <g id="纸贵BaaS_登录后" transform="translate(-1142.000000, -3563.000000)">
            <g id="Group-22" transform="translate(1143.000000, 3563.000000)">
                <path d="M114.495138,135.059781 L57.5317975,102.478723 L0.529253333,135.059781 C-0.176417778,135.448113 -0.176417778,136.457776 0.529253333,136.846108 L56.1596592,168.650501 C57.0221462,169.1165 58.0414489,169.1165 58.9039358,168.650501 L114.534342,136.846108 C115.161605,136.457776 115.161605,135.486946 114.495138,135.059781 Z" id="Shape" fill-opacity="0.5" fill="#DFE8F0"></path>
                <g id="Group" opacity="0.5" transform="translate(0.000000, 88.095745)" stroke="#4E87FF" stroke-width="0.72">
                    <path d="M66.8781881,5.66138524 L8.51851852,39.1973118 M76.6113146,11.2636746 L18.2516449,44.7996012 M86.344441,16.8270592 L27.9847713,50.3629858 M96.0775674,22.4293485 L37.7178978,55.9652751 M105.771605,28.0316379 L47.4119353,61.5675645" id="Shape"></path>
                    <g transform="translate(8.518519, 5.661385)" id="Shape">
                        <path d="M38.8623333,0.0776474712 L96.9418765,33.5437076 M29.2148272,5.6682654 L87.2943704,39.1343255 M19.5284198,11.2200596 L77.607963,44.6861197 M9.84201235,16.8106775 L67.9215556,50.2767376 M0.155604938,22.4012954 L58.2351481,55.8673555"></path>
                    </g>
                    <path d="M114.495138,32.5810572 L57.5317975,0 L0.529253333,32.5810572 C-0.176417778,32.9693893 -0.176417778,33.9790526 0.529253333,34.3673846 L56.1596592,66.1717778 C57.0221462,66.6377762 58.0414489,66.6377762 58.9039358,66.1717778 L114.534342,34.3673846 C115.161605,33.9790526 115.161605,33.0082225 114.495138,32.5810572 Z" id="Shape"></path>
                </g>
                <g id="icon-teamtraining" fill-rule="nonzero">
                    <polygon id="Shape" fill="#FFFFFF" points="115 100.734806 57.4934323 134.313075 0 100.734806 57.4934323 67.1565373"></polygon>
                    <polygon id="Shape" fill="url(#linearGradient-1)" points="115 100.734806 57.5 67.1609659 57.5 0 115 33.5738399 115 100.734806"></polygon>
                    <polygon id="Shape" fill="url(#linearGradient-2)" points="57.5 67.1609659 0 100.734806 0 33.5738399 57.5 0"></polygon>
                    <polygon id="Shape" fill="url(#linearGradient-3)" points="115 96.5092857 115 100.734806 57.4934323 134.313075 0 100.734806 0 96.5092857 57.4934323 67.1565373 115 96.5092857"></polygon>
                    <g id="Shape">
                        <use fill="#0169FE" fill-rule="evenodd" xlink:href="#path-5"></use>
                        <use fill="url(#radialGradient-4)" fill-rule="evenodd" xlink:href="#path-5"></use>
                    </g>
                    <g id="Group" transform="translate(60.932836, 24.968456)">
                        <polygon id="Shape" fill="#000000" points="20.5559701 31.2048303 15.6455224 28.3199054 15.6455224 28.0287662 20.5559701 30.9269247"></polygon>
                        <path d="M20.5559701,31.2048303 L15.6716418,28.3199054 C11.2835821,31.747408 9.80783582,34.8440705 9.82089552,39.8860723 C9.82089552,44.4913654 10.1473881,47.9188679 10.1604478,52.0874521 C10.1735075,56.2560364 8.85447761,58.5983837 3.18656716,61.933251 L0.339552239,63.6006847 L0.339552239,68.1398097 L5.2238806,71.0247347 L5.2238806,66.4856097 L8.08395522,64.8446432 C13.7779851,61.5097758 15.0708955,59.3262317 15.0578358,54.9988443 C15.0447761,50.6714569 14.7313433,47.4027575 14.7182836,42.7974645 C14.6921642,37.742229 16.1809701,34.6455665 20.5559701,31.2048303 Z" id="Shape" fill="url(#linearGradient-6)"></path>
                        <path d="M24.0429104,20.7370522 C19.8246269,23.1588011 17.5130597,23.4896411 16.3507463,22.8014939 L21.261194,25.6996525 C22.4235075,26.3877997 24.7350746,26.0569597 28.9533582,23.6352108 L24.0429104,20.7370522 Z" id="Shape" fill="url(#linearGradient-7)"></path>
                        <path d="M14.6660448,26.2289965 C14.6660448,21.8354411 14.9533582,17.6271561 14.9402985,13.6703095 C14.9402985,11.764671 14.6791045,10.5604133 13.9085821,10.1104709 L8.99813433,7.21231235 C9.76865672,7.66225477 10.0298507,8.86651243 10.0298507,10.7721509 C10.0298507,14.7422311 9.74253731,18.9505161 9.75559701,23.3308379 C9.75559701,26.0834269 10.2126866,27.737627 11.3358209,28.399307 L16.2462687,31.2974655 C15.1231343,30.6357855 14.6791045,28.9683518 14.6660448,26.2289965 Z" id="Shape" fill="url(#linearGradient-8)"></path>
                        <path d="M13.9347015,1.08515525 C12.1063433,0.0132336006 8.98507463,1.08515525 4.44029851,3.73187538 L0.169776119,6.2197923 L5.08022388,9.11795085 L9.35074627,6.61680032 C13.9085821,3.97008019 17.0298507,2.89815854 18.8451493,3.97008019 L13.9347015,1.08515525 Z" id="Shape" fill="url(#linearGradient-9)"></path>
                        <polygon id="Shape" fill="url(#linearGradient-10)" points="5.09328358 13.6570759 0.182835821 10.7589173 0.169776119 6.2197923 5.08022388 9.11795085"></polygon>
                        <path d="M9.35074627,6.61680032 C17.1865672,2.0247409 20.7910448,2.22324491 20.8171642,9.85903248 C20.8171642,14.8216327 20.2164179,18.7784793 20.2294776,23.3176043 C20.2294776,25.9643245 21.9794776,27.6317582 28.9664179,23.6219772 L28.9664179,28.663979 C21.9794776,32.8193296 20.255597,36.6041394 20.2686567,39.1582243 C20.2686567,43.9090869 20.9085821,46.7146103 20.9216418,51.9021817 C20.9216418,59.5379693 17.3563433,63.9315247 9.50746269,68.5235842 L5.2238806,71.0247347 L5.2238806,66.4856097 L8.08395522,64.8446432 C13.7779851,61.5097758 15.0578358,59.3262317 15.0578358,54.9988443 C15.0578358,50.6714569 14.7313433,47.4027575 14.7182836,42.7974645 C14.7182836,37.7554626 16.1809701,34.6588001 20.5690299,31.2312975 L20.5690299,30.9401583 C16.1809701,32.6472928 14.6921642,31.2842319 14.6791045,26.2422301 C14.6791045,21.8486747 14.9664179,17.6403897 14.9533582,13.6835431 C14.9533582,9.36938926 13.6473881,8.68124202 7.95335821,12.0161094 L5.09328358,13.6570759 L5.09328358,9.11795085 L9.35074627,6.61680032 Z" id="Shape" fill="url(#linearGradient-11)"></path>
                    </g>
                    <g id="Group" transform="translate(23.171642, 38.744156)">
                        <path d="M24.1772388,57.6852652 L21.3432836,59.3526989 C18.1436567,61.2318702 16.3414179,61.8406158 15.3619403,61.2583374 L20.2723881,64.1564959 C21.238806,64.7255408 23.0541045,64.1564959 26.2537313,62.2508574 L29.1007463,60.5834238 L24.1772388,57.6852652 Z" id="Shape" fill="url(#linearGradient-12)"></path>
                        <path d="M13.3115672,64.4079343 C13.3115672,59.2203629 13.9123134,55.7002251 13.8992537,50.9493625 C14.0021995,50.0259579 13.6020757,49.1187596 12.8544776,48.580548 L7.94402985,45.6823894 C8.69162793,46.220601 9.09175176,47.1277993 8.98880597,48.0512039 C8.98880597,52.8020666 8.3880597,56.335438 8.4011194,61.5097758 C8.4011194,64.6990736 9.05410448,66.5914785 10.3731343,67.3590273 L15.2835821,70.2571858 C13.9645522,69.489637 13.3246269,67.5972321 13.3115672,64.4079343 Z" id="Shape" fill="url(#linearGradient-13)"></path>
                        <path d="M13.0242537,40.0713428 C12.0839552,39.5155315 10.6865672,39.6611011 8.71455224,40.4154164 L13.625,43.3135749 C15.5970149,42.5592597 16.994403,42.4136901 17.9347015,42.9695013 L13.0242537,40.0713428 Z" id="Shape" fill="url(#linearGradient-14)"></path>
                        <polygon id="Shape" fill="url(#linearGradient-15)" points="5.14925373 45.6029878 0.23880597 42.7048293 0.251865672 47.7468311 5.16231343 50.6449897 5.14925373 45.6029878"></polygon>
                        <path d="M23.9552239,0.317606416 L19.6847015,2.81875694 C11.8488806,7.41081636 8.19216418,11.8440726 8.21828358,19.4798602 C8.21828358,24.4424604 8.85820896,27.6846926 8.87126866,32.210584 C8.87126866,34.8573041 7.16044776,38.5494787 0.173507463,42.7048293 L5.08395522,45.6029878 C12.0708955,41.4476372 13.7947761,37.6628274 13.7817164,35.1087425 C13.7817164,30.5696175 13.141791,27.3406189 13.1287313,22.3780187 C13.1287313,14.7422311 16.7462687,10.3089749 24.5951493,5.71691548 L28.8656716,3.21576496 L23.9552239,0.317606416 Z" id="Shape" fill="url(#linearGradient-16)"></path>
                        <path d="M28.9309701,3.20253136 L28.9309701,7.74165638 L26.0839552,9.40909006 C20.3376866,12.7704246 19.0970149,14.9407351 19.1100746,19.2548889 C19.1100746,23.2249691 19.4496269,27.0627133 19.4626866,31.4562687 C19.4626866,36.4982706 17.9347015,39.6346339 13.6119403,43.0224357 L13.6119403,43.3135749 C17.9477612,41.6461412 19.5018657,42.9695013 19.5149254,48.0115031 C19.5149254,52.6167962 19.2276119,56.401606 19.2406716,60.5701902 C19.2537313,64.7387744 20.5466418,65.5989584 26.2406716,62.2376238 L29.0876866,60.5701902 L29.0876866,65.1093152 L24.8171642,67.6104657 C16.9813433,72.2025251 13.3115672,72.0304883 13.2854478,64.4079343 C13.2854478,59.2203629 13.886194,55.7002251 13.8731343,50.9493625 C13.8731343,48.3026424 12.1231343,46.6352087 5.13619403,50.6449897 L5.13619403,45.6029878 C12.1231343,41.4476372 13.8470149,37.6628274 13.8339552,35.1087425 C13.8339552,30.5696175 13.1940299,27.3406189 13.1809701,22.3780187 C13.1809701,14.7422311 16.7985075,10.3089749 24.6473881,5.71691548 L28.9309701,3.20253136 Z" id="Shape" fill="url(#linearGradient-17)"></path>
                    </g>
                </g>
            </g>
        </g>
    </g>
</svg>