<?xml version="1.0" standalone="no"?><!DOCTYPE svg PUBLIC "-//W3C//DTD SVG 1.1//EN" "http://www.w3.org/Graphics/SVG/1.1/DTD/svg11.dtd"><svg t="1729160757982" class="icon" viewBox="0 0 1956 1024" version="1.1" xmlns="http://www.w3.org/2000/svg" p-id="42696" xmlns:xlink="http://www.w3.org/1999/xlink" width="382.03125" height="200"><path d="M72.950363 445.741169L464.859102 99.595762a169.806045 169.806045 0 0 1 218.218832 0.602149l188.261915 165.831861a151.350175 151.350175 0 0 0-40.343989 103.26857v24.808542h-23.66446c-51.212781-1.565588-99.204064 26.193486-125.247012 72.498752a153.788879 153.788879 0 0 0 0 150.025447c26.042948 46.275158 74.034231 74.034231 125.247012 72.468644h23.66446v24.83865a151.109316 151.109316 0 0 0 40.343989 103.118032l-189.315675 166.7953a169.474863 169.474863 0 0 1-218.218833 0L73.672942 638.338558C45.612794 614.88485 28.993479 579.568806 28.301008 541.934487c0.361289-37.453674 16.739745-72.739611 44.619248-96.16321z" fill="#5DC2D0" p-id="42697"></path><path d="M990.836337 240.859939a120.429819 120.429819 0 1 0-119.496488-120.429819 120.700786 120.700786 0 0 0 119.526596 120.429819z" fill="#4374CE" p-id="42698"></path><path d="M1910.257792 445.741169L1518.439375 99.595762a169.74583 169.74583 0 0 0-218.188725 0.632256L1112.16938 266.029772a151.41039 151.41039 0 0 1 40.34399 103.26857v24.808542h23.634352c51.182673-1.565588 99.143849 26.193486 125.186797 72.498752a153.849094 153.849094 0 0 1 0 150.025447c-26.042948 46.275158-74.004124 74.064339-125.186797 72.468644h-23.634352v24.83865a151.139423 151.139423 0 0 1-40.34399 103.118032l189.225354 166.7953a169.294218 169.294218 0 0 0 218.068295 0L1909.776073 638.880492c28.571975-23.032203 45.341827-58.649322 45.462257-96.434178 0.060215-37.784856-16.5591-73.492297-44.980538-96.675037z" fill="#5DC2D0" p-id="42699"></path><path d="M1112.199488 705.959901V378.029504C1112.04895 318.838247 1057.855532 270.907179 991.137412 270.967394c-66.236401 0.602149-119.616918 48.322465-119.767455 107.06211v327.930397c0.150537 58.709537 53.561162 106.429853 119.767455 106.94168 32.034332 0.060215 62.804151-11.169866 85.505172-31.221431 22.731128-20.051565 35.526797-47.298811 35.587011-75.720249z" fill="#4374CE" p-id="42700"></path></svg>