<?xml version="1.0" encoding="UTF-8"?>
<svg width="72px" height="64px" viewBox="0 0 72 64" version="1.1" xmlns="http://www.w3.org/2000/svg" xmlns:xlink="http://www.w3.org/1999/xlink">
    <!-- Generator: Sketch 54.1 (76490) - https://sketchapp.com -->
    <title>分组</title>
    <desc>Created with Sketch.</desc>
    <defs>
        <linearGradient x1="68.5456467%" y1="43.8565074%" x2="53.021435%" y2="12.881073%" id="linearGradient-1">
            <stop stop-color="#35C3FF" offset="0%"></stop>
            <stop stop-color="#1890FF" offset="100%"></stop>
        </linearGradient>
        <linearGradient x1="50%" y1="30.7237837%" x2="29.9472891%" y2="74.706913%" id="linearGradient-2">
            <stop stop-color="#35C3FF" offset="0%"></stop>
            <stop stop-color="#1890FF" offset="100%"></stop>
        </linearGradient>
        <linearGradient x1="0%" y1="33.4845567%" x2="77.41041%" y2="64.8566538%" id="linearGradient-3">
            <stop stop-color="#35C3FF" offset="0%"></stop>
            <stop stop-color="#1890FF" offset="100%"></stop>
        </linearGradient>
        <linearGradient x1="38.5378889%" y1="68.1855066%" x2="64.7574993%" y2="14.2474686%" id="linearGradient-4">
            <stop stop-color="#35C3FF" offset="0%"></stop>
            <stop stop-color="#1890FF" offset="100%"></stop>
        </linearGradient>
    </defs>
    <g id="页面1" stroke="none" stroke-width="1" fill="none" fill-rule="evenodd">
        <g id="账户管理" transform="translate(-92.000000, -22.000000)">
            <g id="分组-2">
                <g id="mune" transform="translate(0.000000, 23.000000)">
                    <g id="分组" transform="translate(92.000000, 0.000000)">
                        <g id="分组-2" transform="translate(17.000000, 0.000000)">
                            <path d="M22.5032296,0.844576248 L34.201406,7.31851378 C36.518388,8.60076465 37.9563527,11.0400342 37.9563527,13.6881605 L37.9563527,26.1105357 C37.9563527,28.758662 36.518388,31.1979316 34.201406,32.4801824 L22.5032296,38.95412 C20.309928,40.1679243 17.6464247,40.1679243 15.453123,38.95412 L3.75494671,32.4801824 C1.4379647,31.1979316 2.14495088e-13,28.758662 2.13162821e-13,26.1105357 L2.0783375e-13,13.6881605 C2.06501483e-13,11.0400342 1.4379647,8.60076465 3.75494671,7.31851378 L15.453123,0.844576248 C17.6464247,-0.369228127 20.309928,-0.369228127 22.5032296,0.844576248 Z M20.2716332,12.1880539 C19.3943126,11.7025321 18.3289112,11.7025321 17.4515906,12.1880539 L12.7925096,14.7664557 C11.8657168,15.2793561 11.2905309,16.2550639 11.2905309,17.3143144 L11.2905309,22.2609181 C11.2905309,23.3201686 11.8657168,24.2958765 12.7925096,24.8087768 L17.4515906,27.3871786 C18.3289112,27.8727004 19.3943126,27.8727004 20.2716332,27.3871786 L24.9307142,24.8087768 C25.857507,24.2958765 26.4326929,23.3201686 26.4326929,22.2609181 L26.4326929,17.3143144 C26.4326929,16.2550639 25.857507,15.2793561 24.9307142,14.7664557 L20.2716332,12.1880539 Z" id="合并形状" fill="url(#linearGradient-1)"></path>
                            <path d="M24.5605347,1.9831182 C15.9238992,6.27161056 11.5137372,11.2225026 11.3300487,16.8357943 C11.3039697,16.9924461 11.2905309,17.1524043 11.2905309,17.3143144 L11.2905309,22.2609181 C11.2905309,23.3201686 11.8657168,24.2958765 12.7925096,24.8087768 L17.4515906,27.3871786 C17.8902509,27.6299395 18.3759314,27.7513199 18.8616119,27.7513199 L18.8616119,29.7125627 L8.07544227,28.2351895 L0.882572382,18.3977862 L5.07593967e-13,16.3054118 L5.06261699e-13,13.6881605 C5.04929432e-13,11.0400342 1.4379647,8.60076465 3.75494671,7.31851378 L15.453123,0.844576248 C17.6464247,-0.369228127 20.309928,-0.369228127 22.5032296,0.844576248 L24.5605347,1.9831182 Z" id="合并形状" fill="url(#linearGradient-2)"></path>
                            <path d="M28.7555719,35.4939846 L22.5032296,38.95412 C20.309928,40.1679243 17.6464247,40.1679243 15.453123,38.95412 L3.75494671,32.4801824 C1.4379647,31.1979316 6.44373443e-13,28.758662 6.43041176e-13,26.1105357 L6.32383035e-13,13.6881605 C6.31872934e-13,13.1812006 0.0527009101,12.6818951 0.154181018,12.1968968 C5.0864221,24.7918451 11.0587077,29.9402155 18.0710379,27.6420083 C18.8009724,27.8478905 19.5926326,27.7629473 20.2716332,27.3871786 L24.9307142,24.8087768 C25.4878085,24.5004729 25.9178601,24.0249474 26.1723102,23.4645724 L27.6863133,24.9256904 L28.7555719,35.4939846 Z" id="合并形状" fill="url(#linearGradient-3)"></path>
                            <path d="M37.9563527,25.4523625 L37.9563527,26.1105357 C37.9563527,28.758662 36.518388,31.1979316 34.201406,32.4801824 L22.5032296,38.95412 C20.309928,40.1679243 17.6464247,40.1679243 15.453123,38.95412 L13.6022184,37.9298029 C23.0513404,33.3149466 27.0725919,28.7483941 25.6659732,24.2301455 C26.1516681,23.7009024 26.4326929,23.001319 26.4326929,22.2609181 L26.4326929,17.3143144 C26.4326929,16.2550639 25.857507,15.2793561 24.9307142,14.7664557 L21.2017691,12.7028044 C30.0135999,13.3254245 35.5984611,17.5752773 37.9563527,25.4523625 Z" id="合并形状" fill="url(#linearGradient-4)"></path>
                        </g>
                        <!-- <text id="数据治理平台" opacity="0.698172433" font-family="PingFang-SC-Medium, PingFang SC" font-size="12" font-weight="400" fill="#FFFFFF">
                            <tspan x="0" y="61">数据治理平台</tspan>
                        </text> -->
                    </g>
                </g>
            </g>
        </g>
    </g>
</svg>