<?xml version="1.0" standalone="no"?><!DOCTYPE svg PUBLIC "-//W3C//DTD SVG 1.1//EN" "http://www.w3.org/Graphics/SVG/1.1/DTD/svg11.dtd"><svg t="1729161113460" class="icon" viewBox="0 0 1024 1024" version="1.1" xmlns="http://www.w3.org/2000/svg" p-id="45046" xmlns:xlink="http://www.w3.org/1999/xlink" width="200" height="200"><path d="M673.152 512.4608l161.8688 161.8688-161.8688 161.8688-161.8688-161.8688 161.8688-161.8688zM349.184 512.3328l161.792 161.792-161.792 161.792-161.792-161.792 161.792-161.792z" fill="#3179FF" opacity=".6" p-id="45047"></path><path d="M511.4112 350.7712l162.0224 162.0224-162.0224 162.0224-161.9968-162.0224z" fill="#3179FF" p-id="45048"></path><path d="M187.5968 350.7712l162.0224 162.0224-162.0224 161.9968L25.6 512.7936z" fill="#3179FF" opacity=".4" p-id="45049"></path><path d="M673.2544 188.7488l162.0224 162.0224-162.048 162.0224-161.9968-162.0224L673.28 188.7488z" fill="#3179FF" opacity=".6" p-id="45050"></path><path d="M349.4912 188.7488l162.048 162.0224-162.048 162.0224-161.9968-162.0224 161.9968-162.0224z" fill="#3179FF" opacity=".6" p-id="45051"></path><path d="M835.1488 350.6432l161.9968 162.0224-161.9968 161.9968-162.0224-161.9968z" fill="#3179FF" opacity=".4" p-id="45052"></path><path d="M511.4112 350.6432l161.9968 162.0224-161.9968 161.9968-162.048-161.9968 162.048-162.048z" fill="#3179FF" p-id="45053"></path></svg>