<svg xmlns="http://www.w3.org/2000/svg" width="71" height="82" viewBox="0 0 71 82">
    <defs>
        <linearGradient id="a" x1="73.272%" x2="31.029%" y1="89.814%" y2="5.23%">
            <stop offset="0%" stop-color="#0092FF"/>
            <stop offset="100%" stop-color="#00E7FF"/>
        </linearGradient>
        <linearGradient id="b" x1="50%" x2="73.279%" y1="88.019%" y2="0%">
            <stop offset="0%" stop-color="#003CA2"/>
            <stop offset="100%" stop-color="#0178FF"/>
        </linearGradient>
        <linearGradient id="c" x1="5.519%" x2="50%" y1="96.006%" y2="56.424%">
            <stop offset="0%" stop-color="#0178FF"/>
            <stop offset="100%" stop-color="#0092FF"/>
        </linearGradient>
    </defs>
    <g fill="none" fill-rule="evenodd">
        <path fill="url(#a)" d="M49.975 8.933v-.011L35.447.542l-14.52 8.38v.011l14.52 8.392 14.528-8.392"/>
        <path fill="url(#a)" d="M59.101 14.193L35.45 27.824l-.002-.003L11.8 14.193.54 20.692l34.907 20.15L70.35 20.697l-11.25-6.504"/>
        <path fill="url(#b)" d="M35.447 17.33v10.494l14.528-8.367V8.933l-14.528 8.392v.006"/>
        <path fill="url(#c)" d="M20.926 19.453l14.52 8.371v-10.5l-14.52-8.39v10.519M.544 60.994l14.516 8.383.015-16.774L.55 44.215z"/>
        <path fill="url(#c)" d="M.54 33.681l23.63 13.666v.006l.022 27.292 11.257 6.503-.002-40.306L.55 20.688.54 33.681"/>
        <path fill="url(#a)" d="M15.083 52.596l9.087-5.243-14.51-8.4-9.11 5.262 14.525 8.388.008-.007"/>
        <path fill="url(#b)" d="M24.184 64.111l-.014-16.758-9.087 5.243-.008.007-.002 16.767 9.11-5.259M55.812 69.377l.008.004.006.003 14.523-8.39.002-16.765-.012-.007L55.812 52.6v16.777"/>
        <path fill="url(#c)" d="M55.805 52.596l-9.085-5.243-.018 16.764 9.11 5.26V52.6l-.007-.004"/>
        <path fill="url(#a)" d="M61.228 38.963l-14.508 8.39 9.085 5.243.007.004 14.527-8.378-9.111-5.26"/>
        <path fill="url(#b)" d="M46.694 74.652l.024-27.3h.005l23.623-13.664.005-13-34.904 20.154-.011 40.3 11.258-6.49"/>
    </g>
</svg>
