<?xml version="1.0" encoding="UTF-8"?>
<svg width="47px" height="41px" viewBox="0 0 47 41" version="1.1" xmlns="http://www.w3.org/2000/svg" xmlns:xlink="http://www.w3.org/1999/xlink">
    <!-- Generator: Sketch 51.2 (57519) - http://www.bohemiancoding.com/sketch -->
    <title>Group 10</title>
    <desc>Created with Sketch.</desc>
    <defs>
        <linearGradient x1="45.1010682%" y1="14.3384797%" x2="59.4412202%" y2="93.2973786%" id="linearGradient-1">
            <stop stop-color="#84BAF5" offset="0%"></stop>
            <stop stop-color="#DBEBFA" offset="100%"></stop>
        </linearGradient>
        <linearGradient x1="45.1010682%" y1="14.3384797%" x2="59.4412202%" y2="93.2973786%" id="linearGradient-2">
            <stop stop-color="#75ACFF" offset="0%"></stop>
            <stop stop-color="#9AA2FF" offset="100%"></stop>
        </linearGradient>
    </defs>
    <g id="Page-1" stroke="none" stroke-width="1" fill="none" fill-rule="evenodd">
        <g id="产品服务导航" transform="translate(-480.000000, -171.000000)">
            <g id="zig" transform="translate(445.000000, 109.000000)">
                <g id="img_ethereum" transform="translate(9.000000, 0.000000)">
                    <g id="Group-10" transform="translate(25.542405, 51.761589)">
                        <path d="M12.8325255,20.1987509 L30.93458,25.3336142 C31.5436784,25.5063922 32.0163571,25.9878235 32.1779316,26.5999892 L37.163411,45.4887307 C37.4159229,46.4454359 36.8450616,47.4257 35.8883565,47.678212 C35.5818221,47.7591185 35.2593084,47.757236 34.9537394,47.6727568 L16.898041,42.680984 C16.2839505,42.5112093 15.8062242,42.0280773 15.6433697,41.4121154 L10.6115342,22.3802834 C10.3586187,21.4236848 10.9290664,20.4431799 11.885665,20.1902644 C12.1963347,20.1081263 12.5233779,20.1110575 12.8325255,20.1987509 Z" id="Rectangle-6-Copy" fill="url(#linearGradient-1)" opacity="0.600000024" transform="translate(23.887368, 33.934106) rotate(-45.000000) translate(-23.887368, -33.934106) "></path>
                        <path d="M15.4935822,32.1969157 L29.231574,35.9792446 C29.6895145,36.1053243 30.0468686,36.4638043 30.1715069,36.9221392 L33.934021,50.7580978 C34.1287541,51.4741934 33.7061064,52.212566 32.9900107,52.4072992 C32.7606163,52.4696801 32.5187786,52.4700862 32.2891761,52.408476 L18.5863259,48.7315368 C18.1247628,48.6076838 17.763714,48.2480012 17.6381119,47.786911 L13.8404562,33.8455627 C13.645413,33.1295514 14.0677412,32.3909959 14.7837524,32.1959527 C15.0161712,32.1326413 15.261336,32.1329739 15.4935822,32.1969157 Z" id="Rectangle-6-Copy" fill="url(#linearGradient-1)" opacity="0.400000006" transform="translate(23.887156, 42.301525) rotate(-45.000000) translate(-23.887156, -42.301525) "></path>
                        <path d="M10.1618246,7.45465156 L33.2394245,13.8071834 C34.0015762,14.0169796 34.5966669,14.6130434 34.8052176,15.3755368 L41.1765569,38.6701322 C41.5028605,39.8631481 40.8002513,41.0947999 39.6072354,41.4211034 C39.22273,41.5262701 38.8171223,41.5268995 38.4322924,41.4229266 L15.3626053,35.1899887 C14.5950533,34.9826125 13.994997,34.3838256 13.7859957,33.6167146 L7.40674359,10.2025252 C7.08161607,9.00918829 7.78543888,7.77822962 8.97877584,7.4531021 C9.36613526,7.34756509 9.77474297,7.34810025 10.1618246,7.45465156 Z" id="Rectangle-6-Copy" fill="url(#linearGradient-2)" transform="translate(24.291928, 24.437361) rotate(-45.000000) translate(-24.291928, -24.437361) "></path>
                    </g>
                </g>
            </g>
        </g>
    </g>
</svg>