<svg xmlns="http://www.w3.org/2000/svg" width="93" height="31" viewBox="0 0 93 31">
    <defs>
        <linearGradient id="a" x1="57.975%" x2="38.988%" y1="36.722%" y2="68.324%">
            <stop offset="0%" stop-color="#0FF" stop-opacity=".1"/>
            <stop offset="100%" stop-color="#0FF" stop-opacity="0"/>
        </linearGradient>
        <linearGradient id="b" x1="50%" x2="50%" y1="0%" y2="100%">
            <stop offset="0%" stop-color="#2A39DD"/>
            <stop offset="100%" stop-color="#4B94EF"/>
        </linearGradient>
        <linearGradient id="c" x1="50%" x2="50%" y1="0%" y2="100%">
            <stop offset="0%" stop-color="#8271FF"/>
            <stop offset="100%" stop-color="#C0A0FF"/>
        </linearGradient>
    </defs>
    <g fill="none" fill-rule="evenodd">
        <path fill="url(#a)" fill-rule="nonzero" d="M4.48 12.185v2.762L.184 12.409V9.648z" transform="translate(83.954 8.755)"/>
        <path fill="url(#a)" fill-rule="nonzero" d="M8.826 12.333v2.797l-4.352-2.57V9.763z" transform="matrix(-1 0 0 1 97.254 8.755)"/>
        <path fill="url(#b)" fill-rule="nonzero" d="M8.639 2.623a.411.411 0 0 0-.014-.1c-.003-.013-.01-.026-.016-.039-.008-.02-.014-.04-.025-.06-.007-.012-.018-.023-.027-.035-.012-.017-.023-.034-.038-.05-.01-.01-.024-.017-.035-.027-.016-.013-.03-.027-.048-.037l-.003-.001-.002-.002L4.522.054a.41.41 0 0 0-.405 0L2.225 1.128.209 2.273l-.002.002H.204c-.017.01-.031.025-.047.037-.012.01-.026.018-.036.029-.015.015-.027.033-.04.05-.008.012-.018.022-.025.034-.012.02-.02.043-.027.065-.005.012-.011.022-.014.034a.402.402 0 0 0-.013.096L0 2.631v4.643c0 .15.08.287.209.36l3.908 2.218c.021.012.044.02.066.027.01.004.02.01.032.013a.403.403 0 0 0 .21 0c.011-.003.021-.009.032-.013.022-.008.045-.015.066-.026L8.43 7.634a.413.413 0 0 0 .209-.36V2.632l-.001-.008z" transform="translate(84.112 11.352)"/>
        <path fill="#75ACFF" d="M84.337 13.602l3.805-2.171a.66.66 0 0 1 .204-.09c.05-.011.1-.011.15 0a.66.66 0 0 1 .205.09l3.817 2.168a.403.403 0 0 1 .002.7l-3.788 2.185a.66.66 0 0 1-.205.091c-.05.011-.1.011-.151 0a.66.66 0 0 1-.206-.09l-3.833-2.183a.403.403 0 0 1 0-.7z"/>
        <g>
            <path fill="url(#a)" fill-rule="nonzero" d="M7.894 20.424v4.82l-7.57-4.429v-4.818z" transform="translate(0 -3.517)"/>
            <path fill="url(#a)" fill-rule="nonzero" d="M15.55 20.694v4.882L7.883 21.09v-4.88z" transform="matrix(-1 0 0 1 23.433 -3.517)"/>
            <path fill="url(#c)" fill-rule="nonzero" d="M15.22 4.577a.711.711 0 0 0-.023-.173c-.007-.025-.02-.046-.029-.069-.014-.035-.025-.071-.044-.104-.013-.023-.032-.041-.047-.062-.022-.03-.041-.06-.067-.086-.019-.018-.042-.032-.063-.048-.027-.023-.053-.047-.085-.066-.001 0-.003 0-.004-.002l-.004-.002L7.968.093a.729.729 0 0 0-.714 0L3.92 1.97H3.92L.368 3.965l-.004.002-.004.002c-.03.018-.056.042-.083.064-.021.017-.045.03-.064.05-.027.026-.047.058-.07.088-.014.02-.032.038-.045.06-.02.035-.033.074-.047.112-.008.02-.02.04-.025.06a.696.696 0 0 0-.023.168c0 .006-.003.013-.003.02v8.103c0 .26.14.5.368.627l6.886 3.872c.037.02.077.032.116.046.019.007.036.018.056.023a.717.717 0 0 0 .37 0c.02-.005.037-.016.056-.023.04-.013.08-.026.116-.046l6.886-3.872a.72.72 0 0 0 .368-.627V4.591l-.002-.014z" transform="translate(.278 .176)"/>
            <path fill="#8271FF" d="M.665 4.16L7.423.283c.186-.106.258-.134.344-.152A.602.602 0 0 1 8.02.13c.086.018.158.045.345.15l6.729 3.802a.68.68 0 0 1 .007 1.179L8.372 9.163c-.186.108-.259.136-.344.155a.602.602 0 0 1-.255.001c-.086-.018-.16-.045-.346-.151L.668 5.34a.68.68 0 0 1-.003-1.18z"/>
        </g>
        <g>
            <path fill="url(#a)" fill-rule="nonzero" d="M2.413 6.453v1.381L.099 6.565v-1.38z" transform="translate(71.756 23.192)"/>
            <path fill="url(#a)" fill-rule="nonzero" d="M4.752 6.527v1.399L2.41 6.641V5.242z" transform="matrix(-1 0 0 1 78.917 23.192)"/>
            <path fill="url(#b)" fill-rule="nonzero" d="M4.652 1.312a.192.192 0 0 0-.008-.05l-.008-.02c-.004-.01-.008-.02-.014-.03l-.014-.017c-.007-.009-.013-.018-.02-.025l-.02-.014c-.008-.006-.016-.013-.026-.019h-.001-.001L2.435.026a.236.236 0 0 0-.218 0L1.198.564l-1.086.572-.002.001c-.01.005-.017.012-.025.019-.007.004-.014.008-.02.014-.008.007-.014.016-.021.025l-.014.017c-.006.01-.01.022-.014.033-.003.005-.006.01-.008.017A.188.188 0 0 0 0 1.31L0 1.315v2.322c0 .075.043.143.112.18l2.105 1.11c.011.005.023.009.035.012.006.002.012.006.018.007a.233.233 0 0 0 .113 0c.006-.001.011-.004.017-.006.012-.004.024-.008.035-.014L4.54 3.817a.204.204 0 0 0 .112-.18V1.316v-.004z" transform="translate(71.84 24.851)"/>
            <path fill="#75ACFF" d="M72.026 26.06l2.049-1.218a.33.33 0 0 1 .1-.047.179.179 0 0 1 .076-.001.33.33 0 0 1 .103.042l1.942 1.054a.202.202 0 0 1 .008.35l-2.04 1.226a.33.33 0 0 1-.102.048.179.179 0 0 1-.075.001.33.33 0 0 1-.104-.043l-1.95-1.06a.202.202 0 0 1-.007-.351z"/>
        </g>
    </g>
</svg>
