<svg xmlns="http://www.w3.org/2000/svg" xmlns:xlink="http://www.w3.org/1999/xlink" width="45" height="45" viewBox="0 0 45 45">
    <defs>
        <radialGradient id="b" cx="87.445%" cy="18.46%" r="98.803%" fx="87.445%" fy="18.46%">
            <stop offset="0%" stop-color="#FFF" stop-opacity=".5"/>
            <stop offset="100%" stop-color="#FFF" stop-opacity="0"/>
        </radialGradient>
        <circle id="a" cx="22.5" cy="22.5" r="22.5"/>
    </defs>
    <g fill="none" fill-rule="evenodd">
        <g>
            <use fill="#0169FE" xlink:href="#a"/>
            <use fill="url(#b)" xlink:href="#a"/>
        </g>
        <g stroke="#FFF">
            <path d="M25.894 31.872l-2.94 7.107-6.343-8.714M19.83 13.723l-10.7 1.168 4.46 6.006M36.552 14.902l-7.392.893M32.463 24.1l4.09-9.198"/>
            <path d="M19.865 29.32c-.61.418-1.32.688-2.08.772l-8.654.951 4.786-10.92a4.562 4.562 0 0 1 3.635-2.7l8.83-1.058-3.405 7.644"/>
            <path d="M16.528 24.877l3.908 5.312a4.556 4.556 0 0 0 4.132 1.822l11.978-1.246-4.305-7.05c-.513-.84-1.415-1.492-2.286-1.855"/>
            <path d="M18.896 17.243c-.032-.261-.012-.37 0-.634a4.577 4.577 0 0 1 .379-1.611l3.48-7.959 7.026 9.57a4.58 4.58 0 0 1 .522 4.5l-3.478 8.187-3.848-5.287-6.45.868"/>
        </g>
    </g>
</svg>
