<svg xmlns="http://www.w3.org/2000/svg" xmlns:xlink="http://www.w3.org/1999/xlink" width="118" height="172" viewBox="0 0 118 172">
    <defs>
        <linearGradient id="a" x1="50%" x2="50%" y1="95.821%" y2="10.378%">
            <stop offset="0%" stop-color="#F6F9FC"/>
            <stop offset="100%" stop-color="#FFF"/>
        </linearGradient>
        <linearGradient id="b" x1="171.445%" x2="-45.933%" y1="100%" y2="-10.122%">
            <stop offset="0%" stop-color="#F6F9FC"/>
            <stop offset="100%" stop-color="#FFF"/>
        </linearGradient>
        <linearGradient id="c" x1="46419.419%" x2="51901.43%" y1="68803%" y2="75970%">
            <stop offset="0%" stop-color="#2A39DD"/>
            <stop offset="28%" stop-color="#2449E7"/>
            <stop offset="100%" stop-color="#1670FF"/>
        </linearGradient>
        <radialGradient id="e" cx="54.049%" cy="54.43%" r="140.163%" fx="54.049%" fy="54.43%" gradientTransform="scale(-.57845 -1) rotate(-21.73 -3.033 3.842)">
            <stop offset="0%" stop-color="#FFF" stop-opacity=".5"/>
            <stop offset="100%" stop-color="#FFF" stop-opacity="0"/>
        </radialGradient>
        <path id="d" d="M114.738 95.095l-57.376 33.179L0 95.094l57.362-33.19z"/>
        <linearGradient id="f" x1="110.294%" x2="34.191%" y1="-13.607%" y2="75.062%">
            <stop offset="0%" stop-color="#1EBACF"/>
            <stop offset="100%" stop-color="#08B593"/>
        </linearGradient>
        <linearGradient id="g" x1="64.706%" x2="49.265%" y1="13.178%" y2="63.055%">
            <stop offset="0%" stop-color="#8271FF"/>
            <stop offset="100%" stop-color="#E4BCFF"/>
        </linearGradient>
        <linearGradient id="h" x1="1977%" x2="1940%" y1="65.58%" y2="75.946%">
            <stop offset="0%" stop-color="#8271FF"/>
            <stop offset="100%" stop-color="#E4BCFF"/>
        </linearGradient>
        <linearGradient id="i" x1="1855%" x2="5974%" y1="3425%" y2="3425%">
            <stop offset="0%" stop-color="#8271FF"/>
            <stop offset="100%" stop-color="#E4BCFF"/>
        </linearGradient>
        <linearGradient id="j" x1="62.898%" x2="50%" y1="71.308%" y2="24.293%">
            <stop offset="0%" stop-color="#0178FF"/>
            <stop offset="100%" stop-color="#0092FF"/>
        </linearGradient>
        <linearGradient id="k" x1="50%" x2="50%" y1="100%" y2="0%">
            <stop offset="0%" stop-color="#9B8DFF"/>
            <stop offset="100%" stop-color="#A12DEF"/>
        </linearGradient>
        <linearGradient id="l" x1="2407%" x2="6853%" y1="4225%" y2="4225%">
            <stop offset="0%" stop-color="#8271FF"/>
            <stop offset="100%" stop-color="#E4BCFF"/>
        </linearGradient>
    </defs>
    <g fill="none" fill-rule="evenodd">
        <path fill="#DFE8F0" fill-opacity=".5" d="M115.872 135.877l-57.15-32.646L1.53 135.877a1.02 1.02 0 0 0 0 1.79l55.814 31.868a2.881 2.881 0 0 0 2.753 0l55.814-31.868c.629-.39.629-1.362-.04-1.79z"/>
        <g stroke="#4E87FF" stroke-width=".72" opacity=".5">
            <path d="M68.099 94.544L9.547 128.147m68.317-27.99l-58.552 33.604m68.317-28.029l-58.552 33.603m68.317-27.99L38.842 144.95m68.278-27.99l-58.552 33.603M48.537 94.622l58.27 33.533m-67.95-27.93l58.272 33.532m-67.99-27.97L87.41 139.32m-67.989-27.931l58.27 33.533M9.704 116.99l58.27 33.533M115.872 121.518l-57.15-32.646L1.53 121.518a1.02 1.02 0 0 0 0 1.79l55.814 31.868a2.881 2.881 0 0 0 2.753 0l55.814-31.868c.629-.39.629-1.362-.04-1.79z"/>
        </g>
        <g fill-rule="nonzero">
            <path fill="#FFF" d="M116.459 101.556L59.084 134.74 1.72 101.556 59.084 68.37z"/>
            <path fill="url(#a)" d="M115.379 99.556l-57.69-33.181V0l57.69 33.18v66.376z" transform="translate(1.721 2)"/>
            <path fill="url(#b)" d="M57.69 66.375L0 99.555V33.182L57.69 0z" transform="translate(1.721 2)"/>
            <path fill="url(#c)" d="M114.738 95.38v4.176L57.362 132.74 0 99.556V95.38l57.362-29.01 57.376 29.01z" transform="translate(1.721 2)"/>
            <g transform="translate(1.721 2)">
                <use fill="#0169FE" xlink:href="#d"/>
                <use fill="url(#e)" xlink:href="#d"/>
            </g>
            <path fill="#FFF" d="M83.278 32.37c0-1.516-1.1-2.13-2.438-1.307L30.487 59.716a5.217 5.217 0 0 0-2.372 4.08l.12 43.548c0 1.517 1.1 2.131 2.438 1.307l50.3-28.6a5.218 5.218 0 0 0 2.424-4.145l-.119-43.535z"/>
            <path fill="url(#f)" d="M54.549.235l1.815 1.073a1.728 1.728 0 0 0-1.735.17L52.76.405a1.728 1.728 0 0 1 1.789-.17z" transform="translate(26.079 29.442)"/>
            <path fill="url(#g)" d="M54.549.235l1.815 1.073a1.728 1.728 0 0 0-1.735.17L52.76.405a1.728 1.728 0 0 1 1.789-.17z" transform="translate(26.079 29.442)"/>
            <path fill="url(#h)" d="M2.103 77.81l-.067-43.547L.168 33.19l.12 43.548c-.064.605.21 1.195.715 1.543l1.868 1.073a1.667 1.667 0 0 1-.768-1.544z" transform="translate(26.079 29.442)"/>
            <path fill="url(#i)" d="M52.826.392L2.54 29.045A5.218 5.218 0 0 0 .115 33.19l1.921 1.073a5.216 5.216 0 0 1 2.372-4.185L54.695 1.465 52.826.392z" transform="translate(26.079 29.442)"/>
            <path fill="#E6E6E6" d="M55.535 57.122l-23.369 13.33c-.5.285-.907 0-.907-.673.012-.68.348-1.313.907-1.71l23.369-13.33c.5-.286.907 0 .907.673a2.142 2.142 0 0 1-.907 1.71zm-8.53 10.973l-9.108 5.181c-.5.285-.907 0-.907-.673.011-.68.347-1.313.907-1.71l9.108-5.182c.5-.285.907 0 .907.674a2.142 2.142 0 0 1-.907 1.71zm20.648-17.878L58.544 55.4c-.499.285-.906 0-.906-.674.021-.679.367-1.308.933-1.697l9.082-5.181c.499-.285.906 0 .906.673a2.142 2.142 0 0 1-.906 1.697zm-26.431 9.846l-9.108 5.182c-.5.285-.907 0-.907-.674.023-.689.38-1.324.96-1.71l9.107-5.182c.5-.285.907 0 .907.674a2.143 2.143 0 0 1-.96 1.71zm13.445-7.41l-9.108 5.182c-.5.285-.907 0-.907-.674.012-.68.348-1.313.907-1.71l9.108-5.182c.5-.285.907 0 .907.674a2.142 2.142 0 0 1-.907 1.71zm14.103-7.954l-9.108 5.181c-.5.285-.907 0-.907-.673.011-.68.347-1.313.907-1.71l9.108-5.182c.5-.285.907 0 .907.674a2.142 2.142 0 0 1-.907 1.71zM57.256 74.442l-23.42 13.33c-.5.286-.907 0-.907-.673.02-.67.354-1.293.906-1.684l23.421-13.356c.5-.285.907 0 .907.673a2.142 2.142 0 0 1-.907 1.71zm-8.53 10.973l-9.108 5.182c-.499.285-.906 0-.906-.674.01-.68.347-1.313.906-1.71l9.109-5.182c.499-.285.906 0 .906.674a2.142 2.142 0 0 1-.906 1.71zm20.675-17.89l-9.109 5.181c-.499.285-.906 0-.906-.673.01-.68.347-1.313.906-1.71l9.109-5.182c.499-.285.906 0 .906.674a2.142 2.142 0 0 1-.906 1.71zm-26.457 9.858l-9.109 5.182c-.499.285-.906 0-.906-.674.027-.66.362-1.272.906-1.658l9.109-5.182c.499-.285.906 0 .906.674a2.142 2.142 0 0 1-.906 1.658z"/>
            <g>
                <path fill="url(#j)" d="M58.46 41.503l-.104-39.31L2.975 33.87l.118 39.309 42.905-24.536 12.489 1.83-2.425-7.594z" transform="translate(33.77 39.652)"/>
                <path fill="url(#k)" d="M3.093 73.179L.197 71.504.092 32.195l2.883 1.675z" transform="translate(33.77 39.652)"/>
                <path fill="url(#l)" d="M2.975 33.87L.092 32.195 55.459.532l2.897 1.662L2.975 33.87z" transform="translate(33.77 39.652)"/>
            </g>
        </g>
        <g fill="#FFF" fill-rule="nonzero" opacity=".59">
            <path d="M62.295 96.051l-6.49-4.886 6.49-3.73z"/>
            <path d="M74.554 57.282v31.843l-10.678 6.208v-10.65l-8.071 4.612V67.988l18.749-10.706zm-16.06 21.599l13.45-7.685V69.42l-13.45 7.685v1.775zm0-3.55l13.45-7.685v-1.774l-13.45 7.685v1.774zm0-3.549l13.453-7.679v-1.78l-13.45 7.685-.003 1.774z"/>
        </g>
        <g fill="#FFF" fill-rule="nonzero">
            <path d="M76.717 96.77l-6.49-4.887 6.49-3.73z"/>
            <path d="M88.976 58v31.843l-10.678 6.208v-10.65l-8.07 4.611V68.706L88.975 58zm-16.06 21.598l13.45-7.684v-1.775l-13.45 7.685v1.774zm0-3.549l13.45-7.685V66.59l-13.45 7.685v1.774zm0-3.549l13.454-7.679v-1.78l-13.45 7.685-.003 1.774z"/>
        </g>
    </g>
</svg>
