<svg xmlns="http://www.w3.org/2000/svg" xmlns:xlink="http://www.w3.org/1999/xlink" width="118" height="172" viewBox="0 0 118 172">
    <defs>
        <linearGradient id="a" x1="92.691%" x2="-10.964%" y1="104.867%" y2="-28.357%">
            <stop offset="0%" stop-color="#F6F9FC"/>
            <stop offset="100%" stop-color="#FFF"/>
        </linearGradient>
        <linearGradient id="b" x1="3288%" x2="619%" y1="2111.891%" y2="132.316%">
            <stop offset="0%" stop-color="#F6F9FC"/>
            <stop offset="100%" stop-color="#FFF"/>
        </linearGradient>
        <linearGradient id="c" x1="46419.419%" x2="51901.43%" y1="68803%" y2="75970%">
            <stop offset="0%" stop-color="#2A39DD"/>
            <stop offset="28%" stop-color="#2449E7"/>
            <stop offset="100%" stop-color="#1670FF"/>
        </linearGradient>
        <radialGradient id="e" cx="54.049%" cy="54.43%" r="139.021%" fx="54.049%" fy="54.43%" gradientTransform="scale(-.58397 -1) rotate(-21.918 -3.004 3.786)">
            <stop offset="0%" stop-color="#FFF" stop-opacity=".5"/>
            <stop offset="100%" stop-color="#FFF" stop-opacity="0"/>
        </radialGradient>
        <path id="d" d="M115 96.437l-57.507 33.571L0 96.437l57.493-33.585z"/>
        <linearGradient id="f" x1="50%" x2="50%" y1="100%" y2="0%">
            <stop offset="0%" stop-color="#9B8DFF"/>
            <stop offset="100%" stop-color="#A12DEF"/>
        </linearGradient>
        <linearGradient id="g" x1="2407%" x2="6853%" y1="4225%" y2="4225%">
            <stop offset="0%" stop-color="#8271FF"/>
            <stop offset="100%" stop-color="#E4BCFF"/>
        </linearGradient>
    </defs>
    <g fill="none" fill-rule="evenodd">
        <path fill="#DFE8F0" fill-opacity=".5" d="M116.495 136.06l-56.963-32.581-57.003 32.58a1.018 1.018 0 0 0 0 1.787l55.63 31.805a2.868 2.868 0 0 0 2.745 0l55.63-31.805c.628-.388.628-1.36-.039-1.786z"/>
        <g stroke="#4E87FF" stroke-width=".72" opacity=".5">
            <path d="M68.878 94.757l-58.36 33.536m68.093-27.934l-58.36 33.536m68.093-27.972l-58.36 33.536m68.094-27.934l-58.36 33.536m68.054-27.934l-58.36 33.536M49.38 94.835l58.08 33.466m-67.727-27.876l58.08 33.466m-67.766-27.914l58.08 33.466M20.36 111.568l58.08 33.466m-67.767-27.876l58.08 33.466M116.495 121.677L59.532 89.096l-57.003 32.58a1.018 1.018 0 0 0 0 1.787l55.63 31.805a2.868 2.868 0 0 0 2.745 0l55.63-31.805c.628-.388.628-1.359-.039-1.786z"/>
        </g>
        <g fill-rule="nonzero">
            <path fill="#FFF" d="M117 101.735l-57.507 33.578L2 101.735l57.493-33.578z"/>
            <path fill="url(#a)" d="M115 100.735L57.5 67.16V0L115 33.574v67.16z" transform="translate(2 1)"/>
            <path fill="url(#b)" d="M57.5 67.161L0 100.735V33.574L57.5 0z" transform="translate(2 1)"/>
            <path fill="url(#c)" d="M115 96.51v4.225l-57.507 33.578L0 100.735v-4.226l57.493-29.352L115 96.509z" transform="translate(2 1)"/>
            <g transform="translate(2 1)">
                <use fill="#0169FE" xlink:href="#d"/>
                <use fill="url(#e)" xlink:href="#d"/>
            </g>
        </g>
        <g fill-rule="nonzero">
            <g opacity=".7">
                <path fill="url(#f)" d="M57.313 5.947a4.699 4.699 0 0 0-.11-.062 4.7 4.7 0 0 0-.11-.062 4.672 4.672 0 0 0-.11-.063 4.697 4.697 0 0 0-.11-.062 4.72 4.72 0 0 0-.11-.063 4.699 4.699 0 0 0-.11-.062 4.697 4.697 0 0 0-.11-.063 4.72 4.72 0 0 0-.11-.062 4.718 4.718 0 0 0-.11-.062 4.672 4.672 0 0 0-.11-.063 4.697 4.697 0 0 0-.11-.062 4.738 4.738 0 0 0-.11-.062 4.698 4.698 0 0 0-.111-.063 4.718 4.718 0 0 0-.11-.062 4.699 4.699 0 0 0-.11-.063 4.718 4.718 0 0 0-.11-.062 4.672 4.672 0 0 0-.11-.063 4.697 4.697 0 0 0-.11-.062 4.72 4.72 0 0 0-.11-.062 4.699 4.699 0 0 0-.11-.063 4.7 4.7 0 0 0-.11-.062 4.699 4.699 0 0 0-.11-.063 4.697 4.697 0 0 0-.11-.062 4.717 4.717 0 0 0-.11-.062 4.697 4.697 0 0 0-.11-.063 4.738 4.738 0 0 0-.11-.062 4.699 4.699 0 0 0-.11-.063 4.718 4.718 0 0 0-.11-.062 4.699 4.699 0 0 0-.111-.062 4.718 4.718 0 0 0-.11-.063 4.672 4.672 0 0 0-.11-.062 4.697 4.697 0 0 0-.11-.063 4.738 4.738 0 0 0-.11-.062 4.698 4.698 0 0 0-.11-.062 4.7 4.7 0 0 0-.11-.063 4.699 4.699 0 0 0-.11-.062 4.7 4.7 0 0 0-.11-.063 4.672 4.672 0 0 0-.11-.062 4.697 4.697 0 0 0-.11-.062 4.725 4.725 0 0 0-.11-.063 4.719 4.719 0 0 0-.11-.062 4.718 4.718 0 0 0-.11-.063 4.699 4.699 0 0 0-.111-.062 4.718 4.718 0 0 0-.11-.062 4.672 4.672 0 0 0-.11-.063 4.697 4.697 0 0 0-.11-.062 4.738 4.738 0 0 0-.11-.063 4.699 4.699 0 0 0-.11-.062 4.718 4.718 0 0 0-.11-.062 4.699 4.699 0 0 0-.11-.063 4.7 4.7 0 0 0-.11-.062 4.672 4.672 0 0 0-.11-.063 4.697 4.697 0 0 0-.11-.062 4.72 4.72 0 0 0-.11-.062 4.698 4.698 0 0 0-.11-.063 4.697 4.697 0 0 0-.11-.062 4.72 4.72 0 0 0-.111-.063 4.718 4.718 0 0 0-.11-.062 4.672 4.672 0 0 0-.11-.062 4.697 4.697 0 0 0-.11-.063 4.738 4.738 0 0 0-.11-.062 4.699 4.699 0 0 0-.11-.063 4.718 4.718 0 0 0-.11-.062 4.699 4.699 0 0 0-.11-.063 4.718 4.718 0 0 0-.11-.062 4.714 4.714 0 0 0-.11-.062 4.698 4.698 0 0 0-.11-.063 4.7 4.7 0 0 0-.11-.062 4.699 4.699 0 0 0-.11-.063 4.7 4.7 0 0 0-.11-.062 4.698 4.698 0 0 0-.11-.062 4.697 4.697 0 0 0-.11-.063 4.68 4.68 0 0 0-.11-.062 4.699 4.699 0 0 0-.111-.063 4.718 4.718 0 0 0-.11-.062 4.698 4.698 0 0 0-.11-.062 4.718 4.718 0 0 0-.11-.063 4.699 4.699 0 0 0-.11-.062 4.718 4.718 0 0 0-.11-.063 4.714 4.714 0 0 0-.11-.062c-1.94-1.134-4.632-.976-7.61.743a19.047 19.047 0 0 0-4.697 3.96l-.047-.025a5.914 5.914 0 0 0-.11-.063 5.986 5.986 0 0 0-.11-.062 5.865 5.865 0 0 0-.11-.063 5.922 5.922 0 0 0-.11-.062 5.986 5.986 0 0 0-.11-.062 5.896 5.896 0 0 0-.11-.063 5.908 5.908 0 0 0-.11-.062 5.98 5.98 0 0 0-.11-.063 5.908 5.908 0 0 0-.11-.062 5.868 5.868 0 0 0-.11-.062 5.962 5.962 0 0 0-.11-.063 5.908 5.908 0 0 0-.11-.062 5.98 5.98 0 0 0-.11-.063 5.908 5.908 0 0 0-.111-.062 5.979 5.979 0 0 0-.11-.062 5.907 5.907 0 0 0-.11-.063 5.9 5.9 0 0 0-.11-.062 5.962 5.962 0 0 0-.11-.063 5.975 5.975 0 0 0-.11-.062 5.819 5.819 0 0 0-.11-.062 5.986 5.986 0 0 0-.11-.063 5.896 5.896 0 0 0-.11-.062 5.908 5.908 0 0 0-.11-.063 5.896 5.896 0 0 0-.11-.062 5.962 5.962 0 0 0-.11-.062 5.908 5.908 0 0 0-.111-.063 5.979 5.979 0 0 0-.11-.062 5.908 5.908 0 0 0-.11-.063 5.98 5.98 0 0 0-.11-.062c-2.502-1.454-5.973-1.247-9.81.969-7.181 4.145-13.08 13.841-13.747 22.265a9.137 9.137 0 0 0-1.168.572C4.033 30.056.626 35.934.626 40.757c0 2.448.878 4.153 2.291 4.923l.11.062.11.062c.037.022.073.043.11.063l.11.062.11.063.11.062.11.062.11.063.11.062.11.063.111.062c.036.022.073.042.11.062.036.022.073.043.11.063l.11.062c.037.022.073.043.11.063l.11.062.11.062c.037.022.073.043.11.063l.11.062.11.063.11.062.11.062.11.063.11.062.111.063.11.062c.036.022.073.042.11.062.037.022.073.043.11.063l.11.062c.037.022.073.043.11.063l.11.062.11.063.11.062.11.062.11.063.11.062.111.063.11.062.11.062c.036.022.073.043.11.063l.11.062.11.063.11.062.11.062c.037.022.073.043.11.063l.11.062.11.063.11.062.11.062.11.063.111.062c.036.022.073.042.11.063l.11.062.11.062c.036.022.073.043.11.063l.11.062.11.063.11.062.11.062c.037.022.073.043.11.063l.11.062.11.063.11.062.11.062.111.063.11.062c.036.022.073.042.11.063l.11.062c.036.022.073.042.11.062.037.022.073.043.11.063l.11.062c.037.022.073.043.11.063l.11.062.11.062.11.063.11.062.11.063.11.062.11.063.111.062c1.38.816 47.561-43.637 45.59-44.725z" transform="translate(20 32)"/>
                <path fill="url(#g)" d="M49.814 6.753a19.732 19.732 0 0 0-5.37 4.76c-2.258-3.918-6.952-4.799-12.377-1.667-7.18 4.146-13.08 13.842-13.746 22.266a9.137 9.137 0 0 0-1.169.572c-4.203 2.427-7.61 8.304-7.61 13.128 0 4.823 3.407 6.766 7.61 4.34l32.662-18.858c5.906-3.41 10.693-11.667 10.693-18.444 0-6.777-4.787-9.507-10.693-6.097z" transform="translate(20 32)"/>
                <path fill="#1298BD" d="M66.326 49.09l-7.289 18.89-2.749-1.587 7.289-18.89z"/>
                <path fill="#EBEBEB" d="M48.353 59.575v21.52l-2.75-1.587v-21.52z"/>
                <path fill="#EBEBEB" d="M48.353 81.095l-3.894 2.268-2.749-1.587 3.894-2.268z"/>
                <path fill="#1298BD" d="M44.46 83.363l7.288 10.386L49 92.162 41.71 81.776z"/>
                <path fill="#EBEBEB" d="M55.143 55.614l-6.79 3.96-2.75-1.587 6.79-3.96z"/>
                <path fill="#1298BD" d="M59.037 74.858l-3.894 2.275-2.75-1.587 3.895-2.274zM62.931 65.731v21.494l-2.75-1.587V64.144z"/>
                <path fill="#FFF" d="M51.748 93.75l7.29-18.892-14.579 8.505z"/>
                <path fill="#FFF" d="M48.353 59.575v22.92l6.79-3.962V55.614zM66.326 49.09l-7.289 18.89 14.578-8.504z"/>
                <path fill="#FFF" d="M69.72 83.264V60.345l-6.789 3.96v22.92z"/>
            </g>
            <path fill="url(#f)" d="M75.145 16.057a4.699 4.699 0 0 0-.11-.063 4.7 4.7 0 0 0-.11-.062 4.672 4.672 0 0 0-.11-.063 4.697 4.697 0 0 0-.11-.062 4.72 4.72 0 0 0-.11-.062 4.698 4.698 0 0 0-.11-.063 4.697 4.697 0 0 0-.11-.062 4.72 4.72 0 0 0-.11-.063 4.718 4.718 0 0 0-.11-.062 4.673 4.673 0 0 0-.11-.063 4.697 4.697 0 0 0-.111-.062 4.738 4.738 0 0 0-.11-.062 4.7 4.7 0 0 0-.11-.063 4.718 4.718 0 0 0-.11-.062 4.699 4.699 0 0 0-.11-.063 4.718 4.718 0 0 0-.11-.062 4.673 4.673 0 0 0-.11-.062 4.697 4.697 0 0 0-.11-.063 4.72 4.72 0 0 0-.11-.062 4.699 4.699 0 0 0-.11-.063 4.7 4.7 0 0 0-.11-.062 4.699 4.699 0 0 0-.11-.062 4.697 4.697 0 0 0-.11-.063 4.717 4.717 0 0 0-.11-.062 4.697 4.697 0 0 0-.11-.063 4.738 4.738 0 0 0-.111-.062 4.7 4.7 0 0 0-.11-.062 4.718 4.718 0 0 0-.11-.063 4.698 4.698 0 0 0-.11-.062 4.718 4.718 0 0 0-.11-.063 4.673 4.673 0 0 0-.11-.062 4.697 4.697 0 0 0-.11-.062 4.738 4.738 0 0 0-.11-.063 4.7 4.7 0 0 0-.11-.062 4.7 4.7 0 0 0-.11-.063 4.699 4.699 0 0 0-.11-.062 4.7 4.7 0 0 0-.11-.062 4.673 4.673 0 0 0-.11-.063 4.697 4.697 0 0 0-.11-.062 4.725 4.725 0 0 0-.111-.063 4.72 4.72 0 0 0-.11-.062 4.718 4.718 0 0 0-.11-.062 4.699 4.699 0 0 0-.11-.063 4.718 4.718 0 0 0-.11-.062 4.672 4.672 0 0 0-.11-.063 4.696 4.696 0 0 0-.11-.062 4.738 4.738 0 0 0-.11-.062 4.698 4.698 0 0 0-.11-.063 4.718 4.718 0 0 0-.11-.062 4.699 4.699 0 0 0-.11-.063 4.7 4.7 0 0 0-.11-.062 4.672 4.672 0 0 0-.11-.062 4.696 4.696 0 0 0-.11-.063 4.72 4.72 0 0 0-.11-.062 4.699 4.699 0 0 0-.111-.063 4.697 4.697 0 0 0-.11-.062 4.72 4.72 0 0 0-.11-.063 4.718 4.718 0 0 0-.11-.062 4.673 4.673 0 0 0-.11-.062 4.697 4.697 0 0 0-.11-.063 4.738 4.738 0 0 0-.11-.062 4.699 4.699 0 0 0-.11-.063 4.718 4.718 0 0 0-.11-.062 4.698 4.698 0 0 0-.11-.062 4.718 4.718 0 0 0-.11-.063 4.714 4.714 0 0 0-.11-.062 4.699 4.699 0 0 0-.11-.063 4.7 4.7 0 0 0-.11-.062 4.698 4.698 0 0 0-.11-.062 4.7 4.7 0 0 0-.11-.063 4.699 4.699 0 0 0-.111-.062 4.696 4.696 0 0 0-.11-.063 4.68 4.68 0 0 0-.11-.062 4.698 4.698 0 0 0-.11-.062 4.718 4.718 0 0 0-.11-.063 4.699 4.699 0 0 0-.11-.062 4.718 4.718 0 0 0-.11-.063 4.698 4.698 0 0 0-.11-.062 4.718 4.718 0 0 0-.11-.062 4.714 4.714 0 0 0-.11-.063c-1.94-1.134-4.632-.976-7.61.743a19.047 19.047 0 0 0-4.697 3.96l-.047-.025a5.914 5.914 0 0 0-.11-.063 5.986 5.986 0 0 0-.11-.062 5.865 5.865 0 0 0-.11-.062 5.921 5.921 0 0 0-.11-.063 5.986 5.986 0 0 0-.11-.062 5.896 5.896 0 0 0-.11-.063 5.908 5.908 0 0 0-.11-.062 5.979 5.979 0 0 0-.11-.062 5.907 5.907 0 0 0-.11-.063 5.868 5.868 0 0 0-.11-.062 5.962 5.962 0 0 0-.11-.063 5.908 5.908 0 0 0-.111-.062 5.979 5.979 0 0 0-.11-.062 5.907 5.907 0 0 0-.11-.063 5.98 5.98 0 0 0-.11-.062 5.908 5.908 0 0 0-.11-.063 5.9 5.9 0 0 0-.11-.062 5.962 5.962 0 0 0-.11-.062 5.975 5.975 0 0 0-.11-.063 5.819 5.819 0 0 0-.11-.062 5.986 5.986 0 0 0-.11-.063 5.896 5.896 0 0 0-.11-.062 5.907 5.907 0 0 0-.11-.062 5.896 5.896 0 0 0-.11-.063 5.962 5.962 0 0 0-.111-.062 5.908 5.908 0 0 0-.11-.063 5.979 5.979 0 0 0-.11-.062 5.907 5.907 0 0 0-.11-.062 5.98 5.98 0 0 0-.11-.063c-2.503-1.454-5.973-1.246-9.81.969-7.181 4.146-13.081 13.841-13.747 22.265a9.137 9.137 0 0 0-1.168.572c-4.204 2.427-7.611 8.305-7.611 13.128 0 2.448.877 4.153 2.291 4.923l.11.062c.036.022.073.042.11.063l.11.062.11.062c.037.022.073.043.11.063l.11.062.11.063.11.062.11.062.11.063.11.062.111.063.11.062.11.062c.036.022.073.043.11.063l.11.062.11.063.11.062.11.062c.037.022.073.043.11.063l.11.062.11.063.11.062.11.062.11.063.111.062c.036.022.073.043.11.063l.11.062c.036.022.073.042.11.062.036.022.073.043.11.063l.11.062c.037.022.073.043.11.063l.11.062.11.062.11.063.11.062.11.063.11.062.11.063.111.062.11.062c.036.022.073.043.11.063l.11.062c.036.022.073.042.11.063l.11.062.11.062c.037.022.073.043.11.063l.11.062.11.063.11.062.11.062.11.063.11.062.111.063.11.062.11.062c.036.022.073.043.11.063l.11.062.11.063.11.062.11.062c.037.022.073.043.11.063l.11.062.11.063.11.062.11.062.11.063.111.062c.036.022.073.042.11.063l.11.062c.036.022.073.042.11.062.036.022.073.043.11.063l.11.062c.037.022.073.043.11.063l.11.062.11.062.11.063.11.062.11.063.11.062c1.381.816 47.562-43.637 45.59-44.724z" transform="translate(20 32)"/>
            <path fill="url(#g)" d="M67.645 16.862a19.732 19.732 0 0 0-5.369 4.76c-2.258-3.918-6.952-4.799-12.377-1.666-7.18 4.145-13.08 13.84-13.747 22.265a9.137 9.137 0 0 0-1.168.572c-4.203 2.427-7.61 8.305-7.61 13.128 0 4.824 3.407 6.766 7.61 4.34l32.661-18.857c5.906-3.41 10.694-11.668 10.694-18.445 0-6.777-4.788-9.507-10.694-6.097z" transform="translate(20 32)"/>
            <path fill="#EBEBEB" d="M84.158 59.199l-7.29 18.89-2.748-1.586 7.289-18.891zM66.185 69.684v21.52l-2.75-1.587v-21.52z"/>
            <path fill="#EBEBEB" d="M66.185 91.204l-3.894 2.268-2.75-1.587 3.895-2.268z"/>
            <path fill="#EBEBEB" d="M62.29 93.472l7.29 10.386-2.75-1.587-7.288-10.386zM72.974 65.723l-6.79 3.961-2.748-1.587 6.79-3.961zM76.869 84.968l-3.895 2.274-2.749-1.587 3.895-2.274zM80.763 75.84v21.494l-2.75-1.587V74.254z"/>
            <path fill="#FFF" d="M69.58 103.858l7.289-18.89-14.578 8.504z"/>
            <path fill="#FFF" d="M66.185 69.684v22.92l6.79-3.962v-22.92zM84.158 59.199l-7.29 18.89 14.579-8.504z"/>
            <path fill="#FFF" d="M87.552 93.373v-22.92l-6.79 3.962v22.92z"/>
        </g>
    </g>
</svg>
