<svg xmlns="http://www.w3.org/2000/svg" width="118" height="172" viewBox="0 0 118 172">
    <defs>
        <linearGradient id="a" x1="50%" x2="50%" y1="95.821%" y2="10.378%">
            <stop offset="0%" stop-color="#F6F9FC"/>
            <stop offset="100%" stop-color="#FFF"/>
        </linearGradient>
        <linearGradient id="b" x1="171.445%" x2="-45.933%" y1="100%" y2="-10.122%">
            <stop offset="0%" stop-color="#F6F9FC"/>
            <stop offset="100%" stop-color="#FFF"/>
        </linearGradient>
        <linearGradient id="c" x1="46419.419%" x2="51901.43%" y1="68803%" y2="75970%">
            <stop offset="0%" stop-color="#2A39DD"/>
            <stop offset="28%" stop-color="#2449E7"/>
            <stop offset="100%" stop-color="#1670FF"/>
        </linearGradient>
        <radialGradient id="d" cx="54.048%" cy="54.439%" r="140.163%" fx="54.048%" fy="54.439%" gradientTransform="matrix(-.53734 .37023 -.21416 -.92894 .947 .85)">
            <stop offset="0%" stop-color="#FFF" stop-opacity=".5"/>
            <stop offset="100%" stop-color="#FFF" stop-opacity="0"/>
        </radialGradient>
        <linearGradient id="e" x1="50%" x2="50%" y1="100%" y2="0%">
            <stop offset="0%" stop-color="#9B8DFF"/>
            <stop offset="100%" stop-color="#A12DEF"/>
        </linearGradient>
        <linearGradient id="f" x1="62.898%" x2="50%" y1="71.308%" y2="24.293%">
            <stop offset="0%" stop-color="#0178FF"/>
            <stop offset="100%" stop-color="#0092FF"/>
        </linearGradient>
        <linearGradient id="g" x1="2407%" x2="6853%" y1="4225%" y2="4225%">
            <stop offset="0%" stop-color="#8271FF"/>
            <stop offset="100%" stop-color="#E4BCFF"/>
        </linearGradient>
    </defs>
    <g fill="none" fill-rule="evenodd">
        <path fill="#DFE8F0" fill-opacity=".5" fill-rule="nonzero" d="M115.872 142.877l-57.15-32.646L1.53 142.877a1.02 1.02 0 0 0 0 1.79l55.814 31.868a2.881 2.881 0 0 0 2.753 0l55.814-31.868c.629-.39.629-1.362-.04-1.79h.001z"/>
        <path stroke="#4E87FF" stroke-width=".72" d="M68.099 101.544L9.547 135.147l58.552-33.603zm9.765 5.613l-58.552 33.604 58.552-33.604zm9.765 5.575l-58.552 33.603 58.552-33.603zm9.765 5.613L38.842 151.95l58.552-33.605zm9.726 5.615l-58.552 33.603 58.552-33.603zm-58.583-22.338l58.27 33.533-58.27-33.533zm-9.68 5.603l58.272 33.532-58.272-33.532zm-9.718 5.562L87.41 146.32l-58.271-33.533zm-9.718 5.602l58.27 33.533-58.27-33.533zm-9.717 5.601l58.27 33.533-58.27-33.533zm106.168 4.528l-57.15-32.646L1.53 128.518a1.02 1.02 0 0 0 0 1.79l55.814 31.868a2.881 2.881 0 0 0 2.753 0l55.814-31.868c.629-.39.629-1.362-.04-1.79h.001z" opacity=".5"/>
        <g fill-rule="nonzero">
            <path fill="#FFF" d="M116.459 108.556L59.084 141.74 1.72 108.556 59.084 75.37z"/>
            <path fill="url(#a)" d="M116.1 99.556L58.41 66.375V0l57.69 33.18z" transform="translate(1 9)"/>
            <path fill="url(#b)" d="M58.411 66.375L.721 99.555V33.182L58.411 0z" transform="translate(1 9)"/>
            <path fill="url(#c)" d="M115.459 95.38v4.176L58.083 132.74.721 99.556V95.38l57.362-29.01z" transform="translate(1 9)"/>
            <path fill="#0169FE" d="M116.459 104.095l-57.376 33.179-57.362-33.18 57.362-33.19z"/>
            <path fill="url(#d)" d="M114.738 34.095L57.362 67.274 0 34.094 57.362.904z" transform="translate(1.721 70)"/>
        </g>
        <g fill-rule="nonzero">
            <path fill="#999" d="M67.726 87.285v-3.283l-20.2 11.694v3.283z"/>
            <g opacity=".6">
                <path fill="url(#e)" d="M.108 19.296l2.736 1.54v53.466L.108 72.72z" transform="translate(32 34)"/>
                <path fill="url(#f)" d="M35.684 45.728V1.825L2.844 20.836V64.74z" transform="translate(32 34)"/>
                <path fill="url(#g)" d="M35.684 1.825L32.948.242.108 19.296l2.736 1.54z" transform="translate(32 34)"/>
                <path fill="#97CAFF" d="M67.684 89.292v-9.564l-32.84 19.01v9.564z"/>
                <path fill="#97CAFF" d="M34.844 108.302V98.74l-2.736-1.584v9.564z"/>
                <path fill="#CCC" d="M38.061 102.23l.857-1.64-1.713.991z"/>
            </g>
            <path fill="#999" d="M75.83 91.965v-3.283l-20.2 11.694v3.283z"/>
            <g opacity=".8">
                <path fill="url(#e)" d="M.212 19.976l2.736 1.54v53.466L.212 73.398z" transform="translate(42 38)"/>
                <path fill="url(#f)" d="M35.788 46.408V2.504l-32.84 19.01v43.903z" transform="translate(42 38)"/>
                <path fill="url(#g)" d="M35.788 2.505L33.052.921.212 19.976l2.736 1.54z" transform="translate(42 38)"/>
                <path fill="#97CAFF" d="M77.787 93.972v-9.564l-32.84 19.01v9.565z"/>
                <path fill="#97CAFF" d="M44.948 112.982v-9.564l-2.736-1.583v9.564z"/>
                <path fill="#CCC" d="M48.165 106.91l.857-1.64-1.713.991z"/>
            </g>
            <path fill="url(#e)" d="M21.316 29.657l2.736 1.539v53.466l-2.736-1.583z" transform="translate(32 34)"/>
            <path fill="url(#f)" d="M56.892 56.088V12.185l-32.84 19.011v43.902z" transform="translate(32 34)"/>
            <path fill="url(#g)" d="M56.892 12.185l-2.736-1.583-32.84 19.055 2.736 1.539z" transform="translate(32 34)"/>
            <path fill="#97CAFF" d="M88.892 90.088L56.052 109.1v9.563l32.84-19.01v-9.565zm-32.84 28.574v-9.564l-2.736-1.583v9.564l2.736 1.583z"/>
            <path fill="#FFF" d="M86.934 97.645v-3.283l-20.201 11.694v3.283l20.201-11.694zM59.27 112.59l.856-1.64-1.713.991.857.649zm22.786-38.478a.912.912 0 0 1-.3.624l-2.02 1.53c-.113.468-.252.93-.418 1.381.364.378.757.728 1.174 1.046a.342.342 0 0 1 .09.247.68.68 0 0 1-.09.338c-.261.556-1.722 3.232-2.1 3.45a.386.386 0 0 1-.274.054l-1.5-.482c-.312.37-.647.72-1.003 1.047a21.01 21.01 0 0 1-.3 2.499.94.94 0 0 1-.391.586l-2.426 1.404c-.182.106-.365.046-.39-.149l-.3-2.121c-.322.07-.65.103-.979.1l-1.538 2.227a.739.739 0 0 1-.261.256.31.31 0 0 1-.274.038c-.339-.164-1.878-.878-1.878-1.313a.885.885 0 0 1 .092-.338c.378-.79.769-1.57 1.147-2.375a4.68 4.68 0 0 1-.456-.966l-1.982.788c-.183.075-.313-.044-.313-.254v-2.776a.912.912 0 0 1 .3-.623l2.02-1.53c.113-.469.252-.93.418-1.382a10.354 10.354 0 0 0-1.173-1.046.37.37 0 0 1-.092-.247.778.778 0 0 1 .092-.353c.26-.556 1.72-3.217 2.099-3.436a.386.386 0 0 1 .274-.053l1.5.482c.316-.37.65-.725 1.003-1.062a21.27 21.27 0 0 1 .3-2.483c.05-.24.19-.45.391-.587l2.426-1.404c.182-.106.365-.046.391.149l.3 2.121c.321-.069.65-.103.978-.1l1.539-2.227a.783.783 0 0 1 .26-.256.31.31 0 0 1 .274-.038c.34.164 1.878.893 1.878 1.313a.885.885 0 0 1-.092.338c-.378.804-.769 1.57-1.134 2.367.178.31.326.636.443.974l1.982-.802c.183-.061.313.058.313.268v2.776zm-8.345-.42a7.397 7.397 0 0 0-3.338 5.773c0 2.115 1.5 2.972 3.338 1.908A7.397 7.397 0 0 0 77.05 75.6c0-2.115-1.5-2.972-3.338-1.908h-.001z"/>
        </g>
    </g>
</svg>
