<svg xmlns="http://www.w3.org/2000/svg" xmlns:xlink="http://www.w3.org/1999/xlink" width="118" height="172" viewBox="0 0 118 172">
    <defs>
        <linearGradient id="a" x1="50%" x2="50%" y1="95.821%" y2="10.378%">
            <stop offset="0%" stop-color="#F6F9FC"/>
            <stop offset="100%" stop-color="#FFF"/>
        </linearGradient>
        <linearGradient id="b" x1="171.445%" x2="-45.933%" y1="100%" y2="-10.122%">
            <stop offset="0%" stop-color="#F6F9FC"/>
            <stop offset="100%" stop-color="#FFF"/>
        </linearGradient>
        <linearGradient id="c" x1="46419.419%" x2="51901.43%" y1="68803%" y2="75970%">
            <stop offset="0%" stop-color="#2A39DD"/>
            <stop offset="28%" stop-color="#2449E7"/>
            <stop offset="100%" stop-color="#1670FF"/>
        </linearGradient>
        <radialGradient id="e" cx="54.049%" cy="54.43%" r="140.163%" fx="54.049%" fy="54.43%" gradientTransform="scale(-.57845 -1) rotate(-21.73 -3.033 3.842)">
            <stop offset="0%" stop-color="#FFF" stop-opacity=".5"/>
            <stop offset="100%" stop-color="#FFF" stop-opacity="0"/>
        </radialGradient>
        <path id="d" d="M114.738 95.095l-57.376 33.179L0 95.094l57.362-33.19z"/>
        <linearGradient id="f" x1="2407%" x2="6853%" y1="4225%" y2="4225%">
            <stop offset="0%" stop-color="#8271FF"/>
            <stop offset="100%" stop-color="#E4BCFF"/>
        </linearGradient>
        <linearGradient id="g" x1="50%" x2="50%" y1="100%" y2="0%">
            <stop offset="0%" stop-color="#9B8DFF"/>
            <stop offset="100%" stop-color="#A12DEF"/>
        </linearGradient>
        <linearGradient id="h" x1="62.898%" x2="50%" y1="71.308%" y2="24.293%">
            <stop offset="0%" stop-color="#0178FF"/>
            <stop offset="100%" stop-color="#0092FF"/>
        </linearGradient>
    </defs>
    <g fill="none" fill-rule="evenodd">
        <path fill="#DFE8F0" fill-opacity=".5" d="M115.872 135.877l-57.15-32.646L1.53 135.877a1.02 1.02 0 0 0 0 1.79l55.814 31.868a2.881 2.881 0 0 0 2.753 0l55.814-31.868c.629-.39.629-1.362-.04-1.79z"/>
        <g stroke="#4E87FF" stroke-width=".72" opacity=".5">
            <path d="M68.099 94.544L9.547 128.147m68.317-27.99l-58.552 33.604m68.317-28.029l-58.552 33.603m68.317-27.99L38.842 144.95m68.278-27.99l-58.552 33.603M48.537 94.622l58.27 33.533m-67.95-27.93l58.272 33.532m-67.99-27.97L87.41 139.32m-67.989-27.931l58.27 33.533M9.704 116.99l58.27 33.533M115.872 121.518l-57.15-32.646L1.53 121.518a1.02 1.02 0 0 0 0 1.79l55.814 31.868a2.881 2.881 0 0 0 2.753 0l55.814-31.868c.629-.39.629-1.362-.04-1.79z"/>
        </g>
        <g fill-rule="nonzero">
            <path fill="#FFF" d="M116.459 101.556L59.084 134.74 1.72 101.556 59.084 68.37z"/>
            <path fill="url(#a)" d="M115.379 99.556l-57.69-33.181V0l57.69 33.18v66.376z" transform="translate(1.721 2)"/>
            <path fill="url(#b)" d="M57.69 66.375L0 99.555V33.182L57.69 0z" transform="translate(1.721 2)"/>
            <path fill="url(#c)" d="M114.738 95.38v4.176L57.362 132.74 0 99.556V95.38l57.362-29.01 57.376 29.01z" transform="translate(1.721 2)"/>
            <g transform="translate(1.721 2)">
                <use fill="#0169FE" xlink:href="#d"/>
                <use fill="url(#e)" xlink:href="#d"/>
            </g>
        </g>
        <g fill-rule="nonzero">
            <path fill="url(#f)" d="M58.843 5.715c-.03-.038-14.188 1.132-14.306 1.186-8.565 3.96-12.158-1.265-19.346-2.581a.308.308 0 0 0-.206.048.692.692 0 0 0-.207.19C17.591 14.174 9.264 22.391.698 28.322a.837.837 0 0 0-.337.631C.548 45.707 6.615 58.06 16.969 63.577l.105.06.12.07.118.068.12.07.118.068.12.07.12.069c.038.024.079.045.118.069l.12.07.119.068.12.07c.038.023.079.045.118.069l.12.068.119.07c.04.024.08.045.119.069.04.024.08.045.12.07l.118.068.12.07.119.068.12.07.118.068.12.07c.039.024.08.045.119.069l.119.07.12.068.119.07c.039.023.08.045.119.069.04.023.08.045.119.069l.12.069c.038.023.079.045.118.069l.12.069.119.07.12.068c.038.024.079.046.118.07l.12.068.119.07.12.069c.038.023.079.045.118.069l.12.069.119.07.119.068.12.07c.038.023.079.045.118.069l.12.069c.039.023.08.045.119.069.039.023.08.045.119.069l.12.069c.038.024.08.046.118.07l.12.068.119.07.12.069c.038.023.079.045.118.069l.12.069c.039.024.08.045.12.069.038.024.079.045.118.069l.12.07.119.068.119.07c.04.023.08.045.119.069l.12.069c.039.023.08.045.119.069.039.024.08.045.119.069.039.024.08.045.119.069.039.024.08.046.12.07l.118.068.12.07c.039.023.08.045.119.069l.12.069c.035.022.073.042.109.063 2.763 1.715 5.29-3.785 8.693-3.161.062.011.782-1.026.854-1.068.072-.04-1.557 1.578-1.494 1.494C48.283 45.452 58.892 5.721 58.843 5.715z" transform="translate(30 33)"/>
            <path fill="url(#g)" d="M16.969 63.577l8.202 4.755c2.763 1.714 1.662-1.223 5.065-.6.062.011-3.914-6.362-3.842-6.404.008-.004-2.72-5.353 2.989 3.202L10.017 34.552.361 28.953C.548 45.707 6.615 58.06 16.969 63.577z" transform="translate(30 33)"/>
            <path fill="url(#f)" d="M52.65 29.018c2.356-8.28 6.53-15.202 6.614-22.898.002-.16-.072-.253-.183-.266-.03-.038-9.488-5.525-9.537-5.53A.213.213 0 0 0 49.27.28C40.705 4.239 32.38 5.636 25.191 4.32l9.657 5.6L52.65 29.017z" transform="translate(30 33)"/>
            <path fill="url(#f)" d="M52.65 29.018c2.356-8.28 6.53-15.202 6.614-22.898.002-.16-.072-.253-.183-.266-.03-.038-9.488-5.525-9.537-5.53A.213.213 0 0 0 49.27.28C40.705 4.239 32.38 5.636 25.191 4.32l9.657 5.6L52.65 29.017z" transform="translate(30 33)"/>
            <path fill="url(#h)" d="M59.264 6.12c.003-.226-.144-.33-.337-.241-8.565 3.959-16.892 5.356-24.08 4.04a.308.308 0 0 0-.206.048.692.692 0 0 0-.206.19c-7.188 9.616-15.514 17.833-24.08 23.765a.837.837 0 0 0-.338.63c.23 20.61 9.358 34.56 24.418 37.318a.31.31 0 0 0 .206-.049.715.715 0 0 0 .207-.19C49.906 51.485 59.034 26.995 59.264 6.12z" transform="translate(30 33)"/>
            <path fill="#EBEBEB" d="M82.51 53.778l-5.022-2.863-15.68 27.047 5.833 11.514z"/>
            <path fill="#EBEBEB" d="M66.83 80.826l-11.46-6.534-5.022 8.661 5.022 2.864z"/>
            <path fill="#FFF" d="M82.51 53.778L66.83 80.826l-6.438-3.67-5.023 8.66 11.46 6.534 20.703-35.709z"/>
        </g>
    </g>
</svg>
