<svg xmlns="http://www.w3.org/2000/svg" width="109" height="26" viewBox="0 0 109 26">
    <defs>
        <linearGradient id="a" x1="57.975%" x2="38.988%" y1="36.722%" y2="68.324%">
            <stop offset="0%" stop-color="#0FF" stop-opacity=".1"/>
            <stop offset="100%" stop-color="#0FF" stop-opacity="0"/>
        </linearGradient>
        <linearGradient id="b" x1="50%" x2="50%" y1="0%" y2="100%">
            <stop offset="0%" stop-color="#2A39DD"/>
            <stop offset="100%" stop-color="#4B94EF"/>
        </linearGradient>
        <linearGradient id="c" x1="50%" x2="50%" y1="0%" y2="100%">
            <stop offset="0%" stop-color="#8271FF"/>
            <stop offset="100%" stop-color="#C0A0FF"/>
        </linearGradient>
    </defs>
    <g fill="none" fill-rule="evenodd">
        <path fill="url(#a)" fill-rule="nonzero" d="M9.606 24.82v5.74L.394 25.284v-5.737z" transform="translate(90 -4)"/>
        <path fill="url(#a)" fill-rule="nonzero" d="M18.923 25.127v5.813L9.593 25.6v-5.811z" transform="matrix(-1 0 0 1 118.516 -4)"/>
        <path fill="url(#b)" fill-rule="nonzero" d="M18.522 5.45a.83.83 0 0 0-.029-.206c-.008-.029-.024-.054-.035-.082-.016-.042-.03-.085-.053-.124-.016-.027-.039-.049-.058-.073-.026-.035-.05-.072-.081-.103-.023-.022-.051-.038-.076-.057-.034-.027-.065-.057-.104-.078l-.006-.003-.004-.003-8.38-4.61a.904.904 0 0 0-.869 0L4.771 2.345H4.77L.448 4.721c-.002 0-.003.003-.005.003l-.005.003c-.038.02-.068.05-.1.075-.027.02-.056.037-.08.06-.032.031-.056.069-.083.105-.018.024-.04.045-.055.07-.026.043-.041.09-.058.135-.01.024-.024.046-.03.071a.812.812 0 0 0-.028.2c0 .008-.004.016-.004.024v9.65c0 .308.171.594.448.746l8.38 4.61c.045.024.093.039.14.055.023.008.045.021.069.027a.89.89 0 0 0 .45 0c.024-.005.045-.018.069-.026.047-.017.096-.031.14-.056l8.38-4.61a.854.854 0 0 0 .448-.746v-9.65l-.002-.016z" transform="translate(90.339 .896)"/>
        <path fill="#75ACFF" d="M90.926 5.719L99.09.975c.228-.132.317-.166.422-.19a.74.74 0 0 1 .312-.002c.105.021.194.054.424.182l7.996 4.458a.835.835 0 0 1 .016 1.45l-8.13 4.772c-.228.134-.317.17-.422.193a.74.74 0 0 1-.313.003c-.106-.021-.196-.054-.427-.183l-8.03-4.489a.835.835 0 0 1-.012-1.45z"/>
        <g>
            <path fill="url(#a)" fill-rule="nonzero" d="M5.959 16.188v3.69l-5.714-3.39V12.8z" transform="translate(0 6)"/>
            <path fill="url(#a)" fill-rule="nonzero" d="M11.738 16.395v3.738l-5.787-3.434v-3.736z" transform="matrix(-1 0 0 1 17.689 6)"/>
            <path fill="url(#c)" fill-rule="nonzero" d="M11.49 3.504a.552.552 0 0 0-.018-.133c-.005-.018-.015-.035-.022-.052-.01-.027-.019-.055-.033-.08-.01-.017-.024-.031-.036-.047-.016-.023-.03-.046-.05-.066-.014-.014-.032-.024-.048-.037-.02-.017-.04-.036-.064-.05l-.003-.002-.003-.002L6.015.072a.543.543 0 0 0-.54 0L2.96 1.507h-.001L.278 3.036l-.003.002-.003.002c-.024.013-.042.032-.063.049-.016.012-.034.023-.048.038-.02.02-.036.044-.052.067-.012.016-.026.03-.035.046-.015.027-.025.057-.036.086-.005.016-.014.03-.019.046a.54.54 0 0 0-.017.128L0 3.515v6.203c0 .199.106.382.278.48l5.198 2.964c.028.016.058.025.087.036.014.005.028.013.043.017a.534.534 0 0 0 .28 0c.014-.004.027-.012.042-.017.03-.01.059-.02.087-.036l5.198-2.963a.552.552 0 0 0 .278-.48V3.515l-.001-.01z" transform="translate(.21 9.38)"/>
            <path fill="#8271FF" d="M.503 12.37l5.055-2.876a.886.886 0 0 1 .274-.12.48.48 0 0 1 .202 0 .886.886 0 0 1 .274.12l5.089 2.9a.541.541 0 0 1 .002.938l-5.033 2.895a.885.885 0 0 1-.275.123.48.48 0 0 1-.203 0 .885.885 0 0 1-.276-.121L.502 13.31a.541.541 0 0 1 0-.94z"/>
        </g>
    </g>
</svg>
