<?xml version="1.0" encoding="UTF-8"?>
<svg width="64px" height="74px" viewBox="0 0 64 74" version="1.1" xmlns="http://www.w3.org/2000/svg" xmlns:xlink="http://www.w3.org/1999/xlink">
    <!-- Generator: Sketch 51.2 (57519) - http://www.bohemiancoding.com/sketch -->
    <title>Group</title>
    <desc>Created with Sketch.</desc>
    <defs>
        <linearGradient x1="31.028904%" y1="100%" x2="31.028904%" y2="5.22952992%" id="linearGradient-1">
            <stop stop-color="#0092FF" offset="0%"></stop>
            <stop stop-color="#00E7FF" offset="100%"></stop>
        </linearGradient>
        <linearGradient x1="50%" y1="88.019422%" x2="73.2789967%" y2="0%" id="linearGradient-2">
            <stop stop-color="#003CA2" offset="0%"></stop>
            <stop stop-color="#0178FF" offset="100%"></stop>
        </linearGradient>
        <linearGradient x1="50%" y1="100%" x2="50%" y2="-2.48949813e-15%" id="linearGradient-3">
            <stop stop-color="#0178FF" offset="0%"></stop>
            <stop stop-color="#0092FF" offset="100%"></stop>
        </linearGradient>
    </defs>
    <g id="Page-1" stroke="none" stroke-width="1" fill="none" fill-rule="evenodd">
        <g id="产品服务导航" transform="translate(-472.000000, -321.000000)">
            <g id="ca" transform="translate(445.000000, 321.000000)">
                <g id="Group-24">
                    <g id="img_ethereum" transform="translate(12.000000, 0.000000)">
                        <g id="Group" transform="translate(18.000000, 0.000000)">
                            <path d="M50.9296271,24.9586853 L57.8920678,28.985028 C53.6188475,32.7045874 49.4313898,37.8046713 45.9307797,43.8872098 C42.4279322,49.9757343 40.1227797,56.160035 39.0458983,61.736007 L32.0842034,57.7089161 C33.4571525,52.0371678 35.8547797,46.0324476 39.2964746,40.0471818 C42.095322,35.1768112 45.2588475,30.9013007 48.6095593,27.302958 C49.3747119,26.4836224 50.1435932,25.6957133 50.9296271,24.9586853" id="Fill-188" fill="url(#linearGradient-1)"></path>
                            <path d="M25.916,57.7089161 L18.9617627,61.736007 C17.8871186,56.1667692 15.5789831,49.9757343 12.0761356,43.8872098 C8.58223729,37.8046713 4.39701695,32.7105734 0.11559322,28.9917622 L0.11559322,28.985028 L7.07952542,24.9586853 C11.2863729,28.9797902 15.268,34.0693986 18.7059661,40.0471818 C21.5115254,44.9175524 23.6235254,49.8081259 25.0531525,54.5191189 C25.3768136,55.5951049 25.6654237,56.6598671 25.916,57.7089161" id="Fill-189" fill="url(#linearGradient-2)"></path>
                            <path d="M57.8920678,28.985028 L57.8920678,50.8205105 L39.0458983,61.736007 C40.1227797,56.160035 42.4279322,49.9757343 45.9307797,43.8872098 C49.4313898,37.8046713 53.6188475,32.7045874 57.8920678,28.985028" id="Fill-190" fill="url(#linearGradient-2)"></path>
                            <path d="M50.9296271,24.9586853 C50.1435932,25.6957133 49.3747119,26.4836224 48.6095593,27.302958 C45.2588475,30.9013007 42.095322,35.1768112 39.2964746,40.0471818 C35.8547797,46.0324476 33.4571525,52.0371678 32.0842034,57.7089161 C31.3503729,60.7625315 30.9126102,63.7188741 30.7835932,66.5218252 L29.0034576,67.5536643 L29.0034576,34.0881049 L29.008678,34.0881049 L57.8920678,17.3542028 L57.8920678,19.4059091 C55.5376949,20.9263566 53.2012203,22.7805245 50.9296271,24.9586853" id="Fill-191" fill="url(#linearGradient-2)"></path>
                            <path d="M47.8496271,19.5937203 C50.8550508,18.713028 53.6315254,17.6101049 56.1096949,16.3231119 L57.8920678,17.3542028 L29.008678,34.0881049 L29.0034576,34.0881049 L29.0034576,34.0813706 L0.11559322,17.3542028 L1.89498305,16.3231119 C4.38359322,17.6101049 7.15261017,18.713028 10.1572881,19.601951 C11.1909153,19.9005035 12.2543729,20.1840909 13.3469153,20.439993 C18.1190508,21.5541399 23.3938305,22.1632168 29.0034576,22.1632168 C35.8928136,22.1632168 42.2735593,21.2473566 47.8496271,19.5937203" id="Fill-192" fill="url(#linearGradient-1)"></path>
                            <path d="M47.8496271,11.535049 L47.8496271,19.5937203 C42.2735593,21.2473566 35.8928136,22.1632168 29.0034576,22.1632168 C23.3938305,22.1632168 18.1190508,21.5541399 13.3469153,20.439993 C12.2543729,20.1840909 11.1909153,19.9005035 10.1572881,19.601951 L10.1572881,11.535049 C10.1572881,11.535049 10.1572881,11.535049 10.1625085,11.535049 C15.5103729,13.3907133 22.0052203,14.4801678 29.0034576,14.4801678 C36.0016949,14.4801678 42.4972881,13.3907133 47.8444068,11.535049 C47.8496271,11.535049 47.8496271,11.535049 47.8496271,11.535049" id="Fill-193" fill="url(#linearGradient-3)"></path>
                            <path d="M29.0034576,0.622545455 L47.8444068,11.535049 C42.4972881,13.3907133 36.0016949,14.4801678 29.0034576,14.4801678 C22.0052203,14.4801678 15.5103729,13.3907133 10.1625085,11.535049 L29.0034576,0.622545455" id="Fill-194" fill="url(#linearGradient-1)"></path>
                            <path d="M29.0034576,34.0881049 L29.0034576,67.5536643 L27.2240678,66.5218252 C27.0898305,63.7188741 26.6543051,60.7625315 25.916,57.7089161 C25.6654237,56.6598671 25.3768136,55.5951049 25.0531525,54.5191189 C23.6235254,49.8081259 21.5115254,44.9175524 18.7059661,40.0471818 C15.268,34.0693986 11.2863729,28.9797902 7.07952542,24.9586853 C4.81091525,22.7887552 2.46922034,20.9330909 0.11559322,19.4148881 L0.11559322,17.3542028 L29.0034576,34.0813706 L29.0034576,34.0881049" id="Fill-195" fill="url(#linearGradient-3)"></path>
                            <path d="M18.9617627,61.736007 L0.11559322,50.8205105 L0.11559322,28.9917622 C4.39701695,32.7105734 8.58223729,37.8046713 12.0761356,43.8872098 C15.5789831,49.9757343 17.8871186,56.1667692 18.9617627,61.736007" id="Fill-196" fill="url(#linearGradient-3)"></path>
                        </g>
                    </g>
                </g>
            </g>
        </g>
    </g>
</svg>