<?xml version="1.0" encoding="UTF-8"?>
<svg width="44px" height="38px" viewBox="0 0 44 38" version="1.1" xmlns="http://www.w3.org/2000/svg" xmlns:xlink="http://www.w3.org/1999/xlink">
    <!-- Generator: Sketch 51.2 (57519) - http://www.bohemiancoding.com/sketch -->
    <title>Group 10</title>
    <desc>Created with Sketch.</desc>
    <defs>
        <linearGradient x1="45.1010682%" y1="14.3384797%" x2="59.4412202%" y2="93.2973786%" id="linearGradient-1">
            <stop stop-color="#84BAF5" offset="0%"></stop>
            <stop stop-color="#DBEBFA" offset="100%"></stop>
        </linearGradient>
        <linearGradient x1="45.1010682%" y1="14.3384797%" x2="59.4412202%" y2="93.2973786%" id="linearGradient-2">
            <stop stop-color="#75ACFF" offset="0%"></stop>
            <stop stop-color="#9AA2FF" offset="100%"></stop>
        </linearGradient>
    </defs>
    <g id="Page-1" stroke="none" stroke-width="1" fill="none" fill-rule="evenodd">
        <g id="产品服务导航" transform="translate(-482.000000, -384.000000)">
            <g id="ca" transform="translate(445.000000, 321.000000)">
                <g id="Group-24">
                    <g id="img_ethereum" transform="translate(12.000000, 0.000000)">
                        <g id="Group-10" transform="translate(23.912039, 53.562305)">
                            <path d="M12.0018726,18.8542549 L28.9636988,23.6524616 C29.5316424,23.813123 29.97261,24.2616273 30.1236244,24.8322118 L34.7925476,42.4730071 C35.0285462,43.3646907 34.4970084,44.2788577 33.6053248,44.5148563 C33.3196381,44.5904679 33.0190041,44.5889214 32.7341104,44.5103746 L15.8157157,39.8458756 C15.2431326,39.6880111 14.7974699,39.2379299 14.6452618,38.6638172 L9.93290711,20.8893141 C9.69653152,19.9977303 10.2276827,19.0833386 11.1192664,18.846963 C11.4087992,18.7702024 11.7136475,18.772721 12.0018726,18.8542549 Z" id="Rectangle-6-Copy" fill="url(#linearGradient-1)" opacity="0.600000024" transform="translate(22.362642, 31.680831) rotate(-45.000000) translate(-22.362642, -31.680831) "></path>
                            <path d="M14.4960128,30.0566265 L27.3685219,33.5909361 C27.7955006,33.7081684 28.1288634,34.0421136 28.2453503,34.4692963 L31.7689806,47.3912085 C31.950977,48.0586285 31.5574634,48.7472165 30.8900433,48.9292129 C30.6762378,48.9875148 30.4507919,48.9880495 30.2367122,48.9307625 L17.3971274,45.494931 C16.966782,45.379772 16.6299828,45.0447119 16.5125972,44.6149686 L12.9560426,31.5945783 C12.7737566,30.9272373 13.1669714,30.2384786 13.8343123,30.0561926 C14.0509307,29.9970227 14.2794722,29.9971726 14.4960128,30.0566265 Z" id="Rectangle-6-Copy" fill="url(#linearGradient-1)" opacity="0.400000006" transform="translate(22.362444, 39.492640) rotate(-45.000000) translate(-22.362444, -39.492640) "></path>
                            <path d="M9.49883573,6.95570912 L31.1224115,12.891643 C31.8330308,13.0867167 32.3881676,13.6419811 32.5830778,14.3526452 L38.5498848,36.10828 C38.8548455,37.2202001 38.2006756,38.3688088 37.0887556,38.6737694 C36.730381,38.772059 36.352266,38.772909 35.9934531,38.6762317 L14.3773046,32.8520523 C13.6616612,32.6592319 13.101903,32.1014339 12.9065731,31.3864714 L6.93233891,9.51908213 C6.62847696,8.40686136 7.28378127,7.2588995 8.39600204,6.95503755 C8.7570279,6.85640424 9.13793027,6.85663619 9.49883573,6.95570912 Z" id="Rectangle-6-Copy" fill="url(#linearGradient-2)" transform="translate(22.741380, 22.814684) rotate(-45.000000) translate(-22.741380, -22.814684) "></path>
                        </g>
                    </g>
                </g>
            </g>
        </g>
    </g>
</svg>