<?xml version="1.0" encoding="UTF-8"?>
<svg width="392px" height="519px" viewBox="0 0 392 519" version="1.1" xmlns="http://www.w3.org/2000/svg" xmlns:xlink="http://www.w3.org/1999/xlink">
    <!-- Generator: Sketch 49.3 (51167) - http://www.bohemiancoding.com/sketch -->
    <title>Group 26</title>
    <desc>Created with Sketch.</desc>
    <defs>
        <linearGradient x1="57.9752066%" y1="36.7219153%" x2="38.9876033%" y2="68.3241252%" id="linearGradient-1">
            <stop stop-color="#00FFFF" stop-opacity="0.1" offset="0%"></stop>
            <stop stop-color="#00FFFF" stop-opacity="0" offset="100%"></stop>
        </linearGradient>
        <linearGradient x1="50%" y1="0%" x2="50%" y2="100%" id="linearGradient-2">
            <stop stop-color="#2A39DD" offset="0%"></stop>
            <stop stop-color="#4B94EF" offset="100%"></stop>
        </linearGradient>
    </defs>
    <g id="Page-1" stroke="none" stroke-width="1" fill="none" fill-rule="evenodd">
        <g id="纸贵BaaS_登录后" transform="translate(-1528.000000, -1299.000000)">
            <g id="Group-26" transform="translate(1528.000000, 1157.000000)">
                <g id="Group-Copy" opacity="0.100000001" stroke="#3685ED">
                    <path d="M298.710722,130.710029 L325.890393,230.885854 L426.288109,258.287415 L398.969102,157.807145 L298.710722,130.710029 Z" id="Rectangle-4-Copy" transform="translate(362.500000, 194.500000) rotate(-45.000000) translate(-362.500000, -194.500000) "></path>
                    <path d="M298.710722,337.710029 L325.890393,437.885854 L426.288109,465.287415 L398.969102,364.807145 L298.710722,337.710029 Z" id="Rectangle-4-Copy-25" transform="translate(362.500000, 401.500000) rotate(-45.000000) translate(-362.500000, -401.500000) "></path>
                    <path d="M117.710722,234.710029 L144.890393,334.885854 L245.288109,362.287415 L217.969102,261.807145 L117.710722,234.710029 Z" id="Rectangle-4-Copy-9" transform="translate(181.500000, 298.500000) rotate(-45.000000) translate(-181.500000, -298.500000) "></path>
                    <path d="M117.710722,440.710029 L144.890393,540.885854 L245.288109,568.287415 L217.969102,467.807145 L117.710722,440.710029 Z" id="Rectangle-4-Copy-27" transform="translate(181.500000, 504.500000) rotate(-45.000000) translate(-181.500000, -504.500000) "></path>
                    <path d="M208.710722,183.710029 L235.890393,283.885854 L336.288109,311.287415 L308.969102,210.807145 L208.710722,183.710029 Z" id="Rectangle-4-Copy-3" transform="translate(272.500000, 247.500000) rotate(-45.000000) translate(-272.500000, -247.500000) "></path>
                    <path d="M208.710722,388.710029 L235.890393,488.885854 L336.288109,516.287415 L308.969102,415.807145 L208.710722,388.710029 Z" id="Rectangle-4-Copy-28" transform="translate(272.500000, 452.500000) rotate(-45.000000) translate(-272.500000, -452.500000) "></path>
                    <path d="M388.710722,285.710029 L415.890393,385.885854 L516.288109,413.287415 L488.969102,312.807145 L388.710722,285.710029 Z" id="Rectangle-4-Copy-6" transform="translate(452.500000, 349.500000) rotate(-45.000000) translate(-452.500000, -349.500000) "></path>
                    <path d="M388.710722,491.710029 L415.890393,591.885854 L516.288109,619.287415 L488.969102,518.807145 L388.710722,491.710029 Z" id="Rectangle-4-Copy-29" transform="translate(452.500000, 555.500000) rotate(-45.000000) translate(-452.500000, -555.500000) "></path>
                    <path d="M27.7107216,285.710029 L54.8903925,385.885854 L155.288109,413.287415 L127.969102,312.807145 L27.7107216,285.710029 Z" id="Rectangle-4-Copy-10" transform="translate(91.500000, 349.500000) rotate(-45.000000) translate(-91.500000, -349.500000) "></path>
                    <path d="M27.7107216,491.710029 L54.8903925,591.885854 L155.288109,619.287415 L127.969102,518.807145 L27.7107216,491.710029 Z" id="Rectangle-4-Copy-30" transform="translate(91.500000, 555.500000) rotate(-45.000000) translate(-91.500000, -555.500000) "></path>
                    <path d="M388.710722,183.710029 L415.890393,283.885854 L516.288109,311.287415 L488.969102,210.807145 L388.710722,183.710029 Z" id="Rectangle-4-Copy-2" transform="translate(452.500000, 247.500000) rotate(-45.000000) translate(-452.500000, -247.500000) "></path>
                    <path d="M388.710722,388.710029 L415.890393,488.885854 L516.288109,516.287415 L488.969102,415.807145 L388.710722,388.710029 Z" id="Rectangle-4-Copy-31" transform="translate(452.500000, 452.500000) rotate(-45.000000) translate(-452.500000, -452.500000) "></path>
                    <path d="M208.710722,285.710029 L235.890393,385.885854 L336.288109,413.287415 L308.969102,312.807145 L208.710722,285.710029 Z" id="Rectangle-4-Copy-11" transform="translate(272.500000, 349.500000) rotate(-45.000000) translate(-272.500000, -349.500000) "></path>
                    <path d="M208.710722,491.710029 L235.890393,591.885854 L336.288109,619.287415 L308.969102,518.807145 L208.710722,491.710029 Z" id="Rectangle-4-Copy-33" transform="translate(272.500000, 555.500000) rotate(-45.000000) translate(-272.500000, -555.500000) "></path>
                    <path d="M298.710722,234.710029 L325.890393,334.885854 L426.288109,362.287415 L398.969102,261.807145 L298.710722,234.710029 Z" id="Rectangle-4-Copy-4" transform="translate(362.500000, 298.500000) rotate(-45.000000) translate(-362.500000, -298.500000) "></path>
                    <path d="M298.710722,440.710029 L325.890393,540.885854 L426.288109,568.287415 L398.969102,467.807145 L298.710722,440.710029 Z" id="Rectangle-4-Copy-34" transform="translate(362.500000, 504.500000) rotate(-45.000000) translate(-362.500000, -504.500000) "></path>
                    <path d="M117.710722,337.710029 L144.890393,437.885854 L245.288109,465.287415 L217.969102,364.807145 L117.710722,337.710029 Z" id="Rectangle-4-Copy-12" transform="translate(181.500000, 401.500000) rotate(-45.000000) translate(-181.500000, -401.500000) "></path>
                    <path d="M117.710722,544.710029 L144.890393,644.885854 L245.288109,672.287415 L217.969102,571.807145 L117.710722,544.710029 Z" id="Rectangle-4-Copy-36" transform="translate(181.500000, 608.500000) rotate(-45.000000) translate(-181.500000, -608.500000) "></path>
                </g>
                <g id="Group-12" opacity="0.540000021" transform="translate(233.000000, 285.000000)">
                    <polygon id="Shape" fill="url(#linearGradient-1)" fill-rule="nonzero" points="35.2211253 87.6678718 35.2211253 108.589137 2.28932041 89.366632 2.28932041 68.453304"></polygon>
                    <polygon id="Shape" fill="url(#linearGradient-1)" fill-rule="nonzero" transform="translate(51.850421, 89.653104) scale(-1, 1) translate(-51.850421, -89.653104) " points="68.5273795 88.7888174 68.5273795 109.978245 35.1734632 90.5093519 35.1734632 69.3279623"></polygon>
                    <g id="Group-10">
                        <g id="package-copy-2" transform="translate(2.090631, 15.049594)" fill="url(#linearGradient-2)" fill-rule="nonzero">
                            <path d="M66.2139764,19.867628 C66.2092463,19.6097186 66.1777121,19.3549352 66.1114902,19.1126566 C66.0831094,19.0079297 66.0263478,18.9157076 65.98693,18.8156699 C65.927015,18.6624873 65.878137,18.5061785 65.796148,18.3639375 C65.7393864,18.265463 65.6573974,18.1857455 65.5895989,18.0950864 C65.4949962,17.9684763 65.4114305,17.8340508 65.2979073,17.7215084 C65.2174951,17.641791 65.1150089,17.5839567 65.0267131,17.5120547 C64.9053063,17.4151432 64.7933598,17.3072902 64.656186,17.2275727 C64.6498791,17.2244465 64.6419956,17.2228834 64.6356887,17.2197572 C64.6293819,17.2166311 64.6262285,17.2119418 64.6199216,17.2088156 L34.6624136,0.405621296 C33.6990432,-0.135207099 32.5196634,-0.135207099 31.556293,0.405621296 L17.0568591,8.54618279 C17.0552824,8.54618279 17.0537057,8.54774588 17.0521289,8.54774588 L1.60036162,17.2072525 C1.59405477,17.2103787 1.58932464,17.2166311 1.58459451,17.2197572 C1.57828766,17.2228834 1.57040411,17.2244465 1.56567397,17.2275727 C1.43165354,17.304164 1.3244372,17.410454 1.20618388,17.5042392 C1.11315793,17.5777044 1.0075183,17.6371017 0.925529329,17.7199454 C0.808852718,17.8356139 0.722133616,17.9716025 0.625954248,18.1029019 C0.561309099,18.1904348 0.48089684,18.2685892 0.427288668,18.3623745 C0.337416144,18.5155571 0.28223126,18.6859336 0.220739533,18.851621 C0.187628603,18.9391539 0.137173853,19.0204344 0.111946478,19.1110935 C0.0473013285,19.3455567 0.0204972424,19.5893984 0.0141903986,19.8379294 C0.0110369767,19.867628 0,19.8957636 0,19.9270254 L0,55.0965019 C0,56.2234882 0.611763849,57.2629416 1.60036162,57.8178378 L31.5578697,74.6210322 C31.7186942,74.7101282 31.8905557,74.7632732 32.0608405,74.8226705 C32.1428295,74.8523692 32.2200883,74.8992618 32.3052307,74.921145 C32.5685414,74.991484 32.8397357,75.027435 33.11093,75.027435 C33.3821243,75.027435 33.6533185,74.991484 33.9166293,74.9227081 C34.000195,74.9008249 34.0774538,74.8539322 34.1610195,74.8242336 C34.3313043,74.7648362 34.5031658,74.7116913 34.6639903,74.6225952 L64.6214983,57.8194009 C65.6100961,57.2645047 66.22186,56.2250513 66.22186,55.098065 L66.22186,19.9285885 C66.22186,19.9067052 66.2139764,19.8879482 66.2139764,19.867628 Z" id="Shape"></path>
                        </g>
                        <path d="M14.1651945,10.7617378 L47.6037657,19.7984078 C48.4141836,20.0174208 48.6916545,20.1414859 48.9788282,20.3269257 C49.2660019,20.5123655 49.4967217,20.7413014 49.684385,21.0270271 C49.8720483,21.3127527 49.9982634,21.5892523 50.2235602,22.3979458 L59.4242283,55.4233615 C59.8185653,56.838818 58.9907844,58.3059456 57.5753279,58.7002827 C57.1190234,58.8274062 56.6370532,58.8304004 56.1792045,58.708956 L22.7545456,49.8430611 C21.9397198,49.6269284 21.6604633,49.5032155 21.3714212,49.3177011 C21.0823791,49.1321866 20.8500678,48.9025141 20.6612638,48.61561 C20.4724597,48.3287059 20.3455649,48.0508808 20.1201386,47.238577 L10.9074744,14.0415573 C10.5145549,12.6257066 11.3438045,11.1594086 12.7596552,10.7664891 C13.2192715,10.6389388 13.7047263,10.6372977 14.1651945,10.7617378 Z" id="Rectangle-6-Copy" fill="#75ACFF" transform="translate(35.166240, 34.733856) rotate(-45.000000) translate(-35.166240, -34.733856) "></path>
                    </g>
                </g>
                <g id="Group-12-Copy-2" opacity="0.300000012" transform="translate(288.000000, 200.000000)">
                    <polygon id="Shape" fill="url(#linearGradient-1)" fill-rule="nonzero" points="23.7801634 57.4189004 23.7801634 70.8158506 2.74039915 58.5067029 2.74039915 45.114835"></polygon>
                    <polygon id="Shape" fill="url(#linearGradient-1)" fill-rule="nonzero" transform="translate(34.404436, 58.690145) scale(-1, 1) translate(-34.404436, -58.690145) " points="45.0591591 58.1366989 45.0591591 71.7053677 23.7497126 59.2384446 23.7497126 45.6749232"></polygon>
                    <g id="Group-10">
                        <g id="package-copy-2" transform="translate(2.613459, 10.917722)" fill="url(#linearGradient-2)" fill-rule="nonzero">
                            <path d="M42.3033738,12.722253 C42.3003518,12.5571005 42.2802049,12.3939498 42.2378965,12.2388064 C42.2197643,12.1717445 42.1835,12.1126899 42.1583164,12.0486307 C42.1200374,11.9505401 42.0888097,11.8504477 42.0364279,11.7593635 C42.0001635,11.6963053 41.9477817,11.6452581 41.9044659,11.5872045 C41.8440254,11.5061296 41.7906362,11.4200501 41.7181075,11.3479835 C41.666733,11.2969363 41.6012557,11.2599021 41.5448445,11.2138596 C41.467279,11.1518022 41.3957577,11.0827384 41.3081188,11.0316913 C41.3040895,11.0296894 41.2990527,11.0286885 41.2950234,11.0266867 C41.290994,11.0246848 41.2889793,11.021682 41.2849499,11.0196802 L22.1454309,0.259739953 C21.5299442,-0.0865799842 20.7764516,-0.0865799842 20.160965,0.259739953 L10.8974377,5.47255565 C10.8964304,5.47255565 10.8954231,5.47355657 10.8944157,5.47355657 L1.02245325,11.0186793 C1.01842388,11.0206811 1.01540185,11.0246848 1.01237982,11.0266867 C1.00835045,11.0286885 1.00331374,11.0296894 1.00029171,11.0316913 C0.914667542,11.0807366 0.846168211,11.1487995 0.770617478,11.2088549 C0.711184234,11.2558984 0.643692246,11.2939335 0.591310404,11.3469825 C0.516767014,11.421051 0.461363143,11.5081314 0.399915214,11.5922091 C0.358614146,11.6482609 0.307239648,11.6983071 0.272989982,11.7583626 C0.215571425,11.8564532 0.180314416,11.965554 0.141028035,12.071652 C0.11987383,12.1277038 0.0876388504,12.1797519 0.0715213607,12.2378055 C0.0302202932,12.3879442 0.0130954604,12.5440885 0.00906608797,12.7032355 C0.00705140176,12.722253 0,12.7402697 0,12.7602882 L0,35.2810933 C0,36.00276 0.390849126,36.6683749 1.02245325,37.0237032 L20.1619723,47.7836434 C20.2647213,47.8406961 20.3745217,47.8747275 20.4833148,47.9127627 C20.5356966,47.9317803 20.5850564,47.961808 20.6394529,47.9758209 C20.8076792,48.0208625 20.9809423,48.0438838 21.1542053,48.0438838 C21.3274683,48.0438838 21.5007313,48.0208625 21.6689576,47.9768219 C21.7223468,47.9628089 21.7717066,47.9327812 21.8250958,47.9137636 C21.9338888,47.8757285 22.0436892,47.841697 22.1464382,47.7846443 L41.2859573,37.0247041 C41.9175614,36.6693758 42.3084105,36.0037609 42.3084105,35.2820942 L42.3084105,12.7612891 C42.3084105,12.7472762 42.3033738,12.7352651 42.3033738,12.722253 Z" id="Shape"></path>
                        </g>
                        <path d="M10.3322794,8.17321331 L31.689204,13.9580633 C32.207796,14.0985319 32.3853336,14.1780374 32.5690579,14.296827 C32.7527822,14.4156166 32.9003593,14.5622236 33.0203581,14.7451604 C33.1403569,14.9280973 33.2210316,15.1051066 33.3649175,15.6227609 L39.2435843,36.7722777 C39.4954252,37.6783187 38.9650912,38.6169674 38.0590502,38.8688083 C37.7669803,38.9499913 37.4585325,38.951729 37.1655665,38.873842 L15.8175248,33.1983134 C15.2961066,33.0596907 15.1174244,32.9804108 14.9325024,32.8615733 C14.7475804,32.7427358 14.5989833,32.5956567 14.4782533,32.4119646 C14.3575233,32.2282725 14.276413,32.0504138 14.1324438,31.5304464 L8.2461238,10.2710761 C7.99518851,9.36478382 8.5264603,8.42666554 9.43275256,8.17573025 C9.72694824,8.094273 10.0376325,8.09340368 10.3322794,8.17321331 Z" id="Rectangle-6-Copy" fill="#75ACFF" transform="translate(23.745098, 23.522557) rotate(-45.000000) translate(-23.745098, -23.522557) "></path>
                    </g>
                </g>
            </g>
        </g>
    </g>
</svg>