<?xml version="1.0" encoding="UTF-8"?>
<svg width="206px" height="48px" viewBox="0 0 206 48" version="1.1" xmlns="http://www.w3.org/2000/svg" xmlns:xlink="http://www.w3.org/1999/xlink">
    <!-- Generator: Sketch 49.3 (51167) - http://www.bohemiancoding.com/sketch -->
    <title>Page 1</title>
    <desc>Created with Sketch.</desc>
    <defs>
        <polygon id="path-1" points="0 0.0697836364 33.1328712 0.0697836364 33.1328712 48 0 48"></polygon>
        <polygon id="path-3" points="0.396324464 0.0697836364 33.5291956 0.0697836364 33.5291956 48 0.396324464 48"></polygon>
        <polygon id="path-5" points="0 48 205.090909 48 205.090909 0 0 0"></polygon>
    </defs>
    <g id="Page-1" stroke="none" stroke-width="1" fill="none" fill-rule="evenodd">
        <g id="纸贵BaaS_版权存证" transform="translate(-438.000000, -4210.000000)">
            <g id="合作伙伴" transform="translate(0.000000, 4024.000000)">
                <g id="Page-1" transform="translate(438.000000, 186.000000)">
                    <path d="M104.565152,8.27782544 L118.235798,8.27782544 L118.235798,33.1946517 C118.235798,36.776943 115.603456,39.084306 111.731648,39.2178 L112.582715,42.9090909 L112.753172,42.9090909 C119.665201,42.6874175 122.124651,37.8412203 122.124651,33.7567959 L122.124651,8.27782544 L123.018332,8.27782544 L123.924189,4.36363636 L103.632509,4.36363636 L104.565152,8.27782544 Z" id="Fill-1" fill="#BABABA"></path>
                    <path d="M110.723864,29.5298037 C110.723864,31.091861 110.193492,31.7028866 108.826127,31.7028866 L107.413776,31.7028866 L107.413776,15.5624493 L110.723864,15.5624493 L110.723864,29.5298037 Z M114.498028,29.8833609 L114.498028,11.6363636 L103.632509,11.6363636 L103.632509,35.6363636 L109.513953,35.6363636 C111.190307,35.6363636 112.421527,35.2002688 113.256153,34.3034409 C114.147604,33.3437859 114.553669,31.895064 114.498028,29.8833609 Z" id="Fill-3" fill="#BABABA"></path>
                    <path d="M88.4137488,4.36363636 L88.4137488,42.9090909 L92.2252031,42.9090909 L92.2252031,41.2608864 L92.2252031,20.3815883 L92.2252031,8.2772037 L96.6466332,8.2772037 L93.8832394,20.3815883 L93.8951763,20.3815883 L93.9560545,20.4317936 C95.1413893,21.470187 97.1348527,23.8567773 97.1348527,28.1940287 C97.1348527,32.4614825 94.6806247,33.9321315 93.8880141,34.2970386 L93.8880141,38.274281 C95.9853286,38.1738704 100.921239,35.159101 100.921239,28.1940287 C100.921239,23.9975972 99.4923918,21.1089534 98.059963,19.2525804 L101.4584,4.36363636 L88.4137488,4.36363636 Z" id="Fill-5" fill="#BABABA"></path>
                    <path d="M134.437413,21.7750926 L134.437413,8.27842822 L145.530966,8.27842822 L145.530966,13.056507 L137.406505,13.056507 L136.507852,16.9627272 L145.530966,16.9627272 L145.530966,21.7750926 L134.437413,21.7750926 Z M160.514212,19.0738005 C160.514212,20.9142547 159.767976,21.7750926 158.175518,21.7750926 L149.41944,21.7750926 L149.41944,16.9627272 L158.44865,16.9627272 L157.537803,13.056507 L149.41944,13.056507 L149.41944,8.27842822 L160.514212,8.27842822 L160.514212,19.0738005 Z M149.41944,39.0040952 L149.41944,34.2798953 L162.498077,34.2798953 L161.578695,30.3700016 L149.41944,30.3700016 L149.41944,25.6837618 L158.180395,25.6837618 C162.315176,25.6837618 164.406344,23.5163606 164.406344,19.2501314 L164.406344,4.36363636 L130.553817,4.36363636 L130.553817,25.6837618 L145.530966,25.6837618 L145.530966,30.3700016 L133.37293,30.3700016 L132.455986,34.2798953 L145.530966,34.2798953 L145.530966,39.0040952 L131.350045,38.9955236 L130.446515,42.9090909 L164.507549,42.9090909 L163.595483,39.0053197 L149.41944,39.0040952 Z" id="Fill-7" fill="#BABABA"></path>
                    <polygon id="Fill-9" fill="#BABABA" points="201.294521 4.36363636 174.827467 4.36363636 173.928686 8 202.192098 8"></polygon>
                    <path d="M202.868423,38.3753644 C202.418067,36.40874 200.931528,29.8878909 200.619086,28.8750371 L200.543417,28.636293 L196.571989,28.636293 L196.692816,29.071579 C196.964982,29.9976167 198.558923,36.8295566 199.077626,39.0638639 L177.943869,39.0638639 C178.9471,34.6675961 180.69238,27.1206296 181.550375,23.4803849 L205.090909,23.4803849 L204.180434,19.6363636 L171.946452,19.6363636 L171.029875,23.4803849 L177.524026,23.4803849 C176.694102,27.080839 174.467955,36.4702347 173.039998,42.4943032 L172.939919,42.9090909 L199.253374,42.9090909 C200.855859,42.9042678 201.98724,42.456924 202.607241,41.5670596 C203.359054,40.4939169 203.125943,39.0759216 202.883069,38.432036 L202.868423,38.3753644 Z" id="Fill-11" fill="#BABABA"></path>
                    <path d="M104.565152,8.27782544 L118.235798,8.27782544 L118.235798,33.1946517 C118.235798,36.776943 115.603456,39.084306 111.731648,39.2178 L112.582715,42.9090909 L112.753172,42.9090909 C119.665201,42.6874175 122.124651,37.8412203 122.124651,33.7567959 L122.124651,8.27782544 L123.018332,8.27782544 L123.924189,4.36363636 L103.632509,4.36363636 L104.565152,8.27782544 Z" id="Fill-1" fill="#BABABA"></path>
                    <path d="M110.723864,29.5298037 C110.723864,31.091861 110.193492,31.7028866 108.826127,31.7028866 L107.413776,31.7028866 L107.413776,15.5624493 L110.723864,15.5624493 L110.723864,29.5298037 Z M114.498028,29.8833609 L114.498028,11.6363636 L103.632509,11.6363636 L103.632509,35.6363636 L109.513953,35.6363636 C111.190307,35.6363636 112.421527,35.2002688 113.256153,34.3034409 C114.147604,33.3437859 114.553669,31.895064 114.498028,29.8833609 Z" id="Fill-3" fill="#BABABA"></path>
                    <path d="M88.4137488,4.36363636 L88.4137488,42.9090909 L92.2252031,42.9090909 L92.2252031,41.2608864 L92.2252031,20.3815883 L92.2252031,8.2772037 L96.6466332,8.2772037 L93.8832394,20.3815883 L93.8951763,20.3815883 L93.9560545,20.4317936 C95.1413893,21.470187 97.1348527,23.8567773 97.1348527,28.1940287 C97.1348527,32.4614825 94.6806247,33.9321315 93.8880141,34.2970386 L93.8880141,38.274281 C95.9853286,38.1738704 100.921239,35.159101 100.921239,28.1940287 C100.921239,23.9975972 99.4923918,21.1089534 98.059963,19.2525804 L101.4584,4.36363636 L88.4137488,4.36363636 Z" id="Fill-5" fill="#BABABA"></path>
                    <path d="M134.437413,21.7750926 L134.437413,8.27842822 L145.530966,8.27842822 L145.530966,13.056507 L137.406505,13.056507 L136.507852,16.9627272 L145.530966,16.9627272 L145.530966,21.7750926 L134.437413,21.7750926 Z M160.514212,19.0738005 C160.514212,20.9142547 159.767976,21.7750926 158.175518,21.7750926 L149.41944,21.7750926 L149.41944,16.9627272 L158.44865,16.9627272 L157.537803,13.056507 L149.41944,13.056507 L149.41944,8.27842822 L160.514212,8.27842822 L160.514212,19.0738005 Z M149.41944,39.0040952 L149.41944,34.2798953 L162.498077,34.2798953 L161.578695,30.3700016 L149.41944,30.3700016 L149.41944,25.6837618 L158.180395,25.6837618 C162.315176,25.6837618 164.406344,23.5163606 164.406344,19.2501314 L164.406344,4.36363636 L130.553817,4.36363636 L130.553817,25.6837618 L145.530966,25.6837618 L145.530966,30.3700016 L133.37293,30.3700016 L132.455986,34.2798953 L145.530966,34.2798953 L145.530966,39.0040952 L131.350045,38.9955236 L130.446515,42.9090909 L164.507549,42.9090909 L163.595483,39.0053197 L149.41944,39.0040952 Z" id="Fill-7" fill="#BABABA"></path>
                    <polygon id="Fill-9" fill="#BABABA" points="201.294521 4.36363636 174.827467 4.36363636 173.928686 8 202.192098 8"></polygon>
                    <path d="M202.868423,38.3753644 C202.418067,36.40874 200.931528,29.8878909 200.619086,28.8750371 L200.543417,28.636293 L196.571989,28.636293 L196.692816,29.071579 C196.964982,29.9976167 198.558923,36.8295566 199.077626,39.0638639 L177.943869,39.0638639 C178.9471,34.6675961 180.69238,27.1206296 181.550375,23.4803849 L205.090909,23.4803849 L204.180434,19.6363636 L171.946452,19.6363636 L171.029875,23.4803849 L177.524026,23.4803849 C176.694102,27.080839 174.467955,36.4702347 173.039998,42.4943032 L172.939919,42.9090909 L199.253374,42.9090909 C200.855859,42.9042678 201.98724,42.456924 202.607241,41.5670596 C203.359054,40.4939169 203.125943,39.0759216 202.883069,38.432036 L202.868423,38.3753644 Z" id="Fill-11" fill="#BABABA"></path>
                    <g id="Group-15">
                        <mask id="mask-2" fill="white">
                            <use xlink:href="#path-1"></use>
                        </mask>
                        <g id="Clip-14"></g>
                        <path d="M31.269246,40.6230564 L13.896902,36.8393836 C12.3130639,36.4739291 11.1221442,35.0839836 11.0515892,33.4053291 C11.0455069,33.3566018 11.0455069,14.7111109 11.0515892,14.6623836 C11.1221442,12.9837291 12.3130639,11.5937836 13.896902,11.2283291 L31.269246,7.44465636 L33.1328712,0.0697836364 L12.8884521,0.0697836364 C5.78794291,0.0697836364 0.0279787068,5.81716545 0,12.9216018 L0,35.1448927 C0.0279787068,42.2493291 5.78794291,48.0003655 12.8884521,48.0003655 L33.1328712,48.0003655 L31.269246,40.6230564 Z" id="Fill-13" fill="#BABABA" mask="url(#mask-2)"></path>
                    </g>
                    <g id="Group-18" transform="translate(43.482172, 0.000000)">
                        <mask id="mask-4" fill="white">
                            <use xlink:href="#path-3"></use>
                        </mask>
                        <g id="Clip-17"></g>
                        <path d="M2.2611661,40.6230564 L19.6322936,36.8393836 C21.2173482,36.4739291 22.4070515,35.0839836 22.4776065,33.4053291 C22.4849053,33.3566018 22.4849053,14.7111109 22.4776065,14.6623836 C22.4070515,12.9837291 21.2173482,11.5937836 19.6322936,11.2283291 L2.2611661,7.44465636 L0.396324464,0.0697836364 L20.64196,0.0697836364 C27.7424692,0.0697836364 33.5024334,5.81716545 33.5291956,12.9216018 L33.5291956,35.1448927 C33.5024334,42.2493291 27.7424692,48.0003655 20.64196,48.0003655 L0.396324464,48.0003655 L2.2611661,40.6230564 Z" id="Fill-16" fill="#BABABA" mask="url(#mask-4)"></path>
                    </g>
                    <mask id="mask-6" fill="white">
                        <use xlink:href="#path-5"></use>
                    </mask>
                    <g id="Clip-20"></g>
                    <polygon id="Fill-19" fill="#BABABA" mask="url(#mask-6)" points="31.1622229 25.4545455 45.6562801 25.4545455 45.6562801 23.2727273 31.1622229 23.2727273"></polygon>
                </g>
            </g>
        </g>
    </g>
</svg>