<?xml version="1.0" encoding="UTF-8"?>
<svg width="88px" height="22px" viewBox="0 0 88 22" version="1.1" xmlns="http://www.w3.org/2000/svg" xmlns:xlink="http://www.w3.org/1999/xlink">
    <!-- Generator: Sketch 51.2 (57519) - http://www.bohemiancoding.com/sketch -->
    <title>Group 30</title>
    <desc>Created with Sketch.</desc>
    <defs>
        <linearGradient x1="57.9752066%" y1="36.7219153%" x2="38.9876033%" y2="68.3241252%" id="linearGradient-1">
            <stop stop-color="#00FFFF" stop-opacity="0.1" offset="0%"></stop>
            <stop stop-color="#00FFFF" stop-opacity="0" offset="100%"></stop>
        </linearGradient>
        <linearGradient x1="50%" y1="0%" x2="50%" y2="100%" id="linearGradient-2">
            <stop stop-color="#2A39DD" offset="0%"></stop>
            <stop stop-color="#4B94EF" offset="100%"></stop>
        </linearGradient>
        <linearGradient x1="50%" y1="0%" x2="50%" y2="100%" id="linearGradient-3">
            <stop stop-color="#8271FF" offset="0%"></stop>
            <stop stop-color="#C0A0FF" offset="100%"></stop>
        </linearGradient>
    </defs>
    <g id="Page-1" stroke="none" stroke-width="1" fill="none" fill-rule="evenodd">
        <g id="产品服务导航" transform="translate(-763.000000, -154.000000)">
            <g id="eth" transform="translate(737.000000, 109.000000)">
                <g id="img_zigledger" transform="translate(26.000000, 0.000000)">
                    <g id="Group-13" transform="translate(0.000000, 42.000000)">
                        <g id="Group-30">
                            <g id="Group-12" transform="translate(72.185566, 0.554861)">
                                <polygon id="Shape" fill="url(#linearGradient-1)" fill-rule="nonzero" points="7.55998583 19.3583604 7.55998583 24.0233145 0.31025315 19.7371443 0.31025315 15.07396"></polygon>
                                <polygon id="Shape" fill="url(#linearGradient-1)" fill-rule="nonzero" transform="translate(11.220822, 19.801021) scale(-1, 1) translate(-11.220822, -19.801021) " points="14.8921512 19.6083052 14.8921512 24.3330534 7.54949331 19.9919442 7.54949331 15.2689884"></polygon>
                                <g id="Group-10">
                                    <g id="package-copy-2" transform="translate(0.266513, 3.166178)" fill="url(#linearGradient-2)" fill-rule="nonzero">
                                        <path d="M14.5765964,4.43001766 C14.5755551,4.37250986 14.568613,4.31569912 14.5540347,4.26167664 C14.5477868,4.23832499 14.5352911,4.21776159 14.5266136,4.19545553 C14.5134236,4.16129938 14.5026634,4.12644617 14.4846141,4.09472975 C14.4721184,4.07277222 14.454069,4.05499708 14.4391436,4.03478222 C14.4183174,4.00655112 14.3999209,3.97657735 14.3749295,3.95148304 C14.3572272,3.9337079 14.3346655,3.92081221 14.3152277,3.90477974 C14.2885008,3.88317074 14.2638565,3.85912203 14.2336585,3.84134689 C14.2322701,3.84064982 14.2305346,3.84030129 14.2291462,3.83960423 C14.2277577,3.83890716 14.2270635,3.83786157 14.2256751,3.8371645 L7.63071545,0.0904440881 C7.41863543,-0.0301480294 7.15900228,-0.0301480294 6.94692226,0.0904440881 L3.75496178,1.90559943 C3.75461468,1.90559943 3.75426757,1.90594796 3.75392047,1.90594796 L0.352309688,3.83681597 C0.350921275,3.83751303 0.349879966,3.83890716 0.348838657,3.83960423 C0.347450244,3.84030129 0.345714728,3.84064982 0.344673419,3.84134689 C0.315169652,3.85842496 0.291566638,3.88212515 0.265533903,3.90303707 C0.245054817,3.91941808 0.221798907,3.93266231 0.203749544,3.95113451 C0.178063911,3.97692589 0.158973239,4.00724818 0.137799947,4.03652488 C0.123568718,4.05604268 0.105866458,4.07346929 0.0940649512,4.09438121 C0.0742800722,4.12853736 0.0621314622,4.16652737 0.0485944397,4.20347177 C0.0413052738,4.22298957 0.0301979733,4.24111324 0.024644323,4.26132811 C0.0104130942,4.31360793 0.00451234083,4.36797894 0.00312392827,4.42339555 C0.00242972199,4.43001766 0,4.43629124 0,4.44326188 L0,12.2852348 C0,12.5365265 0.134676019,12.7683004 0.352309688,12.8920293 L6.94726937,16.6387497 C6.98267389,16.658616 7.02050813,16.6704661 7.05799527,16.6837103 C7.07604463,16.6903324 7.09305268,16.7007884 7.11179625,16.7056679 C7.16976248,16.7213518 7.22946422,16.729368 7.28916596,16.729368 C7.3488677,16.729368 7.40856944,16.7213518 7.46653566,16.7060164 C7.48493213,16.7011369 7.50194018,16.690681 7.52033665,16.6840589 C7.55782379,16.6708146 7.59565803,16.6589646 7.63106255,16.6390982 L14.2260222,12.8923778 C14.4436559,12.7686489 14.5783319,12.536875 14.5783319,12.2855834 L14.5783319,4.44361041 C14.5783319,4.43873096 14.5765964,4.43454858 14.5765964,4.43001766 Z" id="Shape"></path>
                                    </g>
                                    <path d="M3.0630855,2.2478037 L10.2232511,4.20771654 C10.4265337,4.26335995 10.4960937,4.29473379 10.5680393,4.3415245 C10.6399849,4.38831521 10.6977215,4.44598046 10.7446011,4.51786814 C10.7914808,4.58975581 10.8229406,4.65927704 10.8788353,4.86249061 L12.8535611,12.0418998 C12.9513901,12.3975716 12.7423672,12.7652066 12.3866954,12.8630356 C12.2720587,12.8945669 12.1510831,12.8949268 12.0362608,12.8640783 L4.87914886,10.9412239 C4.6747484,10.886309 4.60473595,10.8550241 4.53231712,10.8082143 C4.4598983,10.7614045 4.40175885,10.7035527 4.35459041,10.631367 C4.30742198,10.5591812 4.27579012,10.4893248 4.21986196,10.2851993 L2.24257106,3.06852007 C2.14509439,2.71275158 2.3544813,2.34532378 2.71024979,2.24784711 C2.82573166,2.21620635 2.94759585,2.21619136 3.0630855,2.2478037 Z" id="Rectangle-6-Copy" fill="#75ACFF" transform="translate(7.548152, 7.555528) rotate(-45.000000) translate(-7.548152, -7.555528) "></path>
                                </g>
                            </g>
                            <g id="Group-11" transform="translate(0.000000, 8.407199)">
                                <polygon id="Shape" fill="url(#linearGradient-1)" fill-rule="nonzero" points="4.91916886 13.2672288 4.91916886 16.2915422 0.20187705 13.5127963 0.20187705 10.4896302"></polygon>
                                <polygon id="Shape" fill="url(#linearGradient-1)" fill-rule="nonzero" transform="translate(7.301220, 13.561640) scale(-1, 1) translate(-7.301220, -13.561640) " points="9.69009838 13.4367015 9.69009838 16.4997798 4.91234154 13.6854167 4.91234154 10.6235004"></polygon>
                                <g id="Group-10" transform="translate(0.000000, -0.000000)">
                                    <g id="package-copy-2" transform="translate(0.173416, 2.769755)" fill="url(#linearGradient-3)" fill-rule="nonzero">
                                        <path d="M9.48477163,2.87200297 C9.48409407,2.83472037 9.47957697,2.79788968 9.47009107,2.76286663 C9.46602568,2.74772764 9.45789491,2.73439628 9.45224854,2.71993515 C9.44366606,2.69779155 9.43666456,2.67519603 9.42492011,2.65463412 C9.41678934,2.64039894 9.40504489,2.62887523 9.39533314,2.61576983 C9.38178185,2.59746746 9.36981155,2.57803532 9.35355,2.56176655 C9.34203141,2.55024283 9.32735085,2.54188249 9.31470298,2.53148856 C9.29731216,2.51747934 9.28127647,2.50188843 9.26162711,2.49036472 C9.26072369,2.48991281 9.25959441,2.48968685 9.25869099,2.48923494 C9.25778757,2.48878303 9.25733586,2.48810517 9.25643245,2.48765326 L4.96519156,0.0586353622 C4.82719429,-0.0195451207 4.65825491,-0.0195451207 4.52025764,0.0586353622 L2.44329705,1.2354098 C2.44307119,1.2354098 2.44284534,1.23563575 2.44261948,1.23563575 L0.229242605,2.4874273 C0.228339186,2.48787921 0.227661622,2.48878303 0.226984057,2.48923494 C0.226080638,2.48968685 0.224951364,2.48991281 0.2242738,2.49036472 C0.205076143,2.50143652 0.189718018,2.51680147 0.172778909,2.53035878 C0.159453477,2.54097867 0.144321207,2.54956497 0.132576758,2.56154059 C0.115863504,2.57826127 0.103441491,2.59791937 0.089664349,2.61689961 C0.0804043029,2.62955309 0.068885709,2.64085085 0.0612066463,2.65440816 C0.0483329237,2.67655177 0.0404280062,2.70118088 0.0316196697,2.72513212 C0.0268767192,2.73778561 0.0196493662,2.74953528 0.0160356896,2.76264068 C0.0067756435,2.79653395 0.00293611219,2.83178296 0.00203269305,2.86770982 C0.00158098348,2.87200297 0,2.87607017 0,2.88058927 L0,7.96458021 C0,8.12749388 0.087631656,8.27775405 0.229242605,8.35796813 L4.52048349,10.786986 C4.54352068,10.7998655 4.56813885,10.8075479 4.59253117,10.8161342 C4.60427562,10.8204274 4.6153425,10.827206 4.62753866,10.8303694 C4.66525641,10.8405374 4.70410343,10.8457344 4.74295045,10.8457344 C4.78179748,10.8457344 4.8206445,10.8405374 4.85836225,10.8305954 C4.87033255,10.827432 4.88139944,10.8206533 4.89336974,10.8163602 C4.91776206,10.8077739 4.94238023,10.8000914 4.96541741,10.787212 L9.2566583,8.35819409 C9.39826925,8.27798001 9.48590091,8.12771983 9.48590091,7.96480617 L9.48590091,2.88081522 C9.48590091,2.87765185 9.48477163,2.87494039 9.48477163,2.87200297 Z" id="Shape"></path>
                                    </g>
                                    <path d="M1.99025399,2.17359554 L6.65340857,3.4453468 C6.78516851,3.48128082 6.83026212,3.50156888 6.87691089,3.53184554 C6.92355966,3.5621222 6.96100767,3.59945405 6.99142909,3.64600854 C7.02185052,3.69256303 7.04227857,3.7375934 7.07862172,3.86924108 L8.36375541,8.52444698 C8.42736484,8.7548627 8.29214162,8.99321718 8.0617259,9.05682661 C7.98745744,9.07732944 7.90906217,9.07763542 7.83463592,9.05771294 L3.17347052,7.81000838 C3.04098827,7.77454542 2.99560228,7.75431487 2.94864763,7.72402592 C2.90169298,7.69373697 2.86398455,7.65628455 2.83337643,7.60953733 C2.80276831,7.56279011 2.78222905,7.51754299 2.7458644,7.3853054 L1.45905673,2.70591639 C1.39567625,2.47543758 1.53113622,2.23721756 1.76161502,2.17383709 C1.83642859,2.15326375 1.91539712,2.15318032 1.99025399,2.17359554 Z" id="Rectangle-6-Copy" fill="#8271FF" transform="translate(4.911462, 5.615388) rotate(-45.000000) translate(-4.911462, -5.615388) "></path>
                                </g>
                            </g>
                        </g>
                    </g>
                </g>
            </g>
        </g>
    </g>
</svg>