<?xml version="1.0" encoding="UTF-8"?>
<svg width="63px" height="74px" viewBox="0 0 63 74" version="1.1" xmlns="http://www.w3.org/2000/svg" xmlns:xlink="http://www.w3.org/1999/xlink">
    <!-- Generator: Sketch 51.2 (57519) - http://www.bohemiancoding.com/sketch -->
    <title>Group 4</title>
    <desc>Created with Sketch.</desc>
    <defs>
        <linearGradient x1="73.2718264%" y1="89.8141112%" x2="31.028904%" y2="5.22952992%" id="linearGradient-1">
            <stop stop-color="#0092FF" offset="0%"></stop>
            <stop stop-color="#00E7FF" offset="100%"></stop>
        </linearGradient>
        <linearGradient x1="50%" y1="88.019422%" x2="73.2789967%" y2="0%" id="linearGradient-2">
            <stop stop-color="#003CA2" offset="0%"></stop>
            <stop stop-color="#0178FF" offset="100%"></stop>
        </linearGradient>
        <linearGradient x1="5.51869288%" y1="96.0056477%" x2="50%" y2="56.424488%" id="linearGradient-3">
            <stop stop-color="#0178FF" offset="0%"></stop>
            <stop stop-color="#0092FF" offset="100%"></stop>
        </linearGradient>
        <linearGradient x1="38.0899866%" y1="59.5775612%" x2="93.5472192%" y2="9.50565115%" id="linearGradient-4">
            <stop stop-color="#0178FF" offset="0%"></stop>
            <stop stop-color="#0092FF" offset="100%"></stop>
        </linearGradient>
    </defs>
    <g id="Page-1" stroke="none" stroke-width="1" fill="none" fill-rule="evenodd">
        <g id="产品服务导航" transform="translate(-773.000000, -109.000000)">
            <g id="eth" transform="translate(737.000000, 109.000000)">
                <g id="img_zigledger" transform="translate(26.000000, 0.000000)">
                    <g id="Group-4" transform="translate(11.000000, 0.000000)">
                        <polygon id="Triangle" fill="url(#linearGradient-1)" points="30.085816 55.6796963 30.085816 73.6986506 7.55240649 42.1665098"></polygon>
                        <polygon id="Triangle" fill="url(#linearGradient-2)" transform="translate(41.352521, 57.932580) scale(-1, 1) translate(-41.352521, -57.932580) " points="52.6192255 55.6630463 52.6192255 73.6986506 30.085816 42.1665098"></polygon>
                        <polygon id="Rectangle-10" fill="url(#linearGradient-1)" transform="translate(30.085816, 30.110103) rotate(45.000000) translate(-30.085816, -30.110103) " points="8.79050591 8.90319268 51.3811261 19.5053654 44.9843466 44.9501166 19.4398231 51.3170134"></polygon>
                        <polygon id="Rectangle-10" fill="url(#linearGradient-2)" transform="translate(32.314395, 27.946133) rotate(45.000000) translate(-32.314395, -27.946133) " points="11.0190849 9.89243632 53.6097051 20.5050827 47.2112475 45.9998289"></polygon>
                        <polygon id="Rectangle-10" fill="url(#linearGradient-3)" transform="translate(30.085816, 37.714913) rotate(45.000000) translate(-30.085816, -37.714913) " points="22.6356146 30.2740083 46.0572986 21.7633599 39.6661039 47.2832472 14.1143334 53.666467"></polygon>
                        <polygon id="Rectangle-10" fill="url(#linearGradient-4)" transform="translate(35.347739, 38.456846) rotate(45.000000) translate(-35.347739, -38.456846) " points="23.647699 34.2143625 47.0477781 25.7203344 40.6620167 51.1933579"></polygon>
                    </g>
                </g>
            </g>
        </g>
    </g>
</svg>