<?xml version="1.0" encoding="UTF-8"?>
<svg width="47px" height="41px" viewBox="0 0 47 41" version="1.1" xmlns="http://www.w3.org/2000/svg" xmlns:xlink="http://www.w3.org/1999/xlink">
    <!-- Generator: Sketch 51.2 (57519) - http://www.bohemiancoding.com/sketch -->
    <title>Group 10</title>
    <desc>Created with Sketch.</desc>
    <defs>
        <linearGradient x1="45.1010682%" y1="14.3384797%" x2="59.4412202%" y2="93.2973786%" id="linearGradient-1">
            <stop stop-color="#84BAF5" offset="0%"></stop>
            <stop stop-color="#DBEBFA" offset="100%"></stop>
        </linearGradient>
        <linearGradient x1="45.1010682%" y1="14.3384797%" x2="59.4412202%" y2="93.2973786%" id="linearGradient-2">
            <stop stop-color="#75ACFF" offset="0%"></stop>
            <stop stop-color="#9AA2FF" offset="100%"></stop>
        </linearGradient>
    </defs>
    <g id="Page-1" stroke="none" stroke-width="1" fill="none" fill-rule="evenodd">
        <g id="产品服务导航" transform="translate(-781.000000, -172.000000)">
            <g id="eth" transform="translate(737.000000, 109.000000)">
                <g id="img_zigledger" transform="translate(26.000000, 0.000000)">
                    <g id="Group-13" transform="translate(0.000000, 42.000000)">
                        <g id="Group-10" transform="translate(16.881927, 11.263158)">
                            <path d="M12.786625,20.0635569 L30.8461413,25.1676606 C31.4518755,25.3388573 31.9222643,25.8170652 32.0834526,26.4255391 L37.0537628,45.1880926 C37.3056573,46.1389758 36.739015,47.1140198 35.7881318,47.3659143 C35.4834827,47.4466176 35.162875,47.4450414 34.8590341,47.3613465 L16.8457586,42.3994744 C16.2350814,42.2312594 15.7596892,41.7513729 15.5972278,41.1391398 L10.5806769,22.2343548 C10.32838,21.2835783 10.8946096,20.3082946 11.8453861,20.0559977 C12.1541338,19.9740688 12.479233,19.9766797 12.786625,20.0635569 Z" id="Rectangle-6-Copy" fill="url(#linearGradient-1)" opacity="0.600000024" transform="translate(23.817123, 33.710856) rotate(-45.000000) translate(-23.817123, -33.710856) "></path>
                            <path d="M15.4419788,31.9834365 L29.1475672,35.7430749 C29.6029497,35.8679928 29.9585483,36.2240486 30.0828811,36.6795912 L33.8339272,50.423045 C34.0281815,51.1347731 33.6086861,51.869217 32.8969579,52.0634713 C32.6689567,52.1257004 32.4285273,52.1263254 32.2002056,52.0652826 L18.5296713,48.4104003 C18.0707019,48.2876927 17.7114413,47.9304502 17.58615,47.4721794 L13.8000499,33.6239695 C13.6054865,32.9123257 14.024663,32.1776997 14.7363067,31.9831364 C14.9673053,31.9199814 15.211034,31.920085 15.4419788,31.9834365 Z" id="Rectangle-6-Copy" fill="url(#linearGradient-1)" opacity="0.400000006" transform="translate(23.816912, 42.023225) rotate(-45.000000) translate(-23.816912, -42.023225) "></path>
                            <path d="M10.121873,7.40284622 L33.1449358,13.7172401 C33.9028266,13.9251021 34.4949912,14.5171294 34.703029,15.274972 L41.0549609,38.4138676 C41.3804612,39.5996041 40.683102,40.8247035 39.4973656,41.1502038 C39.1151971,41.2551141 38.7119521,41.256113 38.3292685,41.1530973 L15.314118,34.9575843 C14.5508728,34.7521242 13.9537823,34.1573968 13.7452972,33.3949724 L7.385453,10.1371959 C7.06112525,8.95113822 7.75969541,7.72672889 8.94575311,7.40240114 C9.33074581,7.2971248 9.7369601,7.29727853 10.121873,7.40284622 Z" id="Rectangle-6-Copy" fill="url(#linearGradient-2)" transform="translate(24.220494, 24.276589) rotate(-45.000000) translate(-24.220494, -24.276589) "></path>
                        </g>
                    </g>
                </g>
            </g>
        </g>
    </g>
</svg>