<?xml version="1.0" encoding="UTF-8"?>
<svg width="34px" height="38px" viewBox="0 0 34 38" version="1.1" xmlns="http://www.w3.org/2000/svg" xmlns:xlink="http://www.w3.org/1999/xlink">
    <!-- Generator: Sketch 49.3 (51167) - http://www.bohemiancoding.com/sketch -->
    <title>ic_ core</title>
    <desc>Created with Sketch.</desc>
    <defs>
        <linearGradient x1="0.035%" y1="49.957%" x2="99.965%" y2="49.957%" id="linearGradient-1">
            <stop stop-color="#00D7D2" stop-opacity="0.4" offset="0%"></stop>
            <stop stop-color="#00D7D2" stop-opacity="0" offset="100%"></stop>
        </linearGradient>
    </defs>
    <g id="Page-1" stroke="none" stroke-width="1" fill="none" fill-rule="evenodd">
        <g id="纸贵BaaS_数字资产交易" transform="translate(-375.000000, -2971.000000)">
            <g id="ic_-core" transform="translate(376.000000, 2972.000000)">
                <path d="M0,23.323339 L8,27.205305 L15.0194775,23.2568489 C15.6283046,22.9143837 16.3716954,22.9143837 16.9805225,23.2568489 L24,27.205305 L32,23.323339" id="Shape" stroke="#237EFF" stroke-width="2" transform="translate(16.000000, 25.102653) scale(1, -1) translate(-16.000000, -25.102653) "></path>
                <path d="M9,14 L15.4785958,17.9586645 C15.7986857,18.1542515 16.2013143,18.1542515 16.5214042,17.9586645 L23,14" id="Shape" stroke="#237EFF" stroke-width="2" transform="translate(16.000000, 16.052677) scale(-1, 1) translate(-16.000000, -16.052677) "></path>
                <path d="M16,1 L16,9" id="Path" stroke="#237EFF" stroke-width="2"></path>
                <path d="M16,18 L16,27" id="Path" stroke="#1B79FF" stroke-width="2"></path>
                <path d="M0,10.12769 L1.77635684e-15,25.9597868 C1.8654213e-15,26.6870533 0.394786204,27.3570001 1.03099072,27.7093641 L15.0309907,35.463311 C15.6338522,35.7972078 16.3661478,35.7972078 16.9690093,35.463311 L30.9690093,27.7093641 C31.6052138,27.3570001 32,26.6870533 32,25.9597868 L32,10.12769 C32,9.40361686 31.6086425,8.73608977 30.9768024,8.38245159 L16.9768024,0.546712079 C16.3698974,0.20702995 15.6301026,0.20702995 15.0231976,0.546712079 L1.02319761,8.38245159 C0.391357492,8.73608977 -9.76851804e-16,9.40361686 -8.8817842e-16,10.12769 Z" id="Shape" stroke="#65BFFF" stroke-width="2"></path>
                <path d="M8,14.5447393 L8,21.8525968 C8,22.5632442 8.37709944,23.2205199 8.99059706,23.5791847 L14.9905971,27.0869225 C15.6141605,27.451472 16.3858395,27.451472 17.0094029,27.0869225 L23.0094029,23.5791847 C23.6229006,23.2205199 24,22.5632442 24,21.8525968 L24,14.5447393 C24,13.8373637 23.6263367,13.1826052 23.0173065,12.8227963 L17.0173065,9.27805705 C16.3897691,8.90731432 15.6102309,8.90731432 14.9826935,9.27805705 L8.98269352,12.8227963 C8.3736633,13.1826052 8,13.8373637 8,14.5447393 Z" id="Shape" stroke="#65BFFF" stroke-width="2"></path>
                <path d="M14.9852673,4.31901512 L4.98526726,10.206777 C4.37478138,10.5662165 4,11.2217961 4,11.9302379 L4,23.9818296 C4,24.6858829 4.37018962,25.3380778 4.974685,25.699016 L14.9818363,31.674187 C15.6095865,32.0490104 16.39184,32.0514164 17.021884,31.6804615 L27.0147327,25.7969101 C27.6252186,25.4374706 28,24.781891 28,24.0734492 L28,11.9302379 C28,11.2217961 27.6252186,10.5662165 27.0147327,10.206777 L17.0147327,4.31901512 C16.3884866,3.95029632 15.6115134,3.95029632 14.9852673,4.31901512 Z" id="Shape" fill="url(#linearGradient-1)" fill-rule="nonzero"></path>
            </g>
        </g>
    </g>
</svg>