<?xml version="1.0" encoding="UTF-8"?>
<svg width="388px" height="420px" viewBox="0 0 388 420" version="1.1" xmlns="http://www.w3.org/2000/svg" xmlns:xlink="http://www.w3.org/1999/xlink">
    <!-- Generator: Sketch 52.4 (67378) - http://www.bohemiancoding.com/sketch -->
    <title>分组 6</title>
    <desc>Created with Sketch.</desc>
    <defs>
        <linearGradient x1="59.6295332%" y1="41.734617%" x2="0%" y2="-2.52931411%" id="linearGradient-1">
            <stop stop-color="#6B9CFF" offset="0%"></stop>
            <stop stop-color="#6A75FF" offset="100%"></stop>
        </linearGradient>
        <linearGradient x1="72.7429222%" y1="30.1227183%" x2="13.6425987%" y2="72.7225671%" id="linearGradient-2">
            <stop stop-color="#6B9CFF" offset="0%"></stop>
            <stop stop-color="#6A75FF" offset="100%"></stop>
        </linearGradient>
        <linearGradient x1="81.2864882%" y1="12.5013309%" x2="17.0959063%" y2="86.407992%" id="linearGradient-3">
            <stop stop-color="#42D6EB" offset="0%"></stop>
            <stop stop-color="#10BDD5" offset="100%"></stop>
        </linearGradient>
    </defs>
    <g id="联通" stroke="none" stroke-width="1" fill="none" fill-rule="evenodd">
        <g id="登陆" transform="translate(-320.000000, -190.000000)">
            <g id="分组-5" transform="translate(320.000000, 190.000000)">
                <g id="分组-4">
                    <g id="分组-6">
                        <rect id="矩形" fill="#F8F9FB" x="0" y="0" width="388" height="420"></rect>
                        <g id="登陆" transform="translate(22.000000, 39.000000)">
                            <rect id="矩形" x="0" y="0" width="358" height="358"></rect>
                            <g id="分组" transform="translate(20.000000, 47.000000)">
                                <rect id="Rectangle-11" x="24.3728027" y="0.308580656" width="265.885121" height="266.068244"></rect>
                                <g id="Group-45" transform="translate(0.088628, 30.007177)">
                                    <g id="Group-7-Copy" opacity="0.100000001" transform="translate(42.992974, 50.829402)" fill="url(#linearGradient-1)">
                                        <g id="Group-8" transform="translate(0.006288, 0.102461)">
                                            <g id="Group-12">
                                                <polygon id="Path-60-Copy-6" points="4.43141868 48.6256277 103.52664 0 219.798367 57.8250708 119.381875 109.079111"></polygon>
                                                <polygon id="Path-60-Copy-7" points="0 60.2013701 99.0952212 11.5757424 215.366948 69.4008131 114.950457 120.654853"></polygon>
                                            </g>
                                        </g>
                                    </g>
                                    <g id="Group-11" transform="translate(88.117143, 0.008290)">
                                        <g id="Group-16">
                                            <polygon id="Path-58-Copy" fill="url(#linearGradient-1)" opacity="0.300000012" points="0.211163946 126.626378 0.211163946 48.1551031 96.3483121 0.248132437 96.3483121 78.5476971"></polygon>
                                            <polygon id="Path-58" fill="url(#linearGradient-2)" points="8.71455682 130.992174 8.71455682 52.5208996 104.851704 4.61392894 104.851704 82.9134936"></polygon>
                                            <polygon id="Path-58-Copy-4" fill="#F2F8FF" opacity="0.100000001" points="20.5929282 111.120503 20.5929282 74.4666134 46.886579 61.4389317 46.886579 98.0126159"></polygon>
                                        </g>
                                        <g id="Group-10" transform="translate(8.503393, 4.365797)">
                                            <g id="Group-9">
                                                <polygon id="Path-58-Copy-2" fill="#F2F8FF" points="0.211163946 59.2420887 0.211163946 48.1551031 96.4719197 0 96.4719197 11.0985888"></polygon>
                                                <g id="Group" transform="translate(4.764045, 45.187111)" fill="#D2DAE5">
                                                    <ellipse id="Oval-2" cx="1.16329898" cy="5.98621199" rx="1.16329898" ry="1.62605213"></ellipse>
                                                    <ellipse id="Oval-2-Copy" cx="5.9273444" cy="3.60794297" rx="1.16329898" ry="1.62605213"></ellipse>
                                                    <ellipse id="Oval-2-Copy-2" cx="10.294386" cy="1.62605213" rx="1.16329898" ry="1.62605213"></ellipse>
                                                </g>
                                            </g>
                                            <g id="Group-7" transform="translate(50.962551, 37.936207)">
                                                <path d="M0.36929141,10.9003997 L22.0337101,1.42108547e-13" id="Path-61" stroke="#FFFFFF" stroke-width="4.70400018"></path>
                                                <path d="M0.36929141,22.7917448 L15.4441852,15.0623704" id="Path-61-Copy" stroke="#FDFFFF" stroke-width="3.36000013" opacity="0.5"></path>
                                                <path d="M0.36929141,38.6468715 L15.4441852,30.9174972" id="Path-61-Copy-3" stroke="#FDFFFF" stroke-width="3.36000013" opacity="0.200000003"></path>
                                                <path d="M0.36929141,50.5382166 L7.9067383,46.6735294" id="Path-61-Copy-4" stroke="#42D6EB" stroke-width="3.36000013"></path>
                                                <path d="M0.36929141,30.7193082 L7.64134401,26.990697" id="Path-61-Copy-2" stroke="#FDFFFF" stroke-width="3.36000013" opacity="0.400000006"></path>
                                            </g>
                                            <g id="Group-3-Copy" opacity="0.305310236" style="mix-blend-mode: multiply;" transform="translate(24.032155, 86.254409) rotate(2.000000) translate(-24.032155, -86.254409) translate(16.032155, 70.754409)" fill="#6B94FF">
                                                <ellipse id="Oval-8" transform="translate(6.698579, 6.903907) rotate(13.000000) translate(-6.698579, -6.903907) " cx="6.69857918" cy="6.90390676" rx="4.65409781" ry="5.56394782"></ellipse>
                                                <path d="M14.4531015,19.037613 C13.6379191,15.5597882 12.0293617,13.8166922 9.62742947,13.8083251 C5.1904608,13.7928691 1.59808416,18.1918437 1.60363033,23.6093761 C1.60497,24.9179722 2.03526737,26.69328 2.89452243,28.9352995 L14.4531015,19.037613 Z" id="Oval-8-Copy" transform="translate(8.028363, 21.371792) rotate(13.000000) translate(-8.028363, -21.371792) "></path>
                                            </g>
                                            <g id="Group-3" transform="translate(27.179881, 85.403282) rotate(2.000000) translate(-27.179881, -85.403282) translate(18.679881, 70.403282)" fill="#A6B7FA">
                                                <ellipse id="Oval-8" transform="translate(6.882359, 6.555945) rotate(13.000000) translate(-6.882359, -6.555945) " cx="6.88235905" cy="6.55594462" rx="4.60560701" ry="5.65722561"></ellipse>
                                                <path d="M14.7515801,18.5222067 C13.9381029,15.0309017 12.332942,13.2810569 9.93609745,13.2726722 C5.50852698,13.2571836 1.92378662,17.6732373 1.9293543,23.1117761 C1.93069917,24.4254462 2.36009598,26.2076351 3.21754475,28.4583427 L14.7515801,18.5222067 Z" id="Oval-8-Copy" transform="translate(8.340464, 20.865487) rotate(13.000000) translate(-8.340464, -20.865487) "></path>
                                            </g>
                                        </g>
                                    </g>
                                    <g id="Group-4" transform="translate(79.765537, 82.811080)">
                                        <path d="M0.788692597,15.0686553 C0.165908975,25.3321796 0.601857511,33.0615004 2.0965382,38.2566176 C3.5912189,43.4517349 4.26193647,50.6958534 4.10869092,59.9889731 L34.045338,46.9996198 C33.9207813,37.7497769 32.9243275,30.7807172 31.0559767,26.0924407 C29.1876258,21.4041641 28.6271205,12.8512272 29.3744609,0.433629916 L0.788692597,15.0686553 Z" id="Path-59-Copy" fill="#D2D8F3" opacity="0.300000012"></path>
                                        <path d="M4.59971266,16.3486653 C3.97692904,26.6121896 4.41287758,34.3415104 5.90755827,39.5366276 C7.40223898,44.7317448 8.07295652,51.9758633 7.91971095,61.2689831 L37.8563581,48.2796298 C37.7318014,39.0297869 36.7353476,32.0607272 34.8669967,27.3724506 C32.9986459,22.6841741 32.4381406,14.1312372 33.1854809,1.71363989 L4.59971266,16.3486653 Z" id="Path-59" fill="#FFFFFF"></path>
                                        <g id="Group-3" transform="translate(11.130495, 12.090131)">
                                            <path d="M0.332741356,6.50292687 L13.4111974,0.0407078645" id="Path-2" stroke="#FFA646"></path>
                                            <path d="M2.98482678,14.034123 L13.8212618,8.52223029" id="Path-2-Copy" stroke="#E0E8F1"></path>
                                            <path d="M2.98482678,17.8354283 L13.8212618,12.3235356" id="Path-2-Copy-2" stroke="#E0E8F1"></path>
                                            <path d="M2.98482678,21.6367336 L13.8212618,16.1248409" id="Path-2-Copy-3" stroke="#E0E8F1"></path>
                                            <path d="M8.02937412,28.8067368 L13.8212618,25.9557578" id="Path-2-Copy-4" stroke="#42D6EB"></path>
                                        </g>
                                        <path d="M17.0923325,47.3885413 L28.9688791,41.6160878 C29.8240948,41.2004204 30.8527757,41.5599973 31.2665021,42.4192253 C31.3794925,42.653884 31.4381847,42.9111824 31.4381847,43.1718577 C31.4381847,44.8571714 30.4789065,46.3940497 28.9688791,47.1279805 L17.0923325,52.900434 C16.2371167,53.3161014 15.2084358,52.9565245 14.7947094,52.0972965 C14.6817191,51.8626378 14.6230269,51.6053394 14.6230269,51.3446641 C14.6230269,49.6593504 15.5823051,48.122472 17.0923325,47.3885413 Z" id="Path-3" fill="#F0F4F9"></path>
                                    </g>
                                    <g id="Group-13" transform="translate(0.000000, 37.798110)" fill="url(#linearGradient-1)">
                                        <polygon id="Path-60-Copy-12" opacity="0.400000006" points="0 31.5784965 11.8261787 25.8228099 25.7022284 32.6674101 13.7183673 38.7342149"></polygon>
                                        <polygon id="Path-60-Copy-10" opacity="0.400000006" points="281.395086 81.8401768 294.036863 75.6875461 308.869882 83.0041882 296.059547 89.4893929"></polygon>
                                        <polygon id="Path-60-Copy-9" opacity="0.300000012" points="243.610396 26.8673662 253.092207 22.1970443 264.217531 27.7509406 254.609296 32.6737123"></polygon>
                                        <polygon id="Path-60-Copy-11" opacity="0.300000012" points="198.084415 4.67032186 207.566225 0 218.691549 5.55389626 209.083315 10.476668"></polygon>
                                        <polygon id="Path-60-Copy-8" opacity="0.100000001" points="27.8944508 111.306765 45.5140035 102.62815 66.1876122 112.948665 48.333132 122.096395"></polygon>
                                        <polygon id="Path-60-Copy-13" opacity="0.400000006" points="125.784202 148.268003 138.628729 141.941355 153.699641 149.464936 140.683854 156.133565"></polygon>
                                        <polygon id="Path-60-Copy-16" opacity="0.100000001" points="208.418719 83.0539681 219.684392 77.5049939 232.902782 84.1037737 221.4869 89.9526929"></polygon>
                                        <polygon id="Path-60-Copy-15" opacity="0.400000006" points="143.934225 86.6302144 153.786016 81.7776571 165.345449 87.5482658 155.362302 92.6631232"></polygon>
                                    </g>
                                    <g id="Group-6" transform="translate(216.206339, 85.885700) scale(-1, 1) translate(-216.206339, -85.885700) translate(200.206339, 61.885700)">
                                        <path d="M0.198791587,42.0056261 L0.198791587,22.4216424 C0.198791587,21.0207499 0.943267735,19.7264539 2.15138141,19.0270012 L22.4869157,7.25348664 C24.3934762,6.14965939 26.7472767,6.17754695 28.6273982,7.32623837 L30.0566047,8.19943577 L26.3649454,33.2022784 L9.00969206,46.5422339 C8.2407295,47.1332898 7.19983723,47.2210628 6.34357093,46.7670539 L1.52213937,44.2106378 C0.708167695,43.7790544 0.198791587,42.9303127 0.198791587,42.0056261 Z" id="Path-58-Copy-3" fill="#2BB9CD"></path>
                                        <path d="M4.991713,44.5205854 L4.991713,24.7734394 C4.991713,22.8530146 6.01759674,21.0803378 7.67878198,20.1303161 L28.3506625,8.30819262 C29.2014464,7.82163442 30.2837346,8.12013346 30.7680208,8.97490885 C30.9201265,9.24337867 31.0001075,9.54698325 31.0001075,9.85590039 L31.0001075,32.0547363 C31.0001075,33.2063235 30.3852842,34.2694204 29.3894811,34.8396861 L8.70219224,46.6866574 C7.5114898,47.3685359 5.99604431,46.9515241 5.31734992,45.7552356 C5.10394133,45.3790747 4.991713,44.9535617 4.991713,44.5205854 Z" id="Path-58" fill="url(#linearGradient-3)"></path>
                                        <path d="M8.03512982,39.2529798 L8.03512982,27.7619577 C8.03512982,25.9076414 8.99214081,24.1859363 10.5635135,23.2132833 L25.6974923,13.8456084 C26.53097,13.3297 27.6229105,13.5903105 28.1364098,14.4276983 C28.3086355,14.708555 28.3998326,15.0319527 28.3998326,15.3618331 L28.3998326,29.3114785 C28.3998326,30.4234998 27.8262081,31.4560797 26.8841556,32.039845 L11.8194586,41.3750426 C10.6529484,42.0978984 9.12405088,41.7338089 8.40457045,40.561826 C8.16303895,40.1683882 8.03512982,39.7152345 8.03512982,39.2529798 Z" id="Path-58-Copy-5" stroke="#6BEAFC" stroke-width="0.672000025"></path>
                                        <g id="Group-2" transform="translate(15.953107, 24.041926)" fill="#078DA0">
                                            <ellipse id="Oval-8" transform="translate(2.449287, 2.621546) rotate(15.000000) translate(-2.449287, -2.621546) " cx="2.44928652" cy="2.62154602" rx="1.68141283" ry="1.98426497"></ellipse>
                                            <polygon id="Rectangle" points="1.7689292 3.33043347 3.30984492 3.18876902 4.58713316 8.14488727 1.32869795 9.9939755"></polygon>
                                        </g>
                                        <path d="M8.91377321,16.4087879 L8.91377321,12.1123178 C8.91377321,7.48005933 11.2651017,3.16633053 15.1534144,0.665120798 C17.0369291,-0.546475441 19.5433339,0.00239701406 20.7516264,1.89106174 C21.1704316,2.54569035 21.3930557,3.30709955 21.3930557,4.08485079 L21.3930557,9.59301398" id="Rectangle-2" stroke="#3ED4E9" stroke-width="5.91359987" stroke-linecap="round" stroke-linejoin="round"></path>
                                    </g>
                                    <g id="Group-20-Copy-15" transform="translate(99.718818, 54.942240) scale(-1, 1) rotate(-3.000000) translate(-99.718818, -54.942240) translate(84.218818, 36.942240)">
                                        <ellipse id="Oval-9-Copy-4" fill="#2CB8CC" transform="translate(16.736330, 17.472589) rotate(-8.000000) translate(-16.736330, -17.472589) " cx="16.7363299" cy="17.4725888" rx="11.7136289" ry="15.5846588"></ellipse>
                                        <ellipse id="Oval-9-Copy-2" fill="#42D6EB" transform="translate(13.827094, 18.518391) rotate(-8.000000) translate(-13.827094, -18.518391) " cx="13.8270941" cy="18.5183913" rx="11.7136289" ry="15.5846588"></ellipse>
                                        <polyline id="Path-63-Copy" stroke="#FFFFFF" stroke-width="3.57504007" stroke-linecap="round" stroke-linejoin="round" transform="translate(14.005831, 18.579006) scale(-1, 1) rotate(-6.000000) translate(-14.005831, -18.579006) " points="9.08491403 20.9716555 13.6970932 24.7140628 18.9267476 12.4439483"></polyline>
                                    </g>
                                </g>
                            </g>
                        </g>
                    </g>
                </g>
            </g>
        </g>
    </g>
</svg>