<?xml version="1.0" encoding="UTF-8"?>
<svg width="14px" height="16px" viewBox="0 0 14 16" version="1.1" xmlns="http://www.w3.org/2000/svg" xmlns:xlink="http://www.w3.org/1999/xlink">
    <!-- Generator: Sketch 52.4 (67378) - http://www.bohemiancoding.com/sketch -->
    <title>密码 锁</title>
    <desc>Created with Sketch.</desc>
    <g id="联通" stroke="none" stroke-width="1" fill="none" fill-rule="evenodd">
        <g id="登陆" transform="translate(-775.000000, -410.000000)" fill="#999999" fill-rule="nonzero">
            <g id="分组-5" transform="translate(320.000000, 190.000000)">
                <g id="分组-4">
                    <g id="分组-2" transform="translate(436.000000, 31.000000)">
                        <g id="Password" transform="translate(2.000000, 175.000000)">
                            <g id="密码-锁" transform="translate(17.000000, 14.000000)">
                                <path d="M6.90910022,8.55786933 C5.92029907,8.55786933 5.11603563,9.36267027 5.11603563,10.3514652 C5.11603563,11.3402663 5.92030376,12.1445298 6.90910022,12.1445298 C7.89790137,12.1445298 8.70324293,11.3402616 8.70324293,10.3514652 C8.70324293,9.36266402 7.89790918,8.55786933 6.90910022,8.55786933 Z M6.90910022,11.3013413 C6.38483242,11.3013413 5.95869911,10.875208 5.95869911,10.351473 C5.95869911,9.82773956 6.38483242,9.40107188 6.90910022,9.40107188 C7.43336802,9.40107188 7.86003414,9.82773956 7.86003414,10.351473 C7.86003414,10.8752064 7.43336645,11.3013413 6.90910022,11.3013413 Z M12.340044,4.79092745 L11.0861754,4.79092745 L11.0861754,4.3034597 C11.0861754,1.95892572 9.21150135,0.0517203727 6.90910805,0.0517203727 C4.60669912,0.0517203727 2.73257194,1.95945697 2.73257194,4.3034597 L2.73257194,4.79092745 L1.47977048,4.79092743 C0.753902446,4.79092743 0.162968946,5.40586096 0.162968946,6.16266184 L0.162968946,14.5402653 C0.162968946,15.295999 0.753369633,15.9114669 1.47977048,15.9114669 L12.3395175,15.9114669 C13.0643183,15.9114669 13.654719,15.295999 13.654719,14.5402653 L13.654719,6.16266184 C13.654719,5.40639378 13.0648511,4.79092743 12.3400503,4.79092743 L12.340044,4.79092745 Z M3.57576821,4.3034597 C3.57576821,2.42398876 5.07123714,0.894393228 6.90910022,0.894393228 C8.74643048,0.894393228 10.2424322,2.42399501 10.2424322,4.3034597 L10.2424322,4.79092745 L3.57575259,4.79092745 L3.57575259,4.30345968 L3.57576821,4.3034597 Z M12.8115133,14.5402685 C12.8115133,14.8314688 12.5997803,15.0682691 12.3395128,15.0682691 L1.47976578,15.0682691 C1.21843266,15.0682691 1.00616522,14.8314688 1.00616522,14.5402685 L1.00616522,6.16266498 C1.00616522,5.87146464 1.21843266,5.63413156 1.47976578,5.63413156 L12.3395128,5.63413156 C12.5992459,5.63413156 12.8115133,5.87093183 12.8115133,6.16266498 L12.8115133,14.5402685 Z" id="形状"></path>
                            </g>
                        </g>
                    </g>
                </g>
            </g>
        </g>
    </g>
</svg>