<?xml version="1.0" encoding="UTF-8"?>
<svg width="18px" height="17px" viewBox="0 0 18 17" version="1.1" xmlns="http://www.w3.org/2000/svg" xmlns:xlink="http://www.w3.org/1999/xlink">
    <!-- Generator: Sketch 52.4 (67378) - http://www.bohemiancoding.com/sketch -->
    <title>安全</title>
    <desc>Created with Sketch.</desc>
    <g id="联通" stroke="none" stroke-width="1" fill="none" fill-rule="evenodd">
        <g id="登陆" transform="translate(-772.000000, -342.000000)" fill="#E94747" fill-rule="nonzero">
            <g id="分组-5" transform="translate(320.000000, 190.000000)">
                <g id="分组-4">
                    <g id="分组-2" transform="translate(436.000000, 31.000000)">
                        <g id="u" transform="translate(2.100000, 106.700000)">
                            <g id="安全" transform="translate(14.000000, 15.000000)">
                                <path d="M0.775569084,8.44866778 C1.01250118,9.05207757 1.33636519,9.61969187 1.7284111,10.1395788 L1.7284111,10.1054879 C1.47954718,9.47310079 1.31761517,8.8015091 1.25625146,8.11116739 L0.775569084,2.76229753 C1.09772855,2.80150212 1.41477437,2.81684304 1.7284111,2.82025214 L1.7284111,2.49468358 C1.33636519,2.50320632 0.935796543,2.48956994 0.531818801,2.44184261 L1.52655844e-16,2.3770698 L0.533523348,8.16400836 C0.646023479,9.39128251 1.06022851,10.5435566 1.72670655,11.5509441 L1.72670655,11.1742391 C1.23068325,10.3458291 0.900001047,9.42196437 0.775569084,8.44866778 Z M1.3943198,8.09241736 L0.952842018,3.31286635 C1.21534232,3.32991182 1.47272899,3.33161637 1.7284111,3.32650273 L1.7284111,2.82025214 C1.41477437,2.81684304 1.09772855,2.80320666 0.775569084,2.76229753 L1.25454691,8.10946284 C1.31591062,8.8015091 1.47784263,9.47139624 1.72670655,10.1037833 L1.72670655,9.64014644 C1.55454726,9.14412313 1.44034259,8.62423617 1.3943198,8.09241736 Z M0.775569084,8.44866778 C0.900001047,9.42196437 1.23068325,10.3458291 1.7284111,11.1742391 L1.7284111,10.1395788 C1.33636519,9.61969187 1.01420573,9.05207757 0.775569084,8.44866778 Z M16.5490533,1.32172766 L16.5390533,1.40172766 L16.5490533,1.32172766 Z M7.9517138,0.955477242 C7.9517138,0.955477242 8.05569119,1.02536369 8.23466867,1.13104563 L8.71876015,1.13104563 C8.27557781,0.902636271 8.01137296,0.733886075 8.00285022,0.727067885 L7.75739539,0.566840426 L7.51364511,0.727067885 C7.50512237,0.732181527 7.24091752,0.900931724 6.79773518,1.13104563 L7.66875892,1.13104563 C7.8477364,1.02536369 7.9517138,0.955477242 7.9517138,0.955477242 Z M7.66875892,1.13275018 L8.23637322,1.13275018 C8.05739574,1.02536369 7.95341835,0.957181789 7.95341835,0.957181789 C7.95341835,0.957181789 7.8477364,1.02536369 7.66875892,1.13275018 Z M7.66875892,1.13275018 L6.79773518,1.13275018 C5.81080222,1.64070531 3.90341363,2.45206989 1.7284111,2.49638813 L1.7284111,2.82025214 C4.50341433,2.85263854 6.87955346,1.60150072 7.66875892,1.13275018 Z M4.14205027,13.882765 L7.75739539,15.6964035 L11.4068315,13.864015 C13.4539929,12.5975362 14.7733126,10.4941247 14.9795629,8.1657129 L15.5147908,2.3770698 L14.9846765,2.44013806 C12.3324007,2.75888843 9.88467059,1.73104633 8.71876015,1.13104563 L8.23466867,1.13104563 C9.1125106,1.65263714 11.9539912,3.15263889 15.1278585,2.76229753 L14.6488807,8.10946284 C14.4477441,10.3390109 13.2204699,12.353786 11.318195,13.5708328 L7.9517138,15.3077667 L7.72671354,15.1918574 L7.49659963,15.3077667 L4.09773204,13.5895829 C3.11079907,12.9691276 2.30625268,12.1373084 1.7284111,11.1742391 L1.7284111,11.5509441 C2.33352544,12.4679906 3.14659457,13.2640143 4.14205027,13.882765 Z M1.7284111,10.1054879 L1.7284111,10.1509424 L1.8284111,10.2054879 C1.79507777,10.171397 1.76174444,10.1395788 1.7284111,10.1054879 Z M2.22102531,10.7293523 C2.02500236,10.3816246 1.85795671,10.018556 1.7284111,9.64185099 L1.7284111,10.1054879 C1.73863839,10.1310561 1.74886567,10.1549198 1.75909296,10.180488 C1.90397949,10.3696927 2.05738876,10.5537839 2.22102531,10.7293523 Z M1.7284111,2.82025214 L1.7284111,3.32650273 C4.60398263,3.27707085 7.00228088,2.01059211 7.75739539,1.56400068 C8.54319176,2.02934213 11.0966038,3.3793437 14.1187664,3.32820728 L14.1545619,2.94297955 C14.3505849,2.93445682 14.5449033,2.91911589 14.7392217,2.89695677 L14.2551302,8.18787202 C14.0539936,10.3935564 12.8130831,12.3861724 10.8937627,13.5912874 L7.72500899,15.193562 L7.95000925,15.3094712 L11.318195,13.5708328 C13.2204699,12.3520814 14.4477441,10.3390109 14.6488807,8.11116739 L15.1278585,2.76400207 C11.9556957,3.15604798 9.1125106,1.65604624 8.23466867,1.13275018 L7.66705438,1.13275018 C6.87955346,1.60150072 4.50341433,2.85263854 1.7284111,2.82025214 Z M1.75909296,10.180488 L1.7284111,10.1395788 L1.7284111,11.1742391 C2.30625268,12.1356039 3.11079907,12.967423 4.09773204,13.5895829 L7.49659963,15.3077667 L7.72671354,15.1918574 L4.58523261,13.5725374 C3.29659475,12.7458319 2.31988906,11.5560578 1.75909296,10.180488 Z M14.2551302,8.18616747 L14.7392217,2.89525223 C14.5449033,2.91741134 14.3488803,2.93275227 14.1545619,2.94127501 L14.1187664,3.32650273 C14.2653575,3.32479818 14.4136531,3.32138909 14.5619488,3.31286635 L14.120471,8.09241736 C13.9278571,10.1787834 12.7687649,12.0282174 10.9721719,13.1481051 L7.75569084,14.7606069 L4.57500532,13.1668551 C3.57614052,12.5481044 2.77329868,11.7060579 2.21932076,10.7293523 C2.05568421,10.5537839 1.90227494,10.3696927 1.75738841,10.180488 C2.31647997,11.5543532 3.2948902,12.7458319 4.58352806,13.5708328 L7.72500899,15.1901529 L10.8937627,13.5878783 C12.8130831,12.3844678 14.0539936,10.3918519 14.2551302,8.18616747 Z M17.4545658,0.179908157 L17.2789974,0.234453675 L17.2789974,2.33786521 L17.4545658,0.179908157 Z M16.8903606,7.08332528 L17.2789974,2.33786521 L17.2789974,0.234453675 L16.8903606,0.353771996 L16.8903606,7.08332528 Z M16.8477469,0.367408376 C15.3238815,0.839568016 13.8221752,0.682749652 12.8301286,0.469681222 C12.6801284,0.433885726 12.5216055,0.479908506 12.4159235,0.59070409 C12.3102416,0.699795126 12.2744461,0.85661349 12.3221734,0.998090928 C12.3392189,1.04922735 12.3681962,1.09184104 12.4022872,1.13275018 L16.5034283,1.13275018 L16.5034283,1.31513675 L16.5051328,1.31513675 L16.5034283,1.32877313 L16.5034283,9.34696428 C16.7335422,8.50150875 16.8307014,7.74980333 16.8630878,7.42423477 L16.8903606,7.08162073 L16.8903606,0.353771996 L16.8477469,0.367408376 Z M14.8755855,11.0395799 C13.9210389,12.500377 12.9750151,13.4617418 11.8091047,14.1537881 C11.6454681,14.2509473 11.570468,14.440152 11.6216044,14.617425 C11.6744454,14.7946979 11.8414911,14.9174253 12.0341049,14.9174253 C12.1125141,14.9174253 12.1909233,14.8969707 12.2574006,14.8560616 C13.5392203,14.0941289 14.5704715,13.0526504 15.5983136,11.4793531 C16.0227459,10.8299206 16.3091099,10.0543515 16.5017237,9.34525973 L16.5017237,1.32706858 L16.0091095,7.35093923 C15.8949049,8.4708269 15.5369499,10.0287833 14.8755855,11.0395799 Z M12.6443329,1.27593216 C13.6074022,1.48388695 15.0136538,1.64070531 16.5034283,1.3134322 L16.5034283,1.13275018 L12.4022872,1.13275018 C12.4636509,1.20434117 12.5471737,1.25718214 12.6443329,1.27593216 Z M6.03580248,10.2606017 C6.11591621,10.3390109 6.22500724,10.3816246 6.33750737,10.3816246 C6.45171205,10.3816246 6.55909854,10.3390109 6.63921227,10.2606017 L11.4784224,5.58673263 C11.5858089,5.48275524 11.6284226,5.32934597 11.589218,5.18786853 C11.5500134,5.04468655 11.4341042,4.93389096 11.2875131,4.89639092 C11.1392175,4.85889087 10.9823991,4.89980001 10.8750127,5.00377741 L6.33921192,9.38446432 L4.222164,7.3390074 C4.05511836,7.17707539 3.78409531,7.17707539 3.61704966,7.3390074 C3.45000401,7.5009394 3.45000401,7.76173516 3.61704966,7.92366717 L6.03580248,10.2606017 Z" id="形状"></path>
                            </g>
                        </g>
                    </g>
                </g>
            </g>
        </g>
    </g>
</svg>