<?xml version="1.0" encoding="UTF-8"?>
<svg width="467px" height="347px" viewBox="0 0 467 347" version="1.1" xmlns="http://www.w3.org/2000/svg" xmlns:xlink="http://www.w3.org/1999/xlink">
    <!-- Generator: Sketch 49.3 (51167) - http://www.bohemiancoding.com/sketch -->
    <title>1</title>
    <desc>Created with Sketch.</desc>
    <defs>
        <linearGradient x1="50%" y1="100%" x2="50%" y2="1.36831647%" id="linearGradient-1">
            <stop stop-color="#75ACFF" stop-opacity="0" offset="0%"></stop>
            <stop stop-color="#75ACFF" stop-opacity="0.227100317" offset="100%"></stop>
        </linearGradient>
        <linearGradient x1="66.2161984%" y1="98.4481%" x2="34.3642943%" y2="3.317%" id="linearGradient-2">
            <stop stop-color="#2E78F6" offset="0.1242%"></stop>
            <stop stop-color="#2851DA" offset="40.83%"></stop>
            <stop stop-color="#1E12AC" offset="100%"></stop>
        </linearGradient>
        <linearGradient x1="2.22044605e-14%" y1="3.01889173%" x2="100%" y2="95.2282812%" id="linearGradient-3">
            <stop stop-color="#1228AC" offset="0%"></stop>
            <stop stop-color="#040A50" offset="100%"></stop>
        </linearGradient>
        <linearGradient x1="20.2813%" y1="25.632374%" x2="72.2784699%" y2="80.5870517%" id="linearGradient-4">
            <stop stop-color="#2E78F6" offset="0%"></stop>
            <stop stop-color="#2851DA" offset="40.83%"></stop>
            <stop stop-color="#1E12AC" offset="100%"></stop>
        </linearGradient>
        <linearGradient x1="107252%" y1="20922%" x2="107252%" y2="41006%" id="linearGradient-5">
            <stop stop-color="#05D89E" offset="0%"></stop>
            <stop stop-color="#08DCCE" stop-opacity="0" offset="100%"></stop>
        </linearGradient>
    </defs>
    <g id="Page-1" stroke="none" stroke-width="1" fill="none" fill-rule="evenodd">
        <g id="纸贵BaaS_数字资产交易" transform="translate(-202.000000, -1854.000000)">
            <g id="Group-17" transform="translate(-186.000000, 1571.000000)">
                <g id="Group-14" transform="translate(0.000000, 9.000000)">
                    <g id="1" transform="translate(3.000000, 196.668966)">
                        <g id="Group-34" transform="translate(385.000000, 78.000000)">
                            <g id="Group-39" transform="translate(0.000000, 20.000000)">
                                <polygon id="Path-4" fill="#D4D4D4" opacity="0.170000002" points="233.025842 59 0 190.974382 230.642504 325.725884 462.787867 194.227875"></polygon>
                                <g id="Group-28">
                                    <polygon id="Path-7" fill="url(#linearGradient-1)" points="1.26118577 137.514943 1.26118577 189.842933 235.376792 325.380524 465.161265 194.131034 465.161265 137.514943"></polygon>
                                    <g id="Clipped" transform="translate(0.494800, 0.944828)" fill-rule="nonzero">
                                        <g id="Group">
                                            <polygon id="Shape" fill="url(#linearGradient-3)" points="232.649777 279.311816 0.691098814 143.874023 0.691098814 133.700414 233.064436 265.257195"></polygon>
                                            <polygon id="Shape" fill="#051A4F" points="232.649777 279.311816 232.649777 265.36092 438.83047 151.566897 438.83047 161.896092"></polygon>
                                            <polygon id="Shape" fill="#0F2AA3" points="438.83047 151.566897 438.83047 161.896092 465.437774 146.769655 465.437774 136.431816"></polygon>
                                            <path d="M0.665182609,133.622621 L233.893755,0.864367816 L465.411858,136.570115 L235.707889,267.323034 C233.785626,268.330575 231.484721,268.298058 229.591665,267.236598 L0.665182609,133.622621 Z" id="Shape" fill="url(#linearGradient-4)"></path>
                                            <polygon id="Shape" fill="#0092FF" points="438.83047 151.566897 206.871791 16.1291034 233.893755 0.743356322 465.437774 136.431816"></polygon>
                                            <path d="M239.759456,22.3266207 C240.730597,21.8375334 241.393776,20.8958211 241.527348,19.8162203 C241.66092,18.7366195 241.247267,17.6615254 240.424639,16.9502529 C238.62714,15.1137613 235.837026,14.6777762 233.565483,15.8784368 C232.594343,16.3675241 231.931163,17.3092364 231.797592,18.3888372 C231.66402,19.468438 232.077673,20.5435321 232.9003,21.2548046 C234.733584,23.0204604 237.475418,23.4489011 239.759456,22.3266207 Z" id="Shape" fill="#FFFFFF"></path>
                                            <path d="M264.958647,91.7785747 L211.242991,60.4452414 C210.983799,60.2631123 210.63831,60.2631123 210.379118,60.4452414 L207.571529,62.0183908 C207.309269,62.174096 207.148485,62.4566188 207.148485,62.7617471 C207.148485,63.0668755 207.309269,63.3493983 207.571529,63.5051034 L261.287184,94.8384368 C261.546376,95.0205659 261.891865,95.0205659 262.151058,94.8384368 L264.958647,93.2652874 C265.220907,93.1095822 265.381691,92.8270594 265.381691,92.521931 C265.381691,92.2168027 265.220907,91.9342799 264.958647,91.7785747 Z" id="Shape" fill="url(#linearGradient-5)"></path>
                                            <path d="M217.281467,77.7931034 L214.473878,79.3662529 C214.211618,79.5219581 214.050834,79.8044808 214.050834,80.1096092 C214.050834,80.4147376 214.211618,80.6972603 214.473878,80.8529655 L230.887475,90.4474483 C231.146667,90.6295774 231.492156,90.6295774 231.751349,90.4474483 L234.558938,88.8742989 C234.821198,88.7185937 234.981982,88.4360709 234.981982,88.1309425 C234.981982,87.8258142 234.821198,87.5432914 234.558938,87.3875862 L218.145341,77.7931034 C217.886148,77.6109744 217.540659,77.6109744 217.281467,77.7931034 Z" id="Shape" fill="#0092FF" opacity="0.629019475"></path>
                                            <path d="M241.158931,96.3337931 L310.657556,136.95908 C310.916748,137.14121 311.262237,137.14121 311.521429,136.95908 L314.329018,135.385931 C314.591279,135.230226 314.752062,134.947703 314.752062,134.642575 C314.752062,134.337446 314.591279,134.054924 314.329018,133.899218 L244.830394,93.273931 C244.571201,93.0918019 244.225712,93.0918019 243.96652,93.273931 L241.158931,94.8470805 C240.896671,95.0027856 240.735887,95.2853084 240.735887,95.5904368 C240.735887,95.8955652 240.896671,96.1780879 241.158931,96.3337931 Z" id="Shape" fill="url(#linearGradient-5)"></path>
                                            <path d="M205.714201,84.3363678 L202.906612,85.9095172 C202.644352,86.0652224 202.483568,86.3477452 202.483568,86.6528736 C202.483568,86.9580019 202.644352,87.2405247 202.906612,87.3962299 L226.542191,101.226115 C226.801384,101.408244 227.146873,101.408244 227.406065,101.226115 L230.213654,99.6529655 C230.475914,99.4972603 230.636698,99.2147376 230.636698,98.9096092 C230.636698,98.6044808 230.475914,98.3219581 230.213654,98.1662529 L206.578074,84.3363678 C206.318882,84.1542387 205.973393,84.1542387 205.714201,84.3363678 Z" id="Shape" fill="#0092FF" opacity="0.629019475"></path>
                                            <path d="M239.508933,104.10446 L236.701344,105.677609 C236.439084,105.833314 236.2783,106.115837 236.2783,106.420966 C236.2783,106.726094 236.439084,107.008617 236.701344,107.164322 L264.137967,123.206989 C264.397159,123.389118 264.742648,123.389118 265.00184,123.206989 L267.809429,121.633839 C268.07169,121.478134 268.232473,121.195611 268.232473,120.890483 C268.232473,120.585354 268.07169,120.302832 267.809429,120.147126 L240.459194,104.10446 C240.170891,103.914489 239.797235,103.914489 239.508933,104.10446 Z" id="Shape" fill="url(#linearGradient-5)"></path>
                                            <path d="M237.029616,120.06069 L239.837205,118.48754 C240.099465,118.331835 240.260249,118.049312 240.260249,117.744184 C240.260249,117.439056 240.099465,117.156533 239.837205,117.000828 L221.695861,106.420966 C221.436669,106.238836 221.09118,106.238836 220.831987,106.420966 L218.024398,107.994115 C217.762138,108.14982 217.601354,108.432343 217.601354,108.737471 C217.601354,109.0426 217.762138,109.325122 218.024398,109.480828 L236.165742,120.06069 C236.424935,120.242819 236.770424,120.242819 237.029616,120.06069 Z" id="Shape" fill="url(#linearGradient-5)"></path>
                                            <path d="M194.224683,90.9574253 L191.417094,92.5305747 C191.154834,92.6862799 190.99405,92.9688027 190.99405,93.273931 C190.99405,93.5790594 191.154834,93.8615822 191.417094,94.0172874 L207.830691,103.61177 C208.089883,103.793899 208.435372,103.793899 208.694564,103.61177 L211.502153,102.038621 C211.764414,101.882916 211.925197,101.600393 211.925197,101.295264 C211.925197,100.990136 211.764414,100.707613 211.502153,100.551908 L195.088557,90.9574253 C194.829364,90.7752962 194.483875,90.7752962 194.224683,90.9574253 Z M182.657417,97.4834023 L179.849828,99.0565517 C179.587567,99.2122569 179.426784,99.4947797 179.426784,99.799908 C179.426784,100.105036 179.587567,100.387559 179.849828,100.543264 L203.87415,114.606529 C204.133342,114.788658 204.478831,114.788658 204.738024,114.606529 L207.545613,113.033379 C207.807873,112.877674 207.968657,112.595151 207.968657,112.290023 C207.968657,111.984895 207.807873,111.702372 207.545613,111.546667 L183.495374,97.492046 C183.243727,97.3191646 182.912572,97.3157487 182.657417,97.4834023 Z" id="Shape" fill="#0092FF" opacity="0.629019475"></path>
                                            <path d="M216.832253,117.493517 L214.024664,119.066667 C213.762404,119.222372 213.60162,119.504895 213.60162,119.810023 C213.60162,120.115151 213.762404,120.397674 214.024664,120.553379 L237.245584,134.11531 C237.504776,134.297439 237.850265,134.297439 238.109458,134.11531 L240.917047,132.542161 C241.179307,132.386456 241.340091,132.103933 241.340091,131.798805 C241.340091,131.493676 241.179307,131.211153 240.917047,131.055448 L217.696126,117.493517 C217.436934,117.311388 217.091445,117.311388 216.832253,117.493517 Z" id="Shape" fill="url(#linearGradient-5)"></path>
                                            <path d="M171.046957,104.10446 L168.239368,105.677609 C167.977107,105.833314 167.816324,106.115837 167.816324,106.420966 C167.816324,106.726094 167.977107,107.008617 168.239368,107.164322 L184.652964,116.758805 C184.912157,116.940934 185.257646,116.940934 185.516838,116.758805 L188.324427,115.185655 C188.586687,115.02995 188.747471,114.747427 188.747471,114.442299 C188.747471,114.13717 188.586687,113.854648 188.324427,113.698943 L171.91083,104.10446 C171.651638,103.922331 171.306149,103.922331 171.046957,104.10446 Z" id="Shape" fill="#0092FF" opacity="0.629019475"></path>
                                            <path d="M197.697455,119.645793 L194.889866,121.218943 C194.627605,121.374648 194.466822,121.65717 194.466822,121.962299 C194.466822,122.267427 194.627605,122.54995 194.889866,122.705655 L220.67649,137.754299 C220.935682,137.936428 221.281171,137.936428 221.540364,137.754299 L224.347953,136.181149 C224.610213,136.025444 224.770997,135.742921 224.770997,135.437793 C224.770997,135.132665 224.610213,134.850142 224.347953,134.694437 L198.561328,119.645793 C198.302136,119.463664 197.956647,119.463664 197.697455,119.645793 Z" id="Shape" fill="url(#linearGradient-5)"></path>
                                            <path d="M130.514011,105.919632 L127.706422,107.492782 C127.444162,107.648487 127.283378,107.93101 127.283378,108.236138 C127.283378,108.541266 127.444162,108.823789 127.706422,108.979494 L211.579902,157.928644 C211.839094,158.110773 212.184583,158.110773 212.443775,157.928644 L215.251364,156.355494 C215.513625,156.199789 215.674408,155.917266 215.674408,155.612138 C215.674408,155.30701 215.513625,155.024487 215.251364,154.868782 L131.308775,105.919632 C131.049349,105.843275 130.773436,105.843275 130.514011,105.919632 Z" id="Shape" fill="url(#linearGradient-5)"></path>
                                            <path d="M129.848828,129.153839 L127.04124,130.726989 C126.778979,130.882694 126.618196,131.165216 126.618196,131.470345 C126.618196,131.775473 126.778979,132.057996 127.04124,132.213701 L150.676819,146.043586 C150.936011,146.225715 151.2815,146.225715 151.540692,146.043586 L154.348281,144.470437 C154.610542,144.314732 154.771325,144.032209 154.771325,143.72708 C154.771325,143.421952 154.610542,143.139429 154.348281,142.983724 L130.712702,129.153839 C130.45351,128.97171 130.108021,128.97171 129.848828,129.153839 Z" id="Shape" fill="#0092FF" opacity="0.629019475"></path>
                                            <path d="M163.652199,148.835494 L160.835972,150.4 C160.573711,150.555705 160.412928,150.838228 160.412928,151.143356 C160.412928,151.448485 160.573711,151.731007 160.835972,151.886713 L188.272594,167.929379 C188.531787,168.111508 188.877276,168.111508 189.136468,167.929379 L191.944057,166.35623 C192.206317,166.200525 192.367101,165.918002 192.367101,165.612874 C192.367101,165.307745 192.206317,165.025222 191.944057,164.869517 L164.507434,148.826851 C164.228355,148.74094 163.929487,148.743961 163.652199,148.835494 Z" id="Shape" fill="url(#linearGradient-5)"></path>
                                            <path d="M161.086495,164.878161 L163.894084,163.305011 C164.156344,163.149306 164.317128,162.866784 164.317128,162.561655 C164.317128,162.256527 164.156344,161.974004 163.894084,161.818299 L145.75274,151.238437 C145.493548,151.056308 145.148059,151.056308 144.888866,151.238437 L142.081277,152.811586 C141.819017,152.967291 141.658233,153.249814 141.658233,153.554943 C141.658233,153.860071 141.819017,154.142594 142.081277,154.298299 L160.222621,164.878161 C160.481814,165.06029 160.827303,165.06029 161.086495,164.878161 Z" id="Shape" fill="url(#linearGradient-5)"></path>
                                            <path d="M118.281562,135.705747 L115.473973,137.278897 C115.211713,137.434602 115.050929,137.717125 115.050929,138.022253 C115.050929,138.327381 115.211713,138.609904 115.473973,138.765609 L131.88757,148.360092 C132.146762,148.542221 132.492251,148.542221 132.751443,148.360092 L135.559032,146.786943 C135.821293,146.631237 135.982076,146.348715 135.982076,146.043586 C135.982076,145.738458 135.821293,145.455935 135.559032,145.30023 L119.145436,135.705747 C118.873462,135.569981 118.553535,135.569981 118.281562,135.705747 Z M106.714296,142.300874 L103.906707,143.874023 C103.644446,144.029728 103.483663,144.312251 103.483663,144.617379 C103.483663,144.922508 103.644446,145.20503 103.906707,145.360736 L127.956945,159.415356 C128.216138,159.597485 128.561627,159.597485 128.820819,159.415356 L131.628408,157.842207 C131.890668,157.686502 132.051452,157.403979 132.051452,157.098851 C132.051452,156.793722 131.890668,156.511199 131.628408,156.355494 L107.578169,142.300874 C107.318977,142.118744 106.973488,142.118744 106.714296,142.300874 Z" id="Shape" fill="#0092FF" opacity="0.629019475"></path>
                                            <path d="M140.923687,162.224552 L138.116098,163.797701 C137.853838,163.953406 137.693054,164.235929 137.693054,164.541057 C137.693054,164.846186 137.853838,165.128709 138.116098,165.284414 L161.337018,178.846345 C161.59621,179.028474 161.941699,179.028474 162.200892,178.846345 L165.008481,177.273195 C165.270741,177.11749 165.431525,176.834967 165.431525,176.529839 C165.431525,176.224711 165.270741,175.942188 165.008481,175.786483 L141.78756,162.224552 C141.506715,162.133988 141.204532,162.133988 140.923687,162.224552 Z" id="Shape" fill="url(#linearGradient-5)"></path>
                                            <path d="M95.1470292,148.835494 L92.3308016,150.4 C92.0685412,150.555705 91.9077576,150.838228 91.9077576,151.143356 C91.9077576,151.448485 92.0685412,151.731007 92.3308016,151.886713 L108.744398,161.481195 C109.003591,161.663325 109.34908,161.663325 109.608272,161.481195 L112.415861,159.908046 C112.678121,159.752341 112.838905,159.469818 112.838905,159.16469 C112.838905,158.859561 112.678121,158.577039 112.415861,158.421333 L96.002264,148.826851 C95.7232691,148.740364 95.4242212,148.743387 95.1470292,148.835494 Z" id="Shape" fill="#0092FF" opacity="0.629019475"></path>
                                            <path d="M121.754334,164.376828 L118.946745,165.958621 C118.684484,166.114326 118.523701,166.396849 118.523701,166.701977 C118.523701,167.007105 118.684484,167.289628 118.946745,167.445333 L144.733369,182.493977 C144.992561,182.676106 145.33805,182.676106 145.597243,182.493977 L148.404832,180.920828 C148.667092,180.765122 148.827876,180.4826 148.827876,180.177471 C148.827876,179.872343 148.667092,179.58982 148.404832,179.434115 L122.618207,164.385471 C122.338366,164.291506 122.035997,164.28848 121.754334,164.376828 Z" id="Shape" fill="url(#linearGradient-5)"></path>
                                        </g>
                                    </g>
                                </g>
                            </g>
                        </g>
                    </g>
                </g>
            </g>
        </g>
    </g>
</svg>