<?xml version="1.0" encoding="UTF-8"?>
<svg width="32px" height="32px" viewBox="0 0 32 32" version="1.1" xmlns="http://www.w3.org/2000/svg" xmlns:xlink="http://www.w3.org/1999/xlink">
    <!-- Generator: Sketch 52.1 (67048) - http://www.bohemiancoding.com/sketch -->
    <title>Shape Copy 3</title>
    <desc>Created with Sketch.</desc>
    <g id="1.4" stroke="none" stroke-width="1" fill="none" fill-rule="evenodd">
        <g id="证明文件_生成成功" transform="translate(-329.000000, -344.000000)" fill="#52C41A">
            <g id="Group-143" transform="translate(328.000000, 341.000000)">
                <path d="M23.8473592,25.2061106 L13.4902123,14.9709179 L10.7894478,19.6289432 C10.4763616,20.1679656 9.78377677,20.3549097 9.23666641,20.0464518 C8.68955605,19.737994 8.49980679,19.0556478 8.81289307,18.5166255 L12.2536796,12.5811485 C12.4624038,12.2197231 12.8482273,12.0140845 13.2435382,12.0140845 C13.43645,12.0140845 13.6293617,12.0608205 13.806461,12.1605241 C13.9076606,12.2197231 13.9993728,12.2882693 14.0752725,12.3692784 C14.078435,12.3723941 14.0847599,12.3786256 14.0879224,12.3817414 L25.4570654,23.6170853 C25.8998137,24.056404 25.8998137,24.7667919 25.453903,25.2029949 C25.0111547,25.6454294 24.29327,25.6454294 23.8473592,25.2061106 L23.8473592,25.2061106 Z M17,35 C8.1625,35 1,27.8375 1,19 C1,10.1625 8.1625,3 17,3 C25.8375,3 33,10.1625 33,19 C33,27.8375 25.8375,35 17,35 L17,35 Z" id="Shape-Copy-3" transform="translate(17.000000, 19.000000) scale(1, -1) translate(-17.000000, -19.000000) "></path>
            </g>
        </g>
    </g>
</svg>