<?xml version="1.0" encoding="UTF-8"?>
<svg width="14px" height="12px" viewBox="0 0 14 12" version="1.1" xmlns="http://www.w3.org/2000/svg" xmlns:xlink="http://www.w3.org/1999/xlink">
    <!-- Generator: Sketch 52.1 (67048) - http://www.bohemiancoding.com/sketch -->
    <title>数据 (1)</title>
    <desc>Created with Sketch.</desc>
    <g id="1.4" stroke="none" stroke-width="1" fill="none" fill-rule="evenodd">
        <g id="文件验证_验证失败" transform="translate(-49.000000, -130.000000)" fill="#FFFFFF" fill-rule="nonzero">
            <g id="左侧导航条">
                <g id="Group" transform="translate(0.000000, 113.000000)">
                    <g id="数据-(1)" transform="translate(49.000000, 17.000000)">
                        <path d="M13.461998,0.0132678133 L0.519509252,0.0132678133 C0.232453089,0.0132678133 0,0.232923833 0,0.504176904 L0,11.4972973 C0,11.7685504 0.232453089,11.9882064 0.519509252,11.9882064 L13.461998,11.9882064 C13.7490542,11.9882064 13.9815073,11.7685504 13.9815073,11.4972973 L13.9815073,0.504176904 C13.9815073,0.234398034 13.7490542,0.0132678133 13.461998,0.0132678133 Z M12.9424887,11.0078624 L1.0390185,11.0078624 L1.0390185,0.995085995 L12.9424887,0.995085995 L12.9424887,11.0078624 Z" id="Shape"></path>
                        <path d="M2.57414494,6.84029484 L4.43064947,6.84029484 C4.64750169,6.84029484 4.84251267,6.71203931 4.91739688,6.51891892 L5.73176274,4.43439803 L7.26532909,7.74987715 C7.34801374,7.92825553 7.53522428,8.04471744 7.74115588,8.04471744 L7.75051641,8.04471744 C7.95956818,8.04029484 8.14677872,7.91793612 8.22478311,7.73366093 L9.5352569,4.59066339 L11.5633711,4.59066339 C11.8504273,4.59066339 12.0828803,4.37100737 12.0828803,4.0997543 C12.0828803,3.82850123 11.8504273,3.60884521 11.5633711,3.60884521 L9.18111696,3.60884521 C8.96738492,3.60884521 8.77549412,3.73267813 8.69748973,3.91990172 L7.71463438,6.27420147 L6.16546716,2.92334152 C6.08122241,2.73906634 5.88309126,2.62407862 5.67403949,2.62997543 C5.46186754,2.63587224 5.274657,2.76265356 5.20133287,2.94987715 L4.06558892,5.85700246 L2.57414494,5.85700246 C2.28708878,5.85700246 2.05463569,6.07665848 2.05463569,6.34791155 C2.05463569,6.62063882 2.28708878,6.84029484 2.57414494,6.84029484 Z M2.57414494,9.22407862 L5.57419386,9.22407862 C5.86125003,9.22407862 6.09370312,9.0044226 6.09370312,8.73316953 C6.09370312,8.46191646 5.86125003,8.24226044 5.57419386,8.24226044 L2.57414494,8.24226044 C2.28708878,8.24226044 2.05463569,8.46191646 2.05463569,8.73316953 C2.05463569,9.0044226 2.28708878,9.22407862 2.57414494,9.22407862 Z" id="Shape"></path>
                    </g>
                </g>
            </g>
        </g>
    </g>
</svg>