<?xml version="1.0" encoding="UTF-8"?>
<svg width="20px" height="20px" viewBox="0 0 20 20" version="1.1" xmlns="http://www.w3.org/2000/svg" xmlns:xlink="http://www.w3.org/1999/xlink">
    <!-- Generator: Sketch 52.1 (67048) - http://www.bohemiancoding.com/sketch -->
    <title>等待验证</title>
    <desc>Created with Sketch.</desc>
    <g id="1.4" stroke="none" stroke-width="1" fill="none" fill-rule="evenodd">
        <g id="文件验证_验证失败" transform="translate(-439.000000, -473.000000)">
            <g id="Group-12" transform="translate(298.000000, 151.000000)">
                <g id="等待验证" transform="translate(143.000000, 324.000000)">
                    <path d="M8,17 C3.03661904,17 -1,12.9632667 -1,8 C-1,3.03673333 3.03661904,-1 8,-1 C12.963381,-1 17,3.03673333 17,8 C17,12.9633685 12.9635916,17 8,17 Z" id="Shape" stroke="#FFFFFF" stroke-width="2" fill="#FF4B4B" fill-rule="nonzero"></path>
                    <path d="M7.23140496,4 L8.76859504,4 L8.50413223,9.62809917 L7.47933884,9.62809917 L7.23140496,4 Z M7.99173554,10.8347107 C8.27272727,10.8347107 8.52066116,10.9173554 8.71900826,11.1157025 C8.90082645,11.2975207 9,11.5289256 9,11.8099174 C9,12.107438 8.90082645,12.338843 8.71900826,12.5206612 C8.52066116,12.7024793 8.27272727,12.8016529 7.99173554,12.8016529 C7.7107438,12.8016529 7.47933884,12.7024793 7.28099174,12.5206612 C7.08264463,12.322314 7,12.0909091 7,11.8099174 C7,11.5289256 7.08264463,11.2975207 7.28099174,11.1157025 C7.47933884,10.9173554 7.7107438,10.8347107 7.99173554,10.8347107 Z" id="！" fill="#FFFFFF"></path>
                </g>
            </g>
        </g>
    </g>
</svg>