<?xml version="1.0" encoding="UTF-8"?>
<svg width="12px" height="16px" viewBox="0 0 12 16" version="1.1" xmlns="http://www.w3.org/2000/svg" xmlns:xlink="http://www.w3.org/1999/xlink">
    <!-- Generator: Sketch 52.1 (67048) - http://www.bohemiancoding.com/sketch -->
    <title>验证 (1)</title>
    <desc>Created with Sketch.</desc>
    <g id="1.4" stroke="none" stroke-width="1" fill="none" fill-rule="evenodd">
        <g id="文件验证_验证失败" transform="translate(-50.000000, -173.000000)" fill="#FFFFFF" fill-rule="nonzero">
            <g id="左侧导航条">
                <g id="验证-(1)" transform="translate(50.000000, 173.000000)">
                    <polygon id="Shape" points="10.6688067 14.9301135 1.07281543 14.9301135 1.07281543 8.53310158 6.40381649 8.53310158 6.40381649 7.46661735 1.07281543 7.46661735 1.07281543 5.33412226 8.53631158 5.33412226 8.53631158 4.2681114 1.07281543 4.2681114 1.07281543 1.06960545 10.6688067 1.06960545 10.6688067 2.66862175 11.7348175 2.66862175 11.7348175 0.00312122593 0.00680457367 0.00312122593 0.00680457367 15.9961244 11.7348175 15.9961244 11.7348175 5.33412226 10.6688067 5.33412226"></polygon>
                    <polygon id="Shape" points="4.49238138 10.7948245 3.73831596 11.5484165 6.00003884 13.8101394 6.75410424 13.0565473 10.5239579 9.28669363 9.76989253 8.53310158 6.00003884 12.3024819"></polygon>
                    <path d="M10.5911753,3.96752663 C10.5911753,4.30477201 10.8645667,4.57816341 11.2018121,4.57816341 C11.5390575,4.57816341 11.8124489,4.30477201 11.8124489,3.96752663 C11.8124489,3.63028125 11.5390575,3.35688985 11.2018121,3.35688985 C10.8645667,3.35688985 10.5911753,3.63028125 10.5911753,3.96752663 Z" id="Shape"></path>
                </g>
            </g>
        </g>
    </g>
</svg>