<?xml version="1.0" encoding="UTF-8"?>
<svg width="16px" height="16px" viewBox="0 0 16 16" version="1.1" xmlns="http://www.w3.org/2000/svg" xmlns:xlink="http://www.w3.org/1999/xlink">
    <!-- Generator: Sketch 52.1 (67048) - http://www.bohemiancoding.com/sketch -->
    <title>等待验证</title>
    <desc>Created with Sketch.</desc>
    <defs>
        <path d="M4,8 C1.79439844,8 0,6.2054375 0,4 C0,1.7945625 1.79439844,0 4,0 C6.20560156,0 8,1.7945625 8,4 C8,6.2054375 6.20575781,8 4,8 Z" id="path-1"></path>
        <filter x="-37.5%" y="-37.5%" width="175.0%" height="175.0%" filterUnits="objectBoundingBox" id="filter-2">
            <feMorphology radius="2" operator="erode" in="SourceAlpha" result="shadowSpreadInner1"></feMorphology>
            <feOffset dx="0" dy="0" in="shadowSpreadInner1" result="shadowOffsetInner1"></feOffset>
            <feComposite in="shadowOffsetInner1" in2="SourceAlpha" operator="arithmetic" k2="-1" k3="1" result="shadowInnerInner1"></feComposite>
            <feColorMatrix values="0 0 0 0 0.678431373   0 0 0 0 0.690196078   0 0 0 0 0.749019608  0 0 0 1 0" type="matrix" in="shadowInnerInner1"></feColorMatrix>
        </filter>
    </defs>
    <g id="1.4" stroke="none" stroke-width="1" fill="none" fill-rule="evenodd">
        <g id="文件验证_验证失败" transform="translate(-441.000000, -517.000000)" fill-rule="nonzero">
            <g id="Group-12" transform="translate(298.000000, 151.000000)">
                <g id="等待验证" transform="translate(143.000000, 366.000000)">
                    <path d="M8,16 C3.58879687,16 0,12.410875 0,8 C0,3.589125 3.58879687,0 8,0 C12.4112031,0 16,3.589125 16,8 C16,12.410875 12.4115156,16 8,16 Z" id="Shape" fill="#FFFFFF"></path>
                    <g id="321" transform="translate(4.000000, 4.000000)">
                        <g id="Shape">
                            <use fill="black" fill-opacity="1" filter="url(#filter-2)" xlink:href="#path-1"></use>
                            <path stroke="#FFFFFF" stroke-width="2" d="M4,9 C1.24216398,9 -1,6.75777254 -1,4 C-1,1.24222746 1.24216398,-1 4,-1 C6.75783602,-1 9,1.24222746 9,4 C9,6.75782044 6.75794438,9 4,9 Z"></path>
                        </g>
                    </g>
                </g>
            </g>
        </g>
    </g>
</svg>