<svg xmlns="http://www.w3.org/2000/svg" width="57" height="62" viewBox="0 0 57 62">
    <defs>
        <linearGradient id="a" x1="-13.158%" x2="115.519%" y1="49.838%" y2="49.838%">
            <stop offset="0%" stop-color="#4285F4"/>
            <stop offset="100%" stop-color="#0069FF" stop-opacity=".2"/>
        </linearGradient>
    </defs>
    <g fill="none" fill-rule="evenodd">
        <path fill="url(#a)" d="M16.548 39.637l2.119-1.14 8.148 4.562V31.815L25.185 31l-8.148-4.726v9.289l-1.793.978L8.4 32.63.252 37.193v9.452L8.4 51.207l8.148-4.562v-7.008zm24.934-3.096l-1.63-.978v-9.289l-9.778 5.54V43.06l8.148-4.563 2.119 1.141v7.008l8.148 4.562 8.148-4.562v-9.452L48.49 32.63l-7.007 3.91zM18.667 23.504l8.148-4.563V17.8l-6.519-3.748V4.763L28.444.037l8.149 4.726v9.289L30.074 17.8v1.14l8.148 4.564-8.148 4.563-1.63.977-9.777-5.54zM41.482 7.207l15.155 8.312v16.133l-5.704-3.26-.814-.488V19.43l-8.637-4.726V7.207zm-4.89 42.86l1.304.815 5.378 2.933-14.83 8.148-14.83-8.148 5.379-2.933 1.303-.815 8.148 4.4 8.149-4.4zM6.77 27.904l-.814.489-5.704 3.259V15.519l15.155-8.312v7.497L6.77 19.43v8.474z"/>
        <path fill="#120078" d="M46 40.248v3.219l2.5 1.247 2.5-1.247v-3.22L48.5 39zM6 40.248v3.219l2.5 1.247 2.5-1.247v-3.22L8.5 39zM26 8.248v3.219l2.5 1.247 2.5-1.247v-3.22L28.5 7z"/>
    </g>
</svg>
