<svg xmlns="http://www.w3.org/2000/svg" xmlns:xlink="http://www.w3.org/1999/xlink" width="64" height="74" viewBox="0 0 64 74">
    <defs>
        <linearGradient id="a" x1="73.272%" x2="31.029%" y1="89.814%" y2="5.23%">
            <stop offset="0%" stop-color="#0092FF"/>
            <stop offset="100%" stop-color="#00E7FF"/>
        </linearGradient>
        <linearGradient id="c" x1="5.519%" x2="50%" y1="96.006%" y2="56.424%">
            <stop offset="0%" stop-color="#0178FF"/>
            <stop offset="100%" stop-color="#0092FF"/>
        </linearGradient>
        <path id="b" d="M32.139 30.106l.032.053-.093.055L.602 12.047l-.025-.055V6.317l.047.027 26.523 15.371-.007-5.655-16.746-9.67-.025-.053V.723l21.709 12.534.06 16.849"/>
        <linearGradient id="e" x1="50%" x2="73.279%" y1="88.019%" y2="0%">
            <stop offset="0%" stop-color="#003CA2"/>
            <stop offset="100%" stop-color="#0178FF"/>
        </linearGradient>
        <path id="f" d="M9.892.433l-.055 30.653-9.736-5.62 4.861-2.811.034-.054V3.27L9.892.433"/>
        <path id="h" d="M12.299 6.904v25.067l-4.883-2.816-4.91-2.838 4.861-2.811h.035V9.728L.382 5.674V.053h.053L12.3 6.904"/>
        <path id="j" d="M.381.1L17.16 9.79l-4.904 2.817L5.274 8.58.407 11.39H.38V.1"/>
        <linearGradient id="m" x1="0%" x2="50%" y1="128.92%" y2="0%">
            <stop offset="0%" stop-color="#0178FF"/>
            <stop offset="100%" stop-color="#0092FF"/>
        </linearGradient>
        <path id="l" d="M9.572 19.488l-.135-8.085L4.87 8.955v18.693L.025 24.851 0 0h.06l14.55 8.328-.162 14.012z"/>
        <path id="n" d="M12.561 7.67v13.757L.63 14.534l.013-.02V.784l11.92 6.878v.007"/>
    </defs>
    <g fill="none" fill-rule="evenodd">
        <path fill="url(#a)" d="M32.104.588l4.917 2.837-.046.034L10.4 18.735l4.903 2.817 16.739-9.662h.06l4.872 2.81-21.712 12.534L.638 18.865H.577v-.11L32.043.588h.06"/>
        <g transform="translate(0 43.099)">
            <mask id="d" fill="#fff">
                <use xlink:href="#b"/>
            </mask>
            <path fill="url(#c)" d="M32.078 30.214L.602 12.047l-.025-5.73 26.57 15.398-.007-5.655-16.746-9.67L10.37.724l21.709 12.534.06 16.849z" mask="url(#d)"/>
        </g>
        <path fill="url(#a)" d="M27.14 59.16l.007 5.654L.624 49.444l9.745-5.622v5.614l.025.054 16.746 9.67"/>
        <path fill="url(#e)" d="M5.472 46.647v-19.38l4.897 2.84v8.06l4.868 2.812.014.02-9.78 5.648"/>
        <g transform="translate(48.791 26.835)">
            <mask id="g" fill="#fff">
                <use xlink:href="#f"/>
            </mask>
            <path fill="url(#c)" d="M9.892.433l-.055 30.653-9.736-5.62 4.861-2.811.034-.054V3.27L9.892.433" mask="url(#g)"/>
        </g>
        <g transform="translate(36.593 20.33)">
            <mask id="i" fill="#fff">
                <use xlink:href="#h"/>
            </mask>
            <path fill="url(#c)" d="M12.299 6.904v25.067l-4.883-2.816-4.91-2.838 4.861-2.811h.035V9.728L.382 5.674V.053h.053L12.3 6.904" mask="url(#i)"/>
        </g>
        <path fill="url(#e)" d="M36.975 14.7l-4.871-2.81h-.061l-16.739 9.662-4.903-2.817L36.975 3.459V14.7"/>
        <g transform="translate(36.593 8.945)">
            <mask id="k" fill="#fff">
                <use xlink:href="#j"/>
            </mask>
            <path fill="url(#c)" d="M.381.1L17.16 9.79l-4.904 2.817L5.274 8.58.407 11.39H.38V.1" mask="url(#k)"/>
        </g>
        <path fill="url(#e)" d="M63.578 55.091l-4.95 2.892.056-30.715-4.897 2.839v19.33L48.892 52.3V27.234l14.557-8.48h.122z"/>
        <path fill="url(#a)" d="M37 20.335l4.868-2.81 6.982 4.027 4.903-2.817-16.778-9.69 4.86-2.809.02-.02L63.48 18.7l-.032.054-14.557 8.479-11.864-6.851h-.053v-.048H37"/>
        <path fill="url(#e)" d="M36.975 26.003l-4.864-2.81-.021-.02-11.931 6.885v8.109l-4.868 2.812-.028-.049V27.234L36.975 14.7v11.303"/>
        <path fill="url(#a)" d="M53.787 55.125l-16.78 9.69.008-5.656 6.98-4.027v-5.62l.015-.027 9.777 5.64"/>
        <use fill="url(#m)" transform="translate(.813 18.703)" xlink:href="#l"/>
        <path fill="url(#e)" d="M53.787 60.745l.013.028L32.17 73.258l-.032-.053-.061-16.849 11.86-6.852.057.008v5.62l-6.98 4.027-.008 5.655 16.78-9.689v5.62"/>
        <path fill="url(#a)" d="M39.1 46.647l4.91 2.838-.015.027-.056-.008-11.861 6.852-21.71-12.534 9.79-5.655v5.621l-.013.02 11.933 6.893 7.022-4.054"/>
        <g transform="translate(19.516 29.275)">
            <mask id="o" fill="#fff">
                <use xlink:href="#n"/>
            </mask>
            <path fill="url(#c)" d="M12.561 7.67v13.757L.63 14.534l.013-.02V.784l11.92 6.878v.007" mask="url(#o)"/>
        </g>
        <path fill="url(#e)" d="M43.995 30.058v13.778h-.034L32.078 50.7V36.944l11.917-6.886"/>
        <path fill="url(#a)" d="M43.995 30.058l-11.917 6.886v-.007l-11.92-6.88 11.932-6.884.021.02 11.884 6.865"/>
    </g>
</svg>
