<svg xmlns="http://www.w3.org/2000/svg" width="84" height="24" viewBox="0 0 84 24">
    <defs>
        <linearGradient id="a" x1="57.975%" x2="38.988%" y1="36.722%" y2="68.324%">
            <stop offset="0%" stop-color="#0FF" stop-opacity=".1"/>
            <stop offset="100%" stop-color="#0FF" stop-opacity="0"/>
        </linearGradient>
        <linearGradient id="b" x1="50%" x2="50%" y1="0%" y2="100%">
            <stop offset="0%" stop-color="#2A39DD"/>
            <stop offset="100%" stop-color="#4B94EF"/>
        </linearGradient>
    </defs>
    <g fill="none" fill-rule="evenodd">
        <path fill="url(#a)" fill-rule="nonzero" d="M4.194 11.375v2.58l-4.022-2.37V9.007z" transform="translate(75.595 -1.98)"/>
        <path fill="url(#a)" fill-rule="nonzero" d="M8.263 11.514v2.612l-4.074-2.4V9.115z" transform="matrix(-1 0 0 1 88.047 -1.98)"/>
        <path fill="url(#b)" fill-rule="nonzero" d="M8.087 2.449a.383.383 0 0 0-.012-.093c-.004-.013-.01-.024-.015-.037-.008-.019-.014-.038-.024-.055-.007-.013-.017-.022-.025-.034-.011-.015-.022-.032-.035-.046-.01-.01-.023-.017-.034-.025-.014-.012-.028-.026-.045-.035l-.002-.001-.002-.002L4.233.05a.385.385 0 0 0-.379 0l-1.77 1.003h-.001L.195 2.122l-.001.002H.19c-.016.01-.03.023-.044.035-.011.009-.024.016-.034.026-.014.014-.025.031-.037.047-.007.011-.017.02-.024.032-.01.02-.018.04-.025.06-.004.012-.01.022-.013.033a.375.375 0 0 0-.012.09L0 2.455v4.335c0 .14.075.267.195.336l3.66 2.071c.02.011.04.018.06.025.011.004.02.01.03.012a.378.378 0 0 0 .198 0c.01-.002.02-.008.03-.012.02-.007.041-.014.06-.025l3.66-2.07a.386.386 0 0 0 .195-.336V2.456 2.45z" transform="translate(75.743 .445)"/>
        <path fill="#75ACFF" d="M75.957 2.552L79.52.516a.616.616 0 0 1 .19-.085.333.333 0 0 1 .141 0c.047.01.088.025.19.084l3.568 2.023a.376.376 0 0 1 .002.653l-3.548 2.05a.614.614 0 0 1-.19.084.333.333 0 0 1-.142 0 .614.614 0 0 1-.19-.083l-3.583-2.037a.376.376 0 0 1-.001-.653z"/>
        <g>
            <path fill="url(#a)" fill-rule="nonzero" d="M2.259 6.025v1.29L.093 6.128V4.84z" transform="translate(.176 16.5)"/>
            <path fill="url(#a)" fill-rule="nonzero" d="M4.449 6.094V7.4L2.255 6.2V4.894z" transform="matrix(-1 0 0 1 6.88 16.5)"/>
            <path fill="url(#b)" fill-rule="nonzero" d="M4.355 1.224a.179.179 0 0 0-.007-.046c-.002-.007-.006-.012-.008-.018-.004-.01-.007-.02-.013-.028-.003-.006-.009-.011-.013-.017-.007-.008-.012-.016-.02-.023l-.017-.013-.025-.017h-.001L4.25 1.06 2.28.025a.221.221 0 0 0-.205 0l-.953.502-1.017.534H.102c-.009.005-.016.012-.024.018-.006.004-.013.008-.018.013-.008.007-.014.016-.02.024-.004.005-.01.01-.013.016-.006.01-.01.02-.013.03l-.008.016a.175.175 0 0 0-.006.045L0 1.228v2.168c0 .07.04.133.105.167L2.075 4.6c.011.006.022.009.034.012l.016.007a.218.218 0 0 0 .106 0c.005-.002.01-.005.016-.006.01-.004.022-.007.033-.013l1.97-1.035a.19.19 0 0 0 .105-.168V1.228v-.004z" transform="translate(.255 18.048)"/>
            <path fill="#75ACFF" d="M.43 19.181l1.919-1.143c.05-.03.07-.038.094-.044a.166.166 0 0 1 .07-.001.308.308 0 0 1 .096.04l1.815.983a.188.188 0 0 1 .008.326l-1.911 1.15a.307.307 0 0 1-.095.044.167.167 0 0 1-.07.002.307.307 0 0 1-.096-.04l-1.823-.99a.188.188 0 0 1-.007-.327z"/>
        </g>
    </g>
</svg>
