<svg xmlns="http://www.w3.org/2000/svg" width="64" height="65" viewBox="0 0 64 65">
    <defs>
        <linearGradient id="a" x1="-13.158%" x2="115.519%" y1="49.838%" y2="49.838%">
            <stop offset="0%" stop-color="#4285F4"/>
            <stop offset="100%" stop-color="#0069FF" stop-opacity=".2"/>
        </linearGradient>
    </defs>
    <g fill="none" fill-rule="evenodd">
        <path fill="url(#a)" d="M62.933 51.325c.589 0 1.067-.478 1.067-1.067v-8.533c0-.589-.478-1.067-1.067-1.067h-25.6c-.588 0-1.066.478-1.066 1.067v8.533c0 .59.478 1.067 1.066 1.067H38.4v2.133h-1.067c-.588 0-1.066.478-1.066 1.067v8.533c0 .589.478 1.067 1.066 1.067h25.6c.589 0 1.067-.478 1.067-1.067v-8.533c0-.589-.478-1.067-1.067-1.067h-1.066v-2.133h1.066zm-7.466-6.4H57.6a1.067 1.067 0 0 1 0 2.133h-2.133a1.067 1.067 0 0 1 0-2.133zm-6.4 0H51.2a1.067 1.067 0 0 1 0 2.133h-2.133a1.067 1.067 0 0 1 0-2.133zm-6.4 0H44.8a1.067 1.067 0 0 1 0 2.133h-2.133a1.067 1.067 0 0 1 0-2.133zm3.2 14.933H41.6a1.067 1.067 0 0 1 0-2.133h4.267a1.067 1.067 0 0 1 0 2.133zm12.8 0h-8.534a1.067 1.067 0 0 1 0-2.133h8.534a1.067 1.067 0 0 1 0 2.133zm1.066-6.4h-19.2v-2.133h19.2v2.133z"/>
        <path fill="#120078" fill-rule="nonzero" d="M49.067 35.325v2.133a1.067 1.067 0 0 0 2.133 0v-2.133a4.271 4.271 0 0 0-4.267-4.267H33.067v-2.133a1.067 1.067 0 0 0-2.134 0v2.133H17.067a4.271 4.271 0 0 0-4.267 4.267v2.133a1.067 1.067 0 0 0 2.133 0v-2.133c0-1.177.957-2.133 2.134-2.133h29.866c1.177 0 2.134.956 2.134 2.133z"/>
        <path fill="url(#a)" d="M31.554 25.628a1.063 1.063 0 0 0 .89 0c9.008-4.142 10.222-11.981 10.222-19.103 0-.387-.21-.745-.549-.932l-9.6-5.334a1.065 1.065 0 0 0-1.036 0l-9.6 5.334c-.339.187-.55.545-.55.932.002 7.122 1.216 14.96 10.223 19.103zM26.19 7.704l4.267-2.134a1.066 1.066 0 1 1 .954 1.909L27.79 9.29a16.386 16.386 0 0 0 1.946 6.319 1.065 1.065 0 1 1-1.866 1.03c-1.33-2.408-2.09-5.07-2.265-7.917a1.061 1.061 0 0 1 .586-1.018zM26.667 40.658h-25.6c-.589 0-1.067.478-1.067 1.067v8.533c0 .59.478 1.067 1.067 1.067h1.066v2.133H1.067c-.589 0-1.067.478-1.067 1.067v8.533c0 .589.478 1.067 1.067 1.067h25.6c.588 0 1.066-.478 1.066-1.067v-8.533c0-.589-.478-1.067-1.066-1.067H25.6v-2.133h1.067c.588 0 1.066-.478 1.066-1.067v-8.533c0-.589-.478-1.067-1.066-1.067zM19.2 44.925h2.133a1.067 1.067 0 0 1 0 2.133H19.2a1.067 1.067 0 0 1 0-2.133zm-6.4 0h2.133a1.067 1.067 0 0 1 0 2.133H12.8a1.067 1.067 0 0 1 0-2.133zm-6.4 0h2.133a1.067 1.067 0 0 1 0 2.133H6.4a1.067 1.067 0 0 1 0-2.133zm3.2 14.933H5.333a1.067 1.067 0 0 1 0-2.133H9.6a1.067 1.067 0 0 1 0 2.133zm12.8 0h-8.533a1.067 1.067 0 0 1 0-2.133H22.4a1.067 1.067 0 0 1 0 2.133zm1.067-6.4h-19.2v-2.133h19.2v2.133z"/>
    </g>
</svg>
