<svg xmlns="http://www.w3.org/2000/svg" width="110" height="58" viewBox="0 0 110 58">
    <defs>
        <linearGradient id="a" x1="57.975%" x2="38.988%" y1="36.722%" y2="68.324%">
            <stop offset="0%" stop-color="#0FF" stop-opacity=".1"/>
            <stop offset="100%" stop-color="#0FF" stop-opacity="0"/>
        </linearGradient>
        <linearGradient id="b" x1="50%" x2="50%" y1="0%" y2="100%">
            <stop offset="0%" stop-color="#2A39DD"/>
            <stop offset="100%" stop-color="#4B94EF"/>
        </linearGradient>
        <linearGradient id="c" x1="50%" x2="50%" y1="0%" y2="100%">
            <stop offset="0%" stop-color="#8271FF"/>
            <stop offset="100%" stop-color="#C0A0FF"/>
        </linearGradient>
    </defs>
    <g fill="none" fill-rule="nonzero">
        <path fill="url(#a)" d="M5.807 12.427v3.493L.318 12.71V9.22z" transform="translate(98 42)"/>
        <path fill="url(#a)" d="M11.358 12.614v3.537l-5.56-3.249V9.365z" transform="matrix(-1 0 0 1 115.157 42)"/>
        <path fill="url(#b)" d="M11.322 3.62a.515.515 0 0 0-.019-.126c-.004-.018-.013-.033-.02-.05-.009-.025-.018-.051-.032-.075-.01-.016-.023-.03-.034-.045-.015-.02-.03-.043-.048-.062-.014-.013-.032-.023-.046-.035-.02-.017-.039-.034-.062-.048h-.003c0-.001-.001-.002-.003-.002L6.062.37a.528.528 0 0 0-.517 0L3.127 1.73.55 3.175l-.003.003H.545c-.023.013-.04.03-.06.046-.016.013-.033.023-.046.037-.02.019-.035.042-.05.064-.011.014-.025.027-.033.043-.016.026-.025.054-.035.082-.006.014-.014.028-.019.043a.504.504 0 0 0-.015.12l-.002.017v5.871a.52.52 0 0 0 .267.455l4.993 2.805c.027.015.055.024.083.034.014.005.028.013.042.017a.52.52 0 0 0 .268 0c.014-.004.028-.012.04-.017.029-.01.057-.018.085-.034l4.993-2.804a.522.522 0 0 0 .266-.455V3.62z" transform="translate(98 42)"/>
        <path fill="#75ACFF" d="M98.588 45.164l4.857-2.77a.842.842 0 0 1 .26-.114.457.457 0 0 1 .192 0c.064.013.119.033.26.113l4.85 2.734a.51.51 0 0 1 .005.888l-4.837 2.787a.84.84 0 0 1-.26.116.457.457 0 0 1-.193 0 .84.84 0 0 1-.261-.113l-4.873-2.753a.51.51 0 0 1-.001-.888z"/>
        <g>
            <path fill="url(#a)" d="M10.084 21.26v6.096l-9.67-5.6v-6.093z" transform="translate(0 .685)"/>
            <path fill="url(#a)" d="M19.864 21.603v6.173l-9.794-5.672v-6.17z" transform="matrix(-1 0 0 1 29.935 .685)"/>
            <path fill="url(#c)" d="M19.8 5.893a.89.89 0 0 0-.03-.22c-.01-.03-.026-.058-.037-.087-.018-.044-.032-.09-.056-.131-.017-.029-.041-.052-.061-.079-.028-.036-.052-.076-.085-.109-.024-.022-.055-.04-.08-.06-.036-.028-.069-.06-.11-.083l-.005-.003-.004-.002L10.534.223a.939.939 0 0 0-.912 0L5.364 2.595.825 5.118.82 5.12l-.005.003c-.04.022-.072.053-.106.08-.028.022-.058.039-.083.063-.034.034-.06.074-.087.112-.02.025-.043.048-.059.076-.026.044-.043.094-.06.142-.01.026-.025.05-.032.076a.872.872 0 0 0-.029.212c0 .009-.004.016-.004.025v10.246c0 .328.18.631.47.793l8.796 4.895c.048.026.098.042.149.058.024.01.046.023.071.03a.924.924 0 0 0 .473 0c.025-.007.048-.02.072-.029.05-.017.1-.033.147-.058l8.798-4.896c.289-.16.469-.463.47-.792V5.91l-.003-.018z" transform="translate(0 .685)"/>
            <path fill="#8271FF" d="M.875 5.855L9.503.91c.237-.135.33-.17.437-.193a.77.77 0 0 1 .323-.002c.11.022.202.056.44.19l8.552 4.793a.86.86 0 0 1 .01 1.495l-8.59 4.978c-.237.137-.33.173-.439.196a.77.77 0 0 1-.324.003c-.11-.023-.202-.058-.441-.192L.881 7.351a.86.86 0 0 1-.006-1.496z"/>
        </g>
    </g>
</svg>
