<svg xmlns="http://www.w3.org/2000/svg" width="60" height="52" viewBox="0 0 60 52">
    <defs>
        <linearGradient id="a" x1="45.101%" x2="59.441%" y1="14.338%" y2="93.297%">
            <stop offset="0%" stop-color="#84BAF5"/>
            <stop offset="100%" stop-color="#DBEBFA"/>
        </linearGradient>
        <linearGradient id="b" x1="45.101%" x2="59.441%" y1="14.338%" y2="93.297%">
            <stop offset="0%" stop-color="#75ACFF"/>
            <stop offset="100%" stop-color="#9AA2FF"/>
        </linearGradient>
    </defs>
    <g fill="none" fill-rule="nonzero">
        <path fill="url(#a)" d="M16.011 25.27l23.142 6.497c.776.217 1.379.827 1.585 1.603l6.366 23.873a2.264 2.264 0 0 1-.599 2.196 2.287 2.287 0 0 1-2.21.577L21.213 53.7a2.276 2.276 0 0 1-1.6-1.606L13.189 28.04c-.211-.789.02-1.63.603-2.202a2.287 2.287 0 0 1 2.22-.568z" opacity=".6" transform="rotate(-45 15.16 37.848)"/>
        <path fill="url(#a)" d="M19.414 40.44l17.562 4.787a1.707 1.707 0 0 1 1.198 1.193l4.805 17.487a1.698 1.698 0 0 1-.436 1.65 1.715 1.715 0 0 1-1.654.446L23.372 61.35a1.707 1.707 0 0 1-1.21-1.195l-4.849-17.62a1.698 1.698 0 0 1 .44-1.656c.435-.433 1.07-.6 1.662-.438z" opacity=".4" transform="rotate(-45 15.16 48.427)"/>
        <path fill="url(#b)" d="M12.598 9.154l29.5 8.038a2.845 2.845 0 0 1 1.996 1.985l8.136 29.44a2.83 2.83 0 0 1-.726 2.756 2.86 2.86 0 0 1-2.763.74l-29.49-7.886a2.845 2.845 0 0 1-2.01-1.992L9.095 12.643a2.83 2.83 0 0 1 .733-2.757 2.86 2.86 0 0 1 2.769-.732z" transform="rotate(-45 15.678 25.84)"/>
    </g>
</svg>
