<svg xmlns="http://www.w3.org/2000/svg" width="73" height="84" viewBox="0 0 73 84">
    <defs>
        <linearGradient id="a" x1="50%" x2="73.279%" y1="88.019%" y2="0%">
            <stop offset="0%" stop-color="#003CA2"/>
            <stop offset="100%" stop-color="#0178FF"/>
        </linearGradient>
        <linearGradient id="b" x1="5.519%" x2="50%" y1="96.006%" y2="56.424%">
            <stop offset="0%" stop-color="#0178FF"/>
            <stop offset="100%" stop-color="#0092FF"/>
        </linearGradient>
        <linearGradient id="c" x1="73.272%" x2="31.029%" y1="89.814%" y2="5.23%">
            <stop offset="0%" stop-color="#0092FF"/>
            <stop offset="100%" stop-color="#00E7FF"/>
        </linearGradient>
    </defs>
    <g fill="none" fill-rule="evenodd">
        <path fill="url(#a)" d="M30.384 28.012v-7.428c-5.443 1.628-10.02 5.323-12.82 10.158A21.988 21.988 0 0 0 14.6 41.791v.315h-.022v28.66h.01l7.035-4.058V57.96l.012-.007 6.317-3.783a15.147 15.147 0 0 1-6.398-12.378c0-2.763.739-5.352 2.034-7.582a15.152 15.152 0 0 1 6.796-6.197M49.84 34.21a15.02 15.02 0 0 1 2.033 7.58c0 .48-.027.948-.076 1.41-.7 7.712-7.19 13.756-15.088 13.756V41.79l13.13-7.582M72.87 46.473v16.193L36.71 83.54V63.905c4.14 0 8.01-1.143 11.325-3.126l.016.024 24.82-14.33M65.83 42.399l-7.575 4.373c.373-1.602.566-3.273.566-4.981 0-4.026-1.077-7.8-2.961-11.057l17.01-9.816v17.415l-7.04 4.066"/>
        <path fill="url(#b)" d="M55.86 30.734a22.193 22.193 0 0 0-8.44-8.296l.006-.016-24.739-14.28h-.008v8.07l7.705 4.372v7.428a15.024 15.024 0 0 1 6.325-1.385 15.131 15.131 0 0 1 13.13 7.582 15.02 15.02 0 0 1 2.034 7.582c0 .479-.027.947-.076 1.41l6.33 3.646.128-.075c.373-1.602.566-3.273.566-4.981 0-4.026-1.077-7.8-2.961-11.057M27.952 54.169a15.147 15.147 0 0 1-6.398-12.378c0-2.763.739-5.352 2.034-7.582l13.12 7.582v15.165a15.049 15.049 0 0 1-8.756-2.787M21.635 57.952a22.003 22.003 0 0 0 15.074 5.953v19.636l-15.086-8.708V57.959l.012-.007M14.6 41.79v.316h-.022v28.66l-14.022-8.1V20.918l17.008 9.824A21.988 21.988 0 0 0 14.6 41.791"/>
        <path fill="url(#c)" d="M65.83 42.399l-7.704 4.448-6.329-3.647c-.7 7.712-7.19 13.756-15.088 13.756a15.049 15.049 0 0 1-8.757-2.787l-6.317 3.783a22.003 22.003 0 0 0 15.074 5.953c4.14 0 8.01-1.143 11.325-3.126l.016.024 24.82-14.33v-.016l-7.04-4.058M30.384 28.012a15.024 15.024 0 0 1 6.325-1.385 15.131 15.131 0 0 1 13.13 7.582l-13.13 7.582-13.12-7.582a15.152 15.152 0 0 1 6.795-6.197M22.68 16.212l7.704 4.372c-5.443 1.628-10.02 5.323-12.82 10.158L.556 20.918l15.086-8.71 7.037 4.004M47.426 22.422L22.687 8.142 36.71.041 72.87 20.917 55.86 30.734a22.193 22.193 0 0 0-8.44-8.296l.006-.016"/>
    </g>
</svg>
