<?xml version="1.0" encoding="UTF-8"?>
<svg width="398px" height="70px" viewBox="0 0 398 70" version="1.1" xmlns="http://www.w3.org/2000/svg" xmlns:xlink="http://www.w3.org/1999/xlink">
    <!-- Generator: Sketch 49.3 (51167) - http://www.bohemiancoding.com/sketch -->
    <title>Group</title>
    <desc>Created with Sketch.</desc>
    <defs>
        <linearGradient x1="94.3160752%" y1="94.1258286%" x2="11.2946429%" y2="8.54964718%" id="linearGradient-1">
            <stop stop-color="#006DB1" offset="0%"></stop>
            <stop stop-color="#57BEFF" offset="100%"></stop>
        </linearGradient>
    </defs>
    <g id="Page-1" stroke="none" stroke-width="1" fill="none" fill-rule="evenodd">
        <g id="1440px-信息少" transform="translate(-939.000000, -361.000000)">
            <g id="Group" transform="translate(939.000000, 361.000000)">
                <circle id="Oval-24" fill="#FFFFFF" cx="356.5" cy="15.5" r="15.5"></circle>
                <path d="M27.523455,62 C28.3469844,62 29.0454207,62.2264151 29.6083395,62.6792453 C30.1712584,63.1320755 30.5048399,63.7466307 30.6090841,64.5121294 L29.7855547,64.5121294 C29.6813105,63.9514825 29.4102755,63.5202156 28.9932986,63.2183288 C28.5867461,62.9272237 28.0967982,62.787062 27.5130305,62.787062 C26.6478034,62.787062 25.9806404,63.0997305 25.5115413,63.7250674 C25.0737156,64.3072776 24.8548027,65.0727763 24.8548027,66.032345 C24.8548027,66.9919137 25.0632911,67.7574124 25.5011169,68.3180593 C25.9597915,68.9110512 26.6165302,69.212938 27.4921817,69.212938 C28.0863738,69.212938 28.5867461,69.0512129 29.003723,68.7277628 C29.4415488,68.3827493 29.743857,67.8760108 29.889799,67.2075472 L30.7133284,67.2075472 C30.5465376,68.1024259 30.160834,68.8032345 29.545793,69.2991914 C28.9724497,69.7628032 28.2844378,70 27.4921817,70 C26.3350707,70 25.4489948,69.6010782 24.8339538,68.8140162 C24.271035,68.1024259 24,67.1752022 24,66.032345 C24,64.8894879 24.2814594,63.9514825 24.8548027,63.2183288 C25.4802681,62.3989218 26.3767684,62 27.523455,62 Z M34.080417,62.1509434 L35.0707372,62.1509434 L38,69.8490566 L37.0722264,69.8490566 L36.2799702,67.6927224 L32.8607595,67.6927224 L32.0685034,69.8490566 L31.1511541,69.8490566 L34.080417,62.1509434 Z M33.1317945,66.9487871 L36.0089352,66.9487871 L34.6016381,63.0997305 L34.5599404,63.0997305 L33.1317945,66.9487871 Z" id="CA-Copy" fill="#666666"></path>
                <path d="M192,62 L195.14902,62 C196.917647,62 197.801961,62.7692308 197.801961,64.3076923 C197.801961,65.8571429 196.906863,66.6373626 195.138235,66.6373626 L192.884314,66.6373626 L192.884314,69.8461538 L192,69.8461538 L192,62 Z M192.884314,62.7802198 L192.884314,65.8571429 L195.095098,65.8571429 C195.720588,65.8571429 196.173529,65.7252747 196.47549,65.4725275 C196.766667,65.2197802 196.917647,64.8351648 196.917647,64.3076923 C196.917647,63.7802198 196.766667,63.3956044 196.464706,63.1648352 C196.162745,62.9010989 195.709804,62.7802198 195.095098,62.7802198 L192.884314,62.7802198 Z M201.112745,64.010989 C202.007843,64.010989 202.687255,64.3186813 203.140196,64.9340659 C203.55,65.4835165 203.765686,66.2637363 203.787255,67.2527473 L199.387255,67.2527473 C199.430392,67.8901099 199.592157,68.3846154 199.894118,68.7362637 C200.196078,69.0879121 200.616667,69.2637363 201.145098,69.2637363 C201.598039,69.2637363 201.97549,69.1428571 202.255882,68.9120879 C202.493137,68.7142857 202.676471,68.4175824 202.816667,68.021978 L203.679412,68.021978 C203.55,68.5714286 203.301961,69.010989 202.92451,69.3626374 C202.460784,69.7802198 201.867647,70 201.145098,70 C200.347059,70 199.7,69.7252747 199.22549,69.1978022 C198.729412,68.6483516 198.492157,67.9230769 198.492157,67 C198.492157,66.1648352 198.718627,65.4615385 199.193137,64.9010989 C199.667647,64.3076923 200.303922,64.010989 201.112745,64.010989 Z M201.134314,64.7472527 C200.638235,64.7472527 200.239216,64.9120879 199.937255,65.2417582 C199.635294,65.5714286 199.462745,66.010989 199.408824,66.5714286 L202.892157,66.5714286 C202.784314,65.3516484 202.191176,64.7472527 201.134314,64.7472527 Z M207.098039,64.010989 C207.993137,64.010989 208.672549,64.3186813 209.12549,64.9340659 C209.535294,65.4835165 209.75098,66.2637363 209.772549,67.2527473 L205.372549,67.2527473 C205.415686,67.8901099 205.577451,68.3846154 205.879412,68.7362637 C206.181373,69.0879121 206.601961,69.2637363 207.130392,69.2637363 C207.583333,69.2637363 207.960784,69.1428571 208.241176,68.9120879 C208.478431,68.7142857 208.661765,68.4175824 208.801961,68.021978 L209.664706,68.021978 C209.535294,68.5714286 209.287255,69.010989 208.909804,69.3626374 C208.446078,69.7802198 207.852941,70 207.130392,70 C206.332353,70 205.685294,69.7252747 205.210784,69.1978022 C204.714706,68.6483516 204.477451,67.9230769 204.477451,67 C204.477451,66.1648352 204.703922,65.4615385 205.178431,64.9010989 C205.652941,64.3076923 206.289216,64.010989 207.098039,64.010989 Z M207.119608,64.7472527 C206.623529,64.7472527 206.22451,64.9120879 205.922549,65.2417582 C205.620588,65.5714286 205.448039,66.010989 205.394118,66.5714286 L208.877451,66.5714286 C208.769608,65.3516484 208.176471,64.7472527 207.119608,64.7472527 Z M213.234314,64.010989 C213.536275,64.010989 213.795098,64.0549451 214,64.1428571 L214,65.021978 C213.719608,64.9340659 213.439216,64.9010989 213.169608,64.9010989 C212.738235,64.9010989 212.371569,65.0879121 212.080392,65.4835165 C211.778431,65.8571429 211.638235,66.3076923 211.638235,66.8351648 L211.638235,69.8461538 L210.786275,69.8461538 L210.786275,64.1648352 L211.638235,64.1648352 L211.638235,65.1538462 C211.789216,64.8241758 211.983333,64.5604396 212.220588,64.3736264 C212.511765,64.1318681 212.846078,64.010989 213.234314,64.010989 Z" id="Peer-Copy" fill="#666666"></path>
                <path d="M355.604101,62 C356.721162,62 357.616918,62.3773585 358.270293,63.1536388 C358.881515,63.8867925 359.197664,64.8355795 359.197664,66.0107817 C359.197664,67.1752022 358.881515,68.1132075 358.270293,68.8463612 C357.616918,69.6118598 356.721162,70 355.593563,70 C354.465964,70 353.580746,69.6118598 352.927371,68.8463612 C352.305611,68.1132075 352,67.1644205 352,66.0107817 C352,64.8463612 352.305611,63.8975741 352.927371,63.1644205 C353.580746,62.3881402 354.465964,62 355.604101,62 Z M355.604101,62.787062 C354.73996,62.787062 354.05497,63.0889488 353.55967,63.703504 C353.095984,64.2857143 352.864141,65.0512129 352.864141,66.0107817 C352.864141,66.9595687 353.095984,67.7250674 353.55967,68.3072776 C354.044432,68.9110512 354.729422,69.212938 355.593563,69.212938 C356.457704,69.212938 357.142694,68.9110512 357.627457,68.328841 C358.091142,67.7466307 358.333523,66.9811321 358.333523,66.0107817 C358.333523,65.0296496 358.091142,64.2533693 357.627457,63.671159 C357.142694,63.0781671 356.468243,62.787062 355.604101,62.787062 Z M362.685844,64.1239892 C362.980917,64.1239892 363.233837,64.1671159 363.434064,64.2533693 L363.434064,65.115903 C363.160068,65.0296496 362.886072,64.9973046 362.622615,64.9973046 C362.201082,64.9973046 361.84278,65.180593 361.558246,65.5687332 C361.263173,65.93531 361.126175,66.3773585 361.126175,66.8948787 L361.126175,69.8490566 L360.293649,69.8490566 L360.293649,64.2749326 L361.126175,64.2749326 L361.126175,65.245283 C361.273711,64.9218329 361.463401,64.6630728 361.695244,64.4797844 C361.979778,64.2425876 362.306465,64.1239892 362.685844,64.1239892 Z M368.165765,62 L369.008829,62 L369.008829,69.8490566 L368.218456,69.8490566 L368.218456,68.9326146 C367.839077,69.6442049 367.227855,70 366.405867,70 C365.604956,70 364.983196,69.6981132 364.540587,69.115903 C364.129593,68.5768194 363.929365,67.8867925 363.929365,67.0458221 C363.929365,66.2264151 364.129593,65.5579515 364.540587,65.0188679 C364.983196,64.4150943 365.583879,64.1239892 366.363714,64.1239892 C367.143549,64.1239892 367.744232,64.5121294 368.165765,65.2991914 L368.165765,62 Z M366.542865,64.8355795 C365.942182,64.8355795 365.489034,65.0512129 365.193962,65.4824798 C364.919966,65.8598383 364.793506,66.3773585 364.793506,67.0458221 C364.793506,67.7142857 364.919966,68.2425876 365.183424,68.6307278 C365.478496,69.0619946 365.921105,69.2884097 366.51125,69.2884097 C367.059242,69.2884097 367.480775,69.0727763 367.786386,68.6415094 C368.049843,68.2533693 368.186841,67.7466307 368.186841,67.1212938 L368.186841,67.0134771 C368.186841,66.3665768 368.028767,65.8382749 367.733694,65.4393531 C367.428083,65.0296496 367.027627,64.8355795 366.542865,64.8355795 Z M372.560239,64.1239892 C373.434919,64.1239892 374.098832,64.425876 374.541441,65.0296496 C374.941897,65.5687332 375.152663,66.3342318 375.17374,67.3045822 L370.87411,67.3045822 C370.916263,67.9299191 371.074338,68.4150943 371.36941,68.7601078 C371.664483,69.1051213 372.075477,69.277628 372.591854,69.277628 C373.034463,69.277628 373.403304,69.1590296 373.6773,68.9326146 C373.909143,68.7385445 374.088294,68.4474394 374.225292,68.0592992 L375.068357,68.0592992 C374.941897,68.5983827 374.699516,69.0296496 374.330675,69.3746631 C373.877528,69.7843666 373.297921,70 372.591854,70 C371.812019,70 371.179721,69.7304582 370.716035,69.212938 C370.231273,68.6738544 369.99943,67.9622642 369.99943,67.0566038 C369.99943,66.2371968 370.220735,65.5471698 370.68442,64.9973046 C371.148106,64.4150943 371.769866,64.1239892 372.560239,64.1239892 Z M372.581316,64.8463612 C372.096554,64.8463612 371.706636,65.0080863 371.411564,65.3315364 C371.116491,65.6549865 370.947878,66.0862534 370.895187,66.6361186 L374.29906,66.6361186 C374.193677,65.4393531 373.61407,64.8463612 372.581316,64.8463612 Z M378.556537,64.1239892 C378.851609,64.1239892 379.104529,64.1671159 379.304756,64.2533693 L379.304756,65.115903 C379.03076,65.0296496 378.756764,64.9973046 378.493307,64.9973046 C378.071774,64.9973046 377.713472,65.180593 377.428938,65.5687332 C377.133865,65.93531 376.996867,66.3773585 376.996867,66.8948787 L376.996867,69.8490566 L376.164341,69.8490566 L376.164341,64.2749326 L376.996867,64.2749326 L376.996867,65.245283 C377.144403,64.9218329 377.334093,64.6630728 377.565936,64.4797844 C377.85047,64.2425876 378.177158,64.1239892 378.556537,64.1239892 Z M382.255483,64.1239892 C383.130162,64.1239892 383.794076,64.425876 384.236685,65.0296496 C384.63714,65.5687332 384.847907,66.3342318 384.868983,67.3045822 L380.569353,67.3045822 C380.611507,67.9299191 380.769581,68.4150943 381.064654,68.7601078 C381.359727,69.1051213 381.770721,69.277628 382.287098,69.277628 C382.729707,69.277628 383.098547,69.1590296 383.372543,68.9326146 C383.604386,68.7385445 383.783537,68.4474394 383.920535,68.0592992 L384.7636,68.0592992 C384.63714,68.5983827 384.394759,69.0296496 384.025919,69.3746631 C383.572771,69.7843666 382.993164,70 382.287098,70 C381.507263,70 380.874964,69.7304582 380.411279,69.212938 C379.926517,68.6738544 379.694674,67.9622642 379.694674,67.0566038 C379.694674,66.2371968 379.915978,65.5471698 380.379664,64.9973046 C380.843349,64.4150943 381.46511,64.1239892 382.255483,64.1239892 Z M382.276559,64.8463612 C381.791797,64.8463612 381.40188,65.0080863 381.106807,65.3315364 C380.811735,65.6549865 380.643122,66.0862534 380.59043,66.6361186 L383.994304,66.6361186 C383.888921,65.4393531 383.309314,64.8463612 382.276559,64.8463612 Z M388.25178,64.1239892 C388.546853,64.1239892 388.799772,64.1671159 389,64.2533693 L389,65.115903 C388.726004,65.0296496 388.452008,64.9973046 388.18855,64.9973046 C387.767018,64.9973046 387.408715,65.180593 387.124181,65.5687332 C386.829109,65.93531 386.692111,66.3773585 386.692111,66.8948787 L386.692111,69.8490566 L385.859584,69.8490566 L385.859584,64.2749326 L386.692111,64.2749326 L386.692111,65.245283 C386.839647,64.9218329 387.029336,64.6630728 387.261179,64.4797844 C387.545713,64.2425876 387.872401,64.1239892 388.25178,64.1239892 Z" id="Orderer-Copy" fill="#666666"></path>
                <g id="Group-Copy-3" transform="translate(0.000000, 1.000000)">
                    <g id="认证-4" transform="translate(5.333333, 4.697368)">
                        <g id="认证-2">
                            <path d="M41.3170754,0 L10.0105457,0 C7.84805065,0 6,1.83637928 6,4.03337685 L6,24.7661544 L17.0938205,23.4124488 C17.0938205,25.6094464 21.5953409,28.2558298 23.7799022,28.2558298 L16.0401558,44.2894737 L41.3446583,44.2894737 C43.5071534,44.2894737 45.355204,42.5751498 45.3331377,40.2560968 L45.3331377,4.03892482 C45.3276212,1.83637928 43.5016368,0 41.3170754,0 Z M35.817056,32.649825 L30.7693953,32.649825 C29.8095123,32.649825 29.0371926,31.8786566 29.0371926,30.9077612 C29.0371926,29.9424138 29.8039957,29.1656975 30.7693953,29.1656975 L35.817056,29.1656975 C36.7769391,29.1656975 37.5492587,29.9368658 37.5492587,30.9077612 C37.5437422,31.8731086 36.7769391,32.649825 35.817056,32.649825 Z M35.817056,23.4179968 L27.4539373,23.4179968 C26.4940542,23.4179968 25.7217346,22.6468285 25.7217346,21.6759331 C25.7217346,20.7105857 26.4885377,19.9338693 27.4539373,19.9338693 L35.817056,19.9338693 C36.7769391,19.9338693 37.5492587,20.7050377 37.5492587,21.6759331 C37.5437422,22.6412805 36.7769391,23.4179968 35.817056,23.4179968 Z M35.817056,14.0641132 L15.4167835,14.0641132 C14.4569004,14.0641132 13.6845808,13.2929449 13.6845808,12.3220495 C13.6845808,11.3567021 14.4513839,10.5799858 15.4167835,10.5799858 L35.8391223,10.5799858 C36.7990053,10.5799858 37.571325,11.3511541 37.571325,12.3220495 C37.571325,13.2929449 36.7769391,14.0641132 35.817056,14.0641132 Z" id="Shape" fill="url(#linearGradient-1)" fill-rule="nonzero"></path>
                            <path d="M13,20.1315789 C5.76362862,20.1315789 0,25.9331262 0,33.2171053 C0,40.5010843 5.85775128,46.3026316 13,46.3026316 C20.1367121,46.3026316 26,40.5010843 26,33.2171053 C26,25.9331262 20.2363714,20.1315789 13,20.1315789 Z" id="Shape" stroke="#57BFFF" fill="#FFFFFF" fill-rule="nonzero"></path>
                            <path d="M7.98828125,38.2611405 C6.56553108,38.2611405 5.43403198,37.7769695 4.59375,36.808613 C3.75346802,35.8402565 3.33333333,34.5319136 3.33333333,32.8835449 C3.33333333,31.2495935 3.75585515,29.9460562 4.60091146,28.972894 C5.44596777,27.9997317 6.57507974,27.5131579 7.98828125,27.5131579 C9.11502299,27.5131579 10.0710681,27.8291305 10.8564453,28.4610853 C11.6418225,29.09304 12.1156676,29.9280247 12.2779948,30.9660645 L10.9746094,30.9660645 C10.8122822,30.2836494 10.4589871,29.7370048 9.91471354,29.3261141 C9.37043999,28.9152233 8.72830231,28.709781 7.98828125,28.709781 C6.98089774,28.709781 6.17404817,29.0894288 5.56770833,29.8487356 C4.9613685,30.6080424 4.65820312,31.6196354 4.65820312,32.8835449 C4.65820312,34.1570659 4.95898137,35.1722631 5.56054687,35.9291671 C6.16211238,36.6860711 6.97373621,37.0645174 7.99544271,37.0645174 C8.75456109,37.0645174 9.39431163,36.8891105 9.91471354,36.5382915 C10.4351154,36.1874725 10.7884105,35.6948916 10.9746094,35.060534 L12.2779948,35.060534 C12.0440526,36.0889623 11.5558848,36.8794946 10.8134766,37.4321546 C10.0710683,37.9848146 9.12934598,38.2611405 7.98828125,38.2611405 Z M20.7428385,38.0881348 L20.5852865,37.6375989 C20.4802512,37.3372402 20.3597012,36.9912322 20.2236328,36.5995644 C20.0875644,36.2078966 19.9670144,35.8618886 19.8619792,35.5615299 L19.7044271,35.110994 L15.59375,35.110994 L14.5553385,38.0881348 L13.2018229,38.0881348 L17.0117187,27.6861637 L18.2864583,27.6861637 L22.0963542,38.0881348 L20.7428385,38.0881348 Z M17.6276042,29.2648412 L17.4593099,29.7442113 C17.3471132,30.063793 17.2098532,30.4590591 17.047526,30.9300216 C16.8851988,31.4009841 16.7216805,31.8719395 16.5569661,32.3429019 C16.3922518,32.8138644 16.2537983,33.2091305 16.1416016,33.5287122 L15.9733073,34.0080823 L19.3248698,34.0080823 L17.6705729,29.2648412 L17.6276042,29.2648412 Z" id="CA" fill="#006DB1"></path>
                        </g>
                    </g>
                    <ellipse id="Oval-8" fill="#006DB1" cx="61" cy="8.38815789" rx="1" ry="1.00657895"></ellipse>
                    <ellipse id="Oval-8-Copy-2" fill="#006DB1" cx="1" cy="49.9934211" rx="1" ry="1.00657895"></ellipse>
                    <ellipse id="Oval-8-Copy" fill="#57BFFF" cx="57.6666667" cy="1.67763158" rx="1.66666667" ry="1.67763158"></ellipse>
                </g>
                <g id="Group-19-Copy" transform="translate(341.000000, 0.000000)">
                    <g id="Group-7">
                        <g id="服务器" transform="translate(15.423529, 15.233766)" fill="url(#linearGradient-1)" fill-rule="nonzero">
                            <path d="M31.6104546,0 L2.58954539,0 C1.16123692,0.0043027483 0.00441745814,1.1310826 0,2.52230166 L0,10.0891349 L34.2,10.0891349 L34.2,2.52230166 C34.1955825,1.13108263 33.0387631,0.0043027483 31.6104546,0 Z M13.4470826,6.55536677 L4.99031843,6.55536677 L4.99031843,3.16609901 L13.4470826,3.16609901 L13.4470826,6.55536677 Z M22.3495674,6.55536677 C21.7185135,6.56921735 21.1292139,6.24921711 20.8095106,5.71908829 C20.4898072,5.18895946 20.4898072,4.5317892 20.8095106,4.00166037 C21.1292139,3.47153155 21.7185135,3.15153131 22.3495674,3.16538189 C23.2967053,3.1843498 24.0543714,3.93761604 24.0543714,4.86041019 C24.0543714,5.78313265 23.2967053,6.53639886 22.3495674,6.55536677 Z M27.3670532,6.55536677 C26.7368321,6.56798516 26.1488621,6.2477082 25.829965,5.71808956 C25.511025,5.18847365 25.511025,4.53227501 25.829965,4.0026591 C26.1488621,3.47304046 26.7368321,3.1527635 27.3670532,3.16538189 C28.314191,3.1843498 29.0718571,3.93761604 29.0718571,4.86041019 C29.0718571,5.78313265 28.3142278,6.53639886 27.3670532,6.55536677 Z M0,22.9810024 L34.2,22.9810024 L34.2,12.8911505 L0,12.8911505 L0,22.9810024 Z M27.3670532,16.2410482 C27.9972884,16.2284221 28.5852756,16.5486999 28.9041856,17.0783272 C29.2230955,17.6079546 29.2230786,18.264144 28.9041413,18.7937558 C28.5852443,19.3233745 27.9972743,19.6436514 27.3670532,19.631033 C26.4198785,19.6120651 25.6622492,18.8587989 25.6622492,17.9360764 C25.6622492,17.013354 26.4199153,16.260016 27.3670532,16.2410482 Z M22.3495674,16.2410482 C22.9806214,16.2271976 23.569921,16.5471978 23.8896243,17.0773266 C24.2093277,17.6074555 24.2093277,18.2646257 23.8896243,18.7947546 C23.569921,19.3248834 22.9806214,19.6448836 22.3495674,19.631033 C21.4024664,19.6120651 20.6448003,18.8587989 20.6448003,17.9360764 C20.6448003,17.013354 21.4024664,16.260016 22.3495674,16.2410482 Z M4.99031843,16.2410482 L13.4470458,16.2410482 L13.4470458,19.6303518 L4.99031843,19.6303518 L4.99031843,16.2410482 Z M2.58954539,25.6770989 L0,25.6770989 L0,33.2439321 C0.00441745814,34.6351512 1.16123688,35.7619311 2.58954539,35.7662338 L31.6104546,35.7662338 C33.0387631,35.761931 34.1955825,34.6351512 34.2,33.2439321 L34.2,25.6770989 L2.58954539,25.6770989 Z M13.4470826,32.6531302 L4.99031843,32.6531302 L4.99031843,29.2638265 L13.4470826,29.2638265 L13.4470826,32.6531302 Z M22.3495674,32.6531302 C21.7193562,32.6657103 21.1314047,32.3454434 20.8124793,31.815853 C20.4935796,31.2862135 20.4935796,30.6300261 20.8124793,30.1003866 C21.1314047,29.5707962 21.7193562,29.2505293 22.3495674,29.2631094 C23.2967053,29.2821132 24.0543714,30.0353794 24.0543714,30.9581377 C24.0543714,31.8808243 23.2967053,32.6341264 22.3495674,32.6531302 Z M27.3670532,32.6531302 C26.7379516,32.6640457 26.1517823,32.3433871 25.833952,31.8144612 C25.5161216,31.2855353 25.5161216,30.6307043 25.833952,30.1017784 C26.1517823,29.5728525 26.7379516,29.2521939 27.3670532,29.2631094 C28.314191,29.2821132 29.0718571,30.0353794 29.0718571,30.9581377 C29.0718571,31.8808243 28.3142278,32.6341264 27.3670532,32.6531302 Z" id="Shape"></path>
                        </g>
                        <g id="Group-6">
                            <ellipse id="Oval" fill="#FFFFFF" cx="15.4235294" cy="15.2337662" rx="15.4235294" ry="15.2337662"></ellipse>
                            <path d="M15.4235294,30.4675325 C6.90701484,30.4675325 0,23.6488669 0,15.2337662 C0,6.81866557 6.90701484,0 15.4235294,0 C23.940044,0 30.8470588,6.81866557 30.8470588,15.2337662 C30.8470588,23.6488669 23.940044,30.4675325 15.4235294,30.4675325 Z M15.4235294,29.7904762 C23.5730193,29.7904762 30.1764706,23.2714913 30.1764706,15.2337662 C30.1764706,7.19604121 23.5730193,0.677056277 15.4235294,0.677056277 C7.27403948,0.677056277 0.670588235,7.19604121 0.670588235,15.2337662 C0.670588235,23.2714913 7.27403948,29.7904762 15.4235294,29.7904762 Z" id="Oval-10" fill="#57BFFF" fill-rule="nonzero"></path>
                            <g id="排序" transform="translate(5.964706, 7.157895)" fill="url(#linearGradient-1)" fill-rule="nonzero">
                                <path d="M10.4531604,12.8134848 L0.994081897,12.8134848 C0.446594312,12.8134848 0,13.2183035 0,13.7146536 C0,14.2110258 0.446570007,14.6158666 0.994081897,14.6158666 L10.4531604,14.6158666 C11.0006723,14.6158666 11.4472666,14.2110479 11.4472666,13.7146536 C11.4472666,13.2183035 11.0006966,12.8134848 10.4531604,12.8134848 Z M7.30014234,6.30818188 L0.994106203,6.30818188 C0.446618618,6.30818188 4.86115503e-05,6.70949706 4.86115503e-05,7.20935072 C4.86115503e-05,7.70567886 0.446594312,8.11051956 0.994106203,8.11051956 L7.30011803,8.11051956 C7.84762993,8.11051956 8.29422424,7.70570089 8.29422424,7.20935072 C8.29424854,6.70949706 7.84767854,6.30818188 7.30014234,6.30818188 Z M10.7638125,0 L0.994081897,0 C0.446594312,0 2.84217094e-14,0.401337211 2.84217094e-14,0.90116884 C2.84217094e-14,1.4010225 0.446570007,1.80238175 0.994081897,1.80238175 L10.7638125,1.80238175 C11.3113001,1.80238175 11.7578701,1.40104454 11.7578701,0.90116884 C11.7578701,0.401337211 11.3113244,0 10.7638125,0 Z M21.4111032,6.06529508 C21.0228427,6.42084451 20.374316,6.42084451 19.9821423,6.06884265 L16.7359359,3.1400329 L16.7359359,13.9223733 C16.7359359,14.422227 16.2932548,14.8270677 15.7419269,14.8270677 C15.190599,14.8270677 14.747845,14.422249 14.747918,13.9223733 L14.747918,3.09074162 L11.4784023,6.09695873 C11.0901419,6.45250815 10.4610355,6.45598961 10.0727507,6.10400978 C9.68055273,5.75200792 9.68055273,5.17816225 10.0649729,4.82267893 L15.0158648,0.288652545 C15.2030761,0.115600151 15.4590982,0.0179451472 15.7264685,0.0176056018 C15.9892635,0.0179464059 16.2414957,0.111424792 16.4292943,0.278075964 L16.4332075,0.281623525 C16.4332075,0.281623525 16.437145,0.281623525 16.4371207,0.285127018 L21.4151622,4.78039464 C21.8034227,5.13594406 21.803447,5.70976769 21.4112733,6.06529508 L21.4111032,6.06529508 Z" id="Shape"></path>
                            </g>
                        </g>
                    </g>
                    <ellipse id="Oval-11" fill="#57BFFF" cx="53.3117647" cy="6.95454545" rx="1.67647059" ry="1.65584416"></ellipse>
                    <ellipse id="Oval-11-Copy" fill="#006DB1" cx="55.9941176" cy="13.5779221" rx="1.00588235" ry="1"></ellipse>
                    <ellipse id="Oval-11-Copy-2" fill="#006DB1" cx="6.37058824" cy="50.0064935" rx="1.00588235" ry="1"></ellipse>
                </g>
                <g id="Group-18-Copy" transform="translate(172.000000, 1.000000)">
                    <g id="服务器-2" transform="translate(8.666667, 10.065789)" fill="url(#linearGradient-1)" fill-rule="nonzero">
                        <path d="M44.6666667,26.3146468 L44.6666667,38.0102031 C44.6666667,39.6182415 43.4106342,40.9342105 41.8752825,40.9342105 L2.79161017,40.9342105 C1.25625847,40.9342105 0,39.6182415 0,38.0102031 L0,26.3146468 L32.1040819,26.3146468 L32.1040819,23.3911127 L0,23.3911127 L0,2.92377074 C0,1.31573234 1.25625847,0 2.79161017,0 L41.8752825,0 C43.4106342,0 44.6666667,1.31573234 44.6666667,2.92377074 L44.6666667,23.3911127 L34.8961441,23.3911127 L34.8961441,26.3146468 L44.6666667,26.3146468 Z M39.0836723,5.84777817 C39.0836723,4.97062328 38.5250339,4.38577446 37.6875282,4.38577446 L6.97959039,4.38577446 C6.14185876,4.38577446 5.58367231,4.97062328 5.58367231,5.84777817 L5.58367231,8.77154892 C5.58367231,9.64870381 6.14208474,10.2335526 6.97959039,10.2335526 L37.6877542,10.2335526 C38.5252599,10.2335526 39.0838983,9.64870381 39.0838983,8.77154892 L39.0838983,5.84777817 L39.0836723,5.84777817 Z M37.6875282,19.0051015 C38.5250339,19.0051015 39.0832203,18.4202527 39.0832203,17.5433345 L39.0832203,14.6193271 C39.0832203,13.7421722 38.5250339,13.1575601 37.6875282,13.1575601 L6.97959039,13.1575601 C6.14185876,13.1575601 5.58367231,13.7421722 5.58367231,14.6193271 L5.58367231,17.5433345 C5.58367231,18.4202527 6.14208474,19.0051015 6.97959039,19.0051015 L37.6875282,19.0051015 Z M11.1666667,32.1624249 C11.1666667,31.28527 10.6082542,30.7006579 9.77120056,30.7006579 L6.9793644,30.7006579 C6.14163277,30.7006579 5.58367231,31.28527 5.58367231,32.1624249 L5.58367231,35.0864324 C5.58367231,35.9635872 6.14208474,36.5481994 6.9793644,36.5481994 L9.77120056,36.5481994 C10.6087062,36.5481994 11.1666667,35.9635872 11.1666667,35.0864324 L11.1666667,32.1624249 Z M15.3541949,32.1624249 L15.3541949,35.0864324 C15.3541949,35.9635872 15.9126073,36.5481994 16.749887,36.5481994 L37.6875282,36.5481994 C38.5250339,36.5481994 39.0832203,35.9635872 39.0832203,35.0864324 L39.0832203,32.1624249 C39.0832203,31.28527 38.5250339,30.7006579 37.6875282,30.7006579 L16.749887,30.7006579 C15.9126073,30.7006579 15.3541949,31.2850333 15.3541949,32.1624249 Z M11.1666667,17.5430978 L8.3750565,17.5430978 L8.3750565,14.6193271 L11.1666667,14.6193271 L11.1666667,17.5430978 Z M8.3750565,5.84777817 L11.1666667,5.84777817 L11.1666667,8.77154892 L8.3750565,8.77154892 L8.3750565,5.84777817 Z" id="Shape"></path>
                    </g>
                    <ellipse id="Oval-14" fill="#57BFFF" cx="56.3333333" cy="1.67763158" rx="1.66666667" ry="1.67763158"></ellipse>
                    <ellipse id="Oval-14-Copy" fill="#006DB1" cx="59" cy="7.04605263" rx="1" ry="1.00657895"></ellipse>
                    <ellipse id="Oval-14-Copy-2" fill="#006DB1" cx="1" cy="49.9934211" rx="1" ry="1.00657895"></ellipse>
                </g>
                <g id="Group-21-Copy-2" transform="translate(264.000000, 28.000000)" fill="#2193DA" fill-rule="nonzero">
                    <g id="Group-22" transform="translate(40.700768, 5.524014) rotate(-91.000000) translate(-40.700768, -5.524014) translate(35.700768, 2.024014)">
                        <path d="M8.49339899,1.21078905 C8.73258163,0.942403841 9.1503692,0.913255018 9.42655364,1.14568333 C9.70273807,1.37811164 9.73273395,1.78410122 9.49355131,2.05248643 L5.56235578,6.46365412 C5.30138411,6.75648865 4.83514426,6.76017109 4.56930892,6.47149738 L0.507130058,2.06032969 C0.263489825,1.7957579 0.286690892,1.38934817 0.55895109,1.15258814 C0.831211288,0.915828114 1.24943122,0.938374 1.49307145,1.20294579 L5.0541428,5.06995495 L8.49339899,1.21078905 Z" id="Path-2-Copy-4"></path>
                    </g>
                    <g id="Group-22-Copy" transform="translate(3.786978, 5.524014) scale(-1, 1) rotate(-91.000000) translate(-3.786978, -5.524014) translate(-1.213022, 2.024014)">
                        <path d="M8.49339899,1.21078905 C8.73258163,0.942403841 9.1503692,0.913255018 9.42655364,1.14568333 C9.70273807,1.37811164 9.73273395,1.78410122 9.49355131,2.05248643 L5.56235578,6.46365412 C5.30138411,6.75648865 4.83514426,6.76017109 4.56930892,6.47149738 L0.507130058,2.06032969 C0.263489825,1.7957579 0.286690892,1.38934817 0.55895109,1.15258814 C0.831211288,0.915828114 1.24943122,0.938374 1.49307145,1.20294579 L5.0541428,5.06995495 L8.49339899,1.21078905 Z" id="Path-2-Copy-4"></path>
                    </g>
                    <path d="M3.68023212,6.14285714 L3.68023212,4.85714286 L5.00330904,4.85714286 L5.00330904,6.14285714 L3.68023212,6.14285714 Z M7.64946289,6.14285714 L7.64946289,4.85714286 L8.97253981,4.85714286 L8.97253981,6.14285714 L7.64946289,6.14285714 Z M11.6186937,6.14285714 L11.6186937,4.85714286 L12.9417706,4.85714286 L12.9417706,6.14285714 L11.6186937,6.14285714 Z M15.5879244,6.14285714 L15.5879244,4.85714286 L16.9110014,4.85714286 L16.9110014,6.14285714 L15.5879244,6.14285714 Z M19.5571552,6.14285714 L19.5571552,4.85714286 L20.8802321,4.85714286 L20.8802321,6.14285714 L19.5571552,6.14285714 Z M23.526386,6.14285714 L23.526386,4.85714286 L24.8494629,4.85714286 L24.8494629,6.14285714 L23.526386,6.14285714 Z M27.4956167,6.14285714 L27.4956167,4.85714286 L28.8186937,4.85714286 L28.8186937,6.14285714 L27.4956167,6.14285714 Z M31.4648475,6.14285714 L31.4648475,4.85714286 L32.7879244,4.85714286 L32.7879244,6.14285714 L31.4648475,6.14285714 Z M35.4340783,6.14285714 L35.4340783,4.85714286 L36.7571552,4.85714286 L36.7571552,6.14285714 L35.4340783,6.14285714 Z M39.403309,6.14285714 L39.403309,4.85714286 L40.726386,4.85714286 L40.726386,6.14285714 L39.403309,6.14285714 Z" id="Path-3"></path>
                </g>
                <g id="Group-21-Copy-3" transform="translate(94.000000, 28.000000)" fill="#2193DA" fill-rule="nonzero">
                    <g id="Group-22" transform="translate(40.700768, 5.524014) rotate(-91.000000) translate(-40.700768, -5.524014) translate(35.700768, 2.024014)">
                        <path d="M8.49339899,1.21078905 C8.73258163,0.942403841 9.1503692,0.913255018 9.42655364,1.14568333 C9.70273807,1.37811164 9.73273395,1.78410122 9.49355131,2.05248643 L5.56235578,6.46365412 C5.30138411,6.75648865 4.83514426,6.76017109 4.56930892,6.47149738 L0.507130058,2.06032969 C0.263489825,1.7957579 0.286690892,1.38934817 0.55895109,1.15258814 C0.831211288,0.915828114 1.24943122,0.938374 1.49307145,1.20294579 L5.0541428,5.06995495 L8.49339899,1.21078905 Z" id="Path-2-Copy-4"></path>
                    </g>
                    <g id="Group-22-Copy" transform="translate(3.786978, 5.524014) scale(-1, 1) rotate(-91.000000) translate(-3.786978, -5.524014) translate(-1.213022, 2.024014)">
                        <path d="M8.49339899,1.21078905 C8.73258163,0.942403841 9.1503692,0.913255018 9.42655364,1.14568333 C9.70273807,1.37811164 9.73273395,1.78410122 9.49355131,2.05248643 L5.56235578,6.46365412 C5.30138411,6.75648865 4.83514426,6.76017109 4.56930892,6.47149738 L0.507130058,2.06032969 C0.263489825,1.7957579 0.286690892,1.38934817 0.55895109,1.15258814 C0.831211288,0.915828114 1.24943122,0.938374 1.49307145,1.20294579 L5.0541428,5.06995495 L8.49339899,1.21078905 Z" id="Path-2-Copy-4"></path>
                    </g>
                    <path d="M3.68023212,6.14285714 L3.68023212,4.85714286 L5.00330904,4.85714286 L5.00330904,6.14285714 L3.68023212,6.14285714 Z M7.64946289,6.14285714 L7.64946289,4.85714286 L8.97253981,4.85714286 L8.97253981,6.14285714 L7.64946289,6.14285714 Z M11.6186937,6.14285714 L11.6186937,4.85714286 L12.9417706,4.85714286 L12.9417706,6.14285714 L11.6186937,6.14285714 Z M15.5879244,6.14285714 L15.5879244,4.85714286 L16.9110014,4.85714286 L16.9110014,6.14285714 L15.5879244,6.14285714 Z M19.5571552,6.14285714 L19.5571552,4.85714286 L20.8802321,4.85714286 L20.8802321,6.14285714 L19.5571552,6.14285714 Z M23.526386,6.14285714 L23.526386,4.85714286 L24.8494629,4.85714286 L24.8494629,6.14285714 L23.526386,6.14285714 Z M27.4956167,6.14285714 L27.4956167,4.85714286 L28.8186937,4.85714286 L28.8186937,6.14285714 L27.4956167,6.14285714 Z M31.4648475,6.14285714 L31.4648475,4.85714286 L32.7879244,4.85714286 L32.7879244,6.14285714 L31.4648475,6.14285714 Z M35.4340783,6.14285714 L35.4340783,4.85714286 L36.7571552,4.85714286 L36.7571552,6.14285714 L35.4340783,6.14285714 Z M39.403309,6.14285714 L39.403309,4.85714286 L40.726386,4.85714286 L40.726386,6.14285714 L39.403309,6.14285714 Z" id="Path-3"></path>
                </g>
            </g>
        </g>
    </g>
</svg>