<?xml version="1.0" encoding="UTF-8"?>
<svg width="80px" height="80px" viewBox="0 0 80 80" version="1.1" xmlns="http://www.w3.org/2000/svg" xmlns:xlink="http://www.w3.org/1999/xlink">
    <!-- Generator: Sketch 49.3 (51167) - http://www.bohemiancoding.com/sketch -->
    <title>Group 33</title>
    <desc>Created with Sketch.</desc>
    <defs>
        <linearGradient x1="17.5913853%" y1="15.9033121%" x2="85.0635346%" y2="73.2461199%" id="linearGradient-1">
            <stop stop-color="#EFAF12" offset="0%"></stop>
            <stop stop-color="#FCDA69" offset="100%"></stop>
        </linearGradient>
    </defs>
    <g id="Page-1" stroke="none" stroke-width="1" fill="none" fill-rule="evenodd">
        <g id="以太坊浏览器" transform="translate(-600.000000, -261.000000)">
            <g id="Group-27-Copy" transform="translate(570.000000, 241.000000)">
                <g id="Group-33" transform="translate(30.000000, 20.000000)">
                    <circle id="Oval-3-Copy" fill="url(#linearGradient-1)" cx="40" cy="40" r="40"></circle>
                    <g id="块链式数据结构-copy-01" transform="translate(18.000000, 18.000000)" fill="#FFFFFF" fill-rule="nonzero">
                        <path d="M36.9267741,13.9249921 C40.8050995,13.9249921 43.9652449,10.8145466 43.9652449,6.96249606 C43.9652449,3.13421801 40.8290806,0 36.9507551,0 C33.0724297,0 29.9361959,3.11037598 29.9361959,6.96249606 C29.9361959,7.51280888 30.0080695,8.06305216 30.1277662,8.58945338 L12.8667678,18.0880316 C12.6512859,17.8966698 12.4358041,17.6813965 12.2203223,17.5138768 L15.5241454,9.83361771 C16.4578073,9.64218643 17.3196651,9.16367775 17.9900221,8.49373774 C19.9291501,6.57963346 19.9531311,3.44534596 18.0378452,1.50733017 C17.0564297,0.526401262 15.7875197,0 14.4707867,0 C13.1301422,0 11.8852133,0.526401262 10.9275703,1.45950711 C9.99390838,2.39254344 9.46729859,3.63677725 9.46729859,4.95260666 C9.46729859,6.26857507 9.97006635,7.51266983 10.9037283,8.46975671 C11.3107109,8.8764613 11.7176935,9.16360822 12.1486572,9.40286256 L9.18001262,16.1021927 C8.6533333,15.9824961 8.12665399,15.934673 7.57599369,15.934673 C3.41031281,15.9347425 0.0347551445,19.2844423 0.0347551445,23.4235703 C0.0347551445,27.5628373 3.41031281,30.9124676 7.57592417,30.9124676 C10.113605,30.9124676 12.4597852,29.6682338 13.8483223,27.6106603 L23.5920632,32.874395 C23.4481919,33.5184377 23.3759261,34.1764059 23.3765814,34.8363223 C23.3765814,39.884714 27.5182117,44 32.6175545,44 C37.7168278,44 41.8585276,39.8847141 41.8585276,34.8363223 C41.8585276,29.7879305 37.7168278,25.6726445 32.6175545,25.6726446 C29.4813207,25.6726446 26.5845498,27.2517788 24.8848152,29.811842 L15.0453586,24.5002844 C15.2128784,23.2800316 15.0932512,22.0597788 14.686199,20.9353112 L31.6838926,11.5802022 C32.9766446,13.0397093 34.9157725,13.9249921 36.9267741,13.9249921 Z" id="Shape"></path>
                    </g>
                </g>
            </g>
        </g>
    </g>
</svg>