<?xml version="1.0" encoding="UTF-8"?>
<svg width="80px" height="80px" viewBox="0 0 80 80" version="1.1" xmlns="http://www.w3.org/2000/svg" xmlns:xlink="http://www.w3.org/1999/xlink">
    <!-- Generator: Sketch 49.3 (51167) - http://www.bohemiancoding.com/sketch -->
    <title>Group 34</title>
    <desc>Created with Sketch.</desc>
    <defs>
        <linearGradient x1="17.5913853%" y1="15.9033121%" x2="88.9356504%" y2="78.8526192%" id="linearGradient-1">
            <stop stop-color="#5870E4" offset="0%"></stop>
            <stop stop-color="#9FAEF7" offset="100%"></stop>
        </linearGradient>
    </defs>
    <g id="Page-1" stroke="none" stroke-width="1" fill="none" fill-rule="evenodd">
        <g id="1440px" transform="translate(-600.000000, -405.000000)">
            <g id="Group-24-Copy" transform="translate(570.000000, 385.000000)">
                <g id="Group-34" transform="translate(30.000000, 20.000000)">
                    <circle id="Oval-3-Copy-2" fill="url(#linearGradient-1)" cx="40" cy="40" r="40"></circle>
                    <g id="qsign-03-合约管理-48" transform="translate(21.000000, 16.000000)" fill="#FFFFFF" fill-rule="nonzero">
                        <path d="M32.441529,47.0313152 C28.3177619,47.030903 24.5074638,44.8305185 22.4459373,41.2590252 C20.3844108,37.6875319 20.3848508,33.2875248 22.4470915,29.7164438 C24.5093322,26.1453629 28.3200702,23.9457404 32.4438373,23.9461528 C38.8186288,23.9467904 43.9859015,29.1150967 43.9852641,35.4898882 C43.9846267,41.8646796 38.8163205,47.0319525 32.441529,47.0313152 Z M39.1771059,31.9489784 C38.7552066,31.5312038 38.0755368,31.5312038 37.6536375,31.9489784 L31.5505309,38.019769 L28.4966693,34.986682 C28.2289276,34.6970149 27.824353,34.5767168 27.4418408,34.6730343 C27.0593286,34.7693519 26.7599693,35.0669023 26.6613353,35.4488238 C26.5627013,35.8307452 26.6805452,36.2360414 26.9685844,36.5055338 L30.7864884,40.2980467 C31.2081371,40.718612 31.8906164,40.718612 32.3122651,40.2980467 L39.1747976,33.4701384 C39.594202,33.0501834 39.5952339,32.3702043 39.1771059,31.9489784 Z" id="Shape"></path>
                        <path d="M22.7351889,43.8574228 L3.479472,43.8574228 C3.17337432,43.8574228 2.87981361,43.735826 2.66336987,43.5193822 C2.44692612,43.3029385 2.3253293,43.0093778 2.32532932,42.7032801 L2.32532932,3.46242811 C2.32532932,2.82501271 2.8420566,2.30828542 3.479472,2.30828542 L33.4871823,2.30828542 C34.1219608,2.30828542 34.641325,2.82764962 34.6413251,3.46242811 L34.6413251,21.6447923 C35.4307587,21.6978829 36.201726,21.8132972 36.9496104,21.9910351 L36.9496104,3.46242811 C36.9496104,1.55347608 35.3961344,0 33.4871823,0 L3.479472,0 C1.57051997,0 0.0170438914,1.55347608 0.0170438914,3.46242811 L0.0170438914,42.7032801 C0.0170438914,44.6122321 1.57051997,46.1657082 3.479472,46.1657082 L24.9534512,46.1657082 C24.1270632,45.4848578 23.3826438,44.7102279 22.7351889,43.8574228 Z" id="Shape"></path>
                        <path d="M9.25018554,9.23314165 L27.7164688,9.23314165 L27.7164688,11.5414271 L9.25018554,11.5414271 L9.25018554,9.23314165 Z M9.25018554,16.1579979 L27.7164688,16.1579979 L27.7164688,18.4662833 L9.25018554,18.4662833 L9.25018554,16.1579979 Z M27.5087231,23.0828541 L9.25018554,23.0828541 L9.25018554,25.3911395 L24.2171081,25.3911395 C25.1974429,24.4672301 26.3060954,23.6897739 27.5087231,23.0828541 Z M20.9832003,30.0077103 L9.25018554,30.0077103 L9.25018554,32.3159957 L20.2422406,32.3159957 C20.4245952,31.5196373 20.6692735,30.7417451 20.9832003,30.0077103 Z" id="Shape"></path>
                    </g>
                </g>
            </g>
        </g>
    </g>
</svg>