<?xml version="1.0" encoding="UTF-8"?>
<svg width="80px" height="80px" viewBox="0 0 80 80" version="1.1" xmlns="http://www.w3.org/2000/svg" xmlns:xlink="http://www.w3.org/1999/xlink">
    <!-- Generator: Sketch 49.3 (51167) - http://www.bohemiancoding.com/sketch -->
    <title>Group 34</title>
    <desc>Created with Sketch.</desc>
    <defs>
        <linearGradient x1="20.1865716%" y1="18.1931273%" x2="88.9356504%" y2="78.8526192%" id="linearGradient-1">
            <stop stop-color="#FF9166" offset="0%"></stop>
            <stop stop-color="#F8C5B2" offset="100%"></stop>
        </linearGradient>
    </defs>
    <g id="Page-1" stroke="none" stroke-width="1" fill="none" fill-rule="evenodd">
        <g id="以太坊浏览器" transform="translate(-1170.000000, -261.000000)">
            <g id="Group-24-Copy" transform="translate(1150.000000, 241.000000)">
                <g id="Group-34" transform="translate(20.000000, 20.000000)">
                    <circle id="Oval-3-Copy-2" fill="url(#linearGradient-1)" cx="40" cy="40" r="40"></circle>
                    <g id="拼图" transform="translate(23.000000, 20.000000)" fill="#FFFFFF" fill-rule="nonzero">
                        <path d="M35.2229368,19.0393955 L32.3670368,19.0393955 L32.3670368,11.4236465 C32.3670368,9.31978423 30.6630014,7.61574896 28.5591392,7.61574896 L20.9433442,7.61574896 L20.9433442,4.75984887 C20.9433442,2.13239495 18.8109492,0 16.1834953,0 C13.5560414,0 11.4236464,2.13239495 11.4236464,4.75984887 L11.4236464,7.61574896 L3.80789748,7.61574896 C1.70403523,7.61574896 0.0190371171,9.31978428 0.0190371171,11.4236465 L0.0094954955,18.6586057 L2.85590005,18.6586057 C5.69276297,18.6586057 7.99653865,20.9623814 7.99653865,23.7992443 C7.99653865,26.6361072 5.69276297,28.9398829 2.85590005,28.9398829 L0.00954162162,28.9398829 L0,36.1748421 C0,38.2787044 1.70403532,39.9827396 3.80789752,39.9827396 L11.0428567,39.9827396 L11.0428567,37.1268395 C11.0428567,34.2899766 13.3466324,31.9862009 16.1834953,31.9862009 C19.0203582,31.9862009 21.3241339,34.2899766 21.3241339,37.1268395 L21.3241339,39.9827396 L28.5590931,39.9827396 C30.6629554,39.9827396 32.3669906,38.2787043 32.3669906,36.1748421 L32.3669906,28.5591393 L35.2228907,28.5591393 C37.8503446,28.5591393 39.9827396,26.4267443 39.9827396,23.7992904 C39.9827396,21.1718365 37.8503446,19.0393955 35.2229368,19.0393955 Z" id="Shape"></path>
                    </g>
                </g>
            </g>
        </g>
    </g>
</svg>