<?xml version="1.0" encoding="UTF-8"?>
<svg width="312px" height="200px" viewBox="0 0 312 200" version="1.1" xmlns="http://www.w3.org/2000/svg" xmlns:xlink="http://www.w3.org/1999/xlink">
    <!-- Generator: Sketch 49.3 (51167) - http://www.bohemiancoding.com/sketch -->
    <title>Group 32</title>
    <desc>Created with Sketch.</desc>
    <defs>
        <linearGradient x1="94.3160752%" y1="94.1258286%" x2="11.2946429%" y2="8.54964718%" id="linearGradient-1">
            <stop stop-color="#006DB1" offset="0%"></stop>
            <stop stop-color="#57BEFF" offset="100%"></stop>
        </linearGradient>
    </defs>
    <g id="Page-1" stroke="none" stroke-width="1" fill="none" fill-rule="evenodd">
        <g id="1440px" transform="translate(-982.000000, -294.000000)">
            <g id="Group-29" transform="translate(860.000000, 241.000000)">
                <g id="Group-32" transform="translate(122.000000, 53.000000)">
                    <path d="M144.019653,87 C144.955568,87 145.706067,87.2830189 146.253489,87.8652291 C146.765594,88.4150943 147.030476,89.1266846 147.030476,90.0080863 C147.030476,90.8814016 146.765594,91.5849057 146.253489,92.1347709 C145.706067,92.7088949 144.955568,93 144.010823,93 C143.066078,93 142.324409,92.7088949 141.776987,92.1347709 C141.256052,91.5849057 141,90.8733154 141,90.0080863 C141,89.1347709 141.256052,88.4231806 141.776987,87.8733154 C142.324409,87.2911051 143.066078,87 144.019653,87 Z M144.019653,87.5902965 C143.295642,87.5902965 142.721732,87.8167116 142.30675,88.277628 C141.918257,88.7142857 141.72401,89.2884097 141.72401,90.0080863 C141.72401,90.7196765 141.918257,91.2938005 142.30675,91.7304582 C142.712902,92.1832884 143.286813,92.4097035 144.010823,92.4097035 C144.734833,92.4097035 145.308744,92.1832884 145.714896,91.7466307 C146.103389,91.309973 146.306465,90.7358491 146.306465,90.0080863 C146.306465,89.2722372 146.103389,88.690027 145.714896,88.2533693 C145.308744,87.8086253 144.743663,87.5902965 144.019653,87.5902965 Z M149.953005,88.5929919 C150.200228,88.5929919 150.412133,88.6253369 150.579892,88.690027 L150.579892,89.3369272 C150.350328,89.2722372 150.120763,89.2479784 149.900028,89.2479784 C149.546853,89.2479784 149.246653,89.3854447 149.00826,89.6765499 C148.761037,89.9514825 148.646255,90.2830189 148.646255,90.671159 L148.646255,92.8867925 L147.948733,92.8867925 L147.948733,88.7061995 L148.646255,88.7061995 L148.646255,89.4339623 C148.769866,89.1913747 148.928795,88.9973046 149.123042,88.8598383 C149.361435,88.6819407 149.635147,88.5929919 149.953005,88.5929919 Z M154.544289,87 L155.250641,87 L155.250641,92.8867925 L154.588436,92.8867925 L154.588436,92.1994609 C154.270578,92.7331536 153.758473,93 153.069781,93 C152.398747,93 151.877813,92.7735849 151.506978,92.3369272 C151.162632,91.9326146 150.994873,91.4150943 150.994873,90.7843666 C150.994873,90.1698113 151.162632,89.6684636 151.506978,89.2641509 C151.877813,88.8113208 152.381088,88.5929919 153.034463,88.5929919 C153.687838,88.5929919 154.191114,88.884097 154.544289,89.4743935 L154.544289,87 Z M153.184563,89.1266846 C152.681287,89.1266846 152.301623,89.2884097 152.0544,89.6118598 C151.824836,89.8948787 151.718884,90.2830189 151.718884,90.7843666 C151.718884,91.2857143 151.824836,91.6819407 152.045571,91.9730458 C152.292794,92.296496 152.663629,92.4663073 153.158075,92.4663073 C153.617203,92.4663073 153.970379,92.3045822 154.226431,91.9811321 C154.447166,91.690027 154.561948,91.309973 154.561948,90.8409704 L154.561948,90.7601078 C154.561948,90.2749326 154.429507,89.8787062 154.182284,89.5795148 C153.926232,89.2722372 153.590715,89.1266846 153.184563,89.1266846 Z M158.226146,88.5929919 C158.958986,88.5929919 159.515238,88.819407 159.886072,89.2722372 C160.221589,89.6765499 160.398177,90.2506739 160.415836,90.9784367 L156.813443,90.9784367 C156.848761,91.4474394 156.981202,91.8113208 157.228425,92.0700809 C157.475648,92.328841 157.819994,92.458221 158.252635,92.458221 C158.623469,92.458221 158.932498,92.3692722 159.162062,92.1994609 C159.356309,92.0539084 159.506408,91.8355795 159.621191,91.5444744 L160.327542,91.5444744 C160.221589,91.9487871 160.018513,92.2722372 159.709484,92.5309973 C159.329821,92.8382749 158.844204,93 158.252635,93 C157.599259,93 157.069496,92.7978437 156.681003,92.4097035 C156.27485,92.0053908 156.080604,91.4716981 156.080604,90.7924528 C156.080604,90.1778976 156.266021,89.6603774 156.654514,89.2479784 C157.043008,88.8113208 157.563942,88.5929919 158.226146,88.5929919 Z M158.243805,89.1347709 C157.837653,89.1347709 157.510966,89.2560647 157.263743,89.4986523 C157.01652,89.7412399 156.875249,90.06469 156.831102,90.4770889 L159.682996,90.4770889 C159.594702,89.5795148 159.109086,89.1347709 158.243805,89.1347709 Z M163.250071,88.5929919 C163.497294,88.5929919 163.7092,88.6253369 163.876958,88.690027 L163.876958,89.3369272 C163.647394,89.2722372 163.41783,89.2479784 163.197095,89.2479784 C162.843919,89.2479784 162.54372,89.3854447 162.305326,89.6765499 C162.058103,89.9514825 161.943321,90.2830189 161.943321,90.671159 L161.943321,92.8867925 L161.245799,92.8867925 L161.245799,88.7061995 L161.943321,88.7061995 L161.943321,89.4339623 C162.066932,89.1913747 162.225862,88.9973046 162.420108,88.8598383 C162.658502,88.6819407 162.932213,88.5929919 163.250071,88.5929919 Z M166.349188,88.5929919 C167.082028,88.5929919 167.63828,88.819407 168.009114,89.2722372 C168.344631,89.6765499 168.521219,90.2506739 168.538878,90.9784367 L164.936485,90.9784367 C164.971803,91.4474394 165.104244,91.8113208 165.351467,92.0700809 C165.59869,92.328841 165.943036,92.458221 166.375676,92.458221 C166.746511,92.458221 167.05554,92.3692722 167.285104,92.1994609 C167.479351,92.0539084 167.62945,91.8355795 167.744232,91.5444744 L168.450584,91.5444744 C168.344631,91.9487871 168.141555,92.2722372 167.832526,92.5309973 C167.452862,92.8382749 166.967246,93 166.375676,93 C165.722301,93 165.192538,92.7978437 164.804044,92.4097035 C164.397892,92.0053908 164.203646,91.4716981 164.203646,90.7924528 C164.203646,90.1778976 164.389063,89.6603774 164.777556,89.2479784 C165.16605,88.8113208 165.686984,88.5929919 166.349188,88.5929919 Z M166.366847,89.1347709 C165.960695,89.1347709 165.634007,89.2560647 165.386784,89.4986523 C165.139561,89.7412399 164.998291,90.06469 164.954144,90.4770889 L167.806038,90.4770889 C167.717744,89.5795148 167.232128,89.1347709 166.366847,89.1347709 Z M171.373113,88.5929919 C171.620336,88.5929919 171.832242,88.6253369 172,88.690027 L172,89.3369272 C171.770436,89.2722372 171.540872,89.2479784 171.320137,89.2479784 C170.966961,89.2479784 170.666762,89.3854447 170.428368,89.6765499 C170.181145,89.9514825 170.066363,90.2830189 170.066363,90.671159 L170.066363,92.8867925 L169.368841,92.8867925 L169.368841,88.7061995 L170.066363,88.7061995 L170.066363,89.4339623 C170.189974,89.1913747 170.348903,88.9973046 170.54315,88.8598383 C170.781544,88.6819407 171.055255,88.5929919 171.373113,88.5929919 Z" id="Orderer" fill="#666666"></path>
                    <g id="Group-19" transform="translate(133.000000, 34.000000)">
                        <g id="Group-7">
                            <g id="服务器" transform="translate(12.076767, 12.449206)" fill="url(#linearGradient-1)" fill-rule="nonzero">
                                <path d="M25.8763391,0 L2.11980357,0 C0.950589313,0.00351625466 0.00361613416,0.924333514 0,2.0612535 L0,8.24495531 L27.9961427,8.24495531 L27.9961427,2.0612535 C27.9925266,0.924333542 27.0455534,0.00351625466 25.8763391,0 Z M11.0077908,5.35711999 L4.08507797,5.35711999 L4.08507797,2.58737198 L11.0077908,2.58737198 L11.0077908,5.35711999 Z M18.2953707,5.35711999 C17.7787896,5.36843884 17.2963885,5.10693102 17.0346791,4.67370374 C16.7729698,4.24047646 16.7729698,3.70342947 17.0346791,3.27020219 C17.2963885,2.83697491 17.7787896,2.57546709 18.2953707,2.58678594 C19.0706984,2.60228673 19.6909244,3.21786444 19.6909244,3.97198227 C19.6909244,4.72604152 19.0706984,5.3416192 18.2953707,5.35711999 Z M22.4026879,5.35711999 C21.8867885,5.36743188 21.4054758,5.10569792 21.1444265,4.67288756 C20.883342,4.24007944 20.883342,3.70382649 21.1444265,3.27101837 C21.4054758,2.83820801 21.8867885,2.57647405 22.4026879,2.58678594 C23.1780156,2.60228673 23.7982415,3.21786444 23.7982415,3.97198227 C23.7982415,4.72604152 23.1780457,5.3416192 22.4026879,5.35711999 Z M0,18.7803355 L27.9961427,18.7803355 L27.9961427,10.5347942 L0,10.5347942 L0,18.7803355 Z M22.4026879,13.2723685 C22.9185988,13.2620504 23.3999255,13.523785 23.6609855,13.9566025 C23.9220454,14.38942 23.9220316,14.9256654 23.6609493,15.3584702 C23.3999,15.7912805 22.9185873,16.0530145 22.4026879,16.0427026 C21.6273301,16.0272018 21.0071342,15.4116241 21.0071342,14.6575649 C21.0071342,13.9035056 21.6273602,13.2878693 22.4026879,13.2723685 Z M18.2953707,13.2723685 C18.8119519,13.2610497 19.2943529,13.5225575 19.5560623,13.9557848 C19.8177717,14.3890121 19.8177717,14.9260591 19.5560623,15.3592863 C19.2943529,15.7925136 18.8119519,16.0540215 18.2953707,16.0427026 C17.5200732,16.0272018 16.8998472,15.4116241 16.8998472,14.6575649 C16.8998472,13.9035056 17.5200732,13.2878693 18.2953707,13.2723685 Z M4.08507797,13.2723685 L11.0077606,13.2723685 L11.0077606,16.0421459 L4.08507797,16.0421459 L4.08507797,13.2723685 Z M2.11980357,20.9836161 L0,20.9836161 L0,27.167318 C0.00361613416,28.3042379 0.950589284,29.2250552 2.11980357,29.2285714 L25.8763391,29.2285714 C27.0455534,29.2250552 27.9925266,28.3042379 27.9961427,27.167318 L27.9961427,20.9836161 L2.11980357,20.9836161 Z M11.0077908,26.6845079 L4.08507797,26.6845079 L4.08507797,23.9147306 L11.0077908,23.9147306 L11.0077908,26.6845079 Z M18.2953707,26.6845079 C17.7794794,26.6947885 17.2981819,26.4330628 17.0371094,26.0002755 C16.7760579,25.5674481 16.7760579,25.0312043 17.0371094,24.598377 C17.2981819,24.1655896 17.7794794,23.9038639 18.2953707,23.9141445 C19.0706984,23.9296746 19.6909244,24.5452523 19.6909244,25.2993409 C19.6909244,26.0533708 19.0706984,26.6689778 18.2953707,26.6845079 Z M22.4026879,26.6845079 C21.887705,26.6934282 21.4078663,26.4313824 21.1476902,25.9991381 C20.8875141,25.5668939 20.8875141,25.0317586 21.1476902,24.5995143 C21.4078663,24.1672701 21.887705,23.9052243 22.4026879,23.9141445 C23.1780156,23.9296746 23.7982415,24.5452523 23.7982415,25.2993409 C23.7982415,26.0533708 23.1780457,26.6689778 22.4026879,26.6845079 Z" id="Shape"></path>
                            </g>
                            <g id="Group-6">
                                <ellipse id="Oval-10" stroke="#57BFFF" fill="#FFFFFF" cx="12.3512394" cy="11.9079365" rx="12.3512394" ry="11.9079365"></ellipse>
                                <g id="排序" transform="translate(4.333768, 5.849513)" fill="url(#linearGradient-1)" fill-rule="nonzero">
                                    <path d="M8.55696404,10.4713249 L0.813756101,10.4713249 C0.3655824,10.4713249 0,10.8021473 0,11.2077703 C0,11.6134113 0.365562504,11.9442517 0.813756101,11.9442517 L8.55696404,11.9442517 C9.00515764,11.9442517 9.37074004,11.6134293 9.37074004,11.2077703 C9.37074004,10.8021473 9.00517754,10.4713249 8.55696404,10.4713249 Z M5.97590136,5.1551177 L0.813775997,5.1551177 C0.365602297,5.1551177 3.97934473e-05,5.48307701 3.97934473e-05,5.89156308 C3.97934473e-05,6.29716806 0.3655824,6.62800847 0.813775997,6.62800847 L5.97588147,6.62800847 C6.42407506,6.62800847 6.78965746,6.29718607 6.78965746,5.89156308 C6.78967736,5.48307701 6.42411486,5.1551177 5.97590136,5.1551177 Z M8.81126407,0 L0.813756101,0 C0.3655824,0 2.84217094e-14,0.327977315 2.84217094e-14,0.736445385 C2.84217094e-14,1.14493146 0.365562504,1.47292678 0.813756101,1.47292678 L8.81126407,1.47292678 C9.25943777,1.47292678 9.62500027,1.14494947 9.62500027,0.736445385 C9.62500027,0.327977315 9.25945767,0 8.81126407,0 Z M17.5271432,4.95662786 C17.209313,5.24718688 16.6784286,5.24718688 16.357395,4.95952696 L13.7000482,2.56607046 L13.7000482,11.3775212 C13.7000482,11.7860073 13.3376692,12.1168477 12.8863518,12.1168477 C12.4350345,12.1168477 12.0725957,11.7860253 12.0726554,11.3775212 L12.0726554,2.52578907 L9.39622775,4.98250374 C9.07839748,5.27306276 8.56341058,5.27590785 8.24556042,4.98826595 C7.92450689,4.70060603 7.92450689,4.23165285 8.23919347,3.94114786 L12.2919969,0.23589013 C12.4452482,0.0944697527 12.654828,0.0146649776 12.8736975,0.0143874973 C13.0888217,0.0146660062 13.2952992,0.091057602 13.4490312,0.227246828 L13.4522346,0.230145935 C13.4522346,0.230145935 13.4554578,0.230145935 13.4554379,0.233009029 L17.530466,3.90659265 C17.8482963,4.19715167 17.8483162,4.66608685 17.5272825,4.95662786 L17.5271432,4.95662786 Z" id="Shape"></path>
                                </g>
                            </g>
                        </g>
                        <ellipse id="Oval-11" fill="#57BFFF" cx="42.5810811" cy="6.48641304" rx="1.55405405" ry="1.54438406"></ellipse>
                        <ellipse id="Oval-11-Copy" fill="#006DB1" cx="45.0675676" cy="11.428442" rx="1" ry="1"></ellipse>
                        <ellipse id="Oval-11-Copy-2" fill="#006DB1" cx="4.66216216" cy="40.4628623" rx="1" ry="1"></ellipse>
                    </g>
                    <path d="M217,166.113208 L219.250482,166.113208 C220.514451,166.113208 221.146435,166.679245 221.146435,167.811321 C221.146435,168.951482 220.506744,169.525606 219.242775,169.525606 L217.631985,169.525606 L217.631985,171.886792 L217,171.886792 L217,166.113208 Z M217.631985,166.687332 L217.631985,168.951482 L219.211946,168.951482 C219.65896,168.951482 219.982659,168.854447 220.198459,168.668464 C220.406551,168.48248 220.514451,168.199461 220.514451,167.811321 C220.514451,167.423181 220.406551,167.140162 220.190751,166.97035 C219.974952,166.77628 219.651252,166.687332 219.211946,166.687332 L217.631985,166.687332 Z M223.512524,167.592992 C224.152216,167.592992 224.637765,167.819407 224.961464,168.272237 C225.254335,168.67655 225.408478,169.250674 225.423892,169.978437 L222.279383,169.978437 C222.310212,170.447439 222.425819,170.811321 222.641618,171.070081 C222.857418,171.328841 223.157996,171.458221 223.535645,171.458221 C223.859345,171.458221 224.129094,171.369272 224.32948,171.199461 C224.499037,171.053908 224.630058,170.83558 224.73025,170.544474 L225.346821,170.544474 C225.254335,170.948787 225.077071,171.272237 224.807322,171.530997 C224.475915,171.838275 224.052023,172 223.535645,172 C222.965318,172 222.50289,171.797844 222.163776,171.409704 C221.809249,171.005391 221.639692,170.471698 221.639692,169.792453 C221.639692,169.177898 221.801541,168.660377 222.140655,168.247978 C222.479769,167.811321 222.934489,167.592992 223.512524,167.592992 Z M223.527938,168.134771 C223.17341,168.134771 222.888247,168.256065 222.672447,168.498652 C222.456647,168.74124 222.333333,169.06469 222.294798,169.477089 L224.7842,169.477089 C224.707129,168.579515 224.283237,168.134771 223.527938,168.134771 Z M227.789981,167.592992 C228.429672,167.592992 228.915222,167.819407 229.238921,168.272237 C229.531792,168.67655 229.685934,169.250674 229.701349,169.978437 L226.55684,169.978437 C226.587669,170.447439 226.703276,170.811321 226.919075,171.070081 C227.134875,171.328841 227.435453,171.458221 227.813102,171.458221 C228.136802,171.458221 228.406551,171.369272 228.606936,171.199461 C228.776493,171.053908 228.907514,170.83558 229.007707,170.544474 L229.624277,170.544474 C229.531792,170.948787 229.354528,171.272237 229.084778,171.530997 C228.753372,171.838275 228.32948,172 227.813102,172 C227.242775,172 226.780347,171.797844 226.441233,171.409704 C226.086705,171.005391 225.917148,170.471698 225.917148,169.792453 C225.917148,169.177898 226.078998,168.660377 226.418112,168.247978 C226.757225,167.811321 227.211946,167.592992 227.789981,167.592992 Z M227.805395,168.134771 C227.450867,168.134771 227.165703,168.256065 226.949904,168.498652 C226.734104,168.74124 226.61079,169.06469 226.572254,169.477089 L229.061657,169.477089 C228.984586,168.579515 228.560694,168.134771 227.805395,168.134771 Z M232.175337,167.592992 C232.391137,167.592992 232.576108,167.625337 232.722543,167.690027 L232.722543,168.336927 C232.522158,168.272237 232.321773,168.247978 232.129094,168.247978 C231.820809,168.247978 231.558767,168.385445 231.350674,168.67655 C231.134875,168.951482 231.034682,169.283019 231.034682,169.671159 L231.034682,171.886792 L230.425819,171.886792 L230.425819,167.706199 L231.034682,167.706199 L231.034682,168.433962 C231.142582,168.191375 231.28131,167.997305 231.450867,167.859838 C231.65896,167.681941 231.897881,167.592992 232.175337,167.592992 Z M235.127168,166 C235.651252,166 236.082852,166.137466 236.406551,166.420485 C236.722543,166.703504 236.884393,167.083558 236.884393,167.568733 C236.884393,168.215633 236.583815,168.652291 235.982659,168.862534 C236.306358,168.967655 236.552987,169.12938 236.722543,169.355795 C236.907514,169.58221 237,169.865229 237,170.204852 C237,170.730458 236.822736,171.15903 236.475915,171.490566 C236.121387,171.830189 235.65896,172 235.088632,172 C234.564547,172 234.140655,171.854447 233.809249,171.579515 C233.416185,171.239892 233.200385,170.746631 233.154143,170.09973 L233.793834,170.09973 C233.809249,170.552561 233.955684,170.90027 234.225434,171.134771 C234.456647,171.328841 234.741811,171.433962 235.088632,171.433962 C235.481696,171.433962 235.797688,171.312668 236.036609,171.078167 C236.252408,170.851752 236.368015,170.568733 236.368015,170.229111 C236.368015,169.881402 236.260116,169.614555 236.044316,169.420485 C235.828516,169.226415 235.535645,169.137466 235.150289,169.137466 L234.703276,169.137466 L234.703276,168.619946 L235.127168,168.619946 C235.49711,168.619946 235.774566,168.530997 235.967245,168.361186 C236.159923,168.183288 236.260116,167.932615 236.260116,167.609164 C236.260116,167.285714 236.159923,167.03504 235.974952,166.857143 C235.774566,166.663073 235.489403,166.574124 235.134875,166.574124 C234.764933,166.574124 234.479769,166.671159 234.271676,166.881402 C234.055877,167.091644 233.932563,167.390836 233.894027,167.778976 L233.26975,167.778976 C233.315992,167.221024 233.516378,166.784367 233.855491,166.469003 C234.179191,166.153639 234.603083,166 235.127168,166 Z" id="Peer3" fill="#666666"></path>
                    <path d="M283,166 L285.227307,166 C286.478261,166 287.103738,166.576923 287.103738,167.730769 C287.103738,168.892857 286.470633,169.478022 285.21968,169.478022 L283.625477,169.478022 L283.625477,171.884615 L283,171.884615 L283,166 Z M283.625477,166.585165 L283.625477,168.892857 L285.189169,168.892857 C285.631579,168.892857 285.951945,168.793956 286.165523,168.604396 C286.371472,168.414835 286.478261,168.126374 286.478261,167.730769 C286.478261,167.335165 286.371472,167.046703 286.157895,166.873626 C285.944317,166.675824 285.623951,166.585165 285.189169,166.585165 L283.625477,166.585165 Z M289.445461,167.508242 C290.078566,167.508242 290.559115,167.739011 290.879481,168.200549 C291.169336,168.612637 291.321892,169.197802 291.337147,169.93956 L288.225019,169.93956 C288.25553,170.417582 288.369947,170.788462 288.583524,171.052198 C288.797101,171.315934 289.094584,171.447802 289.468345,171.447802 C289.788711,171.447802 290.055683,171.357143 290.254005,171.184066 C290.421815,171.035714 290.551487,170.813187 290.650648,170.516484 L291.26087,170.516484 C291.169336,170.928571 290.993898,171.258242 290.726926,171.521978 C290.398932,171.835165 289.979405,172 289.468345,172 C288.90389,172 288.446224,171.793956 288.110603,171.398352 C287.759725,170.986264 287.591915,170.442308 287.591915,169.75 C287.591915,169.123626 287.752098,168.596154 288.087719,168.175824 C288.423341,167.730769 288.873379,167.508242 289.445461,167.508242 Z M289.460717,168.06044 C289.10984,168.06044 288.827613,168.184066 288.614035,168.431319 C288.400458,168.678571 288.278413,169.008242 288.240275,169.428571 L290.704043,169.428571 C290.627765,168.513736 290.208238,168.06044 289.460717,168.06044 Z M293.678871,167.508242 C294.311976,167.508242 294.792525,167.739011 295.112891,168.200549 C295.402746,168.612637 295.555301,169.197802 295.570557,169.93956 L292.458429,169.93956 C292.48894,170.417582 292.603356,170.788462 292.816934,171.052198 C293.030511,171.315934 293.327994,171.447802 293.701754,171.447802 C294.022121,171.447802 294.289092,171.357143 294.487414,171.184066 C294.655225,171.035714 294.784897,170.813187 294.884058,170.516484 L295.494279,170.516484 C295.402746,170.928571 295.227307,171.258242 294.960336,171.521978 C294.632342,171.835165 294.212815,172 293.701754,172 C293.1373,172 292.679634,171.793956 292.344012,171.398352 C291.993135,170.986264 291.825324,170.442308 291.825324,169.75 C291.825324,169.123626 291.985507,168.596154 292.321129,168.175824 C292.656751,167.730769 293.106789,167.508242 293.678871,167.508242 Z M293.694127,168.06044 C293.343249,168.06044 293.061022,168.184066 292.847445,168.431319 C292.633867,168.678571 292.511823,169.008242 292.473684,169.428571 L294.937452,169.428571 C294.861175,168.513736 294.441648,168.06044 293.694127,168.06044 Z M298.019069,167.508242 C298.232647,167.508242 298.415713,167.541209 298.560641,167.607143 L298.560641,168.266484 C298.362319,168.200549 298.163997,168.175824 297.973303,168.175824 C297.668192,168.175824 297.408848,168.315934 297.202899,168.612637 C296.989321,168.892857 296.89016,169.230769 296.89016,169.626374 L296.89016,171.884615 L296.287567,171.884615 L296.287567,167.623626 L296.89016,167.623626 L296.89016,168.365385 C296.996949,168.118132 297.134249,167.92033 297.302059,167.78022 C297.508009,167.598901 297.74447,167.508242 298.019069,167.508242 Z M301.527841,166 L302.115179,166 L302.115179,169.997253 L303,169.997253 L303,170.549451 L302.115179,170.549451 L302.115179,171.884615 L301.520214,171.884615 L301.520214,170.549451 L298.781846,170.549451 L298.781846,169.906593 L301.527841,166 Z M301.49733,166.881868 L299.308162,169.997253 L301.520214,169.997253 L301.520214,166.881868 L301.49733,166.881868 Z" id="Peer4" fill="#666666"></path>
                    <rect id="Rectangle-22" stroke="#006DB1" x="206.5" y="127.5" width="105" height="54"></rect>
                    <g id="Group-21" transform="translate(249.000000, 142.000000)" fill="#2193DA" fill-rule="nonzero">
                        <path d="M18.6809762,4.48189722 L20.7610537,2.25854593 C20.9899652,2.01386721 21.4033287,1.97710019 21.6843269,2.1764245 C21.9653251,2.3757488 22.0075498,2.73568438 21.7786383,2.98036311 L19.1980184,5.73873364 C18.9381238,6.01652963 18.4521225,6.01992276 18.1871455,5.74579129 L15.5208896,2.98742075 C15.2875017,2.74596967 15.3230925,2.38549081 15.600384,2.18226867 C15.8776755,1.97904653 16.2916629,2.01003721 16.5250508,2.25148829 L18.6809762,4.48189722 Z" id="Path-2" transform="translate(18.646411, 3.998631) rotate(-90.000000) translate(-18.646411, -3.998631) "></path>
                        <path d="M4.35480367,2.25854593 C4.58371518,2.01386721 4.99707869,1.97710019 5.27807692,2.1764245 C5.55907514,2.3757488 5.60129977,2.73568438 5.37238826,2.98036311 L2.79176844,5.73873364 C2.53187377,6.01652963 2.0458725,6.01992276 1.78089553,5.74579129 L-0.885360423,2.98742075 C-1.11874835,2.74596967 -1.08315749,2.38549081 -0.805866017,2.18226867 C-0.528574546,1.97904653 -0.114587101,2.01003721 0.118800822,2.25148829 L2.27472621,4.48189722 L4.35480367,2.25854593 Z" id="Path-2-Copy-3" transform="translate(2.240161, 3.998631) rotate(-270.000000) translate(-2.240161, -3.998631) "></path>
                        <path d="M0.65625,4.57142857 L0.65625,3.42857143 L1.96875,3.42857143 L1.96875,4.57142857 L0.65625,4.57142857 Z M3.28125,4.57142857 L3.28125,3.42857143 L4.59375,3.42857143 L4.59375,4.57142857 L3.28125,4.57142857 Z M5.90625,4.57142857 L5.90625,3.42857143 L7.21875,3.42857143 L7.21875,4.57142857 L5.90625,4.57142857 Z M8.53125,4.57142857 L8.53125,3.42857143 L9.84375,3.42857143 L9.84375,4.57142857 L8.53125,4.57142857 Z M11.15625,4.57142857 L11.15625,3.42857143 L12.46875,3.42857143 L12.46875,4.57142857 L11.15625,4.57142857 Z M13.78125,4.57142857 L13.78125,3.42857143 L15.09375,3.42857143 L15.09375,4.57142857 L13.78125,4.57142857 Z M16.40625,4.57142857 L16.40625,3.42857143 L17.71875,3.42857143 L17.71875,4.57142857 L16.40625,4.57142857 Z" id="Path-3"></path>
                    </g>
                    <g id="Group-18" transform="translate(211.000000, 134.000000)">
                        <g id="服务器-2" transform="translate(4.407157, 4.963636)" fill="url(#linearGradient-1)" fill-rule="nonzero">
                            <path d="M22.0357834,12.763538 L22.0357834,18.436298 C22.0357834,19.2162538 21.4161343,19.8545455 20.6586863,19.8545455 L1.37720859,19.8545455 C0.619760588,19.8545455 0,19.2162538 0,18.436298 L0,12.763538 L15.8381775,12.763538 L15.8381775,11.3455201 L0,11.3455201 L0,1.41813262 C0,0.638176898 0.619760588,0 1.37720859,0 L20.6586863,0 C21.4161343,0 22.0357834,0.638176898 22.0357834,1.41813262 L22.0357834,11.3455201 L17.2156091,11.3455201 L17.2156091,12.763538 L22.0357834,12.763538 Z M19.2814777,2.83638004 C19.2814777,2.41092877 19.0058799,2.12725633 18.5927062,2.12725633 L3.44330019,2.12725633 C3.03001498,2.12725633 2.75464015,2.41092877 2.75464015,2.83638004 L2.75464015,4.25451265 C2.75464015,4.67996392 3.03012647,4.96363636 3.44330019,4.96363636 L18.5928176,4.96363636 C19.0059914,4.96363636 19.2815892,4.67996392 19.2815892,4.25451265 L19.2815892,2.83638004 L19.2814777,2.83638004 Z M18.5927062,9.21814902 C19.0058799,9.21814902 19.2812547,8.93447657 19.2812547,8.50914011 L19.2812547,7.09089269 C19.2812547,6.66544143 19.0058799,6.38188378 18.5927062,6.38188378 L3.44330019,6.38188378 C3.03001498,6.38188378 2.75464015,6.66544143 2.75464015,7.09089269 L2.75464015,8.50914011 C2.75464015,8.93447657 3.03012647,9.21814902 3.44330019,9.21814902 L18.5927062,9.21814902 Z M5.50894584,15.599918 C5.50894584,15.1744667 5.23345953,14.8909091 4.82050878,14.8909091 L3.4431887,14.8909091 C3.02990349,14.8909091 2.75464015,15.1744667 2.75464015,15.599918 L2.75464015,17.0181654 C2.75464015,17.4436167 3.03012647,17.7271743 3.4431887,17.7271743 L4.82050878,17.7271743 C5.2336825,17.7271743 5.50894584,17.4436167 5.50894584,17.0181654 L5.50894584,15.599918 Z M7.57481447,15.599918 L7.57481447,17.0181654 C7.57481447,17.4436167 7.85030078,17.7271743 8.26336302,17.7271743 L18.5927062,17.7271743 C19.0058799,17.7271743 19.2812547,17.4436167 19.2812547,17.0181654 L19.2812547,15.599918 C19.2812547,15.1744667 19.0058799,14.8909091 18.5927062,14.8909091 L8.26336302,14.8909091 C7.85030078,14.8909091 7.57481447,15.1743519 7.57481447,15.599918 Z M5.50894584,8.50902531 L4.13173725,8.50902531 L4.13173725,7.09089269 L5.50894584,7.09089269 L5.50894584,8.50902531 Z M4.13173725,2.83638004 L5.50894584,2.83638004 L5.50894584,4.25451265 L4.13173725,4.25451265 L4.13173725,2.83638004 Z" id="Shape"></path>
                        </g>
                        <ellipse id="Oval-14" fill="#57BFFF" cx="28.0169246" cy="0.930681818" rx="1" ry="1"></ellipse>
                        <ellipse id="Oval-14-Copy" fill="#006DB1" cx="28.9613153" cy="3.72272727" rx="1" ry="1"></ellipse>
                        <ellipse id="Oval-14-Copy-2" fill="#006DB1" cx="0.62959381" cy="24.1977273" rx="1" ry="1"></ellipse>
                    </g>
                    <g id="Group-18-Copy-2" transform="translate(278.000000, 134.000000)">
                        <g id="服务器-2" transform="translate(4.407157, 4.963636)" fill="url(#linearGradient-1)" fill-rule="nonzero">
                            <path d="M22.0357834,12.763538 L22.0357834,18.436298 C22.0357834,19.2162538 21.4161343,19.8545455 20.6586863,19.8545455 L1.37720859,19.8545455 C0.619760588,19.8545455 0,19.2162538 0,18.436298 L0,12.763538 L15.8381775,12.763538 L15.8381775,11.3455201 L0,11.3455201 L0,1.41813262 C0,0.638176898 0.619760588,0 1.37720859,0 L20.6586863,0 C21.4161343,0 22.0357834,0.638176898 22.0357834,1.41813262 L22.0357834,11.3455201 L17.2156091,11.3455201 L17.2156091,12.763538 L22.0357834,12.763538 Z M19.2814777,2.83638004 C19.2814777,2.41092877 19.0058799,2.12725633 18.5927062,2.12725633 L3.44330019,2.12725633 C3.03001498,2.12725633 2.75464015,2.41092877 2.75464015,2.83638004 L2.75464015,4.25451265 C2.75464015,4.67996392 3.03012647,4.96363636 3.44330019,4.96363636 L18.5928176,4.96363636 C19.0059914,4.96363636 19.2815892,4.67996392 19.2815892,4.25451265 L19.2815892,2.83638004 L19.2814777,2.83638004 Z M18.5927062,9.21814902 C19.0058799,9.21814902 19.2812547,8.93447657 19.2812547,8.50914011 L19.2812547,7.09089269 C19.2812547,6.66544143 19.0058799,6.38188378 18.5927062,6.38188378 L3.44330019,6.38188378 C3.03001498,6.38188378 2.75464015,6.66544143 2.75464015,7.09089269 L2.75464015,8.50914011 C2.75464015,8.93447657 3.03012647,9.21814902 3.44330019,9.21814902 L18.5927062,9.21814902 Z M5.50894584,15.599918 C5.50894584,15.1744667 5.23345953,14.8909091 4.82050878,14.8909091 L3.4431887,14.8909091 C3.02990349,14.8909091 2.75464015,15.1744667 2.75464015,15.599918 L2.75464015,17.0181654 C2.75464015,17.4436167 3.03012647,17.7271743 3.4431887,17.7271743 L4.82050878,17.7271743 C5.2336825,17.7271743 5.50894584,17.4436167 5.50894584,17.0181654 L5.50894584,15.599918 Z M7.57481447,15.599918 L7.57481447,17.0181654 C7.57481447,17.4436167 7.85030078,17.7271743 8.26336302,17.7271743 L18.5927062,17.7271743 C19.0058799,17.7271743 19.2812547,17.4436167 19.2812547,17.0181654 L19.2812547,15.599918 C19.2812547,15.1744667 19.0058799,14.8909091 18.5927062,14.8909091 L8.26336302,14.8909091 C7.85030078,14.8909091 7.57481447,15.1743519 7.57481447,15.599918 Z M5.50894584,8.50902531 L4.13173725,8.50902531 L4.13173725,7.09089269 L5.50894584,7.09089269 L5.50894584,8.50902531 Z M4.13173725,2.83638004 L5.50894584,2.83638004 L5.50894584,4.25451265 L4.13173725,4.25451265 L4.13173725,2.83638004 Z" id="Shape"></path>
                        </g>
                        <ellipse id="Oval-14" fill="#57BFFF" cx="28.0169246" cy="0.930681818" rx="1" ry="1"></ellipse>
                        <ellipse id="Oval-14-Copy" fill="#006DB1" cx="28.9613153" cy="3.72272727" rx="1" ry="1"></ellipse>
                        <ellipse id="Oval-14-Copy-2" fill="#006DB1" cx="0.62959381" cy="24.1977273" rx="1" ry="1"></ellipse>
                    </g>
                    <path d="M11,166 L13.2471142,166 C14.509192,166 15.1402309,166.576923 15.1402309,167.730769 C15.1402309,168.892857 14.5014964,169.478022 13.2394186,169.478022 L11.6310389,169.478022 L11.6310389,171.884615 L11,171.884615 L11,166 Z M11.6310389,166.585165 L11.6310389,168.892857 L13.2086362,168.892857 C13.6549808,168.892857 13.9781958,168.793956 14.1936725,168.604396 C14.4014536,168.414835 14.509192,168.126374 14.509192,167.730769 C14.509192,167.335165 14.4014536,167.046703 14.1859769,166.873626 C13.9705002,166.675824 13.6472852,166.585165 13.2086362,166.585165 L11.6310389,166.585165 Z M17.502779,167.508242 C18.1415135,167.508242 18.626336,167.739011 18.9495511,168.200549 C19.2419838,168.612637 19.3958957,169.197802 19.4112869,169.93956 L16.2714835,169.93956 C16.3022659,170.417582 16.4176999,170.788462 16.6331766,171.052198 C16.8486533,171.315934 17.1487815,171.447802 17.5258658,171.447802 C17.8490808,171.447802 18.1184267,171.357143 18.3185122,171.184066 C18.4878153,171.035714 18.6186404,170.813187 18.7186832,170.516484 L19.3343309,170.516484 C19.2419838,170.928571 19.064985,171.258242 18.7956392,171.521978 C18.4647285,171.835165 18.0414707,172 17.5258658,172 C16.9563916,172 16.4946558,171.793956 16.1560496,171.398352 C15.8020522,170.986264 15.632749,170.442308 15.632749,169.75 C15.632749,169.123626 15.7943566,168.596154 16.1329628,168.175824 C16.471569,167.730769 16.9256092,167.508242 17.502779,167.508242 Z M17.5181702,168.06044 C17.1641727,168.06044 16.8794357,168.184066 16.663959,168.431319 C16.4484823,168.678571 16.3253527,169.008242 16.2868747,169.428571 L18.7725524,169.428571 C18.6955964,168.513736 18.2723386,168.06044 17.5181702,168.06044 Z M21.773835,167.508242 C22.4125695,167.508242 22.897392,167.739011 23.2206071,168.200549 C23.5130398,168.612637 23.6669517,169.197802 23.6823429,169.93956 L20.5425395,169.93956 C20.5733219,170.417582 20.6887559,170.788462 20.9042326,171.052198 C21.1197093,171.315934 21.4198375,171.447802 21.7969218,171.447802 C22.1201368,171.447802 22.3894827,171.357143 22.5895682,171.184066 C22.7588713,171.035714 22.8896965,170.813187 22.9897392,170.516484 L23.6053869,170.516484 C23.5130398,170.928571 23.336041,171.258242 23.0666952,171.521978 C22.7357845,171.835165 22.3125267,172 21.7969218,172 C21.2274476,172 20.7657118,171.793956 20.4271056,171.398352 C20.0731082,170.986264 19.903805,170.442308 19.903805,169.75 C19.903805,169.123626 20.0654126,168.596154 20.4040188,168.175824 C20.7426251,167.730769 21.1966652,167.508242 21.773835,167.508242 Z M21.7892262,168.06044 C21.4352287,168.06044 21.1504917,168.184066 20.935015,168.431319 C20.7195383,168.678571 20.5964087,169.008242 20.5579307,169.428571 L23.0436084,169.428571 C22.9666524,168.513736 22.5433946,168.06044 21.7892262,168.06044 Z M26.1526293,167.508242 C26.368106,167.508242 26.5528003,167.541209 26.6990167,167.607143 L26.6990167,168.266484 C26.4989312,168.200549 26.2988457,168.175824 26.1064558,168.175824 C25.7986319,168.175824 25.5369816,168.315934 25.3292005,168.612637 C25.1137238,168.892857 25.0136811,169.230769 25.0136811,169.626374 L25.0136811,171.884615 L24.4057289,171.884615 L24.4057289,167.623626 L25.0136811,167.623626 L25.0136811,168.365385 C25.1214194,168.118132 25.2599401,167.92033 25.4292433,167.78022 C25.6370244,167.598901 25.8755879,167.508242 26.1526293,167.508242 Z M28.5074818,166 L29,166 L29,171.884615 L28.3689611,171.884615 L28.3689611,166.824176 C28.0226593,167.203297 27.5917059,167.467033 27.0761009,167.631868 L27.0761009,166.956044 C27.32236,166.881868 27.5840103,166.766484 27.8456605,166.601648 C28.1073108,166.42033 28.3227875,166.222527 28.5074818,166 Z" id="Peer1" fill="#666666"></path>
                    <path d="M78,166.113208 L80.2609369,166.113208 C81.5307782,166.113208 82.1656988,166.679245 82.1656988,167.811321 C82.1656988,168.951482 81.5230352,169.525606 80.253194,169.525606 L78.6349206,169.525606 L78.6349206,171.886792 L78,171.886792 L78,166.113208 Z M78.6349206,166.687332 L78.6349206,168.951482 L80.2222222,168.951482 C80.6713124,168.951482 80.9965157,168.854447 81.2133178,168.668464 C81.4223771,168.48248 81.5307782,168.199461 81.5307782,167.811321 C81.5307782,167.423181 81.4223771,167.140162 81.2055749,166.97035 C80.9887727,166.77628 80.6635695,166.687332 80.2222222,166.687332 L78.6349206,166.687332 Z M84.5427797,167.592992 C85.1854433,167.592992 85.6732482,167.819407 85.9984514,168.272237 C86.2926829,168.67655 86.4475416,169.250674 86.4630275,169.978437 L83.3039102,169.978437 C83.3348819,170.447439 83.4510259,170.811321 83.6678281,171.070081 C83.8846303,171.328841 84.1866047,171.458221 84.5660085,171.458221 C84.8912118,171.458221 85.1622145,171.369272 85.3635308,171.199461 C85.5338753,171.053908 85.6655052,170.83558 85.7661634,170.544474 L86.3855981,170.544474 C86.2926829,170.948787 86.1145954,171.272237 85.8435927,171.530997 C85.5106465,171.838275 85.0847851,172 84.5660085,172 C83.9930314,172 83.5284553,171.797844 83.1877662,171.409704 C82.8315912,171.005391 82.6612466,170.471698 82.6612466,169.792453 C82.6612466,169.177898 82.8238482,168.660377 83.1645374,168.247978 C83.5052265,167.811321 83.9620596,167.592992 84.5427797,167.592992 Z M84.5582656,168.134771 C84.2020906,168.134771 83.915602,168.256065 83.6987998,168.498652 C83.4819977,168.74124 83.3581107,169.06469 83.3193961,169.477089 L85.8203639,169.477089 C85.7429346,168.579515 85.3170732,168.134771 84.5582656,168.134771 Z M88.8401084,167.592992 C89.482772,167.592992 89.9705768,167.819407 90.2957801,168.272237 C90.5900116,168.67655 90.7448703,169.250674 90.7603562,169.978437 L87.6012389,169.978437 C87.6322106,170.447439 87.7483546,170.811321 87.9651568,171.070081 C88.181959,171.328841 88.4839334,171.458221 88.8633372,171.458221 C89.1885405,171.458221 89.4595432,171.369272 89.6608595,171.199461 C89.831204,171.053908 89.9628339,170.83558 90.0634921,170.544474 L90.6829268,170.544474 C90.5900116,170.948787 90.4119241,171.272237 90.1409214,171.530997 C89.8079752,171.838275 89.3821138,172 88.8633372,172 C88.29036,172 87.825784,171.797844 87.4850949,171.409704 C87.1289199,171.005391 86.9585753,170.471698 86.9585753,169.792453 C86.9585753,169.177898 87.1211769,168.660377 87.461866,168.247978 C87.8025552,167.811321 88.2593883,167.592992 88.8401084,167.592992 Z M88.8555943,168.134771 C88.4994193,168.134771 88.2129307,168.256065 87.9961285,168.498652 C87.7793264,168.74124 87.6554394,169.06469 87.6167247,169.477089 L90.1176926,169.477089 C90.0402633,168.579515 89.6144019,168.134771 88.8555943,168.134771 Z M93.2458382,167.592992 C93.4626403,167.592992 93.6484708,167.625337 93.7955865,167.690027 L93.7955865,168.336927 C93.5942702,168.272237 93.3929539,168.247978 93.1993806,168.247978 C92.8896632,168.247978 92.6264034,168.385445 92.4173442,168.67655 C92.200542,168.951482 92.0998839,169.283019 92.0998839,169.671159 L92.0998839,171.886792 L91.488192,171.886792 L91.488192,167.706199 L92.0998839,167.706199 L92.0998839,168.433962 C92.2082849,168.191375 92.3476578,167.997305 92.5180023,167.859838 C92.7270616,167.681941 92.9670925,167.592992 93.2458382,167.592992 Z M96.2346109,166 C96.7456446,166 97.1637631,166.153639 97.4967093,166.460916 C97.8219125,166.768194 97.9922571,167.180593 97.9922571,167.681941 C97.9922571,168.183288 97.8064266,168.636119 97.4502516,169.040431 C97.2566783,169.250674 96.8772745,169.566038 96.3042973,169.97035 C95.5996903,170.463612 95.1970577,170.908356 95.0963995,171.296496 L98,171.296496 L98,171.886792 L94.3143631,171.886792 C94.3143631,171.361186 94.4924506,170.884097 94.8641115,170.455526 C95.0809137,170.196765 95.4758033,169.849057 96.0642664,169.428571 C96.4978707,169.105121 96.7843593,168.87062 96.931475,168.708895 C97.2102207,168.393531 97.3573364,168.045822 97.3573364,167.673854 C97.3573364,167.318059 97.2566783,167.051213 97.055362,166.857143 C96.8540457,166.663073 96.5675571,166.566038 96.2113821,166.566038 C95.8319783,166.566038 95.5377468,166.695418 95.3364305,166.97035 C95.1196283,167.229111 95.0034843,167.617251 94.9957414,168.126685 L94.3608208,168.126685 C94.3608208,167.479784 94.5389082,166.962264 94.8795974,166.58221 C95.2202865,166.19407 95.6771196,166 96.2346109,166 Z" id="Peer2" fill="#666666"></path>
                    <rect id="Rectangle-22" stroke="#006DB1" x="0.5" y="127.5" width="105" height="54"></rect>
                    <g id="Group-21" transform="translate(41.000000, 142.000000)" fill="#2193DA" fill-rule="nonzero">
                        <path d="M18.6809762,4.48189722 L20.7610537,2.25854593 C20.9899652,2.01386721 21.4033287,1.97710019 21.6843269,2.1764245 C21.9653251,2.3757488 22.0075498,2.73568438 21.7786383,2.98036311 L19.1980184,5.73873364 C18.9381238,6.01652963 18.4521225,6.01992276 18.1871455,5.74579129 L15.5208896,2.98742075 C15.2875017,2.74596967 15.3230925,2.38549081 15.600384,2.18226867 C15.8776755,1.97904653 16.2916629,2.01003721 16.5250508,2.25148829 L18.6809762,4.48189722 Z" id="Path-2" transform="translate(18.646411, 3.998631) rotate(-90.000000) translate(-18.646411, -3.998631) "></path>
                        <path d="M4.35480367,2.25854593 C4.58371518,2.01386721 4.99707869,1.97710019 5.27807692,2.1764245 C5.55907514,2.3757488 5.60129977,2.73568438 5.37238826,2.98036311 L2.79176844,5.73873364 C2.53187377,6.01652963 2.0458725,6.01992276 1.78089553,5.74579129 L-0.885360423,2.98742075 C-1.11874835,2.74596967 -1.08315749,2.38549081 -0.805866017,2.18226867 C-0.528574546,1.97904653 -0.114587101,2.01003721 0.118800822,2.25148829 L2.27472621,4.48189722 L4.35480367,2.25854593 Z" id="Path-2-Copy-3" transform="translate(2.240161, 3.998631) rotate(-270.000000) translate(-2.240161, -3.998631) "></path>
                        <path d="M0.65625,4.57142857 L0.65625,3.42857143 L1.96875,3.42857143 L1.96875,4.57142857 L0.65625,4.57142857 Z M3.28125,4.57142857 L3.28125,3.42857143 L4.59375,3.42857143 L4.59375,4.57142857 L3.28125,4.57142857 Z M5.90625,4.57142857 L5.90625,3.42857143 L7.21875,3.42857143 L7.21875,4.57142857 L5.90625,4.57142857 Z M8.53125,4.57142857 L8.53125,3.42857143 L9.84375,3.42857143 L9.84375,4.57142857 L8.53125,4.57142857 Z M11.15625,4.57142857 L11.15625,3.42857143 L12.46875,3.42857143 L12.46875,4.57142857 L11.15625,4.57142857 Z M13.78125,4.57142857 L13.78125,3.42857143 L15.09375,3.42857143 L15.09375,4.57142857 L13.78125,4.57142857 Z M16.40625,4.57142857 L16.40625,3.42857143 L17.71875,3.42857143 L17.71875,4.57142857 L16.40625,4.57142857 Z" id="Path-3"></path>
                    </g>
                    <g id="Group-18" transform="translate(5.000000, 134.000000)">
                        <g id="服务器-2" transform="translate(4.407157, 4.963636)" fill="url(#linearGradient-1)" fill-rule="nonzero">
                            <path d="M22.0357834,12.763538 L22.0357834,18.436298 C22.0357834,19.2162538 21.4161343,19.8545455 20.6586863,19.8545455 L1.37720859,19.8545455 C0.619760588,19.8545455 0,19.2162538 0,18.436298 L0,12.763538 L15.8381775,12.763538 L15.8381775,11.3455201 L0,11.3455201 L0,1.41813262 C0,0.638176898 0.619760588,0 1.37720859,0 L20.6586863,0 C21.4161343,0 22.0357834,0.638176898 22.0357834,1.41813262 L22.0357834,11.3455201 L17.2156091,11.3455201 L17.2156091,12.763538 L22.0357834,12.763538 Z M19.2814777,2.83638004 C19.2814777,2.41092877 19.0058799,2.12725633 18.5927062,2.12725633 L3.44330019,2.12725633 C3.03001498,2.12725633 2.75464015,2.41092877 2.75464015,2.83638004 L2.75464015,4.25451265 C2.75464015,4.67996392 3.03012647,4.96363636 3.44330019,4.96363636 L18.5928176,4.96363636 C19.0059914,4.96363636 19.2815892,4.67996392 19.2815892,4.25451265 L19.2815892,2.83638004 L19.2814777,2.83638004 Z M18.5927062,9.21814902 C19.0058799,9.21814902 19.2812547,8.93447657 19.2812547,8.50914011 L19.2812547,7.09089269 C19.2812547,6.66544143 19.0058799,6.38188378 18.5927062,6.38188378 L3.44330019,6.38188378 C3.03001498,6.38188378 2.75464015,6.66544143 2.75464015,7.09089269 L2.75464015,8.50914011 C2.75464015,8.93447657 3.03012647,9.21814902 3.44330019,9.21814902 L18.5927062,9.21814902 Z M5.50894584,15.599918 C5.50894584,15.1744667 5.23345953,14.8909091 4.82050878,14.8909091 L3.4431887,14.8909091 C3.02990349,14.8909091 2.75464015,15.1744667 2.75464015,15.599918 L2.75464015,17.0181654 C2.75464015,17.4436167 3.03012647,17.7271743 3.4431887,17.7271743 L4.82050878,17.7271743 C5.2336825,17.7271743 5.50894584,17.4436167 5.50894584,17.0181654 L5.50894584,15.599918 Z M7.57481447,15.599918 L7.57481447,17.0181654 C7.57481447,17.4436167 7.85030078,17.7271743 8.26336302,17.7271743 L18.5927062,17.7271743 C19.0058799,17.7271743 19.2812547,17.4436167 19.2812547,17.0181654 L19.2812547,15.599918 C19.2812547,15.1744667 19.0058799,14.8909091 18.5927062,14.8909091 L8.26336302,14.8909091 C7.85030078,14.8909091 7.57481447,15.1743519 7.57481447,15.599918 Z M5.50894584,8.50902531 L4.13173725,8.50902531 L4.13173725,7.09089269 L5.50894584,7.09089269 L5.50894584,8.50902531 Z M4.13173725,2.83638004 L5.50894584,2.83638004 L5.50894584,4.25451265 L4.13173725,4.25451265 L4.13173725,2.83638004 Z" id="Shape"></path>
                        </g>
                        <ellipse id="Oval-14" fill="#57BFFF" cx="28.0169246" cy="0.930681818" rx="1" ry="1"></ellipse>
                        <ellipse id="Oval-14-Copy" fill="#006DB1" cx="28.9613153" cy="3.72272727" rx="1" ry="1"></ellipse>
                        <ellipse id="Oval-14-Copy-2" fill="#006DB1" cx="0.62959381" cy="24.1977273" rx="1" ry="1"></ellipse>
                    </g>
                    <g id="Group-18-Copy-2" transform="translate(72.000000, 134.000000)">
                        <g id="服务器-2" transform="translate(4.407157, 4.963636)" fill="url(#linearGradient-1)" fill-rule="nonzero">
                            <path d="M22.0357834,12.763538 L22.0357834,18.436298 C22.0357834,19.2162538 21.4161343,19.8545455 20.6586863,19.8545455 L1.37720859,19.8545455 C0.619760588,19.8545455 0,19.2162538 0,18.436298 L0,12.763538 L15.8381775,12.763538 L15.8381775,11.3455201 L0,11.3455201 L0,1.41813262 C0,0.638176898 0.619760588,0 1.37720859,0 L20.6586863,0 C21.4161343,0 22.0357834,0.638176898 22.0357834,1.41813262 L22.0357834,11.3455201 L17.2156091,11.3455201 L17.2156091,12.763538 L22.0357834,12.763538 Z M19.2814777,2.83638004 C19.2814777,2.41092877 19.0058799,2.12725633 18.5927062,2.12725633 L3.44330019,2.12725633 C3.03001498,2.12725633 2.75464015,2.41092877 2.75464015,2.83638004 L2.75464015,4.25451265 C2.75464015,4.67996392 3.03012647,4.96363636 3.44330019,4.96363636 L18.5928176,4.96363636 C19.0059914,4.96363636 19.2815892,4.67996392 19.2815892,4.25451265 L19.2815892,2.83638004 L19.2814777,2.83638004 Z M18.5927062,9.21814902 C19.0058799,9.21814902 19.2812547,8.93447657 19.2812547,8.50914011 L19.2812547,7.09089269 C19.2812547,6.66544143 19.0058799,6.38188378 18.5927062,6.38188378 L3.44330019,6.38188378 C3.03001498,6.38188378 2.75464015,6.66544143 2.75464015,7.09089269 L2.75464015,8.50914011 C2.75464015,8.93447657 3.03012647,9.21814902 3.44330019,9.21814902 L18.5927062,9.21814902 Z M5.50894584,15.599918 C5.50894584,15.1744667 5.23345953,14.8909091 4.82050878,14.8909091 L3.4431887,14.8909091 C3.02990349,14.8909091 2.75464015,15.1744667 2.75464015,15.599918 L2.75464015,17.0181654 C2.75464015,17.4436167 3.03012647,17.7271743 3.4431887,17.7271743 L4.82050878,17.7271743 C5.2336825,17.7271743 5.50894584,17.4436167 5.50894584,17.0181654 L5.50894584,15.599918 Z M7.57481447,15.599918 L7.57481447,17.0181654 C7.57481447,17.4436167 7.85030078,17.7271743 8.26336302,17.7271743 L18.5927062,17.7271743 C19.0058799,17.7271743 19.2812547,17.4436167 19.2812547,17.0181654 L19.2812547,15.599918 C19.2812547,15.1744667 19.0058799,14.8909091 18.5927062,14.8909091 L8.26336302,14.8909091 C7.85030078,14.8909091 7.57481447,15.1743519 7.57481447,15.599918 Z M5.50894584,8.50902531 L4.13173725,8.50902531 L4.13173725,7.09089269 L5.50894584,7.09089269 L5.50894584,8.50902531 Z M4.13173725,2.83638004 L5.50894584,2.83638004 L5.50894584,4.25451265 L4.13173725,4.25451265 L4.13173725,2.83638004 Z" id="Shape"></path>
                        </g>
                        <ellipse id="Oval-14" fill="#57BFFF" cx="28.0169246" cy="0.930681818" rx="1" ry="1"></ellipse>
                        <ellipse id="Oval-14-Copy" fill="#006DB1" cx="28.9613153" cy="3.72272727" rx="1" ry="1"></ellipse>
                        <ellipse id="Oval-14-Copy-2" fill="#006DB1" cx="0.62959381" cy="24.1977273" rx="1" ry="1"></ellipse>
                    </g>
                    <g id="Group-22-Copy" transform="translate(136.000000, 151.000000)" fill="#2193DA" fill-rule="nonzero">
                        <path d="M41.2464218,2.42944937 C41.4688939,2.16702828 41.8574926,2.13852721 42.1143813,2.36579045 C42.37127,2.59305369 42.3991702,2.99002127 42.1766982,3.25244237 L38.5201569,7.56558411 C38.2774181,7.8519112 37.8437522,7.85551182 37.5964895,7.57325307 L33.8181161,3.26011133 C33.5914979,3.00141892 33.613078,2.60404051 33.8663166,2.37254182 C34.1195553,2.14104313 34.5085561,2.16308799 34.7351744,2.42178041 L38.0474503,6.20285604 L41.2464218,2.42944937 Z" id="Path-2" transform="translate(37.994105, 4.997512) rotate(-90.000000) translate(-37.994105, -4.997512) "></path>
                        <path d="M2.97421802,6.20285604 L6.17318947,2.42944937 C6.39566154,2.16702828 6.78426024,2.13852721 7.04114897,2.36579045 C7.29803769,2.59305369 7.3259379,2.99002127 7.10346583,3.25244237 L3.44692453,7.56558411 C3.20418573,7.8519112 2.77051987,7.85551182 2.52325721,7.57325307 L-1.25511623,3.26011133 C-1.48173446,3.00141892 -1.46015434,2.60404051 -1.20691569,2.37254182 C-0.953677037,2.14104313 -0.564676174,2.16308799 -0.338057945,2.42178041 L2.97421802,6.20285604 Z" id="Path-2-Copy" transform="translate(2.920872, 4.997512) rotate(-270.000000) translate(-2.920872, -4.997512) "></path>
                        <path d="M3.36959109,5.6 L3.36959109,4.34285714 L4.60023082,4.34285714 L4.60023082,5.6 L3.36959109,5.6 Z M7.06151029,5.6 L7.06151029,4.34285714 L8.29215002,4.34285714 L8.29215002,5.6 L7.06151029,5.6 Z M10.7534295,5.6 L10.7534295,4.34285714 L11.9840692,4.34285714 L11.9840692,5.6 L10.7534295,5.6 Z M14.4453487,5.6 L14.4453487,4.34285714 L15.6759884,4.34285714 L15.6759884,5.6 L14.4453487,5.6 Z M18.1372679,5.6 L18.1372679,4.34285714 L19.3679076,4.34285714 L19.3679076,5.6 L18.1372679,5.6 Z M21.8291871,5.6 L21.8291871,4.34285714 L23.0598268,4.34285714 L23.0598268,5.6 L21.8291871,5.6 Z M25.5211062,5.6 L25.5211062,4.34285714 L26.751746,4.34285714 L26.751746,5.6 L25.5211062,5.6 Z M29.2130254,5.6 L29.2130254,4.34285714 L30.4436652,4.34285714 L30.4436652,5.6 L29.2130254,5.6 Z M32.9049446,5.6 L32.9049446,4.34285714 L34.1355844,4.34285714 L34.1355844,5.6 L32.9049446,5.6 Z M36.5968638,5.6 L36.5968638,4.34285714 L37.8275036,4.34285714 L37.8275036,5.6 L36.5968638,5.6 Z" id="Path-4"></path>
                    </g>
                    <path d="M263.020104,41 C263.725987,41 264.324646,41.1698113 264.807148,41.509434 C265.28965,41.8490566 265.575577,42.309973 265.664929,42.884097 L264.959047,42.884097 C264.869695,42.4636119 264.637379,42.1401617 264.27997,41.9137466 C263.931497,41.6954178 263.511541,41.5902965 263.011169,41.5902965 C262.269546,41.5902965 261.697692,41.8247978 261.295607,42.2938005 C260.920328,42.7304582 260.732688,43.3045822 260.732688,44.0242588 C260.732688,44.7439353 260.911392,45.3180593 261.286672,45.7385445 C261.679821,46.1832884 262.24274,46.4097035 262.993299,46.4097035 C263.502606,46.4097035 263.931497,46.2884097 264.288905,46.0458221 C264.664185,45.787062 264.923306,45.4070081 265.048399,44.9056604 L265.754281,44.9056604 C265.611318,45.5768194 265.280715,46.1024259 264.753537,46.4743935 C264.2621,46.8221024 263.672375,47 262.993299,47 C262.001489,47 261.241996,46.7008086 260.714818,46.1105121 C260.232316,45.5768194 260,44.8814016 260,44.0242588 C260,43.1671159 260.241251,42.4636119 260.732688,41.9137466 C261.268801,41.2991914 262.03723,41 263.020104,41 Z M268.640357,41.1132075 L269.489203,41.1132075 L272,46.8867925 L271.204765,46.8867925 L270.525689,45.2695418 L267.594937,45.2695418 L266.91586,46.8867925 L266.129561,46.8867925 L268.640357,41.1132075 Z M267.827252,44.7115903 L270.293373,44.7115903 L269.087118,41.8247978 L269.051378,41.8247978 L267.827252,44.7115903 Z" id="CA-Copy" fill="#666666"></path>
                    <g id="Group-Copy-3" transform="translate(245.000000, 0.000000)">
                        <g id="认证-4" transform="translate(3.620690, 3.152473)">
                            <g id="认证-2">
                                <path d="M25.849362,0 L6.26293652,0 C4.91000633,0 3.75380325,1.17526519 3.75380325,2.58132264 L3.75380325,15.8501022 L10.6944731,14.9837435 C10.6944731,16.389801 13.5107768,18.0834611 14.8775124,18.0834611 L10.0352648,28.3448399 L25.8666187,28.3448399 C27.2195489,28.3448399 28.375752,27.2476891 28.3619466,25.7635173 L28.3619466,2.58487329 C28.3584952,1.17526519 27.2160976,0 25.849362,0 Z M22.4083635,20.895576 L19.250376,20.895576 C18.6498406,20.895576 18.1666513,20.4020356 18.1666513,19.7806718 C18.1666513,19.1628587 18.6463893,18.6657677 19.250376,18.6657677 L22.4083635,18.6657677 C23.0088989,18.6657677 23.4920882,19.1593081 23.4920882,19.7806718 C23.4886369,20.398485 23.0088989,20.895576 22.4083635,20.895576 Z M22.4083635,14.9872942 L17.1761131,14.9872942 C16.5755778,14.9872942 16.0923884,14.4937538 16.0923884,13.87239 C16.0923884,13.2545769 16.5721264,12.7574859 17.1761131,12.7574859 L22.4083635,12.7574859 C23.0088989,12.7574859 23.4920882,13.2510263 23.4920882,13.87239 C23.4886369,14.4902032 23.0088989,14.9872942 22.4083635,14.9872942 Z M22.4083635,9.00089807 L9.64526197,9.00089807 C9.04472663,9.00089807 8.56153728,8.5073577 8.56153728,7.88599393 C8.56153728,7.2681808 9.04127528,6.77108979 9.64526197,6.77108979 L22.4221689,6.77108979 C23.0227043,6.77108979 23.5058936,7.26463015 23.5058936,7.88599393 C23.5058936,8.5073577 23.0088989,9.00089807 22.4083635,9.00089807 Z" id="Shape" fill="url(#linearGradient-1)" fill-rule="nonzero"></path>
                                <path d="M8.13324037,12.6098901 C3.6059213,12.6098901 0,16.3228249 0,20.9845019 C0,25.6461789 3.66480763,29.3591137 8.13324037,29.3591137 C12.5982092,29.3591137 16.2664807,25.6461789 16.2664807,20.9845019 C16.2664807,16.3228249 12.6605594,12.6098901 8.13324037,12.6098901 Z" id="Shape" stroke="#57BFFF" fill="#FFFFFF" fill-rule="nonzero"></path>
                                <path d="M6.06827586,18.2843407 C6.64034483,18.2843407 7.12551724,18.4432253 7.51655172,18.7609945 C7.90758621,19.0787637 8.13931034,19.510022 8.21172414,20.0472033 L7.63965517,20.0472033 C7.56724138,19.6537747 7.37896552,19.3511374 7.08931034,19.1392912 C6.80689655,18.935011 6.46655172,18.8366538 6.06103448,18.8366538 C5.46,18.8366538 4.99655172,19.0560659 4.67068966,19.4948901 C4.36655172,19.9034505 4.21448276,20.4406319 4.21448276,21.114 C4.21448276,21.7873681 4.35931034,22.3245495 4.66344828,22.717978 C4.98206897,23.1341044 5.43827586,23.3459505 6.04655172,23.3459505 C6.45931034,23.3459505 6.80689655,23.2324615 7.09655172,23.0054835 C7.40068966,22.7633736 7.61068966,22.4077747 7.71206897,21.9386868 L8.28413793,21.9386868 C8.16827586,22.5666593 7.90034483,23.0584451 7.47310345,23.406478 C7.07482759,23.7318132 6.59689655,23.8982637 6.04655172,23.8982637 C5.24275862,23.8982637 4.62724138,23.6183242 4.2,23.066011 C3.80896552,22.5666593 3.62068966,21.915989 3.62068966,21.114 C3.62068966,20.312011 3.8162069,19.6537747 4.21448276,19.1392912 C4.64896552,18.5642802 5.27172414,18.2843407 6.06827586,18.2843407 Z M10.6231034,18.3902637 L11.3110345,18.3902637 L13.3458621,23.7923407 L12.7013793,23.7923407 L12.1510345,22.2791538 L9.77586207,22.2791538 L9.22551724,23.7923407 L8.58827586,23.7923407 L10.6231034,18.3902637 Z M9.96413793,21.7571044 L11.9627586,21.7571044 L10.9851724,19.0560659 L10.9562069,19.0560659 L9.96413793,21.7571044 Z" id="CA" fill="#006DB1"></path>
                            </g>
                        </g>
                        <ellipse id="Oval-8" fill="#006DB1" cx="38.0172414" cy="5.67445055" rx="1" ry="1"></ellipse>
                        <ellipse id="Oval-8-Copy-2" fill="#006DB1" cx="0.603448276" cy="32.1552198" rx="1" ry="1"></ellipse>
                        <ellipse id="Oval-8-Copy" fill="#57BFFF" cx="35.9051724" cy="0.945741758" rx="1" ry="1"></ellipse>
                    </g>
                    <g id="Group-27" transform="translate(260.000000, 63.000000)" fill="#2193DA" fill-rule="nonzero">
                        <path d="M7.39624724,34.6740594 C7.61318033,34.4171436 7.99210394,34.3892405 8.2425968,34.611736 C8.49308966,34.8342314 8.52029523,35.222871 8.30336213,35.4797868 L4.73785921,39.702443 C4.50116397,39.9827633 4.07829527,39.9862883 3.8371888,39.7099511 L0.152887042,35.4872949 C-0.0680889833,35.2340296 -0.0470461557,34.8449878 0.199887513,34.6183457 C0.446821181,34.3917036 0.826136933,34.413286 1.04711296,34.6665513 L4.27692186,38.3683037 L7.39624724,34.6740594 Z" id="Path-2-Copy-4"></path>
                        <path d="M3.6,0 L4.8,0 L4.8,1.23076923 L3.6,1.23076923 L3.6,0 Z M3.6,3.69230769 L4.8,3.69230769 L4.8,4.92307692 L3.6,4.92307692 L3.6,3.69230769 Z M3.6,7.38461538 L4.8,7.38461538 L4.8,8.61538462 L3.6,8.61538462 L3.6,7.38461538 Z M3.6,11.0769231 L4.8,11.0769231 L4.8,12.3076923 L3.6,12.3076923 L3.6,11.0769231 Z M3.6,14.7692308 L4.8,14.7692308 L4.8,16 L3.6,16 L3.6,14.7692308 Z M3.6,18.4615385 L4.8,18.4615385 L4.8,19.6923077 L3.6,19.6923077 L3.6,18.4615385 Z M3.6,22.1538462 L4.8,22.1538462 L4.8,23.3846154 L3.6,23.3846154 L3.6,22.1538462 Z M3.6,25.8461538 L4.8,25.8461538 L4.8,27.0769231 L3.6,27.0769231 L3.6,25.8461538 Z M3.6,29.5384615 L4.8,29.5384615 L4.8,30.7692308 L3.6,30.7692308 L3.6,29.5384615 Z M3.6,33.2307692 L4.8,33.2307692 L4.8,34.4615385 L3.6,34.4615385 L3.6,33.2307692 Z" id="Path-5"></path>
                    </g>
                    <path d="M43.0201042,41 C43.7259866,41 44.3246463,41.1698113 44.8071482,41.509434 C45.28965,41.8490566 45.5755771,42.309973 45.6649293,42.884097 L44.9590469,42.884097 C44.8696947,42.4636119 44.637379,42.1401617 44.2799702,41.9137466 C43.9314966,41.6954178 43.5115413,41.5902965 43.011169,41.5902965 C42.2695458,41.5902965 41.6976917,41.8247978 41.2956069,42.2938005 C40.9203276,42.7304582 40.732688,43.3045822 40.732688,44.0242588 C40.732688,44.7439353 40.9113924,45.3180593 41.2866716,45.7385445 C41.6798213,46.1832884 42.2427401,46.4097035 42.9932986,46.4097035 C43.5026061,46.4097035 43.9314966,46.2884097 44.2889054,46.0458221 C44.6641847,45.787062 44.923306,45.4070081 45.0483991,44.9056604 L45.7542815,44.9056604 C45.6113179,45.5768194 45.2807148,46.1024259 44.7535369,46.4743935 C44.2620998,46.8221024 43.6723753,47 42.9932986,47 C42.0014892,47 41.2419955,46.7008086 40.7148176,46.1105121 C40.2323157,45.5768194 40,44.8814016 40,44.0242588 C40,43.1671159 40.2412509,42.4636119 40.732688,41.9137466 C41.2688012,41.2991914 42.0372301,41 43.0201042,41 Z M48.6403574,41.1132075 L49.4892033,41.1132075 L52,46.8867925 L51.2047655,46.8867925 L50.5256888,45.2695418 L47.5949367,45.2695418 L46.91586,46.8867925 L46.1295607,46.8867925 L48.6403574,41.1132075 Z M47.8272524,44.7115903 L50.293373,44.7115903 L49.0871184,41.8247978 L49.0513775,41.8247978 L47.8272524,44.7115903 Z" id="CA" fill="#666666"></path>
                    <g id="Group" transform="translate(26.000000, 0.000000)">
                        <g id="认证-4" transform="translate(3.620690, 3.104097)">
                            <g id="认证-2" fill-rule="nonzero">
                                <path d="M25.849362,0 L6.26293652,0 C4.91000633,0 3.75380325,1.15723043 3.75380325,2.54171155 L3.75380325,15.6068781 L10.6944731,14.753814 C10.6944731,16.1382951 13.5107768,17.8059655 14.8775124,17.8059655 L10.0352648,27.9098808 L25.8666187,27.9098808 C27.2195489,27.9098808 28.375752,26.8295659 28.3619466,25.3681692 L28.3619466,2.54520772 C28.3584952,1.15723043 27.2160976,0 25.849362,0 Z M22.4083635,20.5749278 L19.250376,20.5749278 C18.6498406,20.5749278 18.1666513,20.0889609 18.1666513,19.4771321 C18.1666513,18.8687995 18.6463893,18.3793365 19.250376,18.3793365 L22.4083635,18.3793365 C23.0088989,18.3793365 23.4920882,18.8653033 23.4920882,19.4771321 C23.4886369,20.0854647 23.0088989,20.5749278 22.4083635,20.5749278 Z M22.4083635,14.7573101 L17.1761131,14.7573101 C16.5755778,14.7573101 16.0923884,14.2713433 16.0923884,13.6595145 C16.0923884,13.0511819 16.5721264,12.5617188 17.1761131,12.5617188 L22.4083635,12.5617188 C23.0088989,12.5617188 23.4920882,13.0476857 23.4920882,13.6595145 C23.4886369,14.2678471 23.0088989,14.7573101 22.4083635,14.7573101 Z M22.4083635,8.86277687 L9.64526197,8.86277687 C9.04472663,8.86277687 8.56153728,8.37681001 8.56153728,7.76498123 C8.56153728,7.15664862 9.04127528,6.6671856 9.64526197,6.6671856 L22.4221689,6.6671856 C23.0227043,6.6671856 23.5058936,7.15315245 23.5058936,7.76498123 C23.5058936,8.37681001 23.0088989,8.86277687 22.4083635,8.86277687 Z" id="Shape" fill="url(#linearGradient-1)"></path>
                                <path d="M8.13324037,12.6863094 C3.6059213,12.6863094 0,16.3422682 0,20.9324106 C0,25.5225529 3.66480763,29.1785117 8.13324037,29.1785117 C12.5982092,29.1785117 16.2664807,25.5225529 16.2664807,20.9324106 C16.2664807,16.3422682 12.6605594,12.6863094 8.13324037,12.6863094 Z" id="Shape" stroke="#57BFFF" fill="#FFFFFF"></path>
                            </g>
                            <path d="M5.46482759,18.0037625 C6.03689655,18.0037625 6.52206897,18.160209 6.91310345,18.473102 C7.30413793,18.785995 7.53586207,19.2106355 7.60827586,19.7395736 L7.0362069,19.7395736 C6.9637931,19.3521823 6.77551724,19.054189 6.48586207,18.8455936 C6.20344828,18.6444482 5.86310345,18.5476003 5.45758621,18.5476003 C4.85655172,18.5476003 4.39310345,18.7636455 4.06724138,19.1957358 C3.76310345,19.5980268 3.61103448,20.1269649 3.61103448,20.79 C3.61103448,21.4530351 3.75586207,21.9819732 4.06,22.3693645 C4.37862069,22.7791054 4.83482759,22.9877007 5.44310345,22.9877007 C5.85586207,22.9877007 6.20344828,22.8759532 6.49310345,22.6524582 C6.79724138,22.4140635 7.00724138,22.0639214 7.10862069,21.6020318 L7.68068966,21.6020318 C7.56482759,22.2203679 7.29689655,22.704607 6.86965517,23.0472993 C6.47137931,23.3676421 5.99344828,23.5315385 5.44310345,23.5315385 C4.63931034,23.5315385 4.0237931,23.2558946 3.59655172,22.7120569 C3.20551724,22.2203679 3.01724138,21.5796823 3.01724138,20.79 C3.01724138,20.0003177 3.21275862,19.3521823 3.61103448,18.8455936 C4.04551724,18.2794064 4.66827586,18.0037625 5.46482759,18.0037625 Z M10.0196552,18.1080602 L10.7075862,18.1080602 L12.7424138,23.4272408 L12.097931,23.4272408 L11.5475862,21.9372742 L9.17241379,21.9372742 L8.62206897,23.4272408 L7.98482759,23.4272408 L10.0196552,18.1080602 Z M9.36068966,21.4232358 L11.3593103,21.4232358 L10.3817241,18.7636455 L10.3527586,18.7636455 L9.36068966,21.4232358 Z" id="CA-Copy-2" fill="#006DB1"></path>
                        </g>
                        <ellipse id="Oval-8" fill="#006DB1" cx="38.0172414" cy="5.58737458" rx="1" ry="1"></ellipse>
                        <ellipse id="Oval-8-Copy-2" fill="#006DB1" cx="0.603448276" cy="31.6617893" rx="1" ry="1"></ellipse>
                        <ellipse id="Oval-8-Copy" fill="#57BFFF" cx="35.9051724" cy="0.931229097" rx="1" ry="1"></ellipse>
                    </g>
                    <path d="M48.0025189,96.2338313 C48.2079037,95.9511665 48.5666556,95.9204668 48.8038137,96.1652616 C49.0409717,96.4100564 49.066729,96.837647 48.8613442,97.1203119 L45.4856482,101.766179 C45.2615533,102.074594 44.8611957,102.078473 44.6329243,101.77444 L41.1447536,97.1285724 C40.9355411,96.8499239 40.9554637,96.4218908 41.1892521,96.1725338 C41.4230404,95.9231768 41.7821636,95.9469222 41.9913761,96.2255707 L45.0492485,100.298327 L48.0025189,96.2338313 Z" id="Path-2-Copy-4" fill="#2193DA" fill-rule="nonzero"></path>
                    <path d="M46,63 L48,63 L48,64.25 L46,64.25 L46,63 Z M46,66.75 L48,66.75 L48,68 L46,68 L46,66.75 Z M46,70.5 L48,70.5 L48,71.75 L46,71.75 L46,70.5 Z M46,74.25 L48,74.25 L48,75.5 L46,75.5 L46,74.25 Z M46,78 L48,78 L48,79.25 L46,79.25 L46,78 Z M46,81.75 L48,81.75 L48,83 L46,83 L46,81.75 Z M46,85.5 L48,85.5 L48,86.75 L46,86.75 L46,85.5 Z M46,89.25 L48,89.25 L48,90.5 L46,90.5 L46,89.25 Z M46,93 L48,93 L48,94.25 L46,94.25 L46,93 Z M46,96.75 L48,96.75 L48,98 L46,98 L46,96.75 Z" id="Path-5" fill="#2193DA" fill-rule="nonzero"></path>
                    <g id="Group-26-Copy-2" transform="translate(78.000000, 67.000000)" fill="#2193DA" fill-rule="nonzero">
                        <path d="M35.031074,2.99747431 C35.250378,2.73505322 35.6334428,2.70655215 35.8866733,2.93381539 C36.1399038,3.16107863 36.1674067,3.55804621 35.9481028,3.82046731 L32.3436326,8.13360905 C32.1043505,8.41993614 31.6768603,8.42353675 31.4331188,8.14127801 L27.7085514,3.82813627 C27.4851604,3.56944386 27.5064332,3.17206545 27.7560656,2.94056676 C28.005698,2.70906806 28.3891593,2.73111293 28.6125503,2.98980535 L31.8776577,6.77088097 L35.031074,2.99747431 Z" id="Path-2-Copy-5" transform="translate(31.825072, 5.565537) rotate(-129.000000) translate(-31.825072, -5.565537) "></path>
                        <path d="M8.51529378,37.0088419 C8.73459773,36.7464208 9.11766257,36.7179198 9.37089306,36.945183 C9.62412355,37.1724463 9.65162644,37.5694138 9.4323225,37.8318349 L5.82785232,42.1449767 C5.58857026,42.4313038 5.16108004,42.4349044 4.91733853,42.1526456 L1.19277118,37.8395039 C0.969380112,37.5808115 0.990652915,37.1834331 1.24028531,36.9519344 C1.48991771,36.7204357 1.87337899,36.7424806 2.09677005,37.001173 L5.36187741,40.7822486 L8.51529378,37.0088419 Z" id="Path-2-Copy-6" transform="translate(5.309291, 39.576904) rotate(18.000000) translate(-5.309291, -39.576904) "></path>
                        <path d="M33.0154071,3.88151613 L33.7012246,4.91848387 C33.3700989,5.15366452 33.0407169,5.39147913 32.713108,5.63190428 L32.0120101,4.60596897 C32.3446845,4.3618264 32.6791601,4.1203342 33.0154071,3.88151613 Z M30.0394119,6.10119163 L30.7705248,7.10437584 C30.4500707,7.35518015 30.1314723,7.60853104 29.8147588,7.86440373 L29.0688897,6.87295371 C29.3904925,6.61313104 29.7140097,6.35586862 30.0394119,6.10119163 Z M27.1630198,8.46195038 L27.9378479,9.42925623 C27.6293595,9.69462259 27.3228292,9.96243297 27.0182855,10.2326615 L26.2292772,9.27774454 C26.5385168,9.00334932 26.8497739,8.73140917 27.1630198,8.46195038 Z M24.3902316,10.9609635 L25.2071568,11.890329 C24.9102462,12.1706057 24.6154071,12.4532355 24.3226672,12.7381914 L23.4921126,11.821891 C23.7893632,11.5325442 24.0887456,11.2455592 24.3902316,10.9609635 Z M21.7402411,13.5800636 L22.5973773,14.4696869 C22.313264,14.7636554 22.0313237,15.0598721 21.7515833,15.3583091 L20.8814163,14.4823763 C21.1654666,14.1793415 21.4517506,13.8785611 21.7402411,13.5800636 Z M19.2011698,16.3307761 L20.0968335,17.1786603 C19.8262809,17.4855807 19.557997,17.7946386 19.2920077,18.105805 L18.3839401,17.2722098 C18.654029,16.9562475 18.9264476,16.6424265 19.2011698,16.3307761 Z M16.7876163,19.1983686 L17.719922,20.0027175 C17.4631059,20.3223873 17.2086568,20.6440869 16.9565996,20.9677866 L16.0125192,20.1783243 C16.268465,19.849631 16.526839,19.522969 16.7876163,19.1983686 Z M14.5003271,22.1826346 L15.4673933,22.9416304 C15.2250957,23.273167 14.9852554,23.6066198 14.7478961,23.9419583 L13.7697164,23.1984137 C14.0107425,22.8578948 14.2542874,22.5192915 14.5003271,22.1826346 Z M12.3632859,25.2502339 L13.3628763,25.9625426 C13.1354163,26.3053295 12.9105006,26.6499193 12.6881515,26.9962812 L11.6781214,26.2999671 C11.9039114,25.9482453 12.1323071,25.5983238 12.3632859,25.2502339 Z M10.3535093,28.4338547 L11.3837415,29.0976238 C11.1718629,29.4507832 10.962607,29.8056274 10.7559948,30.1621257 L9.7160304,29.5148598 C9.9258464,29.1528337 10.1383464,28.7924882 10.3535093,28.4338547 Z M8.48670052,31.7121399 L9.54545187,32.3258261 C9.3496051,32.6886781 9.15645439,33.0530966 8.96601906,33.4190507 L7.8982657,32.8223488 C8.09166014,32.4507083 8.28781163,32.0806282 8.48670052,31.7121399 Z M6.76913577,35.0748216 L7.85418045,35.6370291 C7.67473785,36.0089427 7.49806006,36.382305 7.32416494,36.7570854 L6.23086908,36.2123147 C6.40747181,35.8316989 6.58690009,35.4525241 6.76913577,35.0748216 Z M5.20149567,38.5219588 L6.31058553,39.0312915 C6.14803953,39.4113994 5.9883189,39.7928375 5.83144003,40.1755754 L4.71487741,39.6840889 C4.8742033,39.295381 5.03641494,38.907994 5.20149567,38.5219588 Z" id="Oval-13"></path>
                    </g>
                    <g id="Group-26-Copy-3" transform="translate(217.500000, 89.000000) scale(-1, 1) translate(-217.500000, -89.000000) translate(199.000000, 67.000000)" fill="#2193DA" fill-rule="nonzero">
                        <path d="M35.6149253,2.95525636 C35.8378843,2.69653134 36.2273335,2.6684317 36.4847845,2.89249404 C36.7422355,3.11655639 36.7701968,3.50793289 36.5472378,3.76665791 L32.8826931,8.01905117 C32.639423,8.30134549 32.204808,8.30489539 31.9570041,8.02661213 L28.1703606,3.77421886 C27.9432464,3.51917 27.9648737,3.12738847 28.2186667,2.89915032 C28.4724596,2.67091218 28.8623119,2.69264655 29.0894262,2.94769541 L32.408952,6.67551645 L35.6149253,2.95525636 Z" id="Path-2-Copy-5" transform="translate(32.355489, 5.487149) rotate(-120.000000) translate(-32.355489, -5.487149) "></path>
                        <path d="M8.65721534,36.4875906 C8.88017435,36.2288656 9.26962361,36.200766 9.52707461,36.4248283 C9.78452561,36.6488907 9.81248689,37.0402672 9.58952787,37.2989922 L5.9249832,41.5513854 C5.68171309,41.8336798 5.24709804,41.8372297 4.99929417,41.5589464 L1.21265069,37.3065531 C0.985536447,37.0515043 1.0071638,36.6597227 1.26095673,36.4314846 C1.51474967,36.2032465 1.90460197,36.2249808 2.13171622,36.4800297 L5.45124203,40.2078507 L8.65721534,36.4875906 Z" id="Path-2-Copy-6" transform="translate(5.397779, 39.019483) rotate(33.000000) translate(-5.397779, -39.019483) "></path>
                        <path d="M33.5656639,3.82684689 L34.2629116,4.84920944 C33.9262673,5.08107769 33.5913955,5.3155428 33.2583264,5.55258169 L32.5455436,4.54109616 C32.8837626,4.30039222 33.2238128,4.06230132 33.5656639,3.82684689 Z M30.5400688,6.01525935 L31.2833669,7.0043142 C30.9575719,7.25158606 30.6336635,7.50136864 30.3116714,7.75363748 L29.5533712,6.77615155 C29.880334,6.51998834 30.2092432,6.26634935 30.5400688,6.01525935 Z M27.6157368,8.34276799 L28.4034787,9.29644981 C28.0898488,9.55807861 27.7782097,9.82211701 27.4685903,10.0885395 L26.6664319,9.14707208 C26.9808254,8.87654158 27.2972702,8.60843158 27.6157368,8.34276799 Z M24.7967355,10.8065837 L25.6272761,11.7228596 C25.325417,11.9991887 25.0256639,12.2778379 24.728045,12.5587803 L23.8836478,11.6553855 C24.1858526,11.370114 24.4902247,11.0871711 24.7967355,10.8065837 Z M22.1025784,13.3887951 L22.9740002,14.2658885 C22.6851518,14.5557166 22.3985124,14.8477613 22.1141097,15.1419949 L21.2294399,14.2783992 C21.5182244,13.9796325 21.8092798,13.6830884 22.1025784,13.3887951 Z M19.5211893,16.1007652 L20.4317808,16.9367074 C20.1567189,17.2393049 19.8839636,17.5440099 19.6135412,17.8507936 L18.6903391,17.0289392 C18.9649295,16.7174271 19.2418884,16.4080261 19.5211893,16.1007652 Z M17.0674099,18.927969 L18.0152541,19.720989 C17.7541577,20.0361565 17.4954678,20.3533251 17.2392095,20.6724657 L16.2793946,19.8941226 C16.5396061,19.5700587 16.8022863,19.2479976 17.0674099,18.927969 Z M14.7419992,21.8702031 L15.7251832,22.6185089 C15.4788473,22.945376 15.2350097,23.2741322 14.9936943,23.6047476 L13.9992117,22.8716754 C14.2442549,22.5359526 14.4918588,22.2021184 14.7419992,21.8702031 Z M12.5693407,24.8945968 L13.5855909,25.596873 C13.3543399,25.934832 13.1256756,26.2745683 12.8996207,26.6160519 L11.8727568,25.929545 C12.1023099,25.582777 12.3345122,25.237784 12.5693407,24.8945968 Z M10.5260678,28.0333778 L11.5734706,28.6877982 C11.3580606,29.0359834 11.1453172,29.3858299 10.9352613,29.737307 L9.87796424,29.0991576 C10.0912772,28.7422304 10.3073188,28.3869602 10.5260678,28.0333778 Z M8.62814553,31.2654901 L9.70454273,31.8705327 C9.50543185,32.2282742 9.30906197,32.58756 9.11545271,32.9483598 L8.02990346,32.3600622 C8.22652115,31.9936561 8.42594183,31.6287884 8.62814553,31.2654901 Z M6.8819547,34.58081 L7.98508346,35.1350991 C7.80265015,35.5017745 7.62302773,35.8698782 7.44623435,36.23938 L6.3347169,35.7022821 C6.51426301,35.327027 6.69668176,34.9531928 6.8819547,34.58081 Z M5.28818727,37.979396 L6.41576196,38.481555 C6.25050686,38.8563093 6.08812422,39.232375 5.9286307,39.6097222 L4.7934587,39.1251581 C4.95544003,38.741925 5.12035519,38.3599941 5.28818727,37.979396 Z" id="Oval-13"></path>
                    </g>
                    <path d="M46.9437975,192 C47.8562025,192 48.5878481,192.297872 49.121519,192.910638 C49.6207595,193.489362 49.8789873,194.238298 49.8789873,195.165957 C49.8789873,196.085106 49.6207595,196.825532 49.121519,197.404255 C48.5878481,198.008511 47.8562025,198.314894 46.9351899,198.314894 C46.0141772,198.314894 45.2911392,198.008511 44.7574684,197.404255 C44.2496203,196.825532 44,196.076596 44,195.165957 C44,194.246809 44.2496203,193.497872 44.7574684,192.919149 C45.2911392,192.306383 46.0141772,192 46.9437975,192 Z M46.9437975,192.621277 C46.2379747,192.621277 45.678481,192.859574 45.2739241,193.344681 C44.8951899,193.804255 44.7058228,194.408511 44.7058228,195.165957 C44.7058228,195.914894 44.8951899,196.519149 45.2739241,196.978723 C45.6698734,197.455319 46.2293671,197.693617 46.9351899,197.693617 C47.6410127,197.693617 48.2005063,197.455319 48.5964557,196.995745 C48.9751899,196.53617 49.1731646,195.931915 49.1731646,195.165957 C49.1731646,194.391489 48.9751899,193.778723 48.5964557,193.319149 C48.2005063,192.851064 47.6496203,192.621277 46.9437975,192.621277 Z M52.7281013,193.676596 C52.9691139,193.676596 53.1756962,193.710638 53.3392405,193.778723 L53.3392405,194.459574 C53.115443,194.391489 52.8916456,194.365957 52.6764557,194.365957 C52.3321519,194.365957 52.0394937,194.510638 51.8070886,194.817021 C51.5660759,195.106383 51.4541772,195.455319 51.4541772,195.86383 L51.4541772,198.195745 L50.7741772,198.195745 L50.7741772,193.795745 L51.4541772,193.795745 L51.4541772,194.561702 C51.5746835,194.306383 51.7296203,194.102128 51.9189873,193.957447 C52.1513924,193.770213 52.4182278,193.676596 52.7281013,193.676596 Z M55.7493671,193.676596 C56.4207595,193.676596 56.92,193.965957 57.2470886,194.553191 L57.2470886,193.795745 L57.9356962,193.795745 L57.9356962,197.889362 C57.9356962,199.293617 57.2556962,200 55.9043038,200 C55.3017722,200 54.836962,199.880851 54.5270886,199.642553 C54.2086076,199.404255 54.0106329,199.046809 53.9331646,198.570213 L54.6217722,198.570213 C54.6734177,198.868085 54.8025316,199.089362 55.0005063,199.225532 C55.198481,199.370213 55.4997468,199.446809 55.9043038,199.446809 C56.7994937,199.446809 57.2470886,198.953191 57.2470886,197.982979 L57.2470886,197.208511 C56.92,197.795745 56.4207595,198.093617 55.7493671,198.093617 C55.1296203,198.093617 54.6389873,197.880851 54.2774684,197.46383 C53.9159494,197.055319 53.7437975,196.53617 53.7437975,195.897872 C53.7437975,195.251064 53.9159494,194.731915 54.2774684,194.323404 C54.6389873,193.889362 55.1296203,193.676596 55.7493671,193.676596 Z M55.8526582,194.238298 C55.4050633,194.238298 55.0607595,194.391489 54.8111392,194.714894 C54.5701266,195.004255 54.4496203,195.404255 54.4496203,195.897872 C54.4496203,196.357447 54.5529114,196.740426 54.7681013,197.029787 C55.0091139,197.353191 55.3620253,197.523404 55.8440506,197.523404 C56.2916456,197.523404 56.6359494,197.370213 56.8941772,197.06383 C57.1351899,196.765957 57.2556962,196.374468 57.2556962,195.897872 C57.2556962,195.404255 57.1351899,195.004255 56.8941772,194.714894 C56.6359494,194.391489 56.2916456,194.238298 55.8526582,194.238298 Z M60.4491139,192.119149 L61,192.119149 L61,198.195745 L60.2941772,198.195745 L60.2941772,192.970213 C59.9068354,193.361702 59.4248101,193.634043 58.8481013,193.804255 L58.8481013,193.106383 C59.1235443,193.029787 59.4162025,192.910638 59.7088608,192.740426 C60.001519,192.553191 60.2425316,192.348936 60.4491139,192.119149 Z" id="Org1-Copy" fill="#666666"></path>
                    <path d="M254.08247,192 C255.037855,192 255.803966,192.297872 256.362776,192.910638 C256.885534,193.489362 257.155926,194.238298 257.155926,195.165957 C257.155926,196.085106 256.885534,196.825532 256.362776,197.404255 C255.803966,198.008511 255.037855,198.314894 254.073457,198.314894 C253.109058,198.314894 252.35196,198.008511 251.79315,197.404255 C251.261379,196.825532 251,196.076596 251,195.165957 C251,194.246809 251.261379,193.497872 251.79315,192.919149 C252.35196,192.306383 253.109058,192 254.08247,192 Z M254.08247,192.621277 C253.343398,192.621277 252.757548,192.859574 252.333934,193.344681 C251.937359,193.804255 251.739072,194.408511 251.739072,195.165957 C251.739072,195.914894 251.937359,196.519149 252.333934,196.978723 C252.748535,197.455319 253.334385,197.693617 254.073457,197.693617 C254.812528,197.693617 255.398378,197.455319 255.812979,196.995745 C256.209554,196.53617 256.416854,195.931915 256.416854,195.165957 C256.416854,194.391489 256.209554,193.778723 255.812979,193.319149 C255.398378,192.851064 254.821541,192.621277 254.08247,192.621277 Z M260.139252,193.676596 C260.391618,193.676596 260.607932,193.710638 260.77918,193.778723 L260.77918,194.459574 C260.54484,194.391489 260.3105,194.365957 260.085174,194.365957 C259.724651,194.365957 259.418206,194.510638 259.174854,194.817021 C258.922488,195.106383 258.805318,195.455319 258.805318,195.86383 L258.805318,198.195745 L258.093285,198.195745 L258.093285,193.795745 L258.805318,193.795745 L258.805318,194.561702 C258.931501,194.306383 259.093736,194.102128 259.292023,193.957447 C259.535376,193.770213 259.814781,193.676596 260.139252,193.676596 Z M263.302839,193.676596 C264.005858,193.676596 264.528616,193.965957 264.871113,194.553191 L264.871113,193.795745 L265.592159,193.795745 L265.592159,197.889362 C265.592159,199.293617 264.880126,200 263.465074,200 C262.83416,200 262.347454,199.880851 262.022983,199.642553 C261.6895,199.404255 261.482199,199.046809 261.401082,198.570213 L262.122127,198.570213 C262.176205,198.868085 262.311402,199.089362 262.518702,199.225532 C262.726003,199.370213 263.04146,199.446809 263.465074,199.446809 C264.402434,199.446809 264.871113,198.953191 264.871113,197.982979 L264.871113,197.208511 C264.528616,197.795745 264.005858,198.093617 263.302839,198.093617 C262.653898,198.093617 262.140153,197.880851 261.761604,197.46383 C261.383055,197.055319 261.202794,196.53617 261.202794,195.897872 C261.202794,195.251064 261.383055,194.731915 261.761604,194.323404 C262.140153,193.889362 262.653898,193.676596 263.302839,193.676596 Z M263.410996,194.238298 C262.942316,194.238298 262.581794,194.391489 262.320415,194.714894 C262.068049,195.004255 261.941866,195.404255 261.941866,195.897872 C261.941866,196.357447 262.050023,196.740426 262.275349,197.029787 C262.527715,197.353191 262.897251,197.523404 263.401983,197.523404 C263.870662,197.523404 264.231185,197.370213 264.501577,197.06383 C264.753943,196.765957 264.880126,196.374468 264.880126,195.897872 C264.880126,195.404255 264.753943,195.004255 264.501577,194.714894 C264.231185,194.391489 263.870662,194.238298 263.410996,194.238298 Z M268.94502,192 C269.539883,192 270.026589,192.161702 270.414151,192.485106 C270.792699,192.808511 270.990987,193.242553 270.990987,193.770213 C270.990987,194.297872 270.774673,194.774468 270.360072,195.2 C270.134745,195.421277 269.693105,195.753191 269.026138,196.178723 C268.205949,196.697872 267.737269,197.165957 267.620099,197.574468 L271,197.574468 L271,198.195745 L266.709779,198.195745 C266.709779,197.642553 266.91708,197.140426 267.349707,196.689362 C267.602073,196.417021 268.06174,196.051064 268.746733,195.608511 C269.251465,195.268085 269.584948,195.021277 269.756196,194.851064 C270.080667,194.519149 270.251915,194.153191 270.251915,193.761702 C270.251915,193.387234 270.134745,193.106383 269.900406,192.902128 C269.666066,192.697872 269.332582,192.595745 268.917981,192.595745 C268.476341,192.595745 268.133844,192.731915 267.899504,193.021277 C267.647138,193.293617 267.511942,193.702128 267.502929,194.238298 L266.763858,194.238298 C266.763858,193.557447 266.971158,193.012766 267.367733,192.612766 C267.764308,192.204255 268.296079,192 268.94502,192 Z" id="Org2-Copy" fill="#666666"></path>
                </g>
            </g>
        </g>
    </g>
</svg>