<?xml version="1.0" encoding="UTF-8"?>
<svg width="80px" height="80px" viewBox="0 0 80 80" version="1.1" xmlns="http://www.w3.org/2000/svg" xmlns:xlink="http://www.w3.org/1999/xlink">
    <!-- Generator: Sketch 49.3 (51167) - http://www.bohemiancoding.com/sketch -->
    <title>Group 31</title>
    <desc>Created with Sketch.</desc>
    <defs>
        <linearGradient x1="17.5913853%" y1="15.9033121%" x2="87.5012622%" y2="75.3178805%" id="linearGradient-1">
            <stop stop-color="#12B3EF" offset="0%"></stop>
            <stop stop-color="#92E0FF" offset="100%"></stop>
        </linearGradient>
    </defs>
    <g id="Page-1" stroke="none" stroke-width="1" fill="none" fill-rule="evenodd">
        <g id="以太坊浏览器" transform="translate(-310.000000, -261.000000)">
            <g id="Group-32-Copy" transform="translate(280.000000, 241.000000)">
                <g id="Group-31" transform="translate(30.000000, 20.000000)">
                    <circle id="Oval-3" fill="url(#linearGradient-1)" cx="40" cy="40" r="40"></circle>
                    <g id="节点" transform="translate(13.000000, 13.000000)" fill="#FFFFFF" fill-rule="nonzero">
                        <path d="M27,43.4588203 C24.790957,43.4588203 22.6475684,43.0235508 20.6293184,42.1650352 C18.6804141,41.3360508 16.9303184,40.1494219 15.4274941,38.6381602 C13.9247227,37.1269512 12.7448438,35.3668359 11.9205527,33.4069102 C11.0669414,31.3771641 10.6340449,29.221541 10.6340449,27 C10.6340449,24.7785117 11.0668887,22.6228887 11.9205527,20.5931953 C12.7448965,18.6332168 13.9247754,16.8731016 15.4274941,15.3618926 C16.9302129,13.8506836 18.6803613,12.664002 20.6293184,11.8349121 C22.6474629,10.976502 24.7909043,10.5411797 26.9999473,10.5411797 C29.2089902,10.5411797 31.3523262,10.9764492 33.3706289,11.8349121 C35.3195332,12.6639492 37.0696289,13.8506309 38.5724531,15.3618926 C40.0752246,16.8731016 41.2551035,18.6332168 42.0793945,20.5931953 C42.9330059,22.6228887 43.3659023,24.778459 43.3659023,27 C43.3659023,29.221541 42.9330586,31.3771113 42.0793945,33.4068574 C41.2551563,35.3668359 40.0751719,37.1270039 38.5724531,38.6381602 C37.0696289,40.1495273 35.3195859,41.3360508 33.3706289,42.1650352 C31.3523789,43.0235508 29.209043,43.4588203 26.9999473,43.4588203 L27,43.4588203 Z M27,12.2036309 C18.8873438,12.2036309 12.2871094,18.8412012 12.2871094,26.9999473 C12.2871094,35.1586934 18.8873438,41.7962109 27,41.7962109 C35.1126563,41.7962109 41.7127324,35.1586934 41.7127324,27 C41.7127324,18.8413066 35.1126035,12.2036836 26.9999473,12.2036836 L27,12.2036309 Z" id="Shape"></path>
                        <path d="M27,39.5911758 C25.310127,39.5911758 23.6704043,39.2581055 22.1262891,38.6013516 C20.6354355,37.9671152 19.2965625,37.0593984 18.1470586,35.90325 C16.9974492,34.7471543 16.0948477,33.4006875 15.4641973,31.9012383 C14.811082,30.3484219 14.4799629,28.699418 14.4799629,26.9999473 C14.4799629,25.3005293 14.8111348,23.6514727 15.4641973,22.098709 C16.0948477,20.5992598 16.997502,19.2528457 18.1470059,18.0966973 C19.2966152,16.9406016 20.6354355,16.032832 22.1263418,15.3985957 C23.6704043,14.7418945 25.310127,14.4088242 26.9999473,14.4088242 C28.6897676,14.4088242 30.3294902,14.7418418 31.8735527,15.3986484 C33.3645117,16.032832 34.703332,16.9406016 35.8529941,18.09675 C37.0026035,19.2528457 37.9051523,20.5993125 38.5358027,22.0987617 C39.1888652,23.6514727 39.5200371,25.3005293 39.5200371,26.9999473 C39.5200371,28.699418 39.1888125,30.3484219 38.5358027,31.9012383 C37.9051523,33.4006875 37.0026035,34.7471543 35.8529941,35.90325 C34.7033848,37.0593984 33.3645117,37.9671152 31.8735527,38.6012988 C30.3295957,39.2581055 28.6898203,39.5911758 26.9999473,39.5911758 L27,39.5911758 Z M27,16.002668 C20.9702461,16.002668 16.0647891,20.9360215 16.0647891,27 C16.0647891,33.063873 20.9701934,37.997332 26.9999473,37.997332 C33.029543,37.997332 37.9351582,33.063873 37.9351582,27 C37.9351582,20.9360215 33.0295957,16.002668 26.9999473,16.002668 L27,16.002668 Z M24.3017402,0.00870117187 L29.6980488,0.00870117187 L29.6980488,11.4464707 L24.3017402,11.4464707 L24.3017402,0.00870117187 Z M24.3017402,42.5622305 L29.6980488,42.5622305 L29.6980488,54 L24.3017402,54 L24.3017402,42.5622305 Z M42.5610703,24.3018457 L53.9988398,24.3018457 L53.9988398,29.6981543 L42.5610703,29.6981543 L42.5610703,24.3018457 Z M0.00754101563,24.3018457 L11.4453105,24.3018457 L11.4453105,29.6981543 L0.00754101563,29.6981543 L0.00754101563,24.3018457 Z" id="Shape"></path>
                    </g>
                </g>
            </g>
        </g>
    </g>
</svg>