<?xml version="1.0" encoding="UTF-8"?>
<svg width="80px" height="80px" viewBox="0 0 80 80" version="1.1" xmlns="http://www.w3.org/2000/svg" xmlns:xlink="http://www.w3.org/1999/xlink">
    <!-- Generator: Sketch 49.3 (51167) - http://www.bohemiancoding.com/sketch -->
    <title>Group 33</title>
    <desc>Created with Sketch.</desc>
    <defs>
        <linearGradient x1="17.5913853%" y1="15.9033121%" x2="85.0635346%" y2="73.2461199%" id="linearGradient-1">
            <stop stop-color="#4673EE" offset="0%"></stop>
            <stop stop-color="#9BB4F9" offset="100%"></stop>
        </linearGradient>
    </defs>
    <g id="Page-1" stroke="none" stroke-width="1" fill="none" fill-rule="evenodd">
        <g id="以太坊浏览器" transform="translate(-880.000000, -261.000000)">
            <g id="Group-27-Copy-2" transform="translate(860.000000, 241.000000)">
                <g id="Group-33" transform="translate(20.000000, 20.000000)">
                    <circle id="Oval-3-Copy" fill="url(#linearGradient-1)" cx="40" cy="40" r="40"></circle>
                    <g id="时间" transform="translate(15.000000, 15.000000)" fill="#FFFFFF" fill-rule="nonzero">
                        <path d="M35.7142857,25 L25,25 L25,10.7142857 C25,9.7265625 24.2020089,8.92857143 23.2142857,8.92857143 C22.2265625,8.92857143 21.4285714,9.7265625 21.4285714,10.7142857 L21.4285714,26.7857143 C21.4285714,26.9698661 21.4564732,27.1484375 21.5066964,27.3158482 C21.7354911,28.0412946 22.4107143,28.5714286 23.2142857,28.5714286 L35.7142857,28.5714286 C36.7020089,28.5714286 37.5,27.7734375 37.5,26.7857143 C37.5,25.7979911 36.7020089,25 35.7142857,25 Z" id="Shape"></path>
                        <path d="M25,3.57142857 C27.8962054,3.57142857 30.6975446,4.13504464 33.3426339,5.25669643 C35.8928571,6.33370536 38.1863839,7.87946429 40.15625,9.84933036 C42.1261161,11.8191964 43.671875,14.1071429 44.7488839,16.6629464 C45.8649554,19.3024554 46.4341518,22.109375 46.4341518,25.0055804 C46.4341518,27.9017857 45.8705357,30.703125 44.7488839,33.3482143 C43.671875,35.8984375 42.1261161,38.1919643 40.15625,40.1618304 C38.1863839,42.1316964 35.8984375,43.6774554 33.3426339,44.7544643 C30.703125,45.8705357 27.8962054,46.4397321 25,46.4397321 C22.1037946,46.4397321 19.3024554,45.8761161 16.6573661,44.7544643 C14.1071429,43.6774554 11.8136161,42.1316964 9.84375,40.1618304 C7.87388393,38.1919643 6.328125,35.9040179 5.25111607,33.3482143 C4.13504464,30.7087054 3.56584821,27.9017857 3.56584821,25.0055804 C3.56584821,22.109375 4.12946429,19.3080357 5.25111607,16.6629464 C6.328125,14.1127232 7.87388393,11.8191964 9.84375,9.84933036 C11.8136161,7.87946429 14.1015625,6.33370536 16.6573661,5.25669643 C19.3024554,4.13504464 22.1037946,3.57142857 25,3.57142857 Z M25,0 C21.6238839,0 18.3537946,0.658482143 15.2678571,1.96428571 C12.2879464,3.22544643 9.61495536,5.02790179 7.32142857,7.32142857 C5.02790179,9.61495536 3.22544643,12.2879464 1.96428571,15.2678571 C0.658482143,18.3537946 0,21.6238839 0,25 C0,28.3761161 0.658482143,31.6462054 1.96428571,34.7321429 C3.22544643,37.7120536 5.02790179,40.3850446 7.32142857,42.6785714 C9.61495536,44.9720982 12.2879464,46.7745536 15.2678571,48.0357143 C18.3537946,49.3415179 21.6238839,50 25,50 C28.3761161,50 31.6462054,49.3415179 34.7321429,48.0357143 C37.7120536,46.7745536 40.3850446,44.9720982 42.6785714,42.6785714 C44.9720982,40.3850446 46.7745536,37.7120536 48.0357143,34.7321429 C49.3415179,31.6462054 50,28.3761161 50,25 C50,21.6238839 49.3415179,18.3537946 48.0357143,15.2678571 C46.7745536,12.2879464 44.9720982,9.61495536 42.6785714,7.32142857 C40.3850446,5.02790179 37.7120536,3.22544643 34.7321429,1.96428571 C31.6462054,0.658482143 28.3761161,0 25,0 Z" id="Shape"></path>
                    </g>
                </g>
            </g>
        </g>
    </g>
</svg>