<?xml version="1.0" encoding="UTF-8"?>
<svg width="80px" height="80px" viewBox="0 0 80 80" version="1.1" xmlns="http://www.w3.org/2000/svg" xmlns:xlink="http://www.w3.org/1999/xlink">
    <!-- Generator: Sketch 49.3 (51167) - http://www.bohemiancoding.com/sketch -->
    <title>Group 35</title>
    <desc>Created with Sketch.</desc>
    <defs>
        <linearGradient x1="17.5913853%" y1="15.9033121%" x2="88.7858352%" y2="78.7204325%" id="linearGradient-1">
            <stop stop-color="#F38A45" offset="0%"></stop>
            <stop stop-color="#F1BD60" offset="100%"></stop>
        </linearGradient>
    </defs>
    <g id="Page-1" stroke="none" stroke-width="1" fill="none" fill-rule="evenodd">
        <g id="1440px" transform="translate(-600.000000, -261.000000)">
            <g id="Group-21-Copy" transform="translate(570.000000, 241.000000)">
                <g id="Group-35" transform="translate(30.000000, 20.000000)">
                    <circle id="Oval-3-Copy-3" fill="url(#linearGradient-1)" cx="40" cy="40" r="40"></circle>
                    <g id="交易-copy" transform="translate(16.603774, 16.603774)" fill="#FFFFFF" fill-rule="nonzero">
                        <path d="M14.2889081,44.9505233 C17.1727372,46.1691736 20.2379684,46.7878015 23.3962264,46.7878015 C26.5544844,46.7878015 29.6197157,46.1691736 32.5035448,44.9505233 C35.2896958,43.7737349 37.7921152,42.0852995 39.941033,39.9363817 C42.0899509,37.7874639 43.7783863,35.2850445 44.9551746,32.4988934 C46.173825,29.6150643 46.7924528,26.5498331 46.7924528,23.3915751 C46.7924528,19.0890881 45.5970592,14.8703252 43.3318579,11.1864661 C43.3318579,11.1864661 43.1271991,10.8329645 43.057429,10.716681 C42.9783563,10.5864436 42.7225327,10.2050339 42.7225327,10.2050339 C38.3642297,3.81409655 31.154657,0 23.3962264,0 C20.2379684,0 17.1727372,0.618627856 14.2889081,1.83727822 C11.502757,3.01406654 9.0003376,4.70250197 6.85141978,6.85141978 C4.70250197,9.0003376 3.01406654,11.502757 1.83727822,14.2889081 C0.618627856,17.1727372 0,20.2379684 0,23.3962264 C0,26.5544844 0.618627856,29.6197157 1.83727822,32.5035448 C3.01406654,35.2896958 4.70250197,37.7921152 6.85141978,39.941033 C9.0003376,42.0852995 11.502757,43.7737349 14.2889081,44.9505233 Z M16.8006302,33.7966165 C16.7448141,33.8524326 16.6889981,33.9222026 16.6471361,34.010578 C16.2889831,34.4198957 16.1308376,34.9268915 16.2006077,35.4385386 C16.3215424,36.3595034 17.0890131,37.0292959 18.0285832,37.0292959 L18.2239394,37.0292959 L28.0987284,35.7129675 C29.0987659,35.5920327 29.8104205,34.6664166 29.6848344,33.6524251 C29.5638996,32.6523876 28.6382835,31.9360816 27.624292,32.0616677 L23.1311002,32.6709929 L41.0945647,14.7075284 C42.4248471,17.4146067 43.1225477,20.4007652 43.1225477,23.4008778 C43.1225477,34.2803556 34.2710529,43.1318504 23.3915751,43.1318504 C20.1961064,43.1318504 17.0238944,42.3457744 14.2144867,40.8619978 C11.6702052,39.5177614 9.42360929,37.6014104 7.68400915,35.2989985 L29.98252,13.0004876 C30.024382,12.9586256 30.0569414,12.9167636 30.0848494,12.8749015 C30.4941671,12.4655839 30.6848719,11.9167261 30.6104505,11.3585656 C30.5499831,10.8655238 30.2988109,10.4329495 29.9034472,10.1352639 C29.5173862,9.84222964 29.0336472,9.7119922 28.5499081,9.77245958 L18.7076785,11.0841367 C18.219288,11.1446041 17.7867137,11.3911249 17.4890281,11.7864886 C17.1913425,12.1818523 17.0704077,12.6702427 17.1448291,13.1632844 C17.2704152,14.0795979 18.0239319,14.7447391 18.9448967,14.7447391 L19.1449042,14.7447391 L23.6473986,14.1354139 L5.69323681,32.0895758 C4.36295435,29.3871488 3.66525376,26.4009903 3.66525376,23.3962264 C3.66525376,12.5167486 12.5167486,3.66525376 23.3962264,3.66525376 C26.5916951,3.66525376 29.7639071,4.45132976 32.5733148,5.93510634 C35.1175963,7.27934281 37.3641922,9.19569376 39.1037923,11.4981057 L16.8006302,33.7966165 Z M43.3272066,11.1911174 C43.3272066,11.1911174 43.1225477,10.8376158 43.0527777,10.7213324 C42.9737049,10.5910949 42.7178814,10.2096853 42.7178814,10.2096853 L43.3272066,11.1911174 Z" id="Shape"></path>
                    </g>
                </g>
            </g>
        </g>
    </g>
</svg>