<?xml version="1.0" encoding="UTF-8"?>
<svg width="46px" height="40px" viewBox="0 0 46 40" version="1.1" xmlns="http://www.w3.org/2000/svg" xmlns:xlink="http://www.w3.org/1999/xlink">
    <!-- Generator: Sketch 51.2 (57519) - http://www.bohemiancoding.com/sketch -->
    <title>Group 10</title>
    <desc>Created with Sketch.</desc>
    <defs>
        <linearGradient x1="45.1010682%" y1="14.3384797%" x2="59.4412202%" y2="93.2973786%" id="linearGradient-1">
            <stop stop-color="#84BAF5" offset="0%"></stop>
            <stop stop-color="#DBEBFA" offset="100%"></stop>
        </linearGradient>
        <linearGradient x1="45.1010682%" y1="14.3384797%" x2="59.4412202%" y2="93.2973786%" id="linearGradient-2">
            <stop stop-color="#75ACFF" offset="0%"></stop>
            <stop stop-color="#9AA2FF" offset="100%"></stop>
        </linearGradient>
    </defs>
    <g id="Page-1" stroke="none" stroke-width="1" fill="none" fill-rule="evenodd">
        <g id="产品服务导航" transform="translate(-1090.000000, -171.000000)">
            <g id="hyf" transform="translate(1034.000000, 88.000000)">
                <g id="Group-10" transform="translate(55.744367, 73.408307)">
                    <path d="M12.5215967,19.6150751 L30.209783,24.6055666 C30.8028214,24.7728847 31.2635002,25.2408075 31.4215458,25.8363841 L36.2880942,44.1754054 C36.5350716,45.1061109 35.9808005,46.0608115 35.050095,46.3077888 C34.7519186,46.3869147 34.4380865,46.3855088 34.140631,46.3037148 L16.4977318,41.4522881 C15.8998639,41.2878869 15.4342942,40.8183264 15.2750021,40.2190771 L10.3631665,21.7409909 C10.1157947,20.8103902 10.6696611,19.8554548 11.6002618,19.608083 C11.9024445,19.5277569 12.220668,19.5301719 12.5215967,19.6150751 Z" id="Rectangle-6-Copy" fill="url(#linearGradient-1)" opacity="0.600000024" transform="translate(23.325535, 32.957841) rotate(-45.000000) translate(-23.325535, -32.957841) "></path>
                    <path d="M15.1224631,31.2687914 L28.5462149,34.9447361 C28.9920397,35.0668202 29.3402865,35.4152069 29.4621915,35.8610806 L33.1349051,49.2942095 C33.3253662,49.9908303 32.9150427,50.7099522 32.2184219,50.9004133 C31.9952568,50.9614283 31.7598988,50.9621429 31.5363672,50.9024843 L18.1469463,47.3289632 C17.6976173,47.2090412 17.3457909,46.8594968 17.2229474,46.4109577 L13.5159029,32.8754052 C13.3251388,32.1788673 13.7351495,31.459567 14.4316874,31.2688029 C14.6577824,31.2068812 14.896366,31.2068773 15.1224631,31.2687914 Z" id="Rectangle-6-Copy" fill="url(#linearGradient-1)" opacity="0.400000006" transform="translate(23.325329, 41.084533) rotate(-45.000000) translate(-23.325329, -41.084533) "></path>
                    <path d="M9.91163699,7.23712353 L32.4612505,13.4109486 C33.2032325,13.6140948 33.7831533,14.193368 33.9871282,14.9351226 L40.2064292,37.5516026 C40.525573,38.7121687 39.8434655,39.9117106 38.6828994,40.2308544 C38.3088377,40.3337175 37.9140987,40.3348687 37.5394434,40.234189 L14.9975879,34.1766005 C14.2503712,33.9758038 13.6656335,33.3938907 13.4612209,32.647655 L7.23416198,9.91493846 C6.91616753,8.75405692 7.59946252,7.55519106 8.76034406,7.23719661 C9.13716427,7.13397614 9.53480367,7.1339509 9.91163699,7.23712353 Z" id="Rectangle-6-Copy" fill="url(#linearGradient-2)" transform="translate(23.720582, 23.734311) rotate(-45.000000) translate(-23.720582, -23.734311) "></path>
                </g>
            </g>
        </g>
    </g>
</svg>