<?xml version="1.0" encoding="UTF-8"?>
<svg width="84px" height="41px" viewBox="0 0 84 41" version="1.1" xmlns="http://www.w3.org/2000/svg" xmlns:xlink="http://www.w3.org/1999/xlink">
    <!-- Generator: Sketch 51.2 (57519) - http://www.bohemiancoding.com/sketch -->
    <title>Group 27</title>
    <desc>Created with Sketch.</desc>
    <defs>
        <linearGradient x1="57.9752066%" y1="36.7219153%" x2="38.9876033%" y2="68.3241252%" id="linearGradient-1">
            <stop stop-color="#00FFFF" stop-opacity="0.1" offset="0%"></stop>
            <stop stop-color="#00FFFF" stop-opacity="0" offset="100%"></stop>
        </linearGradient>
        <linearGradient x1="50%" y1="0%" x2="50%" y2="100%" id="linearGradient-2">
            <stop stop-color="#2A39DD" offset="0%"></stop>
            <stop stop-color="#4B94EF" offset="100%"></stop>
        </linearGradient>
        <linearGradient x1="50%" y1="0%" x2="50%" y2="100%" id="linearGradient-3">
            <stop stop-color="#8271FF" offset="0%"></stop>
            <stop stop-color="#C0A0FF" offset="100%"></stop>
        </linearGradient>
    </defs>
    <g id="Page-1" stroke="none" stroke-width="1" fill="none" fill-rule="evenodd">
        <g id="产品服务导航" transform="translate(-1074.000000, -142.000000)">
            <g id="hyf" transform="translate(1034.000000, 88.000000)">
                <g id="Group-27" transform="translate(39.000000, 51.000000)">
                    <g id="Group-12" transform="translate(0.911565, 29.625000)">
                        <polygon id="Shape" fill="url(#linearGradient-1)" fill-rule="nonzero" points="4.37505969 11.8339952 4.37505969 14.5167898 0.179547433 12.0518321 0.179547433 9.37005525"></polygon>
                        <polygon id="Shape" fill="url(#linearGradient-1)" fill-rule="nonzero" transform="translate(6.493632, 12.088567) scale(-1, 1) translate(-6.493632, -12.088567) " points="8.61827678 11.9777373 8.61827678 14.6949193 4.36898753 12.1983664 4.36898753 9.48221522"></polygon>
                        <g id="Group-10">
                            <g id="package-copy-2" transform="translate(0.154234, 2.521942)" fill="url(#linearGradient-2)" fill-rule="nonzero">
                                <path d="M8.43566122,2.54768373 C8.4350586,2.51461124 8.43104114,2.48193964 8.42260447,2.45087155 C8.41898876,2.43744211 8.41175733,2.42561619 8.40673551,2.41278808 C8.39910234,2.39314503 8.39287527,2.3731011 8.38242988,2.35486112 C8.37519845,2.34223344 8.36475305,2.33201104 8.35611552,2.32038556 C8.34406314,2.30414998 8.33341687,2.2869122 8.31895401,2.27248057 C8.30870949,2.26225816 8.29565275,2.25484191 8.28440386,2.2456217 C8.26893664,2.23319447 8.25467466,2.21936415 8.23719871,2.20914175 C8.23639521,2.20874087 8.23539085,2.20854043 8.23458736,2.20813955 C8.23378386,2.20773867 8.23338212,2.20713736 8.23257863,2.20673648 L4.41599181,0.0520139985 C4.29325842,-0.0173379995 4.14300542,-0.0173379995 4.02027202,0.0520139985 L2.17304401,1.09590187 C2.17284313,1.09590187 2.17264226,1.09610231 2.17244139,1.09610231 L0.203886085,2.20653604 C0.203082593,2.20693692 0.202479974,2.20773867 0.201877355,2.20813955 C0.201073863,2.20854043 0.200069498,2.20874087 0.199466879,2.20914175 C0.182392675,2.21896327 0.168733312,2.23259315 0.153667837,2.24461951 C0.141816331,2.25404015 0.128357841,2.26165685 0.117912445,2.27228013 C0.103047844,2.28711264 0.0919998295,2.30455086 0.0797465771,2.32138776 C0.0715107845,2.33261236 0.061266262,2.34263432 0.0544365803,2.35466068 C0.0429868199,2.37430373 0.0359562652,2.39615162 0.0281222186,2.41739818 C0.0239038858,2.42862278 0.0174759501,2.43904563 0.0142619823,2.45067111 C0.0060261897,2.480737 0.00261134887,2.51200553 0.00180785691,2.54387538 C0.00140611093,2.54768373 0,2.55129163 0,2.55530042 L0,7.06518468 C0,7.20970142 0.0779387202,7.34299355 0.203886085,7.4141495 L4.0204729,9.56887198 C4.04096194,9.58029702 4.0628571,9.58711196 4.08455138,9.59472865 C4.09499678,9.598537 4.10483955,9.60455018 4.11568669,9.60735633 C4.14923248,9.6163761 4.18378264,9.6209862 4.21833279,9.6209862 C4.25288295,9.6209862 4.2874331,9.6163761 4.32097889,9.60755677 C4.33162516,9.60475062 4.34146794,9.59873744 4.3521142,9.59492909 C4.37380849,9.5873124 4.39570364,9.58049746 4.41619269,9.56907242 L8.2327795,7.41434994 C8.35872686,7.34319399 8.43666558,7.20990185 8.43666558,7.06538512 L8.43666558,2.55550086 C8.43666558,2.55269471 8.43566122,2.55028944 8.43566122,2.54768373 Z" id="Shape"></path>
                            </g>
                            <path d="M1.78270507,1.99651224 L5.91178284,3.11967788 C6.03122831,3.15216868 6.07211218,3.17053018 6.11441164,3.19794411 C6.1567111,3.22535804 6.1906755,3.2591721 6.21827682,3.30134953 C6.24587814,3.34352696 6.26442083,3.38432897 6.29744121,3.50362912 L7.43479876,7.6128168 C7.49259288,7.82162263 7.3701737,8.03774458 7.16136788,8.0955387 C7.09406236,8.11416779 7.0230039,8.11449201 6.95553119,8.09647786 L2.82822419,6.99455193 C2.7081254,6.96248745 2.66697702,6.94417802 2.62440081,6.91675299 C2.58182461,6.88932795 2.54762456,6.85540481 2.51985431,6.81305295 C2.49208406,6.7707011 2.47344074,6.72970292 2.44040099,6.60986876 L1.30155745,2.47931813 C1.24397128,2.27045486 1.3666056,2.05445491 1.57546887,1.99686875 C1.64326682,1.97817602 1.71484321,1.97805289 1.78270507,1.99651224 Z" id="Rectangle-6-Copy" fill="#75ACFF" transform="translate(4.368230, 5.046256) rotate(-45.000000) translate(-4.368230, -5.046256) "></path>
                        </g>
                    </g>
                    <g id="Group-11" transform="translate(73.081633, 0.880435)">
                        <polygon id="Shape" fill="url(#linearGradient-1)" fill-rule="nonzero" points="5.78116422 14.9720508 5.78116422 18.5448 0.237252351 15.2621501 0.237252351 11.6907563"></polygon>
                        <polygon id="Shape" fill="url(#linearGradient-1)" fill-rule="nonzero" transform="translate(8.580627, 15.319851) scale(-1, 1) translate(-8.580627, -15.319851) " points="11.3881128 15.1722561 11.3881128 18.7907999 5.77314054 15.4660738 5.77314054 11.8489028"></polygon>
                        <g id="Group-10">
                            <g id="package-copy-2" transform="translate(0.203804, 2.570941)" fill="url(#linearGradient-3)" fill-rule="nonzero">
                                <path d="M11.1468063,3.39281843 C11.14601,3.34877492 11.1407014,3.30526527 11.1295532,3.26389106 C11.1247755,3.24600673 11.1152199,3.23025784 11.1085841,3.21317429 C11.0984977,3.18701512 11.0902693,3.16032208 11.0764669,3.13603142 C11.0669113,3.1192148 11.0531089,3.10560136 11.0416953,3.09011939 C11.0257694,3.06849803 11.0117015,3.04554202 10.9925904,3.02632304 C10.9790534,3.01270959 10.9618004,3.00283316 10.9469362,2.99055437 C10.9264979,2.97400468 10.9076523,2.95558649 10.8845597,2.94197304 C10.883498,2.94143918 10.8821708,2.94117225 10.8811091,2.94063839 C10.8800474,2.94010453 10.8795165,2.93930374 10.8784548,2.93876988 L5.83525157,0.0692684302 C5.67307277,-0.0230894767 5.47452982,-0.0230894767 5.31235102,0.0692684302 L2.87144066,1.45944178 C2.87117523,1.45944178 2.87090979,1.45970871 2.87064436,1.45970871 L0.269413225,2.93850295 C0.268351498,2.93903681 0.267555203,2.94010453 0.266758908,2.94063839 C0.265697181,2.94117225 0.264370022,2.94143918 0.263573727,2.94197304 C0.241012028,2.95505263 0.222962669,2.97320389 0.203055288,2.98921972 C0.187394815,3.00176544 0.169610887,3.0119088 0.155808437,3.02605611 C0.136166487,3.04580895 0.121567741,3.06903189 0.105376404,3.09145405 C0.0944937026,3.10640215 0.0809566834,3.11974866 0.0719320039,3.13576449 C0.0568023942,3.16192366 0.047512283,3.19101907 0.0371604448,3.21931369 C0.0315863781,3.23426179 0.0230925621,3.24814217 0.0188456542,3.26362413 C0.00796295246,3.30366369 0.00345061273,3.34530482 0.00238888574,3.38774675 C0.00185802224,3.39281843 0,3.39762318 0,3.40296178 L0,9.40889504 C0,9.60135184 0.102987519,9.77886053 0.269413225,9.87362081 L5.31261645,12.7431223 C5.33969049,12.7583373 5.36862255,12.7674129 5.39728918,12.7775563 C5.41109163,12.782628 5.42409779,12.7906359 5.4384311,12.7943729 C5.4827582,12.8063848 5.52841246,12.8125242 5.57406672,12.8125242 C5.61972099,12.8125242 5.66537525,12.8063848 5.70970235,12.7946398 C5.72377023,12.7909028 5.73677639,12.7828949 5.75084427,12.7778232 C5.7795109,12.7676799 5.80844296,12.7586042 5.835517,12.7433892 L10.8787202,9.87388774 C11.0451459,9.77912746 11.1481334,9.60161877 11.1481334,9.40916197 L11.1481334,3.40322871 C11.1481334,3.39949169 11.1468063,3.39628852 11.1468063,3.39281843 Z" id="Shape"></path>
                            </g>
                            <path d="M2.33828318,1.86647223 L7.81962241,3.36913389 C7.97434193,3.4115489 8.02728087,3.4354508 8.08203107,3.47108852 C8.13678127,3.50672624 8.18071257,3.55063733 8.21637546,3.60537114 C8.25203836,3.66010494 8.2759646,3.71303289 8.31845077,3.86773288 L9.83060842,9.37377866 C9.9049692,9.64454 9.74575508,9.92431675 9.47499374,9.99867753 C9.38772576,10.0226444 9.29564207,10.022883 9.2082511,9.99936845 L3.72924591,8.52511851 C3.5736744,8.48325848 3.52039074,8.45942429 3.46527993,8.42377202 C3.41016913,8.38811974 3.36593089,8.34406653 3.33004794,8.28910564 C3.29416499,8.23414475 3.27010768,8.18096145 3.22759597,8.02556676 L1.71347686,2.49094798 C1.63938393,2.22011322 1.7988747,1.94049408 2.06970946,1.86640116 C2.15762201,1.84235071 2.25038337,1.84237526 2.33828318,1.86647223 Z" id="Rectangle-6-Copy" fill="#8271FF" transform="translate(5.772109, 5.932606) rotate(-45.000000) translate(-5.772109, -5.932606) "></path>
                        </g>
                    </g>
                </g>
            </g>
        </g>
    </g>
</svg>