<?xml version="1.0" encoding="UTF-8"?>
<svg width="38px" height="38px" viewBox="0 0 38 38" version="1.1" xmlns="http://www.w3.org/2000/svg" xmlns:xlink="http://www.w3.org/1999/xlink">
    <!-- Generator: Sketch 49.3 (51167) - http://www.bohemiancoding.com/sketch -->
    <title>灵活</title>
    <desc>Created with Sketch.</desc>
    <defs>
        <linearGradient x1="50%" y1="100%" x2="50%" y2="10.5489746%" id="linearGradient-1">
            <stop stop-color="#0069FF" stop-opacity="0.4" offset="0%"></stop>
            <stop stop-color="#0069FF" stop-opacity="0" offset="100%"></stop>
        </linearGradient>
        <linearGradient x1="50%" y1="100%" x2="50%" y2="-2.49034266%" id="linearGradient-2">
            <stop stop-color="#0069FF" stop-opacity="0.4" offset="0%"></stop>
            <stop stop-color="#0069FF" stop-opacity="0" offset="100%"></stop>
        </linearGradient>
    </defs>
    <g id="Page-1" stroke="none" stroke-width="1" fill="none" fill-rule="evenodd">
        <g id="纸贵BaaS_版权存证" transform="translate(-1191.000000, -1953.000000)">
            <g id="Group-17" transform="translate(-427.000000, 1571.000000)">
                <g id="灵活" transform="translate(1616.000000, 382.000000)">
                    <g id="区块配置" transform="translate(4.000000, 3.000000)">
                        <path d="M32.0281765,32.3879912 L1.55050098,32.3879912 C1.3482924,32.3889877 1.1540641,32.3056829 1.01091152,32.1565605 C0.867758946,32.0074381 0.787520585,31.8048302 0.78799975,31.5936916 L0.78799975,1.18416845 C0.78799975,0.742164135 1.12718751,0.388 1.55050098,0.388 L32.0272815,0.388 C32.450595,0.388 32.7879929,0.742164135 32.7879929,1.18416845 L32.7879929,31.5918227 C32.7887082,31.8027979 32.7088206,32.0053612 32.5660301,32.1546319 C32.4232396,32.3039025 32.229336,32.3875556 32.0272815,32.3870567 L32.0281765,32.3879912 Z" id="Shape" fill="url(#linearGradient-1)" fill-rule="nonzero"></path>
                        <g id="Group" stroke="#2A39DD" stroke-width="2">
                            <path d="M32.5991027,7.41723643 L32.5991027,1.50537202 C32.5991027,0.723068084 32.0050977,0.200919276 31.3258503,0.200919276 L25.6388358,0.200919276 M7.64461206,0.2 L1.87414968,0.2 C1.19490228,0.2 0.600897289,0.808560758 0.600897289,1.50445274 L0.600897289,7.33082448 M0.6,24.9836828 L0.6,30.8091353 C0.6,31.5923585 1.19400499,32.1145073 1.87325239,32.1145073 L7.56026694,32.1145073 M25.6388358,32.2 L31.3258503,32.2 C32.0903401,32.2 32.6,31.5923585 32.6,30.8964665 L32.6,25.0700948" id="Shape"></path>
                        </g>
                        <g id="配置管理" transform="translate(16.500000, 17.000000) scale(1, -1) translate(-16.500000, -17.000000) translate(5.000000, 7.000000)" fill="#110262" fill-rule="nonzero">
                            <path d="M0.820713239,20 C0.366389839,20 0,19.6629464 0,19.25 C0,18.8370536 0.366389839,18.5 0.820713239,18.5 C2.22032242,18.5 3.35857352,17.4598214 3.35857352,16.1808036 L3.35857352,7.75 C3.35857352,7.33482143 3.72496336,7 4.17928676,7 C4.63361016,7 5,7.33482143 5,7.75 L5,16.1808036 C5,18.2857143 3.12408403,20 0.820713239,20 Z" id="Shape"></path>
                            <path d="M4,8 C1.79544126,8 0,6.20455874 0,4 C0,1.79544126 1.79544126,0 4,0 C6.20455874,0 8,1.79310345 8,4 C8,6.20689655 6.20689655,8 4,8 Z M4,1.5710111 C2.6604325,1.5710111 1.5710111,2.6604325 1.5710111,4 C1.5710111,5.3395675 2.6604325,6.4289889 4,6.4289889 C5.3395675,6.4289889 6.4289889,5.3395675 6.4289889,4 C6.4289889,2.6604325 5.3395675,1.5710111 4,1.5710111 Z" id="Shape"></path>
                            <path d="M12,20 C11.4464286,20 11,19.6651786 11,19.25 L11,13.75 C11,13.3348214 11.4464286,13 12,13 C12.5535714,13 13,13.3348214 13,13.75 L13,19.25 C13,19.6651786 12.5535714,20 12,20 Z" id="Shape"></path>
                            <path d="M12,7 C11.4464286,7 11,6.66517857 11,6.25 L11,0.75 C11,0.334821429 11.4464286,0 12,0 C12.5535714,0 13,0.334821429 13,0.75 L13,6.25 C13,6.66517857 12.5535714,7 12,7 Z" id="Shape"></path>
                            <path d="M12,14 C9.79544126,14 8,12.2068966 8,10 C8,7.79310345 9.79544126,6 12,6 C14.2045587,6 16,7.79310345 16,10 C16,12.2068966 14.2045587,14 12,14 Z M12,7.5710111 C10.6604325,7.5710111 9.5710111,8.6604325 9.5710111,10 C9.5710111,11.3395675 10.6604325,12.4289889 12,12.4289889 C13.3395675,12.4289889 14.4289889,11.3395675 14.4289889,10 C14.4289889,8.6604325 13.3395675,7.5710111 12,7.5710111 Z" id="Shape"></path>
                            <path d="M18.8207132,13 C18.3663898,13 18,12.6651786 18,12.25 L18,3.81919643 C18,1.71428571 19.8734734,0 22.1792868,0 C22.6336102,0 23,0.334821429 23,0.75 C23,1.16517857 22.6336102,1.5 22.1792868,1.5 C20.7796776,1.5 19.6414265,2.54017857 19.6414265,3.81919643 L19.6414265,12.25 C19.6414265,12.6629464 19.2750366,13 18.8207132,13 Z" id="Shape"></path>
                            <path d="M19,20 C16.7954413,20 15,18.2045587 15,16 C15,13.7954413 16.7931034,12 19,12 C21.2068966,12 23,13.7931034 23,16 C23,18.2068966 21.2068966,20 19,20 Z M19,13.5710111 C17.6604325,13.5710111 16.5710111,14.6604325 16.5710111,16 C16.5710111,17.3395675 17.6604325,18.4289889 19,18.4289889 C20.3395675,18.4289889 21.4289889,17.3395675 21.4289889,16 C21.4289889,14.6604325 20.3395675,13.5710111 19,13.5710111 Z" id="Shape"></path>
                        </g>
                    </g>
                </g>
            </g>
        </g>
    </g>
</svg>