<?xml version="1.0" encoding="UTF-8"?>
<svg width="38px" height="38px" viewBox="0 0 38 38" version="1.1" xmlns="http://www.w3.org/2000/svg" xmlns:xlink="http://www.w3.org/1999/xlink">
    <!-- Generator: Sketch 49.3 (51167) - http://www.bohemiancoding.com/sketch -->
    <title>一件部署</title>
    <desc>Created with Sketch.</desc>
    <defs>
        <linearGradient x1="50%" y1="100%" x2="50%" y2="-2.49034266%" id="linearGradient-1">
            <stop stop-color="#0069FF" stop-opacity="0.4" offset="0%"></stop>
            <stop stop-color="#0069FF" stop-opacity="0" offset="100%"></stop>
        </linearGradient>
    </defs>
    <g id="Page-1" stroke="none" stroke-width="1" fill="none" fill-rule="evenodd">
        <g id="纸贵BaaS_版权存证" transform="translate(-1191.000000, -1794.000000)">
            <g id="Group-17" transform="translate(-427.000000, 1571.000000)">
                <g id="一件部署" transform="translate(1616.000000, 223.000000)">
                    <g id="区块链网络" transform="translate(5.000000, 1.000000)">
                        <path d="M14.9852673,4.31901512 L4.98526726,10.206777 C4.37478138,10.5662165 4,11.2217961 4,11.9302379 L4,23.9818296 C4,24.6858829 4.37018962,25.3380778 4.974685,25.699016 L14.9818363,31.674187 C15.6095865,32.0490104 16.39184,32.0514164 17.021884,31.6804615 L27.0147327,25.7969101 C27.6252186,25.4374706 28,24.781891 28,24.0734492 L28,11.9302379 C28,11.2217961 27.6252186,10.5662165 27.0147327,10.206777 L17.0147327,4.31901512 C16.3884866,3.95029632 15.6115134,3.95029632 14.9852673,4.31901512 Z" id="Shape" fill="url(#linearGradient-1)" fill-rule="nonzero"></path>
                        <path d="M0,9 L15.5527864,16.7763932 C15.8343139,16.9171569 16.1656861,16.9171569 16.4472136,16.7763932 L32,9 M16,17 L16,36" id="Shape" stroke="#120078" stroke-width="2"></path>
                        <path d="M0,10.12769 L1.77635684e-15,25.9597868 C1.8654213e-15,26.6870533 0.394786204,27.3570001 1.03099072,27.7093641 L15.0309907,35.463311 C15.6338522,35.7972078 16.3661478,35.7972078 16.9690093,35.463311 L30.9690093,27.7093641 C31.6052138,27.3570001 32,26.6870533 32,25.9597868 L32,10.12769 C32,9.40361686 31.6086425,8.73608977 30.9768024,8.38245159 L16.9768024,0.546712079 C16.3698974,0.20702995 15.6301026,0.20702995 15.0231976,0.546712079 L1.02319761,8.38245159 C0.391357492,8.73608977 -9.76851804e-16,9.40361686 -8.8817842e-16,10.12769 Z" id="Shape" stroke="#2A39DD" stroke-width="2"></path>
                    </g>
                </g>
            </g>
        </g>
    </g>
</svg>